M48
; DRILL file {KiCad 8.0.6} date 2025-05-06T14:55:27+0200
; FORMAT={-:-/ absolute / metric / decimal}
; #@! TF.CreationDate,2025-05-06T14:55:27+02:00
; #@! TF.GenerationSoftware,Kicad,Pcbnew,8.0.6
; #@! TF.FileFunction,Plated,1,4,PTH
FMAT,2
METRIC
; #@! TA.AperFunction,Plated,PTH,ViaDrill
T1C0.300
; #@! TA.AperFunction,Plated,PTH,ViaDrill
T2C0.400
; #@! TA.AperFunction,Plated,PTH,ComponentDrill
T3C0.600
; #@! TA.AperFunction,Plated,PTH,ComponentDrill
T4C1.000
%
G90
G05
T1
X87.76Y-98.745
X87.76Y-101.245
X88.26Y-94.245
X88.76Y-97.745
X88.76Y-100.245
X88.76Y-102.745
X89.26Y-93.245
X89.26Y-106.745
X89.41Y-94.335
X90.41Y-103.645
X90.635Y-107.27
X90.655Y-108.64
X90.76Y-96.745
X90.985Y-91.345
X91.76Y-89.245
X91.76Y-91.245
X92.04Y-99.175
X92.1Y-97.255
X92.13Y-102.185
X92.26Y-106.245
X92.76Y-89.245
X93.16Y-106.245
X93.76Y-89.245
X94.385Y-110.245
X94.76Y-89.245
X94.76Y-96.245
X94.76Y-107.745
X94.8Y-95.075
X94.88Y-93.275
X95.26Y-104.745
X95.26Y-109.245
X95.76Y-89.245
X95.76Y-96.745
X95.97Y-92.975
X96.01Y-95.745
X96.26Y-113.245
X96.45Y-90.485
X96.76Y-89.245
X96.76Y-109.245
X96.76Y-110.745
X96.949Y-102.836
X97.26Y-104.745
X97.26Y-111.745
X97.46Y-113.675
X97.76Y-89.245
X97.97Y-111.715
X98.26Y-102.245
X98.66Y-105.025
X98.76Y-89.245
X98.76Y-98.245
X98.76Y-103.245
X98.835Y-90.07
X99.13Y-105.585
X99.17Y-113.015
X99.24Y-93.915
X99.26Y-97.245
X99.955Y-114.55
X100.16Y-105.435
X100.435Y-103.795
X100.66Y-106.015
X100.76Y-104.745
X101.42Y-114.515
X101.535Y-103.695
X102.41Y-105.745
X102.635Y-103.72
X102.72Y-106.865
X102.76Y-112.295
X103.26Y-106.245
X103.585Y-97.47
X103.76Y-99.745
X103.76Y-108.545
X103.76Y-110.245
X103.76Y-112.245
X104.16Y-104.845
X104.22Y-108.045
X104.26Y-110.745
X104.26Y-111.745
X104.26Y-113.245
X104.285Y-99.245
X104.61Y-94.945
X104.71Y-110.26
X105.16Y-99.845
X105.24Y-106.155
X105.49Y-112.775
X105.55Y-95.525
X105.885Y-103.97
X106.11Y-99.72
X106.485Y-108.395
X106.99Y-112.775
X107.485Y-108.395
X108.62Y-104.515
X108.994Y-108.393
X109.285Y-106.045
X109.96Y-102.97
X110.16Y-100.77
X110.26Y-110.245
X110.266Y-101.766
X110.76Y-93.245
X111.585Y-102.045
X111.76Y-93.245
X111.835Y-95.145
X112.385Y-102.035
X112.76Y-93.245
X112.76Y-106.745
X112.835Y-95.12
X113.37Y-105.155
X113.4Y-103.825
X114.26Y-97.745
X114.26Y-99.745
X114.26Y-101.245
X114.26Y-103.245
X128.636Y-92.468
X129.101Y-87.938
X129.101Y-103.178
X129.266Y-100.768
X131.641Y-105.718
X133.361Y-91.593
X134.181Y-87.938
X134.181Y-93.018
X134.181Y-98.098
X134.181Y-113.338
X134.862Y-85.373
X135.417Y-108.708
X136.161Y-77.493
X136.581Y-104.188
X136.721Y-80.318
X136.721Y-90.986
X136.721Y-95.558
X136.721Y-115.878
X137.614Y-87.236
X138.141Y-107.348
X138.561Y-105.471
X138.707Y-96.528
X138.707Y-97.258
X138.707Y-97.883
X138.707Y-98.638
X138.707Y-99.263
X138.707Y-99.858
X138.707Y-100.485
X138.707Y-101.138
X138.707Y-101.908
X138.707Y-102.595
X138.781Y-103.318
X139.261Y-77.778
X139.261Y-93.018
X139.261Y-113.338
X139.311Y-98.893
X139.381Y-103.918
X139.481Y-96.488
X139.871Y-86.919
X139.889Y-85.641
X139.911Y-104.448
X140.006Y-98.893
X140.181Y-96.488
X140.601Y-104.468
X140.631Y-98.893
X140.761Y-96.488
X140.771Y-92.728
X140.771Y-93.658
X140.771Y-94.508
X140.771Y-95.248
X140.771Y-95.908
X140.806Y-91.853
X141.281Y-104.468
X141.293Y-75.238
X141.411Y-98.893
X141.601Y-91.838
X141.801Y-80.318
X141.801Y-85.398
X141.801Y-110.798
X141.801Y-115.878
X141.891Y-104.458
X142.151Y-98.893
X142.309Y-120.958
X142.391Y-91.838
X142.541Y-104.438
X142.811Y-98.893
X142.961Y-76.438
X143.131Y-74.278
X143.191Y-104.448
X143.291Y-91.838
X143.481Y-98.893
X143.831Y-104.408
X144.111Y-91.838
X144.261Y-98.893
X144.281Y-103.918
X144.341Y-72.698
X144.341Y-82.858
X144.341Y-87.938
X144.341Y-113.338
X144.421Y-100.228
X144.781Y-91.838
X144.796Y-103.403
X144.946Y-98.893
X145.306Y-102.893
X145.441Y-91.838
X145.836Y-102.363
X145.906Y-92.233
X146.022Y-100.806
X146.022Y-101.656
X146.121Y-92.868
X146.121Y-93.558
X146.121Y-94.228
X146.121Y-97.528
X146.131Y-95.578
X146.131Y-96.838
X146.141Y-94.968
X146.151Y-96.228
X146.741Y-106.658
X146.741Y-110.378
X146.871Y-80.328
X146.881Y-70.158
X146.881Y-85.398
X146.881Y-116.386
X146.881Y-120.958
X147.701Y-94.788
X147.711Y-95.698
X147.711Y-96.628
X147.821Y-90.978
X147.897Y-80.826
X148.341Y-110.188
X148.781Y-94.788
X148.801Y-95.668
X148.851Y-96.628
X149.351Y-90.968
X149.361Y-110.168
X149.421Y-72.698
X149.421Y-87.938
X149.421Y-113.338
X149.421Y-118.418
X149.421Y-123.498
X149.491Y-74.308
X149.551Y-76.458
X149.551Y-108.898
X149.621Y-78.338
X149.841Y-102.968
X149.929Y-82.858
X149.931Y-97.198
X150.341Y-111.658
X150.341Y-110.158
X150.361Y-105.598
X150.491Y-108.908
X150.945Y-91.494
X151.441Y-108.898
X151.871Y-92.038
X151.961Y-80.318
X151.961Y-85.398
X151.961Y-120.958
X152.469Y-102.162
X152.834Y-116.7
X153.786Y-98.943
X153.993Y-103.686
X154.891Y-116.138
X154.903Y-76.38
X154.991Y-72.958
X155.486Y-105.313
X156.025Y-99.622
X156.119Y-120.275
X156.161Y-108.928
X156.271Y-77.698
X156.531Y-117.196
X157.041Y-85.398
X157.101Y-98.968
X157.711Y-97.578
X157.931Y-109.118
X157.951Y-94.018
X158.016Y-113.258
X158.401Y-76.428
X158.565Y-93.018
X158.721Y-96.378
X159.581Y-72.698
X159.581Y-77.778
X159.581Y-82.858
X159.581Y-118.418
X159.581Y-123.498
X159.791Y-93.538
X160.089Y-92.002
X160.597Y-113.338
X161.271Y-97.268
X161.281Y-93.538
X161.568Y-90.158
X161.631Y-88.558
X162.036Y-114.193
X162.121Y-70.158
X162.121Y-75.238
X162.121Y-111.306
X162.121Y-120.958
X162.261Y-107.738
X162.311Y-109.248
X162.311Y-118.343
X162.331Y-106.228
X162.561Y-98.008
X163.436Y-83.093
X164.153Y-122.99
X164.421Y-109.198
X164.661Y-72.698
X165.211Y-93.828
X165.386Y-80.968
X166.671Y-90.478
X166.693Y-83.874
X167.201Y-120.958
X167.598Y-99.008
X167.701Y-95.293
X167.709Y-106.226
X167.709Y-110.798
X168.217Y-80.318
X168.731Y-98.685
X169.241Y-95.348
X169.741Y-72.698
X169.741Y-77.778
X169.741Y-82.858
X169.741Y-87.938
X169.741Y-92.51
X169.741Y-108.258
X169.741Y-113.338
X169.741Y-118.418
X170.981Y-107.632
X171.685Y-106.75
X171.761Y-75.493
X172.281Y-80.318
X172.281Y-90.478
X172.281Y-115.878
X172.321Y-95.348
X172.454Y-87.814
X172.792Y-85.828
X173.529Y-106.239
X174.821Y-77.778
X174.821Y-82.858
X174.821Y-103.178
X174.821Y-113.338
X175.211Y-96.718
X175.705Y-84.518
X176.151Y-107.938
X178.531Y-88.898
X178.786Y-101.793
X179.041Y-93.178
X179.051Y-99.518
X179.071Y-94.928
X179.181Y-97.688
X179.586Y-96.343
X179.901Y-87.938
X179.901Y-105.21
X180.011Y-100.838
X180.061Y-91.248
X181.211Y-90.843
X181.576Y-103.253
X182.949Y-96.066
T2
X151.431Y-101.478
X152.921Y-104.018
X158.561Y-107.728
X158.571Y-106.278
X162.096Y-115.473
X162.201Y-117.058
X163.291Y-95.943
X164.381Y-119.608
X164.411Y-113.138
X168.366Y-116.693
X168.945Y-115.877
X173.257Y-88.771
T4
X159.071Y-81.228
X161.271Y-79.958
X163.47Y-78.688
X163.911Y-88.808
X163.911Y-91.348
X165.67Y-77.418
X167.87Y-76.148
X169.153Y-103.378
X171.693Y-103.378
T3
X89.397Y-96.116G85X88.197Y-96.116
G05
X89.397Y-104.756G85X88.197Y-104.756
G05
X93.198Y-96.116G85X92.398Y-96.116
G05
X93.198Y-104.756G85X92.398Y-104.756
G05
X177.701Y-92.018G85X178.501Y-92.018
G05
X177.701Y-100.658G85X178.501Y-100.658
G05
X181.501Y-92.018G85X182.701Y-92.018
G05
X181.501Y-100.658G85X182.701Y-100.658
G05
M30
