G04 #@! TF.GenerationSoftware,KiCad,Pcbnew,8.0.6*
G04 #@! TF.CreationDate,2025-05-06T14:55:23+02:00*
G04 #@! TF.ProjectId,Panelized,50616e65-6c69-47a6-9564-2e6b69636164,rev?*
G04 #@! TF.SameCoordinates,Original*
G04 #@! TF.FileFunction,Soldermask,Top*
G04 #@! TF.FilePolarity,Negative*
%FSLAX46Y46*%
G04 Gerber Fmt 4.6, Leading zero omitted, Abs format (unit mm)*
G04 Created by KiCad (PCBNEW 8.0.6) date 2025-05-06 14:55:23*
%MOMM*%
%LPD*%
G01*
G04 APERTURE LIST*
G04 Aperture macros list*
%AMRoundRect*
0 Rectangle with rounded corners*
0 $1 Rounding radius*
0 $2 $3 $4 $5 $6 $7 $8 $9 X,Y pos of 4 corners*
0 Add a 4 corners polygon primitive as box body*
4,1,4,$2,$3,$4,$5,$6,$7,$8,$9,$2,$3,0*
0 Add four circle primitives for the rounded corners*
1,1,$1+$1,$2,$3*
1,1,$1+$1,$4,$5*
1,1,$1+$1,$6,$7*
1,1,$1+$1,$8,$9*
0 Add four rect primitives between the rounded corners*
20,1,$1+$1,$2,$3,$4,$5,0*
20,1,$1+$1,$4,$5,$6,$7,0*
20,1,$1+$1,$6,$7,$8,$9,0*
20,1,$1+$1,$8,$9,$2,$3,0*%
%AMHorizOval*
0 Thick line with rounded ends*
0 $1 width*
0 $2 $3 position (X,Y) of the first rounded end (center of the circle)*
0 $4 $5 position (X,Y) of the second rounded end (center of the circle)*
0 Add line between two ends*
20,1,$1,$2,$3,$4,$5,0*
0 Add two circle primitives to create the rounded ends*
1,1,$1,$2,$3*
1,1,$1,$4,$5*%
%AMRotRect*
0 Rectangle, with rotation*
0 The origin of the aperture is its center*
0 $1 length*
0 $2 width*
0 $3 Rotation angle, in degrees counterclockwise*
0 Add horizontal line*
21,1,$1,$2,0,0,$3*%
G04 Aperture macros list end*
%ADD10RoundRect,0.150000X-0.512500X-0.150000X0.512500X-0.150000X0.512500X0.150000X-0.512500X0.150000X0*%
%ADD11RoundRect,0.200000X0.275000X-0.200000X0.275000X0.200000X-0.275000X0.200000X-0.275000X-0.200000X0*%
%ADD12RoundRect,0.200000X0.200000X0.275000X-0.200000X0.275000X-0.200000X-0.275000X0.200000X-0.275000X0*%
%ADD13RoundRect,0.225000X0.225000X0.250000X-0.225000X0.250000X-0.225000X-0.250000X0.225000X-0.250000X0*%
%ADD14C,0.990600*%
%ADD15RoundRect,0.218750X-0.218750X-0.256250X0.218750X-0.256250X0.218750X0.256250X-0.218750X0.256250X0*%
%ADD16R,0.254000X0.279400*%
%ADD17R,0.279400X0.254000*%
%ADD18R,0.304800X0.711200*%
%ADD19R,1.092200X0.508000*%
%ADD20RoundRect,0.102000X-0.575000X0.300000X-0.575000X-0.300000X0.575000X-0.300000X0.575000X0.300000X0*%
%ADD21RoundRect,0.102000X-0.575000X0.150000X-0.575000X-0.150000X0.575000X-0.150000X0.575000X0.150000X0*%
%ADD22O,2.004000X1.204000*%
%ADD23O,2.404000X1.204000*%
%ADD24RoundRect,0.225000X-0.225000X-0.250000X0.225000X-0.250000X0.225000X0.250000X-0.225000X0.250000X0*%
%ADD25RoundRect,0.225000X-0.250000X0.225000X-0.250000X-0.225000X0.250000X-0.225000X0.250000X0.225000X0*%
%ADD26R,0.990600X0.711200*%
%ADD27RoundRect,0.218750X0.218750X0.256250X-0.218750X0.256250X-0.218750X-0.256250X0.218750X-0.256250X0*%
%ADD28R,0.254000X0.762000*%
%ADD29R,0.762000X0.254000*%
%ADD30R,3.606800X3.606800*%
%ADD31RoundRect,0.102000X0.300000X-0.300000X0.300000X0.300000X-0.300000X0.300000X-0.300000X-0.300000X0*%
%ADD32RoundRect,0.200000X-0.200000X-0.275000X0.200000X-0.275000X0.200000X0.275000X-0.200000X0.275000X0*%
%ADD33R,0.711200X0.304800*%
%ADD34R,0.508000X1.092200*%
%ADD35RoundRect,0.102000X0.575000X-0.300000X0.575000X0.300000X-0.575000X0.300000X-0.575000X-0.300000X0*%
%ADD36RoundRect,0.102000X0.575000X-0.150000X0.575000X0.150000X-0.575000X0.150000X-0.575000X-0.150000X0*%
%ADD37RotRect,1.000000X1.000000X59.000000*%
%ADD38RoundRect,0.102000X-0.300000X-0.775000X0.300000X-0.775000X0.300000X0.775000X-0.300000X0.775000X0*%
%ADD39RoundRect,0.102000X-0.600000X-0.900000X0.600000X-0.900000X0.600000X0.900000X-0.600000X0.900000X0*%
%ADD40RoundRect,0.225000X0.250000X-0.225000X0.250000X0.225000X-0.250000X0.225000X-0.250000X-0.225000X0*%
%ADD41RoundRect,0.218750X0.256250X-0.218750X0.256250X0.218750X-0.256250X0.218750X-0.256250X-0.218750X0*%
%ADD42R,1.397000X0.965200*%
%ADD43R,1.000000X1.000000*%
%ADD44RoundRect,0.150000X0.256326X0.468458X-0.468458X-0.256326X-0.256326X-0.468458X0.468458X0.256326X0*%
%ADD45RoundRect,0.200000X-0.313069X-0.132713X0.029798X-0.338729X0.313069X0.132713X-0.029798X0.338729X0*%
%ADD46RoundRect,0.200000X-0.275000X0.200000X-0.275000X-0.200000X0.275000X-0.200000X0.275000X0.200000X0*%
%ADD47RotRect,1.000000X1.000000X61.000000*%
%ADD48R,1.200000X0.400000*%
%ADD49R,0.711200X0.990600*%
%ADD50RoundRect,0.075000X-0.700000X-0.075000X0.700000X-0.075000X0.700000X0.075000X-0.700000X0.075000X0*%
%ADD51RoundRect,0.075000X-0.075000X-0.700000X0.075000X-0.700000X0.075000X0.700000X-0.075000X0.700000X0*%
%ADD52RoundRect,0.102000X-0.509793X0.656305X-0.818816X0.142004X0.509793X-0.656305X0.818816X-0.142004X0*%
%ADD53RoundRect,0.102000X-0.462428X0.977835X-1.080473X-0.050766X0.462428X-0.977835X1.080473X0.050766X0*%
%ADD54R,0.990600X0.736600*%
%ADD55RoundRect,0.225000X-0.321622X-0.098408X0.064103X-0.330175X0.321622X0.098408X-0.064103X0.330175X0*%
%ADD56R,1.700000X1.700000*%
%ADD57O,1.700000X1.700000*%
%ADD58RotRect,1.700000X1.700000X300.000000*%
%ADD59HorizOval,1.700000X0.000000X0.000000X0.000000X0.000000X0*%
%ADD60RotRect,0.533400X0.152400X329.000000*%
%ADD61RoundRect,0.200000X0.310705X0.138157X-0.035705X0.338157X-0.310705X-0.138157X0.035705X-0.338157X0*%
%ADD62RoundRect,0.225000X0.319856X0.104006X-0.069856X0.329006X-0.319856X-0.104006X0.069856X-0.329006X0*%
%ADD63RoundRect,0.102000X0.521170X-0.647308X0.821170X-0.127692X-0.521170X0.647308X-0.821170X0.127692X0*%
%ADD64RoundRect,0.102000X0.479423X-0.969615X1.079423X0.069615X-0.479423X0.969615X-1.079423X-0.069615X0*%
%ADD65RotRect,0.533400X0.152400X150.000000*%
%ADD66RoundRect,0.102000X0.300000X0.775000X-0.300000X0.775000X-0.300000X-0.775000X0.300000X-0.775000X0*%
%ADD67RoundRect,0.102000X0.600000X0.900000X-0.600000X0.900000X-0.600000X-0.900000X0.600000X-0.900000X0*%
%ADD68R,0.152400X0.533400*%
%ADD69RotRect,0.533400X0.152400X211.000000*%
%ADD70RotRect,1.000000X1.000000X211.000000*%
%ADD71RoundRect,0.225000X0.064103X0.330175X-0.321622X0.098408X-0.064103X-0.330175X0.321622X-0.098408X0*%
%ADD72RoundRect,0.102000X0.818816X0.142004X0.509793X0.656305X-0.818816X-0.142004X-0.509793X-0.656305X0*%
%ADD73RoundRect,0.102000X1.080473X-0.050766X0.462428X0.977835X-1.080473X0.050766X-0.462428X-0.977835X0*%
%ADD74RoundRect,0.200000X0.029798X0.338729X-0.313069X0.132713X-0.029798X-0.338729X0.313069X-0.132713X0*%
%ADD75RotRect,0.533400X0.152400X32.000000*%
%ADD76RoundRect,0.225000X-0.058331X-0.331244X0.323291X-0.092780X0.058331X0.331244X-0.323291X0.092780X0*%
%ADD77RoundRect,0.102000X-0.816213X-0.156273X-0.498261X-0.665102X0.816213X0.156273X0.498261X0.665102X0*%
%ADD78RoundRect,0.102000X-1.081195X0.031902X-0.445292X-0.985756X1.081195X-0.031902X0.445292X0.985756X0*%
%ADD79RoundRect,0.200000X-0.023882X-0.339197X0.315337X-0.127229X0.023882X0.339197X-0.315337X0.127229X0*%
%ADD80RotRect,1.000000X1.000000X122.000000*%
%ADD81R,1.805236X0.612132*%
G04 APERTURE END LIST*
D10*
X95962500Y-99245000D03*
X95962500Y-100195000D03*
X95962500Y-101145000D03*
X98237500Y-101145000D03*
X98237500Y-100195000D03*
X98237500Y-99245000D03*
D11*
X105235000Y-108510002D03*
X105235000Y-106860002D03*
D12*
X111335000Y-106970000D03*
X109685000Y-106970000D03*
D13*
X93059999Y-107269999D03*
X91509997Y-107269999D03*
D14*
X97425001Y-97015004D03*
X96409000Y-91935001D03*
X98441002Y-91935001D03*
D15*
X109722501Y-108394998D03*
X111297505Y-108395000D03*
D16*
X111346899Y-97157000D03*
X111846901Y-97157000D03*
X112346900Y-97157001D03*
X112846900Y-97157000D03*
D17*
X112858900Y-96644999D03*
X112858901Y-96145000D03*
D16*
X112846901Y-95633000D03*
X112346899Y-95633000D03*
X111846900Y-95632999D03*
X111346900Y-95633000D03*
D17*
X111334900Y-96145001D03*
X111334899Y-96645000D03*
D18*
X112385000Y-99894999D03*
X111584900Y-99894997D03*
X111584902Y-101393601D03*
X112385002Y-101393603D03*
D19*
X111984951Y-100644300D03*
D20*
X93372500Y-97235747D03*
X93372500Y-98035750D03*
D21*
X93372499Y-99185751D03*
X93372502Y-100185747D03*
X93372500Y-100685747D03*
X93372502Y-101685751D03*
D20*
X93372500Y-102835750D03*
X93372503Y-103635753D03*
D21*
X93372500Y-102185750D03*
X93372498Y-101185752D03*
X93372499Y-99685750D03*
X93372500Y-98685750D03*
D22*
X92797501Y-96115748D03*
D23*
X88797500Y-96115747D03*
D22*
X92797502Y-104755752D03*
D23*
X88797500Y-104755753D03*
D24*
X101784999Y-104845000D03*
X103335001Y-104845000D03*
D13*
X93060001Y-108645000D03*
X91509999Y-108645000D03*
D25*
X105490000Y-110259999D03*
X105490000Y-111810001D03*
D26*
X94810001Y-94344999D03*
X90309998Y-94344999D03*
X94810002Y-92195001D03*
X90309999Y-92195001D03*
D24*
X94034999Y-90495000D03*
X95585001Y-90495000D03*
D25*
X106990000Y-110279999D03*
X106990000Y-111830001D03*
D27*
X102977502Y-113684999D03*
X101402498Y-113685001D03*
D28*
X98650000Y-111716400D03*
X99150000Y-111716404D03*
X99649998Y-111716399D03*
X100149999Y-111716401D03*
X100650002Y-111716399D03*
X101150000Y-111716400D03*
X101649998Y-111716400D03*
X102149998Y-111716400D03*
D29*
X102825699Y-111040699D03*
X102825703Y-110540699D03*
X102825698Y-110040701D03*
X102825700Y-109540700D03*
X102825698Y-109040697D03*
X102825699Y-108540699D03*
X102825699Y-108040701D03*
X102825699Y-107540701D03*
D28*
X102149998Y-106865000D03*
X101649998Y-106864996D03*
X101150000Y-106865001D03*
X100649999Y-106864999D03*
X100149996Y-106865001D03*
X99649998Y-106865000D03*
X99150000Y-106865000D03*
X98650000Y-106865000D03*
D29*
X97974299Y-107540701D03*
X97974295Y-108040701D03*
X97974300Y-108540699D03*
X97974298Y-109040700D03*
X97974300Y-109540703D03*
X97974299Y-110040701D03*
X97974299Y-110540699D03*
X97974299Y-111040699D03*
D30*
X100399999Y-109290700D03*
D13*
X99955001Y-113675000D03*
X98404999Y-113675000D03*
D27*
X93082499Y-110150000D03*
X91507495Y-110149998D03*
D31*
X109235006Y-102969999D03*
X108135005Y-102970000D03*
X107035003Y-102969997D03*
X105935004Y-102970000D03*
X104835005Y-102970003D03*
X103735004Y-102970000D03*
X102635002Y-102970001D03*
X101535004Y-102970001D03*
X100435004Y-102969998D03*
X109235004Y-101870000D03*
X108135004Y-101870004D03*
X107035004Y-101870000D03*
X105935004Y-101870002D03*
X104835004Y-101870000D03*
X103735006Y-101870002D03*
X102635004Y-101870000D03*
X101535003Y-101869999D03*
X100435004Y-101870000D03*
X109235003Y-100770001D03*
X108135004Y-100770001D03*
X105935004Y-100770000D03*
X104835000Y-100770000D03*
X103735004Y-100770000D03*
X101535003Y-100770000D03*
X100435000Y-100770000D03*
X109235004Y-99670000D03*
X108135004Y-99670000D03*
X107035004Y-99670000D03*
X102635004Y-99670000D03*
X101535009Y-99669998D03*
X100435004Y-99670000D03*
X109235006Y-98569998D03*
X108135004Y-98570000D03*
X107035004Y-98570001D03*
X105385004Y-98570000D03*
X104285004Y-98570000D03*
X102635004Y-98570000D03*
X101535004Y-98570000D03*
X100435002Y-98570000D03*
X109235004Y-97470000D03*
X108135004Y-97470004D03*
X107035004Y-97470000D03*
X105385002Y-97470001D03*
X104285006Y-97469999D03*
X102635004Y-97470000D03*
X101535004Y-97469996D03*
X100435004Y-97470000D03*
X109235006Y-96370000D03*
X108135004Y-96370000D03*
X107035004Y-96370000D03*
X105385004Y-96370000D03*
X104285004Y-96370000D03*
X102635004Y-96369999D03*
X101535004Y-96370000D03*
X100435002Y-96370002D03*
X109235004Y-95270000D03*
X108134999Y-95270002D03*
X107035004Y-95270000D03*
X102635004Y-95270000D03*
X101535004Y-95270000D03*
X100435004Y-95270000D03*
X109235008Y-94170000D03*
X108135005Y-94170000D03*
X107035004Y-94170000D03*
X105385004Y-94170000D03*
X104285004Y-94170000D03*
X102635006Y-94170005D03*
X101535004Y-94169999D03*
X100435005Y-94169999D03*
X109235004Y-93070000D03*
X108135005Y-93070001D03*
X107035004Y-93070000D03*
X104835004Y-93070000D03*
X102635004Y-93070000D03*
X101535004Y-93069996D03*
X100435004Y-93070000D03*
X109235004Y-91570000D03*
X100435002Y-91569999D03*
X109235004Y-90070000D03*
X108135004Y-90070000D03*
X101535004Y-90070000D03*
X100435004Y-90070000D03*
D32*
X91035000Y-90495000D03*
X92685000Y-90495000D03*
X110960000Y-103820000D03*
X112610000Y-103820000D03*
X110960000Y-105145000D03*
X112610000Y-105145000D03*
D24*
X159725546Y-106227899D03*
X161275548Y-106227899D03*
D33*
X166021246Y-115887850D03*
X166021246Y-116687948D03*
X167519848Y-116687948D03*
X167519848Y-115887850D03*
D34*
X166770547Y-116287899D03*
D35*
X177525547Y-99537899D03*
X177525547Y-98737899D03*
D36*
X177525547Y-97587899D03*
X177525547Y-96587899D03*
X177525547Y-96087899D03*
X177525547Y-95087899D03*
D35*
X177525547Y-93937899D03*
X177525547Y-93137899D03*
D36*
X177525547Y-94587899D03*
X177525547Y-95587899D03*
X177525547Y-97087899D03*
X177525547Y-98087899D03*
D22*
X178100547Y-100657899D03*
D23*
X182100547Y-100657899D03*
D22*
X178100547Y-92017899D03*
D23*
X182100547Y-92017899D03*
D13*
X148285548Y-107717899D03*
X146735546Y-107717899D03*
D11*
X166670547Y-93277899D03*
X166670547Y-91627899D03*
D37*
X138795728Y-82921311D03*
D38*
X155098894Y-118839600D03*
X156098891Y-118839603D03*
D39*
X153798893Y-122714599D03*
X157398895Y-122714602D03*
D13*
X141495548Y-97611899D03*
X139945546Y-97611899D03*
D24*
X159725546Y-109247899D03*
X161275548Y-109247899D03*
D25*
X151500547Y-110037899D03*
X151500547Y-111587899D03*
D40*
X147820547Y-93582899D03*
X147820547Y-92032899D03*
D41*
X165385547Y-109167900D03*
X165385547Y-107592898D03*
D42*
X143260547Y-94519899D03*
X143260547Y-97567899D03*
D43*
X151998894Y-118239600D03*
D44*
X174916640Y-98295304D03*
X174244878Y-97623574D03*
X173573120Y-96951808D03*
X171964454Y-98560494D03*
X172636216Y-99232224D03*
X173307974Y-99903990D03*
D45*
X136218558Y-87736407D03*
X137632898Y-88586215D03*
D46*
X164410060Y-113978210D03*
X164410060Y-115628210D03*
D40*
X161280547Y-96182900D03*
X161280547Y-94632898D03*
D25*
X166580573Y-97457893D03*
X166580547Y-99007899D03*
D47*
X172092359Y-110369094D03*
D12*
X148525547Y-78317899D03*
X146875547Y-78317899D03*
D48*
X166555543Y-95942842D03*
X166555544Y-95292904D03*
X166555561Y-94642868D03*
X164655545Y-94642924D03*
X164655544Y-95292862D03*
X164655527Y-95942898D03*
D49*
X128635548Y-97997900D03*
X128635548Y-93497897D03*
X130785546Y-97997901D03*
X130785546Y-93497898D03*
D50*
X147935547Y-97467899D03*
X147935547Y-97967899D03*
X147935547Y-98467899D03*
X147935547Y-98967899D03*
X147935547Y-99467899D03*
X147935547Y-99967899D03*
X147935547Y-100467899D03*
X147935547Y-100967899D03*
X147935547Y-101467899D03*
X147935547Y-101967899D03*
X147935547Y-102467899D03*
X147935547Y-102967899D03*
X147935547Y-103467899D03*
X147935547Y-103967899D03*
X147935547Y-104467899D03*
X147935547Y-104967899D03*
D51*
X149860547Y-106892899D03*
X150360547Y-106892899D03*
X150860547Y-106892899D03*
X151360547Y-106892899D03*
X151860547Y-106892899D03*
X152360547Y-106892899D03*
X152860547Y-106892899D03*
X153360547Y-106892899D03*
X153860547Y-106892899D03*
X154360547Y-106892899D03*
X154860547Y-106892899D03*
X155360547Y-106892899D03*
X155860547Y-106892899D03*
X156360547Y-106892899D03*
X156860547Y-106892899D03*
X157360547Y-106892899D03*
D50*
X159285547Y-104967899D03*
X159285547Y-104467899D03*
X159285547Y-103967899D03*
X159285547Y-103467899D03*
X159285547Y-102967899D03*
X159285547Y-102467899D03*
X159285547Y-101967899D03*
X159285547Y-101467899D03*
X159285547Y-100967899D03*
X159285547Y-100467899D03*
X159285547Y-99967899D03*
X159285547Y-99467899D03*
X159285547Y-98967899D03*
X159285547Y-98467899D03*
X159285547Y-97967899D03*
X159285547Y-97467899D03*
D51*
X157360547Y-95542899D03*
X156860547Y-95542899D03*
X156360547Y-95542899D03*
X155860547Y-95542899D03*
X155360547Y-95542899D03*
X154860547Y-95542899D03*
X154360547Y-95542899D03*
X153860547Y-95542899D03*
X153360547Y-95542899D03*
X152860547Y-95542899D03*
X152360547Y-95542899D03*
X151860547Y-95542899D03*
X151360547Y-95542899D03*
X150860547Y-95542899D03*
X150360547Y-95542899D03*
X149860547Y-95542899D03*
D24*
X159725550Y-107737898D03*
X161275544Y-107737900D03*
D13*
X165055548Y-97437899D03*
X163505546Y-97437899D03*
D43*
X159170547Y-74967899D03*
D52*
X136485730Y-85201308D03*
X135970683Y-86058473D03*
D53*
X133833751Y-82091221D03*
X131979605Y-85177019D03*
D24*
X156440547Y-110757899D03*
X157990547Y-110757899D03*
D25*
X139940547Y-100352898D03*
X139940547Y-101902900D03*
D54*
X141546946Y-100248998D03*
X141546947Y-101978998D03*
X143274148Y-101978998D03*
X143274147Y-100248998D03*
D13*
X170245550Y-97677912D03*
X168695544Y-97677886D03*
D12*
X132435547Y-91592899D03*
X130785547Y-91592899D03*
D40*
X159780547Y-96157901D03*
X159780547Y-94607899D03*
D55*
X137633603Y-84310237D03*
X138962203Y-85108547D03*
D40*
X153798894Y-118209600D03*
X153798896Y-116659608D03*
D12*
X165480547Y-106097900D03*
X163830547Y-106097900D03*
D32*
X179925553Y-102367923D03*
X181575541Y-102367875D03*
D56*
X163910569Y-91347897D03*
D57*
X163910547Y-88807899D03*
D41*
X154985547Y-112265399D03*
X154985547Y-110690399D03*
D58*
X167869661Y-76147899D03*
D59*
X165669956Y-77417899D03*
X163470252Y-78687899D03*
X161270547Y-79957899D03*
X159070843Y-81227899D03*
D11*
X157318896Y-118244599D03*
X157318892Y-116594601D03*
D13*
X130825547Y-99757898D03*
X129275547Y-99757898D03*
D60*
X138080983Y-86499190D03*
X137874967Y-86842055D03*
X138506357Y-87221432D03*
X138712373Y-86878567D03*
D61*
X175067634Y-105872475D03*
X173638702Y-105047487D03*
D62*
X173263172Y-108949973D03*
X171920828Y-108174973D03*
D63*
X174487305Y-108114344D03*
X174987340Y-107248326D03*
D64*
X177193178Y-111177668D03*
X178993183Y-108059992D03*
D65*
X173079808Y-106979060D03*
X173279774Y-106632648D03*
X172641846Y-106264318D03*
X172441880Y-106610730D03*
D66*
X155990548Y-74317902D03*
X154990551Y-74317898D03*
D67*
X157290550Y-70442904D03*
X153690546Y-70442896D03*
D25*
X157320550Y-74952902D03*
X157320546Y-76502896D03*
D46*
X153770543Y-74902899D03*
X153770553Y-76552899D03*
D68*
X155764999Y-76380335D03*
X155364999Y-76380335D03*
X155364999Y-77116935D03*
X155764999Y-77116935D03*
D69*
X173333413Y-86716198D03*
X173127419Y-86373402D03*
X172495975Y-86752794D03*
X172701969Y-87095590D03*
D70*
X175970696Y-89177380D03*
D71*
X175295322Y-87513394D03*
X173966718Y-88311714D03*
D72*
X175101673Y-86037776D03*
X174586672Y-85180597D03*
D73*
X179092766Y-85156285D03*
X177238658Y-82070462D03*
D74*
X173242225Y-84503684D03*
X171827931Y-85353482D03*
D75*
X137653253Y-106558858D03*
X137865242Y-106898057D03*
X138489933Y-106507718D03*
X138277944Y-106168519D03*
D76*
X135782414Y-105791172D03*
X137096900Y-104969800D03*
D77*
X135979691Y-107211510D03*
X136509587Y-108059563D03*
D78*
X132004616Y-108162498D03*
X133912310Y-111215482D03*
D79*
X137963422Y-108602399D03*
X139362676Y-107728017D03*
D80*
X134730547Y-104347899D03*
D68*
X155438895Y-117167899D03*
X155838895Y-117167899D03*
X155838895Y-116431299D03*
X155438895Y-116431299D03*
D26*
X143980546Y-74322900D03*
X148480548Y-74322900D03*
X143980546Y-76472898D03*
X148480548Y-76472898D03*
D13*
X143215548Y-103517899D03*
X141665546Y-103517899D03*
D11*
X164416206Y-118708210D03*
X164416206Y-117058210D03*
D12*
X180125551Y-89997897D03*
X178475543Y-89997901D03*
D56*
X169153046Y-103377889D03*
D57*
X171693044Y-103377875D03*
D13*
X143465548Y-92951899D03*
X141915546Y-92951899D03*
D40*
X149330547Y-93572899D03*
X149330547Y-92022899D03*
D24*
X156465547Y-112257899D03*
X158015547Y-112257899D03*
D81*
X170881032Y-96267902D03*
X170881030Y-95317898D03*
X170881027Y-94367897D03*
X168580062Y-94367896D03*
X168580067Y-96267901D03*
D32*
X158963047Y-90137899D03*
X160613047Y-90137899D03*
D27*
X160588049Y-88537900D03*
X159013045Y-88537898D03*
D13*
X148285550Y-109237898D03*
X146735548Y-109237898D03*
M02*
