G04 #@! TF.GenerationSoftware,KiCad,Pcbnew,8.0.6*
G04 #@! TF.CreationDate,2025-07-21T23:46:33+02:00*
G04 #@! TF.ProjectId,STM32,53544d33-322e-46b6-9963-61645f706362,rev?*
G04 #@! TF.SameCoordinates,Original*
G04 #@! TF.FileFunction,Soldermask,Top*
G04 #@! TF.FilePolarity,Negative*
%FSLAX46Y46*%
G04 Gerber Fmt 4.6, Leading zero omitted, Abs format (unit mm)*
G04 Created by KiCad (PCBNEW 8.0.6) date 2025-07-21 23:46:33*
%MOMM*%
%LPD*%
G01*
G04 APERTURE LIST*
G04 Aperture macros list*
%AMRoundRect*
0 Rectangle with rounded corners*
0 $1 Rounding radius*
0 $2 $3 $4 $5 $6 $7 $8 $9 X,Y pos of 4 corners*
0 Add a 4 corners polygon primitive as box body*
4,1,4,$2,$3,$4,$5,$6,$7,$8,$9,$2,$3,0*
0 Add four circle primitives for the rounded corners*
1,1,$1+$1,$2,$3*
1,1,$1+$1,$4,$5*
1,1,$1+$1,$6,$7*
1,1,$1+$1,$8,$9*
0 Add four rect primitives between the rounded corners*
20,1,$1+$1,$2,$3,$4,$5,0*
20,1,$1+$1,$4,$5,$6,$7,0*
20,1,$1+$1,$6,$7,$8,$9,0*
20,1,$1+$1,$8,$9,$2,$3,0*%
G04 Aperture macros list end*
%ADD10RoundRect,0.140000X0.140000X0.170000X-0.140000X0.170000X-0.140000X-0.170000X0.140000X-0.170000X0*%
%ADD11RoundRect,0.140000X-0.170000X0.140000X-0.170000X-0.140000X0.170000X-0.140000X0.170000X0.140000X0*%
%ADD12RoundRect,0.140000X-0.140000X-0.170000X0.140000X-0.170000X0.140000X0.170000X-0.140000X0.170000X0*%
%ADD13RoundRect,0.200000X0.200000X0.275000X-0.200000X0.275000X-0.200000X-0.275000X0.200000X-0.275000X0*%
%ADD14R,1.250000X0.500000*%
%ADD15R,0.304800X0.711200*%
%ADD16R,1.092200X0.508000*%
%ADD17R,0.990600X0.736600*%
%ADD18RoundRect,0.075000X-0.700000X-0.075000X0.700000X-0.075000X0.700000X0.075000X-0.700000X0.075000X0*%
%ADD19RoundRect,0.075000X-0.075000X-0.700000X0.075000X-0.700000X0.075000X0.700000X-0.075000X0.700000X0*%
%ADD20R,0.500000X1.250000*%
%ADD21R,1.000000X1.000000*%
%ADD22O,1.000000X1.000000*%
%ADD23RoundRect,0.135000X0.135000X0.185000X-0.135000X0.185000X-0.135000X-0.185000X0.135000X-0.185000X0*%
%ADD24RoundRect,0.140000X0.170000X-0.140000X0.170000X0.140000X-0.170000X0.140000X-0.170000X-0.140000X0*%
%ADD25RoundRect,0.218750X0.256250X-0.218750X0.256250X0.218750X-0.256250X0.218750X-0.256250X-0.218750X0*%
%ADD26RoundRect,0.135000X-0.185000X0.135000X-0.185000X-0.135000X0.185000X-0.135000X0.185000X0.135000X0*%
%ADD27RoundRect,0.218750X-0.218750X-0.256250X0.218750X-0.256250X0.218750X0.256250X-0.218750X0.256250X0*%
%ADD28RoundRect,0.135000X0.185000X-0.135000X0.185000X0.135000X-0.185000X0.135000X-0.185000X-0.135000X0*%
%ADD29RoundRect,0.135000X-0.135000X-0.185000X0.135000X-0.185000X0.135000X0.185000X-0.135000X0.185000X0*%
%ADD30C,0.990600*%
G04 APERTURE END LIST*
D10*
X139400000Y-94580000D03*
X138440000Y-94580000D03*
D11*
X130566399Y-83005000D03*
X130566399Y-83965000D03*
D12*
X134510000Y-96090000D03*
X135470000Y-96090000D03*
D13*
X153710000Y-83260000D03*
X152060000Y-83260000D03*
D14*
X134195000Y-76527500D03*
X134195000Y-77477500D03*
X134195000Y-78427500D03*
X136695000Y-78427500D03*
X136695000Y-76527500D03*
D11*
X129830000Y-88540000D03*
X129830000Y-89500000D03*
D15*
X142830049Y-97730699D03*
X142029949Y-97730697D03*
X142029951Y-99229301D03*
X142830051Y-99229303D03*
D16*
X142430000Y-98480000D03*
D17*
X131782798Y-82960000D03*
X131782799Y-84690000D03*
X133510000Y-84690000D03*
X133509999Y-82960000D03*
D18*
X135995000Y-82390000D03*
X135995000Y-82890000D03*
X135995000Y-83390000D03*
X135995000Y-83890000D03*
X135995000Y-84390000D03*
X135995000Y-84890000D03*
X135995000Y-85390000D03*
X135995000Y-85890000D03*
X135995000Y-86390000D03*
X135995000Y-86890000D03*
X135995000Y-87390000D03*
X135995000Y-87890000D03*
X135995000Y-88390000D03*
X135995000Y-88890000D03*
X135995000Y-89390000D03*
X135995000Y-89890000D03*
D19*
X137920000Y-91815000D03*
X138420000Y-91815000D03*
X138920000Y-91815000D03*
X139420000Y-91815000D03*
X139920000Y-91815000D03*
X140420000Y-91815000D03*
X140920000Y-91815000D03*
X141420000Y-91815000D03*
X141920000Y-91815000D03*
X142420000Y-91815000D03*
X142920000Y-91815000D03*
X143420000Y-91815000D03*
X143920000Y-91815000D03*
X144420000Y-91815000D03*
X144920000Y-91815000D03*
X145420000Y-91815000D03*
D18*
X147345000Y-89890000D03*
X147345000Y-89390000D03*
X147345000Y-88890000D03*
X147345000Y-88390000D03*
X147345000Y-87890000D03*
X147345000Y-87390000D03*
X147345000Y-86890000D03*
X147345000Y-86390000D03*
X147345000Y-85890000D03*
X147345000Y-85390000D03*
X147345000Y-84890000D03*
X147345000Y-84390000D03*
X147345000Y-83890000D03*
X147345000Y-83390000D03*
X147345000Y-82890000D03*
X147345000Y-82390000D03*
D19*
X145420000Y-80465000D03*
X144920000Y-80465000D03*
X144420000Y-80465000D03*
X143920000Y-80465000D03*
X143420000Y-80465000D03*
X142920000Y-80465000D03*
X142420000Y-80465000D03*
X141920000Y-80465000D03*
X141420000Y-80465000D03*
X140920000Y-80465000D03*
X140420000Y-80465000D03*
X139920000Y-80465000D03*
X139420000Y-80465000D03*
X138920000Y-80465000D03*
X138420000Y-80465000D03*
X137920000Y-80465000D03*
D20*
X143809996Y-75430004D03*
X142859998Y-75430002D03*
X141909996Y-75430001D03*
X141910000Y-77930000D03*
X143810000Y-77930003D03*
D10*
X139390000Y-93660000D03*
X138430000Y-93660000D03*
D21*
X134290000Y-97525000D03*
D22*
X135560001Y-97525000D03*
D23*
X151340000Y-84970001D03*
X150320000Y-84969999D03*
D14*
X149639998Y-79709998D03*
X149640000Y-78760000D03*
X149640001Y-77809999D03*
X147140002Y-77810002D03*
X147139999Y-79710001D03*
D12*
X144130000Y-96130000D03*
X145090000Y-96130000D03*
D10*
X135860000Y-81410000D03*
X134900000Y-81410000D03*
D24*
X150990000Y-78770000D03*
X150990000Y-77810000D03*
X153550000Y-87289998D03*
X153550000Y-86329998D03*
D25*
X142270000Y-95177501D03*
X142270000Y-93602499D03*
D26*
X140550000Y-76890000D03*
X140550000Y-77910000D03*
D14*
X131170000Y-87550000D03*
X131170000Y-88500000D03*
X131170000Y-89450000D03*
X133670000Y-89450000D03*
X133670000Y-87550000D03*
D27*
X151194998Y-91730000D03*
X152770000Y-91730000D03*
D14*
X152209998Y-88289998D03*
X152210000Y-87340000D03*
X152210001Y-86389999D03*
X149710002Y-86390002D03*
X149709999Y-88290001D03*
D28*
X136809999Y-93280000D03*
X136810001Y-92260000D03*
D21*
X131490000Y-77277500D03*
D22*
X131490000Y-78547500D03*
D21*
X152304998Y-78975001D03*
D22*
X152304998Y-77705000D03*
D12*
X144540000Y-95180000D03*
X145500000Y-95180000D03*
D29*
X135675000Y-79817500D03*
X136695000Y-79817500D03*
D11*
X144070000Y-93300000D03*
X144070000Y-94260000D03*
D10*
X133476399Y-85835000D03*
X132516399Y-85835000D03*
D20*
X133580002Y-94749998D03*
X134530000Y-94750000D03*
X135480002Y-94750002D03*
X135479998Y-92250002D03*
X133579998Y-92249998D03*
D21*
X155014999Y-87304999D03*
D22*
X155014999Y-86034998D03*
D29*
X132670000Y-90870000D03*
X133690000Y-90870000D03*
D26*
X140789952Y-97729301D03*
X140789950Y-98749301D03*
D12*
X147550000Y-90960000D03*
X148510000Y-90960000D03*
D26*
X144049952Y-97729301D03*
X144049950Y-98749301D03*
D21*
X139800001Y-96140001D03*
D22*
X138530000Y-96140001D03*
D23*
X148140000Y-76450001D03*
X147120000Y-76449999D03*
D21*
X143024997Y-72630000D03*
D22*
X141754996Y-72630000D03*
D11*
X132855000Y-77427500D03*
X132855000Y-78387500D03*
D23*
X151962499Y-90460001D03*
X150942499Y-90459999D03*
D10*
X142850000Y-74080000D03*
X141890000Y-74080000D03*
D21*
X149215001Y-81490000D03*
D22*
X150485002Y-81490000D03*
D27*
X152097499Y-81740000D03*
X153672501Y-81740000D03*
D21*
X128380000Y-88470000D03*
D22*
X128380000Y-89740000D03*
D21*
X145434999Y-73969999D03*
D22*
X146705000Y-73969999D03*
D30*
X150873094Y-93374935D03*
X147999407Y-97685459D03*
X146562566Y-96248618D03*
M02*
