G04 #@! TF.GenerationSoftware,KiCad,Pcbnew,8.0.6*
G04 #@! TF.CreationDate,2025-07-21T23:46:33+02:00*
G04 #@! TF.ProjectId,STM32,53544d33-322e-46b6-9963-61645f706362,rev?*
G04 #@! TF.SameCoordinates,Original*
G04 #@! TF.FileFunction,Copper,L3,Inr*
G04 #@! TF.FilePolarity,Positive*
%FSLAX46Y46*%
G04 Gerber Fmt 4.6, Leading zero omitted, Abs format (unit mm)*
G04 Created by KiCad (PCBNEW 8.0.6) date 2025-07-21 23:46:33*
%MOMM*%
%LPD*%
G01*
G04 APERTURE LIST*
G04 #@! TA.AperFunction,ComponentPad*
%ADD10R,1.000000X1.000000*%
G04 #@! TD*
G04 #@! TA.AperFunction,ComponentPad*
%ADD11O,1.000000X1.000000*%
G04 #@! TD*
G04 #@! TA.AperFunction,ViaPad*
%ADD12C,0.450000*%
G04 #@! TD*
G04 #@! TA.AperFunction,ViaPad*
%ADD13C,0.500000*%
G04 #@! TD*
G04 #@! TA.AperFunction,ViaPad*
%ADD14C,0.400000*%
G04 #@! TD*
G04 #@! TA.AperFunction,ViaPad*
%ADD15C,0.600000*%
G04 #@! TD*
G04 APERTURE END LIST*
D10*
X134290000Y-97525000D03*
D11*
X135560001Y-97525000D03*
D10*
X131490000Y-77277500D03*
D11*
X131490000Y-78547500D03*
D10*
X152304998Y-78975001D03*
D11*
X152304998Y-77705000D03*
D10*
X155014999Y-87304999D03*
D11*
X155014999Y-86034998D03*
D10*
X139800001Y-96140001D03*
D11*
X138530000Y-96140001D03*
D10*
X143024997Y-72630000D03*
D11*
X141754996Y-72630000D03*
D10*
X149215001Y-81490000D03*
D11*
X150485002Y-81490000D03*
D10*
X128380000Y-88470000D03*
D11*
X128380000Y-89740000D03*
D10*
X145434999Y-73969999D03*
D11*
X146705000Y-73969999D03*
D12*
X136230000Y-94130000D03*
X138500000Y-97800000D03*
D13*
X138000000Y-79125000D03*
X150320000Y-91710000D03*
D12*
X145990000Y-91810000D03*
X143505000Y-84100000D03*
D13*
X133150000Y-82000000D03*
D12*
X134630000Y-86150000D03*
X141350000Y-96870000D03*
D14*
X129375000Y-92125000D03*
D13*
X133050000Y-79500000D03*
D15*
X136825000Y-73650000D03*
D14*
X137200000Y-98975000D03*
D13*
X131190000Y-90240000D03*
X152210000Y-85630000D03*
X134900000Y-80750000D03*
D12*
X132980000Y-86630000D03*
D13*
X152100000Y-80770000D03*
D14*
X134850000Y-75000000D03*
D12*
X130375000Y-85205000D03*
X144000000Y-87100000D03*
D13*
X140820000Y-74030000D03*
X141550000Y-89220000D03*
X152840000Y-80790000D03*
D14*
X149400000Y-75475000D03*
D12*
X129760000Y-82650000D03*
X145020000Y-96890000D03*
X143460000Y-94270000D03*
X130915000Y-85745000D03*
X145350000Y-83510000D03*
D13*
X149220000Y-91690000D03*
D14*
X128125000Y-84400000D03*
D13*
X149810000Y-90960000D03*
D12*
X130370000Y-82020000D03*
D13*
X151050000Y-76860000D03*
X137200000Y-96225000D03*
X134000000Y-82000000D03*
D14*
X154600000Y-84600000D03*
X129600000Y-80225000D03*
D12*
X131000000Y-82000000D03*
X146000000Y-92460000D03*
X150470000Y-80440000D03*
X131750000Y-82000000D03*
X129770000Y-83270000D03*
D13*
X149770000Y-91700000D03*
D12*
X149140000Y-80450000D03*
X149130000Y-96990000D03*
D14*
X138675000Y-76850000D03*
D13*
X129980000Y-90740000D03*
X145970000Y-83020000D03*
D12*
X143510000Y-96870000D03*
D13*
X137275000Y-97450000D03*
X138170000Y-90450000D03*
D12*
X133610000Y-86630000D03*
D13*
X137430000Y-87700000D03*
D12*
X142819951Y-99800000D03*
X144190000Y-90010000D03*
X129780000Y-84610000D03*
D13*
X142030000Y-89750000D03*
X134185000Y-79147500D03*
D14*
X139725000Y-72475000D03*
D12*
X131880000Y-94140000D03*
X141100000Y-81730000D03*
X129770000Y-83950000D03*
D14*
X154100000Y-89775000D03*
D12*
X131530000Y-86360000D03*
X134500000Y-82500000D03*
X132500000Y-82000000D03*
D13*
X141070000Y-75450000D03*
D12*
X134620000Y-85450000D03*
X134220000Y-86610000D03*
D14*
X131625000Y-80175000D03*
D12*
X141855000Y-83925000D03*
D14*
X140875000Y-86400000D03*
D13*
X149220000Y-90960000D03*
D12*
X132250000Y-86640000D03*
D13*
X137200000Y-95075000D03*
D12*
X129750000Y-82000000D03*
D13*
X138160000Y-89870000D03*
X149650000Y-77100000D03*
X140120000Y-93650000D03*
X136760000Y-81440000D03*
D12*
X142019951Y-99820000D03*
D13*
X137920000Y-81760000D03*
X133560000Y-93360000D03*
X136740000Y-80860000D03*
D12*
X143635000Y-90390000D03*
D13*
X140030000Y-94720000D03*
X146740000Y-90960000D03*
X147420000Y-81160000D03*
X137300000Y-82380000D03*
X140789950Y-99340000D03*
X143244997Y-77930003D03*
D12*
X137890000Y-82360000D03*
D13*
X146070000Y-90520000D03*
X146080000Y-89920000D03*
X135625000Y-76517500D03*
X137310000Y-81430000D03*
X144049950Y-99340000D03*
X147400000Y-80540000D03*
X146740000Y-80540000D03*
D12*
X150950000Y-95250000D03*
D13*
X137430000Y-88400000D03*
D15*
X137825000Y-73675000D03*
D13*
X133670000Y-88220000D03*
D12*
X130700000Y-93175000D03*
D13*
X146750000Y-81170000D03*
X147410000Y-81770000D03*
X152050000Y-84100000D03*
X139120000Y-90440000D03*
X145936705Y-82320790D03*
X137300000Y-80850000D03*
X146080000Y-91120000D03*
X146750000Y-81760000D03*
X150609999Y-88290001D03*
D12*
X137470000Y-85390000D03*
X140530000Y-82050000D03*
X141550000Y-90230000D03*
X142839951Y-96659301D03*
X145180000Y-97729301D03*
X141979951Y-96679301D03*
X140990000Y-89610000D03*
X139380000Y-97730000D03*
X145870000Y-83900000D03*
X142430000Y-82930000D03*
X144790000Y-87770000D03*
X146075000Y-85900000D03*
G04 #@! TA.AperFunction,Conductor*
G36*
X142178496Y-71410362D02*
G01*
X142184405Y-71410671D01*
X142937894Y-71469972D01*
X142943767Y-71470589D01*
X143693092Y-71569239D01*
X143698980Y-71570172D01*
X144442084Y-71707898D01*
X144447908Y-71709136D01*
X145182798Y-71885568D01*
X145188546Y-71887108D01*
X145913202Y-72101761D01*
X145918827Y-72103588D01*
X146418345Y-72280478D01*
X146631261Y-72355876D01*
X146636833Y-72358015D01*
X147335051Y-72647225D01*
X147340503Y-72649652D01*
X148022645Y-72975018D01*
X148027963Y-72977728D01*
X148692121Y-73338336D01*
X148697290Y-73341320D01*
X149341690Y-73736209D01*
X149346695Y-73739460D01*
X149365492Y-73752379D01*
X149969527Y-74167519D01*
X149974333Y-74171011D01*
X150573942Y-74631108D01*
X150578558Y-74634846D01*
X151153257Y-75125685D01*
X151157664Y-75129652D01*
X151705894Y-75649904D01*
X151710095Y-75654105D01*
X152230345Y-76202333D01*
X152234316Y-76206744D01*
X152574229Y-76604731D01*
X152721910Y-76777644D01*
X152748177Y-76836263D01*
X152738581Y-76899778D01*
X152696171Y-76948022D01*
X152634410Y-76965678D01*
X152597573Y-76959284D01*
X152538361Y-76938565D01*
X152484253Y-76919632D01*
X152305000Y-76899435D01*
X152304996Y-76899435D01*
X152125744Y-76919631D01*
X151955472Y-76979212D01*
X151955470Y-76979213D01*
X151802739Y-77075181D01*
X151780151Y-77097769D01*
X151723772Y-77128552D01*
X151659701Y-77123969D01*
X151608279Y-77085473D01*
X151585832Y-77025288D01*
X151586516Y-77002292D01*
X151605250Y-76860000D01*
X151586330Y-76716291D01*
X151582694Y-76707512D01*
X151530863Y-76582379D01*
X151530860Y-76582373D01*
X151442621Y-76467378D01*
X151327626Y-76379139D01*
X151327620Y-76379136D01*
X151193716Y-76323672D01*
X151193711Y-76323671D01*
X151193709Y-76323670D01*
X151050000Y-76304750D01*
X150906291Y-76323670D01*
X150906288Y-76323670D01*
X150906288Y-76323671D01*
X150906283Y-76323672D01*
X150772379Y-76379136D01*
X150772373Y-76379139D01*
X150657378Y-76467378D01*
X150569139Y-76582373D01*
X150569136Y-76582379D01*
X150513672Y-76716283D01*
X150513671Y-76716288D01*
X150513670Y-76716291D01*
X150494750Y-76860000D01*
X150513670Y-77003709D01*
X150513671Y-77003711D01*
X150513672Y-77003716D01*
X150569136Y-77137620D01*
X150569139Y-77137626D01*
X150657378Y-77252621D01*
X150772373Y-77340860D01*
X150772379Y-77340863D01*
X150906283Y-77396327D01*
X150906284Y-77396327D01*
X150906291Y-77396330D01*
X151050000Y-77415250D01*
X151193709Y-77396330D01*
X151327625Y-77340861D01*
X151375301Y-77304278D01*
X151435215Y-77281115D01*
X151498140Y-77294021D01*
X151544098Y-77338899D01*
X151558498Y-77401499D01*
X151552303Y-77432372D01*
X151519629Y-77525746D01*
X151499433Y-77704998D01*
X151499433Y-77705001D01*
X151519629Y-77884253D01*
X151579210Y-78054525D01*
X151616234Y-78113448D01*
X151633701Y-78175262D01*
X151614976Y-78236707D01*
X151600318Y-78254708D01*
X151552794Y-78302232D01*
X151552793Y-78302234D01*
X151507413Y-78405009D01*
X151507412Y-78405013D01*
X151504498Y-78430130D01*
X151504498Y-79519860D01*
X151504499Y-79519867D01*
X151507413Y-79544993D01*
X151507414Y-79544997D01*
X151552790Y-79647763D01*
X151552794Y-79647769D01*
X151632229Y-79727204D01*
X151632231Y-79727205D01*
X151632233Y-79727207D01*
X151735007Y-79772586D01*
X151760133Y-79775501D01*
X152849862Y-79775500D01*
X152874989Y-79772586D01*
X152892064Y-79765047D01*
X152915091Y-79754878D01*
X152977763Y-79727207D01*
X153057204Y-79647766D01*
X153102583Y-79544992D01*
X153105498Y-79519866D01*
X153105497Y-78430137D01*
X153102583Y-78405010D01*
X153102581Y-78405007D01*
X153102581Y-78405004D01*
X153057205Y-78302238D01*
X153057201Y-78302232D01*
X153009678Y-78254709D01*
X152978893Y-78198331D01*
X152983476Y-78134260D01*
X152993762Y-78113447D01*
X153030784Y-78054527D01*
X153030785Y-78054525D01*
X153030784Y-78054525D01*
X153030787Y-78054522D01*
X153090366Y-77884255D01*
X153110563Y-77705000D01*
X153103170Y-77639385D01*
X153114252Y-77576115D01*
X153157783Y-77528879D01*
X153219940Y-77512675D01*
X153280991Y-77532649D01*
X153310403Y-77562052D01*
X153620539Y-78013304D01*
X153623790Y-78018309D01*
X154018679Y-78662709D01*
X154021663Y-78667878D01*
X154382271Y-79332036D01*
X154384981Y-79337354D01*
X154710347Y-80019496D01*
X154712774Y-80024948D01*
X155001984Y-80723166D01*
X155004123Y-80728738D01*
X155256402Y-81441147D01*
X155258245Y-81446821D01*
X155265094Y-81469943D01*
X155472888Y-82171444D01*
X155474433Y-82177209D01*
X155650861Y-82912084D01*
X155652102Y-82917922D01*
X155789826Y-83661015D01*
X155790760Y-83666910D01*
X155889406Y-84416201D01*
X155890030Y-84422137D01*
X155949326Y-85175568D01*
X155949638Y-85181528D01*
X155961723Y-85643046D01*
X155945245Y-85705132D01*
X155897818Y-85748453D01*
X155834497Y-85759256D01*
X155775389Y-85734110D01*
X155744971Y-85690563D01*
X155743564Y-85691241D01*
X155740785Y-85685470D01*
X155644817Y-85532739D01*
X155644813Y-85532734D01*
X155517262Y-85405183D01*
X155517257Y-85405179D01*
X155364526Y-85309211D01*
X155364524Y-85309210D01*
X155194252Y-85249629D01*
X155015001Y-85229433D01*
X155014997Y-85229433D01*
X154931614Y-85238828D01*
X154868342Y-85227746D01*
X154821106Y-85184215D01*
X154804903Y-85122057D01*
X154824878Y-85061007D01*
X154857218Y-85029642D01*
X154867819Y-85022828D01*
X154931128Y-84982143D01*
X155025377Y-84873373D01*
X155085165Y-84742457D01*
X155105647Y-84600000D01*
X155085165Y-84457543D01*
X155025377Y-84326627D01*
X154931128Y-84217857D01*
X154931126Y-84217855D01*
X154810053Y-84140047D01*
X154810052Y-84140046D01*
X154671961Y-84099500D01*
X154528039Y-84099500D01*
X154389947Y-84140046D01*
X154389946Y-84140047D01*
X154268873Y-84217855D01*
X154268873Y-84217856D01*
X154174622Y-84326627D01*
X154114835Y-84457541D01*
X154094353Y-84600000D01*
X154114835Y-84742458D01*
X154174622Y-84873372D01*
X154174623Y-84873373D01*
X154268872Y-84982143D01*
X154268873Y-84982143D01*
X154268873Y-84982144D01*
X154312218Y-85010000D01*
X154389947Y-85059953D01*
X154528039Y-85100500D01*
X154601932Y-85100500D01*
X154663565Y-85118597D01*
X154705630Y-85167143D01*
X154714772Y-85230724D01*
X154688087Y-85289154D01*
X154662584Y-85311026D01*
X154512740Y-85405179D01*
X154512735Y-85405183D01*
X154385184Y-85532734D01*
X154385180Y-85532739D01*
X154289212Y-85685470D01*
X154289211Y-85685472D01*
X154229630Y-85855744D01*
X154209434Y-86034996D01*
X154209434Y-86034999D01*
X154229630Y-86214251D01*
X154289211Y-86384523D01*
X154326235Y-86443446D01*
X154343702Y-86505260D01*
X154324977Y-86566705D01*
X154310319Y-86584706D01*
X154262795Y-86632230D01*
X154262794Y-86632232D01*
X154217414Y-86735007D01*
X154217413Y-86735011D01*
X154214499Y-86760128D01*
X154214499Y-87849858D01*
X154214500Y-87849865D01*
X154217414Y-87874991D01*
X154217415Y-87874995D01*
X154262791Y-87977761D01*
X154262795Y-87977767D01*
X154342230Y-88057202D01*
X154342232Y-88057203D01*
X154342234Y-88057205D01*
X154445008Y-88102584D01*
X154470134Y-88105499D01*
X155559863Y-88105498D01*
X155584990Y-88102584D01*
X155633359Y-88081226D01*
X155697050Y-88072887D01*
X155755140Y-88100304D01*
X155789185Y-88154775D01*
X155792431Y-88200398D01*
X155790759Y-88213094D01*
X155789826Y-88218984D01*
X155652102Y-88962077D01*
X155650861Y-88967915D01*
X155474433Y-89702790D01*
X155472888Y-89708555D01*
X155258246Y-90433176D01*
X155256402Y-90438852D01*
X155004123Y-91151261D01*
X155001984Y-91156833D01*
X154712774Y-91855051D01*
X154710347Y-91860503D01*
X154384981Y-92542645D01*
X154382271Y-92547963D01*
X154021663Y-93212121D01*
X154018679Y-93217290D01*
X153623790Y-93861690D01*
X153620539Y-93866695D01*
X153192488Y-94489515D01*
X153188980Y-94494344D01*
X152728900Y-95093931D01*
X152725144Y-95098569D01*
X152234327Y-95673243D01*
X152230334Y-95677678D01*
X151710105Y-96225884D01*
X151705884Y-96230105D01*
X151157678Y-96750334D01*
X151153243Y-96754327D01*
X150578569Y-97245144D01*
X150573931Y-97248900D01*
X149974344Y-97708980D01*
X149969515Y-97712488D01*
X149346695Y-98140539D01*
X149341690Y-98143790D01*
X148697290Y-98538679D01*
X148692121Y-98541663D01*
X148027963Y-98902271D01*
X148022645Y-98904981D01*
X147340503Y-99230347D01*
X147335051Y-99232774D01*
X146636833Y-99521984D01*
X146631261Y-99524123D01*
X145918852Y-99776402D01*
X145913176Y-99778246D01*
X145188555Y-99992888D01*
X145182790Y-99994433D01*
X144447915Y-100170861D01*
X144442077Y-100172102D01*
X143698984Y-100309826D01*
X143693089Y-100310760D01*
X143295549Y-100363097D01*
X143232081Y-100353199D01*
X143184039Y-100310559D01*
X143166677Y-100248715D01*
X143185506Y-100187302D01*
X143190228Y-100180672D01*
X143194738Y-100174793D01*
X143194742Y-100174791D01*
X143278975Y-100065018D01*
X143331925Y-99937183D01*
X143349986Y-99800000D01*
X143331925Y-99662817D01*
X143331923Y-99662811D01*
X143278976Y-99534984D01*
X143278974Y-99534981D01*
X143194745Y-99425212D01*
X143194743Y-99425210D01*
X143194742Y-99425209D01*
X143084969Y-99340976D01*
X142957134Y-99288026D01*
X142819951Y-99269965D01*
X142682768Y-99288026D01*
X142682767Y-99288026D01*
X142682762Y-99288027D01*
X142554935Y-99340974D01*
X142554932Y-99340976D01*
X142445159Y-99425208D01*
X142360927Y-99534981D01*
X142360925Y-99534984D01*
X142307978Y-99662811D01*
X142307977Y-99662816D01*
X142307977Y-99662817D01*
X142289916Y-99800000D01*
X142307977Y-99937183D01*
X142360927Y-100065018D01*
X142445160Y-100174791D01*
X142481388Y-100202590D01*
X142533433Y-100242527D01*
X142571312Y-100294404D01*
X142575131Y-100358526D01*
X142543677Y-100414533D01*
X142486937Y-100444643D01*
X142472977Y-100446617D01*
X142184431Y-100469326D01*
X142178471Y-100469638D01*
X141422984Y-100489421D01*
X141417016Y-100489421D01*
X140661528Y-100469638D01*
X140655568Y-100469326D01*
X139902137Y-100410030D01*
X139896201Y-100409406D01*
X139146910Y-100310760D01*
X139141015Y-100309826D01*
X138397922Y-100172102D01*
X138392084Y-100170861D01*
X137657209Y-99994433D01*
X137651444Y-99992888D01*
X136926823Y-99778246D01*
X136921147Y-99776402D01*
X136208738Y-99524123D01*
X136203166Y-99521984D01*
X135504948Y-99232774D01*
X135499496Y-99230347D01*
X134964151Y-98975000D01*
X136694353Y-98975000D01*
X136714835Y-99117458D01*
X136774622Y-99248372D01*
X136774623Y-99248373D01*
X136868872Y-99357143D01*
X136868873Y-99357143D01*
X136868873Y-99357144D01*
X136929409Y-99396048D01*
X136989947Y-99434953D01*
X137128039Y-99475500D01*
X137271961Y-99475500D01*
X137410053Y-99434953D01*
X137531128Y-99357143D01*
X137625377Y-99248373D01*
X137685165Y-99117457D01*
X137705647Y-98975000D01*
X137685165Y-98832543D01*
X137625377Y-98701627D01*
X137531128Y-98592857D01*
X137531126Y-98592855D01*
X137410053Y-98515047D01*
X137410052Y-98515046D01*
X137271961Y-98474500D01*
X137128039Y-98474500D01*
X136989947Y-98515046D01*
X136989946Y-98515047D01*
X136868873Y-98592855D01*
X136868873Y-98592856D01*
X136774622Y-98701627D01*
X136714835Y-98832541D01*
X136694353Y-98975000D01*
X134964151Y-98975000D01*
X134817354Y-98904981D01*
X134812036Y-98902271D01*
X134147878Y-98541664D01*
X134142708Y-98538679D01*
X134139477Y-98536699D01*
X134096383Y-98489066D01*
X134085882Y-98425695D01*
X134111309Y-98366707D01*
X134164591Y-98330829D01*
X134199043Y-98325499D01*
X134834860Y-98325499D01*
X134834864Y-98325499D01*
X134859991Y-98322585D01*
X134962765Y-98277206D01*
X135010290Y-98229681D01*
X135066668Y-98198895D01*
X135130739Y-98203477D01*
X135151553Y-98213764D01*
X135210473Y-98250786D01*
X135210475Y-98250787D01*
X135210476Y-98250787D01*
X135210479Y-98250789D01*
X135380746Y-98310368D01*
X135440497Y-98317100D01*
X135559999Y-98330565D01*
X135560001Y-98330565D01*
X135560003Y-98330565D01*
X135649628Y-98320466D01*
X135739256Y-98310368D01*
X135909523Y-98250789D01*
X135924665Y-98241275D01*
X135968448Y-98213764D01*
X136062263Y-98154816D01*
X136189817Y-98027262D01*
X136285790Y-97874522D01*
X136345369Y-97704255D01*
X136365566Y-97525000D01*
X136365006Y-97520034D01*
X136346357Y-97354513D01*
X136345369Y-97345745D01*
X136285790Y-97175478D01*
X136285788Y-97175475D01*
X136285788Y-97175474D01*
X136285787Y-97175472D01*
X136189819Y-97022741D01*
X136189815Y-97022736D01*
X136062264Y-96895185D01*
X136062259Y-96895181D01*
X135909528Y-96799213D01*
X135909526Y-96799212D01*
X135739254Y-96739631D01*
X135560003Y-96719435D01*
X135559999Y-96719435D01*
X135380747Y-96739631D01*
X135210475Y-96799212D01*
X135151552Y-96836236D01*
X135089737Y-96853703D01*
X135028292Y-96834978D01*
X135010291Y-96820319D01*
X134962768Y-96772796D01*
X134962766Y-96772795D01*
X134962765Y-96772794D01*
X134859991Y-96727415D01*
X134859987Y-96727414D01*
X134834868Y-96724500D01*
X133745140Y-96724500D01*
X133745133Y-96724501D01*
X133720007Y-96727415D01*
X133720003Y-96727416D01*
X133617237Y-96772792D01*
X133617231Y-96772796D01*
X133537796Y-96852231D01*
X133537795Y-96852233D01*
X133492415Y-96955008D01*
X133492414Y-96955012D01*
X133489500Y-96980129D01*
X133489500Y-97921248D01*
X133471403Y-97982881D01*
X133422857Y-98024946D01*
X133359276Y-98034088D01*
X133310931Y-98015198D01*
X132870479Y-97712484D01*
X132865655Y-97708980D01*
X132266061Y-97248894D01*
X132261430Y-97245144D01*
X132261016Y-97244790D01*
X131686744Y-96754316D01*
X131682333Y-96750345D01*
X131134105Y-96230095D01*
X131129904Y-96225894D01*
X130609652Y-95677664D01*
X130605685Y-95673257D01*
X130114846Y-95098558D01*
X130111108Y-95093942D01*
X130096573Y-95075000D01*
X136644750Y-95075000D01*
X136663670Y-95218709D01*
X136663671Y-95218711D01*
X136663672Y-95218716D01*
X136719136Y-95352620D01*
X136719139Y-95352626D01*
X136807378Y-95467621D01*
X136927192Y-95559558D01*
X136965072Y-95611435D01*
X136968891Y-95675557D01*
X136937438Y-95731564D01*
X136927192Y-95740442D01*
X136807378Y-95832378D01*
X136719139Y-95947373D01*
X136719136Y-95947379D01*
X136663672Y-96081283D01*
X136663671Y-96081288D01*
X136663670Y-96081291D01*
X136644750Y-96225000D01*
X136663670Y-96368709D01*
X136663671Y-96368711D01*
X136663672Y-96368716D01*
X136719136Y-96502620D01*
X136719139Y-96502626D01*
X136807378Y-96617621D01*
X136839494Y-96642264D01*
X136922375Y-96705861D01*
X137023411Y-96747711D01*
X137073425Y-96788014D01*
X137093711Y-96848962D01*
X137077826Y-96911202D01*
X137030813Y-96954973D01*
X137023412Y-96958354D01*
X137007232Y-96965055D01*
X136999353Y-96968320D01*
X136997373Y-96969140D01*
X136882378Y-97057378D01*
X136794139Y-97172373D01*
X136794136Y-97172379D01*
X136738672Y-97306283D01*
X136738671Y-97306288D01*
X136738670Y-97306291D01*
X136719750Y-97450000D01*
X136738670Y-97593709D01*
X136738671Y-97593711D01*
X136738672Y-97593716D01*
X136794136Y-97727620D01*
X136794139Y-97727626D01*
X136882378Y-97842621D01*
X136997373Y-97930860D01*
X136997379Y-97930863D01*
X137131283Y-97986327D01*
X137131284Y-97986327D01*
X137131291Y-97986330D01*
X137275000Y-98005250D01*
X137418709Y-97986330D01*
X137552625Y-97930861D01*
X137667621Y-97842621D01*
X137755861Y-97727625D01*
X137755865Y-97727614D01*
X137758988Y-97722207D01*
X137805474Y-97677877D01*
X137868547Y-97665715D01*
X137928183Y-97689585D01*
X137965446Y-97741906D01*
X137970744Y-97794074D01*
X137969965Y-97799993D01*
X137969965Y-97799996D01*
X137969965Y-97799997D01*
X137969965Y-97800000D01*
X137988026Y-97937183D01*
X138040976Y-98065018D01*
X138125209Y-98174791D01*
X138234982Y-98259024D01*
X138362817Y-98311974D01*
X138500000Y-98330035D01*
X138637183Y-98311974D01*
X138765018Y-98259024D01*
X138874791Y-98174791D01*
X138887532Y-98158186D01*
X138939407Y-98120308D01*
X139003528Y-98116487D01*
X139047369Y-98137142D01*
X139114982Y-98189024D01*
X139242817Y-98241974D01*
X139380000Y-98260035D01*
X139517183Y-98241974D01*
X139645018Y-98189024D01*
X139754791Y-98104791D01*
X139839024Y-97995018D01*
X139891974Y-97867183D01*
X139910035Y-97730000D01*
X139891974Y-97592817D01*
X139891972Y-97592811D01*
X139839025Y-97464984D01*
X139839023Y-97464981D01*
X139754794Y-97355212D01*
X139754792Y-97355210D01*
X139754791Y-97355209D01*
X139645018Y-97270976D01*
X139517183Y-97218026D01*
X139380000Y-97199965D01*
X139242817Y-97218026D01*
X139242816Y-97218026D01*
X139242811Y-97218027D01*
X139114984Y-97270974D01*
X139114981Y-97270976D01*
X139005210Y-97355207D01*
X138992468Y-97371813D01*
X138940590Y-97409692D01*
X138876469Y-97413511D01*
X138832628Y-97392856D01*
X138765018Y-97340976D01*
X138637183Y-97288026D01*
X138500000Y-97269965D01*
X138362817Y-97288026D01*
X138362816Y-97288026D01*
X138362811Y-97288027D01*
X138234984Y-97340974D01*
X138234981Y-97340976D01*
X138125208Y-97425208D01*
X138040972Y-97534987D01*
X138040063Y-97536562D01*
X138038949Y-97537623D01*
X138036427Y-97540911D01*
X138035913Y-97540517D01*
X137993569Y-97580885D01*
X137930494Y-97593035D01*
X137870863Y-97569155D01*
X137833608Y-97516827D01*
X137828318Y-97464670D01*
X137830250Y-97450000D01*
X137811330Y-97306291D01*
X137811327Y-97306283D01*
X137755863Y-97172379D01*
X137755860Y-97172373D01*
X137667621Y-97057378D01*
X137552626Y-96969140D01*
X137552625Y-96969139D01*
X137451588Y-96927289D01*
X137401573Y-96886984D01*
X137381288Y-96826037D01*
X137397173Y-96763797D01*
X137444186Y-96720026D01*
X137451579Y-96716649D01*
X137477625Y-96705861D01*
X137592621Y-96617621D01*
X137653432Y-96538371D01*
X137705309Y-96500491D01*
X137769430Y-96496671D01*
X137825437Y-96528125D01*
X137840400Y-96547118D01*
X137889326Y-96624984D01*
X137900184Y-96642263D01*
X138027738Y-96769817D01*
X138027740Y-96769818D01*
X138027741Y-96769819D01*
X138180472Y-96865787D01*
X138180474Y-96865788D01*
X138180475Y-96865788D01*
X138180478Y-96865790D01*
X138350745Y-96925369D01*
X138367795Y-96927290D01*
X138529998Y-96945566D01*
X138530000Y-96945566D01*
X138530002Y-96945566D01*
X138619627Y-96935467D01*
X138709255Y-96925369D01*
X138867491Y-96870000D01*
X140819965Y-96870000D01*
X140838026Y-97007183D01*
X140890976Y-97135018D01*
X140975209Y-97244791D01*
X141084982Y-97329024D01*
X141212817Y-97381974D01*
X141350000Y-97400035D01*
X141487183Y-97381974D01*
X141615018Y-97329024D01*
X141724791Y-97244791D01*
X141732845Y-97234294D01*
X141784720Y-97196415D01*
X141838168Y-97190668D01*
X141842763Y-97191272D01*
X141842768Y-97191275D01*
X141979951Y-97209336D01*
X142117134Y-97191275D01*
X142244969Y-97138325D01*
X142353583Y-97054980D01*
X142413497Y-97031817D01*
X142476422Y-97044723D01*
X142492381Y-97054979D01*
X142574933Y-97118325D01*
X142702768Y-97171275D01*
X142839951Y-97189336D01*
X142977134Y-97171275D01*
X142977137Y-97171273D01*
X142977141Y-97171273D01*
X142984358Y-97169340D01*
X142984953Y-97171564D01*
X143037309Y-97165926D01*
X143094755Y-97194668D01*
X143107527Y-97208716D01*
X143135209Y-97244791D01*
X143244982Y-97329024D01*
X143372817Y-97381974D01*
X143510000Y-97400035D01*
X143647183Y-97381974D01*
X143775018Y-97329024D01*
X143884791Y-97244791D01*
X143969024Y-97135018D01*
X144021974Y-97007183D01*
X144037402Y-96890000D01*
X144489965Y-96890000D01*
X144508026Y-97027183D01*
X144560976Y-97155018D01*
X144645209Y-97264791D01*
X144698804Y-97305916D01*
X144736683Y-97357792D01*
X144740502Y-97421913D01*
X144723829Y-97457308D01*
X144724710Y-97457817D01*
X144720974Y-97464286D01*
X144668027Y-97592112D01*
X144668026Y-97592117D01*
X144668026Y-97592118D01*
X144649965Y-97729301D01*
X144668026Y-97866484D01*
X144720976Y-97994319D01*
X144805209Y-98104092D01*
X144914982Y-98188325D01*
X145042817Y-98241275D01*
X145180000Y-98259336D01*
X145317183Y-98241275D01*
X145445018Y-98188325D01*
X145554791Y-98104092D01*
X145639024Y-97994319D01*
X145691974Y-97866484D01*
X145710035Y-97729301D01*
X145694592Y-97612004D01*
X147253607Y-97612004D01*
X147253607Y-97758914D01*
X147275004Y-97866485D01*
X147282268Y-97903006D01*
X147338485Y-98038725D01*
X147338491Y-98038735D01*
X147420103Y-98160876D01*
X147523989Y-98264762D01*
X147646130Y-98346374D01*
X147646140Y-98346380D01*
X147781859Y-98402597D01*
X147781861Y-98402597D01*
X147781865Y-98402599D01*
X147925952Y-98431259D01*
X147925955Y-98431259D01*
X148072859Y-98431259D01*
X148072862Y-98431259D01*
X148216949Y-98402599D01*
X148352676Y-98346379D01*
X148474827Y-98264760D01*
X148578708Y-98160879D01*
X148660327Y-98038728D01*
X148716547Y-97903001D01*
X148745207Y-97758914D01*
X148745207Y-97612004D01*
X148740731Y-97589502D01*
X148746455Y-97525526D01*
X148785860Y-97474798D01*
X148846436Y-97453427D01*
X148896164Y-97461939D01*
X148992817Y-97501974D01*
X149130000Y-97520035D01*
X149267183Y-97501974D01*
X149395018Y-97449024D01*
X149504791Y-97364791D01*
X149589024Y-97255018D01*
X149641974Y-97127183D01*
X149660035Y-96990000D01*
X149641974Y-96852817D01*
X149641733Y-96852235D01*
X149589025Y-96724984D01*
X149589023Y-96724981D01*
X149504794Y-96615212D01*
X149504792Y-96615210D01*
X149504791Y-96615209D01*
X149395018Y-96530976D01*
X149267183Y-96478026D01*
X149130000Y-96459965D01*
X148992817Y-96478026D01*
X148992816Y-96478026D01*
X148992811Y-96478027D01*
X148864984Y-96530974D01*
X148864981Y-96530976D01*
X148755208Y-96615208D01*
X148670976Y-96724981D01*
X148670974Y-96724984D01*
X148618027Y-96852811D01*
X148618026Y-96852816D01*
X148618026Y-96852817D01*
X148602316Y-96972143D01*
X148599720Y-96991862D01*
X148573732Y-97050605D01*
X148520111Y-97085974D01*
X148455880Y-97086737D01*
X148423360Y-97071768D01*
X148352683Y-97024543D01*
X148352673Y-97024537D01*
X148216954Y-96968320D01*
X148216949Y-96968319D01*
X148072862Y-96939659D01*
X147925952Y-96939659D01*
X147831964Y-96958354D01*
X147781859Y-96968320D01*
X147646140Y-97024537D01*
X147646130Y-97024543D01*
X147523989Y-97106155D01*
X147420103Y-97210041D01*
X147338491Y-97332182D01*
X147338485Y-97332192D01*
X147282268Y-97467911D01*
X147282267Y-97467917D01*
X147253607Y-97612004D01*
X145694592Y-97612004D01*
X145691974Y-97592118D01*
X145691972Y-97592112D01*
X145639025Y-97464285D01*
X145639023Y-97464282D01*
X145554794Y-97354513D01*
X145554792Y-97354511D01*
X145554791Y-97354510D01*
X145501195Y-97313384D01*
X145463318Y-97261508D01*
X145459499Y-97197387D01*
X145476170Y-97162004D01*
X145475286Y-97161494D01*
X145479021Y-97155023D01*
X145479021Y-97155020D01*
X145479024Y-97155018D01*
X145531974Y-97027183D01*
X145550035Y-96890000D01*
X145531974Y-96752817D01*
X145531972Y-96752811D01*
X145479025Y-96624984D01*
X145479023Y-96624981D01*
X145394794Y-96515212D01*
X145394792Y-96515210D01*
X145394791Y-96515209D01*
X145285018Y-96430976D01*
X145157183Y-96378026D01*
X145020000Y-96359965D01*
X144882817Y-96378026D01*
X144882816Y-96378026D01*
X144882811Y-96378027D01*
X144754984Y-96430974D01*
X144754981Y-96430976D01*
X144645208Y-96515208D01*
X144560976Y-96624981D01*
X144560974Y-96624984D01*
X144508027Y-96752811D01*
X144508026Y-96752816D01*
X144508026Y-96752817D01*
X144489965Y-96890000D01*
X144037402Y-96890000D01*
X144040035Y-96870000D01*
X144021974Y-96732817D01*
X144019737Y-96727416D01*
X143969025Y-96604984D01*
X143969023Y-96604981D01*
X143884794Y-96495212D01*
X143884792Y-96495210D01*
X143884791Y-96495209D01*
X143775018Y-96410976D01*
X143647183Y-96358026D01*
X143510000Y-96339965D01*
X143372817Y-96358026D01*
X143372816Y-96358026D01*
X143372811Y-96358027D01*
X143365599Y-96359960D01*
X143365004Y-96357740D01*
X143312617Y-96363371D01*
X143255178Y-96334616D01*
X143242421Y-96320582D01*
X143214743Y-96284511D01*
X143213583Y-96283621D01*
X143104969Y-96200277D01*
X143044337Y-96175163D01*
X145816766Y-96175163D01*
X145816766Y-96322073D01*
X145838427Y-96430974D01*
X145845427Y-96466165D01*
X145901644Y-96601884D01*
X145901650Y-96601894D01*
X145983262Y-96724035D01*
X146087148Y-96827921D01*
X146209289Y-96909533D01*
X146209299Y-96909539D01*
X146345018Y-96965756D01*
X146345020Y-96965756D01*
X146345024Y-96965758D01*
X146489111Y-96994418D01*
X146489114Y-96994418D01*
X146636018Y-96994418D01*
X146636021Y-96994418D01*
X146780108Y-96965758D01*
X146915835Y-96909538D01*
X147037986Y-96827919D01*
X147141867Y-96724038D01*
X147223486Y-96601887D01*
X147279706Y-96466160D01*
X147308366Y-96322073D01*
X147308366Y-96175163D01*
X147279706Y-96031076D01*
X147250574Y-95960746D01*
X147223487Y-95895351D01*
X147223481Y-95895341D01*
X147141869Y-95773200D01*
X147037983Y-95669314D01*
X146915842Y-95587702D01*
X146915832Y-95587696D01*
X146780113Y-95531479D01*
X146780108Y-95531478D01*
X146636021Y-95502818D01*
X146489111Y-95502818D01*
X146380294Y-95524462D01*
X146345018Y-95531479D01*
X146209299Y-95587696D01*
X146209289Y-95587702D01*
X146087148Y-95669314D01*
X145983262Y-95773200D01*
X145901650Y-95895341D01*
X145901644Y-95895351D01*
X145845427Y-96031070D01*
X145845426Y-96031076D01*
X145816766Y-96175163D01*
X143044337Y-96175163D01*
X142977134Y-96147327D01*
X142839951Y-96129266D01*
X142702768Y-96147327D01*
X142702767Y-96147327D01*
X142702762Y-96147328D01*
X142574935Y-96200275D01*
X142574932Y-96200277D01*
X142466317Y-96283621D01*
X142406403Y-96306784D01*
X142343478Y-96293877D01*
X142327526Y-96283626D01*
X142244969Y-96220277D01*
X142117134Y-96167327D01*
X141979951Y-96149266D01*
X141842768Y-96167327D01*
X141842767Y-96167327D01*
X141842762Y-96167328D01*
X141714935Y-96220275D01*
X141714932Y-96220277D01*
X141605162Y-96304507D01*
X141597102Y-96315011D01*
X141545222Y-96352888D01*
X141491783Y-96358632D01*
X141487184Y-96358026D01*
X141487183Y-96358026D01*
X141350000Y-96339965D01*
X141212817Y-96358026D01*
X141212816Y-96358026D01*
X141212811Y-96358027D01*
X141084984Y-96410974D01*
X141084981Y-96410976D01*
X140975208Y-96495208D01*
X140890976Y-96604981D01*
X140890974Y-96604984D01*
X140838027Y-96732811D01*
X140838026Y-96732816D01*
X140838026Y-96732817D01*
X140819965Y-96870000D01*
X138867491Y-96870000D01*
X138879522Y-96865790D01*
X139032262Y-96769817D01*
X139159816Y-96642263D01*
X139247556Y-96502626D01*
X139255786Y-96489528D01*
X139255787Y-96489526D01*
X139255786Y-96489526D01*
X139255789Y-96489523D01*
X139315368Y-96319256D01*
X139334521Y-96149266D01*
X139335565Y-96140002D01*
X139335565Y-96139999D01*
X139315368Y-95960747D01*
X139315368Y-95960746D01*
X139255789Y-95790479D01*
X139255787Y-95790476D01*
X139255787Y-95790475D01*
X139255786Y-95790473D01*
X139159818Y-95637742D01*
X139159814Y-95637737D01*
X139032263Y-95510186D01*
X139032258Y-95510182D01*
X138879527Y-95414214D01*
X138879525Y-95414213D01*
X138709253Y-95354632D01*
X138530002Y-95334436D01*
X138529998Y-95334436D01*
X138350746Y-95354632D01*
X138180474Y-95414213D01*
X138180472Y-95414214D01*
X138027741Y-95510182D01*
X138027736Y-95510186D01*
X137900185Y-95637737D01*
X137900181Y-95637742D01*
X137804213Y-95790473D01*
X137804211Y-95790479D01*
X137797528Y-95809577D01*
X137760090Y-95861773D01*
X137700375Y-95885443D01*
X137637342Y-95873071D01*
X137599484Y-95841322D01*
X137592621Y-95832378D01*
X137472807Y-95740442D01*
X137434927Y-95688565D01*
X137431107Y-95624444D01*
X137462561Y-95568436D01*
X137472807Y-95559558D01*
X137592621Y-95467621D01*
X137680860Y-95352626D01*
X137680859Y-95352626D01*
X137680861Y-95352625D01*
X137736330Y-95218709D01*
X137755250Y-95075000D01*
X137736330Y-94931291D01*
X137681963Y-94800035D01*
X137680863Y-94797379D01*
X137680860Y-94797373D01*
X137592621Y-94682378D01*
X137477626Y-94594139D01*
X137477620Y-94594136D01*
X137343716Y-94538672D01*
X137343711Y-94538671D01*
X137343709Y-94538670D01*
X137200000Y-94519750D01*
X137056291Y-94538670D01*
X137056288Y-94538670D01*
X137056288Y-94538671D01*
X137056283Y-94538672D01*
X136922379Y-94594136D01*
X136922373Y-94594139D01*
X136807378Y-94682378D01*
X136719139Y-94797373D01*
X136719136Y-94797379D01*
X136663672Y-94931283D01*
X136663671Y-94931288D01*
X136663670Y-94931291D01*
X136644750Y-95075000D01*
X130096573Y-95075000D01*
X129651011Y-94494333D01*
X129647511Y-94489515D01*
X129589437Y-94405017D01*
X129407297Y-94140000D01*
X131349965Y-94140000D01*
X131368026Y-94277183D01*
X131420976Y-94405018D01*
X131505209Y-94514791D01*
X131614982Y-94599024D01*
X131742817Y-94651974D01*
X131880000Y-94670035D01*
X132017183Y-94651974D01*
X132145018Y-94599024D01*
X132254791Y-94514791D01*
X132339024Y-94405018D01*
X132391974Y-94277183D01*
X132410035Y-94140000D01*
X132408718Y-94130000D01*
X135699965Y-94130000D01*
X135718026Y-94267183D01*
X135770976Y-94395018D01*
X135855209Y-94504791D01*
X135964982Y-94589024D01*
X136092817Y-94641974D01*
X136230000Y-94660035D01*
X136367183Y-94641974D01*
X136495018Y-94589024D01*
X136604791Y-94504791D01*
X136689024Y-94395018D01*
X136740807Y-94270000D01*
X142929965Y-94270000D01*
X142948026Y-94407183D01*
X143000976Y-94535018D01*
X143085209Y-94644791D01*
X143194982Y-94729024D01*
X143322817Y-94781974D01*
X143460000Y-94800035D01*
X143597183Y-94781974D01*
X143725018Y-94729024D01*
X143834791Y-94644791D01*
X143919024Y-94535018D01*
X143971974Y-94407183D01*
X143990035Y-94270000D01*
X143971974Y-94132817D01*
X143971972Y-94132811D01*
X143919025Y-94004984D01*
X143919023Y-94004981D01*
X143834794Y-93895212D01*
X143834792Y-93895210D01*
X143834791Y-93895209D01*
X143725018Y-93810976D01*
X143597183Y-93758026D01*
X143460000Y-93739965D01*
X143322817Y-93758026D01*
X143322816Y-93758026D01*
X143322811Y-93758027D01*
X143194984Y-93810974D01*
X143194981Y-93810976D01*
X143085208Y-93895208D01*
X143000976Y-94004981D01*
X143000974Y-94004984D01*
X142948027Y-94132811D01*
X142948026Y-94132816D01*
X142948026Y-94132817D01*
X142929965Y-94270000D01*
X136740807Y-94270000D01*
X136741974Y-94267183D01*
X136760035Y-94130000D01*
X136741974Y-93992817D01*
X136741972Y-93992811D01*
X136689025Y-93864984D01*
X136689023Y-93864981D01*
X136604794Y-93755212D01*
X136604792Y-93755210D01*
X136604791Y-93755209D01*
X136495018Y-93670976D01*
X136367183Y-93618026D01*
X136230000Y-93599965D01*
X136092817Y-93618026D01*
X136092816Y-93618026D01*
X136092811Y-93618027D01*
X135964984Y-93670974D01*
X135964981Y-93670976D01*
X135855208Y-93755208D01*
X135770976Y-93864981D01*
X135770974Y-93864984D01*
X135718027Y-93992811D01*
X135718026Y-93992816D01*
X135718026Y-93992817D01*
X135699965Y-94130000D01*
X132408718Y-94130000D01*
X132391974Y-94002817D01*
X132387832Y-93992817D01*
X132339025Y-93874984D01*
X132339023Y-93874981D01*
X132254794Y-93765212D01*
X132254792Y-93765210D01*
X132254791Y-93765209D01*
X132145018Y-93680976D01*
X132017183Y-93628026D01*
X131880000Y-93609965D01*
X131742817Y-93628026D01*
X131742816Y-93628026D01*
X131742811Y-93628027D01*
X131614984Y-93680974D01*
X131614981Y-93680976D01*
X131505208Y-93765208D01*
X131420976Y-93874981D01*
X131420974Y-93874984D01*
X131368027Y-94002811D01*
X131368026Y-94002816D01*
X131368026Y-94002817D01*
X131349965Y-94140000D01*
X129407297Y-94140000D01*
X129219460Y-93866695D01*
X129216209Y-93861690D01*
X128872912Y-93301480D01*
X150127294Y-93301480D01*
X150127294Y-93448390D01*
X150155954Y-93592477D01*
X150155955Y-93592482D01*
X150212172Y-93728201D01*
X150212178Y-93728211D01*
X150293790Y-93850352D01*
X150397676Y-93954238D01*
X150519817Y-94035850D01*
X150519827Y-94035856D01*
X150655546Y-94092073D01*
X150655548Y-94092073D01*
X150655552Y-94092075D01*
X150799639Y-94120735D01*
X150799642Y-94120735D01*
X150946546Y-94120735D01*
X150946549Y-94120735D01*
X151090636Y-94092075D01*
X151226363Y-94035855D01*
X151348514Y-93954236D01*
X151452395Y-93850355D01*
X151534014Y-93728204D01*
X151590234Y-93592477D01*
X151618894Y-93448390D01*
X151618894Y-93301480D01*
X151590234Y-93157393D01*
X151534014Y-93021666D01*
X151512879Y-92990035D01*
X151452397Y-92899517D01*
X151348511Y-92795631D01*
X151226370Y-92714019D01*
X151226360Y-92714013D01*
X151090641Y-92657796D01*
X151090636Y-92657795D01*
X150946549Y-92629135D01*
X150799639Y-92629135D01*
X150690822Y-92650779D01*
X150655546Y-92657796D01*
X150519827Y-92714013D01*
X150519817Y-92714019D01*
X150397676Y-92795631D01*
X150293790Y-92899517D01*
X150212178Y-93021658D01*
X150212172Y-93021668D01*
X150155955Y-93157387D01*
X150155954Y-93157393D01*
X150127294Y-93301480D01*
X128872912Y-93301480D01*
X128821320Y-93217290D01*
X128818336Y-93212121D01*
X128457728Y-92547963D01*
X128455018Y-92542645D01*
X128255811Y-92125000D01*
X128869353Y-92125000D01*
X128889835Y-92267458D01*
X128949622Y-92398372D01*
X128949623Y-92398373D01*
X129043872Y-92507143D01*
X129043873Y-92507143D01*
X129043873Y-92507144D01*
X129099114Y-92542645D01*
X129164947Y-92584953D01*
X129303039Y-92625500D01*
X129446961Y-92625500D01*
X129585053Y-92584953D01*
X129706128Y-92507143D01*
X129800377Y-92398373D01*
X129860165Y-92267457D01*
X129880647Y-92125000D01*
X129860165Y-91982543D01*
X129800377Y-91851627D01*
X129764307Y-91810000D01*
X145459965Y-91810000D01*
X145478026Y-91947183D01*
X145530976Y-92075018D01*
X145530977Y-92075019D01*
X145534712Y-92081489D01*
X145533241Y-92082338D01*
X145552998Y-92133456D01*
X145541948Y-92187298D01*
X145543835Y-92188080D01*
X145488027Y-92322811D01*
X145488026Y-92322816D01*
X145488026Y-92322817D01*
X145469965Y-92460000D01*
X145488026Y-92597183D01*
X145540976Y-92725018D01*
X145625209Y-92834791D01*
X145734982Y-92919024D01*
X145862817Y-92971974D01*
X146000000Y-92990035D01*
X146137183Y-92971974D01*
X146265018Y-92919024D01*
X146374791Y-92834791D01*
X146459024Y-92725018D01*
X146511974Y-92597183D01*
X146530035Y-92460000D01*
X146511974Y-92322817D01*
X146489044Y-92267458D01*
X146459025Y-92194984D01*
X146455288Y-92188512D01*
X146456758Y-92187662D01*
X146437002Y-92136548D01*
X146448049Y-92082702D01*
X146446164Y-92081922D01*
X146449024Y-92075018D01*
X146501974Y-91947183D01*
X146520035Y-91810000D01*
X146501974Y-91672817D01*
X146498756Y-91665047D01*
X146449025Y-91544984D01*
X146449023Y-91544981D01*
X146364794Y-91435212D01*
X146364792Y-91435210D01*
X146364791Y-91435209D01*
X146255018Y-91350976D01*
X146127183Y-91298026D01*
X145990000Y-91279965D01*
X145852817Y-91298026D01*
X145852816Y-91298026D01*
X145852811Y-91298027D01*
X145724984Y-91350974D01*
X145724981Y-91350976D01*
X145615208Y-91435208D01*
X145530976Y-91544981D01*
X145530974Y-91544984D01*
X145478027Y-91672811D01*
X145478026Y-91672816D01*
X145478026Y-91672817D01*
X145459965Y-91810000D01*
X129764307Y-91810000D01*
X129706128Y-91742857D01*
X129706126Y-91742855D01*
X129585053Y-91665047D01*
X129585052Y-91665046D01*
X129446961Y-91624500D01*
X129303039Y-91624500D01*
X129164947Y-91665046D01*
X129164946Y-91665047D01*
X129043873Y-91742855D01*
X129043873Y-91742856D01*
X128949622Y-91851627D01*
X128889835Y-91982541D01*
X128869353Y-92125000D01*
X128255811Y-92125000D01*
X128129652Y-91860503D01*
X128127225Y-91855051D01*
X127838015Y-91156833D01*
X127835876Y-91151261D01*
X127784170Y-91005249D01*
X127690240Y-90740000D01*
X129424750Y-90740000D01*
X129443670Y-90883709D01*
X129443671Y-90883711D01*
X129443672Y-90883716D01*
X129499136Y-91017620D01*
X129499139Y-91017626D01*
X129587378Y-91132621D01*
X129702373Y-91220860D01*
X129702379Y-91220863D01*
X129836283Y-91276327D01*
X129836284Y-91276327D01*
X129836291Y-91276330D01*
X129980000Y-91295250D01*
X130123709Y-91276330D01*
X130257625Y-91220861D01*
X130372621Y-91132621D01*
X130460861Y-91017625D01*
X130516330Y-90883709D01*
X130535250Y-90740000D01*
X130519428Y-90619828D01*
X130529325Y-90556365D01*
X130571965Y-90508323D01*
X130633808Y-90490960D01*
X130695222Y-90509789D01*
X130722895Y-90535553D01*
X130797378Y-90632621D01*
X130912373Y-90720860D01*
X130912379Y-90720863D01*
X131046283Y-90776327D01*
X131046284Y-90776327D01*
X131046291Y-90776330D01*
X131190000Y-90795250D01*
X131333709Y-90776330D01*
X131467625Y-90720861D01*
X131582621Y-90632621D01*
X131670861Y-90517625D01*
X131726330Y-90383709D01*
X131745250Y-90240000D01*
X131726330Y-90096291D01*
X131726327Y-90096283D01*
X131670863Y-89962379D01*
X131670860Y-89962373D01*
X131599980Y-89870000D01*
X137604750Y-89870000D01*
X137623670Y-90013709D01*
X137623671Y-90013711D01*
X137623671Y-90013713D01*
X137671194Y-90128444D01*
X137678061Y-90192311D01*
X137671195Y-90215695D01*
X137636328Y-90299873D01*
X137633670Y-90306291D01*
X137614750Y-90450000D01*
X137633670Y-90593709D01*
X137633671Y-90593711D01*
X137633672Y-90593716D01*
X137689136Y-90727620D01*
X137689139Y-90727626D01*
X137777378Y-90842621D01*
X137892373Y-90930860D01*
X137892379Y-90930863D01*
X138026283Y-90986327D01*
X138026284Y-90986327D01*
X138026291Y-90986330D01*
X138170000Y-91005250D01*
X138313709Y-90986330D01*
X138377276Y-90960000D01*
X148664750Y-90960000D01*
X148683670Y-91103709D01*
X148683671Y-91103711D01*
X148683672Y-91103716D01*
X148739136Y-91237620D01*
X148739139Y-91237625D01*
X148752933Y-91255602D01*
X148776095Y-91315515D01*
X148763188Y-91378440D01*
X148752933Y-91394398D01*
X148739139Y-91412374D01*
X148739136Y-91412379D01*
X148683672Y-91546283D01*
X148683671Y-91546288D01*
X148683670Y-91546291D01*
X148664750Y-91690000D01*
X148683670Y-91833709D01*
X148683671Y-91833711D01*
X148683672Y-91833716D01*
X148739136Y-91967620D01*
X148739139Y-91967626D01*
X148827378Y-92082621D01*
X148942373Y-92170860D01*
X148942379Y-92170863D01*
X149076283Y-92226327D01*
X149076284Y-92226327D01*
X149076291Y-92226330D01*
X149220000Y-92245250D01*
X149363709Y-92226330D01*
X149439302Y-92195017D01*
X149503166Y-92188151D01*
X149526552Y-92195018D01*
X149626283Y-92236327D01*
X149626284Y-92236327D01*
X149626291Y-92236330D01*
X149770000Y-92255250D01*
X149913709Y-92236330D01*
X149989302Y-92205017D01*
X150053166Y-92198151D01*
X150076552Y-92205018D01*
X150176283Y-92246327D01*
X150176284Y-92246327D01*
X150176291Y-92246330D01*
X150320000Y-92265250D01*
X150463709Y-92246330D01*
X150597625Y-92190861D01*
X150712621Y-92102621D01*
X150800861Y-91987625D01*
X150856330Y-91853709D01*
X150875250Y-91710000D01*
X150856330Y-91566291D01*
X150848043Y-91546283D01*
X150800863Y-91432379D01*
X150800860Y-91432373D01*
X150712621Y-91317378D01*
X150597626Y-91229139D01*
X150597620Y-91229136D01*
X150463712Y-91173670D01*
X150463708Y-91173669D01*
X150452297Y-91172167D01*
X150393554Y-91146179D01*
X150358187Y-91092557D01*
X150354155Y-91044268D01*
X150365250Y-90960000D01*
X150346330Y-90816291D01*
X150337615Y-90795250D01*
X150290863Y-90682379D01*
X150290860Y-90682373D01*
X150202621Y-90567378D01*
X150087626Y-90479139D01*
X150087620Y-90479136D01*
X149953716Y-90423672D01*
X149953711Y-90423671D01*
X149953709Y-90423670D01*
X149810000Y-90404750D01*
X149666291Y-90423670D01*
X149629638Y-90438852D01*
X149558625Y-90468266D01*
X149494758Y-90475132D01*
X149471375Y-90468266D01*
X149457162Y-90462379D01*
X149363709Y-90423670D01*
X149220000Y-90404750D01*
X149076291Y-90423670D01*
X149076288Y-90423670D01*
X149076288Y-90423671D01*
X149076283Y-90423672D01*
X148942379Y-90479136D01*
X148942373Y-90479139D01*
X148827378Y-90567378D01*
X148739139Y-90682373D01*
X148739136Y-90682379D01*
X148683672Y-90816283D01*
X148683671Y-90816288D01*
X148683670Y-90816291D01*
X148664750Y-90960000D01*
X138377276Y-90960000D01*
X138447625Y-90930861D01*
X138562621Y-90842621D01*
X138650861Y-90727625D01*
X138706330Y-90593709D01*
X138725250Y-90450000D01*
X138706330Y-90306291D01*
X138658804Y-90191553D01*
X138651938Y-90127688D01*
X138658805Y-90104303D01*
X138662127Y-90096283D01*
X138696330Y-90013709D01*
X138715250Y-89870000D01*
X138696330Y-89726291D01*
X138686961Y-89703671D01*
X138648162Y-89610000D01*
X140459965Y-89610000D01*
X140478026Y-89747183D01*
X140530976Y-89875018D01*
X140615209Y-89984791D01*
X140724982Y-90069024D01*
X140852817Y-90121974D01*
X140921716Y-90131045D01*
X140980457Y-90157032D01*
X141015825Y-90210653D01*
X141019858Y-90229188D01*
X141021651Y-90242812D01*
X141038026Y-90367183D01*
X141090976Y-90495018D01*
X141175209Y-90604791D01*
X141284982Y-90689024D01*
X141412817Y-90741974D01*
X141550000Y-90760035D01*
X141687183Y-90741974D01*
X141815018Y-90689024D01*
X141924791Y-90604791D01*
X142009024Y-90495018D01*
X142061974Y-90367183D01*
X142061974Y-90367181D01*
X142064833Y-90360280D01*
X142067283Y-90361294D01*
X142094035Y-90317374D01*
X142151804Y-90289288D01*
X142155867Y-90288679D01*
X142173710Y-90286330D01*
X142307620Y-90230863D01*
X142307619Y-90230863D01*
X142307625Y-90230861D01*
X142422621Y-90142621D01*
X142510861Y-90027625D01*
X142518161Y-90010000D01*
X143659965Y-90010000D01*
X143678026Y-90147183D01*
X143730976Y-90275018D01*
X143815209Y-90384791D01*
X143924982Y-90469024D01*
X144052817Y-90521974D01*
X144190000Y-90540035D01*
X144327183Y-90521974D01*
X144455018Y-90469024D01*
X144564791Y-90384791D01*
X144649024Y-90275018D01*
X144701974Y-90147183D01*
X144720035Y-90010000D01*
X144701974Y-89872817D01*
X144701972Y-89872811D01*
X144661458Y-89775000D01*
X153594353Y-89775000D01*
X153614835Y-89917458D01*
X153674622Y-90048372D01*
X153674623Y-90048373D01*
X153768872Y-90157143D01*
X153768873Y-90157143D01*
X153768873Y-90157144D01*
X153811829Y-90184750D01*
X153889947Y-90234953D01*
X154028039Y-90275500D01*
X154171961Y-90275500D01*
X154310053Y-90234953D01*
X154431128Y-90157143D01*
X154525377Y-90048373D01*
X154585165Y-89917457D01*
X154605647Y-89775000D01*
X154585165Y-89632543D01*
X154525377Y-89501627D01*
X154431128Y-89392857D01*
X154431126Y-89392855D01*
X154310053Y-89315047D01*
X154310052Y-89315046D01*
X154171961Y-89274500D01*
X154028039Y-89274500D01*
X153889947Y-89315046D01*
X153889946Y-89315047D01*
X153768873Y-89392855D01*
X153768873Y-89392856D01*
X153674622Y-89501627D01*
X153614835Y-89632541D01*
X153594353Y-89775000D01*
X144661458Y-89775000D01*
X144649025Y-89744984D01*
X144649023Y-89744981D01*
X144564794Y-89635212D01*
X144564792Y-89635210D01*
X144564791Y-89635209D01*
X144455018Y-89550976D01*
X144327183Y-89498026D01*
X144190000Y-89479965D01*
X144052817Y-89498026D01*
X144052816Y-89498026D01*
X144052811Y-89498027D01*
X143924984Y-89550974D01*
X143924981Y-89550976D01*
X143815208Y-89635208D01*
X143730976Y-89744981D01*
X143730974Y-89744984D01*
X143678027Y-89872811D01*
X143678026Y-89872816D01*
X143678026Y-89872817D01*
X143659965Y-90010000D01*
X142518161Y-90010000D01*
X142566330Y-89893709D01*
X142585250Y-89750000D01*
X142566330Y-89606291D01*
X142543418Y-89550976D01*
X142510863Y-89472379D01*
X142510860Y-89472373D01*
X142422621Y-89357378D01*
X142307626Y-89269139D01*
X142307620Y-89269136D01*
X142166806Y-89210810D01*
X142167449Y-89209257D01*
X142120608Y-89180705D01*
X142092542Y-89122925D01*
X142091945Y-89118947D01*
X142086330Y-89076291D01*
X142086327Y-89076283D01*
X142030863Y-88942379D01*
X142030860Y-88942373D01*
X141942621Y-88827378D01*
X141827626Y-88739139D01*
X141827620Y-88739136D01*
X141693716Y-88683672D01*
X141693711Y-88683671D01*
X141693709Y-88683670D01*
X141550000Y-88664750D01*
X141406291Y-88683670D01*
X141406288Y-88683670D01*
X141406288Y-88683671D01*
X141406283Y-88683672D01*
X141272379Y-88739136D01*
X141272373Y-88739139D01*
X141157378Y-88827378D01*
X141069139Y-88942373D01*
X141069137Y-88942376D01*
X141038612Y-89016073D01*
X140998307Y-89066089D01*
X140948170Y-89085472D01*
X140852817Y-89098026D01*
X140852816Y-89098026D01*
X140852811Y-89098027D01*
X140724984Y-89150974D01*
X140724981Y-89150976D01*
X140615208Y-89235208D01*
X140530976Y-89344981D01*
X140530974Y-89344984D01*
X140478027Y-89472811D01*
X140478026Y-89472816D01*
X140478026Y-89472817D01*
X140459965Y-89610000D01*
X138648162Y-89610000D01*
X138640863Y-89592379D01*
X138640860Y-89592373D01*
X138552621Y-89477378D01*
X138437626Y-89389139D01*
X138437620Y-89389136D01*
X138303716Y-89333672D01*
X138303711Y-89333671D01*
X138303709Y-89333670D01*
X138160000Y-89314750D01*
X138016291Y-89333670D01*
X138016288Y-89333670D01*
X138016288Y-89333671D01*
X138016283Y-89333672D01*
X137882379Y-89389136D01*
X137882373Y-89389139D01*
X137767378Y-89477378D01*
X137679139Y-89592373D01*
X137679136Y-89592379D01*
X137623672Y-89726283D01*
X137623671Y-89726288D01*
X137623670Y-89726291D01*
X137604750Y-89870000D01*
X131599980Y-89870000D01*
X131582621Y-89847378D01*
X131467626Y-89759139D01*
X131467620Y-89759136D01*
X131333716Y-89703672D01*
X131333711Y-89703671D01*
X131333709Y-89703670D01*
X131190000Y-89684750D01*
X131046291Y-89703670D01*
X131046288Y-89703670D01*
X131046288Y-89703671D01*
X131046283Y-89703672D01*
X130912379Y-89759136D01*
X130912373Y-89759139D01*
X130797378Y-89847378D01*
X130709139Y-89962373D01*
X130709136Y-89962379D01*
X130653672Y-90096283D01*
X130653671Y-90096288D01*
X130653670Y-90096291D01*
X130634750Y-90240000D01*
X130649624Y-90352978D01*
X130650571Y-90360167D01*
X130640673Y-90423635D01*
X130598034Y-90471676D01*
X130536190Y-90489039D01*
X130474776Y-90470210D01*
X130447104Y-90444446D01*
X130372621Y-90347378D01*
X130257626Y-90259139D01*
X130257620Y-90259136D01*
X130123716Y-90203672D01*
X130123711Y-90203671D01*
X130123709Y-90203670D01*
X129980000Y-90184750D01*
X129836291Y-90203670D01*
X129836288Y-90203670D01*
X129836288Y-90203671D01*
X129836283Y-90203672D01*
X129702379Y-90259136D01*
X129702373Y-90259139D01*
X129587378Y-90347378D01*
X129499139Y-90462373D01*
X129499136Y-90462379D01*
X129443672Y-90596283D01*
X129443671Y-90596288D01*
X129443670Y-90596291D01*
X129424750Y-90740000D01*
X127690240Y-90740000D01*
X127583588Y-90438827D01*
X127581768Y-90433225D01*
X127557996Y-90352974D01*
X127557845Y-90288743D01*
X127592444Y-90234623D01*
X127650811Y-90207800D01*
X127714414Y-90216791D01*
X127747913Y-90239991D01*
X127750184Y-90242262D01*
X127877738Y-90369816D01*
X127877740Y-90369817D01*
X127877741Y-90369818D01*
X128030472Y-90465786D01*
X128030474Y-90465787D01*
X128030475Y-90465787D01*
X128030478Y-90465789D01*
X128200745Y-90525368D01*
X128260496Y-90532100D01*
X128379998Y-90545565D01*
X128380000Y-90545565D01*
X128380002Y-90545565D01*
X128469627Y-90535466D01*
X128559255Y-90525368D01*
X128729522Y-90465789D01*
X128734956Y-90462375D01*
X128796554Y-90423670D01*
X128882262Y-90369816D01*
X129009816Y-90242262D01*
X129085399Y-90121972D01*
X129105786Y-90089527D01*
X129105787Y-90089525D01*
X129105786Y-90089525D01*
X129105789Y-90089522D01*
X129165368Y-89919255D01*
X129178832Y-89799751D01*
X129185565Y-89740001D01*
X129185565Y-89739998D01*
X129165368Y-89560746D01*
X129165368Y-89560745D01*
X129105789Y-89390478D01*
X129105787Y-89390475D01*
X129105787Y-89390474D01*
X129105786Y-89390472D01*
X129068764Y-89331552D01*
X129051296Y-89269737D01*
X129070021Y-89208292D01*
X129084672Y-89190298D01*
X129132206Y-89142765D01*
X129177585Y-89039991D01*
X129180500Y-89014865D01*
X129180499Y-87925136D01*
X129177585Y-87900009D01*
X129177583Y-87900006D01*
X129177583Y-87900003D01*
X129132207Y-87797237D01*
X129132203Y-87797231D01*
X129052768Y-87717796D01*
X129052766Y-87717795D01*
X129052765Y-87717794D01*
X129012465Y-87700000D01*
X136874750Y-87700000D01*
X136893670Y-87843709D01*
X136893671Y-87843711D01*
X136893672Y-87843716D01*
X136949136Y-87977620D01*
X136949139Y-87977626D01*
X137037378Y-88092621D01*
X137152373Y-88180860D01*
X137152379Y-88180863D01*
X137286283Y-88236327D01*
X137286284Y-88236327D01*
X137286291Y-88236330D01*
X137430000Y-88255250D01*
X137573709Y-88236330D01*
X137707625Y-88180861D01*
X137822621Y-88092621D01*
X137910861Y-87977625D01*
X137966330Y-87843709D01*
X137985250Y-87700000D01*
X137966330Y-87556291D01*
X137947160Y-87510009D01*
X137910863Y-87422379D01*
X137910860Y-87422373D01*
X137822621Y-87307378D01*
X137707626Y-87219139D01*
X137707620Y-87219136D01*
X137573716Y-87163672D01*
X137573711Y-87163671D01*
X137573709Y-87163670D01*
X137430000Y-87144750D01*
X137286291Y-87163670D01*
X137286288Y-87163670D01*
X137286288Y-87163671D01*
X137286283Y-87163672D01*
X137152379Y-87219136D01*
X137152373Y-87219139D01*
X137037378Y-87307378D01*
X136949139Y-87422373D01*
X136949136Y-87422379D01*
X136893672Y-87556283D01*
X136893671Y-87556288D01*
X136893670Y-87556291D01*
X136874750Y-87700000D01*
X129012465Y-87700000D01*
X128949991Y-87672415D01*
X128949987Y-87672414D01*
X128924868Y-87669500D01*
X127835140Y-87669500D01*
X127835133Y-87669501D01*
X127810007Y-87672415D01*
X127810003Y-87672416D01*
X127707237Y-87717792D01*
X127707231Y-87717796D01*
X127627796Y-87797231D01*
X127627795Y-87797233D01*
X127582415Y-87900008D01*
X127582414Y-87900012D01*
X127579500Y-87925129D01*
X127579500Y-89014859D01*
X127579501Y-89014866D01*
X127582415Y-89039992D01*
X127582416Y-89039996D01*
X127627792Y-89142762D01*
X127627796Y-89142768D01*
X127675319Y-89190291D01*
X127706104Y-89246669D01*
X127701521Y-89310740D01*
X127691236Y-89331552D01*
X127654212Y-89390475D01*
X127654211Y-89390478D01*
X127598051Y-89550976D01*
X127594632Y-89560746D01*
X127583225Y-89661978D01*
X127558340Y-89721197D01*
X127505390Y-89757562D01*
X127441185Y-89759526D01*
X127386110Y-89726467D01*
X127359093Y-89675828D01*
X127189136Y-88967908D01*
X127187897Y-88962077D01*
X127184245Y-88942375D01*
X127050172Y-88218980D01*
X127049239Y-88213089D01*
X127047568Y-88200398D01*
X126950589Y-87463767D01*
X126949972Y-87457894D01*
X126890671Y-86704405D01*
X126890362Y-86698496D01*
X126870578Y-85942978D01*
X126870578Y-85937016D01*
X126871547Y-85900000D01*
X126890362Y-85181501D01*
X126890671Y-85175596D01*
X126949972Y-84422101D01*
X126950589Y-84416236D01*
X126952726Y-84400000D01*
X127619353Y-84400000D01*
X127639835Y-84542458D01*
X127699622Y-84673372D01*
X127699623Y-84673373D01*
X127793872Y-84782143D01*
X127793873Y-84782143D01*
X127793873Y-84782144D01*
X127854409Y-84821048D01*
X127914947Y-84859953D01*
X128053039Y-84900500D01*
X128196961Y-84900500D01*
X128335053Y-84859953D01*
X128456128Y-84782143D01*
X128550377Y-84673373D01*
X128610165Y-84542457D01*
X128630647Y-84400000D01*
X128610165Y-84257543D01*
X128550377Y-84126627D01*
X128456128Y-84017857D01*
X128456126Y-84017855D01*
X128335053Y-83940047D01*
X128335052Y-83940046D01*
X128196961Y-83899500D01*
X128053039Y-83899500D01*
X127914947Y-83940046D01*
X127914946Y-83940047D01*
X127793873Y-84017855D01*
X127793873Y-84017856D01*
X127793872Y-84017856D01*
X127793872Y-84017857D01*
X127790305Y-84021974D01*
X127699622Y-84126627D01*
X127639835Y-84257541D01*
X127619353Y-84400000D01*
X126952726Y-84400000D01*
X127049240Y-83666901D01*
X127050173Y-83661015D01*
X127050364Y-83659984D01*
X127187900Y-82917907D01*
X127189138Y-82912084D01*
X127197731Y-82876293D01*
X127365570Y-82177191D01*
X127367105Y-82171463D01*
X127580812Y-81449999D01*
X129170000Y-81449999D01*
X129170000Y-85010000D01*
X131659998Y-87219999D01*
X131659999Y-87219999D01*
X131660000Y-87220000D01*
X131660001Y-87220000D01*
X135030000Y-87220000D01*
X135030000Y-87100000D01*
X143469965Y-87100000D01*
X143488026Y-87237183D01*
X143540976Y-87365018D01*
X143625209Y-87474791D01*
X143734982Y-87559024D01*
X143862817Y-87611974D01*
X144000000Y-87630035D01*
X144136008Y-87612128D01*
X144199472Y-87622025D01*
X144247514Y-87664665D01*
X144264877Y-87726509D01*
X144263910Y-87740031D01*
X144259965Y-87769997D01*
X144259965Y-87770000D01*
X144278026Y-87907183D01*
X144330976Y-88035018D01*
X144415209Y-88144791D01*
X144524982Y-88229024D01*
X144652817Y-88281974D01*
X144790000Y-88300035D01*
X144927183Y-88281974D01*
X145055018Y-88229024D01*
X145164791Y-88144791D01*
X145249024Y-88035018D01*
X145301974Y-87907183D01*
X145320035Y-87770000D01*
X145301974Y-87632817D01*
X145300822Y-87630035D01*
X145249025Y-87504984D01*
X145249023Y-87504981D01*
X145164794Y-87395212D01*
X145164792Y-87395210D01*
X145164791Y-87395209D01*
X145055018Y-87310976D01*
X144927183Y-87258026D01*
X144790000Y-87239965D01*
X144789999Y-87239965D01*
X144653994Y-87257871D01*
X144590526Y-87247973D01*
X144542485Y-87205334D01*
X144525122Y-87143490D01*
X144526090Y-87129964D01*
X144530035Y-87100000D01*
X144511974Y-86962817D01*
X144469367Y-86859953D01*
X144459025Y-86834984D01*
X144459023Y-86834981D01*
X144374794Y-86725212D01*
X144374792Y-86725210D01*
X144374791Y-86725209D01*
X144265018Y-86640976D01*
X144137183Y-86588026D01*
X144000000Y-86569965D01*
X143862817Y-86588026D01*
X143862816Y-86588026D01*
X143862811Y-86588027D01*
X143734984Y-86640974D01*
X143734981Y-86640976D01*
X143625208Y-86725208D01*
X143540976Y-86834981D01*
X143540974Y-86834984D01*
X143488027Y-86962811D01*
X143488026Y-86962816D01*
X143488026Y-86962817D01*
X143469965Y-87100000D01*
X135030000Y-87100000D01*
X135030000Y-86530636D01*
X135048097Y-86469003D01*
X135053559Y-86461236D01*
X135077501Y-86430035D01*
X135089024Y-86415018D01*
X135095245Y-86400000D01*
X140369353Y-86400000D01*
X140389835Y-86542458D01*
X140449622Y-86673372D01*
X140449623Y-86673373D01*
X140543872Y-86782143D01*
X140543873Y-86782143D01*
X140543873Y-86782144D01*
X140604409Y-86821048D01*
X140664947Y-86859953D01*
X140803039Y-86900500D01*
X140946961Y-86900500D01*
X141085053Y-86859953D01*
X141206128Y-86782143D01*
X141300377Y-86673373D01*
X141360165Y-86542457D01*
X141380647Y-86400000D01*
X141360165Y-86257543D01*
X141300377Y-86126627D01*
X141206128Y-86017857D01*
X141206126Y-86017855D01*
X141085053Y-85940047D01*
X141085052Y-85940046D01*
X140948664Y-85900000D01*
X145544965Y-85900000D01*
X145563026Y-86037183D01*
X145615976Y-86165018D01*
X145700209Y-86274791D01*
X145809982Y-86359024D01*
X145937817Y-86411974D01*
X146075000Y-86430035D01*
X146212183Y-86411974D01*
X146340018Y-86359024D01*
X146449791Y-86274791D01*
X146534024Y-86165018D01*
X146586974Y-86037183D01*
X146605035Y-85900000D01*
X146586974Y-85762817D01*
X146585499Y-85759256D01*
X146534025Y-85634984D01*
X146534023Y-85634981D01*
X146530201Y-85630000D01*
X151654750Y-85630000D01*
X151673670Y-85773709D01*
X151673671Y-85773711D01*
X151673672Y-85773716D01*
X151729136Y-85907620D01*
X151729139Y-85907626D01*
X151817378Y-86022621D01*
X151932373Y-86110860D01*
X151932379Y-86110863D01*
X152066283Y-86166327D01*
X152066284Y-86166327D01*
X152066291Y-86166330D01*
X152210000Y-86185250D01*
X152353709Y-86166330D01*
X152487625Y-86110861D01*
X152602621Y-86022621D01*
X152690861Y-85907625D01*
X152746330Y-85773709D01*
X152765250Y-85630000D01*
X152746330Y-85486291D01*
X152731298Y-85450000D01*
X152690863Y-85352379D01*
X152690860Y-85352373D01*
X152602621Y-85237378D01*
X152487626Y-85149139D01*
X152487620Y-85149136D01*
X152353716Y-85093672D01*
X152353711Y-85093671D01*
X152353709Y-85093670D01*
X152210000Y-85074750D01*
X152066291Y-85093670D01*
X152066288Y-85093670D01*
X152066288Y-85093671D01*
X152066283Y-85093672D01*
X151932379Y-85149136D01*
X151932373Y-85149139D01*
X151817378Y-85237378D01*
X151729139Y-85352373D01*
X151729136Y-85352379D01*
X151673672Y-85486283D01*
X151673671Y-85486288D01*
X151673670Y-85486291D01*
X151654750Y-85630000D01*
X146530201Y-85630000D01*
X146449794Y-85525212D01*
X146449792Y-85525210D01*
X146449791Y-85525209D01*
X146340018Y-85440976D01*
X146212183Y-85388026D01*
X146075000Y-85369965D01*
X145937817Y-85388026D01*
X145937816Y-85388026D01*
X145937811Y-85388027D01*
X145809984Y-85440974D01*
X145809981Y-85440976D01*
X145700208Y-85525208D01*
X145615976Y-85634981D01*
X145615974Y-85634984D01*
X145563027Y-85762811D01*
X145563026Y-85762816D01*
X145563026Y-85762817D01*
X145544965Y-85900000D01*
X140948664Y-85900000D01*
X140946961Y-85899500D01*
X140803039Y-85899500D01*
X140664947Y-85940046D01*
X140664946Y-85940047D01*
X140543873Y-86017855D01*
X140543873Y-86017856D01*
X140449622Y-86126627D01*
X140389835Y-86257541D01*
X140369353Y-86400000D01*
X135095245Y-86400000D01*
X135141974Y-86287183D01*
X135160035Y-86150000D01*
X135141974Y-86012817D01*
X135103542Y-85920034D01*
X135089025Y-85884985D01*
X135089024Y-85884984D01*
X135089024Y-85884983D01*
X135072065Y-85862881D01*
X135048903Y-85802970D01*
X135061809Y-85740045D01*
X135072063Y-85724088D01*
X135079024Y-85715018D01*
X135131974Y-85587183D01*
X135150035Y-85450000D01*
X135142136Y-85390000D01*
X136939965Y-85390000D01*
X136958026Y-85527183D01*
X137010976Y-85655018D01*
X137095209Y-85764791D01*
X137204982Y-85849024D01*
X137332817Y-85901974D01*
X137470000Y-85920035D01*
X137607183Y-85901974D01*
X137735018Y-85849024D01*
X137844791Y-85764791D01*
X137929024Y-85655018D01*
X137981974Y-85527183D01*
X138000035Y-85390000D01*
X137981974Y-85252817D01*
X137976180Y-85238828D01*
X137929025Y-85124984D01*
X137929023Y-85124981D01*
X137844794Y-85015212D01*
X137844792Y-85015210D01*
X137844791Y-85015209D01*
X137735018Y-84930976D01*
X137607183Y-84878026D01*
X137470000Y-84859965D01*
X137332817Y-84878026D01*
X137332816Y-84878026D01*
X137332811Y-84878027D01*
X137204984Y-84930974D01*
X137204981Y-84930976D01*
X137095208Y-85015208D01*
X137010976Y-85124981D01*
X137010974Y-85124984D01*
X136958027Y-85252811D01*
X136958026Y-85252816D01*
X136958026Y-85252817D01*
X136939965Y-85390000D01*
X135142136Y-85390000D01*
X135131974Y-85312817D01*
X135131972Y-85312811D01*
X135079025Y-85184984D01*
X135079023Y-85184981D01*
X135053558Y-85151795D01*
X135030395Y-85091882D01*
X135030000Y-85082396D01*
X135030000Y-83925000D01*
X141324965Y-83925000D01*
X141343026Y-84062183D01*
X141395976Y-84190018D01*
X141480209Y-84299791D01*
X141589982Y-84384024D01*
X141717817Y-84436974D01*
X141855000Y-84455035D01*
X141992183Y-84436974D01*
X142120018Y-84384024D01*
X142229791Y-84299791D01*
X142314024Y-84190018D01*
X142351310Y-84100000D01*
X142974965Y-84100000D01*
X142993026Y-84237183D01*
X143045976Y-84365018D01*
X143130209Y-84474791D01*
X143239982Y-84559024D01*
X143367817Y-84611974D01*
X143505000Y-84630035D01*
X143642183Y-84611974D01*
X143770018Y-84559024D01*
X143879791Y-84474791D01*
X143964024Y-84365018D01*
X144016974Y-84237183D01*
X144035035Y-84100000D01*
X144016974Y-83962817D01*
X144016972Y-83962811D01*
X143964025Y-83834984D01*
X143964023Y-83834981D01*
X143879794Y-83725212D01*
X143879792Y-83725210D01*
X143879791Y-83725209D01*
X143770018Y-83640976D01*
X143642183Y-83588026D01*
X143505000Y-83569965D01*
X143367817Y-83588026D01*
X143367816Y-83588026D01*
X143367811Y-83588027D01*
X143239984Y-83640974D01*
X143239981Y-83640976D01*
X143130208Y-83725208D01*
X143045976Y-83834981D01*
X143045974Y-83834984D01*
X142993027Y-83962811D01*
X142993026Y-83962816D01*
X142993026Y-83962817D01*
X142974965Y-84100000D01*
X142351310Y-84100000D01*
X142366974Y-84062183D01*
X142385035Y-83925000D01*
X142366974Y-83787817D01*
X142361673Y-83775018D01*
X142314025Y-83659984D01*
X142314023Y-83659981D01*
X142297869Y-83638929D01*
X142274706Y-83579015D01*
X142287613Y-83516090D01*
X142293560Y-83510000D01*
X144819965Y-83510000D01*
X144838026Y-83647183D01*
X144890976Y-83775018D01*
X144975209Y-83884791D01*
X145084982Y-83969024D01*
X145212817Y-84021974D01*
X145294484Y-84032726D01*
X145353226Y-84058713D01*
X145384924Y-84102124D01*
X145410974Y-84165015D01*
X145410975Y-84165017D01*
X145410976Y-84165018D01*
X145495209Y-84274791D01*
X145604982Y-84359024D01*
X145732817Y-84411974D01*
X145870000Y-84430035D01*
X146007183Y-84411974D01*
X146135018Y-84359024D01*
X146244791Y-84274791D01*
X146329024Y-84165018D01*
X146381974Y-84037183D01*
X146400035Y-83900000D01*
X146381974Y-83762817D01*
X146366396Y-83725209D01*
X146329025Y-83634985D01*
X146329024Y-83634984D01*
X146329024Y-83634983D01*
X146303480Y-83601693D01*
X146280318Y-83541782D01*
X146293224Y-83478857D01*
X146324525Y-83441853D01*
X146362621Y-83412621D01*
X146450861Y-83297625D01*
X146506330Y-83163709D01*
X146525250Y-83020000D01*
X146506330Y-82876291D01*
X146499735Y-82860368D01*
X146450863Y-82742379D01*
X146450860Y-82742373D01*
X146362621Y-82627378D01*
X146247626Y-82539139D01*
X146247620Y-82539136D01*
X146113716Y-82483672D01*
X146113711Y-82483671D01*
X146113709Y-82483670D01*
X145970000Y-82464750D01*
X145826291Y-82483670D01*
X145826288Y-82483670D01*
X145826288Y-82483671D01*
X145826283Y-82483672D01*
X145692379Y-82539136D01*
X145692373Y-82539139D01*
X145577378Y-82627378D01*
X145489139Y-82742373D01*
X145489137Y-82742376D01*
X145433671Y-82876285D01*
X145433669Y-82876293D01*
X145432673Y-82883861D01*
X145406684Y-82942603D01*
X145353062Y-82977970D01*
X145334533Y-82982001D01*
X145212817Y-82998026D01*
X145212816Y-82998026D01*
X145212811Y-82998027D01*
X145084984Y-83050974D01*
X145084981Y-83050976D01*
X144975208Y-83135208D01*
X144890976Y-83244981D01*
X144890974Y-83244984D01*
X144838027Y-83372811D01*
X144838026Y-83372816D01*
X144838026Y-83372817D01*
X144819965Y-83510000D01*
X142293560Y-83510000D01*
X142332490Y-83470132D01*
X142395090Y-83455732D01*
X142403176Y-83456503D01*
X142430000Y-83460035D01*
X142567183Y-83441974D01*
X142695018Y-83389024D01*
X142804791Y-83304791D01*
X142889024Y-83195018D01*
X142941974Y-83067183D01*
X142960035Y-82930000D01*
X142941974Y-82792817D01*
X142941972Y-82792811D01*
X142889025Y-82664984D01*
X142889023Y-82664981D01*
X142804794Y-82555212D01*
X142804792Y-82555210D01*
X142804791Y-82555209D01*
X142695018Y-82470976D01*
X142567183Y-82418026D01*
X142430000Y-82399965D01*
X142292817Y-82418026D01*
X142292816Y-82418026D01*
X142292811Y-82418027D01*
X142164984Y-82470974D01*
X142164981Y-82470976D01*
X142055208Y-82555208D01*
X141970976Y-82664981D01*
X141970974Y-82664984D01*
X141918027Y-82792811D01*
X141918026Y-82792816D01*
X141918026Y-82792817D01*
X141899965Y-82930000D01*
X141918026Y-83067183D01*
X141970976Y-83195018D01*
X141970977Y-83195019D01*
X141970977Y-83195020D01*
X141987129Y-83216069D01*
X142010293Y-83275982D01*
X141997387Y-83338908D01*
X141952510Y-83384867D01*
X141889910Y-83399267D01*
X141881810Y-83398494D01*
X141855002Y-83394965D01*
X141855000Y-83394965D01*
X141717817Y-83413026D01*
X141717816Y-83413026D01*
X141717811Y-83413027D01*
X141589984Y-83465974D01*
X141589981Y-83465976D01*
X141480208Y-83550208D01*
X141395976Y-83659981D01*
X141395974Y-83659984D01*
X141343027Y-83787811D01*
X141343026Y-83787816D01*
X141343026Y-83787817D01*
X141324965Y-83925000D01*
X135030000Y-83925000D01*
X135030000Y-82507760D01*
X135030033Y-82507256D01*
X135030036Y-82492828D01*
X135030000Y-82492264D01*
X135030000Y-82250000D01*
X134927064Y-82182759D01*
X134898967Y-82156716D01*
X134874793Y-82125212D01*
X134874791Y-82125209D01*
X134776778Y-82050000D01*
X139999965Y-82050000D01*
X140018026Y-82187183D01*
X140070976Y-82315018D01*
X140155209Y-82424791D01*
X140264982Y-82509024D01*
X140392817Y-82561974D01*
X140530000Y-82580035D01*
X140667183Y-82561974D01*
X140795018Y-82509024D01*
X140904791Y-82424791D01*
X140989024Y-82315018D01*
X140989024Y-82315016D01*
X140993573Y-82309089D01*
X140994837Y-82310059D01*
X141034749Y-82271990D01*
X141092528Y-82260843D01*
X141092528Y-82260035D01*
X141096717Y-82260035D01*
X141097821Y-82259822D01*
X141099698Y-82260035D01*
X141099997Y-82260035D01*
X141099998Y-82260034D01*
X141100000Y-82260035D01*
X141237183Y-82241974D01*
X141365018Y-82189024D01*
X141474791Y-82104791D01*
X141559024Y-81995018D01*
X141611974Y-81867183D01*
X141630035Y-81730000D01*
X141611974Y-81592817D01*
X141611972Y-81592811D01*
X141559025Y-81464984D01*
X141559023Y-81464981D01*
X141474794Y-81355212D01*
X141474792Y-81355210D01*
X141474791Y-81355209D01*
X141365018Y-81270976D01*
X141237183Y-81218026D01*
X141100000Y-81199965D01*
X140962817Y-81218026D01*
X140962816Y-81218026D01*
X140962811Y-81218027D01*
X140834984Y-81270974D01*
X140834981Y-81270976D01*
X140725208Y-81355208D01*
X140636427Y-81470911D01*
X140635166Y-81469943D01*
X140595227Y-81508022D01*
X140537471Y-81519150D01*
X140537471Y-81519965D01*
X140533242Y-81519965D01*
X140532152Y-81520175D01*
X140530301Y-81519965D01*
X140530003Y-81519965D01*
X140530001Y-81519965D01*
X140530000Y-81519965D01*
X140392817Y-81538026D01*
X140392816Y-81538026D01*
X140392811Y-81538027D01*
X140264984Y-81590974D01*
X140264981Y-81590976D01*
X140155208Y-81675208D01*
X140070976Y-81784981D01*
X140070974Y-81784984D01*
X140018027Y-81912811D01*
X140018026Y-81912816D01*
X140018026Y-81912817D01*
X139999965Y-82050000D01*
X134776778Y-82050000D01*
X134765018Y-82040976D01*
X134637183Y-81988026D01*
X134637182Y-81988025D01*
X134630280Y-81985167D01*
X134630585Y-81984428D01*
X134607987Y-81974329D01*
X134590437Y-81962866D01*
X134548733Y-81914011D01*
X134539755Y-81882307D01*
X134536330Y-81856291D01*
X134536327Y-81856283D01*
X134480863Y-81722379D01*
X134480860Y-81722373D01*
X134392621Y-81607378D01*
X134277626Y-81519139D01*
X134277620Y-81519136D01*
X134143716Y-81463672D01*
X134143711Y-81463671D01*
X134143709Y-81463670D01*
X134000000Y-81444750D01*
X133999999Y-81444750D01*
X133873146Y-81461451D01*
X133809678Y-81451553D01*
X133795924Y-81443869D01*
X133790003Y-81440001D01*
X133790001Y-81440000D01*
X133790000Y-81440000D01*
X133789997Y-81440000D01*
X129170000Y-81449999D01*
X127580812Y-81449999D01*
X127581764Y-81446786D01*
X127583585Y-81441183D01*
X127828346Y-80750000D01*
X134344750Y-80750000D01*
X134363670Y-80893709D01*
X134363671Y-80893711D01*
X134363672Y-80893716D01*
X134419136Y-81027620D01*
X134419139Y-81027626D01*
X134507378Y-81142621D01*
X134622373Y-81230860D01*
X134622379Y-81230863D01*
X134756283Y-81286327D01*
X134756284Y-81286327D01*
X134756291Y-81286330D01*
X134900000Y-81305250D01*
X135043709Y-81286330D01*
X135177625Y-81230861D01*
X135292621Y-81142621D01*
X135380861Y-81027625D01*
X135415031Y-80945129D01*
X148414501Y-80945129D01*
X148414501Y-82034859D01*
X148414502Y-82034866D01*
X148417416Y-82059992D01*
X148417417Y-82059996D01*
X148462793Y-82162762D01*
X148462797Y-82162768D01*
X148542232Y-82242203D01*
X148542234Y-82242204D01*
X148542236Y-82242206D01*
X148645010Y-82287585D01*
X148670136Y-82290500D01*
X149759865Y-82290499D01*
X149784992Y-82287585D01*
X149887766Y-82242206D01*
X149935291Y-82194681D01*
X149991669Y-82163895D01*
X150055740Y-82168477D01*
X150076554Y-82178764D01*
X150135474Y-82215786D01*
X150135476Y-82215787D01*
X150135477Y-82215787D01*
X150135480Y-82215789D01*
X150305747Y-82275368D01*
X150365498Y-82282100D01*
X150485000Y-82295565D01*
X150485002Y-82295565D01*
X150485004Y-82295565D01*
X150574629Y-82285466D01*
X150664257Y-82275368D01*
X150834524Y-82215789D01*
X150987264Y-82119816D01*
X151114818Y-81992262D01*
X151210791Y-81839522D01*
X151270370Y-81669255D01*
X151287284Y-81519136D01*
X151290567Y-81490001D01*
X151290567Y-81489998D01*
X151270370Y-81310746D01*
X151268447Y-81305249D01*
X151210791Y-81140478D01*
X151210789Y-81140475D01*
X151210789Y-81140474D01*
X151210788Y-81140472D01*
X151114820Y-80987741D01*
X151114816Y-80987736D01*
X150987265Y-80860185D01*
X150987257Y-80860179D01*
X150971561Y-80850316D01*
X150929003Y-80802202D01*
X150924038Y-80770000D01*
X151544750Y-80770000D01*
X151563670Y-80913709D01*
X151563671Y-80913711D01*
X151563672Y-80913716D01*
X151619136Y-81047620D01*
X151619139Y-81047626D01*
X151707378Y-81162621D01*
X151822373Y-81250860D01*
X151822379Y-81250863D01*
X151956283Y-81306327D01*
X151956284Y-81306327D01*
X151956291Y-81306330D01*
X152100000Y-81325250D01*
X152243709Y-81306330D01*
X152377625Y-81250861D01*
X152387565Y-81243232D01*
X152447475Y-81220068D01*
X152510401Y-81232970D01*
X152526359Y-81243225D01*
X152562375Y-81270861D01*
X152562376Y-81270861D01*
X152562377Y-81270862D01*
X152562379Y-81270863D01*
X152696283Y-81326327D01*
X152696284Y-81326327D01*
X152696291Y-81326330D01*
X152840000Y-81345250D01*
X152983709Y-81326330D01*
X153117625Y-81270861D01*
X153232621Y-81182621D01*
X153320861Y-81067625D01*
X153376330Y-80933709D01*
X153395250Y-80790000D01*
X153376330Y-80646291D01*
X153371634Y-80634953D01*
X153320863Y-80512379D01*
X153320860Y-80512373D01*
X153232621Y-80397378D01*
X153117626Y-80309139D01*
X153117620Y-80309136D01*
X152983716Y-80253672D01*
X152983711Y-80253671D01*
X152983709Y-80253670D01*
X152840000Y-80234750D01*
X152696291Y-80253670D01*
X152696288Y-80253670D01*
X152696288Y-80253671D01*
X152696283Y-80253672D01*
X152562379Y-80309136D01*
X152562371Y-80309141D01*
X152552427Y-80316771D01*
X152492513Y-80339931D01*
X152429588Y-80327022D01*
X152413634Y-80316769D01*
X152377625Y-80289139D01*
X152377620Y-80289136D01*
X152243716Y-80233672D01*
X152243711Y-80233671D01*
X152243709Y-80233670D01*
X152100000Y-80214750D01*
X151956291Y-80233670D01*
X151956288Y-80233670D01*
X151956288Y-80233671D01*
X151956283Y-80233672D01*
X151822379Y-80289136D01*
X151822373Y-80289139D01*
X151707378Y-80377378D01*
X151619139Y-80492373D01*
X151619136Y-80492379D01*
X151563672Y-80626283D01*
X151563671Y-80626288D01*
X151563670Y-80626291D01*
X151544750Y-80770000D01*
X150924038Y-80770000D01*
X150919215Y-80738717D01*
X150926892Y-80710166D01*
X150981971Y-80577190D01*
X150981970Y-80577190D01*
X150981974Y-80577183D01*
X151000035Y-80440000D01*
X150981974Y-80302817D01*
X150981972Y-80302811D01*
X150929025Y-80174984D01*
X150929023Y-80174981D01*
X150844794Y-80065212D01*
X150844792Y-80065210D01*
X150844791Y-80065209D01*
X150735018Y-79980976D01*
X150607183Y-79928026D01*
X150470000Y-79909965D01*
X150332817Y-79928026D01*
X150332816Y-79928026D01*
X150332811Y-79928027D01*
X150204984Y-79980974D01*
X150204981Y-79980976D01*
X150095208Y-80065208D01*
X150010976Y-80174981D01*
X150010974Y-80174984D01*
X149958027Y-80302811D01*
X149958026Y-80302816D01*
X149958026Y-80302817D01*
X149939965Y-80440000D01*
X149946860Y-80492375D01*
X149958338Y-80579551D01*
X149948440Y-80643019D01*
X149905801Y-80691060D01*
X149843957Y-80708423D01*
X149799267Y-80698718D01*
X149784992Y-80692415D01*
X149784988Y-80692414D01*
X149756594Y-80689120D01*
X149756748Y-80687785D01*
X149701381Y-80667986D01*
X149662193Y-80617090D01*
X149655430Y-80560929D01*
X149670035Y-80450000D01*
X149651974Y-80312817D01*
X149651972Y-80312811D01*
X149599025Y-80184984D01*
X149599023Y-80184981D01*
X149514794Y-80075212D01*
X149514792Y-80075210D01*
X149514791Y-80075209D01*
X149405018Y-79990976D01*
X149277183Y-79938026D01*
X149140000Y-79919965D01*
X149002817Y-79938026D01*
X149002816Y-79938026D01*
X149002811Y-79938027D01*
X148874984Y-79990974D01*
X148874981Y-79990976D01*
X148765208Y-80075208D01*
X148680976Y-80184981D01*
X148680974Y-80184984D01*
X148628027Y-80312811D01*
X148628026Y-80312816D01*
X148628026Y-80312817D01*
X148609965Y-80450000D01*
X148628026Y-80587183D01*
X148628027Y-80587185D01*
X148629759Y-80593650D01*
X148628228Y-80657866D01*
X148592221Y-80711061D01*
X148565691Y-80727437D01*
X148542235Y-80737794D01*
X148542232Y-80737796D01*
X148462797Y-80817231D01*
X148462796Y-80817233D01*
X148417416Y-80920008D01*
X148417415Y-80920012D01*
X148414501Y-80945129D01*
X135415031Y-80945129D01*
X135436330Y-80893709D01*
X135455250Y-80750000D01*
X135436330Y-80606291D01*
X135428416Y-80587185D01*
X135380863Y-80472379D01*
X135380860Y-80472373D01*
X135292621Y-80357378D01*
X135177626Y-80269139D01*
X135177620Y-80269136D01*
X135043716Y-80213672D01*
X135043711Y-80213671D01*
X135043709Y-80213670D01*
X134900000Y-80194750D01*
X134756291Y-80213670D01*
X134756288Y-80213670D01*
X134756288Y-80213671D01*
X134756283Y-80213672D01*
X134622379Y-80269136D01*
X134622373Y-80269139D01*
X134507378Y-80357378D01*
X134419139Y-80472373D01*
X134419136Y-80472379D01*
X134363672Y-80606283D01*
X134363671Y-80606288D01*
X134363670Y-80606291D01*
X134344750Y-80750000D01*
X127828346Y-80750000D01*
X127835878Y-80728730D01*
X127838015Y-80723166D01*
X127848142Y-80698718D01*
X128044361Y-80225000D01*
X129094353Y-80225000D01*
X129114835Y-80367458D01*
X129174622Y-80498372D01*
X129174623Y-80498373D01*
X129268872Y-80607143D01*
X129268873Y-80607143D01*
X129268873Y-80607144D01*
X129298654Y-80626283D01*
X129389947Y-80684953D01*
X129528039Y-80725500D01*
X129671961Y-80725500D01*
X129810053Y-80684953D01*
X129931128Y-80607143D01*
X130025377Y-80498373D01*
X130085165Y-80367457D01*
X130105647Y-80225000D01*
X130098458Y-80175000D01*
X131119353Y-80175000D01*
X131139835Y-80317458D01*
X131199622Y-80448372D01*
X131199623Y-80448373D01*
X131293872Y-80557143D01*
X131293873Y-80557143D01*
X131293873Y-80557144D01*
X131340615Y-80587183D01*
X131414947Y-80634953D01*
X131553039Y-80675500D01*
X131696961Y-80675500D01*
X131835053Y-80634953D01*
X131956128Y-80557143D01*
X132050377Y-80448373D01*
X132110165Y-80317457D01*
X132130647Y-80175000D01*
X132110165Y-80032543D01*
X132050377Y-79901627D01*
X131956128Y-79792857D01*
X131956126Y-79792855D01*
X131835053Y-79715047D01*
X131835052Y-79715046D01*
X131696961Y-79674500D01*
X131553039Y-79674500D01*
X131414947Y-79715046D01*
X131414946Y-79715047D01*
X131293873Y-79792855D01*
X131293873Y-79792856D01*
X131199622Y-79901627D01*
X131139835Y-80032541D01*
X131119353Y-80175000D01*
X130098458Y-80175000D01*
X130085165Y-80082543D01*
X130025377Y-79951627D01*
X129931128Y-79842857D01*
X129931126Y-79842855D01*
X129810053Y-79765047D01*
X129810052Y-79765046D01*
X129671961Y-79724500D01*
X129528039Y-79724500D01*
X129389947Y-79765046D01*
X129389946Y-79765047D01*
X129268873Y-79842855D01*
X129268873Y-79842856D01*
X129174622Y-79951627D01*
X129114835Y-80082541D01*
X129094353Y-80225000D01*
X128044361Y-80225000D01*
X128127232Y-80024930D01*
X128129643Y-80019514D01*
X128377439Y-79500000D01*
X132494750Y-79500000D01*
X132513670Y-79643709D01*
X132513671Y-79643711D01*
X132513672Y-79643716D01*
X132569136Y-79777620D01*
X132569139Y-79777626D01*
X132657378Y-79892621D01*
X132772373Y-79980860D01*
X132772379Y-79980863D01*
X132906283Y-80036327D01*
X132906284Y-80036327D01*
X132906291Y-80036330D01*
X133050000Y-80055250D01*
X133193709Y-80036330D01*
X133327625Y-79980861D01*
X133442621Y-79892621D01*
X133530861Y-79777625D01*
X133586330Y-79643709D01*
X133592222Y-79598951D01*
X133618208Y-79540211D01*
X133671828Y-79504842D01*
X133736059Y-79504077D01*
X133786365Y-79535567D01*
X133787095Y-79534838D01*
X133790265Y-79538008D01*
X133790506Y-79538159D01*
X133790933Y-79538676D01*
X133792377Y-79540120D01*
X133907373Y-79628360D01*
X133907379Y-79628363D01*
X134041283Y-79683827D01*
X134041284Y-79683827D01*
X134041291Y-79683830D01*
X134185000Y-79702750D01*
X134328709Y-79683830D01*
X134462625Y-79628361D01*
X134577621Y-79540121D01*
X134665861Y-79425125D01*
X134721330Y-79291209D01*
X134740250Y-79147500D01*
X134737288Y-79125000D01*
X137444750Y-79125000D01*
X137463670Y-79268709D01*
X137463671Y-79268711D01*
X137463672Y-79268716D01*
X137519136Y-79402620D01*
X137519139Y-79402626D01*
X137607378Y-79517621D01*
X137722373Y-79605860D01*
X137722379Y-79605863D01*
X137856283Y-79661327D01*
X137856284Y-79661327D01*
X137856291Y-79661330D01*
X138000000Y-79680250D01*
X138143709Y-79661330D01*
X138277625Y-79605861D01*
X138392621Y-79517621D01*
X138480861Y-79402625D01*
X138536330Y-79268709D01*
X138555250Y-79125000D01*
X138536330Y-78981291D01*
X138529032Y-78963671D01*
X138480863Y-78847379D01*
X138480860Y-78847373D01*
X138392621Y-78732378D01*
X138277626Y-78644139D01*
X138277620Y-78644136D01*
X138143716Y-78588672D01*
X138143711Y-78588671D01*
X138143709Y-78588670D01*
X138000000Y-78569750D01*
X137856291Y-78588670D01*
X137856288Y-78588670D01*
X137856288Y-78588671D01*
X137856283Y-78588672D01*
X137722379Y-78644136D01*
X137722373Y-78644139D01*
X137607378Y-78732378D01*
X137519139Y-78847373D01*
X137519136Y-78847379D01*
X137463672Y-78981283D01*
X137463671Y-78981288D01*
X137463670Y-78981291D01*
X137444750Y-79125000D01*
X134737288Y-79125000D01*
X134721330Y-79003791D01*
X134721327Y-79003783D01*
X134665863Y-78869879D01*
X134665860Y-78869873D01*
X134577621Y-78754878D01*
X134462626Y-78666639D01*
X134462620Y-78666636D01*
X134328716Y-78611172D01*
X134328711Y-78611171D01*
X134328709Y-78611170D01*
X134185000Y-78592250D01*
X134041291Y-78611170D01*
X134041288Y-78611170D01*
X134041288Y-78611171D01*
X134041283Y-78611172D01*
X133907379Y-78666636D01*
X133907373Y-78666639D01*
X133792378Y-78754878D01*
X133704139Y-78869873D01*
X133704136Y-78869879D01*
X133648672Y-79003783D01*
X133648671Y-79003787D01*
X133648671Y-79003788D01*
X133648670Y-79003791D01*
X133642778Y-79048547D01*
X133616790Y-79107290D01*
X133563168Y-79142658D01*
X133498938Y-79143421D01*
X133448634Y-79111932D01*
X133447905Y-79112662D01*
X133444731Y-79109488D01*
X133444491Y-79109338D01*
X133444064Y-79108821D01*
X133442622Y-79107379D01*
X133327626Y-79019139D01*
X133327620Y-79019136D01*
X133193716Y-78963672D01*
X133193711Y-78963671D01*
X133193709Y-78963670D01*
X133050000Y-78944750D01*
X132906291Y-78963670D01*
X132906288Y-78963670D01*
X132906288Y-78963671D01*
X132906283Y-78963672D01*
X132772379Y-79019136D01*
X132772373Y-79019139D01*
X132657378Y-79107378D01*
X132569139Y-79222373D01*
X132569136Y-79222379D01*
X132513672Y-79356283D01*
X132513671Y-79356288D01*
X132513670Y-79356291D01*
X132494750Y-79500000D01*
X128377439Y-79500000D01*
X128455024Y-79337341D01*
X128457728Y-79332036D01*
X128479892Y-79291216D01*
X128818337Y-78667874D01*
X128821320Y-78662709D01*
X128852903Y-78611170D01*
X128891921Y-78547498D01*
X130684435Y-78547498D01*
X130684435Y-78547501D01*
X130704631Y-78726753D01*
X130764212Y-78897025D01*
X130764213Y-78897027D01*
X130860181Y-79049758D01*
X130860184Y-79049762D01*
X130987738Y-79177316D01*
X130987740Y-79177317D01*
X130987741Y-79177318D01*
X131140472Y-79273286D01*
X131140474Y-79273287D01*
X131140475Y-79273287D01*
X131140478Y-79273289D01*
X131310745Y-79332868D01*
X131350560Y-79337354D01*
X131489998Y-79353065D01*
X131490000Y-79353065D01*
X131490002Y-79353065D01*
X131579627Y-79342966D01*
X131669255Y-79332868D01*
X131839522Y-79273289D01*
X131992262Y-79177316D01*
X132119816Y-79049762D01*
X132215789Y-78897022D01*
X132275368Y-78726755D01*
X132295565Y-78547500D01*
X132275368Y-78368245D01*
X132215789Y-78197978D01*
X132215787Y-78197975D01*
X132215787Y-78197974D01*
X132215786Y-78197972D01*
X132178764Y-78139052D01*
X132161296Y-78077237D01*
X132180021Y-78015792D01*
X132194672Y-77997798D01*
X132242206Y-77950265D01*
X132287585Y-77847491D01*
X132290500Y-77822365D01*
X132290499Y-76850000D01*
X138169353Y-76850000D01*
X138189835Y-76992458D01*
X138249622Y-77123372D01*
X138249623Y-77123373D01*
X138343872Y-77232143D01*
X138343873Y-77232143D01*
X138343873Y-77232144D01*
X138361869Y-77243709D01*
X138464947Y-77309953D01*
X138603039Y-77350500D01*
X138746961Y-77350500D01*
X138885053Y-77309953D01*
X139006128Y-77232143D01*
X139100377Y-77123373D01*
X139111051Y-77100000D01*
X149094750Y-77100000D01*
X149113670Y-77243709D01*
X149113671Y-77243711D01*
X149113672Y-77243716D01*
X149169136Y-77377620D01*
X149169139Y-77377626D01*
X149257378Y-77492621D01*
X149372373Y-77580860D01*
X149372379Y-77580863D01*
X149506283Y-77636327D01*
X149506284Y-77636327D01*
X149506291Y-77636330D01*
X149650000Y-77655250D01*
X149793709Y-77636330D01*
X149927625Y-77580861D01*
X150042621Y-77492621D01*
X150130861Y-77377625D01*
X150186330Y-77243709D01*
X150205250Y-77100000D01*
X150186330Y-76956291D01*
X150146445Y-76859999D01*
X150130863Y-76822379D01*
X150130860Y-76822373D01*
X150042621Y-76707378D01*
X149927626Y-76619139D01*
X149927620Y-76619136D01*
X149793716Y-76563672D01*
X149793711Y-76563671D01*
X149793709Y-76563670D01*
X149650000Y-76544750D01*
X149506291Y-76563670D01*
X149506288Y-76563670D01*
X149506288Y-76563671D01*
X149506283Y-76563672D01*
X149372379Y-76619136D01*
X149372373Y-76619139D01*
X149257378Y-76707378D01*
X149169139Y-76822373D01*
X149169136Y-76822379D01*
X149113672Y-76956283D01*
X149113671Y-76956288D01*
X149113670Y-76956291D01*
X149094750Y-77100000D01*
X139111051Y-77100000D01*
X139160165Y-76992457D01*
X139180647Y-76850000D01*
X139160165Y-76707543D01*
X139100377Y-76576627D01*
X139006128Y-76467857D01*
X139006126Y-76467855D01*
X138885053Y-76390047D01*
X138885052Y-76390046D01*
X138746961Y-76349500D01*
X138603039Y-76349500D01*
X138464947Y-76390046D01*
X138464946Y-76390047D01*
X138343873Y-76467855D01*
X138343873Y-76467856D01*
X138249622Y-76576627D01*
X138189835Y-76707541D01*
X138169353Y-76850000D01*
X132290499Y-76850000D01*
X132290499Y-76732636D01*
X132287585Y-76707509D01*
X132287583Y-76707506D01*
X132287583Y-76707503D01*
X132242207Y-76604737D01*
X132242203Y-76604731D01*
X132162768Y-76525296D01*
X132162766Y-76525295D01*
X132162765Y-76525294D01*
X132059991Y-76479915D01*
X132059987Y-76479914D01*
X132034868Y-76477000D01*
X130945140Y-76477000D01*
X130945133Y-76477001D01*
X130920007Y-76479915D01*
X130920003Y-76479916D01*
X130817237Y-76525292D01*
X130817231Y-76525296D01*
X130737796Y-76604731D01*
X130737795Y-76604733D01*
X130692415Y-76707508D01*
X130692414Y-76707512D01*
X130689500Y-76732629D01*
X130689500Y-77822359D01*
X130689501Y-77822366D01*
X130692415Y-77847492D01*
X130692416Y-77847496D01*
X130737792Y-77950262D01*
X130737796Y-77950268D01*
X130785319Y-77997791D01*
X130816104Y-78054169D01*
X130811521Y-78118240D01*
X130801236Y-78139052D01*
X130764212Y-78197975D01*
X130704631Y-78368246D01*
X130684435Y-78547498D01*
X128891921Y-78547498D01*
X129216218Y-78018294D01*
X129219449Y-78013319D01*
X129647532Y-77390454D01*
X129650997Y-77385684D01*
X130111123Y-76786038D01*
X130114830Y-76781459D01*
X130605701Y-76206722D01*
X130609635Y-76202354D01*
X131129923Y-75654085D01*
X131134085Y-75649923D01*
X131682354Y-75129635D01*
X131686722Y-75125701D01*
X131833899Y-75000000D01*
X134344353Y-75000000D01*
X134364835Y-75142458D01*
X134424622Y-75273372D01*
X134424623Y-75273373D01*
X134518872Y-75382143D01*
X134518873Y-75382143D01*
X134518873Y-75382144D01*
X134579409Y-75421048D01*
X134639947Y-75459953D01*
X134778039Y-75500500D01*
X134921961Y-75500500D01*
X135060053Y-75459953D01*
X135075540Y-75450000D01*
X140514750Y-75450000D01*
X140533670Y-75593709D01*
X140533671Y-75593711D01*
X140533672Y-75593716D01*
X140589136Y-75727620D01*
X140589139Y-75727626D01*
X140677378Y-75842621D01*
X140792373Y-75930860D01*
X140792379Y-75930863D01*
X140926283Y-75986327D01*
X140926284Y-75986327D01*
X140926291Y-75986330D01*
X141070000Y-76005250D01*
X141213709Y-75986330D01*
X141347625Y-75930861D01*
X141462621Y-75842621D01*
X141550861Y-75727625D01*
X141606330Y-75593709D01*
X141621959Y-75475000D01*
X148894353Y-75475000D01*
X148914835Y-75617458D01*
X148974622Y-75748372D01*
X148974623Y-75748373D01*
X149068872Y-75857143D01*
X149068873Y-75857143D01*
X149068873Y-75857144D01*
X149129409Y-75896048D01*
X149189947Y-75934953D01*
X149328039Y-75975500D01*
X149471961Y-75975500D01*
X149610053Y-75934953D01*
X149731128Y-75857143D01*
X149825377Y-75748373D01*
X149885165Y-75617457D01*
X149905647Y-75475000D01*
X149885165Y-75332543D01*
X149825377Y-75201627D01*
X149731128Y-75092857D01*
X149731126Y-75092855D01*
X149610053Y-75015047D01*
X149610052Y-75015046D01*
X149471961Y-74974500D01*
X149328039Y-74974500D01*
X149189947Y-75015046D01*
X149189946Y-75015047D01*
X149068873Y-75092855D01*
X149068873Y-75092856D01*
X148974622Y-75201627D01*
X148914835Y-75332541D01*
X148894353Y-75475000D01*
X141621959Y-75475000D01*
X141625250Y-75450000D01*
X141606330Y-75306291D01*
X141592695Y-75273372D01*
X141550863Y-75172379D01*
X141550860Y-75172373D01*
X141462621Y-75057378D01*
X141347626Y-74969139D01*
X141347620Y-74969136D01*
X141213716Y-74913672D01*
X141213711Y-74913671D01*
X141213709Y-74913670D01*
X141070000Y-74894750D01*
X140926291Y-74913670D01*
X140926288Y-74913670D01*
X140926288Y-74913671D01*
X140926283Y-74913672D01*
X140792379Y-74969136D01*
X140792373Y-74969139D01*
X140677378Y-75057378D01*
X140589139Y-75172373D01*
X140589136Y-75172379D01*
X140533672Y-75306283D01*
X140533671Y-75306288D01*
X140533670Y-75306291D01*
X140514750Y-75450000D01*
X135075540Y-75450000D01*
X135181128Y-75382143D01*
X135275377Y-75273373D01*
X135335165Y-75142457D01*
X135355647Y-75000000D01*
X135335165Y-74857543D01*
X135275377Y-74726627D01*
X135181128Y-74617857D01*
X135181126Y-74617855D01*
X135060053Y-74540047D01*
X135060052Y-74540046D01*
X134921961Y-74499500D01*
X134778039Y-74499500D01*
X134639947Y-74540046D01*
X134639946Y-74540047D01*
X134518873Y-74617855D01*
X134518873Y-74617856D01*
X134424622Y-74726627D01*
X134364835Y-74857541D01*
X134344353Y-75000000D01*
X131833899Y-75000000D01*
X132261459Y-74634830D01*
X132266038Y-74631123D01*
X132865684Y-74170997D01*
X132870454Y-74167532D01*
X133493319Y-73739449D01*
X133498294Y-73736218D01*
X133638989Y-73650000D01*
X136219318Y-73650000D01*
X136237847Y-73790745D01*
X136239957Y-73806766D01*
X136300462Y-73952838D01*
X136300463Y-73952840D01*
X136300464Y-73952841D01*
X136396718Y-74078282D01*
X136522159Y-74174536D01*
X136668238Y-74235044D01*
X136825000Y-74255682D01*
X136981762Y-74235044D01*
X137127841Y-74174536D01*
X137253282Y-74078282D01*
X137290330Y-74030000D01*
X140264750Y-74030000D01*
X140283670Y-74173709D01*
X140283671Y-74173711D01*
X140283672Y-74173716D01*
X140339136Y-74307620D01*
X140339139Y-74307626D01*
X140427378Y-74422621D01*
X140542373Y-74510860D01*
X140542379Y-74510863D01*
X140676283Y-74566327D01*
X140676284Y-74566327D01*
X140676291Y-74566330D01*
X140820000Y-74585250D01*
X140963709Y-74566330D01*
X141097625Y-74510861D01*
X141212621Y-74422621D01*
X141300861Y-74307625D01*
X141356330Y-74173709D01*
X141375250Y-74030000D01*
X141356330Y-73886291D01*
X141323390Y-73806766D01*
X141300863Y-73752379D01*
X141300860Y-73752373D01*
X141212621Y-73637378D01*
X141097626Y-73549139D01*
X141097620Y-73549136D01*
X140963716Y-73493672D01*
X140963711Y-73493671D01*
X140963709Y-73493670D01*
X140820000Y-73474750D01*
X140676291Y-73493670D01*
X140676288Y-73493670D01*
X140676288Y-73493671D01*
X140676283Y-73493672D01*
X140542379Y-73549136D01*
X140542373Y-73549139D01*
X140427378Y-73637378D01*
X140339139Y-73752373D01*
X140339136Y-73752379D01*
X140283672Y-73886283D01*
X140283671Y-73886288D01*
X140283670Y-73886291D01*
X140264750Y-74030000D01*
X137290330Y-74030000D01*
X137349536Y-73952841D01*
X137410044Y-73806762D01*
X137430682Y-73650000D01*
X137410044Y-73493238D01*
X137371427Y-73400008D01*
X137349537Y-73347161D01*
X137349536Y-73347160D01*
X137349536Y-73347159D01*
X137253282Y-73221718D01*
X137127841Y-73125464D01*
X137127840Y-73125463D01*
X137127838Y-73125462D01*
X136981766Y-73064957D01*
X136981763Y-73064956D01*
X136981762Y-73064956D01*
X136825000Y-73044318D01*
X136668238Y-73064956D01*
X136668236Y-73064956D01*
X136668233Y-73064957D01*
X136522161Y-73125462D01*
X136396718Y-73221718D01*
X136300462Y-73347161D01*
X136239957Y-73493233D01*
X136239956Y-73493236D01*
X136239956Y-73493238D01*
X136219318Y-73650000D01*
X133638989Y-73650000D01*
X134142712Y-73341317D01*
X134147878Y-73338336D01*
X134213392Y-73302765D01*
X134812048Y-72977721D01*
X134817341Y-72975024D01*
X135499514Y-72649643D01*
X135504930Y-72647232D01*
X135920737Y-72475000D01*
X139219353Y-72475000D01*
X139239835Y-72617458D01*
X139299622Y-72748372D01*
X139299623Y-72748373D01*
X139393872Y-72857143D01*
X139393873Y-72857143D01*
X139393873Y-72857144D01*
X139454409Y-72896048D01*
X139514947Y-72934953D01*
X139653039Y-72975500D01*
X139796961Y-72975500D01*
X139935053Y-72934953D01*
X140056128Y-72857143D01*
X140150377Y-72748373D01*
X140204438Y-72629998D01*
X140949431Y-72629998D01*
X140949431Y-72630001D01*
X140969627Y-72809253D01*
X141029208Y-72979525D01*
X141029209Y-72979527D01*
X141125177Y-73132258D01*
X141125180Y-73132262D01*
X141252734Y-73259816D01*
X141252736Y-73259817D01*
X141252737Y-73259818D01*
X141405468Y-73355786D01*
X141405470Y-73355787D01*
X141405471Y-73355787D01*
X141405474Y-73355789D01*
X141575741Y-73415368D01*
X141635492Y-73422100D01*
X141754994Y-73435565D01*
X141754996Y-73435565D01*
X141754998Y-73435565D01*
X141844623Y-73425466D01*
X141934251Y-73415368D01*
X142104518Y-73355789D01*
X142104523Y-73355786D01*
X142163443Y-73318764D01*
X142225257Y-73301296D01*
X142286702Y-73320020D01*
X142304705Y-73334680D01*
X142352228Y-73382203D01*
X142352230Y-73382204D01*
X142352232Y-73382206D01*
X142455006Y-73427585D01*
X142480132Y-73430500D01*
X143569861Y-73430499D01*
X143594988Y-73427585D01*
X143600553Y-73425128D01*
X144634499Y-73425128D01*
X144634499Y-74514858D01*
X144634500Y-74514865D01*
X144637414Y-74539991D01*
X144637415Y-74539995D01*
X144682791Y-74642761D01*
X144682795Y-74642767D01*
X144762230Y-74722202D01*
X144762232Y-74722203D01*
X144762234Y-74722205D01*
X144865008Y-74767584D01*
X144890134Y-74770499D01*
X145979863Y-74770498D01*
X146004990Y-74767584D01*
X146107764Y-74722205D01*
X146155289Y-74674680D01*
X146211667Y-74643894D01*
X146275738Y-74648476D01*
X146296552Y-74658763D01*
X146355472Y-74695785D01*
X146355474Y-74695786D01*
X146355475Y-74695786D01*
X146355478Y-74695788D01*
X146525745Y-74755367D01*
X146585496Y-74762099D01*
X146704998Y-74775564D01*
X146705000Y-74775564D01*
X146705002Y-74775564D01*
X146794627Y-74765465D01*
X146884255Y-74755367D01*
X147054522Y-74695788D01*
X147207262Y-74599815D01*
X147334816Y-74472261D01*
X147430789Y-74319521D01*
X147490368Y-74149254D01*
X147510565Y-73969999D01*
X147508631Y-73952838D01*
X147490368Y-73790745D01*
X147490368Y-73790744D01*
X147430789Y-73620477D01*
X147430787Y-73620474D01*
X147430787Y-73620473D01*
X147430786Y-73620471D01*
X147334818Y-73467740D01*
X147334814Y-73467735D01*
X147207263Y-73340184D01*
X147207258Y-73340180D01*
X147054527Y-73244212D01*
X147054525Y-73244211D01*
X146884253Y-73184630D01*
X146705002Y-73164434D01*
X146704998Y-73164434D01*
X146525746Y-73184630D01*
X146355474Y-73244211D01*
X146296551Y-73281235D01*
X146234736Y-73298702D01*
X146173291Y-73279977D01*
X146155290Y-73265318D01*
X146107767Y-73217795D01*
X146107765Y-73217794D01*
X146107764Y-73217793D01*
X146004990Y-73172414D01*
X146004986Y-73172413D01*
X145979867Y-73169499D01*
X144890139Y-73169499D01*
X144890132Y-73169500D01*
X144865006Y-73172414D01*
X144865002Y-73172415D01*
X144762236Y-73217791D01*
X144762230Y-73217795D01*
X144682795Y-73297230D01*
X144682794Y-73297232D01*
X144682793Y-73297233D01*
X144682793Y-73297234D01*
X144680351Y-73302765D01*
X144637414Y-73400007D01*
X144637413Y-73400011D01*
X144634499Y-73425128D01*
X143600553Y-73425128D01*
X143697762Y-73382206D01*
X143777203Y-73302765D01*
X143822582Y-73199991D01*
X143825497Y-73174865D01*
X143825496Y-72085136D01*
X143822582Y-72060009D01*
X143822580Y-72060006D01*
X143822580Y-72060003D01*
X143777204Y-71957237D01*
X143777200Y-71957231D01*
X143697765Y-71877796D01*
X143697763Y-71877795D01*
X143697762Y-71877794D01*
X143594988Y-71832415D01*
X143594984Y-71832414D01*
X143569865Y-71829500D01*
X142480137Y-71829500D01*
X142480130Y-71829501D01*
X142455004Y-71832415D01*
X142455000Y-71832416D01*
X142352234Y-71877792D01*
X142352228Y-71877796D01*
X142304704Y-71925320D01*
X142248326Y-71956104D01*
X142184255Y-71951521D01*
X142163444Y-71941236D01*
X142104521Y-71904212D01*
X141934249Y-71844631D01*
X141754998Y-71824435D01*
X141754994Y-71824435D01*
X141575742Y-71844631D01*
X141405470Y-71904212D01*
X141405468Y-71904213D01*
X141252737Y-72000181D01*
X141252732Y-72000185D01*
X141125181Y-72127736D01*
X141125177Y-72127741D01*
X141029209Y-72280472D01*
X141029208Y-72280474D01*
X140969627Y-72450746D01*
X140949431Y-72629998D01*
X140204438Y-72629998D01*
X140210165Y-72617457D01*
X140230647Y-72475000D01*
X140210165Y-72332543D01*
X140150377Y-72201627D01*
X140056128Y-72092857D01*
X140056126Y-72092855D01*
X139935053Y-72015047D01*
X139935052Y-72015046D01*
X139796961Y-71974500D01*
X139653039Y-71974500D01*
X139514947Y-72015046D01*
X139514946Y-72015047D01*
X139393873Y-72092855D01*
X139393873Y-72092856D01*
X139299622Y-72201627D01*
X139239835Y-72332541D01*
X139219353Y-72475000D01*
X135920737Y-72475000D01*
X136203173Y-72358012D01*
X136208730Y-72355878D01*
X136921183Y-72103585D01*
X136926786Y-72101764D01*
X137651463Y-71887105D01*
X137657191Y-71885570D01*
X138392099Y-71709134D01*
X138397907Y-71707900D01*
X139141024Y-71570171D01*
X139146901Y-71569240D01*
X139896236Y-71470589D01*
X139902101Y-71469972D01*
X140655596Y-71410671D01*
X140661501Y-71410362D01*
X141417021Y-71390578D01*
X141422979Y-71390578D01*
X142178496Y-71410362D01*
G37*
G04 #@! TD.AperFunction*
M02*
