%TF.GenerationSoftware,KiCad,Pcbnew,8.0.6*%
%TF.CreationDate,2025-07-21T23:47:09+02:00*%
%TF.ProjectId,STM32,53544d33-322e-46b6-9963-61645f706362,rev?*%
%TF.SameCoordinates,Original*%
%TF.FileFunction,Drillmap*%
%TF.FilePolarity,Positive*%
%FSLAX45Y45*%
G04 Gerber Fmt 4.5, Leading zero omitted, Abs format (unit mm)*
G04 Created by KiCad (PCBNEW 8.0.6) date 2025-07-21 23:47:09*
%MOMM*%
%LPD*%
G01*
G04 APERTURE LIST*
%ADD10C,0.050000*%
%ADD11C,0.200000*%
%ADD12C,0.100000*%
G04 APERTURE END LIST*
D10*
X15622000Y-8594000D02*
G75*
G02*
X12662000Y-8594000I-1480000J0D01*
G01*
X12662000Y-8594000D02*
G75*
G02*
X15622000Y-8594000I1480000J0D01*
G01*
D11*
D12*
X14606727Y-9575332D02*
X14705787Y-9674392D01*
X14705787Y-9575332D02*
X14606727Y-9674392D01*
X14750411Y-9719016D02*
X14849471Y-9818076D01*
X14849471Y-9719016D02*
X14750411Y-9818076D01*
X15037779Y-9287964D02*
X15136839Y-9387024D01*
X15136839Y-9287964D02*
X15037779Y-9387024D01*
D11*
X12920277Y-10387984D02*
X12920277Y-10187984D01*
X12920277Y-10187984D02*
X12967896Y-10187984D01*
X12967896Y-10187984D02*
X12996467Y-10197508D01*
X12996467Y-10197508D02*
X13015515Y-10216555D01*
X13015515Y-10216555D02*
X13025039Y-10235603D01*
X13025039Y-10235603D02*
X13034562Y-10273698D01*
X13034562Y-10273698D02*
X13034562Y-10302270D01*
X13034562Y-10302270D02*
X13025039Y-10340365D01*
X13025039Y-10340365D02*
X13015515Y-10359412D01*
X13015515Y-10359412D02*
X12996467Y-10378460D01*
X12996467Y-10378460D02*
X12967896Y-10387984D01*
X12967896Y-10387984D02*
X12920277Y-10387984D01*
X13120277Y-10387984D02*
X13120277Y-10254650D01*
X13120277Y-10292746D02*
X13129801Y-10273698D01*
X13129801Y-10273698D02*
X13139324Y-10264174D01*
X13139324Y-10264174D02*
X13158372Y-10254650D01*
X13158372Y-10254650D02*
X13177420Y-10254650D01*
X13244086Y-10387984D02*
X13244086Y-10254650D01*
X13244086Y-10187984D02*
X13234562Y-10197508D01*
X13234562Y-10197508D02*
X13244086Y-10207031D01*
X13244086Y-10207031D02*
X13253610Y-10197508D01*
X13253610Y-10197508D02*
X13244086Y-10187984D01*
X13244086Y-10187984D02*
X13244086Y-10207031D01*
X13367896Y-10387984D02*
X13348848Y-10378460D01*
X13348848Y-10378460D02*
X13339324Y-10359412D01*
X13339324Y-10359412D02*
X13339324Y-10187984D01*
X13472658Y-10387984D02*
X13453610Y-10378460D01*
X13453610Y-10378460D02*
X13444086Y-10359412D01*
X13444086Y-10359412D02*
X13444086Y-10187984D01*
X13701229Y-10387984D02*
X13701229Y-10187984D01*
X13701229Y-10187984D02*
X13767896Y-10330841D01*
X13767896Y-10330841D02*
X13834562Y-10187984D01*
X13834562Y-10187984D02*
X13834562Y-10387984D01*
X14015515Y-10387984D02*
X14015515Y-10283222D01*
X14015515Y-10283222D02*
X14005991Y-10264174D01*
X14005991Y-10264174D02*
X13986943Y-10254650D01*
X13986943Y-10254650D02*
X13948848Y-10254650D01*
X13948848Y-10254650D02*
X13929801Y-10264174D01*
X14015515Y-10378460D02*
X13996467Y-10387984D01*
X13996467Y-10387984D02*
X13948848Y-10387984D01*
X13948848Y-10387984D02*
X13929801Y-10378460D01*
X13929801Y-10378460D02*
X13920277Y-10359412D01*
X13920277Y-10359412D02*
X13920277Y-10340365D01*
X13920277Y-10340365D02*
X13929801Y-10321317D01*
X13929801Y-10321317D02*
X13948848Y-10311793D01*
X13948848Y-10311793D02*
X13996467Y-10311793D01*
X13996467Y-10311793D02*
X14015515Y-10302270D01*
X14110753Y-10254650D02*
X14110753Y-10454650D01*
X14110753Y-10264174D02*
X14129801Y-10254650D01*
X14129801Y-10254650D02*
X14167896Y-10254650D01*
X14167896Y-10254650D02*
X14186943Y-10264174D01*
X14186943Y-10264174D02*
X14196467Y-10273698D01*
X14196467Y-10273698D02*
X14205991Y-10292746D01*
X14205991Y-10292746D02*
X14205991Y-10349889D01*
X14205991Y-10349889D02*
X14196467Y-10368936D01*
X14196467Y-10368936D02*
X14186943Y-10378460D01*
X14186943Y-10378460D02*
X14167896Y-10387984D01*
X14167896Y-10387984D02*
X14129801Y-10387984D01*
X14129801Y-10387984D02*
X14110753Y-10378460D01*
X14291705Y-10368936D02*
X14301229Y-10378460D01*
X14301229Y-10378460D02*
X14291705Y-10387984D01*
X14291705Y-10387984D02*
X14282182Y-10378460D01*
X14282182Y-10378460D02*
X14291705Y-10368936D01*
X14291705Y-10368936D02*
X14291705Y-10387984D01*
X14291705Y-10264174D02*
X14301229Y-10273698D01*
X14301229Y-10273698D02*
X14291705Y-10283222D01*
X14291705Y-10283222D02*
X14282182Y-10273698D01*
X14282182Y-10273698D02*
X14291705Y-10264174D01*
X14291705Y-10264174D02*
X14291705Y-10283222D01*
D12*
X12560440Y-10666970D02*
X12659500Y-10766030D01*
X12659500Y-10666970D02*
X12560440Y-10766030D01*
D11*
X12958372Y-10607984D02*
X12977420Y-10607984D01*
X12977420Y-10607984D02*
X12996467Y-10617508D01*
X12996467Y-10617508D02*
X13005991Y-10627031D01*
X13005991Y-10627031D02*
X13015515Y-10646079D01*
X13015515Y-10646079D02*
X13025039Y-10684174D01*
X13025039Y-10684174D02*
X13025039Y-10731793D01*
X13025039Y-10731793D02*
X13015515Y-10769889D01*
X13015515Y-10769889D02*
X13005991Y-10788936D01*
X13005991Y-10788936D02*
X12996467Y-10798460D01*
X12996467Y-10798460D02*
X12977420Y-10807984D01*
X12977420Y-10807984D02*
X12958372Y-10807984D01*
X12958372Y-10807984D02*
X12939324Y-10798460D01*
X12939324Y-10798460D02*
X12929801Y-10788936D01*
X12929801Y-10788936D02*
X12920277Y-10769889D01*
X12920277Y-10769889D02*
X12910753Y-10731793D01*
X12910753Y-10731793D02*
X12910753Y-10684174D01*
X12910753Y-10684174D02*
X12920277Y-10646079D01*
X12920277Y-10646079D02*
X12929801Y-10627031D01*
X12929801Y-10627031D02*
X12939324Y-10617508D01*
X12939324Y-10617508D02*
X12958372Y-10607984D01*
X13110753Y-10788936D02*
X13120277Y-10798460D01*
X13120277Y-10798460D02*
X13110753Y-10807984D01*
X13110753Y-10807984D02*
X13101229Y-10798460D01*
X13101229Y-10798460D02*
X13110753Y-10788936D01*
X13110753Y-10788936D02*
X13110753Y-10807984D01*
X13215515Y-10807984D02*
X13253610Y-10807984D01*
X13253610Y-10807984D02*
X13272658Y-10798460D01*
X13272658Y-10798460D02*
X13282182Y-10788936D01*
X13282182Y-10788936D02*
X13301229Y-10760365D01*
X13301229Y-10760365D02*
X13310753Y-10722270D01*
X13310753Y-10722270D02*
X13310753Y-10646079D01*
X13310753Y-10646079D02*
X13301229Y-10627031D01*
X13301229Y-10627031D02*
X13291705Y-10617508D01*
X13291705Y-10617508D02*
X13272658Y-10607984D01*
X13272658Y-10607984D02*
X13234562Y-10607984D01*
X13234562Y-10607984D02*
X13215515Y-10617508D01*
X13215515Y-10617508D02*
X13205991Y-10627031D01*
X13205991Y-10627031D02*
X13196467Y-10646079D01*
X13196467Y-10646079D02*
X13196467Y-10693698D01*
X13196467Y-10693698D02*
X13205991Y-10712746D01*
X13205991Y-10712746D02*
X13215515Y-10722270D01*
X13215515Y-10722270D02*
X13234562Y-10731793D01*
X13234562Y-10731793D02*
X13272658Y-10731793D01*
X13272658Y-10731793D02*
X13291705Y-10722270D01*
X13291705Y-10722270D02*
X13301229Y-10712746D01*
X13301229Y-10712746D02*
X13310753Y-10693698D01*
X13405991Y-10807984D02*
X13444086Y-10807984D01*
X13444086Y-10807984D02*
X13463134Y-10798460D01*
X13463134Y-10798460D02*
X13472658Y-10788936D01*
X13472658Y-10788936D02*
X13491705Y-10760365D01*
X13491705Y-10760365D02*
X13501229Y-10722270D01*
X13501229Y-10722270D02*
X13501229Y-10646079D01*
X13501229Y-10646079D02*
X13491705Y-10627031D01*
X13491705Y-10627031D02*
X13482182Y-10617508D01*
X13482182Y-10617508D02*
X13463134Y-10607984D01*
X13463134Y-10607984D02*
X13425039Y-10607984D01*
X13425039Y-10607984D02*
X13405991Y-10617508D01*
X13405991Y-10617508D02*
X13396467Y-10627031D01*
X13396467Y-10627031D02*
X13386943Y-10646079D01*
X13386943Y-10646079D02*
X13386943Y-10693698D01*
X13386943Y-10693698D02*
X13396467Y-10712746D01*
X13396467Y-10712746D02*
X13405991Y-10722270D01*
X13405991Y-10722270D02*
X13425039Y-10731793D01*
X13425039Y-10731793D02*
X13463134Y-10731793D01*
X13463134Y-10731793D02*
X13482182Y-10722270D01*
X13482182Y-10722270D02*
X13491705Y-10712746D01*
X13491705Y-10712746D02*
X13501229Y-10693698D01*
X13691705Y-10807984D02*
X13577420Y-10807984D01*
X13634562Y-10807984D02*
X13634562Y-10607984D01*
X13634562Y-10607984D02*
X13615515Y-10636555D01*
X13615515Y-10636555D02*
X13596467Y-10655603D01*
X13596467Y-10655603D02*
X13577420Y-10665127D01*
X13777420Y-10807984D02*
X13777420Y-10674650D01*
X13777420Y-10693698D02*
X13786943Y-10684174D01*
X13786943Y-10684174D02*
X13805991Y-10674650D01*
X13805991Y-10674650D02*
X13834563Y-10674650D01*
X13834563Y-10674650D02*
X13853610Y-10684174D01*
X13853610Y-10684174D02*
X13863134Y-10703222D01*
X13863134Y-10703222D02*
X13863134Y-10807984D01*
X13863134Y-10703222D02*
X13872658Y-10684174D01*
X13872658Y-10684174D02*
X13891705Y-10674650D01*
X13891705Y-10674650D02*
X13920277Y-10674650D01*
X13920277Y-10674650D02*
X13939324Y-10684174D01*
X13939324Y-10684174D02*
X13948848Y-10703222D01*
X13948848Y-10703222D02*
X13948848Y-10807984D01*
X14044086Y-10807984D02*
X14044086Y-10674650D01*
X14044086Y-10693698D02*
X14053610Y-10684174D01*
X14053610Y-10684174D02*
X14072658Y-10674650D01*
X14072658Y-10674650D02*
X14101229Y-10674650D01*
X14101229Y-10674650D02*
X14120277Y-10684174D01*
X14120277Y-10684174D02*
X14129801Y-10703222D01*
X14129801Y-10703222D02*
X14129801Y-10807984D01*
X14129801Y-10703222D02*
X14139324Y-10684174D01*
X14139324Y-10684174D02*
X14158372Y-10674650D01*
X14158372Y-10674650D02*
X14186943Y-10674650D01*
X14186943Y-10674650D02*
X14205991Y-10684174D01*
X14205991Y-10684174D02*
X14215515Y-10703222D01*
X14215515Y-10703222D02*
X14215515Y-10807984D01*
X14605991Y-10598460D02*
X14434563Y-10855603D01*
X14863134Y-10607984D02*
X14882182Y-10607984D01*
X14882182Y-10607984D02*
X14901229Y-10617508D01*
X14901229Y-10617508D02*
X14910753Y-10627031D01*
X14910753Y-10627031D02*
X14920277Y-10646079D01*
X14920277Y-10646079D02*
X14929801Y-10684174D01*
X14929801Y-10684174D02*
X14929801Y-10731793D01*
X14929801Y-10731793D02*
X14920277Y-10769889D01*
X14920277Y-10769889D02*
X14910753Y-10788936D01*
X14910753Y-10788936D02*
X14901229Y-10798460D01*
X14901229Y-10798460D02*
X14882182Y-10807984D01*
X14882182Y-10807984D02*
X14863134Y-10807984D01*
X14863134Y-10807984D02*
X14844086Y-10798460D01*
X14844086Y-10798460D02*
X14834563Y-10788936D01*
X14834563Y-10788936D02*
X14825039Y-10769889D01*
X14825039Y-10769889D02*
X14815515Y-10731793D01*
X14815515Y-10731793D02*
X14815515Y-10684174D01*
X14815515Y-10684174D02*
X14825039Y-10646079D01*
X14825039Y-10646079D02*
X14834563Y-10627031D01*
X14834563Y-10627031D02*
X14844086Y-10617508D01*
X14844086Y-10617508D02*
X14863134Y-10607984D01*
X15015515Y-10788936D02*
X15025039Y-10798460D01*
X15025039Y-10798460D02*
X15015515Y-10807984D01*
X15015515Y-10807984D02*
X15005991Y-10798460D01*
X15005991Y-10798460D02*
X15015515Y-10788936D01*
X15015515Y-10788936D02*
X15015515Y-10807984D01*
X15148848Y-10607984D02*
X15167896Y-10607984D01*
X15167896Y-10607984D02*
X15186944Y-10617508D01*
X15186944Y-10617508D02*
X15196467Y-10627031D01*
X15196467Y-10627031D02*
X15205991Y-10646079D01*
X15205991Y-10646079D02*
X15215515Y-10684174D01*
X15215515Y-10684174D02*
X15215515Y-10731793D01*
X15215515Y-10731793D02*
X15205991Y-10769889D01*
X15205991Y-10769889D02*
X15196467Y-10788936D01*
X15196467Y-10788936D02*
X15186944Y-10798460D01*
X15186944Y-10798460D02*
X15167896Y-10807984D01*
X15167896Y-10807984D02*
X15148848Y-10807984D01*
X15148848Y-10807984D02*
X15129801Y-10798460D01*
X15129801Y-10798460D02*
X15120277Y-10788936D01*
X15120277Y-10788936D02*
X15110753Y-10769889D01*
X15110753Y-10769889D02*
X15101229Y-10731793D01*
X15101229Y-10731793D02*
X15101229Y-10684174D01*
X15101229Y-10684174D02*
X15110753Y-10646079D01*
X15110753Y-10646079D02*
X15120277Y-10627031D01*
X15120277Y-10627031D02*
X15129801Y-10617508D01*
X15129801Y-10617508D02*
X15148848Y-10607984D01*
X15282182Y-10607984D02*
X15405991Y-10607984D01*
X15405991Y-10607984D02*
X15339325Y-10684174D01*
X15339325Y-10684174D02*
X15367896Y-10684174D01*
X15367896Y-10684174D02*
X15386944Y-10693698D01*
X15386944Y-10693698D02*
X15396467Y-10703222D01*
X15396467Y-10703222D02*
X15405991Y-10722270D01*
X15405991Y-10722270D02*
X15405991Y-10769889D01*
X15405991Y-10769889D02*
X15396467Y-10788936D01*
X15396467Y-10788936D02*
X15386944Y-10798460D01*
X15386944Y-10798460D02*
X15367896Y-10807984D01*
X15367896Y-10807984D02*
X15310753Y-10807984D01*
X15310753Y-10807984D02*
X15291706Y-10798460D01*
X15291706Y-10798460D02*
X15282182Y-10788936D01*
X15501229Y-10807984D02*
X15539325Y-10807984D01*
X15539325Y-10807984D02*
X15558372Y-10798460D01*
X15558372Y-10798460D02*
X15567896Y-10788936D01*
X15567896Y-10788936D02*
X15586944Y-10760365D01*
X15586944Y-10760365D02*
X15596467Y-10722270D01*
X15596467Y-10722270D02*
X15596467Y-10646079D01*
X15596467Y-10646079D02*
X15586944Y-10627031D01*
X15586944Y-10627031D02*
X15577420Y-10617508D01*
X15577420Y-10617508D02*
X15558372Y-10607984D01*
X15558372Y-10607984D02*
X15520277Y-10607984D01*
X15520277Y-10607984D02*
X15501229Y-10617508D01*
X15501229Y-10617508D02*
X15491706Y-10627031D01*
X15491706Y-10627031D02*
X15482182Y-10646079D01*
X15482182Y-10646079D02*
X15482182Y-10693698D01*
X15482182Y-10693698D02*
X15491706Y-10712746D01*
X15491706Y-10712746D02*
X15501229Y-10722270D01*
X15501229Y-10722270D02*
X15520277Y-10731793D01*
X15520277Y-10731793D02*
X15558372Y-10731793D01*
X15558372Y-10731793D02*
X15577420Y-10722270D01*
X15577420Y-10722270D02*
X15586944Y-10712746D01*
X15586944Y-10712746D02*
X15596467Y-10693698D01*
X15720277Y-10607984D02*
X15739325Y-10607984D01*
X15739325Y-10607984D02*
X15758372Y-10617508D01*
X15758372Y-10617508D02*
X15767896Y-10627031D01*
X15767896Y-10627031D02*
X15777420Y-10646079D01*
X15777420Y-10646079D02*
X15786944Y-10684174D01*
X15786944Y-10684174D02*
X15786944Y-10731793D01*
X15786944Y-10731793D02*
X15777420Y-10769889D01*
X15777420Y-10769889D02*
X15767896Y-10788936D01*
X15767896Y-10788936D02*
X15758372Y-10798460D01*
X15758372Y-10798460D02*
X15739325Y-10807984D01*
X15739325Y-10807984D02*
X15720277Y-10807984D01*
X15720277Y-10807984D02*
X15701229Y-10798460D01*
X15701229Y-10798460D02*
X15691706Y-10788936D01*
X15691706Y-10788936D02*
X15682182Y-10769889D01*
X15682182Y-10769889D02*
X15672658Y-10731793D01*
X15672658Y-10731793D02*
X15672658Y-10684174D01*
X15672658Y-10684174D02*
X15682182Y-10646079D01*
X15682182Y-10646079D02*
X15691706Y-10627031D01*
X15691706Y-10627031D02*
X15701229Y-10617508D01*
X15701229Y-10617508D02*
X15720277Y-10607984D01*
X15863134Y-10607984D02*
X15863134Y-10646079D01*
X15939325Y-10607984D02*
X15939325Y-10646079D01*
X16234563Y-10884174D02*
X16225039Y-10874650D01*
X16225039Y-10874650D02*
X16205991Y-10846079D01*
X16205991Y-10846079D02*
X16196468Y-10827031D01*
X16196468Y-10827031D02*
X16186944Y-10798460D01*
X16186944Y-10798460D02*
X16177420Y-10750841D01*
X16177420Y-10750841D02*
X16177420Y-10712746D01*
X16177420Y-10712746D02*
X16186944Y-10665127D01*
X16186944Y-10665127D02*
X16196468Y-10636555D01*
X16196468Y-10636555D02*
X16205991Y-10617508D01*
X16205991Y-10617508D02*
X16225039Y-10588936D01*
X16225039Y-10588936D02*
X16234563Y-10579412D01*
X16291706Y-10607984D02*
X16415515Y-10607984D01*
X16415515Y-10607984D02*
X16348848Y-10684174D01*
X16348848Y-10684174D02*
X16377420Y-10684174D01*
X16377420Y-10684174D02*
X16396468Y-10693698D01*
X16396468Y-10693698D02*
X16405991Y-10703222D01*
X16405991Y-10703222D02*
X16415515Y-10722270D01*
X16415515Y-10722270D02*
X16415515Y-10769889D01*
X16415515Y-10769889D02*
X16405991Y-10788936D01*
X16405991Y-10788936D02*
X16396468Y-10798460D01*
X16396468Y-10798460D02*
X16377420Y-10807984D01*
X16377420Y-10807984D02*
X16320277Y-10807984D01*
X16320277Y-10807984D02*
X16301229Y-10798460D01*
X16301229Y-10798460D02*
X16291706Y-10788936D01*
X16653610Y-10807984D02*
X16653610Y-10607984D01*
X16739325Y-10807984D02*
X16739325Y-10703222D01*
X16739325Y-10703222D02*
X16729801Y-10684174D01*
X16729801Y-10684174D02*
X16710753Y-10674650D01*
X16710753Y-10674650D02*
X16682182Y-10674650D01*
X16682182Y-10674650D02*
X16663134Y-10684174D01*
X16663134Y-10684174D02*
X16653610Y-10693698D01*
X16863134Y-10807984D02*
X16844087Y-10798460D01*
X16844087Y-10798460D02*
X16834563Y-10788936D01*
X16834563Y-10788936D02*
X16825039Y-10769889D01*
X16825039Y-10769889D02*
X16825039Y-10712746D01*
X16825039Y-10712746D02*
X16834563Y-10693698D01*
X16834563Y-10693698D02*
X16844087Y-10684174D01*
X16844087Y-10684174D02*
X16863134Y-10674650D01*
X16863134Y-10674650D02*
X16891706Y-10674650D01*
X16891706Y-10674650D02*
X16910753Y-10684174D01*
X16910753Y-10684174D02*
X16920277Y-10693698D01*
X16920277Y-10693698D02*
X16929801Y-10712746D01*
X16929801Y-10712746D02*
X16929801Y-10769889D01*
X16929801Y-10769889D02*
X16920277Y-10788936D01*
X16920277Y-10788936D02*
X16910753Y-10798460D01*
X16910753Y-10798460D02*
X16891706Y-10807984D01*
X16891706Y-10807984D02*
X16863134Y-10807984D01*
X17044087Y-10807984D02*
X17025039Y-10798460D01*
X17025039Y-10798460D02*
X17015515Y-10779412D01*
X17015515Y-10779412D02*
X17015515Y-10607984D01*
X17196468Y-10798460D02*
X17177420Y-10807984D01*
X17177420Y-10807984D02*
X17139325Y-10807984D01*
X17139325Y-10807984D02*
X17120277Y-10798460D01*
X17120277Y-10798460D02*
X17110753Y-10779412D01*
X17110753Y-10779412D02*
X17110753Y-10703222D01*
X17110753Y-10703222D02*
X17120277Y-10684174D01*
X17120277Y-10684174D02*
X17139325Y-10674650D01*
X17139325Y-10674650D02*
X17177420Y-10674650D01*
X17177420Y-10674650D02*
X17196468Y-10684174D01*
X17196468Y-10684174D02*
X17205992Y-10703222D01*
X17205992Y-10703222D02*
X17205992Y-10722270D01*
X17205992Y-10722270D02*
X17110753Y-10741317D01*
X17282182Y-10798460D02*
X17301230Y-10807984D01*
X17301230Y-10807984D02*
X17339325Y-10807984D01*
X17339325Y-10807984D02*
X17358373Y-10798460D01*
X17358373Y-10798460D02*
X17367896Y-10779412D01*
X17367896Y-10779412D02*
X17367896Y-10769889D01*
X17367896Y-10769889D02*
X17358373Y-10750841D01*
X17358373Y-10750841D02*
X17339325Y-10741317D01*
X17339325Y-10741317D02*
X17310753Y-10741317D01*
X17310753Y-10741317D02*
X17291706Y-10731793D01*
X17291706Y-10731793D02*
X17282182Y-10712746D01*
X17282182Y-10712746D02*
X17282182Y-10703222D01*
X17282182Y-10703222D02*
X17291706Y-10684174D01*
X17291706Y-10684174D02*
X17310753Y-10674650D01*
X17310753Y-10674650D02*
X17339325Y-10674650D01*
X17339325Y-10674650D02*
X17358373Y-10684174D01*
X17434563Y-10884174D02*
X17444087Y-10874650D01*
X17444087Y-10874650D02*
X17463134Y-10846079D01*
X17463134Y-10846079D02*
X17472658Y-10827031D01*
X17472658Y-10827031D02*
X17482182Y-10798460D01*
X17482182Y-10798460D02*
X17491706Y-10750841D01*
X17491706Y-10750841D02*
X17491706Y-10712746D01*
X17491706Y-10712746D02*
X17482182Y-10665127D01*
X17482182Y-10665127D02*
X17472658Y-10636555D01*
X17472658Y-10636555D02*
X17463134Y-10617508D01*
X17463134Y-10617508D02*
X17444087Y-10588936D01*
X17444087Y-10588936D02*
X17434563Y-10579412D01*
X17796468Y-10884174D02*
X17786944Y-10874650D01*
X17786944Y-10874650D02*
X17767896Y-10846079D01*
X17767896Y-10846079D02*
X17758373Y-10827031D01*
X17758373Y-10827031D02*
X17748849Y-10798460D01*
X17748849Y-10798460D02*
X17739325Y-10750841D01*
X17739325Y-10750841D02*
X17739325Y-10712746D01*
X17739325Y-10712746D02*
X17748849Y-10665127D01*
X17748849Y-10665127D02*
X17758373Y-10636555D01*
X17758373Y-10636555D02*
X17767896Y-10617508D01*
X17767896Y-10617508D02*
X17786944Y-10588936D01*
X17786944Y-10588936D02*
X17796468Y-10579412D01*
X17872658Y-10674650D02*
X17872658Y-10807984D01*
X17872658Y-10693698D02*
X17882182Y-10684174D01*
X17882182Y-10684174D02*
X17901230Y-10674650D01*
X17901230Y-10674650D02*
X17929801Y-10674650D01*
X17929801Y-10674650D02*
X17948849Y-10684174D01*
X17948849Y-10684174D02*
X17958373Y-10703222D01*
X17958373Y-10703222D02*
X17958373Y-10807984D01*
X18082182Y-10807984D02*
X18063134Y-10798460D01*
X18063134Y-10798460D02*
X18053611Y-10788936D01*
X18053611Y-10788936D02*
X18044087Y-10769889D01*
X18044087Y-10769889D02*
X18044087Y-10712746D01*
X18044087Y-10712746D02*
X18053611Y-10693698D01*
X18053611Y-10693698D02*
X18063134Y-10684174D01*
X18063134Y-10684174D02*
X18082182Y-10674650D01*
X18082182Y-10674650D02*
X18110754Y-10674650D01*
X18110754Y-10674650D02*
X18129801Y-10684174D01*
X18129801Y-10684174D02*
X18139325Y-10693698D01*
X18139325Y-10693698D02*
X18148849Y-10712746D01*
X18148849Y-10712746D02*
X18148849Y-10769889D01*
X18148849Y-10769889D02*
X18139325Y-10788936D01*
X18139325Y-10788936D02*
X18129801Y-10798460D01*
X18129801Y-10798460D02*
X18110754Y-10807984D01*
X18110754Y-10807984D02*
X18082182Y-10807984D01*
X18205992Y-10674650D02*
X18282182Y-10674650D01*
X18234563Y-10607984D02*
X18234563Y-10779412D01*
X18234563Y-10779412D02*
X18244087Y-10798460D01*
X18244087Y-10798460D02*
X18263134Y-10807984D01*
X18263134Y-10807984D02*
X18282182Y-10807984D01*
X18501230Y-10674650D02*
X18501230Y-10874650D01*
X18501230Y-10684174D02*
X18520277Y-10674650D01*
X18520277Y-10674650D02*
X18558373Y-10674650D01*
X18558373Y-10674650D02*
X18577420Y-10684174D01*
X18577420Y-10684174D02*
X18586944Y-10693698D01*
X18586944Y-10693698D02*
X18596468Y-10712746D01*
X18596468Y-10712746D02*
X18596468Y-10769889D01*
X18596468Y-10769889D02*
X18586944Y-10788936D01*
X18586944Y-10788936D02*
X18577420Y-10798460D01*
X18577420Y-10798460D02*
X18558373Y-10807984D01*
X18558373Y-10807984D02*
X18520277Y-10807984D01*
X18520277Y-10807984D02*
X18501230Y-10798460D01*
X18710754Y-10807984D02*
X18691706Y-10798460D01*
X18691706Y-10798460D02*
X18682182Y-10779412D01*
X18682182Y-10779412D02*
X18682182Y-10607984D01*
X18872658Y-10807984D02*
X18872658Y-10703222D01*
X18872658Y-10703222D02*
X18863135Y-10684174D01*
X18863135Y-10684174D02*
X18844087Y-10674650D01*
X18844087Y-10674650D02*
X18805992Y-10674650D01*
X18805992Y-10674650D02*
X18786944Y-10684174D01*
X18872658Y-10798460D02*
X18853611Y-10807984D01*
X18853611Y-10807984D02*
X18805992Y-10807984D01*
X18805992Y-10807984D02*
X18786944Y-10798460D01*
X18786944Y-10798460D02*
X18777420Y-10779412D01*
X18777420Y-10779412D02*
X18777420Y-10760365D01*
X18777420Y-10760365D02*
X18786944Y-10741317D01*
X18786944Y-10741317D02*
X18805992Y-10731793D01*
X18805992Y-10731793D02*
X18853611Y-10731793D01*
X18853611Y-10731793D02*
X18872658Y-10722270D01*
X18939325Y-10674650D02*
X19015515Y-10674650D01*
X18967896Y-10607984D02*
X18967896Y-10779412D01*
X18967896Y-10779412D02*
X18977420Y-10798460D01*
X18977420Y-10798460D02*
X18996468Y-10807984D01*
X18996468Y-10807984D02*
X19015515Y-10807984D01*
X19158373Y-10798460D02*
X19139325Y-10807984D01*
X19139325Y-10807984D02*
X19101230Y-10807984D01*
X19101230Y-10807984D02*
X19082182Y-10798460D01*
X19082182Y-10798460D02*
X19072658Y-10779412D01*
X19072658Y-10779412D02*
X19072658Y-10703222D01*
X19072658Y-10703222D02*
X19082182Y-10684174D01*
X19082182Y-10684174D02*
X19101230Y-10674650D01*
X19101230Y-10674650D02*
X19139325Y-10674650D01*
X19139325Y-10674650D02*
X19158373Y-10684174D01*
X19158373Y-10684174D02*
X19167896Y-10703222D01*
X19167896Y-10703222D02*
X19167896Y-10722270D01*
X19167896Y-10722270D02*
X19072658Y-10741317D01*
X19339325Y-10807984D02*
X19339325Y-10607984D01*
X19339325Y-10798460D02*
X19320277Y-10807984D01*
X19320277Y-10807984D02*
X19282182Y-10807984D01*
X19282182Y-10807984D02*
X19263135Y-10798460D01*
X19263135Y-10798460D02*
X19253611Y-10788936D01*
X19253611Y-10788936D02*
X19244087Y-10769889D01*
X19244087Y-10769889D02*
X19244087Y-10712746D01*
X19244087Y-10712746D02*
X19253611Y-10693698D01*
X19253611Y-10693698D02*
X19263135Y-10684174D01*
X19263135Y-10684174D02*
X19282182Y-10674650D01*
X19282182Y-10674650D02*
X19320277Y-10674650D01*
X19320277Y-10674650D02*
X19339325Y-10684174D01*
X19415516Y-10884174D02*
X19425039Y-10874650D01*
X19425039Y-10874650D02*
X19444087Y-10846079D01*
X19444087Y-10846079D02*
X19453611Y-10827031D01*
X19453611Y-10827031D02*
X19463135Y-10798460D01*
X19463135Y-10798460D02*
X19472658Y-10750841D01*
X19472658Y-10750841D02*
X19472658Y-10712746D01*
X19472658Y-10712746D02*
X19463135Y-10665127D01*
X19463135Y-10665127D02*
X19453611Y-10636555D01*
X19453611Y-10636555D02*
X19444087Y-10617508D01*
X19444087Y-10617508D02*
X19425039Y-10588936D01*
X19425039Y-10588936D02*
X19415516Y-10579412D01*
M02*
