M48
; DRILL file {KiCad 8.0.6} date 2025-07-21T23:46:48+0200
; FORMAT={-:-/ absolute / metric / decimal}
; #@! TF.CreationDate,2025-07-21T23:46:48+02:00
; #@! TF.GenerationSoftware,Kicad,Pcbnew,8.0.6
; #@! TF.FileFunction,Plated,1,4,PTH
FMAT,2
METRIC
; #@! TA.AperFunction,Plated,PTH,ViaDrill
T1C0.300
; #@! TA.AperFunction,Plated,PTH,ComponentDrill
T2C0.650
%
G90
G05
T1
X128.125Y-84.4
X129.375Y-92.125
X129.6Y-80.225
X129.75Y-82.0
X129.76Y-82.65
X129.77Y-83.27
X129.77Y-83.95
X129.78Y-84.61
X129.98Y-90.74
X130.37Y-82.02
X130.375Y-85.205
X130.7Y-93.175
X130.915Y-85.745
X131.0Y-82.0
X131.19Y-90.24
X131.53Y-86.36
X131.625Y-80.175
X131.75Y-82.0
X131.88Y-94.14
X132.25Y-86.64
X132.5Y-82.0
X132.98Y-86.63
X133.05Y-79.5
X133.15Y-82.0
X133.56Y-93.36
X133.61Y-86.63
X133.67Y-88.22
X134.0Y-82.0
X134.185Y-79.147
X134.22Y-86.61
X134.5Y-82.5
X134.62Y-85.45
X134.63Y-86.15
X134.85Y-75.0
X134.9Y-80.75
X135.625Y-76.517
X136.23Y-94.13
X136.74Y-80.86
X136.76Y-81.44
X136.825Y-73.65
X137.2Y-95.075
X137.2Y-96.225
X137.2Y-98.975
X137.275Y-97.45
X137.3Y-80.85
X137.3Y-82.38
X137.31Y-81.43
X137.43Y-87.7
X137.43Y-88.4
X137.47Y-85.39
X137.825Y-73.675
X137.89Y-82.36
X137.92Y-81.76
X138.0Y-79.125
X138.16Y-89.87
X138.17Y-90.45
X138.5Y-97.8
X138.675Y-76.85
X139.12Y-90.44
X139.38Y-97.73
X139.725Y-72.475
X140.03Y-94.72
X140.12Y-93.65
X140.53Y-82.05
X140.79Y-99.34
X140.82Y-74.03
X140.875Y-86.4
X140.99Y-89.61
X141.07Y-75.45
X141.1Y-81.73
X141.35Y-96.87
X141.55Y-89.22
X141.55Y-90.23
X141.855Y-83.925
X141.98Y-96.679
X142.02Y-99.82
X142.03Y-89.75
X142.43Y-82.93
X142.82Y-99.8
X142.84Y-96.659
X143.245Y-77.93
X143.46Y-94.27
X143.505Y-84.1
X143.51Y-96.87
X143.635Y-90.39
X144.0Y-87.1
X144.05Y-99.34
X144.19Y-90.01
X144.79Y-87.77
X145.02Y-96.89
X145.18Y-97.729
X145.35Y-83.51
X145.87Y-83.9
X145.937Y-82.321
X145.97Y-83.02
X145.99Y-91.81
X146.0Y-92.46
X146.07Y-90.52
X146.075Y-85.9
X146.08Y-89.92
X146.08Y-91.12
X146.74Y-80.54
X146.74Y-90.96
X146.75Y-81.17
X146.75Y-81.76
X147.4Y-80.54
X147.41Y-81.77
X147.42Y-81.16
X149.13Y-96.99
X149.14Y-80.45
X149.22Y-90.96
X149.22Y-91.69
X149.4Y-75.475
X149.65Y-77.1
X149.77Y-91.7
X149.81Y-90.96
X150.32Y-91.71
X150.47Y-80.44
X150.61Y-88.29
X150.95Y-95.25
X151.05Y-76.86
X152.05Y-84.1
X152.1Y-80.77
X152.21Y-85.63
X152.84Y-80.79
X154.1Y-89.775
X154.6Y-84.6
T2
X128.38Y-88.47
X128.38Y-89.74
X131.49Y-77.278
X131.49Y-78.547
X134.29Y-97.525
X135.56Y-97.525
X138.53Y-96.14
X139.8Y-96.14
X141.755Y-72.63
X143.025Y-72.63
X145.435Y-73.97
X146.705Y-73.97
X149.215Y-81.49
X150.485Y-81.49
X152.305Y-77.705
X152.305Y-78.975
X155.015Y-86.035
X155.015Y-87.305
M30
