G04 #@! TF.GenerationSoftware,KiCad,Pcbnew,8.0.6*
G04 #@! TF.CreationDate,2025-07-21T23:46:33+02:00*
G04 #@! TF.ProjectId,STM32,53544d33-322e-46b6-9963-61645f706362,rev?*
G04 #@! TF.SameCoordinates,Original*
G04 #@! TF.FileFunction,Copper,L1,Top*
G04 #@! TF.FilePolarity,Positive*
%FSLAX46Y46*%
G04 Gerber Fmt 4.6, Leading zero omitted, Abs format (unit mm)*
G04 Created by KiCad (PCBNEW 8.0.6) date 2025-07-21 23:46:33*
%MOMM*%
%LPD*%
G01*
G04 APERTURE LIST*
G04 Aperture macros list*
%AMRoundRect*
0 Rectangle with rounded corners*
0 $1 Rounding radius*
0 $2 $3 $4 $5 $6 $7 $8 $9 X,Y pos of 4 corners*
0 Add a 4 corners polygon primitive as box body*
4,1,4,$2,$3,$4,$5,$6,$7,$8,$9,$2,$3,0*
0 Add four circle primitives for the rounded corners*
1,1,$1+$1,$2,$3*
1,1,$1+$1,$4,$5*
1,1,$1+$1,$6,$7*
1,1,$1+$1,$8,$9*
0 Add four rect primitives between the rounded corners*
20,1,$1+$1,$2,$3,$4,$5,0*
20,1,$1+$1,$4,$5,$6,$7,0*
20,1,$1+$1,$6,$7,$8,$9,0*
20,1,$1+$1,$8,$9,$2,$3,0*%
G04 Aperture macros list end*
G04 #@! TA.AperFunction,SMDPad,CuDef*
%ADD10RoundRect,0.140000X0.140000X0.170000X-0.140000X0.170000X-0.140000X-0.170000X0.140000X-0.170000X0*%
G04 #@! TD*
G04 #@! TA.AperFunction,SMDPad,CuDef*
%ADD11RoundRect,0.140000X-0.170000X0.140000X-0.170000X-0.140000X0.170000X-0.140000X0.170000X0.140000X0*%
G04 #@! TD*
G04 #@! TA.AperFunction,SMDPad,CuDef*
%ADD12RoundRect,0.140000X-0.140000X-0.170000X0.140000X-0.170000X0.140000X0.170000X-0.140000X0.170000X0*%
G04 #@! TD*
G04 #@! TA.AperFunction,SMDPad,CuDef*
%ADD13RoundRect,0.200000X0.200000X0.275000X-0.200000X0.275000X-0.200000X-0.275000X0.200000X-0.275000X0*%
G04 #@! TD*
G04 #@! TA.AperFunction,SMDPad,CuDef*
%ADD14R,1.250000X0.500000*%
G04 #@! TD*
G04 #@! TA.AperFunction,SMDPad,CuDef*
%ADD15R,0.304800X0.711200*%
G04 #@! TD*
G04 #@! TA.AperFunction,SMDPad,CuDef*
%ADD16R,1.092200X0.508000*%
G04 #@! TD*
G04 #@! TA.AperFunction,SMDPad,CuDef*
%ADD17R,0.990600X0.736600*%
G04 #@! TD*
G04 #@! TA.AperFunction,SMDPad,CuDef*
%ADD18RoundRect,0.075000X-0.700000X-0.075000X0.700000X-0.075000X0.700000X0.075000X-0.700000X0.075000X0*%
G04 #@! TD*
G04 #@! TA.AperFunction,SMDPad,CuDef*
%ADD19RoundRect,0.075000X-0.075000X-0.700000X0.075000X-0.700000X0.075000X0.700000X-0.075000X0.700000X0*%
G04 #@! TD*
G04 #@! TA.AperFunction,SMDPad,CuDef*
%ADD20R,0.500000X1.250000*%
G04 #@! TD*
G04 #@! TA.AperFunction,ComponentPad*
%ADD21R,1.000000X1.000000*%
G04 #@! TD*
G04 #@! TA.AperFunction,ComponentPad*
%ADD22O,1.000000X1.000000*%
G04 #@! TD*
G04 #@! TA.AperFunction,SMDPad,CuDef*
%ADD23RoundRect,0.135000X0.135000X0.185000X-0.135000X0.185000X-0.135000X-0.185000X0.135000X-0.185000X0*%
G04 #@! TD*
G04 #@! TA.AperFunction,SMDPad,CuDef*
%ADD24RoundRect,0.140000X0.170000X-0.140000X0.170000X0.140000X-0.170000X0.140000X-0.170000X-0.140000X0*%
G04 #@! TD*
G04 #@! TA.AperFunction,SMDPad,CuDef*
%ADD25RoundRect,0.218750X0.256250X-0.218750X0.256250X0.218750X-0.256250X0.218750X-0.256250X-0.218750X0*%
G04 #@! TD*
G04 #@! TA.AperFunction,SMDPad,CuDef*
%ADD26RoundRect,0.135000X-0.185000X0.135000X-0.185000X-0.135000X0.185000X-0.135000X0.185000X0.135000X0*%
G04 #@! TD*
G04 #@! TA.AperFunction,SMDPad,CuDef*
%ADD27RoundRect,0.218750X-0.218750X-0.256250X0.218750X-0.256250X0.218750X0.256250X-0.218750X0.256250X0*%
G04 #@! TD*
G04 #@! TA.AperFunction,SMDPad,CuDef*
%ADD28RoundRect,0.135000X0.185000X-0.135000X0.185000X0.135000X-0.185000X0.135000X-0.185000X-0.135000X0*%
G04 #@! TD*
G04 #@! TA.AperFunction,SMDPad,CuDef*
%ADD29RoundRect,0.135000X-0.135000X-0.185000X0.135000X-0.185000X0.135000X0.185000X-0.135000X0.185000X0*%
G04 #@! TD*
G04 #@! TA.AperFunction,ViaPad*
%ADD30C,0.450000*%
G04 #@! TD*
G04 #@! TA.AperFunction,ViaPad*
%ADD31C,0.500000*%
G04 #@! TD*
G04 #@! TA.AperFunction,ViaPad*
%ADD32C,0.400000*%
G04 #@! TD*
G04 #@! TA.AperFunction,ViaPad*
%ADD33C,0.600000*%
G04 #@! TD*
G04 #@! TA.AperFunction,Conductor*
%ADD34C,0.300000*%
G04 #@! TD*
G04 #@! TA.AperFunction,Conductor*
%ADD35C,0.250000*%
G04 #@! TD*
G04 #@! TA.AperFunction,Conductor*
%ADD36C,0.200000*%
G04 #@! TD*
G04 #@! TA.AperFunction,Conductor*
%ADD37C,0.500000*%
G04 #@! TD*
G04 APERTURE END LIST*
D10*
X139400000Y-94580000D03*
X138440000Y-94580000D03*
D11*
X130566399Y-83005000D03*
X130566399Y-83965000D03*
D12*
X134510000Y-96090000D03*
X135470000Y-96090000D03*
D13*
X153710000Y-83260000D03*
X152060000Y-83260000D03*
D14*
X134195000Y-76527500D03*
X134195000Y-77477500D03*
X134195000Y-78427500D03*
X136695000Y-78427500D03*
X136695000Y-76527500D03*
D11*
X129830000Y-88540000D03*
X129830000Y-89500000D03*
D15*
X142830049Y-97730699D03*
X142029949Y-97730697D03*
X142029951Y-99229301D03*
X142830051Y-99229303D03*
D16*
X142430000Y-98480000D03*
D17*
X131782798Y-82960000D03*
X131782799Y-84690000D03*
X133510000Y-84690000D03*
X133509999Y-82960000D03*
D18*
X135995000Y-82390000D03*
X135995000Y-82890000D03*
X135995000Y-83390000D03*
X135995000Y-83890000D03*
X135995000Y-84390000D03*
X135995000Y-84890000D03*
X135995000Y-85390000D03*
X135995000Y-85890000D03*
X135995000Y-86390000D03*
X135995000Y-86890000D03*
X135995000Y-87390000D03*
X135995000Y-87890000D03*
X135995000Y-88390000D03*
X135995000Y-88890000D03*
X135995000Y-89390000D03*
X135995000Y-89890000D03*
D19*
X137920000Y-91815000D03*
X138420000Y-91815000D03*
X138920000Y-91815000D03*
X139420000Y-91815000D03*
X139920000Y-91815000D03*
X140420000Y-91815000D03*
X140920000Y-91815000D03*
X141420000Y-91815000D03*
X141920000Y-91815000D03*
X142420000Y-91815000D03*
X142920000Y-91815000D03*
X143420000Y-91815000D03*
X143920000Y-91815000D03*
X144420000Y-91815000D03*
X144920000Y-91815000D03*
X145420000Y-91815000D03*
D18*
X147345000Y-89890000D03*
X147345000Y-89390000D03*
X147345000Y-88890000D03*
X147345000Y-88390000D03*
X147345000Y-87890000D03*
X147345000Y-87390000D03*
X147345000Y-86890000D03*
X147345000Y-86390000D03*
X147345000Y-85890000D03*
X147345000Y-85390000D03*
X147345000Y-84890000D03*
X147345000Y-84390000D03*
X147345000Y-83890000D03*
X147345000Y-83390000D03*
X147345000Y-82890000D03*
X147345000Y-82390000D03*
D19*
X145420000Y-80465000D03*
X144920000Y-80465000D03*
X144420000Y-80465000D03*
X143920000Y-80465000D03*
X143420000Y-80465000D03*
X142920000Y-80465000D03*
X142420000Y-80465000D03*
X141920000Y-80465000D03*
X141420000Y-80465000D03*
X140920000Y-80465000D03*
X140420000Y-80465000D03*
X139920000Y-80465000D03*
X139420000Y-80465000D03*
X138920000Y-80465000D03*
X138420000Y-80465000D03*
X137920000Y-80465000D03*
D20*
X143809996Y-75430004D03*
X142859998Y-75430002D03*
X141909996Y-75430001D03*
X141910000Y-77930000D03*
X143810000Y-77930003D03*
D10*
X139390000Y-93660000D03*
X138430000Y-93660000D03*
D21*
X134290000Y-97525000D03*
D22*
X135560001Y-97525000D03*
D23*
X151340000Y-84970001D03*
X150320000Y-84969999D03*
D14*
X149639998Y-79709998D03*
X149640000Y-78760000D03*
X149640001Y-77809999D03*
X147140002Y-77810002D03*
X147139999Y-79710001D03*
D12*
X144130000Y-96130000D03*
X145090000Y-96130000D03*
D10*
X135860000Y-81410000D03*
X134900000Y-81410000D03*
D24*
X150990000Y-78770000D03*
X150990000Y-77810000D03*
X153550000Y-87289998D03*
X153550000Y-86329998D03*
D25*
X142270000Y-95177501D03*
X142270000Y-93602499D03*
D26*
X140550000Y-76890000D03*
X140550000Y-77910000D03*
D14*
X131170000Y-87550000D03*
X131170000Y-88500000D03*
X131170000Y-89450000D03*
X133670000Y-89450000D03*
X133670000Y-87550000D03*
D27*
X151194998Y-91730000D03*
X152770000Y-91730000D03*
D14*
X152209998Y-88289998D03*
X152210000Y-87340000D03*
X152210001Y-86389999D03*
X149710002Y-86390002D03*
X149709999Y-88290001D03*
D28*
X136809999Y-93280000D03*
X136810001Y-92260000D03*
D21*
X131490000Y-77277500D03*
D22*
X131490000Y-78547500D03*
D21*
X152304998Y-78975001D03*
D22*
X152304998Y-77705000D03*
D12*
X144540000Y-95180000D03*
X145500000Y-95180000D03*
D29*
X135675000Y-79817500D03*
X136695000Y-79817500D03*
D11*
X144070000Y-93300000D03*
X144070000Y-94260000D03*
D10*
X133476399Y-85835000D03*
X132516399Y-85835000D03*
D20*
X133580002Y-94749998D03*
X134530000Y-94750000D03*
X135480002Y-94750002D03*
X135479998Y-92250002D03*
X133579998Y-92249998D03*
D21*
X155014999Y-87304999D03*
D22*
X155014999Y-86034998D03*
D29*
X132670000Y-90870000D03*
X133690000Y-90870000D03*
D26*
X140789952Y-97729301D03*
X140789950Y-98749301D03*
D12*
X147550000Y-90960000D03*
X148510000Y-90960000D03*
D26*
X144049952Y-97729301D03*
X144049950Y-98749301D03*
D21*
X139800001Y-96140001D03*
D22*
X138530000Y-96140001D03*
D23*
X148140000Y-76450001D03*
X147120000Y-76449999D03*
D21*
X143024997Y-72630000D03*
D22*
X141754996Y-72630000D03*
D11*
X132855000Y-77427500D03*
X132855000Y-78387500D03*
D23*
X151962499Y-90460001D03*
X150942499Y-90459999D03*
D10*
X142850000Y-74080000D03*
X141890000Y-74080000D03*
D21*
X149215001Y-81490000D03*
D22*
X150485002Y-81490000D03*
D27*
X152097499Y-81740000D03*
X153672501Y-81740000D03*
D21*
X128380000Y-88470000D03*
D22*
X128380000Y-89740000D03*
D21*
X145434999Y-73969999D03*
D22*
X146705000Y-73969999D03*
D30*
X136230000Y-94130000D03*
X138500000Y-97800000D03*
D31*
X138000000Y-79125000D03*
X150320000Y-91710000D03*
D30*
X145990000Y-91810000D03*
X143505000Y-84100000D03*
D31*
X133150000Y-82000000D03*
D30*
X134630000Y-86150000D03*
X141350000Y-96870000D03*
D32*
X129375000Y-92125000D03*
D31*
X133050000Y-79500000D03*
D33*
X136825000Y-73650000D03*
D32*
X137200000Y-98975000D03*
D31*
X131190000Y-90240000D03*
X152210000Y-85630000D03*
X134900000Y-80750000D03*
D30*
X132980000Y-86630000D03*
D31*
X152100000Y-80770000D03*
D32*
X134850000Y-75000000D03*
D30*
X130375000Y-85205000D03*
X144000000Y-87100000D03*
D31*
X140820000Y-74030000D03*
X141550000Y-89220000D03*
X152840000Y-80790000D03*
D32*
X149400000Y-75475000D03*
D30*
X129760000Y-82650000D03*
X145020000Y-96890000D03*
X143460000Y-94270000D03*
X130915000Y-85745000D03*
X145350000Y-83510000D03*
D31*
X149220000Y-91690000D03*
D32*
X128125000Y-84400000D03*
D31*
X149810000Y-90960000D03*
D30*
X130370000Y-82020000D03*
D31*
X151050000Y-76860000D03*
X137200000Y-96225000D03*
X134000000Y-82000000D03*
D32*
X154600000Y-84600000D03*
X129600000Y-80225000D03*
D30*
X131000000Y-82000000D03*
X146000000Y-92460000D03*
X150470000Y-80440000D03*
X131750000Y-82000000D03*
X129770000Y-83270000D03*
D31*
X149770000Y-91700000D03*
D30*
X149140000Y-80450000D03*
X149130000Y-96990000D03*
D32*
X138675000Y-76850000D03*
D31*
X129980000Y-90740000D03*
X145970000Y-83020000D03*
D30*
X143510000Y-96870000D03*
D31*
X137275000Y-97450000D03*
X138170000Y-90450000D03*
D30*
X133610000Y-86630000D03*
D31*
X137430000Y-87700000D03*
D30*
X142819951Y-99800000D03*
X144190000Y-90010000D03*
X129780000Y-84610000D03*
D31*
X142030000Y-89750000D03*
X134185000Y-79147500D03*
D32*
X139725000Y-72475000D03*
D30*
X131880000Y-94140000D03*
X141100000Y-81730000D03*
X129770000Y-83950000D03*
D32*
X154100000Y-89775000D03*
D30*
X131530000Y-86360000D03*
X134500000Y-82500000D03*
X132500000Y-82000000D03*
D31*
X141070000Y-75450000D03*
D30*
X134620000Y-85450000D03*
X134220000Y-86610000D03*
D32*
X131625000Y-80175000D03*
D30*
X141855000Y-83925000D03*
D32*
X140875000Y-86400000D03*
D31*
X149220000Y-90960000D03*
D30*
X132250000Y-86640000D03*
D31*
X137200000Y-95075000D03*
D30*
X129750000Y-82000000D03*
D31*
X138160000Y-89870000D03*
X149650000Y-77100000D03*
X140120000Y-93650000D03*
X136760000Y-81440000D03*
D30*
X142019951Y-99820000D03*
D31*
X137920000Y-81760000D03*
X133560000Y-93360000D03*
X136740000Y-80860000D03*
D30*
X143635000Y-90390000D03*
D31*
X140030000Y-94720000D03*
X146740000Y-90960000D03*
X147420000Y-81160000D03*
X137300000Y-82380000D03*
X140789950Y-99340000D03*
X143244997Y-77930003D03*
D30*
X137890000Y-82360000D03*
D31*
X146070000Y-90520000D03*
X146080000Y-89920000D03*
X135625000Y-76517500D03*
X137310000Y-81430000D03*
X144049950Y-99340000D03*
X147400000Y-80540000D03*
X146740000Y-80540000D03*
D30*
X150950000Y-95250000D03*
D31*
X137430000Y-88400000D03*
D33*
X137825000Y-73675000D03*
D31*
X133670000Y-88220000D03*
D30*
X130700000Y-93175000D03*
D31*
X146750000Y-81170000D03*
X147410000Y-81770000D03*
X152050000Y-84100000D03*
X139120000Y-90440000D03*
X145936705Y-82320790D03*
X137300000Y-80850000D03*
X146080000Y-91120000D03*
X146750000Y-81760000D03*
X150609999Y-88290001D03*
D30*
X137470000Y-85390000D03*
X140530000Y-82050000D03*
X141550000Y-90230000D03*
X142839951Y-96659301D03*
X145180000Y-97729301D03*
X141979951Y-96679301D03*
X140990000Y-89610000D03*
X139380000Y-97730000D03*
X145870000Y-83900000D03*
X142430000Y-82930000D03*
X144790000Y-87770000D03*
X146075000Y-85900000D03*
D34*
X144190000Y-90010000D02*
X144420000Y-90240000D01*
X140820000Y-74030000D02*
X140870000Y-74080000D01*
X131170000Y-89450000D02*
X129880000Y-89450000D01*
D35*
X131565000Y-83965000D02*
X131782799Y-84182799D01*
D36*
X130915000Y-85745000D02*
X131530000Y-86360000D01*
X129750000Y-84580000D02*
X129780000Y-84610000D01*
D34*
X145985000Y-91815000D02*
X145990000Y-91810000D01*
X138420000Y-91815000D02*
X138420000Y-93650000D01*
D35*
X129785000Y-83965000D02*
X129770000Y-83950000D01*
D34*
X151050000Y-76860000D02*
X151050000Y-77750000D01*
D36*
X132220000Y-86610000D02*
X132250000Y-86640000D01*
X134000000Y-82000000D02*
X133150000Y-82000000D01*
D34*
X135480002Y-94750002D02*
X135480002Y-97355001D01*
D35*
X131782799Y-84182799D02*
X131782799Y-84690000D01*
D36*
X131780000Y-86610000D02*
X132220000Y-86610000D01*
D34*
X132855000Y-78387500D02*
X131650000Y-78387500D01*
X129830000Y-89500000D02*
X128620000Y-89500000D01*
X134195000Y-78427500D02*
X132895000Y-78427500D01*
X152210001Y-85630001D02*
X152210000Y-85630000D01*
D35*
X130566399Y-83965000D02*
X131565000Y-83965000D01*
D34*
X141890000Y-74080000D02*
X141890000Y-75410005D01*
D35*
X133220000Y-82670001D02*
X133220000Y-82070000D01*
D36*
X134630000Y-86150000D02*
X134630000Y-85460000D01*
X132500000Y-82000000D02*
X129750000Y-82000000D01*
D35*
X133220000Y-82070000D02*
X133150000Y-82000000D01*
X132516399Y-85835000D02*
X132005000Y-85835000D01*
D34*
X141890000Y-72765004D02*
X141890000Y-74080000D01*
D36*
X145500000Y-95720000D02*
X145500000Y-95180000D01*
D34*
X140870000Y-74080000D02*
X141890000Y-74080000D01*
D36*
X134220000Y-86610000D02*
X134630000Y-86200000D01*
D37*
X152100000Y-80770000D02*
X152100000Y-81737499D01*
D34*
X149650000Y-77100000D02*
X149650000Y-77800000D01*
X152210001Y-86389999D02*
X152210001Y-85630001D01*
D36*
X132250000Y-86640000D02*
X134190000Y-86640000D01*
D34*
X145020000Y-96890000D02*
X145020000Y-96270000D01*
X149640001Y-77809999D02*
X150989999Y-77809999D01*
D36*
X133150000Y-82000000D02*
X132500000Y-82000000D01*
D34*
X145420000Y-91815000D02*
X145985000Y-91815000D01*
X138000000Y-79125000D02*
X138420000Y-79545000D01*
X151194998Y-91730000D02*
X150340000Y-91730000D01*
X146086024Y-83020000D02*
X146216024Y-82890000D01*
X137080000Y-87700000D02*
X137430000Y-87700000D01*
D36*
X131530000Y-86360000D02*
X131780000Y-86610000D01*
D35*
X130566399Y-83965000D02*
X129785000Y-83965000D01*
X133509999Y-82960000D02*
X133220000Y-82670001D01*
D34*
X153550000Y-86329998D02*
X154719999Y-86329998D01*
D36*
X134190000Y-86640000D02*
X134220000Y-86610000D01*
X129750000Y-82000000D02*
X129750000Y-84580000D01*
X134630000Y-86200000D02*
X134630000Y-86150000D01*
D34*
X152210001Y-86389999D02*
X153489999Y-86389999D01*
X150990000Y-77810000D02*
X152199998Y-77810000D01*
X136890000Y-87890000D02*
X137080000Y-87700000D01*
X138420000Y-91815000D02*
X138420000Y-90700000D01*
X141089999Y-75430001D02*
X141909996Y-75430001D01*
X135995000Y-87890000D02*
X136890000Y-87890000D01*
X144070000Y-94270000D02*
X143460000Y-94270000D01*
X149640001Y-77109999D02*
X149650000Y-77100000D01*
X154719999Y-86329998D02*
X155014999Y-86034998D01*
D35*
X131782799Y-85612799D02*
X131782799Y-84690000D01*
D34*
X150340000Y-91730000D02*
X150320000Y-91710000D01*
X146216024Y-82890000D02*
X147345000Y-82890000D01*
X138430000Y-93660000D02*
X138430000Y-94710000D01*
X144420000Y-90240000D02*
X144420000Y-91815000D01*
X138420000Y-79545000D02*
X138420000Y-80465000D01*
X145970000Y-83020000D02*
X146086024Y-83020000D01*
X142819951Y-99239403D02*
X142830051Y-99229303D01*
X131170000Y-90220000D02*
X131190000Y-90240000D01*
X142819951Y-99800000D02*
X142819951Y-99239403D01*
X131170000Y-89450000D02*
X131170000Y-90220000D01*
D36*
X129780000Y-84610000D02*
X130375000Y-85205000D01*
D34*
X141070000Y-75450000D02*
X141089999Y-75430001D01*
X134195000Y-78427500D02*
X134195000Y-79137500D01*
X138420000Y-90700000D02*
X138170000Y-90450000D01*
D36*
X134500000Y-82500000D02*
X134000000Y-82000000D01*
X130375000Y-85205000D02*
X130915000Y-85745000D01*
X145090000Y-96130000D02*
X145500000Y-95720000D01*
D37*
X134900000Y-81410000D02*
X134900000Y-80750000D01*
D35*
X132005000Y-85835000D02*
X131782799Y-85612799D01*
D36*
X134630000Y-85460000D02*
X134620000Y-85450000D01*
D34*
X135995000Y-82390000D02*
X137290000Y-82390000D01*
X143920000Y-91815000D02*
X143920000Y-90675000D01*
X143920000Y-91815000D02*
X143920000Y-93160000D01*
X137290000Y-82390000D02*
X137300000Y-82380000D01*
X143244997Y-77930003D02*
X143810000Y-77930003D01*
X138920000Y-91815000D02*
X138920000Y-90640000D01*
X142019951Y-99820000D02*
X142019951Y-99239301D01*
X146005915Y-82390000D02*
X145936705Y-82320790D01*
X140110000Y-93660000D02*
X140120000Y-93650000D01*
D37*
X133579998Y-92249998D02*
X133579998Y-93340002D01*
D34*
X143920000Y-93160000D02*
X144070000Y-93310000D01*
X137420000Y-88390000D02*
X137430000Y-88400000D01*
X143920000Y-90675000D02*
X143635000Y-90390000D01*
X146110000Y-89890000D02*
X146080000Y-89920000D01*
X139390000Y-93180000D02*
X139390000Y-93660000D01*
D37*
X135635000Y-76527500D02*
X135625000Y-76517500D01*
D34*
X139390000Y-94710000D02*
X139390000Y-93660000D01*
D37*
X133579998Y-93340002D02*
X133560000Y-93360000D01*
D34*
X138920000Y-90640000D02*
X139120000Y-90440000D01*
X147139999Y-79710001D02*
X147139999Y-80279999D01*
D37*
X152060000Y-84090000D02*
X152050000Y-84100000D01*
D34*
X139390000Y-93660000D02*
X140110000Y-93660000D01*
X138920000Y-92710000D02*
X139390000Y-93180000D01*
X140030000Y-94720000D02*
X139400000Y-94720000D01*
D37*
X136695000Y-76527500D02*
X135635000Y-76527500D01*
X150609999Y-88290001D02*
X149709999Y-88290001D01*
D34*
X135995000Y-88390000D02*
X137420000Y-88390000D01*
X147345000Y-89890000D02*
X146110000Y-89890000D01*
X137920000Y-80465000D02*
X137920000Y-81760000D01*
X147139999Y-80279999D02*
X147400000Y-80540000D01*
X140789950Y-99340000D02*
X140789950Y-98749301D01*
X144049950Y-99340000D02*
X144049950Y-98749301D01*
X146740000Y-90960000D02*
X147550000Y-90960000D01*
X147345000Y-82390000D02*
X146005915Y-82390000D01*
X142019951Y-99239301D02*
X142029951Y-99229301D01*
D37*
X152060000Y-83260000D02*
X152060000Y-84090000D01*
X133670000Y-88220000D02*
X133670000Y-87550000D01*
D34*
X138920000Y-91815000D02*
X138920000Y-92710000D01*
D35*
X131782798Y-82960000D02*
X130611399Y-82960000D01*
X132836399Y-83800000D02*
X132689699Y-83653300D01*
X132689699Y-83653300D02*
X132689699Y-83069699D01*
X132580000Y-82960000D02*
X131782798Y-82960000D01*
X132689699Y-83069699D02*
X132580000Y-82960000D01*
X134723600Y-84390000D02*
X134133600Y-83800000D01*
X134133600Y-83800000D02*
X132836399Y-83800000D01*
X135995000Y-84390000D02*
X134723600Y-84390000D01*
X133710000Y-84890000D02*
X135995000Y-84890000D01*
X133476399Y-85835000D02*
X133476399Y-84723601D01*
D36*
X137470000Y-85390000D02*
X135995000Y-85390000D01*
D34*
X132855000Y-77427500D02*
X131640000Y-77427500D01*
X134195000Y-77477500D02*
X132905000Y-77477500D01*
X135675000Y-78032500D02*
X135675000Y-79817500D01*
X134195000Y-77477500D02*
X135120000Y-77477500D01*
X135120000Y-77477500D02*
X135675000Y-78032500D01*
X151962499Y-90460001D02*
X152490001Y-90460001D01*
X152490001Y-90460001D02*
X152770000Y-90740000D01*
X152770000Y-90740000D02*
X152770000Y-91730000D01*
D36*
X149340000Y-83854314D02*
X149340000Y-81614999D01*
X147345000Y-84890000D02*
X148304314Y-84890000D01*
X148304314Y-84890000D02*
X149340000Y-83854314D01*
X150480000Y-81495002D02*
X150480000Y-83280000D01*
X148370000Y-85390000D02*
X147345000Y-85390000D01*
X150480000Y-83280000D02*
X148370000Y-85390000D01*
X142932499Y-93602499D02*
X142270000Y-93602499D01*
X143420000Y-91815000D02*
X143420000Y-93114998D01*
X143420000Y-93114998D02*
X142932499Y-93602499D01*
D34*
X144920000Y-79105004D02*
X146215002Y-77810002D01*
X147120000Y-76449999D02*
X147120000Y-77790000D01*
X146215002Y-77810002D02*
X147140002Y-77810002D01*
X144920000Y-80465000D02*
X144920000Y-79105004D01*
X139763120Y-78430000D02*
X140920000Y-79586880D01*
X140920000Y-79586880D02*
X140920000Y-80465000D01*
X136697500Y-78430000D02*
X139763120Y-78430000D01*
X136695000Y-79817500D02*
X136695000Y-78427500D01*
X134840000Y-90860000D02*
X135479998Y-91499998D01*
X136810001Y-92260000D02*
X135489996Y-92260000D01*
X134990000Y-89890000D02*
X134840000Y-90040000D01*
X134840000Y-90040000D02*
X134840000Y-90860000D01*
X135479998Y-91499998D02*
X135479998Y-92250002D01*
X135995000Y-89890000D02*
X134990000Y-89890000D01*
X141920000Y-80465000D02*
X141920000Y-77940000D01*
X140549999Y-77910000D02*
X141890000Y-77910000D01*
X150320000Y-84969999D02*
X149960001Y-84969999D01*
X149710002Y-85219998D02*
X149710002Y-86390002D01*
X149960001Y-84969999D02*
X149710002Y-85219998D01*
X147345000Y-87890000D02*
X148734999Y-87890000D01*
X148734999Y-87890000D02*
X149710002Y-86914997D01*
X149710002Y-86914997D02*
X149710002Y-86390002D01*
X135070000Y-88890000D02*
X134510000Y-89450000D01*
X134510000Y-89450000D02*
X133670000Y-89450000D01*
X133690000Y-90870000D02*
X133690000Y-89470000D01*
X135995000Y-88890000D02*
X135070000Y-88890000D01*
X139920000Y-81440000D02*
X140530000Y-82050000D01*
X139920000Y-80465000D02*
X139920000Y-81440000D01*
X147345000Y-89390000D02*
X150510000Y-89390000D01*
X150510000Y-89390000D02*
X150942499Y-89822499D01*
X150942499Y-89822499D02*
X150942499Y-90459999D01*
X142830049Y-97730699D02*
X144048554Y-97730699D01*
X145180000Y-97729301D02*
X144049952Y-97729301D01*
D36*
X142839951Y-96659301D02*
X142839951Y-97720797D01*
X135995000Y-86390000D02*
X137020000Y-86390000D01*
X137020000Y-86390000D02*
X140860000Y-90230000D01*
X140860000Y-90230000D02*
X141550000Y-90230000D01*
X137270000Y-85890000D02*
X140990000Y-89610000D01*
X135995000Y-85890000D02*
X137270000Y-85890000D01*
D34*
X140789952Y-97729301D02*
X142028553Y-97729301D01*
X140789952Y-97729301D02*
X139380699Y-97729301D01*
X139380699Y-97729301D02*
X139380000Y-97730000D01*
D36*
X141979951Y-96679301D02*
X141979951Y-97680699D01*
X147345000Y-83390000D02*
X146380000Y-83390000D01*
X146380000Y-83390000D02*
X145870000Y-83900000D01*
D34*
X151285000Y-87340000D02*
X152210000Y-87340000D01*
X153550000Y-87289998D02*
X154999998Y-87289998D01*
X150840000Y-86895000D02*
X151285000Y-87340000D01*
X152210000Y-87340000D02*
X153499998Y-87340000D01*
X150840000Y-85470001D02*
X150840000Y-86895000D01*
X151340000Y-84970001D02*
X150840000Y-85470001D01*
X131170000Y-88500000D02*
X132095000Y-88500000D01*
X132095000Y-88500000D02*
X132670000Y-89075000D01*
X129830000Y-88540000D02*
X128450000Y-88540000D01*
X132670000Y-89075000D02*
X132670000Y-90870000D01*
X131170000Y-88500000D02*
X129870000Y-88500000D01*
X135075000Y-93280000D02*
X134530000Y-93825000D01*
X136809999Y-93280000D02*
X135075000Y-93280000D01*
X134530000Y-94750000D02*
X134530000Y-97085000D01*
X134530000Y-97085000D02*
X134235000Y-97380000D01*
X134530000Y-93825000D02*
X134530000Y-94750000D01*
X142790000Y-76425000D02*
X142859998Y-76355002D01*
X140550000Y-76487500D02*
X140612500Y-76425000D01*
X142859998Y-75430002D02*
X142859998Y-74089998D01*
X142859998Y-76355002D02*
X142859998Y-75430002D01*
X142850000Y-74080000D02*
X142850000Y-72804997D01*
X140612500Y-76425000D02*
X142790000Y-76425000D01*
D36*
X142420000Y-82920000D02*
X142420000Y-80465000D01*
X142430000Y-82930000D02*
X142420000Y-82920000D01*
D34*
X148715000Y-78760000D02*
X148140000Y-78185000D01*
X148140000Y-78185000D02*
X148140000Y-76450001D01*
X150990000Y-78770000D02*
X152099997Y-78770000D01*
X149640000Y-78760000D02*
X148715000Y-78760000D01*
X149640000Y-78760000D02*
X150980000Y-78760000D01*
X138920000Y-80465000D02*
X138920000Y-83170000D01*
X138920000Y-83170000D02*
X144920000Y-89170000D01*
D36*
X144920000Y-94800000D02*
X144920000Y-91815000D01*
X142270000Y-95177501D02*
X144537501Y-95177501D01*
D34*
X144920000Y-89170000D02*
X144920000Y-91815000D01*
D36*
X144130000Y-96130000D02*
X144520000Y-95740000D01*
X144520000Y-95740000D02*
X144520000Y-95200000D01*
X144540000Y-95180000D02*
X144920000Y-94800000D01*
D37*
X153672501Y-81740000D02*
X153672501Y-83222501D01*
D36*
X144750000Y-82350000D02*
X144750000Y-87730000D01*
X144750000Y-87730000D02*
X144790000Y-87770000D01*
X145386705Y-80498295D02*
X145386705Y-81713295D01*
X145386705Y-81713295D02*
X144750000Y-82350000D01*
D34*
X146085000Y-85890000D02*
X146075000Y-85900000D01*
X147345000Y-85890000D02*
X146085000Y-85890000D01*
G04 #@! TA.AperFunction,Conductor*
G36*
X134623039Y-87309685D02*
G01*
X134668794Y-87362489D01*
X134680000Y-87414000D01*
X134680000Y-88240000D01*
X135196000Y-88240000D01*
X135263039Y-88259685D01*
X135308794Y-88312489D01*
X135320000Y-88364000D01*
X135320000Y-88415500D01*
X135300315Y-88482539D01*
X135247511Y-88528294D01*
X135196000Y-88539500D01*
X135023855Y-88539500D01*
X135017454Y-88540342D01*
X135001827Y-88541400D01*
X133174546Y-88549451D01*
X133107421Y-88530062D01*
X133061434Y-88477460D01*
X133050000Y-88425452D01*
X133050000Y-87414000D01*
X133069685Y-87346961D01*
X133122489Y-87301206D01*
X133174000Y-87290000D01*
X134556000Y-87290000D01*
X134623039Y-87309685D01*
G37*
G04 #@! TD.AperFunction*
G04 #@! TA.AperFunction,Conductor*
G36*
X138012539Y-80529685D02*
G01*
X138058294Y-80582489D01*
X138069500Y-80634000D01*
X138069500Y-81193141D01*
X138070000Y-81203289D01*
X138070000Y-81820000D01*
X138486463Y-82264227D01*
X138517953Y-82326598D01*
X138520000Y-82349036D01*
X138520000Y-83066000D01*
X138500315Y-83133039D01*
X138447511Y-83178794D01*
X138396000Y-83190000D01*
X137162136Y-83190000D01*
X137095097Y-83170315D01*
X137049342Y-83117511D01*
X137038150Y-83067879D01*
X137030000Y-82530000D01*
X135662778Y-82530000D01*
X135595739Y-82510315D01*
X135549984Y-82457511D01*
X135538784Y-82407228D01*
X135537722Y-82300000D01*
X135521240Y-80635228D01*
X135540260Y-80567997D01*
X135592608Y-80521721D01*
X135645234Y-80510000D01*
X137945500Y-80510000D01*
X138012539Y-80529685D01*
G37*
G04 #@! TD.AperFunction*
G04 #@! TA.AperFunction,Conductor*
G36*
X148233039Y-79269685D02*
G01*
X148278794Y-79322489D01*
X148290000Y-79374000D01*
X148290000Y-82431741D01*
X148270315Y-82498780D01*
X148217511Y-82544535D01*
X148148353Y-82554479D01*
X148141810Y-82553359D01*
X148072133Y-82539500D01*
X147391145Y-82539500D01*
X147391144Y-82539500D01*
X146169880Y-82539500D01*
X146110223Y-82555484D01*
X146110223Y-82555485D01*
X146080736Y-82563386D01*
X146080734Y-82563386D01*
X146073688Y-82565275D01*
X146041594Y-82569500D01*
X145899873Y-82569500D01*
X145892882Y-82570000D01*
X145734000Y-82570000D01*
X145666961Y-82550315D01*
X145621206Y-82497511D01*
X145610000Y-82446000D01*
X145610000Y-81960762D01*
X145626613Y-81898762D01*
X145670790Y-81822245D01*
X145673856Y-81824015D01*
X145707387Y-81782263D01*
X145773644Y-81760087D01*
X145778278Y-81760000D01*
X146010000Y-81760000D01*
X146010000Y-79374000D01*
X146029685Y-79306961D01*
X146082489Y-79261206D01*
X146134000Y-79250000D01*
X148166000Y-79250000D01*
X148233039Y-79269685D01*
G37*
G04 #@! TD.AperFunction*
G04 #@! TA.AperFunction,Conductor*
G36*
X139010821Y-92395738D02*
G01*
X139057435Y-92447785D01*
X139069500Y-92501135D01*
X139069500Y-92542131D01*
X139069501Y-92542133D01*
X139077193Y-92580808D01*
X139079550Y-92602515D01*
X139079999Y-92624999D01*
X139080000Y-92625000D01*
X139091554Y-92636321D01*
X139107872Y-92655999D01*
X139146375Y-92713624D01*
X139212452Y-92757775D01*
X139230343Y-92772306D01*
X139574999Y-93109999D01*
X139574999Y-93110000D01*
X140410028Y-93270754D01*
X140472138Y-93302757D01*
X140507085Y-93363258D01*
X140510585Y-93391805D01*
X140529278Y-96644417D01*
X140509979Y-96711569D01*
X140457439Y-96757626D01*
X140404419Y-96769127D01*
X139212090Y-96760847D01*
X139145189Y-96740697D01*
X139099802Y-96687577D01*
X139088956Y-96637909D01*
X139088662Y-96603479D01*
X139107773Y-96536274D01*
X139110595Y-96531997D01*
X139154818Y-96467931D01*
X139215140Y-96308873D01*
X139235645Y-96140001D01*
X139215140Y-95971129D01*
X139154818Y-95812071D01*
X139154816Y-95812069D01*
X139154816Y-95812067D01*
X139154815Y-95812066D01*
X139102603Y-95736425D01*
X139080719Y-95670071D01*
X139080659Y-95667169D01*
X139060000Y-93250000D01*
X138789605Y-92821097D01*
X138770500Y-92754968D01*
X138770500Y-92501974D01*
X138790185Y-92434935D01*
X138842989Y-92389180D01*
X138892461Y-92377992D01*
X138943472Y-92377156D01*
X139010821Y-92395738D01*
G37*
G04 #@! TD.AperFunction*
G04 #@! TA.AperFunction,Conductor*
G36*
X150270000Y-91130000D02*
G01*
X151650000Y-91130000D01*
X151650000Y-92340000D01*
X150460000Y-92340000D01*
X150450000Y-92000000D01*
X148210000Y-92010000D01*
X148200000Y-90450000D01*
X150270000Y-90450000D01*
X150270000Y-91130000D01*
G37*
G04 #@! TD.AperFunction*
G04 #@! TA.AperFunction,Conductor*
G36*
X138740000Y-93450000D02*
G01*
X138750000Y-96480000D01*
X136010000Y-96480000D01*
X136010000Y-93920000D01*
X137840000Y-93940000D01*
X137840000Y-92850000D01*
X138570000Y-92850000D01*
X138740000Y-93450000D01*
G37*
G04 #@! TD.AperFunction*
G04 #@! TA.AperFunction,Conductor*
G36*
X146320000Y-92980000D02*
G01*
X145360000Y-92980000D01*
X145360000Y-91580000D01*
X146300000Y-91580000D01*
X146320000Y-92980000D01*
G37*
G04 #@! TD.AperFunction*
G04 #@! TA.AperFunction,Conductor*
G36*
X147754599Y-89769685D02*
G01*
X147800354Y-89822489D01*
X147811550Y-89872431D01*
X147828426Y-91205674D01*
X147809592Y-91272957D01*
X147757371Y-91319376D01*
X147705670Y-91331237D01*
X145945234Y-91348753D01*
X145878002Y-91329736D01*
X145831724Y-91277390D01*
X145820000Y-91224759D01*
X145820000Y-89874000D01*
X145839685Y-89806961D01*
X145892489Y-89761206D01*
X145944000Y-89750000D01*
X147687560Y-89750000D01*
X147754599Y-89769685D01*
G37*
G04 #@! TD.AperFunction*
G04 #@! TA.AperFunction,Conductor*
G36*
X137449301Y-92628029D02*
G01*
X137498531Y-92664362D01*
X137506945Y-92678470D01*
X137535172Y-92736208D01*
X137535173Y-92736209D01*
X137535174Y-92736211D01*
X137623789Y-92824826D01*
X137736375Y-92879866D01*
X137809364Y-92890500D01*
X137809367Y-92890500D01*
X137840000Y-92890500D01*
X137840000Y-93940000D01*
X136010000Y-93920000D01*
X136010000Y-96480000D01*
X138750000Y-96480000D01*
X138740000Y-93450000D01*
X138670660Y-93205273D01*
X138740244Y-93315647D01*
X138755493Y-93367598D01*
X138775169Y-95669779D01*
X138775222Y-95673415D01*
X138775283Y-95676386D01*
X138790591Y-95765757D01*
X138812476Y-95832114D01*
X138851181Y-95909968D01*
X138851183Y-95909971D01*
X138875493Y-95945191D01*
X138886583Y-95966321D01*
X138912075Y-96033536D01*
X138917787Y-96056710D01*
X138926451Y-96128067D01*
X138926451Y-96151933D01*
X138917787Y-96223290D01*
X138912076Y-96246463D01*
X138886586Y-96313674D01*
X138875495Y-96334805D01*
X138859195Y-96358419D01*
X138855592Y-96363759D01*
X138852777Y-96368025D01*
X138852776Y-96368027D01*
X138813922Y-96452714D01*
X138794811Y-96519919D01*
X138783173Y-96606087D01*
X138783172Y-96606101D01*
X138783466Y-96640503D01*
X138783466Y-96640515D01*
X138790488Y-96703077D01*
X138790489Y-96703087D01*
X138801334Y-96752747D01*
X138801341Y-96752775D01*
X138811531Y-96788723D01*
X138867537Y-96886030D01*
X138912927Y-96939153D01*
X138957359Y-96981633D01*
X138957361Y-96981634D01*
X138957364Y-96981637D01*
X139057085Y-97033217D01*
X139123986Y-97053367D01*
X139123993Y-97053368D01*
X139150437Y-97057358D01*
X139205156Y-97084734D01*
X139233334Y-97139045D01*
X139224207Y-97199545D01*
X139181261Y-97243127D01*
X139173556Y-97246714D01*
X139114982Y-97270976D01*
X139005211Y-97355207D01*
X139005207Y-97355211D01*
X138920976Y-97464982D01*
X138920974Y-97464986D01*
X138868026Y-97592816D01*
X138868025Y-97592816D01*
X138849965Y-97729999D01*
X138868026Y-97867183D01*
X138920974Y-97995014D01*
X138920976Y-97995018D01*
X139004672Y-98104092D01*
X139005209Y-98104791D01*
X139114982Y-98189024D01*
X139242817Y-98241974D01*
X139380000Y-98260035D01*
X139517183Y-98241974D01*
X139606644Y-98204918D01*
X139649092Y-98187337D01*
X139686977Y-98179801D01*
X140188254Y-98179801D01*
X140246445Y-98198708D01*
X140282409Y-98248208D01*
X140282409Y-98309394D01*
X140267910Y-98337586D01*
X140261422Y-98346379D01*
X140215568Y-98408507D01*
X140172210Y-98532417D01*
X140172208Y-98532426D01*
X140169450Y-98561833D01*
X140169450Y-98936758D01*
X140172208Y-98966176D01*
X140172209Y-98966181D01*
X140215567Y-99090092D01*
X140215570Y-99090097D01*
X140236050Y-99117847D01*
X140255391Y-99175894D01*
X140253639Y-99189749D01*
X140254467Y-99189858D01*
X140234700Y-99339999D01*
X140234700Y-99340000D01*
X140253619Y-99483708D01*
X140253620Y-99483709D01*
X140294553Y-99582533D01*
X140309089Y-99617625D01*
X140397329Y-99732621D01*
X140512325Y-99820861D01*
X140646241Y-99876330D01*
X140789950Y-99895250D01*
X140933659Y-99876330D01*
X141067575Y-99820861D01*
X141182571Y-99732621D01*
X141270811Y-99617625D01*
X141326280Y-99483709D01*
X141345200Y-99340000D01*
X141326280Y-99196291D01*
X141325433Y-99189857D01*
X141328538Y-99189448D01*
X141331101Y-99141100D01*
X141343849Y-99117845D01*
X141364331Y-99090095D01*
X141383785Y-99034499D01*
X141384607Y-99032151D01*
X141421672Y-98983471D01*
X141480272Y-98965874D01*
X141538024Y-98986082D01*
X141572868Y-99036377D01*
X141577051Y-99064849D01*
X141577051Y-99138594D01*
X141573678Y-99164214D01*
X141569451Y-99179988D01*
X141569451Y-99514712D01*
X141561915Y-99552597D01*
X141507977Y-99682816D01*
X141507976Y-99682816D01*
X141495639Y-99776528D01*
X141489916Y-99820000D01*
X141507977Y-99957183D01*
X141560927Y-100085018D01*
X141645160Y-100194791D01*
X141754933Y-100279024D01*
X141762265Y-100282061D01*
X141782634Y-100290498D01*
X141829160Y-100330234D01*
X141843444Y-100389729D01*
X141820030Y-100446257D01*
X141767861Y-100478226D01*
X141747341Y-100480928D01*
X141422592Y-100489432D01*
X141417408Y-100489432D01*
X140661133Y-100469627D01*
X140655958Y-100469356D01*
X139901743Y-100409999D01*
X139896588Y-100409457D01*
X139146522Y-100310709D01*
X139141403Y-100309898D01*
X138397550Y-100172033D01*
X138392480Y-100170956D01*
X137656826Y-99994341D01*
X137651819Y-99992999D01*
X136926434Y-99778130D01*
X136921505Y-99776528D01*
X136208378Y-99523996D01*
X136203540Y-99522139D01*
X135504583Y-99232623D01*
X135499847Y-99230515D01*
X135497012Y-99229163D01*
X135312385Y-99141100D01*
X134817004Y-98904814D01*
X134812386Y-98902461D01*
X134147524Y-98541471D01*
X134143036Y-98538880D01*
X134126955Y-98529026D01*
X134094129Y-98508909D01*
X134054393Y-98462386D01*
X134049592Y-98401389D01*
X134081561Y-98349219D01*
X134138089Y-98325804D01*
X134145857Y-98325499D01*
X134834861Y-98325499D01*
X134834864Y-98325499D01*
X134859991Y-98322585D01*
X134962765Y-98277206D01*
X135042206Y-98197765D01*
X135087585Y-98094991D01*
X135090500Y-98069865D01*
X135090499Y-96980136D01*
X135087585Y-96955009D01*
X135042206Y-96852235D01*
X135042204Y-96852233D01*
X135042205Y-96852233D01*
X135009496Y-96819524D01*
X134981719Y-96765007D01*
X134980500Y-96749521D01*
X134980500Y-96586572D01*
X134999407Y-96528381D01*
X134999774Y-96527879D01*
X135043852Y-96468157D01*
X135087710Y-96342819D01*
X135090500Y-96313066D01*
X135090500Y-95866934D01*
X135090500Y-95866928D01*
X135090499Y-95866923D01*
X135087710Y-95837185D01*
X135087710Y-95837181D01*
X135043852Y-95711843D01*
X135019823Y-95679285D01*
X135000482Y-95621239D01*
X135018953Y-95562909D01*
X135029473Y-95550497D01*
X135032206Y-95547765D01*
X135077585Y-95444991D01*
X135080500Y-95419865D01*
X135080499Y-94080136D01*
X135077585Y-94055009D01*
X135061944Y-94019588D01*
X135055736Y-93958719D01*
X135082504Y-93909597D01*
X135232607Y-93759496D01*
X135287124Y-93731719D01*
X135302610Y-93730500D01*
X136286523Y-93730500D01*
X136344714Y-93749407D01*
X136345311Y-93749845D01*
X136419203Y-93804380D01*
X136419204Y-93804380D01*
X136419205Y-93804381D01*
X136543120Y-93847741D01*
X136572542Y-93850500D01*
X137047455Y-93850499D01*
X137047456Y-93850499D01*
X137053339Y-93849947D01*
X137076878Y-93847741D01*
X137200793Y-93804381D01*
X137270925Y-93752621D01*
X137306417Y-93726427D01*
X137306418Y-93726425D01*
X137306422Y-93726423D01*
X137384380Y-93620794D01*
X137427740Y-93496879D01*
X137430499Y-93467457D01*
X137430498Y-93092544D01*
X137427740Y-93063121D01*
X137384380Y-92939206D01*
X137384379Y-92939204D01*
X137302889Y-92828788D01*
X137283547Y-92770740D01*
X137302018Y-92712410D01*
X137302889Y-92711212D01*
X137306422Y-92706423D01*
X137306424Y-92706423D01*
X137338351Y-92663162D01*
X137388117Y-92627571D01*
X137449301Y-92628029D01*
G37*
G04 #@! TD.AperFunction*
G04 #@! TA.AperFunction,Conductor*
G36*
X154173691Y-87759405D02*
G01*
X154209655Y-87808905D01*
X154214500Y-87839498D01*
X154214500Y-87849863D01*
X154214837Y-87852776D01*
X154217413Y-87874989D01*
X154239557Y-87925139D01*
X154262793Y-87977764D01*
X154342234Y-88057205D01*
X154445008Y-88102584D01*
X154470134Y-88105499D01*
X155559863Y-88105498D01*
X155584990Y-88102584D01*
X155657777Y-88070445D01*
X155718642Y-88064237D01*
X155771536Y-88094992D01*
X155796251Y-88150963D01*
X155795915Y-88173932D01*
X155790709Y-88213477D01*
X155789898Y-88218596D01*
X155652033Y-88962449D01*
X155650956Y-88967519D01*
X155474341Y-89703173D01*
X155472999Y-89708180D01*
X155258130Y-90433565D01*
X155256528Y-90438494D01*
X155003996Y-91151621D01*
X155002139Y-91156459D01*
X154712623Y-91855416D01*
X154710515Y-91860152D01*
X154384814Y-92542995D01*
X154382461Y-92547613D01*
X154021467Y-93212484D01*
X154018875Y-93216972D01*
X153623599Y-93862002D01*
X153620777Y-93866349D01*
X153192256Y-94489853D01*
X153189209Y-94494046D01*
X152728661Y-95094242D01*
X152725399Y-95098270D01*
X152234072Y-95673540D01*
X152230604Y-95677392D01*
X151709834Y-96226169D01*
X151706169Y-96229834D01*
X151157392Y-96750604D01*
X151153540Y-96754072D01*
X150578270Y-97245399D01*
X150574242Y-97248661D01*
X149974046Y-97709209D01*
X149969853Y-97712256D01*
X149346349Y-98140777D01*
X149342002Y-98143599D01*
X148696972Y-98538875D01*
X148692484Y-98541467D01*
X148027613Y-98902461D01*
X148022995Y-98904814D01*
X147340152Y-99230515D01*
X147335416Y-99232623D01*
X146636459Y-99522139D01*
X146631621Y-99523996D01*
X145918494Y-99776528D01*
X145913565Y-99778130D01*
X145188180Y-99992999D01*
X145183173Y-99994341D01*
X144447519Y-100170956D01*
X144442449Y-100172033D01*
X143698596Y-100309898D01*
X143693477Y-100310709D01*
X142943411Y-100409457D01*
X142938256Y-100409999D01*
X142353296Y-100456036D01*
X142293802Y-100441752D01*
X142254065Y-100395227D01*
X142249264Y-100334230D01*
X142281234Y-100282061D01*
X142285262Y-100278799D01*
X142394737Y-100194795D01*
X142394737Y-100194794D01*
X142394742Y-100194791D01*
X142478975Y-100085018D01*
X142531925Y-99957183D01*
X142549986Y-99820000D01*
X142531925Y-99682817D01*
X142531925Y-99682816D01*
X142490386Y-99582533D01*
X142482850Y-99544647D01*
X142482850Y-99133499D01*
X142501757Y-99075308D01*
X142551257Y-99039344D01*
X142581850Y-99034499D01*
X143020961Y-99034499D01*
X143020964Y-99034499D01*
X143046091Y-99031585D01*
X143148865Y-98986206D01*
X143228306Y-98906765D01*
X143239886Y-98880536D01*
X143280684Y-98834943D01*
X143340492Y-98822036D01*
X143396465Y-98846748D01*
X143427222Y-98899641D01*
X143429450Y-98920520D01*
X143429450Y-98936757D01*
X143432208Y-98966176D01*
X143432209Y-98966181D01*
X143475567Y-99090092D01*
X143475570Y-99090097D01*
X143496050Y-99117847D01*
X143515391Y-99175894D01*
X143513639Y-99189749D01*
X143514467Y-99189858D01*
X143494700Y-99339999D01*
X143494700Y-99340000D01*
X143513619Y-99483708D01*
X143513620Y-99483709D01*
X143554553Y-99582533D01*
X143569089Y-99617625D01*
X143657329Y-99732621D01*
X143772325Y-99820861D01*
X143906241Y-99876330D01*
X144049950Y-99895250D01*
X144193659Y-99876330D01*
X144327575Y-99820861D01*
X144442571Y-99732621D01*
X144530811Y-99617625D01*
X144586280Y-99483709D01*
X144605200Y-99340000D01*
X144586280Y-99196291D01*
X144585433Y-99189857D01*
X144588538Y-99189448D01*
X144591101Y-99141100D01*
X144603849Y-99117845D01*
X144624331Y-99090095D01*
X144667691Y-98966180D01*
X144670450Y-98936758D01*
X144670449Y-98561845D01*
X144667691Y-98532422D01*
X144624331Y-98408507D01*
X144619078Y-98401389D01*
X144571992Y-98337589D01*
X144552650Y-98279541D01*
X144571121Y-98221211D01*
X144620351Y-98184878D01*
X144651647Y-98179801D01*
X144874711Y-98179801D01*
X144912596Y-98187337D01*
X144940049Y-98198708D01*
X145042817Y-98241275D01*
X145180000Y-98259336D01*
X145317183Y-98241275D01*
X145445018Y-98188325D01*
X145554791Y-98104092D01*
X145639024Y-97994319D01*
X145691974Y-97866484D01*
X145710035Y-97729301D01*
X145694593Y-97612006D01*
X145694592Y-97612001D01*
X147253607Y-97612001D01*
X147253607Y-97612004D01*
X147253607Y-97758914D01*
X147275003Y-97866484D01*
X147282267Y-97903000D01*
X147282267Y-97903002D01*
X147338485Y-98038725D01*
X147338485Y-98038726D01*
X147359291Y-98069864D01*
X147420106Y-98160879D01*
X147523987Y-98264760D01*
X147646138Y-98346379D01*
X147781865Y-98402599D01*
X147925952Y-98431259D01*
X147925954Y-98431259D01*
X148072860Y-98431259D01*
X148072862Y-98431259D01*
X148216949Y-98402599D01*
X148352676Y-98346379D01*
X148474827Y-98264760D01*
X148578708Y-98160879D01*
X148660327Y-98038728D01*
X148716547Y-97903001D01*
X148745207Y-97758914D01*
X148745207Y-97612004D01*
X148716547Y-97467917D01*
X148669572Y-97354510D01*
X148660328Y-97332192D01*
X148660328Y-97332191D01*
X148639992Y-97301757D01*
X148578708Y-97210039D01*
X148474827Y-97106158D01*
X148352676Y-97024539D01*
X148352675Y-97024538D01*
X148352673Y-97024537D01*
X148216949Y-96968319D01*
X148072864Y-96939659D01*
X148072862Y-96939659D01*
X147925952Y-96939659D01*
X147925949Y-96939659D01*
X147781865Y-96968319D01*
X147781863Y-96968319D01*
X147646140Y-97024537D01*
X147646139Y-97024537D01*
X147523987Y-97106158D01*
X147523983Y-97106161D01*
X147420109Y-97210035D01*
X147420106Y-97210039D01*
X147338485Y-97332191D01*
X147338485Y-97332192D01*
X147282267Y-97467915D01*
X147282267Y-97467917D01*
X147253607Y-97612001D01*
X145694592Y-97612001D01*
X145691974Y-97592117D01*
X145639315Y-97464986D01*
X145639024Y-97464284D01*
X145554791Y-97354510D01*
X145554789Y-97354509D01*
X145554789Y-97354508D01*
X145445018Y-97270277D01*
X145445014Y-97270275D01*
X145317183Y-97217327D01*
X145303002Y-97215460D01*
X145180000Y-97199266D01*
X145179999Y-97199266D01*
X145042816Y-97217326D01*
X145042816Y-97217327D01*
X144912597Y-97271265D01*
X144874712Y-97278801D01*
X144573428Y-97278801D01*
X144515237Y-97259894D01*
X144514640Y-97259456D01*
X144440747Y-97204920D01*
X144316835Y-97161561D01*
X144316826Y-97161559D01*
X144287417Y-97158801D01*
X143812494Y-97158801D01*
X143783076Y-97161559D01*
X143783071Y-97161560D01*
X143659158Y-97204919D01*
X143638496Y-97220169D01*
X143583369Y-97260854D01*
X143525323Y-97280196D01*
X143524582Y-97280199D01*
X143339451Y-97280199D01*
X143281260Y-97261292D01*
X143245296Y-97211792D01*
X143240451Y-97181199D01*
X143240451Y-97034193D01*
X143259358Y-96976002D01*
X143260882Y-96973961D01*
X143298975Y-96924319D01*
X143351925Y-96796484D01*
X143369986Y-96659301D01*
X143365439Y-96624760D01*
X143351925Y-96522117D01*
X143298976Y-96394287D01*
X143298975Y-96394284D01*
X143214742Y-96284510D01*
X143214740Y-96284509D01*
X143214740Y-96284508D01*
X143104969Y-96200277D01*
X143104965Y-96200275D01*
X142977134Y-96147327D01*
X142921489Y-96140001D01*
X142839951Y-96129266D01*
X142839950Y-96129266D01*
X142702767Y-96147326D01*
X142702767Y-96147327D01*
X142574937Y-96200275D01*
X142574933Y-96200277D01*
X142507841Y-96251758D01*
X142465160Y-96284510D01*
X142465159Y-96284511D01*
X142460013Y-96288460D01*
X142458705Y-96286756D01*
X142412757Y-96310156D01*
X142352327Y-96300572D01*
X142337022Y-96290913D01*
X142333825Y-96288460D01*
X142264451Y-96235226D01*
X142244974Y-96220280D01*
X142244965Y-96220275D01*
X142117134Y-96167327D01*
X142037935Y-96156900D01*
X141979951Y-96149266D01*
X141979950Y-96149266D01*
X141842767Y-96167326D01*
X141842767Y-96167327D01*
X141714937Y-96220275D01*
X141714933Y-96220277D01*
X141605162Y-96304508D01*
X141605158Y-96304512D01*
X141520927Y-96414283D01*
X141520925Y-96414287D01*
X141467977Y-96542117D01*
X141467976Y-96542117D01*
X141455024Y-96640503D01*
X141449916Y-96679301D01*
X141459538Y-96752386D01*
X141467977Y-96816484D01*
X141520925Y-96944315D01*
X141520927Y-96944320D01*
X141529131Y-96955011D01*
X141558992Y-96993925D01*
X141579417Y-97051599D01*
X141579451Y-97054193D01*
X141579451Y-97179801D01*
X141560544Y-97237992D01*
X141511044Y-97273956D01*
X141480451Y-97278801D01*
X141313428Y-97278801D01*
X141255237Y-97259894D01*
X141254640Y-97259456D01*
X141180747Y-97204920D01*
X141056835Y-97161561D01*
X141056826Y-97161559D01*
X141027419Y-97158801D01*
X141027409Y-97158801D01*
X140999000Y-97158801D01*
X140940809Y-97139894D01*
X140904845Y-97090394D01*
X140900000Y-97059801D01*
X140900000Y-95999000D01*
X140918907Y-95940809D01*
X140968407Y-95904845D01*
X140999000Y-95900000D01*
X141856943Y-95900000D01*
X141883231Y-95904997D01*
X141883502Y-95903925D01*
X141889652Y-95905479D01*
X141889654Y-95905480D01*
X141973098Y-95915501D01*
X141973100Y-95915501D01*
X142509876Y-95915501D01*
X142539112Y-95925000D01*
X142575000Y-95925000D01*
X143450500Y-95925000D01*
X143508691Y-95943907D01*
X143544655Y-95993407D01*
X143549500Y-96024000D01*
X143549500Y-96353076D01*
X143552289Y-96382814D01*
X143552291Y-96382823D01*
X143596148Y-96508158D01*
X143674997Y-96614995D01*
X143675004Y-96615002D01*
X143781841Y-96693851D01*
X143781842Y-96693851D01*
X143781843Y-96693852D01*
X143907181Y-96737710D01*
X143934619Y-96740282D01*
X143936923Y-96740499D01*
X143936928Y-96740500D01*
X143936934Y-96740500D01*
X144323072Y-96740500D01*
X144323075Y-96740499D01*
X144352819Y-96737710D01*
X144478157Y-96693852D01*
X144584999Y-96614999D01*
X144663852Y-96508157D01*
X144707710Y-96382819D01*
X144710500Y-96353066D01*
X144710500Y-96175160D01*
X145816766Y-96175160D01*
X145816766Y-96322075D01*
X145831129Y-96394283D01*
X145842751Y-96452714D01*
X145845426Y-96466159D01*
X145845426Y-96466161D01*
X145901644Y-96601884D01*
X145901644Y-96601885D01*
X145940008Y-96659300D01*
X145983265Y-96724038D01*
X146087146Y-96827919D01*
X146209297Y-96909538D01*
X146345024Y-96965758D01*
X146489111Y-96994418D01*
X146489113Y-96994418D01*
X146636019Y-96994418D01*
X146636021Y-96994418D01*
X146780108Y-96965758D01*
X146915835Y-96909538D01*
X147037986Y-96827919D01*
X147141867Y-96724038D01*
X147223486Y-96601887D01*
X147279706Y-96466160D01*
X147308366Y-96322073D01*
X147308366Y-96175163D01*
X147279706Y-96031076D01*
X147231833Y-95915500D01*
X147223487Y-95895351D01*
X147223487Y-95895350D01*
X147184616Y-95837176D01*
X147141867Y-95773198D01*
X147037986Y-95669317D01*
X146915835Y-95587698D01*
X146915834Y-95587697D01*
X146915832Y-95587696D01*
X146780108Y-95531478D01*
X146636023Y-95502818D01*
X146636021Y-95502818D01*
X146489111Y-95502818D01*
X146489108Y-95502818D01*
X146345024Y-95531478D01*
X146345022Y-95531478D01*
X146209299Y-95587696D01*
X146209298Y-95587696D01*
X146087146Y-95669317D01*
X146087142Y-95669320D01*
X145983268Y-95773194D01*
X145983265Y-95773198D01*
X145901644Y-95895350D01*
X145901644Y-95895351D01*
X145845426Y-96031074D01*
X145845426Y-96031076D01*
X145816766Y-96175160D01*
X144710500Y-96175160D01*
X144710500Y-96156900D01*
X144729407Y-96098709D01*
X144739490Y-96086902D01*
X144840480Y-95985913D01*
X144863991Y-95945191D01*
X144893205Y-95894592D01*
X144893205Y-95894590D01*
X144893207Y-95894588D01*
X144920500Y-95792727D01*
X144920500Y-95769959D01*
X144939407Y-95711768D01*
X144960712Y-95690304D01*
X144975639Y-95679287D01*
X144994999Y-95664999D01*
X145073852Y-95558157D01*
X145117710Y-95432819D01*
X145120500Y-95403066D01*
X145120500Y-95249999D01*
X150419965Y-95249999D01*
X150438026Y-95387183D01*
X150490974Y-95515014D01*
X150490976Y-95515018D01*
X150575207Y-95624789D01*
X150575210Y-95624792D01*
X150627604Y-95664996D01*
X150684982Y-95709024D01*
X150812817Y-95761974D01*
X150950000Y-95780035D01*
X151087183Y-95761974D01*
X151215018Y-95709024D01*
X151324791Y-95624791D01*
X151409024Y-95515018D01*
X151461974Y-95387183D01*
X151480035Y-95250000D01*
X151466700Y-95148709D01*
X151461974Y-95112816D01*
X151409025Y-94984986D01*
X151409024Y-94984983D01*
X151324791Y-94875209D01*
X151324789Y-94875208D01*
X151324789Y-94875207D01*
X151215018Y-94790976D01*
X151215014Y-94790974D01*
X151087183Y-94738026D01*
X151087175Y-94738025D01*
X150950000Y-94719965D01*
X150949999Y-94719965D01*
X150812816Y-94738025D01*
X150812816Y-94738026D01*
X150684986Y-94790974D01*
X150684982Y-94790976D01*
X150575211Y-94875207D01*
X150575207Y-94875211D01*
X150490976Y-94984982D01*
X150490974Y-94984986D01*
X150438026Y-95112816D01*
X150438025Y-95112816D01*
X150419965Y-95249999D01*
X145120500Y-95249999D01*
X145120500Y-95206900D01*
X145139407Y-95148709D01*
X145149490Y-95136902D01*
X145240480Y-95045913D01*
X145275657Y-94984986D01*
X145293205Y-94954592D01*
X145293205Y-94954590D01*
X145293207Y-94954588D01*
X145320500Y-94852727D01*
X145320500Y-94747273D01*
X145320500Y-93301477D01*
X150127294Y-93301477D01*
X150127294Y-93448392D01*
X150138297Y-93503706D01*
X150151977Y-93572485D01*
X150155954Y-93592476D01*
X150155954Y-93592478D01*
X150212172Y-93728201D01*
X150212172Y-93728202D01*
X150247584Y-93781198D01*
X150293793Y-93850355D01*
X150397674Y-93954236D01*
X150519825Y-94035855D01*
X150655552Y-94092075D01*
X150799639Y-94120735D01*
X150799641Y-94120735D01*
X150946547Y-94120735D01*
X150946549Y-94120735D01*
X151090636Y-94092075D01*
X151226363Y-94035855D01*
X151348514Y-93954236D01*
X151452395Y-93850355D01*
X151534014Y-93728204D01*
X151590234Y-93592477D01*
X151618894Y-93448390D01*
X151618894Y-93301480D01*
X151590234Y-93157393D01*
X151562124Y-93089529D01*
X151534015Y-93021668D01*
X151534015Y-93021667D01*
X151485530Y-92949105D01*
X151452395Y-92899515D01*
X151348514Y-92795634D01*
X151226363Y-92714015D01*
X151226362Y-92714014D01*
X151226360Y-92714013D01*
X151090636Y-92657795D01*
X150946551Y-92629135D01*
X150946549Y-92629135D01*
X150799639Y-92629135D01*
X150799636Y-92629135D01*
X150655552Y-92657795D01*
X150655550Y-92657795D01*
X150519827Y-92714013D01*
X150519826Y-92714013D01*
X150397674Y-92795634D01*
X150397670Y-92795637D01*
X150293796Y-92899511D01*
X150293793Y-92899515D01*
X150212172Y-93021667D01*
X150212172Y-93021668D01*
X150155954Y-93157391D01*
X150155954Y-93157393D01*
X150127294Y-93301477D01*
X145320500Y-93301477D01*
X145320500Y-92727053D01*
X145330559Y-92683573D01*
X145333054Y-92678470D01*
X145359866Y-92623625D01*
X145360000Y-92622705D01*
X145360000Y-92980000D01*
X146320000Y-92980000D01*
X146301010Y-91650727D01*
X147708710Y-91636722D01*
X147773982Y-91629002D01*
X147825683Y-91617141D01*
X147864146Y-91605609D01*
X147960335Y-91547709D01*
X148012556Y-91501290D01*
X148054169Y-91456021D01*
X148103783Y-91355308D01*
X148122617Y-91288025D01*
X148133902Y-91201807D01*
X148132366Y-91080498D01*
X148130508Y-90933672D01*
X148130500Y-90932419D01*
X148130500Y-90736928D01*
X148130499Y-90736926D01*
X148128004Y-90710316D01*
X148127579Y-90702324D01*
X148126696Y-90632543D01*
X148124384Y-90450000D01*
X148200000Y-90450000D01*
X148210000Y-92010000D01*
X150450000Y-92000000D01*
X150460000Y-92340000D01*
X151650000Y-92340000D01*
X151650000Y-91130000D01*
X150270000Y-91130000D01*
X150270000Y-90450000D01*
X148200000Y-90450000D01*
X148124384Y-90450000D01*
X148123846Y-90407476D01*
X148142015Y-90349054D01*
X148179355Y-90317287D01*
X148266211Y-90274826D01*
X148354826Y-90186211D01*
X148409866Y-90073625D01*
X148420500Y-90000636D01*
X148420500Y-89939500D01*
X148439407Y-89881309D01*
X148488907Y-89845345D01*
X148519500Y-89840500D01*
X150282389Y-89840500D01*
X150340580Y-89859407D01*
X150352393Y-89869496D01*
X150414769Y-89931872D01*
X150442546Y-89986389D01*
X150432975Y-90046821D01*
X150424424Y-90060658D01*
X150418122Y-90069197D01*
X150418116Y-90069208D01*
X150374759Y-90193115D01*
X150374757Y-90193124D01*
X150371999Y-90222531D01*
X150371999Y-90697456D01*
X150374757Y-90726874D01*
X150374758Y-90726879D01*
X150418118Y-90850794D01*
X150496071Y-90956417D01*
X150496080Y-90956426D01*
X150601703Y-91034379D01*
X150601704Y-91034379D01*
X150601705Y-91034380D01*
X150725620Y-91077740D01*
X150755042Y-91080499D01*
X151129955Y-91080498D01*
X151129956Y-91080498D01*
X151135839Y-91079946D01*
X151159378Y-91077740D01*
X151283293Y-91034380D01*
X151388922Y-90956422D01*
X151388924Y-90956418D01*
X151393707Y-90952889D01*
X151451755Y-90933547D01*
X151510085Y-90952018D01*
X151511284Y-90952889D01*
X151621703Y-91034381D01*
X151621704Y-91034381D01*
X151621705Y-91034382D01*
X151745620Y-91077742D01*
X151775042Y-91080501D01*
X152002702Y-91080500D01*
X152060891Y-91099407D01*
X152096855Y-91148907D01*
X152096856Y-91210092D01*
X152094799Y-91215818D01*
X152042021Y-91349653D01*
X152032000Y-91433095D01*
X152032000Y-92026904D01*
X152042021Y-92110348D01*
X152094383Y-92243129D01*
X152094384Y-92243131D01*
X152094385Y-92243132D01*
X152180633Y-92356867D01*
X152294368Y-92443115D01*
X152294369Y-92443115D01*
X152294370Y-92443116D01*
X152427151Y-92495478D01*
X152427154Y-92495479D01*
X152510598Y-92505500D01*
X152510600Y-92505500D01*
X153029400Y-92505500D01*
X153029402Y-92505500D01*
X153112846Y-92495479D01*
X153245632Y-92443115D01*
X153359367Y-92356867D01*
X153445615Y-92243132D01*
X153497979Y-92110346D01*
X153508000Y-92026902D01*
X153508000Y-91433098D01*
X153497979Y-91349654D01*
X153495677Y-91343817D01*
X153445616Y-91216870D01*
X153445615Y-91216869D01*
X153445615Y-91216868D01*
X153359367Y-91103133D01*
X153354454Y-91099407D01*
X153259680Y-91027537D01*
X153224738Y-90977311D01*
X153220500Y-90948654D01*
X153220500Y-90680692D01*
X153216962Y-90667487D01*
X153189799Y-90566114D01*
X153152271Y-90501114D01*
X153130489Y-90463386D01*
X152766615Y-90099512D01*
X152766612Y-90099510D01*
X152766610Y-90099508D01*
X152663891Y-90040203D01*
X152663887Y-90040201D01*
X152639674Y-90033713D01*
X152639674Y-90033714D01*
X152549310Y-90009501D01*
X152549308Y-90009501D01*
X152492792Y-90009501D01*
X152434601Y-89990594D01*
X152413137Y-89969289D01*
X152409958Y-89964982D01*
X152408922Y-89963578D01*
X152408920Y-89963577D01*
X152408920Y-89963576D01*
X152408919Y-89963575D01*
X152303294Y-89885620D01*
X152179382Y-89842261D01*
X152179373Y-89842259D01*
X152149964Y-89839501D01*
X151775041Y-89839501D01*
X151745623Y-89842259D01*
X151745618Y-89842260D01*
X151621703Y-89885620D01*
X151550787Y-89937959D01*
X151492739Y-89957301D01*
X151434409Y-89938830D01*
X151398076Y-89889600D01*
X151392999Y-89858304D01*
X151392999Y-89763191D01*
X151377558Y-89705566D01*
X151362298Y-89648613D01*
X151362298Y-89648612D01*
X151362298Y-89648611D01*
X151302991Y-89545889D01*
X151302989Y-89545887D01*
X151302988Y-89545885D01*
X150786614Y-89029511D01*
X150786611Y-89029509D01*
X150786609Y-89029507D01*
X150741816Y-89003646D01*
X150700875Y-88958177D01*
X150694479Y-88897327D01*
X150725072Y-88844339D01*
X150753425Y-88826448D01*
X150753707Y-88826331D01*
X150753708Y-88826331D01*
X150781348Y-88814881D01*
X150793588Y-88810726D01*
X150822484Y-88802985D01*
X150834648Y-88795961D01*
X150848381Y-88788033D01*
X150859993Y-88782306D01*
X150887624Y-88770862D01*
X150911357Y-88752650D01*
X150922104Y-88745468D01*
X150948014Y-88730510D01*
X150969157Y-88709365D01*
X150978895Y-88700826D01*
X151002620Y-88682622D01*
X151020825Y-88658895D01*
X151029365Y-88649158D01*
X151050508Y-88628016D01*
X151065466Y-88602106D01*
X151072648Y-88591359D01*
X151090860Y-88567626D01*
X151094691Y-88558375D01*
X151134425Y-88511848D01*
X151193919Y-88497562D01*
X151250448Y-88520973D01*
X151282420Y-88573141D01*
X151284498Y-88584853D01*
X151287412Y-88609988D01*
X151300664Y-88640000D01*
X151332792Y-88712763D01*
X151412233Y-88792204D01*
X151515007Y-88837583D01*
X151540133Y-88840498D01*
X152879862Y-88840497D01*
X152904989Y-88837583D01*
X153007763Y-88792204D01*
X153087204Y-88712763D01*
X153132583Y-88609989D01*
X153135498Y-88584863D01*
X153135497Y-87995134D01*
X153132583Y-87970007D01*
X153132582Y-87970006D01*
X153131725Y-87962608D01*
X153134519Y-87962283D01*
X153136878Y-87913761D01*
X153175202Y-87866065D01*
X153234242Y-87850005D01*
X153262129Y-87855443D01*
X153297181Y-87867708D01*
X153324619Y-87870280D01*
X153326923Y-87870497D01*
X153326928Y-87870498D01*
X153326934Y-87870498D01*
X153773072Y-87870498D01*
X153773075Y-87870497D01*
X153802819Y-87867708D01*
X153928157Y-87823850D01*
X153973345Y-87790500D01*
X154014884Y-87759843D01*
X154072931Y-87740501D01*
X154073672Y-87740498D01*
X154115500Y-87740498D01*
X154173691Y-87759405D01*
G37*
G04 #@! TD.AperFunction*
G04 #@! TA.AperFunction,Conductor*
G36*
X142178866Y-71410372D02*
G01*
X142184042Y-71410643D01*
X142938288Y-71470003D01*
X142943378Y-71470538D01*
X143693483Y-71569291D01*
X143698589Y-71570099D01*
X144442454Y-71707967D01*
X144447514Y-71709042D01*
X145183180Y-71885659D01*
X145188174Y-71886998D01*
X145425289Y-71957235D01*
X145913565Y-72101869D01*
X145918495Y-72103471D01*
X146631632Y-72356007D01*
X146636459Y-72357860D01*
X147335425Y-72647380D01*
X147340130Y-72649474D01*
X147918549Y-72925366D01*
X148022995Y-72975185D01*
X148027613Y-72977538D01*
X148692503Y-73338543D01*
X148696953Y-73341113D01*
X149285607Y-73701841D01*
X149342002Y-73736400D01*
X149346346Y-73739220D01*
X149969872Y-74167757D01*
X149974027Y-74170776D01*
X150508029Y-74580531D01*
X150574242Y-74631338D01*
X150578270Y-74634600D01*
X151153540Y-75125927D01*
X151157392Y-75129395D01*
X151706169Y-75650165D01*
X151709834Y-75653830D01*
X152230604Y-76202607D01*
X152234072Y-76206459D01*
X152725399Y-76781729D01*
X152728661Y-76785757D01*
X152758003Y-76823996D01*
X153189218Y-77385966D01*
X153192247Y-77390134D01*
X153315320Y-77569206D01*
X153620777Y-78013650D01*
X153623599Y-78017997D01*
X153757283Y-78236149D01*
X153980168Y-78599864D01*
X154018875Y-78663027D01*
X154021467Y-78667515D01*
X154382461Y-79332386D01*
X154384814Y-79337004D01*
X154710515Y-80019847D01*
X154712623Y-80024583D01*
X155002139Y-80723540D01*
X155003996Y-80728378D01*
X155256528Y-81441505D01*
X155258130Y-81446434D01*
X155472999Y-82171819D01*
X155474341Y-82176826D01*
X155650956Y-82912480D01*
X155652033Y-82917550D01*
X155789898Y-83661403D01*
X155790709Y-83666522D01*
X155889457Y-84416588D01*
X155889999Y-84421743D01*
X155949356Y-85175958D01*
X155949627Y-85181133D01*
X155969432Y-85937408D01*
X155969432Y-85942592D01*
X155952588Y-86585801D01*
X155932164Y-86643477D01*
X155881739Y-86678132D01*
X155820575Y-86676530D01*
X155772033Y-86639283D01*
X155771947Y-86639157D01*
X155767206Y-86632236D01*
X155767205Y-86632235D01*
X155767205Y-86632234D01*
X155687764Y-86552793D01*
X155584990Y-86507414D01*
X155584989Y-86507413D01*
X155584987Y-86507413D01*
X155559867Y-86504499D01*
X154470138Y-86504499D01*
X154470135Y-86504500D01*
X154445008Y-86507413D01*
X154342234Y-86552793D01*
X154262793Y-86632234D01*
X154217413Y-86735010D01*
X154215453Y-86751908D01*
X154189965Y-86807532D01*
X154136650Y-86837551D01*
X154117113Y-86839498D01*
X154073672Y-86839498D01*
X154015481Y-86820591D01*
X154014884Y-86820153D01*
X153928158Y-86756146D01*
X153802823Y-86712289D01*
X153802814Y-86712287D01*
X153773076Y-86709498D01*
X153773066Y-86709498D01*
X153326934Y-86709498D01*
X153326923Y-86709498D01*
X153297185Y-86712287D01*
X153297176Y-86712289D01*
X153171841Y-86756146D01*
X153087429Y-86818445D01*
X153029381Y-86837787D01*
X152988654Y-86829355D01*
X152904991Y-86792415D01*
X152904988Y-86792414D01*
X152879868Y-86789500D01*
X151540139Y-86789500D01*
X151540136Y-86789501D01*
X151515009Y-86792414D01*
X151515004Y-86792416D01*
X151479586Y-86808054D01*
X151418716Y-86814261D01*
X151369596Y-86787493D01*
X151319496Y-86737393D01*
X151291719Y-86682876D01*
X151290500Y-86667389D01*
X151290500Y-85697610D01*
X151309407Y-85639419D01*
X151319486Y-85627616D01*
X151327608Y-85619494D01*
X151382123Y-85591719D01*
X151397610Y-85590500D01*
X151527457Y-85590500D01*
X151533340Y-85589948D01*
X151556879Y-85587742D01*
X151680794Y-85544382D01*
X151786423Y-85466424D01*
X151864381Y-85360795D01*
X151907741Y-85236880D01*
X151910500Y-85207458D01*
X151910499Y-84749771D01*
X151929406Y-84691581D01*
X151978906Y-84655617D01*
X152022421Y-84651619D01*
X152050000Y-84655250D01*
X152079646Y-84651347D01*
X152092568Y-84650500D01*
X152122473Y-84650500D01*
X152122474Y-84650500D01*
X152151368Y-84642757D01*
X152164057Y-84640233D01*
X152193709Y-84636330D01*
X152221349Y-84624880D01*
X152233589Y-84620725D01*
X152262485Y-84612984D01*
X152288395Y-84598024D01*
X152299985Y-84592309D01*
X152327625Y-84580861D01*
X152351354Y-84562652D01*
X152362100Y-84555471D01*
X152388015Y-84540510D01*
X152409162Y-84519361D01*
X152418900Y-84510822D01*
X152442621Y-84492621D01*
X152460827Y-84468892D01*
X152469350Y-84459173D01*
X152500510Y-84428015D01*
X152522535Y-84389863D01*
X152529729Y-84379099D01*
X152530861Y-84377625D01*
X152531571Y-84375908D01*
X152537295Y-84364297D01*
X152572984Y-84302485D01*
X152580829Y-84273207D01*
X152610500Y-84162475D01*
X152610500Y-83934908D01*
X152629407Y-83876717D01*
X152630211Y-83875627D01*
X152703796Y-83777331D01*
X152709210Y-83762817D01*
X152747034Y-83661403D01*
X152754091Y-83642483D01*
X152760500Y-83582873D01*
X152760499Y-82937128D01*
X152754091Y-82877517D01*
X152747690Y-82860355D01*
X152703797Y-82742670D01*
X152617549Y-82627458D01*
X152617548Y-82627457D01*
X152617546Y-82627454D01*
X152617541Y-82627450D01*
X152502329Y-82541202D01*
X152367488Y-82490910D01*
X152367483Y-82490909D01*
X152367481Y-82490908D01*
X152367477Y-82490908D01*
X152336249Y-82487550D01*
X152307873Y-82484500D01*
X152307870Y-82484500D01*
X151812133Y-82484500D01*
X151812129Y-82484500D01*
X151812128Y-82484501D01*
X151804949Y-82485272D01*
X151752519Y-82490908D01*
X151752514Y-82490909D01*
X151633596Y-82535263D01*
X151572467Y-82537883D01*
X151521472Y-82504072D01*
X151500091Y-82446744D01*
X151500000Y-82442505D01*
X151500000Y-81500001D01*
X151500000Y-81500000D01*
X151380166Y-81500000D01*
X151321975Y-81481093D01*
X151294368Y-81443095D01*
X152934501Y-81443095D01*
X152934501Y-82036904D01*
X152944522Y-82120348D01*
X152996884Y-82253129D01*
X152996885Y-82253131D01*
X152996886Y-82253132D01*
X153083134Y-82366867D01*
X153083138Y-82366870D01*
X153087924Y-82371656D01*
X153086974Y-82372605D01*
X153117759Y-82416842D01*
X153122001Y-82445512D01*
X153122001Y-82635181D01*
X153103094Y-82693372D01*
X153102255Y-82694508D01*
X153066203Y-82742668D01*
X153015910Y-82877511D01*
X153015909Y-82877517D01*
X153010267Y-82929999D01*
X153009500Y-82937129D01*
X153009500Y-83582866D01*
X153009501Y-83582870D01*
X153015908Y-83642480D01*
X153015909Y-83642485D01*
X153066202Y-83777329D01*
X153140604Y-83876717D01*
X153152454Y-83892546D01*
X153152457Y-83892548D01*
X153152458Y-83892549D01*
X153267670Y-83978797D01*
X153402511Y-84029089D01*
X153402512Y-84029089D01*
X153402517Y-84029091D01*
X153462127Y-84035500D01*
X153957872Y-84035499D01*
X154017483Y-84029091D01*
X154093786Y-84000632D01*
X154152329Y-83978797D01*
X154152329Y-83978796D01*
X154152331Y-83978796D01*
X154267546Y-83892546D01*
X154353796Y-83777331D01*
X154359210Y-83762817D01*
X154397034Y-83661403D01*
X154404091Y-83642483D01*
X154410500Y-83582873D01*
X154410499Y-82937128D01*
X154404091Y-82877517D01*
X154397690Y-82860355D01*
X154353797Y-82742670D01*
X154310571Y-82684928D01*
X154267546Y-82627454D01*
X154267544Y-82627453D01*
X154267544Y-82627452D01*
X154267541Y-82627449D01*
X154262670Y-82623802D01*
X154227418Y-82573793D01*
X154223001Y-82544551D01*
X154223001Y-82445512D01*
X154241908Y-82387321D01*
X154257168Y-82371746D01*
X154257078Y-82371656D01*
X154261859Y-82366873D01*
X154261868Y-82366867D01*
X154348116Y-82253132D01*
X154400480Y-82120346D01*
X154410501Y-82036902D01*
X154410501Y-81443098D01*
X154400480Y-81359654D01*
X154348116Y-81226868D01*
X154261868Y-81113133D01*
X154148133Y-81026885D01*
X154148132Y-81026884D01*
X154148130Y-81026883D01*
X154015349Y-80974521D01*
X153931905Y-80964500D01*
X153931903Y-80964500D01*
X153413099Y-80964500D01*
X153413096Y-80964500D01*
X153329652Y-80974521D01*
X153196871Y-81026883D01*
X153196867Y-81026886D01*
X153083137Y-81113130D01*
X153083131Y-81113136D01*
X152996887Y-81226866D01*
X152996884Y-81226870D01*
X152944522Y-81359651D01*
X152934501Y-81443095D01*
X151294368Y-81443095D01*
X151286011Y-81431593D01*
X151281789Y-81412085D01*
X151270371Y-81310750D01*
X151270368Y-81310738D01*
X151241019Y-81226866D01*
X151210791Y-81140478D01*
X151139414Y-81026883D01*
X151114820Y-80987741D01*
X151114819Y-80987740D01*
X151114818Y-80987738D01*
X150987264Y-80860184D01*
X150987261Y-80860182D01*
X150987260Y-80860181D01*
X150834525Y-80764211D01*
X150664263Y-80704633D01*
X150664259Y-80704632D01*
X150485002Y-80684435D01*
X150305744Y-80704632D01*
X150305740Y-80704633D01*
X150135478Y-80764211D01*
X150066424Y-80807600D01*
X150007093Y-80822550D01*
X149950306Y-80799770D01*
X149943751Y-80793778D01*
X149887767Y-80737795D01*
X149887766Y-80737794D01*
X149784992Y-80692415D01*
X149784991Y-80692414D01*
X149784989Y-80692414D01*
X149759870Y-80689500D01*
X148694500Y-80689500D01*
X148636309Y-80670593D01*
X148600345Y-80621093D01*
X148595500Y-80590500D01*
X148595500Y-80204478D01*
X148614407Y-80146287D01*
X148663907Y-80110323D01*
X148725093Y-80110323D01*
X148764501Y-80134472D01*
X148842233Y-80212204D01*
X148945007Y-80257583D01*
X148970133Y-80260498D01*
X150309862Y-80260497D01*
X150334989Y-80257583D01*
X150437763Y-80212204D01*
X150517204Y-80132763D01*
X150562583Y-80029989D01*
X150565498Y-80004863D01*
X150565497Y-79427161D01*
X150584404Y-79368971D01*
X150633904Y-79333007D01*
X150695090Y-79333007D01*
X150697152Y-79333703D01*
X150737181Y-79347710D01*
X150764619Y-79350282D01*
X150766923Y-79350499D01*
X150766928Y-79350500D01*
X150766934Y-79350500D01*
X151213072Y-79350500D01*
X151213075Y-79350499D01*
X151242819Y-79347710D01*
X151368157Y-79303852D01*
X151368157Y-79303851D01*
X151372801Y-79302227D01*
X151433971Y-79300854D01*
X151484266Y-79335697D01*
X151504474Y-79393449D01*
X151504499Y-79395671D01*
X151504499Y-79519864D01*
X151507412Y-79544991D01*
X151522889Y-79580043D01*
X151552792Y-79647766D01*
X151632233Y-79727207D01*
X151735007Y-79772586D01*
X151760133Y-79775501D01*
X152849862Y-79775500D01*
X152874989Y-79772586D01*
X152977763Y-79727207D01*
X153057204Y-79647766D01*
X153102583Y-79544992D01*
X153105498Y-79519866D01*
X153105497Y-78430137D01*
X153102583Y-78405010D01*
X153057204Y-78302236D01*
X152977763Y-78222795D01*
X152874989Y-78177416D01*
X152874988Y-78177415D01*
X152874986Y-78177415D01*
X152849866Y-78174501D01*
X151760137Y-78174501D01*
X151760134Y-78174502D01*
X151735007Y-78177415D01*
X151632231Y-78222796D01*
X151572656Y-78282371D01*
X151518139Y-78310148D01*
X151457707Y-78300576D01*
X151443865Y-78292022D01*
X151368158Y-78236148D01*
X151242823Y-78192291D01*
X151242814Y-78192289D01*
X151213076Y-78189500D01*
X151213066Y-78189500D01*
X150766934Y-78189500D01*
X150766923Y-78189500D01*
X150737185Y-78192289D01*
X150737176Y-78192291D01*
X150611845Y-78236146D01*
X150611839Y-78236149D01*
X150567779Y-78268668D01*
X150509731Y-78288010D01*
X150451401Y-78269539D01*
X150438993Y-78259022D01*
X150437765Y-78257794D01*
X150334991Y-78212415D01*
X150334990Y-78212414D01*
X150334988Y-78212414D01*
X150309868Y-78209500D01*
X148970139Y-78209500D01*
X148970136Y-78209501D01*
X148945010Y-78212414D01*
X148945005Y-78212416D01*
X148909587Y-78228054D01*
X148848717Y-78234261D01*
X148799597Y-78207493D01*
X148619496Y-78027392D01*
X148591719Y-77972875D01*
X148590500Y-77957388D01*
X148590500Y-76973476D01*
X148609407Y-76915285D01*
X148609819Y-76914723D01*
X148664381Y-76840795D01*
X148707741Y-76716880D01*
X148710500Y-76687458D01*
X148710499Y-76212545D01*
X148710354Y-76211003D01*
X148707741Y-76183125D01*
X148707741Y-76183124D01*
X148707741Y-76183122D01*
X148664381Y-76059207D01*
X148664380Y-76059205D01*
X148586427Y-75953582D01*
X148586418Y-75953573D01*
X148480795Y-75875620D01*
X148356883Y-75832261D01*
X148356874Y-75832259D01*
X148327465Y-75829501D01*
X147952542Y-75829501D01*
X147923124Y-75832259D01*
X147923119Y-75832260D01*
X147799204Y-75875620D01*
X147688789Y-75957110D01*
X147630741Y-75976452D01*
X147572411Y-75957980D01*
X147571213Y-75957110D01*
X147460795Y-75875618D01*
X147336883Y-75832259D01*
X147336874Y-75832257D01*
X147307465Y-75829499D01*
X146932542Y-75829499D01*
X146903124Y-75832257D01*
X146903119Y-75832258D01*
X146779204Y-75875618D01*
X146673581Y-75953571D01*
X146673572Y-75953580D01*
X146595619Y-76059203D01*
X146552260Y-76183115D01*
X146552258Y-76183124D01*
X146549500Y-76212531D01*
X146549500Y-76212534D01*
X146549500Y-76212541D01*
X146549500Y-76212542D01*
X146549500Y-76443582D01*
X146549501Y-76601000D01*
X146530594Y-76659191D01*
X146481094Y-76695155D01*
X146450501Y-76700000D01*
X143352479Y-76700000D01*
X143294288Y-76681093D01*
X143258324Y-76631593D01*
X143258324Y-76570407D01*
X143266742Y-76551500D01*
X143279797Y-76528889D01*
X143282739Y-76517905D01*
X143286285Y-76504674D01*
X143286285Y-76504671D01*
X143310498Y-76414311D01*
X143310498Y-76414306D01*
X143310788Y-76412104D01*
X143311476Y-76410660D01*
X143312178Y-76408042D01*
X143312663Y-76408171D01*
X143337124Y-76356876D01*
X143390892Y-76327676D01*
X143448927Y-76334451D01*
X143490005Y-76352589D01*
X143515131Y-76355504D01*
X144104860Y-76355503D01*
X144129987Y-76352589D01*
X144232761Y-76307210D01*
X144312202Y-76227769D01*
X144357581Y-76124995D01*
X144360496Y-76099869D01*
X144360495Y-74760140D01*
X144357581Y-74735013D01*
X144312202Y-74632239D01*
X144232761Y-74552798D01*
X144129987Y-74507419D01*
X144129986Y-74507418D01*
X144129984Y-74507418D01*
X144104864Y-74504504D01*
X143515132Y-74504504D01*
X143512757Y-74504642D01*
X143453574Y-74489117D01*
X143414819Y-74441770D01*
X143411296Y-74380686D01*
X143413608Y-74373118D01*
X143427710Y-74332819D01*
X143430500Y-74303066D01*
X143430500Y-73856934D01*
X143430500Y-73856928D01*
X143430499Y-73856923D01*
X143428140Y-73831766D01*
X143427710Y-73827181D01*
X143383852Y-73701843D01*
X143383851Y-73701841D01*
X143319845Y-73615115D01*
X143300503Y-73557067D01*
X143300500Y-73556327D01*
X143300500Y-73529499D01*
X143319407Y-73471308D01*
X143368907Y-73435344D01*
X143399500Y-73430499D01*
X143569858Y-73430499D01*
X143569861Y-73430499D01*
X143594988Y-73427585D01*
X143600550Y-73425129D01*
X144634499Y-73425129D01*
X144634499Y-74514859D01*
X144634500Y-74514862D01*
X144637413Y-74539989D01*
X144662755Y-74597384D01*
X144682793Y-74642764D01*
X144762234Y-74722205D01*
X144865008Y-74767584D01*
X144890134Y-74770499D01*
X145979863Y-74770498D01*
X146004990Y-74767584D01*
X146107764Y-74722205D01*
X146187205Y-74642764D01*
X146232584Y-74539990D01*
X146235499Y-74514864D01*
X146235498Y-73425135D01*
X146232584Y-73400008D01*
X146187205Y-73297234D01*
X146107764Y-73217793D01*
X146004990Y-73172414D01*
X146004989Y-73172413D01*
X146004987Y-73172413D01*
X145979867Y-73169499D01*
X144890138Y-73169499D01*
X144890135Y-73169500D01*
X144865008Y-73172413D01*
X144762234Y-73217793D01*
X144682793Y-73297234D01*
X144637413Y-73400010D01*
X144634499Y-73425129D01*
X143600550Y-73425129D01*
X143697762Y-73382206D01*
X143777203Y-73302765D01*
X143822582Y-73199991D01*
X143825497Y-73174865D01*
X143825496Y-72085136D01*
X143822582Y-72060009D01*
X143777203Y-71957235D01*
X143697762Y-71877794D01*
X143594988Y-71832415D01*
X143594987Y-71832414D01*
X143594985Y-71832414D01*
X143569865Y-71829500D01*
X142480136Y-71829500D01*
X142480133Y-71829501D01*
X142455006Y-71832414D01*
X142352232Y-71877794D01*
X142272791Y-71957235D01*
X142227411Y-72060011D01*
X142224497Y-72085130D01*
X142224497Y-73174860D01*
X142224498Y-73174863D01*
X142227411Y-73199990D01*
X142235272Y-73217793D01*
X142272791Y-73302765D01*
X142272792Y-73302766D01*
X142352229Y-73382204D01*
X142356444Y-73385091D01*
X142393769Y-73433574D01*
X142399500Y-73466769D01*
X142399500Y-73556327D01*
X142380593Y-73614518D01*
X142380155Y-73615115D01*
X142316148Y-73701841D01*
X142272291Y-73827176D01*
X142272289Y-73827185D01*
X142269500Y-73856923D01*
X142269500Y-74303076D01*
X142272289Y-74332814D01*
X142272291Y-74332823D01*
X142316147Y-74458156D01*
X142316148Y-74458157D01*
X142357781Y-74514568D01*
X142377123Y-74572615D01*
X142361473Y-74623833D01*
X142361498Y-74623845D01*
X142361406Y-74624053D01*
X142359802Y-74629303D01*
X142357793Y-74632235D01*
X142312412Y-74735013D01*
X142309498Y-74760132D01*
X142309498Y-74760134D01*
X142309499Y-75875500D01*
X142290592Y-75933691D01*
X142241092Y-75969655D01*
X142210499Y-75974500D01*
X140553191Y-75974500D01*
X140495902Y-75989850D01*
X140438612Y-76005201D01*
X140403812Y-76025294D01*
X140403811Y-76025293D01*
X140335887Y-76064510D01*
X140189507Y-76210890D01*
X140130202Y-76313609D01*
X140130200Y-76313613D01*
X140114646Y-76371661D01*
X140081322Y-76422975D01*
X140077811Y-76425690D01*
X140053581Y-76443573D01*
X140053572Y-76443582D01*
X139975619Y-76549204D01*
X139932260Y-76673116D01*
X139932258Y-76673125D01*
X139929500Y-76702532D01*
X139929500Y-77077457D01*
X139932258Y-77106875D01*
X139932259Y-77106880D01*
X139975619Y-77230795D01*
X140057110Y-77341212D01*
X140076452Y-77399260D01*
X140057981Y-77457590D01*
X140057110Y-77458788D01*
X139975619Y-77569204D01*
X139932260Y-77693116D01*
X139932258Y-77693125D01*
X139929500Y-77722532D01*
X139929500Y-77880708D01*
X139910593Y-77938899D01*
X139861093Y-77974863D01*
X139828918Y-77977821D01*
X139828918Y-77979500D01*
X137587979Y-77979500D01*
X137529788Y-77960593D01*
X137517977Y-77950505D01*
X137492766Y-77925295D01*
X137492765Y-77925294D01*
X137389991Y-77879915D01*
X137389990Y-77879914D01*
X137389988Y-77879914D01*
X137364869Y-77877000D01*
X137364865Y-77877000D01*
X137199000Y-77877000D01*
X137140809Y-77858093D01*
X137104845Y-77808593D01*
X137100000Y-77778000D01*
X137100000Y-77176999D01*
X137118907Y-77118808D01*
X137168407Y-77082844D01*
X137199000Y-77077999D01*
X137364861Y-77077999D01*
X137364864Y-77077999D01*
X137389991Y-77075085D01*
X137492765Y-77029706D01*
X137572206Y-76950265D01*
X137617585Y-76847491D01*
X137620500Y-76822365D01*
X137620499Y-76232636D01*
X137617585Y-76207509D01*
X137572206Y-76104735D01*
X137492765Y-76025294D01*
X137389991Y-75979915D01*
X137389990Y-75979914D01*
X137389988Y-75979914D01*
X137364869Y-75977000D01*
X137364865Y-75977000D01*
X136767476Y-75977000D01*
X136767475Y-75977000D01*
X135747829Y-75977000D01*
X135722208Y-75973627D01*
X135697475Y-75967000D01*
X135697474Y-75967000D01*
X135667568Y-75967000D01*
X135654646Y-75966153D01*
X135625000Y-75962250D01*
X135595354Y-75966153D01*
X135582432Y-75967000D01*
X135552522Y-75967000D01*
X135523637Y-75974739D01*
X135510948Y-75977263D01*
X135481296Y-75981168D01*
X135481292Y-75981169D01*
X135453658Y-75992615D01*
X135441399Y-75996776D01*
X135412518Y-76004514D01*
X135412509Y-76004518D01*
X135386614Y-76019468D01*
X135375007Y-76025192D01*
X135347377Y-76036638D01*
X135347369Y-76036642D01*
X135323644Y-76054846D01*
X135312884Y-76062036D01*
X135286984Y-76076990D01*
X135265836Y-76098138D01*
X135256104Y-76106673D01*
X135232376Y-76124881D01*
X135229624Y-76127633D01*
X135175105Y-76155407D01*
X135114674Y-76145832D01*
X135079621Y-76110774D01*
X135077390Y-76112303D01*
X135072207Y-76104737D01*
X135072206Y-76104736D01*
X135072206Y-76104735D01*
X134992765Y-76025294D01*
X134889991Y-75979915D01*
X134889990Y-75979914D01*
X134889988Y-75979914D01*
X134864868Y-75977000D01*
X133525139Y-75977000D01*
X133525136Y-75977001D01*
X133500009Y-75979914D01*
X133397235Y-76025294D01*
X133317794Y-76104735D01*
X133272414Y-76207511D01*
X133269500Y-76232630D01*
X133269500Y-76766837D01*
X133250593Y-76825028D01*
X133201093Y-76860992D01*
X133139907Y-76860992D01*
X133137803Y-76860282D01*
X133107819Y-76849790D01*
X133107817Y-76849789D01*
X133107814Y-76849789D01*
X133078076Y-76847000D01*
X133078066Y-76847000D01*
X132631934Y-76847000D01*
X132631923Y-76847000D01*
X132602185Y-76849789D01*
X132602176Y-76849791D01*
X132476842Y-76893648D01*
X132448286Y-76914723D01*
X132390238Y-76934064D01*
X132331908Y-76915592D01*
X132295576Y-76866362D01*
X132290499Y-76835067D01*
X132290499Y-76732639D01*
X132290499Y-76732636D01*
X132287585Y-76707509D01*
X132242206Y-76604735D01*
X132162765Y-76525294D01*
X132059991Y-76479915D01*
X132059990Y-76479914D01*
X132059988Y-76479914D01*
X132034868Y-76477000D01*
X130945139Y-76477000D01*
X130945136Y-76477001D01*
X130920009Y-76479914D01*
X130817235Y-76525294D01*
X130737794Y-76604735D01*
X130692414Y-76707511D01*
X130689500Y-76732630D01*
X130689500Y-77822360D01*
X130689501Y-77822363D01*
X130692414Y-77847490D01*
X130707872Y-77882499D01*
X130737794Y-77950265D01*
X130817235Y-78029706D01*
X130920009Y-78075085D01*
X130945135Y-78078000D01*
X132034864Y-78077999D01*
X132059991Y-78075085D01*
X132162765Y-78029706D01*
X132242206Y-77950265D01*
X132246265Y-77941071D01*
X132287063Y-77895478D01*
X132346872Y-77882571D01*
X132395617Y-77901405D01*
X132476841Y-77961351D01*
X132476842Y-77961351D01*
X132476843Y-77961352D01*
X132602181Y-78005210D01*
X132629619Y-78007782D01*
X132631923Y-78007999D01*
X132631928Y-78008000D01*
X132631934Y-78008000D01*
X133078072Y-78008000D01*
X133078075Y-78007999D01*
X133107819Y-78005210D01*
X133233157Y-77961352D01*
X133248452Y-77950063D01*
X133306495Y-77930721D01*
X133364826Y-77949190D01*
X133377237Y-77959708D01*
X133397235Y-77979706D01*
X133500009Y-78025085D01*
X133525135Y-78028000D01*
X134864864Y-78027999D01*
X134889991Y-78025085D01*
X134925409Y-78009445D01*
X134986275Y-78003235D01*
X135035402Y-78030005D01*
X135195504Y-78190107D01*
X135223281Y-78244624D01*
X135224500Y-78260111D01*
X135224500Y-79294024D01*
X135205593Y-79352215D01*
X135205155Y-79352812D01*
X135150619Y-79426704D01*
X135107260Y-79550616D01*
X135107258Y-79550625D01*
X135104500Y-79580032D01*
X135104500Y-80054957D01*
X135107258Y-80084375D01*
X135107259Y-80084380D01*
X135150618Y-80208293D01*
X135178289Y-80245785D01*
X135228577Y-80313923D01*
X135236824Y-80320009D01*
X135272416Y-80369776D01*
X135271958Y-80430959D01*
X135266722Y-80443659D01*
X135246297Y-80484833D01*
X135246296Y-80484837D01*
X135227277Y-80552060D01*
X135227275Y-80552071D01*
X135215754Y-80638248D01*
X135227920Y-81867042D01*
X135209590Y-81925417D01*
X135172406Y-81956963D01*
X135073790Y-82005173D01*
X135073789Y-82005173D01*
X135073789Y-82005174D01*
X134985174Y-82093789D01*
X134985173Y-82093790D01*
X134985172Y-82093792D01*
X134980405Y-82100468D01*
X134978131Y-82098844D01*
X134944808Y-82133272D01*
X134884539Y-82143826D01*
X134844291Y-82128690D01*
X134831517Y-82120346D01*
X133790000Y-81440000D01*
X133789999Y-81440000D01*
X129170000Y-81450000D01*
X129170000Y-85010000D01*
X131087961Y-86712287D01*
X131216596Y-86826457D01*
X131247566Y-86879225D01*
X131241605Y-86940120D01*
X131200990Y-86985881D01*
X131150879Y-86999500D01*
X130500139Y-86999500D01*
X130500136Y-86999501D01*
X130475009Y-87002414D01*
X130372235Y-87047794D01*
X130292794Y-87127235D01*
X130247414Y-87230011D01*
X130244500Y-87255130D01*
X130244500Y-87844860D01*
X130244501Y-87844866D01*
X130247317Y-87869150D01*
X130235238Y-87929132D01*
X130190210Y-87970557D01*
X130129431Y-87977605D01*
X130116279Y-87973998D01*
X130102241Y-87969086D01*
X130082819Y-87962290D01*
X130082817Y-87962289D01*
X130082814Y-87962289D01*
X130053076Y-87959500D01*
X130053066Y-87959500D01*
X129606934Y-87959500D01*
X129606923Y-87959500D01*
X129577185Y-87962289D01*
X129577176Y-87962291D01*
X129451841Y-88006148D01*
X129365116Y-88070155D01*
X129307069Y-88089497D01*
X129306328Y-88089500D01*
X129279499Y-88089500D01*
X129221308Y-88070593D01*
X129185344Y-88021093D01*
X129180499Y-87990500D01*
X129180499Y-87925139D01*
X129180499Y-87925136D01*
X129177585Y-87900009D01*
X129132206Y-87797235D01*
X129052765Y-87717794D01*
X128949991Y-87672415D01*
X128949990Y-87672414D01*
X128949988Y-87672414D01*
X128924868Y-87669500D01*
X127835139Y-87669500D01*
X127835136Y-87669501D01*
X127810009Y-87672414D01*
X127707235Y-87717794D01*
X127627794Y-87797235D01*
X127582414Y-87900011D01*
X127579500Y-87925130D01*
X127579500Y-89014860D01*
X127579501Y-89014863D01*
X127582414Y-89039990D01*
X127607375Y-89096520D01*
X127627794Y-89142765D01*
X127707235Y-89222206D01*
X127810009Y-89267585D01*
X127835135Y-89270500D01*
X128924864Y-89270499D01*
X128949991Y-89267585D01*
X129052765Y-89222206D01*
X129132206Y-89142765D01*
X129173382Y-89049509D01*
X129214181Y-89003917D01*
X129263945Y-88990500D01*
X129306328Y-88990500D01*
X129364519Y-89009407D01*
X129365116Y-89009845D01*
X129451841Y-89073851D01*
X129451842Y-89073851D01*
X129451843Y-89073852D01*
X129577181Y-89117710D01*
X129604619Y-89120282D01*
X129606923Y-89120499D01*
X129606928Y-89120500D01*
X129606934Y-89120500D01*
X130053072Y-89120500D01*
X130053075Y-89120499D01*
X130082819Y-89117710D01*
X130208157Y-89073852D01*
X130254037Y-89039991D01*
X130284092Y-89017810D01*
X130342139Y-88998468D01*
X130382864Y-89006899D01*
X130475009Y-89047585D01*
X130500135Y-89050500D01*
X131839864Y-89050499D01*
X131864991Y-89047585D01*
X131900409Y-89031945D01*
X131961275Y-89025735D01*
X132010402Y-89052505D01*
X132190504Y-89232607D01*
X132218281Y-89287124D01*
X132219500Y-89302611D01*
X132219500Y-90346524D01*
X132200593Y-90404715D01*
X132200155Y-90405312D01*
X132145619Y-90479204D01*
X132102260Y-90603116D01*
X132102258Y-90603125D01*
X132099500Y-90632532D01*
X132099500Y-91107457D01*
X132102258Y-91136875D01*
X132102259Y-91136880D01*
X132145619Y-91260795D01*
X132223572Y-91366418D01*
X132223581Y-91366427D01*
X132329204Y-91444380D01*
X132329205Y-91444380D01*
X132329206Y-91444381D01*
X132453121Y-91487741D01*
X132482543Y-91490500D01*
X132857456Y-91490499D01*
X132857457Y-91490499D01*
X132863340Y-91489947D01*
X132886879Y-91487741D01*
X132897798Y-91483919D01*
X132958967Y-91482545D01*
X133009263Y-91517387D01*
X133029473Y-91575138D01*
X133029498Y-91577363D01*
X133029498Y-93182529D01*
X133024096Y-93209694D01*
X133025348Y-93210030D01*
X133023668Y-93216296D01*
X133019763Y-93245948D01*
X133017239Y-93258637D01*
X133009500Y-93287522D01*
X133009500Y-93317431D01*
X133008653Y-93330353D01*
X133004750Y-93359999D01*
X133008653Y-93389644D01*
X133009500Y-93402567D01*
X133009500Y-93432475D01*
X133017239Y-93461359D01*
X133019765Y-93474055D01*
X133023669Y-93503706D01*
X133023671Y-93503712D01*
X133035113Y-93531336D01*
X133039275Y-93543597D01*
X133047014Y-93572481D01*
X133047015Y-93572483D01*
X133047016Y-93572485D01*
X133059397Y-93593930D01*
X133061964Y-93598377D01*
X133067689Y-93609986D01*
X133079137Y-93637622D01*
X133097344Y-93661351D01*
X133104537Y-93672117D01*
X133119488Y-93698013D01*
X133140638Y-93719163D01*
X133149175Y-93728898D01*
X133162296Y-93745997D01*
X133182721Y-93803673D01*
X133165344Y-93862339D01*
X133153759Y-93876269D01*
X133077797Y-93952231D01*
X133032416Y-94055009D01*
X133029502Y-94080128D01*
X133029502Y-95419858D01*
X133029503Y-95419861D01*
X133032416Y-95444988D01*
X133057758Y-95502383D01*
X133077796Y-95547763D01*
X133157237Y-95627204D01*
X133260011Y-95672583D01*
X133285137Y-95675498D01*
X133849338Y-95675497D01*
X133907529Y-95694404D01*
X133943493Y-95743904D01*
X133943493Y-95805090D01*
X133942783Y-95807194D01*
X133932290Y-95837181D01*
X133932289Y-95837185D01*
X133929500Y-95866923D01*
X133929500Y-96313076D01*
X133932289Y-96342814D01*
X133932291Y-96342823D01*
X133976148Y-96468158D01*
X134048884Y-96566712D01*
X134068226Y-96624760D01*
X134049755Y-96683090D01*
X134000525Y-96719423D01*
X133969229Y-96724500D01*
X133745140Y-96724500D01*
X133745135Y-96724501D01*
X133720009Y-96727414D01*
X133617235Y-96772794D01*
X133537794Y-96852235D01*
X133492414Y-96955011D01*
X133489500Y-96980130D01*
X133489500Y-97949757D01*
X133470593Y-98007948D01*
X133421093Y-98043912D01*
X133359907Y-98043912D01*
X133334426Y-98031346D01*
X133300382Y-98007948D01*
X132870134Y-97712247D01*
X132865966Y-97709218D01*
X132279820Y-97259452D01*
X132265757Y-97248661D01*
X132261729Y-97245399D01*
X131686459Y-96754072D01*
X131682607Y-96750604D01*
X131133830Y-96229834D01*
X131130165Y-96226169D01*
X130609395Y-95677392D01*
X130605927Y-95673540D01*
X130178391Y-95172959D01*
X130114598Y-95098267D01*
X130111338Y-95094242D01*
X130027503Y-94984986D01*
X129650776Y-94494027D01*
X129647757Y-94489872D01*
X129219220Y-93866346D01*
X129216400Y-93862002D01*
X129194905Y-93826925D01*
X128821113Y-93216953D01*
X128818543Y-93212503D01*
X128798180Y-93174999D01*
X130169965Y-93174999D01*
X130188026Y-93312183D01*
X130240974Y-93440014D01*
X130240976Y-93440018D01*
X130324130Y-93548386D01*
X130325209Y-93549791D01*
X130434982Y-93634024D01*
X130562817Y-93686974D01*
X130700000Y-93705035D01*
X130837183Y-93686974D01*
X130965018Y-93634024D01*
X131074791Y-93549791D01*
X131159024Y-93440018D01*
X131211974Y-93312183D01*
X131230035Y-93175000D01*
X131215306Y-93063121D01*
X131211974Y-93037816D01*
X131171128Y-92939204D01*
X131159024Y-92909983D01*
X131074791Y-92800209D01*
X131074789Y-92800208D01*
X131074789Y-92800207D01*
X130965018Y-92715976D01*
X130965014Y-92715974D01*
X130837183Y-92663026D01*
X130837175Y-92663025D01*
X130700000Y-92644965D01*
X130699999Y-92644965D01*
X130562816Y-92663025D01*
X130562816Y-92663026D01*
X130434986Y-92715974D01*
X130434982Y-92715976D01*
X130325211Y-92800207D01*
X130325207Y-92800211D01*
X130240976Y-92909982D01*
X130240974Y-92909986D01*
X130188026Y-93037816D01*
X130188025Y-93037816D01*
X130169965Y-93174999D01*
X128798180Y-93174999D01*
X128457538Y-92547613D01*
X128455185Y-92542995D01*
X128366404Y-92356863D01*
X128129474Y-91860130D01*
X128127376Y-91855416D01*
X128044704Y-91655828D01*
X127837860Y-91156459D01*
X127836003Y-91151621D01*
X127830783Y-91136881D01*
X127592286Y-90463386D01*
X127583471Y-90438494D01*
X127581869Y-90433565D01*
X127490463Y-90124983D01*
X127366998Y-89708174D01*
X127365658Y-89703173D01*
X127350491Y-89640000D01*
X127189042Y-88967514D01*
X127187966Y-88962449D01*
X127183713Y-88939500D01*
X127050099Y-88218589D01*
X127049290Y-88213477D01*
X127044084Y-88173932D01*
X126950538Y-87463378D01*
X126950003Y-87458288D01*
X126890643Y-86704041D01*
X126890372Y-86698866D01*
X126889278Y-86657104D01*
X126870567Y-85942558D01*
X126870567Y-85937441D01*
X126890372Y-85181131D01*
X126890643Y-85175958D01*
X126900862Y-85046111D01*
X126950003Y-84421707D01*
X126950538Y-84416625D01*
X127049291Y-83666510D01*
X127050101Y-83661403D01*
X127053608Y-83642485D01*
X127187968Y-82917537D01*
X127189043Y-82912480D01*
X127195334Y-82886276D01*
X127365662Y-82176810D01*
X127367000Y-82171819D01*
X127370370Y-82160445D01*
X127581872Y-81446424D01*
X127583471Y-81441505D01*
X127586981Y-81431593D01*
X127836012Y-80728354D01*
X127837860Y-80723540D01*
X127841698Y-80714275D01*
X128127386Y-80024559D01*
X128129467Y-80019883D01*
X128455190Y-79336993D01*
X128457538Y-79332386D01*
X128460810Y-79326360D01*
X128818552Y-78667480D01*
X128821103Y-78663062D01*
X129216413Y-78017976D01*
X129219208Y-78013670D01*
X129647770Y-77390108D01*
X129650762Y-77385990D01*
X130111355Y-76785735D01*
X130114582Y-76781750D01*
X130605930Y-76206454D01*
X130609395Y-76202607D01*
X130627886Y-76183122D01*
X131130183Y-75653811D01*
X131133811Y-75650183D01*
X131682611Y-75129391D01*
X131686459Y-75125927D01*
X132261750Y-74634582D01*
X132265735Y-74631355D01*
X132865990Y-74170762D01*
X132870108Y-74167770D01*
X133493670Y-73739208D01*
X133497976Y-73736413D01*
X133598194Y-73674999D01*
X137219318Y-73674999D01*
X137219318Y-73675000D01*
X137239955Y-73831758D01*
X137239957Y-73831766D01*
X137300462Y-73977838D01*
X137300462Y-73977839D01*
X137300464Y-73977841D01*
X137396718Y-74103282D01*
X137522159Y-74199536D01*
X137668238Y-74260044D01*
X137785809Y-74275522D01*
X137824999Y-74280682D01*
X137825000Y-74280682D01*
X137825001Y-74280682D01*
X137856352Y-74276554D01*
X137981762Y-74260044D01*
X138127841Y-74199536D01*
X138253282Y-74103282D01*
X138349536Y-73977841D01*
X138410044Y-73831762D01*
X138430682Y-73675000D01*
X138410044Y-73518238D01*
X138371481Y-73425138D01*
X138349537Y-73372161D01*
X138349537Y-73372160D01*
X138253286Y-73246723D01*
X138253285Y-73246722D01*
X138253282Y-73246718D01*
X138253277Y-73246714D01*
X138253276Y-73246713D01*
X138159638Y-73174863D01*
X138127841Y-73150464D01*
X138127840Y-73150463D01*
X138127838Y-73150462D01*
X137981766Y-73089957D01*
X137981758Y-73089955D01*
X137825001Y-73069318D01*
X137824999Y-73069318D01*
X137668241Y-73089955D01*
X137668233Y-73089957D01*
X137522161Y-73150462D01*
X137522160Y-73150462D01*
X137396723Y-73246713D01*
X137396713Y-73246723D01*
X137300462Y-73372160D01*
X137300462Y-73372161D01*
X137239957Y-73518233D01*
X137239955Y-73518241D01*
X137219318Y-73674999D01*
X133598194Y-73674999D01*
X134143062Y-73341103D01*
X134147480Y-73338552D01*
X134812397Y-72977531D01*
X134816993Y-72975190D01*
X135499883Y-72649467D01*
X135504559Y-72647386D01*
X136203550Y-72357856D01*
X136208354Y-72356012D01*
X136921515Y-72103467D01*
X136926424Y-72101872D01*
X137651835Y-71886995D01*
X137656810Y-71885662D01*
X138392492Y-71709040D01*
X138397537Y-71707968D01*
X139141416Y-71570098D01*
X139146510Y-71569291D01*
X139896625Y-71470538D01*
X139901707Y-71470003D01*
X140655959Y-71410642D01*
X140661131Y-71410372D01*
X141417441Y-71390567D01*
X141422559Y-71390567D01*
X142178866Y-71410372D01*
G37*
G04 #@! TD.AperFunction*
G04 #@! TA.AperFunction,Conductor*
G36*
X144478691Y-93918907D02*
G01*
X144514655Y-93968407D01*
X144519500Y-93999000D01*
X144519500Y-94470500D01*
X144500593Y-94528691D01*
X144451093Y-94564655D01*
X144420500Y-94569500D01*
X144346923Y-94569500D01*
X144317185Y-94572289D01*
X144317177Y-94572291D01*
X144253869Y-94594444D01*
X144221171Y-94600000D01*
X143299000Y-94600000D01*
X143240809Y-94581093D01*
X143204845Y-94531593D01*
X143200000Y-94501000D01*
X143200000Y-93999000D01*
X143218907Y-93940809D01*
X143268407Y-93904845D01*
X143299000Y-93900000D01*
X144420500Y-93900000D01*
X144478691Y-93918907D01*
G37*
G04 #@! TD.AperFunction*
G04 #@! TA.AperFunction,Conductor*
G36*
X138417529Y-92720249D02*
G01*
X138460793Y-92763513D01*
X138470607Y-92794582D01*
X138477003Y-92839766D01*
X138479960Y-92850000D01*
X138164717Y-92850000D01*
X138216211Y-92824826D01*
X138302582Y-92738454D01*
X138357096Y-92710678D01*
X138417529Y-92720249D01*
G37*
G04 #@! TD.AperFunction*
G04 #@! TA.AperFunction,Conductor*
G36*
X138037028Y-87982723D02*
G01*
X138066769Y-88003162D01*
X140614087Y-90550480D01*
X140614089Y-90550481D01*
X140633046Y-90561426D01*
X140673988Y-90606895D01*
X140680384Y-90667745D01*
X140649792Y-90720734D01*
X140593896Y-90745621D01*
X140569276Y-90745129D01*
X140530637Y-90739500D01*
X140530636Y-90739500D01*
X140309364Y-90739500D01*
X140261304Y-90746502D01*
X140236374Y-90750134D01*
X140213479Y-90761327D01*
X140152896Y-90769896D01*
X140126521Y-90761327D01*
X140103625Y-90750134D01*
X140030636Y-90739500D01*
X139809364Y-90739500D01*
X139792383Y-90741974D01*
X139750238Y-90748114D01*
X139689929Y-90737793D01*
X139647205Y-90693995D01*
X139638385Y-90633448D01*
X139644499Y-90612271D01*
X139656330Y-90583709D01*
X139675250Y-90440000D01*
X139670968Y-90407479D01*
X139656330Y-90296291D01*
X139600861Y-90162375D01*
X139512621Y-90047379D01*
X139397625Y-89959139D01*
X139397621Y-89959137D01*
X139263709Y-89903670D01*
X139263708Y-89903669D01*
X139120000Y-89884750D01*
X138976291Y-89903669D01*
X138976290Y-89903670D01*
X138842378Y-89959137D01*
X138842374Y-89959139D01*
X138727381Y-90047377D01*
X138727377Y-90047381D01*
X138639139Y-90162374D01*
X138639137Y-90162378D01*
X138583670Y-90296290D01*
X138581473Y-90312977D01*
X138561867Y-90360315D01*
X138559510Y-90363386D01*
X138500200Y-90466112D01*
X138500200Y-90466113D01*
X138500201Y-90466114D01*
X138490823Y-90501115D01*
X138469500Y-90580692D01*
X138469500Y-90819456D01*
X138450593Y-90877647D01*
X138401093Y-90913611D01*
X138339907Y-90913611D01*
X138300498Y-90889461D01*
X138216211Y-90805174D01*
X138103625Y-90750134D01*
X138103626Y-90750134D01*
X138078696Y-90746502D01*
X138030636Y-90739500D01*
X137809364Y-90739500D01*
X137770728Y-90745129D01*
X137736373Y-90750134D01*
X137623790Y-90805173D01*
X137535173Y-90893790D01*
X137480134Y-91006373D01*
X137476136Y-91033814D01*
X137469737Y-91077742D01*
X137469500Y-91079367D01*
X137469500Y-91737823D01*
X137450593Y-91796014D01*
X137401093Y-91831978D01*
X137339907Y-91831978D01*
X137311712Y-91817478D01*
X137200796Y-91735619D01*
X137076884Y-91692260D01*
X137076875Y-91692258D01*
X137047466Y-91689500D01*
X136572543Y-91689500D01*
X136543125Y-91692258D01*
X136543120Y-91692259D01*
X136419205Y-91735619D01*
X136345313Y-91790155D01*
X136287266Y-91809497D01*
X136286525Y-91809500D01*
X136129497Y-91809500D01*
X136071306Y-91790593D01*
X136035342Y-91741093D01*
X136030497Y-91710500D01*
X136030497Y-91580141D01*
X136030497Y-91580138D01*
X136027583Y-91555011D01*
X135982204Y-91452237D01*
X135959341Y-91429374D01*
X135934556Y-91404588D01*
X135908933Y-91360205D01*
X135904542Y-91343817D01*
X135899797Y-91326112D01*
X135899795Y-91326107D01*
X135840489Y-91223386D01*
X135840488Y-91223384D01*
X135319496Y-90702392D01*
X135291719Y-90647875D01*
X135290500Y-90632388D01*
X135290500Y-90439500D01*
X135309407Y-90381309D01*
X135358907Y-90345345D01*
X135389500Y-90340500D01*
X136730632Y-90340500D01*
X136730636Y-90340500D01*
X136803625Y-90329866D01*
X136916211Y-90274826D01*
X137004826Y-90186211D01*
X137059866Y-90073625D01*
X137070500Y-90000636D01*
X137070500Y-89779364D01*
X137059866Y-89706375D01*
X137048672Y-89683479D01*
X137040102Y-89622898D01*
X137048673Y-89596520D01*
X137059866Y-89573625D01*
X137070500Y-89500636D01*
X137070500Y-89279364D01*
X137059866Y-89206375D01*
X137048672Y-89183479D01*
X137040102Y-89122898D01*
X137048673Y-89096520D01*
X137059866Y-89073625D01*
X137070500Y-89000636D01*
X137070500Y-88995110D01*
X137089407Y-88936919D01*
X137138907Y-88900955D01*
X137200093Y-88900955D01*
X137207364Y-88903638D01*
X137286291Y-88936330D01*
X137430000Y-88955250D01*
X137573709Y-88936330D01*
X137707625Y-88880861D01*
X137822621Y-88792621D01*
X137910861Y-88677625D01*
X137966330Y-88543709D01*
X137985250Y-88400000D01*
X137966330Y-88256291D01*
X137910861Y-88122375D01*
X137908378Y-88116380D01*
X137909587Y-88115879D01*
X137898307Y-88062822D01*
X137923191Y-88006925D01*
X137976178Y-87976330D01*
X138037028Y-87982723D01*
G37*
G04 #@! TD.AperFunction*
G04 #@! TA.AperFunction,Conductor*
G36*
X145549593Y-91391494D02*
G01*
X145554454Y-91398854D01*
X145584865Y-91449685D01*
X145602847Y-91479740D01*
X145649116Y-91532076D01*
X145649128Y-91532088D01*
X145694269Y-91573810D01*
X145694271Y-91573812D01*
X145694274Y-91573814D01*
X145694275Y-91573814D01*
X145694276Y-91573815D01*
X145706745Y-91580000D01*
X145370500Y-91580000D01*
X145370500Y-91449685D01*
X145389407Y-91391494D01*
X145438907Y-91355530D01*
X145500093Y-91355530D01*
X145549593Y-91391494D01*
G37*
G04 #@! TD.AperFunction*
G04 #@! TA.AperFunction,Conductor*
G36*
X138577954Y-83478186D02*
G01*
X138614115Y-83501218D01*
X144440504Y-89327607D01*
X144468281Y-89382124D01*
X144469500Y-89397611D01*
X144469500Y-90356289D01*
X144450593Y-90414480D01*
X144401093Y-90450444D01*
X144339907Y-90450444D01*
X144290407Y-90414480D01*
X144284764Y-90405790D01*
X144280490Y-90398388D01*
X144280489Y-90398386D01*
X144169418Y-90287315D01*
X144147961Y-90255200D01*
X144137523Y-90230000D01*
X144094024Y-90124983D01*
X144009791Y-90015209D01*
X144009789Y-90015208D01*
X144009789Y-90015207D01*
X143900018Y-89930976D01*
X143900014Y-89930974D01*
X143772183Y-89878026D01*
X143707393Y-89869496D01*
X143635000Y-89859965D01*
X143634999Y-89859965D01*
X143497816Y-89878025D01*
X143497816Y-89878026D01*
X143369986Y-89930974D01*
X143369982Y-89930976D01*
X143260211Y-90015207D01*
X143260207Y-90015211D01*
X143175976Y-90124982D01*
X143175974Y-90124986D01*
X143123026Y-90252816D01*
X143123025Y-90252816D01*
X143104965Y-90389999D01*
X143121895Y-90518598D01*
X143123026Y-90527183D01*
X143155876Y-90606491D01*
X143160675Y-90667487D01*
X143128705Y-90719656D01*
X143072177Y-90743070D01*
X143050141Y-90742341D01*
X143030640Y-90739500D01*
X143030636Y-90739500D01*
X142809364Y-90739500D01*
X142761304Y-90746502D01*
X142736374Y-90750134D01*
X142713479Y-90761327D01*
X142652896Y-90769896D01*
X142626521Y-90761327D01*
X142603625Y-90750134D01*
X142530636Y-90739500D01*
X142309364Y-90739500D01*
X142261304Y-90746502D01*
X142236374Y-90750134D01*
X142213479Y-90761327D01*
X142152896Y-90769896D01*
X142126521Y-90761327D01*
X142103625Y-90750134D01*
X142030636Y-90739500D01*
X142022178Y-90739500D01*
X141963987Y-90720593D01*
X141928023Y-90671093D01*
X141928023Y-90609907D01*
X141943636Y-90580232D01*
X141954469Y-90566114D01*
X142009024Y-90495018D01*
X142061974Y-90367183D01*
X142080035Y-90230000D01*
X142062856Y-90099512D01*
X142061974Y-90092816D01*
X142018045Y-89986763D01*
X142009024Y-89964983D01*
X141924791Y-89855209D01*
X141924789Y-89855208D01*
X141924789Y-89855207D01*
X141815018Y-89770976D01*
X141815014Y-89770974D01*
X141745519Y-89742189D01*
X141687183Y-89718026D01*
X141670170Y-89715786D01*
X141606112Y-89707352D01*
X141550887Y-89681010D01*
X141521693Y-89627239D01*
X141520278Y-89611850D01*
X141520034Y-89610002D01*
X141520035Y-89610000D01*
X141501974Y-89472817D01*
X141488024Y-89439139D01*
X141468583Y-89392204D01*
X141449024Y-89344983D01*
X141364791Y-89235209D01*
X141364789Y-89235208D01*
X141364789Y-89235207D01*
X141255018Y-89150976D01*
X141255014Y-89150974D01*
X141127184Y-89098026D01*
X141065187Y-89089863D01*
X141009963Y-89063521D01*
X141008107Y-89061714D01*
X137847991Y-85901598D01*
X137820214Y-85847081D01*
X137829785Y-85786649D01*
X137841540Y-85770475D01*
X137840841Y-85769939D01*
X137863429Y-85740502D01*
X137929024Y-85655018D01*
X137981974Y-85527183D01*
X138000035Y-85390000D01*
X137988963Y-85305898D01*
X137981974Y-85252816D01*
X137929025Y-85124986D01*
X137929024Y-85124983D01*
X137844791Y-85015209D01*
X137844789Y-85015208D01*
X137844789Y-85015207D01*
X137735018Y-84930976D01*
X137735014Y-84930974D01*
X137607183Y-84878026D01*
X137607175Y-84878025D01*
X137470000Y-84859965D01*
X137469999Y-84859965D01*
X137332816Y-84878025D01*
X137332815Y-84878026D01*
X137207385Y-84929980D01*
X137146388Y-84934780D01*
X137094219Y-84902811D01*
X137070805Y-84846283D01*
X137070500Y-84838516D01*
X137070500Y-84779367D01*
X137070500Y-84779364D01*
X137059866Y-84706375D01*
X137048672Y-84683479D01*
X137040102Y-84622898D01*
X137048673Y-84596520D01*
X137049520Y-84594788D01*
X137059866Y-84573625D01*
X137070500Y-84500636D01*
X137070500Y-84279364D01*
X137059866Y-84206375D01*
X137048672Y-84183479D01*
X137040102Y-84122898D01*
X137048673Y-84096520D01*
X137059866Y-84073625D01*
X137070500Y-84000636D01*
X137070500Y-83779364D01*
X137059866Y-83706375D01*
X137048672Y-83683479D01*
X137040102Y-83622898D01*
X137048673Y-83596520D01*
X137059866Y-83573625D01*
X137059866Y-83573621D01*
X137062136Y-83566278D01*
X137065278Y-83567249D01*
X137085991Y-83525277D01*
X137140147Y-83496803D01*
X137158600Y-83495895D01*
X137158600Y-83495500D01*
X138395996Y-83495500D01*
X138396000Y-83495500D01*
X138460941Y-83488518D01*
X138460949Y-83488516D01*
X138460951Y-83488516D01*
X138512426Y-83477318D01*
X138512430Y-83477316D01*
X138512452Y-83477312D01*
X138516809Y-83476062D01*
X138577954Y-83478186D01*
G37*
G04 #@! TD.AperFunction*
G04 #@! TA.AperFunction,Conductor*
G36*
X145329593Y-82594689D02*
G01*
X145334950Y-82602888D01*
X145390325Y-82697571D01*
X145390327Y-82697573D01*
X145429403Y-82742670D01*
X145436080Y-82750375D01*
X145480813Y-82792553D01*
X145580889Y-82843439D01*
X145580891Y-82843439D01*
X145580892Y-82843440D01*
X145622301Y-82855599D01*
X145647928Y-82863124D01*
X145734000Y-82875500D01*
X145734001Y-82875500D01*
X145892882Y-82875500D01*
X145905123Y-82875063D01*
X145908655Y-82875000D01*
X145922317Y-82875000D01*
X145935238Y-82875846D01*
X145936705Y-82876040D01*
X145938171Y-82875846D01*
X145951093Y-82875000D01*
X146041594Y-82875000D01*
X146081467Y-82872387D01*
X146081475Y-82872386D01*
X146081476Y-82872386D01*
X146084150Y-82872033D01*
X146098478Y-82870147D01*
X146158636Y-82881293D01*
X146200757Y-82925672D01*
X146208748Y-82986333D01*
X146179556Y-83040106D01*
X146160907Y-83054034D01*
X146134089Y-83069518D01*
X146134086Y-83069520D01*
X145851891Y-83351714D01*
X145797375Y-83379491D01*
X145794812Y-83379863D01*
X145732815Y-83388026D01*
X145604986Y-83440974D01*
X145604982Y-83440976D01*
X145495211Y-83525207D01*
X145495207Y-83525211D01*
X145410976Y-83634982D01*
X145410974Y-83634986D01*
X145358026Y-83762816D01*
X145358025Y-83762816D01*
X145347653Y-83841605D01*
X145321312Y-83896830D01*
X145313215Y-83901226D01*
X145329593Y-83913125D01*
X145347653Y-83958394D01*
X145358025Y-84037182D01*
X145358026Y-84037183D01*
X145410974Y-84165014D01*
X145410976Y-84165018D01*
X145495207Y-84274789D01*
X145495210Y-84274792D01*
X145501172Y-84279367D01*
X145604982Y-84359024D01*
X145732817Y-84411974D01*
X145870000Y-84430035D01*
X146007183Y-84411974D01*
X146132616Y-84360018D01*
X146193612Y-84355219D01*
X146245781Y-84387188D01*
X146269195Y-84443716D01*
X146269500Y-84451483D01*
X146269500Y-84500636D01*
X146280134Y-84573625D01*
X146291326Y-84596520D01*
X146291327Y-84596521D01*
X146299896Y-84657104D01*
X146291327Y-84683478D01*
X146280134Y-84706375D01*
X146269500Y-84779364D01*
X146269500Y-85000636D01*
X146276126Y-85046112D01*
X146280134Y-85073625D01*
X146291327Y-85096521D01*
X146299896Y-85157104D01*
X146291327Y-85183478D01*
X146280134Y-85206375D01*
X146272183Y-85260953D01*
X146269500Y-85279367D01*
X146269500Y-85282683D01*
X146250593Y-85340874D01*
X146201093Y-85376838D01*
X146157578Y-85380836D01*
X146075001Y-85369965D01*
X146075000Y-85369965D01*
X145937816Y-85388025D01*
X145937816Y-85388026D01*
X145809986Y-85440974D01*
X145809982Y-85440976D01*
X145700211Y-85525207D01*
X145700207Y-85525211D01*
X145615976Y-85634982D01*
X145615974Y-85634986D01*
X145563026Y-85762816D01*
X145563025Y-85762816D01*
X145552546Y-85842416D01*
X145544965Y-85900000D01*
X145549890Y-85937408D01*
X145563026Y-86037183D01*
X145615974Y-86165014D01*
X145615976Y-86165018D01*
X145700207Y-86274789D01*
X145700210Y-86274792D01*
X145706172Y-86279367D01*
X145809982Y-86359024D01*
X145937817Y-86411974D01*
X146075000Y-86430035D01*
X146158936Y-86418984D01*
X146219097Y-86430134D01*
X146261215Y-86474516D01*
X146269824Y-86502861D01*
X146280134Y-86573625D01*
X146291326Y-86596520D01*
X146291327Y-86596521D01*
X146299896Y-86657104D01*
X146291327Y-86683478D01*
X146290651Y-86684862D01*
X146280134Y-86706374D01*
X146279272Y-86712289D01*
X146269500Y-86779364D01*
X146269500Y-87000636D01*
X146280134Y-87073625D01*
X146291326Y-87096520D01*
X146291327Y-87096521D01*
X146299896Y-87157104D01*
X146291327Y-87183478D01*
X146289588Y-87187035D01*
X146287352Y-87191611D01*
X146280134Y-87206375D01*
X146269500Y-87279364D01*
X146269500Y-87500636D01*
X146270134Y-87504986D01*
X146280134Y-87573625D01*
X146291327Y-87596521D01*
X146299896Y-87657104D01*
X146291327Y-87683478D01*
X146280134Y-87706375D01*
X146269500Y-87779364D01*
X146269500Y-88000636D01*
X146280134Y-88073625D01*
X146290579Y-88094992D01*
X146291327Y-88096521D01*
X146299896Y-88157104D01*
X146291327Y-88183478D01*
X146280134Y-88206375D01*
X146269500Y-88279364D01*
X146269500Y-88500636D01*
X146280134Y-88573625D01*
X146291327Y-88596521D01*
X146299896Y-88657104D01*
X146291327Y-88683478D01*
X146289588Y-88687035D01*
X146282847Y-88700826D01*
X146280134Y-88706375D01*
X146269500Y-88779364D01*
X146269500Y-89000636D01*
X146280134Y-89073625D01*
X146291326Y-89096520D01*
X146291327Y-89096521D01*
X146299896Y-89157104D01*
X146291327Y-89183478D01*
X146289588Y-89187035D01*
X146280134Y-89206374D01*
X146269499Y-89279367D01*
X146269241Y-89282940D01*
X146267548Y-89282817D01*
X146250593Y-89335001D01*
X146201093Y-89370965D01*
X146157578Y-89374963D01*
X146080001Y-89364750D01*
X146080000Y-89364750D01*
X145936291Y-89383669D01*
X145936290Y-89383670D01*
X145802378Y-89439137D01*
X145802374Y-89439139D01*
X145687381Y-89527377D01*
X145687373Y-89527385D01*
X145676725Y-89541261D01*
X145663019Y-89555807D01*
X145639639Y-89576066D01*
X145639621Y-89576083D01*
X145597447Y-89620812D01*
X145557747Y-89698889D01*
X145514518Y-89742189D01*
X145454094Y-89751811D01*
X145399555Y-89724079D01*
X145371732Y-89669585D01*
X145370500Y-89654017D01*
X145370500Y-89110692D01*
X145360629Y-89073852D01*
X145339799Y-88996114D01*
X145339798Y-88996112D01*
X145307113Y-88939499D01*
X145307113Y-88939498D01*
X145280492Y-88893390D01*
X145280488Y-88893385D01*
X144841057Y-88453953D01*
X144813280Y-88399437D01*
X144822851Y-88339005D01*
X144866116Y-88295740D01*
X144898137Y-88285797D01*
X144927183Y-88281974D01*
X145055018Y-88229024D01*
X145164791Y-88144791D01*
X145249024Y-88035018D01*
X145301974Y-87907183D01*
X145320035Y-87770000D01*
X145319083Y-87762765D01*
X145301974Y-87632816D01*
X145249025Y-87504986D01*
X145249024Y-87504983D01*
X145170957Y-87403245D01*
X145150534Y-87345571D01*
X145150500Y-87342979D01*
X145150500Y-83971316D01*
X145169407Y-83913125D01*
X145187697Y-83899836D01*
X145162497Y-83875921D01*
X145150500Y-83828683D01*
X145150500Y-82652880D01*
X145169407Y-82594689D01*
X145218907Y-82558725D01*
X145280093Y-82558725D01*
X145329593Y-82594689D01*
G37*
G04 #@! TD.AperFunction*
G04 #@! TA.AperFunction,Conductor*
G36*
X137235020Y-87171413D02*
G01*
X137826837Y-87763230D01*
X137854614Y-87817747D01*
X137845043Y-87878179D01*
X137801778Y-87921444D01*
X137741346Y-87931015D01*
X137713773Y-87921251D01*
X137713620Y-87921622D01*
X137573709Y-87863670D01*
X137573708Y-87863669D01*
X137430000Y-87844750D01*
X137286291Y-87863669D01*
X137286290Y-87863670D01*
X137152378Y-87919137D01*
X137146757Y-87922383D01*
X137146130Y-87921297D01*
X137094830Y-87939466D01*
X137092235Y-87939500D01*
X136990544Y-87939500D01*
X136932353Y-87920593D01*
X136896389Y-87871093D01*
X136896389Y-87809907D01*
X136920538Y-87770498D01*
X137004826Y-87686211D01*
X137059866Y-87573625D01*
X137070500Y-87500636D01*
X137070500Y-87279364D01*
X137067050Y-87255687D01*
X137077370Y-87195382D01*
X137121167Y-87152657D01*
X137181713Y-87143835D01*
X137235020Y-87171413D01*
G37*
G04 #@! TD.AperFunction*
G04 #@! TA.AperFunction,Conductor*
G36*
X144713478Y-81518672D02*
G01*
X144736375Y-81529866D01*
X144774488Y-81535418D01*
X144829344Y-81562517D01*
X144857795Y-81616685D01*
X144848974Y-81677231D01*
X144830218Y-81703387D01*
X144429520Y-82104086D01*
X144429516Y-82104091D01*
X144376795Y-82195406D01*
X144361936Y-82250861D01*
X144349500Y-82297273D01*
X144349500Y-87447236D01*
X144332824Y-87498559D01*
X144334220Y-87499365D01*
X144330974Y-87504986D01*
X144278026Y-87632816D01*
X144274202Y-87661861D01*
X144247860Y-87717086D01*
X144194089Y-87746280D01*
X144133427Y-87738294D01*
X144106045Y-87718942D01*
X139399496Y-83012393D01*
X139371719Y-82957876D01*
X139370500Y-82942389D01*
X139370500Y-81758710D01*
X139389407Y-81700519D01*
X139438907Y-81664555D01*
X139500093Y-81664555D01*
X139549593Y-81700519D01*
X139555232Y-81709203D01*
X139559344Y-81716325D01*
X139559511Y-81716614D01*
X139995579Y-82152683D01*
X140017039Y-82184801D01*
X140070974Y-82315014D01*
X140070976Y-82315018D01*
X140115164Y-82372605D01*
X140155209Y-82424791D01*
X140264982Y-82509024D01*
X140392817Y-82561974D01*
X140530000Y-82580035D01*
X140667183Y-82561974D01*
X140795018Y-82509024D01*
X140904791Y-82424791D01*
X140989024Y-82315018D01*
X141041974Y-82187183D01*
X141060035Y-82050000D01*
X141054134Y-82005174D01*
X141041974Y-81912816D01*
X140989025Y-81784986D01*
X140989024Y-81784983D01*
X140923634Y-81699765D01*
X140903211Y-81642092D01*
X140920588Y-81583426D01*
X140969129Y-81546179D01*
X141002177Y-81540500D01*
X141030632Y-81540500D01*
X141030636Y-81540500D01*
X141103625Y-81529866D01*
X141126520Y-81518672D01*
X141187102Y-81510102D01*
X141213478Y-81518672D01*
X141236375Y-81529866D01*
X141309364Y-81540500D01*
X141309367Y-81540500D01*
X141530632Y-81540500D01*
X141530636Y-81540500D01*
X141603625Y-81529866D01*
X141626520Y-81518672D01*
X141687102Y-81510102D01*
X141713478Y-81518672D01*
X141736375Y-81529866D01*
X141809364Y-81540500D01*
X141920500Y-81540500D01*
X141978691Y-81559407D01*
X142014655Y-81608907D01*
X142019500Y-81639500D01*
X142019500Y-82568139D01*
X142000593Y-82626330D01*
X141999065Y-82628376D01*
X141997258Y-82630732D01*
X141970974Y-82664986D01*
X141918026Y-82792816D01*
X141918025Y-82792816D01*
X141901941Y-82914989D01*
X141899965Y-82930000D01*
X141900904Y-82937129D01*
X141918026Y-83067183D01*
X141970974Y-83195014D01*
X141970976Y-83195018D01*
X142020105Y-83259044D01*
X142055209Y-83304791D01*
X142164982Y-83389024D01*
X142292817Y-83441974D01*
X142430000Y-83460035D01*
X142567183Y-83441974D01*
X142695018Y-83389024D01*
X142804791Y-83304791D01*
X142889024Y-83195018D01*
X142941974Y-83067183D01*
X142960035Y-82930000D01*
X142957729Y-82912480D01*
X142941974Y-82792816D01*
X142902522Y-82697571D01*
X142889024Y-82664983D01*
X142889023Y-82664982D01*
X142889023Y-82664981D01*
X142840958Y-82602342D01*
X142820534Y-82544666D01*
X142820500Y-82542075D01*
X142820500Y-81639500D01*
X142839407Y-81581309D01*
X142888907Y-81545345D01*
X142919500Y-81540500D01*
X143030632Y-81540500D01*
X143030636Y-81540500D01*
X143103625Y-81529866D01*
X143126520Y-81518672D01*
X143187102Y-81510102D01*
X143213478Y-81518672D01*
X143236375Y-81529866D01*
X143309364Y-81540500D01*
X143309367Y-81540500D01*
X143530632Y-81540500D01*
X143530636Y-81540500D01*
X143603625Y-81529866D01*
X143626520Y-81518672D01*
X143687102Y-81510102D01*
X143713478Y-81518672D01*
X143736375Y-81529866D01*
X143809364Y-81540500D01*
X143809367Y-81540500D01*
X144030632Y-81540500D01*
X144030636Y-81540500D01*
X144103625Y-81529866D01*
X144126520Y-81518672D01*
X144187102Y-81510102D01*
X144213478Y-81518672D01*
X144236375Y-81529866D01*
X144309364Y-81540500D01*
X144309367Y-81540500D01*
X144530632Y-81540500D01*
X144530636Y-81540500D01*
X144603625Y-81529866D01*
X144626520Y-81518672D01*
X144687102Y-81510102D01*
X144713478Y-81518672D01*
G37*
G04 #@! TD.AperFunction*
M02*
