%TF.GenerationSoftware,KiCad,Pcbnew,8.0.6*%
%TF.CreationDate,2025-07-21T23:47:09+02:00*%
%TF.ProjectId,STM32,53544d33-322e-46b6-9963-61645f706362,rev?*%
%TF.SameCoordinates,Original*%
%TF.FileFunction,Drillmap*%
%TF.FilePolarity,Positive*%
%FSLAX45Y45*%
G04 Gerber Fmt 4.5, Leading zero omitted, Abs format (unit mm)*
G04 Created by KiCad (PCBNEW 8.0.6) date 2025-07-21 23:47:09*
%MOMM*%
%LPD*%
G01*
G04 APERTURE LIST*
%ADD10C,0.050000*%
%ADD11C,0.200000*%
%ADD12C,0.100000*%
G04 APERTURE END LIST*
D10*
X15622000Y-8594000D02*
G75*
G02*
X12662000Y-8594000I-1480000J0D01*
G01*
X12662000Y-8594000D02*
G75*
G02*
X15622000Y-8594000I1480000J0D01*
G01*
D11*
D12*
X12797500Y-8425000D02*
X12827500Y-8455000D01*
X12827500Y-8425000D02*
X12797500Y-8455000D01*
X12922500Y-9197500D02*
X12952500Y-9227500D01*
X12952500Y-9197500D02*
X12922500Y-9227500D01*
X12945000Y-8007500D02*
X12975000Y-8037500D01*
X12975000Y-8007500D02*
X12945000Y-8037500D01*
X12960000Y-8185000D02*
X12990000Y-8215000D01*
X12990000Y-8185000D02*
X12960000Y-8215000D01*
X12961000Y-8250000D02*
X12991000Y-8280000D01*
X12991000Y-8250000D02*
X12961000Y-8280000D01*
X12962000Y-8312000D02*
X12992000Y-8342000D01*
X12992000Y-8312000D02*
X12962000Y-8342000D01*
X12962000Y-8380000D02*
X12992000Y-8410000D01*
X12992000Y-8380000D02*
X12962000Y-8410000D01*
X12963000Y-8446000D02*
X12993000Y-8476000D01*
X12993000Y-8446000D02*
X12963000Y-8476000D01*
X12983000Y-9059000D02*
X13013000Y-9089000D01*
X13013000Y-9059000D02*
X12983000Y-9089000D01*
X13022000Y-8187000D02*
X13052000Y-8217000D01*
X13052000Y-8187000D02*
X13022000Y-8217000D01*
X13022500Y-8505500D02*
X13052500Y-8535500D01*
X13052500Y-8505500D02*
X13022500Y-8535500D01*
X13055000Y-9302500D02*
X13085000Y-9332500D01*
X13085000Y-9302500D02*
X13055000Y-9332500D01*
X13076500Y-8559500D02*
X13106500Y-8589500D01*
X13106500Y-8559500D02*
X13076500Y-8589500D01*
X13085000Y-8185000D02*
X13115000Y-8215000D01*
X13115000Y-8185000D02*
X13085000Y-8215000D01*
X13104000Y-9009000D02*
X13134000Y-9039000D01*
X13134000Y-9009000D02*
X13104000Y-9039000D01*
X13138000Y-8621000D02*
X13168000Y-8651000D01*
X13168000Y-8621000D02*
X13138000Y-8651000D01*
X13147500Y-8002500D02*
X13177500Y-8032500D01*
X13177500Y-8002500D02*
X13147500Y-8032500D01*
X13160000Y-8185000D02*
X13190000Y-8215000D01*
X13190000Y-8185000D02*
X13160000Y-8215000D01*
X13173000Y-9399000D02*
X13203000Y-9429000D01*
X13203000Y-9399000D02*
X13173000Y-9429000D01*
X13210000Y-8649000D02*
X13240000Y-8679000D01*
X13240000Y-8649000D02*
X13210000Y-8679000D01*
X13235000Y-8185000D02*
X13265000Y-8215000D01*
X13265000Y-8185000D02*
X13235000Y-8215000D01*
X13283000Y-8648000D02*
X13313000Y-8678000D01*
X13313000Y-8648000D02*
X13283000Y-8678000D01*
X13290000Y-7935000D02*
X13320000Y-7965000D01*
X13320000Y-7935000D02*
X13290000Y-7965000D01*
X13300000Y-8185000D02*
X13330000Y-8215000D01*
X13330000Y-8185000D02*
X13300000Y-8215000D01*
X13341000Y-9321000D02*
X13371000Y-9351000D01*
X13371000Y-9321000D02*
X13341000Y-9351000D01*
X13346000Y-8648000D02*
X13376000Y-8678000D01*
X13376000Y-8648000D02*
X13346000Y-8678000D01*
X13352000Y-8807000D02*
X13382000Y-8837000D01*
X13382000Y-8807000D02*
X13352000Y-8837000D01*
X13385000Y-8185000D02*
X13415000Y-8215000D01*
X13415000Y-8185000D02*
X13385000Y-8215000D01*
X13403500Y-7899750D02*
X13433500Y-7929750D01*
X13433500Y-7899750D02*
X13403500Y-7929750D01*
X13407000Y-8646000D02*
X13437000Y-8676000D01*
X13437000Y-8646000D02*
X13407000Y-8676000D01*
X13435000Y-8235000D02*
X13465000Y-8265000D01*
X13465000Y-8235000D02*
X13435000Y-8265000D01*
X13447000Y-8530000D02*
X13477000Y-8560000D01*
X13477000Y-8530000D02*
X13447000Y-8560000D01*
X13448000Y-8600000D02*
X13478000Y-8630000D01*
X13478000Y-8600000D02*
X13448000Y-8630000D01*
X13470000Y-7485000D02*
X13500000Y-7515000D01*
X13500000Y-7485000D02*
X13470000Y-7515000D01*
X13475000Y-8060000D02*
X13505000Y-8090000D01*
X13505000Y-8060000D02*
X13475000Y-8090000D01*
X13547500Y-7636750D02*
X13577500Y-7666750D01*
X13577500Y-7636750D02*
X13547500Y-7666750D01*
X13608000Y-9398000D02*
X13638000Y-9428000D01*
X13638000Y-9398000D02*
X13608000Y-9428000D01*
X13659000Y-8071000D02*
X13689000Y-8101000D01*
X13689000Y-8071000D02*
X13659000Y-8101000D01*
X13661000Y-8129000D02*
X13691000Y-8159000D01*
X13691000Y-8129000D02*
X13661000Y-8159000D01*
X13667500Y-7350000D02*
X13697500Y-7380000D01*
X13697500Y-7350000D02*
X13667500Y-7380000D01*
X13705000Y-9492500D02*
X13735000Y-9522500D01*
X13735000Y-9492500D02*
X13705000Y-9522500D01*
X13705000Y-9607500D02*
X13735000Y-9637500D01*
X13735000Y-9607500D02*
X13705000Y-9637500D01*
X13705000Y-9882500D02*
X13735000Y-9912500D01*
X13735000Y-9882500D02*
X13705000Y-9912500D01*
X13712500Y-9730000D02*
X13742500Y-9760000D01*
X13742500Y-9730000D02*
X13712500Y-9760000D01*
X13715000Y-8070000D02*
X13745000Y-8100000D01*
X13745000Y-8070000D02*
X13715000Y-8100000D01*
X13715000Y-8223000D02*
X13745000Y-8253000D01*
X13745000Y-8223000D02*
X13715000Y-8253000D01*
X13716000Y-8128000D02*
X13746000Y-8158000D01*
X13746000Y-8128000D02*
X13716000Y-8158000D01*
X13728000Y-8755000D02*
X13758000Y-8785000D01*
X13758000Y-8755000D02*
X13728000Y-8785000D01*
X13728000Y-8825000D02*
X13758000Y-8855000D01*
X13758000Y-8825000D02*
X13728000Y-8855000D01*
X13732000Y-8524000D02*
X13762000Y-8554000D01*
X13762000Y-8524000D02*
X13732000Y-8554000D01*
X13767500Y-7352500D02*
X13797500Y-7382500D01*
X13797500Y-7352500D02*
X13767500Y-7382500D01*
X13774000Y-8221000D02*
X13804000Y-8251000D01*
X13804000Y-8221000D02*
X13774000Y-8251000D01*
X13777000Y-8161000D02*
X13807000Y-8191000D01*
X13807000Y-8161000D02*
X13777000Y-8191000D01*
X13785000Y-7897500D02*
X13815000Y-7927500D01*
X13815000Y-7897500D02*
X13785000Y-7927500D01*
X13801000Y-8972000D02*
X13831000Y-9002000D01*
X13831000Y-8972000D02*
X13801000Y-9002000D01*
X13802000Y-9030000D02*
X13832000Y-9060000D01*
X13832000Y-9030000D02*
X13802000Y-9060000D01*
X13835000Y-9765000D02*
X13865000Y-9795000D01*
X13865000Y-9765000D02*
X13835000Y-9795000D01*
X13852500Y-7670000D02*
X13882500Y-7700000D01*
X13882500Y-7670000D02*
X13852500Y-7700000D01*
X13897000Y-9029000D02*
X13927000Y-9059000D01*
X13927000Y-9029000D02*
X13897000Y-9059000D01*
X13923000Y-9758000D02*
X13953000Y-9788000D01*
X13953000Y-9758000D02*
X13923000Y-9788000D01*
X13957500Y-7232500D02*
X13987500Y-7262500D01*
X13987500Y-7232500D02*
X13957500Y-7262500D01*
X13988000Y-9457000D02*
X14018000Y-9487000D01*
X14018000Y-9457000D02*
X13988000Y-9487000D01*
X13997000Y-9350000D02*
X14027000Y-9380000D01*
X14027000Y-9350000D02*
X13997000Y-9380000D01*
X14038000Y-8190000D02*
X14068000Y-8220000D01*
X14068000Y-8190000D02*
X14038000Y-8220000D01*
X14063995Y-9919000D02*
X14093995Y-9949000D01*
X14093995Y-9919000D02*
X14063995Y-9949000D01*
X14067000Y-7388000D02*
X14097000Y-7418000D01*
X14097000Y-7388000D02*
X14067000Y-7418000D01*
X14072500Y-8625000D02*
X14102500Y-8655000D01*
X14102500Y-8625000D02*
X14072500Y-8655000D01*
X14084000Y-8946000D02*
X14114000Y-8976000D01*
X14114000Y-8946000D02*
X14084000Y-8976000D01*
X14092000Y-7530000D02*
X14122000Y-7560000D01*
X14122000Y-7530000D02*
X14092000Y-7560000D01*
X14095000Y-8158000D02*
X14125000Y-8188000D01*
X14125000Y-8158000D02*
X14095000Y-8188000D01*
X14120000Y-9672000D02*
X14150000Y-9702000D01*
X14150000Y-9672000D02*
X14120000Y-9702000D01*
X14140000Y-8907000D02*
X14170000Y-8937000D01*
X14170000Y-8907000D02*
X14140000Y-8937000D01*
X14140000Y-9008000D02*
X14170000Y-9038000D01*
X14170000Y-9008000D02*
X14140000Y-9038000D01*
X14170500Y-8377500D02*
X14200500Y-8407500D01*
X14200500Y-8377500D02*
X14170500Y-8407500D01*
X14182995Y-9652930D02*
X14212995Y-9682930D01*
X14212995Y-9652930D02*
X14182995Y-9682930D01*
X14186995Y-9967000D02*
X14216995Y-9997000D01*
X14216995Y-9967000D02*
X14186995Y-9997000D01*
X14188000Y-8960000D02*
X14218000Y-8990000D01*
X14218000Y-8960000D02*
X14188000Y-8990000D01*
X14228000Y-8278000D02*
X14258000Y-8308000D01*
X14258000Y-8278000D02*
X14228000Y-8308000D01*
X14266995Y-9965000D02*
X14296995Y-9995000D01*
X14296995Y-9965000D02*
X14266995Y-9995000D01*
X14268995Y-9650930D02*
X14298995Y-9680930D01*
X14298995Y-9650930D02*
X14268995Y-9680930D01*
X14309500Y-7778000D02*
X14339500Y-7808000D01*
X14339500Y-7778000D02*
X14309500Y-7808000D01*
X14331000Y-9412000D02*
X14361000Y-9442000D01*
X14361000Y-9412000D02*
X14331000Y-9442000D01*
X14335500Y-8395000D02*
X14365500Y-8425000D01*
X14365500Y-8395000D02*
X14335500Y-8425000D01*
X14336000Y-9672000D02*
X14366000Y-9702000D01*
X14366000Y-9672000D02*
X14336000Y-9702000D01*
X14348500Y-9024000D02*
X14378500Y-9054000D01*
X14378500Y-9024000D02*
X14348500Y-9054000D01*
X14385000Y-8695000D02*
X14415000Y-8725000D01*
X14415000Y-8695000D02*
X14385000Y-8725000D01*
X14389995Y-9919000D02*
X14419995Y-9949000D01*
X14419995Y-9919000D02*
X14389995Y-9949000D01*
X14404000Y-8986000D02*
X14434000Y-9016000D01*
X14434000Y-8986000D02*
X14404000Y-9016000D01*
X14464000Y-8762000D02*
X14494000Y-8792000D01*
X14494000Y-8762000D02*
X14464000Y-8792000D01*
X14487000Y-9674000D02*
X14517000Y-9704000D01*
X14517000Y-9674000D02*
X14487000Y-9704000D01*
X14503000Y-9757930D02*
X14533000Y-9787930D01*
X14533000Y-9757930D02*
X14503000Y-9787930D01*
X14520000Y-8336000D02*
X14550000Y-8366000D01*
X14550000Y-8336000D02*
X14520000Y-8366000D01*
X14572000Y-8375000D02*
X14602000Y-8405000D01*
X14602000Y-8375000D02*
X14572000Y-8405000D01*
X14578670Y-8217079D02*
X14608670Y-8247079D01*
X14608670Y-8217079D02*
X14578670Y-8247079D01*
X14582000Y-8287000D02*
X14612000Y-8317000D01*
X14612000Y-8287000D02*
X14582000Y-8317000D01*
X14584000Y-9166000D02*
X14614000Y-9196000D01*
X14614000Y-9166000D02*
X14584000Y-9196000D01*
X14585000Y-9231000D02*
X14615000Y-9261000D01*
X14615000Y-9231000D02*
X14585000Y-9261000D01*
X14592000Y-9037000D02*
X14622000Y-9067000D01*
X14622000Y-9037000D02*
X14592000Y-9067000D01*
X14592500Y-8575000D02*
X14622500Y-8605000D01*
X14622500Y-8575000D02*
X14592500Y-8605000D01*
X14593000Y-8977000D02*
X14623000Y-9007000D01*
X14623000Y-8977000D02*
X14593000Y-9007000D01*
X14593000Y-9097000D02*
X14623000Y-9127000D01*
X14623000Y-9097000D02*
X14593000Y-9127000D01*
X14659000Y-8039000D02*
X14689000Y-8069000D01*
X14689000Y-8039000D02*
X14659000Y-8069000D01*
X14659000Y-9081000D02*
X14689000Y-9111000D01*
X14689000Y-9081000D02*
X14659000Y-9111000D01*
X14660000Y-8102000D02*
X14690000Y-8132000D01*
X14690000Y-8102000D02*
X14660000Y-8132000D01*
X14660000Y-8161000D02*
X14690000Y-8191000D01*
X14690000Y-8161000D02*
X14660000Y-8191000D01*
X14725000Y-8039000D02*
X14755000Y-8069000D01*
X14755000Y-8039000D02*
X14725000Y-8069000D01*
X14726000Y-8162000D02*
X14756000Y-8192000D01*
X14756000Y-8162000D02*
X14726000Y-8192000D01*
X14727000Y-8101000D02*
X14757000Y-8131000D01*
X14757000Y-8101000D02*
X14727000Y-8131000D01*
X14898000Y-9684000D02*
X14928000Y-9714000D01*
X14928000Y-9684000D02*
X14898000Y-9714000D01*
X14899000Y-8030000D02*
X14929000Y-8060000D01*
X14929000Y-8030000D02*
X14899000Y-8060000D01*
X14907000Y-9081000D02*
X14937000Y-9111000D01*
X14937000Y-9081000D02*
X14907000Y-9111000D01*
X14907000Y-9154000D02*
X14937000Y-9184000D01*
X14937000Y-9154000D02*
X14907000Y-9184000D01*
X14925000Y-7532500D02*
X14955000Y-7562500D01*
X14955000Y-7532500D02*
X14925000Y-7562500D01*
X14950000Y-7695000D02*
X14980000Y-7725000D01*
X14980000Y-7695000D02*
X14950000Y-7725000D01*
X14962000Y-9155000D02*
X14992000Y-9185000D01*
X14992000Y-9155000D02*
X14962000Y-9185000D01*
X14966000Y-9081000D02*
X14996000Y-9111000D01*
X14996000Y-9081000D02*
X14966000Y-9111000D01*
X15017000Y-9156000D02*
X15047000Y-9186000D01*
X15047000Y-9156000D02*
X15017000Y-9186000D01*
X15032000Y-8029000D02*
X15062000Y-8059000D01*
X15062000Y-8029000D02*
X15032000Y-8059000D01*
X15046000Y-8814000D02*
X15076000Y-8844000D01*
X15076000Y-8814000D02*
X15046000Y-8844000D01*
X15080000Y-9510000D02*
X15110000Y-9540000D01*
X15110000Y-9510000D02*
X15080000Y-9540000D01*
X15090000Y-7671000D02*
X15120000Y-7701000D01*
X15120000Y-7671000D02*
X15090000Y-7701000D01*
X15190000Y-8395000D02*
X15220000Y-8425000D01*
X15220000Y-8395000D02*
X15190000Y-8425000D01*
X15195000Y-8062000D02*
X15225000Y-8092000D01*
X15225000Y-8062000D02*
X15195000Y-8092000D01*
X15206000Y-8548000D02*
X15236000Y-8578000D01*
X15236000Y-8548000D02*
X15206000Y-8578000D01*
X15269000Y-8064000D02*
X15299000Y-8094000D01*
X15299000Y-8064000D02*
X15269000Y-8094000D01*
X15395000Y-8962500D02*
X15425000Y-8992500D01*
X15425000Y-8962500D02*
X15395000Y-8992500D01*
X15445000Y-8445000D02*
X15475000Y-8475000D01*
X15475000Y-8445000D02*
X15445000Y-8475000D01*
X12870500Y-8847000D02*
G75*
G02*
X12805500Y-8847000I-32500J0D01*
G01*
X12805500Y-8847000D02*
G75*
G02*
X12870500Y-8847000I32500J0D01*
G01*
X12870500Y-8974000D02*
G75*
G02*
X12805500Y-8974000I-32500J0D01*
G01*
X12805500Y-8974000D02*
G75*
G02*
X12870500Y-8974000I32500J0D01*
G01*
X13181500Y-7727750D02*
G75*
G02*
X13116500Y-7727750I-32500J0D01*
G01*
X13116500Y-7727750D02*
G75*
G02*
X13181500Y-7727750I32500J0D01*
G01*
X13181500Y-7854750D02*
G75*
G02*
X13116500Y-7854750I-32500J0D01*
G01*
X13116500Y-7854750D02*
G75*
G02*
X13181500Y-7854750I32500J0D01*
G01*
X13461500Y-9752500D02*
G75*
G02*
X13396500Y-9752500I-32500J0D01*
G01*
X13396500Y-9752500D02*
G75*
G02*
X13461500Y-9752500I32500J0D01*
G01*
X13588500Y-9752500D02*
G75*
G02*
X13523500Y-9752500I-32500J0D01*
G01*
X13523500Y-9752500D02*
G75*
G02*
X13588500Y-9752500I32500J0D01*
G01*
X13885500Y-9614000D02*
G75*
G02*
X13820500Y-9614000I-32500J0D01*
G01*
X13820500Y-9614000D02*
G75*
G02*
X13885500Y-9614000I32500J0D01*
G01*
X14012500Y-9614000D02*
G75*
G02*
X13947500Y-9614000I-32500J0D01*
G01*
X13947500Y-9614000D02*
G75*
G02*
X14012500Y-9614000I32500J0D01*
G01*
X14208000Y-7263000D02*
G75*
G02*
X14143000Y-7263000I-32500J0D01*
G01*
X14143000Y-7263000D02*
G75*
G02*
X14208000Y-7263000I32500J0D01*
G01*
X14335000Y-7263000D02*
G75*
G02*
X14270000Y-7263000I-32500J0D01*
G01*
X14270000Y-7263000D02*
G75*
G02*
X14335000Y-7263000I32500J0D01*
G01*
X14576000Y-7397000D02*
G75*
G02*
X14511000Y-7397000I-32500J0D01*
G01*
X14511000Y-7397000D02*
G75*
G02*
X14576000Y-7397000I32500J0D01*
G01*
X14703000Y-7397000D02*
G75*
G02*
X14638000Y-7397000I-32500J0D01*
G01*
X14638000Y-7397000D02*
G75*
G02*
X14703000Y-7397000I32500J0D01*
G01*
X14954000Y-8149000D02*
G75*
G02*
X14889000Y-8149000I-32500J0D01*
G01*
X14889000Y-8149000D02*
G75*
G02*
X14954000Y-8149000I32500J0D01*
G01*
X15081000Y-8149000D02*
G75*
G02*
X15016000Y-8149000I-32500J0D01*
G01*
X15016000Y-8149000D02*
G75*
G02*
X15081000Y-8149000I32500J0D01*
G01*
X15263000Y-7770500D02*
G75*
G02*
X15198000Y-7770500I-32500J0D01*
G01*
X15198000Y-7770500D02*
G75*
G02*
X15263000Y-7770500I32500J0D01*
G01*
X15263000Y-7897500D02*
G75*
G02*
X15198000Y-7897500I-32500J0D01*
G01*
X15198000Y-7897500D02*
G75*
G02*
X15263000Y-7897500I32500J0D01*
G01*
X15534000Y-8603500D02*
G75*
G02*
X15469000Y-8603500I-32500J0D01*
G01*
X15469000Y-8603500D02*
G75*
G02*
X15534000Y-8603500I32500J0D01*
G01*
X15534000Y-8730500D02*
G75*
G02*
X15469000Y-8730500I-32500J0D01*
G01*
X15469000Y-8730500D02*
G75*
G02*
X15534000Y-8730500I32500J0D01*
G01*
D11*
X12920277Y-10387984D02*
X12920277Y-10187984D01*
X12920277Y-10187984D02*
X12967896Y-10187984D01*
X12967896Y-10187984D02*
X12996467Y-10197508D01*
X12996467Y-10197508D02*
X13015515Y-10216555D01*
X13015515Y-10216555D02*
X13025039Y-10235603D01*
X13025039Y-10235603D02*
X13034562Y-10273698D01*
X13034562Y-10273698D02*
X13034562Y-10302270D01*
X13034562Y-10302270D02*
X13025039Y-10340365D01*
X13025039Y-10340365D02*
X13015515Y-10359412D01*
X13015515Y-10359412D02*
X12996467Y-10378460D01*
X12996467Y-10378460D02*
X12967896Y-10387984D01*
X12967896Y-10387984D02*
X12920277Y-10387984D01*
X13120277Y-10387984D02*
X13120277Y-10254650D01*
X13120277Y-10292746D02*
X13129801Y-10273698D01*
X13129801Y-10273698D02*
X13139324Y-10264174D01*
X13139324Y-10264174D02*
X13158372Y-10254650D01*
X13158372Y-10254650D02*
X13177420Y-10254650D01*
X13244086Y-10387984D02*
X13244086Y-10254650D01*
X13244086Y-10187984D02*
X13234562Y-10197508D01*
X13234562Y-10197508D02*
X13244086Y-10207031D01*
X13244086Y-10207031D02*
X13253610Y-10197508D01*
X13253610Y-10197508D02*
X13244086Y-10187984D01*
X13244086Y-10187984D02*
X13244086Y-10207031D01*
X13367896Y-10387984D02*
X13348848Y-10378460D01*
X13348848Y-10378460D02*
X13339324Y-10359412D01*
X13339324Y-10359412D02*
X13339324Y-10187984D01*
X13472658Y-10387984D02*
X13453610Y-10378460D01*
X13453610Y-10378460D02*
X13444086Y-10359412D01*
X13444086Y-10359412D02*
X13444086Y-10187984D01*
X13701229Y-10387984D02*
X13701229Y-10187984D01*
X13701229Y-10187984D02*
X13767896Y-10330841D01*
X13767896Y-10330841D02*
X13834562Y-10187984D01*
X13834562Y-10187984D02*
X13834562Y-10387984D01*
X14015515Y-10387984D02*
X14015515Y-10283222D01*
X14015515Y-10283222D02*
X14005991Y-10264174D01*
X14005991Y-10264174D02*
X13986943Y-10254650D01*
X13986943Y-10254650D02*
X13948848Y-10254650D01*
X13948848Y-10254650D02*
X13929801Y-10264174D01*
X14015515Y-10378460D02*
X13996467Y-10387984D01*
X13996467Y-10387984D02*
X13948848Y-10387984D01*
X13948848Y-10387984D02*
X13929801Y-10378460D01*
X13929801Y-10378460D02*
X13920277Y-10359412D01*
X13920277Y-10359412D02*
X13920277Y-10340365D01*
X13920277Y-10340365D02*
X13929801Y-10321317D01*
X13929801Y-10321317D02*
X13948848Y-10311793D01*
X13948848Y-10311793D02*
X13996467Y-10311793D01*
X13996467Y-10311793D02*
X14015515Y-10302270D01*
X14110753Y-10254650D02*
X14110753Y-10454650D01*
X14110753Y-10264174D02*
X14129801Y-10254650D01*
X14129801Y-10254650D02*
X14167896Y-10254650D01*
X14167896Y-10254650D02*
X14186943Y-10264174D01*
X14186943Y-10264174D02*
X14196467Y-10273698D01*
X14196467Y-10273698D02*
X14205991Y-10292746D01*
X14205991Y-10292746D02*
X14205991Y-10349889D01*
X14205991Y-10349889D02*
X14196467Y-10368936D01*
X14196467Y-10368936D02*
X14186943Y-10378460D01*
X14186943Y-10378460D02*
X14167896Y-10387984D01*
X14167896Y-10387984D02*
X14129801Y-10387984D01*
X14129801Y-10387984D02*
X14110753Y-10378460D01*
X14291705Y-10368936D02*
X14301229Y-10378460D01*
X14301229Y-10378460D02*
X14291705Y-10387984D01*
X14291705Y-10387984D02*
X14282182Y-10378460D01*
X14282182Y-10378460D02*
X14291705Y-10368936D01*
X14291705Y-10368936D02*
X14291705Y-10387984D01*
X14291705Y-10264174D02*
X14301229Y-10273698D01*
X14301229Y-10273698D02*
X14291705Y-10283222D01*
X14291705Y-10283222D02*
X14282182Y-10273698D01*
X14282182Y-10273698D02*
X14291705Y-10264174D01*
X14291705Y-10264174D02*
X14291705Y-10283222D01*
D12*
X12629500Y-10701500D02*
X12659500Y-10731500D01*
X12659500Y-10701500D02*
X12629500Y-10731500D01*
D11*
X12958372Y-10607984D02*
X12977420Y-10607984D01*
X12977420Y-10607984D02*
X12996467Y-10617508D01*
X12996467Y-10617508D02*
X13005991Y-10627031D01*
X13005991Y-10627031D02*
X13015515Y-10646079D01*
X13015515Y-10646079D02*
X13025039Y-10684174D01*
X13025039Y-10684174D02*
X13025039Y-10731793D01*
X13025039Y-10731793D02*
X13015515Y-10769889D01*
X13015515Y-10769889D02*
X13005991Y-10788936D01*
X13005991Y-10788936D02*
X12996467Y-10798460D01*
X12996467Y-10798460D02*
X12977420Y-10807984D01*
X12977420Y-10807984D02*
X12958372Y-10807984D01*
X12958372Y-10807984D02*
X12939324Y-10798460D01*
X12939324Y-10798460D02*
X12929801Y-10788936D01*
X12929801Y-10788936D02*
X12920277Y-10769889D01*
X12920277Y-10769889D02*
X12910753Y-10731793D01*
X12910753Y-10731793D02*
X12910753Y-10684174D01*
X12910753Y-10684174D02*
X12920277Y-10646079D01*
X12920277Y-10646079D02*
X12929801Y-10627031D01*
X12929801Y-10627031D02*
X12939324Y-10617508D01*
X12939324Y-10617508D02*
X12958372Y-10607984D01*
X13110753Y-10788936D02*
X13120277Y-10798460D01*
X13120277Y-10798460D02*
X13110753Y-10807984D01*
X13110753Y-10807984D02*
X13101229Y-10798460D01*
X13101229Y-10798460D02*
X13110753Y-10788936D01*
X13110753Y-10788936D02*
X13110753Y-10807984D01*
X13186943Y-10607984D02*
X13310753Y-10607984D01*
X13310753Y-10607984D02*
X13244086Y-10684174D01*
X13244086Y-10684174D02*
X13272658Y-10684174D01*
X13272658Y-10684174D02*
X13291705Y-10693698D01*
X13291705Y-10693698D02*
X13301229Y-10703222D01*
X13301229Y-10703222D02*
X13310753Y-10722270D01*
X13310753Y-10722270D02*
X13310753Y-10769889D01*
X13310753Y-10769889D02*
X13301229Y-10788936D01*
X13301229Y-10788936D02*
X13291705Y-10798460D01*
X13291705Y-10798460D02*
X13272658Y-10807984D01*
X13272658Y-10807984D02*
X13215515Y-10807984D01*
X13215515Y-10807984D02*
X13196467Y-10798460D01*
X13196467Y-10798460D02*
X13186943Y-10788936D01*
X13434562Y-10607984D02*
X13453610Y-10607984D01*
X13453610Y-10607984D02*
X13472658Y-10617508D01*
X13472658Y-10617508D02*
X13482182Y-10627031D01*
X13482182Y-10627031D02*
X13491705Y-10646079D01*
X13491705Y-10646079D02*
X13501229Y-10684174D01*
X13501229Y-10684174D02*
X13501229Y-10731793D01*
X13501229Y-10731793D02*
X13491705Y-10769889D01*
X13491705Y-10769889D02*
X13482182Y-10788936D01*
X13482182Y-10788936D02*
X13472658Y-10798460D01*
X13472658Y-10798460D02*
X13453610Y-10807984D01*
X13453610Y-10807984D02*
X13434562Y-10807984D01*
X13434562Y-10807984D02*
X13415515Y-10798460D01*
X13415515Y-10798460D02*
X13405991Y-10788936D01*
X13405991Y-10788936D02*
X13396467Y-10769889D01*
X13396467Y-10769889D02*
X13386943Y-10731793D01*
X13386943Y-10731793D02*
X13386943Y-10684174D01*
X13386943Y-10684174D02*
X13396467Y-10646079D01*
X13396467Y-10646079D02*
X13405991Y-10627031D01*
X13405991Y-10627031D02*
X13415515Y-10617508D01*
X13415515Y-10617508D02*
X13434562Y-10607984D01*
X13625039Y-10607984D02*
X13644086Y-10607984D01*
X13644086Y-10607984D02*
X13663134Y-10617508D01*
X13663134Y-10617508D02*
X13672658Y-10627031D01*
X13672658Y-10627031D02*
X13682182Y-10646079D01*
X13682182Y-10646079D02*
X13691705Y-10684174D01*
X13691705Y-10684174D02*
X13691705Y-10731793D01*
X13691705Y-10731793D02*
X13682182Y-10769889D01*
X13682182Y-10769889D02*
X13672658Y-10788936D01*
X13672658Y-10788936D02*
X13663134Y-10798460D01*
X13663134Y-10798460D02*
X13644086Y-10807984D01*
X13644086Y-10807984D02*
X13625039Y-10807984D01*
X13625039Y-10807984D02*
X13605991Y-10798460D01*
X13605991Y-10798460D02*
X13596467Y-10788936D01*
X13596467Y-10788936D02*
X13586943Y-10769889D01*
X13586943Y-10769889D02*
X13577420Y-10731793D01*
X13577420Y-10731793D02*
X13577420Y-10684174D01*
X13577420Y-10684174D02*
X13586943Y-10646079D01*
X13586943Y-10646079D02*
X13596467Y-10627031D01*
X13596467Y-10627031D02*
X13605991Y-10617508D01*
X13605991Y-10617508D02*
X13625039Y-10607984D01*
X13777420Y-10807984D02*
X13777420Y-10674650D01*
X13777420Y-10693698D02*
X13786943Y-10684174D01*
X13786943Y-10684174D02*
X13805991Y-10674650D01*
X13805991Y-10674650D02*
X13834563Y-10674650D01*
X13834563Y-10674650D02*
X13853610Y-10684174D01*
X13853610Y-10684174D02*
X13863134Y-10703222D01*
X13863134Y-10703222D02*
X13863134Y-10807984D01*
X13863134Y-10703222D02*
X13872658Y-10684174D01*
X13872658Y-10684174D02*
X13891705Y-10674650D01*
X13891705Y-10674650D02*
X13920277Y-10674650D01*
X13920277Y-10674650D02*
X13939324Y-10684174D01*
X13939324Y-10684174D02*
X13948848Y-10703222D01*
X13948848Y-10703222D02*
X13948848Y-10807984D01*
X14044086Y-10807984D02*
X14044086Y-10674650D01*
X14044086Y-10693698D02*
X14053610Y-10684174D01*
X14053610Y-10684174D02*
X14072658Y-10674650D01*
X14072658Y-10674650D02*
X14101229Y-10674650D01*
X14101229Y-10674650D02*
X14120277Y-10684174D01*
X14120277Y-10684174D02*
X14129801Y-10703222D01*
X14129801Y-10703222D02*
X14129801Y-10807984D01*
X14129801Y-10703222D02*
X14139324Y-10684174D01*
X14139324Y-10684174D02*
X14158372Y-10674650D01*
X14158372Y-10674650D02*
X14186943Y-10674650D01*
X14186943Y-10674650D02*
X14205991Y-10684174D01*
X14205991Y-10684174D02*
X14215515Y-10703222D01*
X14215515Y-10703222D02*
X14215515Y-10807984D01*
X14605991Y-10598460D02*
X14434563Y-10855603D01*
X14863134Y-10607984D02*
X14882182Y-10607984D01*
X14882182Y-10607984D02*
X14901229Y-10617508D01*
X14901229Y-10617508D02*
X14910753Y-10627031D01*
X14910753Y-10627031D02*
X14920277Y-10646079D01*
X14920277Y-10646079D02*
X14929801Y-10684174D01*
X14929801Y-10684174D02*
X14929801Y-10731793D01*
X14929801Y-10731793D02*
X14920277Y-10769889D01*
X14920277Y-10769889D02*
X14910753Y-10788936D01*
X14910753Y-10788936D02*
X14901229Y-10798460D01*
X14901229Y-10798460D02*
X14882182Y-10807984D01*
X14882182Y-10807984D02*
X14863134Y-10807984D01*
X14863134Y-10807984D02*
X14844086Y-10798460D01*
X14844086Y-10798460D02*
X14834563Y-10788936D01*
X14834563Y-10788936D02*
X14825039Y-10769889D01*
X14825039Y-10769889D02*
X14815515Y-10731793D01*
X14815515Y-10731793D02*
X14815515Y-10684174D01*
X14815515Y-10684174D02*
X14825039Y-10646079D01*
X14825039Y-10646079D02*
X14834563Y-10627031D01*
X14834563Y-10627031D02*
X14844086Y-10617508D01*
X14844086Y-10617508D02*
X14863134Y-10607984D01*
X15015515Y-10788936D02*
X15025039Y-10798460D01*
X15025039Y-10798460D02*
X15015515Y-10807984D01*
X15015515Y-10807984D02*
X15005991Y-10798460D01*
X15005991Y-10798460D02*
X15015515Y-10788936D01*
X15015515Y-10788936D02*
X15015515Y-10807984D01*
X15148848Y-10607984D02*
X15167896Y-10607984D01*
X15167896Y-10607984D02*
X15186944Y-10617508D01*
X15186944Y-10617508D02*
X15196467Y-10627031D01*
X15196467Y-10627031D02*
X15205991Y-10646079D01*
X15205991Y-10646079D02*
X15215515Y-10684174D01*
X15215515Y-10684174D02*
X15215515Y-10731793D01*
X15215515Y-10731793D02*
X15205991Y-10769889D01*
X15205991Y-10769889D02*
X15196467Y-10788936D01*
X15196467Y-10788936D02*
X15186944Y-10798460D01*
X15186944Y-10798460D02*
X15167896Y-10807984D01*
X15167896Y-10807984D02*
X15148848Y-10807984D01*
X15148848Y-10807984D02*
X15129801Y-10798460D01*
X15129801Y-10798460D02*
X15120277Y-10788936D01*
X15120277Y-10788936D02*
X15110753Y-10769889D01*
X15110753Y-10769889D02*
X15101229Y-10731793D01*
X15101229Y-10731793D02*
X15101229Y-10684174D01*
X15101229Y-10684174D02*
X15110753Y-10646079D01*
X15110753Y-10646079D02*
X15120277Y-10627031D01*
X15120277Y-10627031D02*
X15129801Y-10617508D01*
X15129801Y-10617508D02*
X15148848Y-10607984D01*
X15405991Y-10807984D02*
X15291706Y-10807984D01*
X15348848Y-10807984D02*
X15348848Y-10607984D01*
X15348848Y-10607984D02*
X15329801Y-10636555D01*
X15329801Y-10636555D02*
X15310753Y-10655603D01*
X15310753Y-10655603D02*
X15291706Y-10665127D01*
X15596467Y-10807984D02*
X15482182Y-10807984D01*
X15539325Y-10807984D02*
X15539325Y-10607984D01*
X15539325Y-10607984D02*
X15520277Y-10636555D01*
X15520277Y-10636555D02*
X15501229Y-10655603D01*
X15501229Y-10655603D02*
X15482182Y-10665127D01*
X15710753Y-10693698D02*
X15691706Y-10684174D01*
X15691706Y-10684174D02*
X15682182Y-10674650D01*
X15682182Y-10674650D02*
X15672658Y-10655603D01*
X15672658Y-10655603D02*
X15672658Y-10646079D01*
X15672658Y-10646079D02*
X15682182Y-10627031D01*
X15682182Y-10627031D02*
X15691706Y-10617508D01*
X15691706Y-10617508D02*
X15710753Y-10607984D01*
X15710753Y-10607984D02*
X15748848Y-10607984D01*
X15748848Y-10607984D02*
X15767896Y-10617508D01*
X15767896Y-10617508D02*
X15777420Y-10627031D01*
X15777420Y-10627031D02*
X15786944Y-10646079D01*
X15786944Y-10646079D02*
X15786944Y-10655603D01*
X15786944Y-10655603D02*
X15777420Y-10674650D01*
X15777420Y-10674650D02*
X15767896Y-10684174D01*
X15767896Y-10684174D02*
X15748848Y-10693698D01*
X15748848Y-10693698D02*
X15710753Y-10693698D01*
X15710753Y-10693698D02*
X15691706Y-10703222D01*
X15691706Y-10703222D02*
X15682182Y-10712746D01*
X15682182Y-10712746D02*
X15672658Y-10731793D01*
X15672658Y-10731793D02*
X15672658Y-10769889D01*
X15672658Y-10769889D02*
X15682182Y-10788936D01*
X15682182Y-10788936D02*
X15691706Y-10798460D01*
X15691706Y-10798460D02*
X15710753Y-10807984D01*
X15710753Y-10807984D02*
X15748848Y-10807984D01*
X15748848Y-10807984D02*
X15767896Y-10798460D01*
X15767896Y-10798460D02*
X15777420Y-10788936D01*
X15777420Y-10788936D02*
X15786944Y-10769889D01*
X15786944Y-10769889D02*
X15786944Y-10731793D01*
X15786944Y-10731793D02*
X15777420Y-10712746D01*
X15777420Y-10712746D02*
X15767896Y-10703222D01*
X15767896Y-10703222D02*
X15748848Y-10693698D01*
X15863134Y-10607984D02*
X15863134Y-10646079D01*
X15939325Y-10607984D02*
X15939325Y-10646079D01*
X16234563Y-10884174D02*
X16225039Y-10874650D01*
X16225039Y-10874650D02*
X16205991Y-10846079D01*
X16205991Y-10846079D02*
X16196468Y-10827031D01*
X16196468Y-10827031D02*
X16186944Y-10798460D01*
X16186944Y-10798460D02*
X16177420Y-10750841D01*
X16177420Y-10750841D02*
X16177420Y-10712746D01*
X16177420Y-10712746D02*
X16186944Y-10665127D01*
X16186944Y-10665127D02*
X16196468Y-10636555D01*
X16196468Y-10636555D02*
X16205991Y-10617508D01*
X16205991Y-10617508D02*
X16225039Y-10588936D01*
X16225039Y-10588936D02*
X16234563Y-10579412D01*
X16415515Y-10807984D02*
X16301229Y-10807984D01*
X16358372Y-10807984D02*
X16358372Y-10607984D01*
X16358372Y-10607984D02*
X16339325Y-10636555D01*
X16339325Y-10636555D02*
X16320277Y-10655603D01*
X16320277Y-10655603D02*
X16301229Y-10665127D01*
X16491706Y-10627031D02*
X16501229Y-10617508D01*
X16501229Y-10617508D02*
X16520277Y-10607984D01*
X16520277Y-10607984D02*
X16567896Y-10607984D01*
X16567896Y-10607984D02*
X16586944Y-10617508D01*
X16586944Y-10617508D02*
X16596468Y-10627031D01*
X16596468Y-10627031D02*
X16605991Y-10646079D01*
X16605991Y-10646079D02*
X16605991Y-10665127D01*
X16605991Y-10665127D02*
X16596468Y-10693698D01*
X16596468Y-10693698D02*
X16482182Y-10807984D01*
X16482182Y-10807984D02*
X16605991Y-10807984D01*
X16672658Y-10607984D02*
X16805991Y-10607984D01*
X16805991Y-10607984D02*
X16720277Y-10807984D01*
X17034563Y-10807984D02*
X17034563Y-10607984D01*
X17120277Y-10807984D02*
X17120277Y-10703222D01*
X17120277Y-10703222D02*
X17110753Y-10684174D01*
X17110753Y-10684174D02*
X17091706Y-10674650D01*
X17091706Y-10674650D02*
X17063134Y-10674650D01*
X17063134Y-10674650D02*
X17044087Y-10684174D01*
X17044087Y-10684174D02*
X17034563Y-10693698D01*
X17244087Y-10807984D02*
X17225039Y-10798460D01*
X17225039Y-10798460D02*
X17215515Y-10788936D01*
X17215515Y-10788936D02*
X17205992Y-10769889D01*
X17205992Y-10769889D02*
X17205992Y-10712746D01*
X17205992Y-10712746D02*
X17215515Y-10693698D01*
X17215515Y-10693698D02*
X17225039Y-10684174D01*
X17225039Y-10684174D02*
X17244087Y-10674650D01*
X17244087Y-10674650D02*
X17272658Y-10674650D01*
X17272658Y-10674650D02*
X17291706Y-10684174D01*
X17291706Y-10684174D02*
X17301230Y-10693698D01*
X17301230Y-10693698D02*
X17310753Y-10712746D01*
X17310753Y-10712746D02*
X17310753Y-10769889D01*
X17310753Y-10769889D02*
X17301230Y-10788936D01*
X17301230Y-10788936D02*
X17291706Y-10798460D01*
X17291706Y-10798460D02*
X17272658Y-10807984D01*
X17272658Y-10807984D02*
X17244087Y-10807984D01*
X17425039Y-10807984D02*
X17405992Y-10798460D01*
X17405992Y-10798460D02*
X17396468Y-10779412D01*
X17396468Y-10779412D02*
X17396468Y-10607984D01*
X17577420Y-10798460D02*
X17558373Y-10807984D01*
X17558373Y-10807984D02*
X17520277Y-10807984D01*
X17520277Y-10807984D02*
X17501230Y-10798460D01*
X17501230Y-10798460D02*
X17491706Y-10779412D01*
X17491706Y-10779412D02*
X17491706Y-10703222D01*
X17491706Y-10703222D02*
X17501230Y-10684174D01*
X17501230Y-10684174D02*
X17520277Y-10674650D01*
X17520277Y-10674650D02*
X17558373Y-10674650D01*
X17558373Y-10674650D02*
X17577420Y-10684174D01*
X17577420Y-10684174D02*
X17586944Y-10703222D01*
X17586944Y-10703222D02*
X17586944Y-10722270D01*
X17586944Y-10722270D02*
X17491706Y-10741317D01*
X17663134Y-10798460D02*
X17682182Y-10807984D01*
X17682182Y-10807984D02*
X17720277Y-10807984D01*
X17720277Y-10807984D02*
X17739325Y-10798460D01*
X17739325Y-10798460D02*
X17748849Y-10779412D01*
X17748849Y-10779412D02*
X17748849Y-10769889D01*
X17748849Y-10769889D02*
X17739325Y-10750841D01*
X17739325Y-10750841D02*
X17720277Y-10741317D01*
X17720277Y-10741317D02*
X17691706Y-10741317D01*
X17691706Y-10741317D02*
X17672658Y-10731793D01*
X17672658Y-10731793D02*
X17663134Y-10712746D01*
X17663134Y-10712746D02*
X17663134Y-10703222D01*
X17663134Y-10703222D02*
X17672658Y-10684174D01*
X17672658Y-10684174D02*
X17691706Y-10674650D01*
X17691706Y-10674650D02*
X17720277Y-10674650D01*
X17720277Y-10674650D02*
X17739325Y-10684174D01*
X17815515Y-10884174D02*
X17825039Y-10874650D01*
X17825039Y-10874650D02*
X17844087Y-10846079D01*
X17844087Y-10846079D02*
X17853611Y-10827031D01*
X17853611Y-10827031D02*
X17863134Y-10798460D01*
X17863134Y-10798460D02*
X17872658Y-10750841D01*
X17872658Y-10750841D02*
X17872658Y-10712746D01*
X17872658Y-10712746D02*
X17863134Y-10665127D01*
X17863134Y-10665127D02*
X17853611Y-10636555D01*
X17853611Y-10636555D02*
X17844087Y-10617508D01*
X17844087Y-10617508D02*
X17825039Y-10588936D01*
X17825039Y-10588936D02*
X17815515Y-10579412D01*
D12*
X12659500Y-10980500D02*
G75*
G02*
X12594500Y-10980500I-32500J0D01*
G01*
X12594500Y-10980500D02*
G75*
G02*
X12659500Y-10980500I32500J0D01*
G01*
D11*
X12958372Y-10871984D02*
X12977420Y-10871984D01*
X12977420Y-10871984D02*
X12996467Y-10881508D01*
X12996467Y-10881508D02*
X13005991Y-10891031D01*
X13005991Y-10891031D02*
X13015515Y-10910079D01*
X13015515Y-10910079D02*
X13025039Y-10948174D01*
X13025039Y-10948174D02*
X13025039Y-10995793D01*
X13025039Y-10995793D02*
X13015515Y-11033889D01*
X13015515Y-11033889D02*
X13005991Y-11052936D01*
X13005991Y-11052936D02*
X12996467Y-11062460D01*
X12996467Y-11062460D02*
X12977420Y-11071984D01*
X12977420Y-11071984D02*
X12958372Y-11071984D01*
X12958372Y-11071984D02*
X12939324Y-11062460D01*
X12939324Y-11062460D02*
X12929801Y-11052936D01*
X12929801Y-11052936D02*
X12920277Y-11033889D01*
X12920277Y-11033889D02*
X12910753Y-10995793D01*
X12910753Y-10995793D02*
X12910753Y-10948174D01*
X12910753Y-10948174D02*
X12920277Y-10910079D01*
X12920277Y-10910079D02*
X12929801Y-10891031D01*
X12929801Y-10891031D02*
X12939324Y-10881508D01*
X12939324Y-10881508D02*
X12958372Y-10871984D01*
X13110753Y-11052936D02*
X13120277Y-11062460D01*
X13120277Y-11062460D02*
X13110753Y-11071984D01*
X13110753Y-11071984D02*
X13101229Y-11062460D01*
X13101229Y-11062460D02*
X13110753Y-11052936D01*
X13110753Y-11052936D02*
X13110753Y-11071984D01*
X13291705Y-10871984D02*
X13253610Y-10871984D01*
X13253610Y-10871984D02*
X13234562Y-10881508D01*
X13234562Y-10881508D02*
X13225039Y-10891031D01*
X13225039Y-10891031D02*
X13205991Y-10919603D01*
X13205991Y-10919603D02*
X13196467Y-10957698D01*
X13196467Y-10957698D02*
X13196467Y-11033889D01*
X13196467Y-11033889D02*
X13205991Y-11052936D01*
X13205991Y-11052936D02*
X13215515Y-11062460D01*
X13215515Y-11062460D02*
X13234562Y-11071984D01*
X13234562Y-11071984D02*
X13272658Y-11071984D01*
X13272658Y-11071984D02*
X13291705Y-11062460D01*
X13291705Y-11062460D02*
X13301229Y-11052936D01*
X13301229Y-11052936D02*
X13310753Y-11033889D01*
X13310753Y-11033889D02*
X13310753Y-10986270D01*
X13310753Y-10986270D02*
X13301229Y-10967222D01*
X13301229Y-10967222D02*
X13291705Y-10957698D01*
X13291705Y-10957698D02*
X13272658Y-10948174D01*
X13272658Y-10948174D02*
X13234562Y-10948174D01*
X13234562Y-10948174D02*
X13215515Y-10957698D01*
X13215515Y-10957698D02*
X13205991Y-10967222D01*
X13205991Y-10967222D02*
X13196467Y-10986270D01*
X13491705Y-10871984D02*
X13396467Y-10871984D01*
X13396467Y-10871984D02*
X13386943Y-10967222D01*
X13386943Y-10967222D02*
X13396467Y-10957698D01*
X13396467Y-10957698D02*
X13415515Y-10948174D01*
X13415515Y-10948174D02*
X13463134Y-10948174D01*
X13463134Y-10948174D02*
X13482182Y-10957698D01*
X13482182Y-10957698D02*
X13491705Y-10967222D01*
X13491705Y-10967222D02*
X13501229Y-10986270D01*
X13501229Y-10986270D02*
X13501229Y-11033889D01*
X13501229Y-11033889D02*
X13491705Y-11052936D01*
X13491705Y-11052936D02*
X13482182Y-11062460D01*
X13482182Y-11062460D02*
X13463134Y-11071984D01*
X13463134Y-11071984D02*
X13415515Y-11071984D01*
X13415515Y-11071984D02*
X13396467Y-11062460D01*
X13396467Y-11062460D02*
X13386943Y-11052936D01*
X13625039Y-10871984D02*
X13644086Y-10871984D01*
X13644086Y-10871984D02*
X13663134Y-10881508D01*
X13663134Y-10881508D02*
X13672658Y-10891031D01*
X13672658Y-10891031D02*
X13682182Y-10910079D01*
X13682182Y-10910079D02*
X13691705Y-10948174D01*
X13691705Y-10948174D02*
X13691705Y-10995793D01*
X13691705Y-10995793D02*
X13682182Y-11033889D01*
X13682182Y-11033889D02*
X13672658Y-11052936D01*
X13672658Y-11052936D02*
X13663134Y-11062460D01*
X13663134Y-11062460D02*
X13644086Y-11071984D01*
X13644086Y-11071984D02*
X13625039Y-11071984D01*
X13625039Y-11071984D02*
X13605991Y-11062460D01*
X13605991Y-11062460D02*
X13596467Y-11052936D01*
X13596467Y-11052936D02*
X13586943Y-11033889D01*
X13586943Y-11033889D02*
X13577420Y-10995793D01*
X13577420Y-10995793D02*
X13577420Y-10948174D01*
X13577420Y-10948174D02*
X13586943Y-10910079D01*
X13586943Y-10910079D02*
X13596467Y-10891031D01*
X13596467Y-10891031D02*
X13605991Y-10881508D01*
X13605991Y-10881508D02*
X13625039Y-10871984D01*
X13777420Y-11071984D02*
X13777420Y-10938650D01*
X13777420Y-10957698D02*
X13786943Y-10948174D01*
X13786943Y-10948174D02*
X13805991Y-10938650D01*
X13805991Y-10938650D02*
X13834563Y-10938650D01*
X13834563Y-10938650D02*
X13853610Y-10948174D01*
X13853610Y-10948174D02*
X13863134Y-10967222D01*
X13863134Y-10967222D02*
X13863134Y-11071984D01*
X13863134Y-10967222D02*
X13872658Y-10948174D01*
X13872658Y-10948174D02*
X13891705Y-10938650D01*
X13891705Y-10938650D02*
X13920277Y-10938650D01*
X13920277Y-10938650D02*
X13939324Y-10948174D01*
X13939324Y-10948174D02*
X13948848Y-10967222D01*
X13948848Y-10967222D02*
X13948848Y-11071984D01*
X14044086Y-11071984D02*
X14044086Y-10938650D01*
X14044086Y-10957698D02*
X14053610Y-10948174D01*
X14053610Y-10948174D02*
X14072658Y-10938650D01*
X14072658Y-10938650D02*
X14101229Y-10938650D01*
X14101229Y-10938650D02*
X14120277Y-10948174D01*
X14120277Y-10948174D02*
X14129801Y-10967222D01*
X14129801Y-10967222D02*
X14129801Y-11071984D01*
X14129801Y-10967222D02*
X14139324Y-10948174D01*
X14139324Y-10948174D02*
X14158372Y-10938650D01*
X14158372Y-10938650D02*
X14186943Y-10938650D01*
X14186943Y-10938650D02*
X14205991Y-10948174D01*
X14205991Y-10948174D02*
X14215515Y-10967222D01*
X14215515Y-10967222D02*
X14215515Y-11071984D01*
X14605991Y-10862460D02*
X14434563Y-11119603D01*
X14863134Y-10871984D02*
X14882182Y-10871984D01*
X14882182Y-10871984D02*
X14901229Y-10881508D01*
X14901229Y-10881508D02*
X14910753Y-10891031D01*
X14910753Y-10891031D02*
X14920277Y-10910079D01*
X14920277Y-10910079D02*
X14929801Y-10948174D01*
X14929801Y-10948174D02*
X14929801Y-10995793D01*
X14929801Y-10995793D02*
X14920277Y-11033889D01*
X14920277Y-11033889D02*
X14910753Y-11052936D01*
X14910753Y-11052936D02*
X14901229Y-11062460D01*
X14901229Y-11062460D02*
X14882182Y-11071984D01*
X14882182Y-11071984D02*
X14863134Y-11071984D01*
X14863134Y-11071984D02*
X14844086Y-11062460D01*
X14844086Y-11062460D02*
X14834563Y-11052936D01*
X14834563Y-11052936D02*
X14825039Y-11033889D01*
X14825039Y-11033889D02*
X14815515Y-10995793D01*
X14815515Y-10995793D02*
X14815515Y-10948174D01*
X14815515Y-10948174D02*
X14825039Y-10910079D01*
X14825039Y-10910079D02*
X14834563Y-10891031D01*
X14834563Y-10891031D02*
X14844086Y-10881508D01*
X14844086Y-10881508D02*
X14863134Y-10871984D01*
X15015515Y-11052936D02*
X15025039Y-11062460D01*
X15025039Y-11062460D02*
X15015515Y-11071984D01*
X15015515Y-11071984D02*
X15005991Y-11062460D01*
X15005991Y-11062460D02*
X15015515Y-11052936D01*
X15015515Y-11052936D02*
X15015515Y-11071984D01*
X15148848Y-10871984D02*
X15167896Y-10871984D01*
X15167896Y-10871984D02*
X15186944Y-10881508D01*
X15186944Y-10881508D02*
X15196467Y-10891031D01*
X15196467Y-10891031D02*
X15205991Y-10910079D01*
X15205991Y-10910079D02*
X15215515Y-10948174D01*
X15215515Y-10948174D02*
X15215515Y-10995793D01*
X15215515Y-10995793D02*
X15205991Y-11033889D01*
X15205991Y-11033889D02*
X15196467Y-11052936D01*
X15196467Y-11052936D02*
X15186944Y-11062460D01*
X15186944Y-11062460D02*
X15167896Y-11071984D01*
X15167896Y-11071984D02*
X15148848Y-11071984D01*
X15148848Y-11071984D02*
X15129801Y-11062460D01*
X15129801Y-11062460D02*
X15120277Y-11052936D01*
X15120277Y-11052936D02*
X15110753Y-11033889D01*
X15110753Y-11033889D02*
X15101229Y-10995793D01*
X15101229Y-10995793D02*
X15101229Y-10948174D01*
X15101229Y-10948174D02*
X15110753Y-10910079D01*
X15110753Y-10910079D02*
X15120277Y-10891031D01*
X15120277Y-10891031D02*
X15129801Y-10881508D01*
X15129801Y-10881508D02*
X15148848Y-10871984D01*
X15291706Y-10891031D02*
X15301229Y-10881508D01*
X15301229Y-10881508D02*
X15320277Y-10871984D01*
X15320277Y-10871984D02*
X15367896Y-10871984D01*
X15367896Y-10871984D02*
X15386944Y-10881508D01*
X15386944Y-10881508D02*
X15396467Y-10891031D01*
X15396467Y-10891031D02*
X15405991Y-10910079D01*
X15405991Y-10910079D02*
X15405991Y-10929127D01*
X15405991Y-10929127D02*
X15396467Y-10957698D01*
X15396467Y-10957698D02*
X15282182Y-11071984D01*
X15282182Y-11071984D02*
X15405991Y-11071984D01*
X15586944Y-10871984D02*
X15491706Y-10871984D01*
X15491706Y-10871984D02*
X15482182Y-10967222D01*
X15482182Y-10967222D02*
X15491706Y-10957698D01*
X15491706Y-10957698D02*
X15510753Y-10948174D01*
X15510753Y-10948174D02*
X15558372Y-10948174D01*
X15558372Y-10948174D02*
X15577420Y-10957698D01*
X15577420Y-10957698D02*
X15586944Y-10967222D01*
X15586944Y-10967222D02*
X15596467Y-10986270D01*
X15596467Y-10986270D02*
X15596467Y-11033889D01*
X15596467Y-11033889D02*
X15586944Y-11052936D01*
X15586944Y-11052936D02*
X15577420Y-11062460D01*
X15577420Y-11062460D02*
X15558372Y-11071984D01*
X15558372Y-11071984D02*
X15510753Y-11071984D01*
X15510753Y-11071984D02*
X15491706Y-11062460D01*
X15491706Y-11062460D02*
X15482182Y-11052936D01*
X15767896Y-10871984D02*
X15729801Y-10871984D01*
X15729801Y-10871984D02*
X15710753Y-10881508D01*
X15710753Y-10881508D02*
X15701229Y-10891031D01*
X15701229Y-10891031D02*
X15682182Y-10919603D01*
X15682182Y-10919603D02*
X15672658Y-10957698D01*
X15672658Y-10957698D02*
X15672658Y-11033889D01*
X15672658Y-11033889D02*
X15682182Y-11052936D01*
X15682182Y-11052936D02*
X15691706Y-11062460D01*
X15691706Y-11062460D02*
X15710753Y-11071984D01*
X15710753Y-11071984D02*
X15748848Y-11071984D01*
X15748848Y-11071984D02*
X15767896Y-11062460D01*
X15767896Y-11062460D02*
X15777420Y-11052936D01*
X15777420Y-11052936D02*
X15786944Y-11033889D01*
X15786944Y-11033889D02*
X15786944Y-10986270D01*
X15786944Y-10986270D02*
X15777420Y-10967222D01*
X15777420Y-10967222D02*
X15767896Y-10957698D01*
X15767896Y-10957698D02*
X15748848Y-10948174D01*
X15748848Y-10948174D02*
X15710753Y-10948174D01*
X15710753Y-10948174D02*
X15691706Y-10957698D01*
X15691706Y-10957698D02*
X15682182Y-10967222D01*
X15682182Y-10967222D02*
X15672658Y-10986270D01*
X15863134Y-10871984D02*
X15863134Y-10910079D01*
X15939325Y-10871984D02*
X15939325Y-10910079D01*
X16234563Y-11148174D02*
X16225039Y-11138650D01*
X16225039Y-11138650D02*
X16205991Y-11110079D01*
X16205991Y-11110079D02*
X16196468Y-11091031D01*
X16196468Y-11091031D02*
X16186944Y-11062460D01*
X16186944Y-11062460D02*
X16177420Y-11014841D01*
X16177420Y-11014841D02*
X16177420Y-10976746D01*
X16177420Y-10976746D02*
X16186944Y-10929127D01*
X16186944Y-10929127D02*
X16196468Y-10900555D01*
X16196468Y-10900555D02*
X16205991Y-10881508D01*
X16205991Y-10881508D02*
X16225039Y-10852936D01*
X16225039Y-10852936D02*
X16234563Y-10843412D01*
X16415515Y-11071984D02*
X16301229Y-11071984D01*
X16358372Y-11071984D02*
X16358372Y-10871984D01*
X16358372Y-10871984D02*
X16339325Y-10900555D01*
X16339325Y-10900555D02*
X16320277Y-10919603D01*
X16320277Y-10919603D02*
X16301229Y-10929127D01*
X16529801Y-10957698D02*
X16510753Y-10948174D01*
X16510753Y-10948174D02*
X16501229Y-10938650D01*
X16501229Y-10938650D02*
X16491706Y-10919603D01*
X16491706Y-10919603D02*
X16491706Y-10910079D01*
X16491706Y-10910079D02*
X16501229Y-10891031D01*
X16501229Y-10891031D02*
X16510753Y-10881508D01*
X16510753Y-10881508D02*
X16529801Y-10871984D01*
X16529801Y-10871984D02*
X16567896Y-10871984D01*
X16567896Y-10871984D02*
X16586944Y-10881508D01*
X16586944Y-10881508D02*
X16596468Y-10891031D01*
X16596468Y-10891031D02*
X16605991Y-10910079D01*
X16605991Y-10910079D02*
X16605991Y-10919603D01*
X16605991Y-10919603D02*
X16596468Y-10938650D01*
X16596468Y-10938650D02*
X16586944Y-10948174D01*
X16586944Y-10948174D02*
X16567896Y-10957698D01*
X16567896Y-10957698D02*
X16529801Y-10957698D01*
X16529801Y-10957698D02*
X16510753Y-10967222D01*
X16510753Y-10967222D02*
X16501229Y-10976746D01*
X16501229Y-10976746D02*
X16491706Y-10995793D01*
X16491706Y-10995793D02*
X16491706Y-11033889D01*
X16491706Y-11033889D02*
X16501229Y-11052936D01*
X16501229Y-11052936D02*
X16510753Y-11062460D01*
X16510753Y-11062460D02*
X16529801Y-11071984D01*
X16529801Y-11071984D02*
X16567896Y-11071984D01*
X16567896Y-11071984D02*
X16586944Y-11062460D01*
X16586944Y-11062460D02*
X16596468Y-11052936D01*
X16596468Y-11052936D02*
X16605991Y-11033889D01*
X16605991Y-11033889D02*
X16605991Y-10995793D01*
X16605991Y-10995793D02*
X16596468Y-10976746D01*
X16596468Y-10976746D02*
X16586944Y-10967222D01*
X16586944Y-10967222D02*
X16567896Y-10957698D01*
X16844087Y-11071984D02*
X16844087Y-10871984D01*
X16929801Y-11071984D02*
X16929801Y-10967222D01*
X16929801Y-10967222D02*
X16920277Y-10948174D01*
X16920277Y-10948174D02*
X16901230Y-10938650D01*
X16901230Y-10938650D02*
X16872658Y-10938650D01*
X16872658Y-10938650D02*
X16853611Y-10948174D01*
X16853611Y-10948174D02*
X16844087Y-10957698D01*
X17053611Y-11071984D02*
X17034563Y-11062460D01*
X17034563Y-11062460D02*
X17025039Y-11052936D01*
X17025039Y-11052936D02*
X17015515Y-11033889D01*
X17015515Y-11033889D02*
X17015515Y-10976746D01*
X17015515Y-10976746D02*
X17025039Y-10957698D01*
X17025039Y-10957698D02*
X17034563Y-10948174D01*
X17034563Y-10948174D02*
X17053611Y-10938650D01*
X17053611Y-10938650D02*
X17082182Y-10938650D01*
X17082182Y-10938650D02*
X17101230Y-10948174D01*
X17101230Y-10948174D02*
X17110753Y-10957698D01*
X17110753Y-10957698D02*
X17120277Y-10976746D01*
X17120277Y-10976746D02*
X17120277Y-11033889D01*
X17120277Y-11033889D02*
X17110753Y-11052936D01*
X17110753Y-11052936D02*
X17101230Y-11062460D01*
X17101230Y-11062460D02*
X17082182Y-11071984D01*
X17082182Y-11071984D02*
X17053611Y-11071984D01*
X17234563Y-11071984D02*
X17215515Y-11062460D01*
X17215515Y-11062460D02*
X17205992Y-11043412D01*
X17205992Y-11043412D02*
X17205992Y-10871984D01*
X17386944Y-11062460D02*
X17367896Y-11071984D01*
X17367896Y-11071984D02*
X17329801Y-11071984D01*
X17329801Y-11071984D02*
X17310753Y-11062460D01*
X17310753Y-11062460D02*
X17301230Y-11043412D01*
X17301230Y-11043412D02*
X17301230Y-10967222D01*
X17301230Y-10967222D02*
X17310753Y-10948174D01*
X17310753Y-10948174D02*
X17329801Y-10938650D01*
X17329801Y-10938650D02*
X17367896Y-10938650D01*
X17367896Y-10938650D02*
X17386944Y-10948174D01*
X17386944Y-10948174D02*
X17396468Y-10967222D01*
X17396468Y-10967222D02*
X17396468Y-10986270D01*
X17396468Y-10986270D02*
X17301230Y-11005317D01*
X17472658Y-11062460D02*
X17491706Y-11071984D01*
X17491706Y-11071984D02*
X17529801Y-11071984D01*
X17529801Y-11071984D02*
X17548849Y-11062460D01*
X17548849Y-11062460D02*
X17558373Y-11043412D01*
X17558373Y-11043412D02*
X17558373Y-11033889D01*
X17558373Y-11033889D02*
X17548849Y-11014841D01*
X17548849Y-11014841D02*
X17529801Y-11005317D01*
X17529801Y-11005317D02*
X17501230Y-11005317D01*
X17501230Y-11005317D02*
X17482182Y-10995793D01*
X17482182Y-10995793D02*
X17472658Y-10976746D01*
X17472658Y-10976746D02*
X17472658Y-10967222D01*
X17472658Y-10967222D02*
X17482182Y-10948174D01*
X17482182Y-10948174D02*
X17501230Y-10938650D01*
X17501230Y-10938650D02*
X17529801Y-10938650D01*
X17529801Y-10938650D02*
X17548849Y-10948174D01*
X17625039Y-11148174D02*
X17634563Y-11138650D01*
X17634563Y-11138650D02*
X17653611Y-11110079D01*
X17653611Y-11110079D02*
X17663134Y-11091031D01*
X17663134Y-11091031D02*
X17672658Y-11062460D01*
X17672658Y-11062460D02*
X17682182Y-11014841D01*
X17682182Y-11014841D02*
X17682182Y-10976746D01*
X17682182Y-10976746D02*
X17672658Y-10929127D01*
X17672658Y-10929127D02*
X17663134Y-10900555D01*
X17663134Y-10900555D02*
X17653611Y-10881508D01*
X17653611Y-10881508D02*
X17634563Y-10852936D01*
X17634563Y-10852936D02*
X17625039Y-10843412D01*
M02*
