G04 #@! TF.GenerationSoftware,KiCad,Pcbnew,8.0.6*
G04 #@! TF.CreationDate,2025-07-21T23:51:58+02:00*
G04 #@! TF.ProjectId,nRF5340,6e524635-3334-4302-9e6b-696361645f70,rev?*
G04 #@! TF.SameCoordinates,Original*
G04 #@! TF.FileFunction,Paste,Top*
G04 #@! TF.FilePolarity,Positive*
%FSLAX46Y46*%
G04 Gerber Fmt 4.6, Leading zero omitted, Abs format (unit mm)*
G04 Created by KiCad (PCBNEW 8.0.6) date 2025-07-21 23:51:58*
%MOMM*%
%LPD*%
G01*
G04 APERTURE LIST*
G04 Aperture macros list*
%AMRoundRect*
0 Rectangle with rounded corners*
0 $1 Rounding radius*
0 $2 $3 $4 $5 $6 $7 $8 $9 X,Y pos of 4 corners*
0 Add a 4 corners polygon primitive as box body*
4,1,4,$2,$3,$4,$5,$6,$7,$8,$9,$2,$3,0*
0 Add four circle primitives for the rounded corners*
1,1,$1+$1,$2,$3*
1,1,$1+$1,$4,$5*
1,1,$1+$1,$6,$7*
1,1,$1+$1,$8,$9*
0 Add four rect primitives between the rounded corners*
20,1,$1+$1,$2,$3,$4,$5,0*
20,1,$1+$1,$4,$5,$6,$7,0*
20,1,$1+$1,$6,$7,$8,$9,0*
20,1,$1+$1,$8,$9,$2,$3,0*%
%AMRotRect*
0 Rectangle, with rotation*
0 The origin of the aperture is its center*
0 $1 length*
0 $2 width*
0 $3 Rotation angle, in degrees counterclockwise*
0 Add horizontal line*
21,1,$1,$2,0,0,$3*%
G04 Aperture macros list end*
%ADD10C,0.000000*%
%ADD11RoundRect,0.140000X-0.170000X0.140000X-0.170000X-0.140000X0.170000X-0.140000X0.170000X0.140000X0*%
%ADD12R,1.250000X0.500000*%
%ADD13RoundRect,0.200000X0.200000X0.275000X-0.200000X0.275000X-0.200000X-0.275000X0.200000X-0.275000X0*%
%ADD14RoundRect,0.140000X0.140000X0.170000X-0.140000X0.170000X-0.140000X-0.170000X0.140000X-0.170000X0*%
%ADD15RoundRect,0.218750X-0.218750X-0.256250X0.218750X-0.256250X0.218750X0.256250X-0.218750X0.256250X0*%
%ADD16RoundRect,0.135000X0.135000X0.185000X-0.135000X0.185000X-0.135000X-0.185000X0.135000X-0.185000X0*%
%ADD17RoundRect,0.135000X-0.185000X0.135000X-0.185000X-0.135000X0.185000X-0.135000X0.185000X0.135000X0*%
%ADD18RoundRect,0.140000X-0.140000X-0.170000X0.140000X-0.170000X0.140000X0.170000X-0.140000X0.170000X0*%
%ADD19R,0.500000X1.250000*%
%ADD20RoundRect,0.135000X-0.135000X-0.185000X0.135000X-0.185000X0.135000X0.185000X-0.135000X0.185000X0*%
%ADD21RoundRect,0.135000X0.185000X-0.135000X0.185000X0.135000X-0.185000X0.135000X-0.185000X-0.135000X0*%
%ADD22RoundRect,0.218750X0.256250X-0.218750X0.256250X0.218750X-0.256250X0.218750X-0.256250X-0.218750X0*%
%ADD23RoundRect,0.140000X0.170000X-0.140000X0.170000X0.140000X-0.170000X0.140000X-0.170000X-0.140000X0*%
%ADD24RoundRect,0.075000X-0.700000X-0.075000X0.700000X-0.075000X0.700000X0.075000X-0.700000X0.075000X0*%
%ADD25RoundRect,0.075000X-0.075000X-0.700000X0.075000X-0.700000X0.075000X0.700000X-0.075000X0.700000X0*%
%ADD26R,0.990600X0.736600*%
%ADD27R,0.304800X0.711200*%
%ADD28R,1.092200X0.508000*%
%ADD29RoundRect,0.200000X-0.200000X-0.275000X0.200000X-0.275000X0.200000X0.275000X-0.200000X0.275000X0*%
%ADD30R,0.254000X0.279400*%
%ADD31R,0.279400X0.254000*%
%ADD32RoundRect,0.225000X0.250000X-0.225000X0.250000X0.225000X-0.250000X0.225000X-0.250000X-0.225000X0*%
%ADD33RoundRect,0.225000X-0.225000X-0.250000X0.225000X-0.250000X0.225000X0.250000X-0.225000X0.250000X0*%
%ADD34RoundRect,0.218750X0.218750X0.256250X-0.218750X0.256250X-0.218750X-0.256250X0.218750X-0.256250X0*%
%ADD35R,0.990600X0.711200*%
%ADD36R,0.600000X0.600000*%
%ADD37RoundRect,0.150000X-0.512500X-0.150000X0.512500X-0.150000X0.512500X0.150000X-0.512500X0.150000X0*%
%ADD38RoundRect,0.225000X-0.250000X0.225000X-0.250000X-0.225000X0.250000X-0.225000X0.250000X0.225000X0*%
%ADD39RotRect,0.990600X0.711200X225.000000*%
%ADD40R,0.254000X0.762000*%
%ADD41R,0.762000X0.254000*%
%ADD42R,2.606800X2.606800*%
%ADD43R,1.150000X0.600000*%
%ADD44R,1.150000X0.300000*%
%ADD45RoundRect,0.225000X0.225000X0.250000X-0.225000X0.250000X-0.225000X-0.250000X0.225000X-0.250000X0*%
G04 APERTURE END LIST*
D10*
G36*
X149790000Y-134874301D02*
G01*
X148596600Y-134877701D01*
X148590000Y-133684301D01*
X149800000Y-133674299D01*
X149790000Y-134874301D01*
G37*
G36*
X149800002Y-133474301D02*
G01*
X148600000Y-133474301D01*
X148596600Y-132270901D01*
X149800000Y-132270901D01*
X149800002Y-133474301D01*
G37*
G36*
X151203400Y-132270901D02*
G01*
X151200000Y-133474300D01*
X150000000Y-133474303D01*
X150000000Y-132264301D01*
X151203400Y-132270901D01*
G37*
G36*
X151200000Y-133684301D02*
G01*
X151203400Y-134877701D01*
X150000001Y-134884301D01*
X149999998Y-133674301D01*
X151200000Y-133684301D01*
G37*
D11*
X183260000Y-124115000D03*
X183260000Y-125075000D03*
D12*
X187625000Y-112102500D03*
X187625000Y-113052500D03*
X187625000Y-114002500D03*
X190125000Y-114002500D03*
X190125000Y-112102500D03*
D13*
X207140000Y-118835000D03*
X205490000Y-118835000D03*
D14*
X192830000Y-130155000D03*
X191870000Y-130155000D03*
D11*
X186285000Y-113002500D03*
X186285000Y-113962500D03*
D15*
X205527499Y-117315000D03*
X207102501Y-117315000D03*
D14*
X196280000Y-109655000D03*
X195320000Y-109655000D03*
D16*
X205392499Y-126035001D03*
X204372499Y-126034999D03*
X201570000Y-112025001D03*
X200550000Y-112024999D03*
D17*
X197479952Y-133304301D03*
X197479950Y-134324301D03*
D18*
X200980000Y-126535000D03*
X201940000Y-126535000D03*
D14*
X186906399Y-121410000D03*
X185946399Y-121410000D03*
D19*
X187010002Y-130324998D03*
X187960000Y-130325000D03*
X188910002Y-130325002D03*
X188909998Y-127825002D03*
X187009998Y-127824998D03*
D20*
X189105000Y-115392500D03*
X190125000Y-115392500D03*
D15*
X204624998Y-127305000D03*
X206200000Y-127305000D03*
D12*
X205639998Y-123864998D03*
X205640000Y-122915000D03*
X205640001Y-121964999D03*
X203140002Y-121965002D03*
X203139999Y-123865001D03*
D20*
X186100000Y-126445000D03*
X187120000Y-126445000D03*
D17*
X194219952Y-133304301D03*
X194219950Y-134324301D03*
D21*
X190239999Y-128855000D03*
X190240001Y-127835000D03*
D11*
X197500000Y-128875000D03*
X197500000Y-129835000D03*
D18*
X197970000Y-130755000D03*
X198930000Y-130755000D03*
D22*
X195700000Y-130752501D03*
X195700000Y-129177499D03*
D14*
X189290000Y-116985000D03*
X188330000Y-116985000D03*
D23*
X204420000Y-114345000D03*
X204420000Y-113385000D03*
D18*
X197560000Y-131705000D03*
X198520000Y-131705000D03*
D12*
X203069998Y-115284998D03*
X203070000Y-114335000D03*
X203070001Y-113384999D03*
X200570002Y-113385002D03*
X200569999Y-115285001D03*
X184600000Y-123125000D03*
X184600000Y-124075000D03*
X184600000Y-125025000D03*
X187100000Y-125025000D03*
X187100000Y-123125000D03*
D16*
X204770000Y-120545001D03*
X203750000Y-120544999D03*
D23*
X206980000Y-122864998D03*
X206980000Y-121904998D03*
D17*
X193980000Y-112465000D03*
X193980000Y-113485000D03*
D14*
X192820000Y-129235000D03*
X191860000Y-129235000D03*
D19*
X197239996Y-111005004D03*
X196289998Y-111005002D03*
X195339996Y-111005001D03*
X195340000Y-113505000D03*
X197240000Y-113505003D03*
D18*
X187940000Y-131665000D03*
X188900000Y-131665000D03*
D24*
X189425000Y-117965000D03*
X189425000Y-118465000D03*
X189425000Y-118965000D03*
X189425000Y-119465000D03*
X189425000Y-119965000D03*
X189425000Y-120465000D03*
X189425000Y-120965000D03*
X189425000Y-121465000D03*
X189425000Y-121965000D03*
X189425000Y-122465000D03*
X189425000Y-122965000D03*
X189425000Y-123465000D03*
X189425000Y-123965000D03*
X189425000Y-124465000D03*
X189425000Y-124965000D03*
X189425000Y-125465000D03*
D25*
X191350000Y-127390000D03*
X191850000Y-127390000D03*
X192350000Y-127390000D03*
X192850000Y-127390000D03*
X193350000Y-127390000D03*
X193850000Y-127390000D03*
X194350000Y-127390000D03*
X194850000Y-127390000D03*
X195350000Y-127390000D03*
X195850000Y-127390000D03*
X196350000Y-127390000D03*
X196850000Y-127390000D03*
X197350000Y-127390000D03*
X197850000Y-127390000D03*
X198350000Y-127390000D03*
X198850000Y-127390000D03*
D24*
X200775000Y-125465000D03*
X200775000Y-124965000D03*
X200775000Y-124465000D03*
X200775000Y-123965000D03*
X200775000Y-123465000D03*
X200775000Y-122965000D03*
X200775000Y-122465000D03*
X200775000Y-121965000D03*
X200775000Y-121465000D03*
X200775000Y-120965000D03*
X200775000Y-120465000D03*
X200775000Y-119965000D03*
X200775000Y-119465000D03*
X200775000Y-118965000D03*
X200775000Y-118465000D03*
X200775000Y-117965000D03*
D25*
X198850000Y-116040000D03*
X198350000Y-116040000D03*
X197850000Y-116040000D03*
X197350000Y-116040000D03*
X196850000Y-116040000D03*
X196350000Y-116040000D03*
X195850000Y-116040000D03*
X195350000Y-116040000D03*
X194850000Y-116040000D03*
X194350000Y-116040000D03*
X193850000Y-116040000D03*
X193350000Y-116040000D03*
X192850000Y-116040000D03*
X192350000Y-116040000D03*
X191850000Y-116040000D03*
X191350000Y-116040000D03*
D26*
X185212798Y-118535000D03*
X185212799Y-120265000D03*
X186940000Y-120265000D03*
X186939999Y-118535000D03*
D27*
X196260049Y-133305699D03*
X195459949Y-133305697D03*
X195459951Y-134804301D03*
X196260051Y-134804303D03*
D28*
X195860000Y-134055000D03*
D11*
X183996399Y-118580000D03*
X183996399Y-119540000D03*
D29*
X160425000Y-128725000D03*
X162075000Y-128725000D03*
D30*
X160649999Y-121762000D03*
X161150001Y-121762000D03*
X161650000Y-121762001D03*
X162150000Y-121762000D03*
D31*
X162162000Y-121249999D03*
X162162001Y-120750000D03*
D30*
X162150001Y-120238000D03*
X161649999Y-120238000D03*
X161150000Y-120237999D03*
X160650000Y-120238000D03*
D31*
X160638000Y-120750001D03*
X160637999Y-121250000D03*
D32*
X146000000Y-135375001D03*
X146000000Y-133824999D03*
D33*
X152224999Y-127825000D03*
X153775001Y-127825000D03*
D34*
X143162502Y-131000001D03*
X141587498Y-130999999D03*
D35*
X143775001Y-117724999D03*
X139274998Y-117724999D03*
X143775002Y-115575001D03*
X139274999Y-115575001D03*
D13*
X145550000Y-113525000D03*
X143900000Y-113525000D03*
D32*
X148725000Y-129150000D03*
X148725000Y-127600000D03*
D36*
X158349999Y-126049999D03*
X157250001Y-126050000D03*
X156150000Y-126049999D03*
X155050000Y-126050000D03*
X153949999Y-126050001D03*
X152850000Y-126050000D03*
X151749999Y-126050001D03*
X150650000Y-126050001D03*
X149549999Y-126050000D03*
X158350000Y-124950000D03*
X157250000Y-124950001D03*
X156150000Y-124950000D03*
X155050000Y-124950001D03*
X153950000Y-124950000D03*
X152849999Y-124950001D03*
X151750000Y-124950000D03*
X150650000Y-124949999D03*
X149550000Y-124950000D03*
X158349999Y-123850000D03*
X157250002Y-123850000D03*
X155050000Y-123850000D03*
X153949999Y-123850001D03*
X152850000Y-123850000D03*
X150650000Y-123850002D03*
X149549999Y-123850000D03*
X158350000Y-122750000D03*
X157250000Y-122750000D03*
X156150000Y-122750000D03*
X151750000Y-122750000D03*
X150650001Y-122750000D03*
X149550000Y-122750000D03*
X158350001Y-121650001D03*
X157250000Y-121650000D03*
X156150000Y-121650001D03*
X154500000Y-121650000D03*
X153400000Y-121650000D03*
X151750000Y-121650000D03*
X150650000Y-121650000D03*
X149549999Y-121650000D03*
X158350000Y-120550000D03*
X157250001Y-120550001D03*
X156150000Y-120550000D03*
X154499999Y-120550001D03*
X153400001Y-120549999D03*
X151750000Y-120550000D03*
X150649999Y-120549999D03*
X149550000Y-120550000D03*
X158350001Y-119450000D03*
X157250000Y-119450000D03*
X156150000Y-119450000D03*
X154500000Y-119450000D03*
X153400000Y-119450000D03*
X151750000Y-119449999D03*
X150650000Y-119450000D03*
X149549999Y-119449999D03*
X158350000Y-118350000D03*
X157249999Y-118350000D03*
X156150000Y-118350000D03*
X151750000Y-118350000D03*
X150650000Y-118350000D03*
X149550000Y-118350000D03*
X158350001Y-117250000D03*
X157250000Y-117249998D03*
X156150000Y-117250000D03*
X154500000Y-117250000D03*
X153400000Y-117250000D03*
X151750000Y-117250001D03*
X150649998Y-117250000D03*
X149550001Y-117250000D03*
X158350000Y-116150000D03*
X157250000Y-116150001D03*
X156150000Y-116150000D03*
X153950000Y-116150000D03*
X151750000Y-116150000D03*
X150650000Y-116149999D03*
X149550000Y-116150000D03*
X158350000Y-114650000D03*
X149549999Y-114650000D03*
X158350000Y-113150000D03*
X157250000Y-113150000D03*
X150650000Y-113150000D03*
X149550000Y-113150000D03*
D32*
X147250000Y-129150000D03*
X147250000Y-127600000D03*
D37*
X145137500Y-122525000D03*
X145137500Y-123475000D03*
X145137500Y-124425000D03*
X147412500Y-124425000D03*
X147412500Y-123475000D03*
X147412500Y-122525000D03*
D13*
X161875000Y-118350000D03*
X160225000Y-118350000D03*
D38*
X153925000Y-134575000D03*
X153925000Y-136125000D03*
D34*
X150137502Y-137625001D03*
X148562498Y-137624999D03*
D39*
X160974540Y-131969148D03*
X157792557Y-135151131D03*
X159454261Y-130448869D03*
X156272278Y-133630852D03*
D34*
X143137503Y-134288201D03*
X141562499Y-134288199D03*
D32*
X150750000Y-129325000D03*
X150750000Y-127775000D03*
D40*
X148150001Y-136000001D03*
X148650000Y-136000002D03*
X149149999Y-136000000D03*
X149650000Y-136000002D03*
X150150001Y-136000001D03*
X150650001Y-136000001D03*
X151150000Y-136000000D03*
X151649999Y-136000001D03*
D41*
X152325700Y-135324300D03*
X152325701Y-134824301D03*
X152325699Y-134324302D03*
X152325701Y-133824301D03*
X152325700Y-133324300D03*
X152325700Y-132824300D03*
X152325699Y-132324301D03*
X152325700Y-131824302D03*
D40*
X151649999Y-131148601D03*
X151150000Y-131148600D03*
X150650001Y-131148602D03*
X150150000Y-131148600D03*
X149649999Y-131148601D03*
X149149999Y-131148601D03*
X148650000Y-131148602D03*
X148150001Y-131148601D03*
D41*
X147474300Y-131824302D03*
X147474299Y-132324301D03*
X147474301Y-132824300D03*
X147474299Y-133324301D03*
X147474300Y-133824302D03*
X147474300Y-134324302D03*
X147474301Y-134824301D03*
X147474300Y-135324300D03*
D42*
X149900000Y-133574301D03*
D32*
X145750000Y-129150000D03*
X145750000Y-127600000D03*
D34*
X143137502Y-132625001D03*
X141562498Y-132624999D03*
D43*
X143187498Y-120615746D03*
X143187498Y-121415750D03*
D44*
X143187497Y-122565751D03*
X143187502Y-123565747D03*
X143187501Y-124065745D03*
X143187500Y-125065751D03*
D43*
X143187498Y-126215750D03*
X143187501Y-127015753D03*
D44*
X143187498Y-125565750D03*
X143187496Y-124565752D03*
X143187497Y-123065750D03*
X143187498Y-122065750D03*
D27*
X161775000Y-123499999D03*
X160974900Y-123499997D03*
X160974902Y-124998601D03*
X161775002Y-124998603D03*
D28*
X161374951Y-124249300D03*
D15*
X160262499Y-116825000D03*
X161837501Y-116825000D03*
D29*
X153725000Y-130900000D03*
X155375000Y-130900000D03*
X160425000Y-127275000D03*
X162075000Y-127275000D03*
D45*
X142525000Y-113525000D03*
X140975000Y-113525000D03*
M02*
