G04 #@! TF.GenerationSoftware,KiCad,Pcbnew,8.0.6*
G04 #@! TF.CreationDate,2025-07-21T23:51:58+02:00*
G04 #@! TF.ProjectId,nRF5340,6e524635-3334-4302-9e6b-696361645f70,rev?*
G04 #@! TF.SameCoordinates,Original*
G04 #@! TF.FileFunction,Copper,L2,Inr*
G04 #@! TF.FilePolarity,Positive*
%FSLAX46Y46*%
G04 Gerber Fmt 4.6, Leading zero omitted, Abs format (unit mm)*
G04 Created by KiCad (PCBNEW 8.0.6) date 2025-07-21 23:51:58*
%MOMM*%
%LPD*%
G01*
G04 APERTURE LIST*
G04 #@! TA.AperFunction,ComponentPad*
%ADD10R,1.000000X1.000000*%
G04 #@! TD*
G04 #@! TA.AperFunction,ComponentPad*
%ADD11O,1.000000X1.000000*%
G04 #@! TD*
G04 #@! TA.AperFunction,ComponentPad*
%ADD12O,1.800000X1.000000*%
G04 #@! TD*
G04 #@! TA.AperFunction,ComponentPad*
%ADD13O,2.200000X1.000000*%
G04 #@! TD*
G04 #@! TA.AperFunction,ViaPad*
%ADD14C,0.450000*%
G04 #@! TD*
G04 #@! TA.AperFunction,ViaPad*
%ADD15C,0.500000*%
G04 #@! TD*
G04 #@! TA.AperFunction,ViaPad*
%ADD16C,0.600000*%
G04 #@! TD*
G04 #@! TA.AperFunction,ViaPad*
%ADD17C,0.400000*%
G04 #@! TD*
G04 APERTURE END LIST*
D10*
X187720000Y-133100000D03*
D11*
X188990001Y-133100000D03*
D10*
X198864999Y-109544999D03*
D11*
X200135000Y-109544999D03*
D10*
X196454997Y-108205000D03*
D11*
X195184996Y-108205000D03*
D10*
X202645001Y-117065000D03*
D11*
X203915002Y-117065000D03*
D10*
X181810000Y-124045000D03*
D11*
X181810000Y-125315000D03*
D10*
X193230001Y-131715001D03*
D11*
X191960000Y-131715001D03*
D10*
X208444999Y-122879999D03*
D11*
X208444999Y-121609998D03*
D10*
X205734998Y-114550001D03*
D11*
X205734998Y-113280000D03*
D10*
X184920000Y-112852500D03*
D11*
X184920000Y-114122500D03*
D12*
X142612499Y-119495748D03*
D13*
X138612498Y-119495747D03*
D12*
X142612499Y-128135750D03*
D13*
X138612498Y-128135753D03*
D14*
X195409951Y-132254301D03*
X194980000Y-125805000D03*
X190900000Y-120965000D03*
X194420000Y-125185000D03*
X199505000Y-121475000D03*
X198610000Y-133304301D03*
D15*
X190730000Y-116425000D03*
D14*
X193960000Y-117625000D03*
D15*
X200180000Y-117335000D03*
X199510000Y-126695000D03*
X199366705Y-117895790D03*
X192550000Y-126015000D03*
D14*
X195860000Y-118505000D03*
X199300000Y-119475000D03*
X198220000Y-123345000D03*
D15*
X204039999Y-123865001D03*
D14*
X196269951Y-132234301D03*
X192810000Y-133305000D03*
D15*
X200180000Y-116745000D03*
D14*
X184130000Y-128750000D03*
D15*
X187100000Y-123795000D03*
X200170000Y-116115000D03*
X205480000Y-119675000D03*
X200840000Y-117345000D03*
X194219950Y-134915000D03*
X199510000Y-125495000D03*
D16*
X191255000Y-109250000D03*
D15*
X190860000Y-123975000D03*
D14*
X204380000Y-130825000D03*
D15*
X200830000Y-116115000D03*
X197479950Y-134915000D03*
X189055000Y-112092500D03*
X199500000Y-126095000D03*
D14*
X191320000Y-117935000D03*
D15*
X200170000Y-126535000D03*
D14*
X195285000Y-119500000D03*
X183210000Y-120185000D03*
X187930000Y-118075000D03*
D15*
X186990000Y-128935000D03*
D14*
X184960000Y-121935000D03*
D17*
X193155000Y-108050000D03*
D15*
X187615000Y-114722500D03*
X193550000Y-129225000D03*
X191590000Y-125445000D03*
D17*
X185055000Y-115750000D03*
D14*
X185310000Y-129715000D03*
D15*
X190705000Y-133025000D03*
D14*
X183200000Y-119525000D03*
D15*
X190740000Y-117005000D03*
X196674997Y-113505003D03*
X200850000Y-116735000D03*
D14*
X194530000Y-117305000D03*
D15*
X191350000Y-117335000D03*
X202650000Y-126535000D03*
D14*
X183180000Y-117575000D03*
X195449951Y-135395000D03*
D15*
X191600000Y-126025000D03*
X203080000Y-112675000D03*
D14*
X187040000Y-122205000D03*
D15*
X190190000Y-117015000D03*
D14*
X185680000Y-122215000D03*
X196249951Y-135375000D03*
X185930000Y-117575000D03*
D15*
X193460000Y-130295000D03*
X190630000Y-130650000D03*
D14*
X197620000Y-125585000D03*
D17*
X207530000Y-125350000D03*
X194305000Y-121975000D03*
D15*
X194500000Y-111025000D03*
X195460000Y-125325000D03*
X190170000Y-116435000D03*
X190860000Y-123275000D03*
D14*
X187650000Y-122185000D03*
D15*
X190730000Y-117955000D03*
D14*
X197065000Y-125965000D03*
X188050000Y-121025000D03*
X196940000Y-132445000D03*
D15*
X199400000Y-118595000D03*
X183410000Y-126315000D03*
D17*
X192105000Y-112425000D03*
D14*
X202560000Y-132565000D03*
D15*
X187430000Y-117575000D03*
D14*
X183800000Y-117595000D03*
X185180000Y-117575000D03*
X202570000Y-116025000D03*
D15*
X203200000Y-127275000D03*
D14*
X183200000Y-118845000D03*
X203900000Y-116015000D03*
X199430000Y-128035000D03*
X184430000Y-117575000D03*
D17*
X183030000Y-115800000D03*
X208030000Y-120175000D03*
D15*
X204480000Y-112435000D03*
X203240000Y-126535000D03*
X190630000Y-131800000D03*
D14*
X198780000Y-119085000D03*
D15*
X202650000Y-127265000D03*
D17*
X181555000Y-119975000D03*
D14*
X196890000Y-129845000D03*
D17*
X190630000Y-134550000D03*
D15*
X186580000Y-117575000D03*
D14*
X196935000Y-119675000D03*
X189660000Y-129705000D03*
X198450000Y-132465000D03*
X183190000Y-118225000D03*
D17*
X188280000Y-110575000D03*
D16*
X190255000Y-109225000D03*
D15*
X203750000Y-127285000D03*
D14*
X191930000Y-133375000D03*
D15*
X206270000Y-116365000D03*
X191430000Y-114700000D03*
X205640000Y-121205000D03*
X205530000Y-116345000D03*
D14*
X197430000Y-122675000D03*
X183805000Y-120780000D03*
D15*
X194250000Y-109605000D03*
X188330000Y-116325000D03*
D14*
X188060000Y-121725000D03*
X186410000Y-122205000D03*
D15*
X184620000Y-125815000D03*
D14*
X199420000Y-127385000D03*
X194780000Y-132445000D03*
D17*
X202830000Y-111050000D03*
D15*
X186480000Y-115075000D03*
D14*
X184345000Y-121320000D03*
D15*
X194980000Y-124795000D03*
D17*
X182805000Y-127700000D03*
D14*
X144925000Y-116775000D03*
X149550000Y-126850000D03*
D17*
X144350000Y-136325000D03*
D14*
X144700000Y-121150000D03*
D17*
X141525000Y-116825000D03*
D14*
X151450000Y-133575000D03*
X161775000Y-125675000D03*
X138600000Y-126950000D03*
X160000000Y-122725000D03*
X160225000Y-114625000D03*
D17*
X136975000Y-126250000D03*
D14*
X149925000Y-127775000D03*
X159850000Y-133850000D03*
D17*
X140075000Y-122250000D03*
X152275000Y-137400000D03*
D14*
X161625000Y-131325000D03*
D17*
X163525000Y-120725000D03*
X138600000Y-123775000D03*
D14*
X150975000Y-136900000D03*
X146500000Y-116000000D03*
X156025000Y-130300000D03*
X151847477Y-123707646D03*
X145175000Y-133825000D03*
X151450000Y-134675000D03*
D17*
X144825000Y-112475000D03*
D14*
X140975000Y-114425000D03*
X162150000Y-119775000D03*
X146012500Y-123137500D03*
D17*
X148275000Y-120300000D03*
D14*
X153925000Y-136925000D03*
D17*
X146950000Y-112550000D03*
D14*
X148850000Y-133824302D03*
X160275000Y-115825000D03*
X155700000Y-129075000D03*
X150812150Y-132662150D03*
X148350000Y-132700000D03*
X147250000Y-126850000D03*
D17*
X136925000Y-122125000D03*
X139750000Y-126200000D03*
D14*
X158325000Y-126625000D03*
X148725000Y-126800000D03*
X151650000Y-130475000D03*
D17*
X163575000Y-126350000D03*
D14*
X153400000Y-122350000D03*
X148025000Y-113125000D03*
D17*
X163550000Y-123550000D03*
D14*
X138600000Y-120725000D03*
D17*
X161725000Y-130300000D03*
X158450000Y-132650000D03*
D14*
X138425000Y-117725000D03*
D17*
X142550000Y-112450000D03*
D14*
X153750000Y-128675000D03*
X145750000Y-126875000D03*
X154500000Y-122400000D03*
D17*
X151750000Y-124325000D03*
D14*
X160975000Y-125625000D03*
X145025000Y-135375000D03*
X139250000Y-129975000D03*
X145437500Y-119637500D03*
X147375000Y-121350000D03*
X160650000Y-119550000D03*
X154575000Y-135225000D03*
X162925000Y-127250000D03*
X161400000Y-122200000D03*
X146375000Y-113525000D03*
X162800000Y-128725000D03*
X152100000Y-129325000D03*
D17*
X149600000Y-129200000D03*
X143225000Y-135400000D03*
X149625000Y-135300000D03*
X145200000Y-130350000D03*
X146750000Y-129900000D03*
X157150000Y-129750000D03*
X157175000Y-127850000D03*
X153824301Y-132324301D03*
X155000000Y-134275000D03*
X141825000Y-122600000D03*
X148650000Y-131825000D03*
X147250000Y-131175000D03*
X141700000Y-125575000D03*
X152475000Y-136100000D03*
X159400000Y-125125000D03*
D14*
X148625000Y-117850000D03*
X152600000Y-119850000D03*
X148575000Y-118875000D03*
X153950000Y-126825000D03*
X151200000Y-123850002D03*
G04 #@! TA.AperFunction,Conductor*
G36*
X148434643Y-111843970D02*
G01*
X148470684Y-111893414D01*
X148475576Y-111923575D01*
X148493064Y-114914042D01*
X148474498Y-114972342D01*
X148425209Y-115008595D01*
X148364024Y-115008953D01*
X148314315Y-114973279D01*
X148302602Y-114952506D01*
X148291925Y-114926730D01*
X148291925Y-114926729D01*
X148271589Y-114896295D01*
X148210305Y-114804577D01*
X148106424Y-114700696D01*
X147984273Y-114619077D01*
X147984272Y-114619076D01*
X147984270Y-114619075D01*
X147848546Y-114562857D01*
X147704461Y-114534197D01*
X147704459Y-114534197D01*
X147557549Y-114534197D01*
X147557546Y-114534197D01*
X147413462Y-114562857D01*
X147413460Y-114562857D01*
X147277737Y-114619075D01*
X147277736Y-114619075D01*
X147155584Y-114700696D01*
X147155580Y-114700699D01*
X147051706Y-114804573D01*
X147051703Y-114804577D01*
X146970082Y-114926729D01*
X146970082Y-114926730D01*
X146913864Y-115062453D01*
X146913864Y-115062455D01*
X146885204Y-115206539D01*
X146885204Y-115353454D01*
X146913864Y-115497538D01*
X146913864Y-115497540D01*
X146970082Y-115633263D01*
X146970082Y-115633264D01*
X147010753Y-115694131D01*
X147051703Y-115755417D01*
X147155584Y-115859298D01*
X147277735Y-115940917D01*
X147413462Y-115997137D01*
X147557549Y-116025797D01*
X147557551Y-116025797D01*
X147704457Y-116025797D01*
X147704459Y-116025797D01*
X147848546Y-115997137D01*
X147984273Y-115940917D01*
X148106424Y-115859298D01*
X148210305Y-115755417D01*
X148291924Y-115633266D01*
X148306816Y-115597314D01*
X148346552Y-115550788D01*
X148406047Y-115536504D01*
X148462575Y-115559918D01*
X148494544Y-115612087D01*
X148497278Y-115634620D01*
X148499999Y-116099999D01*
X148500000Y-116100000D01*
X159425000Y-116125000D01*
X159425000Y-115125000D01*
X159425001Y-115124648D01*
X159433230Y-112812070D01*
X159452344Y-112753949D01*
X159501972Y-112718161D01*
X159563157Y-112718379D01*
X159596524Y-112737144D01*
X159858540Y-112960927D01*
X159862392Y-112964395D01*
X160411169Y-113485165D01*
X160414834Y-113488830D01*
X160935604Y-114037607D01*
X160939072Y-114041459D01*
X161430399Y-114616729D01*
X161433661Y-114620757D01*
X161894218Y-115220966D01*
X161897247Y-115225134D01*
X162111246Y-115536504D01*
X162325777Y-115848650D01*
X162328599Y-115852997D01*
X162479963Y-116100000D01*
X162680024Y-116426470D01*
X162723875Y-116498027D01*
X162726467Y-116502515D01*
X163087461Y-117167386D01*
X163089814Y-117172004D01*
X163217777Y-117440282D01*
X163413202Y-117849999D01*
X163415515Y-117854847D01*
X163417623Y-117859583D01*
X163707139Y-118558540D01*
X163708996Y-118563378D01*
X163961528Y-119276505D01*
X163963130Y-119281434D01*
X164177999Y-120006819D01*
X164179341Y-120011826D01*
X164355956Y-120747480D01*
X164357033Y-120752550D01*
X164494898Y-121496403D01*
X164495709Y-121501522D01*
X164594457Y-122251588D01*
X164594999Y-122256743D01*
X164654356Y-123010958D01*
X164654627Y-123016133D01*
X164674432Y-123772408D01*
X164674432Y-123777592D01*
X164654627Y-124533866D01*
X164654356Y-124539041D01*
X164594999Y-125293256D01*
X164594457Y-125298411D01*
X164495709Y-126048477D01*
X164494898Y-126053596D01*
X164357033Y-126797449D01*
X164355956Y-126802519D01*
X164179341Y-127538173D01*
X164177999Y-127543180D01*
X163963130Y-128268565D01*
X163961528Y-128273494D01*
X163708996Y-128986621D01*
X163707139Y-128991459D01*
X163417623Y-129690416D01*
X163415515Y-129695152D01*
X163089814Y-130377995D01*
X163087461Y-130382613D01*
X162726467Y-131047484D01*
X162723875Y-131051972D01*
X162328599Y-131697002D01*
X162325777Y-131701349D01*
X161897256Y-132324853D01*
X161894209Y-132329046D01*
X161433661Y-132929242D01*
X161430399Y-132933270D01*
X160939072Y-133508540D01*
X160935604Y-133512392D01*
X160414834Y-134061169D01*
X160411169Y-134064834D01*
X159862392Y-134585604D01*
X159858540Y-134589072D01*
X159283270Y-135080399D01*
X159279242Y-135083661D01*
X158679046Y-135544209D01*
X158674853Y-135547256D01*
X158051349Y-135975777D01*
X158047002Y-135978599D01*
X157401972Y-136373875D01*
X157397484Y-136376467D01*
X156732613Y-136737461D01*
X156727995Y-136739814D01*
X156045152Y-137065515D01*
X156040416Y-137067623D01*
X155341459Y-137357139D01*
X155336621Y-137358996D01*
X154623494Y-137611528D01*
X154618565Y-137613130D01*
X153893180Y-137827999D01*
X153888173Y-137829341D01*
X153152519Y-138005956D01*
X153147449Y-138007033D01*
X152403596Y-138144898D01*
X152398477Y-138145709D01*
X151648411Y-138244457D01*
X151643256Y-138244999D01*
X150889041Y-138304356D01*
X150883866Y-138304627D01*
X150127592Y-138324432D01*
X150122408Y-138324432D01*
X149366133Y-138304627D01*
X149360958Y-138304356D01*
X148606743Y-138244999D01*
X148601588Y-138244457D01*
X147851522Y-138145709D01*
X147846403Y-138144898D01*
X147102550Y-138007033D01*
X147097480Y-138005956D01*
X146361826Y-137829341D01*
X146356819Y-137827999D01*
X145631434Y-137613130D01*
X145626505Y-137611528D01*
X144913378Y-137358996D01*
X144908540Y-137357139D01*
X144209583Y-137067623D01*
X144204847Y-137065515D01*
X144202012Y-137064163D01*
X144062051Y-136997404D01*
X143522004Y-136739814D01*
X143517386Y-136737461D01*
X143022145Y-136468568D01*
X142852508Y-136376463D01*
X142848027Y-136373875D01*
X142790039Y-136338340D01*
X142401103Y-136099999D01*
X152069508Y-136099999D01*
X152069508Y-136100000D01*
X152089354Y-136225303D01*
X152089355Y-136225307D01*
X152110189Y-136266195D01*
X152146950Y-136338342D01*
X152236658Y-136428050D01*
X152349696Y-136485646D01*
X152475000Y-136505492D01*
X152600304Y-136485646D01*
X152713342Y-136428050D01*
X152803050Y-136338342D01*
X152860646Y-136225304D01*
X152880492Y-136100000D01*
X152860646Y-135974696D01*
X152803050Y-135861658D01*
X152713342Y-135771950D01*
X152709406Y-135769944D01*
X152600307Y-135714355D01*
X152600304Y-135714354D01*
X152475000Y-135694508D01*
X152349696Y-135714354D01*
X152349692Y-135714355D01*
X152236659Y-135771949D01*
X152146949Y-135861659D01*
X152089355Y-135974692D01*
X152089354Y-135974696D01*
X152069508Y-136099999D01*
X142401103Y-136099999D01*
X142202997Y-135978599D01*
X142198650Y-135975777D01*
X141902079Y-135771950D01*
X141575134Y-135547247D01*
X141570966Y-135544218D01*
X141383018Y-135400000D01*
X142819508Y-135400000D01*
X142836633Y-135508127D01*
X142839354Y-135525303D01*
X142839355Y-135525307D01*
X142850539Y-135547256D01*
X142896950Y-135638342D01*
X142986658Y-135728050D01*
X143099696Y-135785646D01*
X143225000Y-135805492D01*
X143350304Y-135785646D01*
X143463342Y-135728050D01*
X143553050Y-135638342D01*
X143610646Y-135525304D01*
X143630492Y-135400000D01*
X143626532Y-135374999D01*
X144594196Y-135374999D01*
X144594196Y-135375000D01*
X144615281Y-135508127D01*
X144615282Y-135508129D01*
X144676385Y-135628050D01*
X144676472Y-135628220D01*
X144771780Y-135723528D01*
X144891874Y-135784719D01*
X145025000Y-135805804D01*
X145158126Y-135784719D01*
X145278220Y-135723528D01*
X145373528Y-135628220D01*
X145434719Y-135508126D01*
X145455804Y-135375000D01*
X145443925Y-135299999D01*
X149219508Y-135299999D01*
X149219508Y-135300000D01*
X149239354Y-135425303D01*
X149239355Y-135425307D01*
X149281556Y-135508129D01*
X149296950Y-135538342D01*
X149386658Y-135628050D01*
X149499696Y-135685646D01*
X149625000Y-135705492D01*
X149750304Y-135685646D01*
X149863342Y-135628050D01*
X149953050Y-135538342D01*
X150010646Y-135425304D01*
X150030492Y-135300000D01*
X150018613Y-135224999D01*
X154144196Y-135224999D01*
X154144196Y-135225000D01*
X154165281Y-135358127D01*
X154165282Y-135358129D01*
X154199511Y-135425307D01*
X154226472Y-135478220D01*
X154321780Y-135573528D01*
X154441874Y-135634719D01*
X154575000Y-135655804D01*
X154708126Y-135634719D01*
X154828220Y-135573528D01*
X154923528Y-135478220D01*
X154984719Y-135358126D01*
X155005804Y-135225000D01*
X154984719Y-135091874D01*
X154923528Y-134971780D01*
X154828220Y-134876472D01*
X154828217Y-134876470D01*
X154708129Y-134815282D01*
X154708127Y-134815281D01*
X154575000Y-134794196D01*
X154441872Y-134815281D01*
X154441870Y-134815282D01*
X154321782Y-134876470D01*
X154226470Y-134971782D01*
X154165282Y-135091870D01*
X154165281Y-135091872D01*
X154144196Y-135224999D01*
X150018613Y-135224999D01*
X150010646Y-135174696D01*
X149953050Y-135061658D01*
X149863342Y-134971950D01*
X149808872Y-134944196D01*
X149750307Y-134914355D01*
X149750304Y-134914354D01*
X149625000Y-134894508D01*
X149499696Y-134914354D01*
X149499692Y-134914355D01*
X149386659Y-134971949D01*
X149296949Y-135061659D01*
X149239355Y-135174692D01*
X149239354Y-135174696D01*
X149219508Y-135299999D01*
X145443925Y-135299999D01*
X145434719Y-135241874D01*
X145373528Y-135121780D01*
X145278220Y-135026472D01*
X145278217Y-135026470D01*
X145158129Y-134965282D01*
X145158127Y-134965281D01*
X145025000Y-134944196D01*
X144891872Y-134965281D01*
X144891870Y-134965282D01*
X144771782Y-135026470D01*
X144676470Y-135121782D01*
X144615282Y-135241870D01*
X144615281Y-135241872D01*
X144594196Y-135374999D01*
X143626532Y-135374999D01*
X143610646Y-135274696D01*
X143553050Y-135161658D01*
X143463342Y-135071950D01*
X143443143Y-135061658D01*
X143350307Y-135014355D01*
X143350304Y-135014354D01*
X143225000Y-134994508D01*
X143099696Y-135014354D01*
X143099692Y-135014355D01*
X142986659Y-135071949D01*
X142896949Y-135161659D01*
X142839355Y-135274692D01*
X142839354Y-135274696D01*
X142823468Y-135375000D01*
X142819508Y-135400000D01*
X141383018Y-135400000D01*
X140970757Y-135083661D01*
X140966729Y-135080399D01*
X140391459Y-134589072D01*
X140387607Y-134585604D01*
X140060298Y-134274999D01*
X154594508Y-134274999D01*
X154594508Y-134275000D01*
X154614354Y-134400303D01*
X154614355Y-134400307D01*
X154669944Y-134509406D01*
X154671950Y-134513342D01*
X154761658Y-134603050D01*
X154874696Y-134660646D01*
X155000000Y-134680492D01*
X155125304Y-134660646D01*
X155238342Y-134603050D01*
X155328050Y-134513342D01*
X155385646Y-134400304D01*
X155405492Y-134275000D01*
X155385646Y-134149696D01*
X155328050Y-134036658D01*
X155238342Y-133946950D01*
X155234406Y-133944944D01*
X155125307Y-133889355D01*
X155125304Y-133889354D01*
X155000000Y-133869508D01*
X154874696Y-133889354D01*
X154874692Y-133889355D01*
X154761659Y-133946949D01*
X154671949Y-134036659D01*
X154614355Y-134149692D01*
X154614354Y-134149696D01*
X154594508Y-134274999D01*
X140060298Y-134274999D01*
X139838830Y-134064834D01*
X139835165Y-134061169D01*
X139314395Y-133512392D01*
X139310927Y-133508540D01*
X138819600Y-132933270D01*
X138816338Y-132929242D01*
X138648065Y-132709945D01*
X138355776Y-132329027D01*
X138352757Y-132324872D01*
X138352364Y-132324300D01*
X153418809Y-132324300D01*
X153418809Y-132324301D01*
X153438655Y-132449604D01*
X153438656Y-132449608D01*
X153494245Y-132558707D01*
X153496251Y-132562643D01*
X153585959Y-132652351D01*
X153698997Y-132709947D01*
X153824301Y-132729793D01*
X153949605Y-132709947D01*
X154062643Y-132652351D01*
X154152351Y-132562643D01*
X154209947Y-132449605D01*
X154229793Y-132324301D01*
X154209947Y-132198997D01*
X154152351Y-132085959D01*
X154062643Y-131996251D01*
X154058707Y-131994245D01*
X153949608Y-131938656D01*
X153949605Y-131938655D01*
X153824301Y-131918809D01*
X153698997Y-131938655D01*
X153698993Y-131938656D01*
X153585960Y-131996250D01*
X153496250Y-132085960D01*
X153438656Y-132198993D01*
X153438655Y-132198997D01*
X153418809Y-132324300D01*
X138352364Y-132324300D01*
X138009204Y-131824999D01*
X148244508Y-131824999D01*
X148244508Y-131825000D01*
X148264354Y-131950303D01*
X148264355Y-131950307D01*
X148287765Y-131996251D01*
X148321950Y-132063342D01*
X148411658Y-132153050D01*
X148524696Y-132210646D01*
X148650000Y-132230492D01*
X148775304Y-132210646D01*
X148888342Y-132153050D01*
X148978050Y-132063342D01*
X149035646Y-131950304D01*
X149055492Y-131825000D01*
X149035646Y-131699696D01*
X148978050Y-131586658D01*
X148888342Y-131496950D01*
X148884406Y-131494944D01*
X148775307Y-131439355D01*
X148775304Y-131439354D01*
X148650000Y-131419508D01*
X148524696Y-131439354D01*
X148524692Y-131439355D01*
X148411659Y-131496949D01*
X148321949Y-131586659D01*
X148264355Y-131699692D01*
X148264354Y-131699696D01*
X148244508Y-131824999D01*
X138009204Y-131824999D01*
X137924220Y-131701346D01*
X137921400Y-131697002D01*
X137853781Y-131586658D01*
X137601516Y-131174999D01*
X146844508Y-131174999D01*
X146844508Y-131175000D01*
X146864354Y-131300303D01*
X146864355Y-131300307D01*
X146919944Y-131409406D01*
X146921950Y-131413342D01*
X147011658Y-131503050D01*
X147124696Y-131560646D01*
X147250000Y-131580492D01*
X147375304Y-131560646D01*
X147488342Y-131503050D01*
X147578050Y-131413342D01*
X147635646Y-131300304D01*
X147655492Y-131175000D01*
X147635646Y-131049696D01*
X147578050Y-130936658D01*
X147488342Y-130846950D01*
X147484406Y-130844944D01*
X147375307Y-130789355D01*
X147375304Y-130789354D01*
X147250000Y-130769508D01*
X147124696Y-130789354D01*
X147124692Y-130789355D01*
X147011659Y-130846949D01*
X146921949Y-130936659D01*
X146864355Y-131049692D01*
X146864354Y-131049696D01*
X146844508Y-131174999D01*
X137601516Y-131174999D01*
X137526113Y-131051953D01*
X137523543Y-131047503D01*
X137228734Y-130504533D01*
X137162538Y-130382613D01*
X137160185Y-130377995D01*
X137044590Y-130135646D01*
X136967965Y-129974999D01*
X138819196Y-129974999D01*
X138819196Y-129975000D01*
X138840281Y-130108127D01*
X138840282Y-130108129D01*
X138864415Y-130155492D01*
X138901472Y-130228220D01*
X138996780Y-130323528D01*
X139116874Y-130384719D01*
X139250000Y-130405804D01*
X139383126Y-130384719D01*
X139451268Y-130349999D01*
X144794508Y-130349999D01*
X144794508Y-130350000D01*
X144814354Y-130475303D01*
X144814355Y-130475307D01*
X144830105Y-130506217D01*
X144871950Y-130588342D01*
X144961658Y-130678050D01*
X145074696Y-130735646D01*
X145200000Y-130755492D01*
X145325304Y-130735646D01*
X145438342Y-130678050D01*
X145528050Y-130588342D01*
X145585646Y-130475304D01*
X145605492Y-130350000D01*
X145585646Y-130224696D01*
X145528050Y-130111658D01*
X145438342Y-130021950D01*
X145372383Y-129988342D01*
X145325307Y-129964355D01*
X145325304Y-129964354D01*
X145200000Y-129944508D01*
X145074696Y-129964354D01*
X145074692Y-129964355D01*
X144961659Y-130021949D01*
X144871949Y-130111659D01*
X144814355Y-130224692D01*
X144814354Y-130224696D01*
X144794508Y-130349999D01*
X139451268Y-130349999D01*
X139503220Y-130323528D01*
X139598528Y-130228220D01*
X139659719Y-130108126D01*
X139680804Y-129975000D01*
X139668925Y-129899999D01*
X146344508Y-129899999D01*
X146344508Y-129900000D01*
X146364354Y-130025303D01*
X146364355Y-130025307D01*
X146406556Y-130108129D01*
X146421950Y-130138342D01*
X146511658Y-130228050D01*
X146624696Y-130285646D01*
X146750000Y-130305492D01*
X146875304Y-130285646D01*
X146988342Y-130228050D01*
X147078050Y-130138342D01*
X147135646Y-130025304D01*
X147155492Y-129900000D01*
X147135646Y-129774696D01*
X147078050Y-129661658D01*
X146988342Y-129571950D01*
X146933872Y-129544196D01*
X146875307Y-129514355D01*
X146875304Y-129514354D01*
X146750000Y-129494508D01*
X146624696Y-129514354D01*
X146624692Y-129514355D01*
X146511659Y-129571949D01*
X146421949Y-129661659D01*
X146364355Y-129774692D01*
X146364354Y-129774696D01*
X146344508Y-129899999D01*
X139668925Y-129899999D01*
X139659719Y-129841874D01*
X139598528Y-129721780D01*
X139503220Y-129626472D01*
X139503217Y-129626470D01*
X139383129Y-129565282D01*
X139383127Y-129565281D01*
X139250000Y-129544196D01*
X139116872Y-129565281D01*
X139116870Y-129565282D01*
X138996782Y-129626470D01*
X138901470Y-129721782D01*
X138840282Y-129841870D01*
X138840281Y-129841872D01*
X138819196Y-129974999D01*
X136967965Y-129974999D01*
X136834474Y-129695130D01*
X136832376Y-129690416D01*
X136825381Y-129673529D01*
X136629240Y-129199999D01*
X149194508Y-129199999D01*
X149194508Y-129200000D01*
X149214354Y-129325303D01*
X149214355Y-129325307D01*
X149263597Y-129421949D01*
X149271950Y-129438342D01*
X149361658Y-129528050D01*
X149474696Y-129585646D01*
X149600000Y-129605492D01*
X149725304Y-129585646D01*
X149838342Y-129528050D01*
X149928050Y-129438342D01*
X149985646Y-129325304D01*
X149985694Y-129324999D01*
X151669196Y-129324999D01*
X151669196Y-129325000D01*
X151690281Y-129458127D01*
X151690282Y-129458129D01*
X151748277Y-129571950D01*
X151751472Y-129578220D01*
X151846780Y-129673528D01*
X151966874Y-129734719D01*
X152100000Y-129755804D01*
X152136651Y-129749999D01*
X156744508Y-129749999D01*
X156744508Y-129750000D01*
X156764354Y-129875303D01*
X156764355Y-129875307D01*
X156776937Y-129900000D01*
X156821950Y-129988342D01*
X156911658Y-130078050D01*
X157024696Y-130135646D01*
X157150000Y-130155492D01*
X157275304Y-130135646D01*
X157388342Y-130078050D01*
X157478050Y-129988342D01*
X157535646Y-129875304D01*
X157555492Y-129750000D01*
X157535646Y-129624696D01*
X157478050Y-129511658D01*
X157388342Y-129421950D01*
X157384406Y-129419944D01*
X157275307Y-129364355D01*
X157275304Y-129364354D01*
X157150000Y-129344508D01*
X157024696Y-129364354D01*
X157024692Y-129364355D01*
X156911659Y-129421949D01*
X156821949Y-129511659D01*
X156764355Y-129624692D01*
X156764354Y-129624696D01*
X156744508Y-129749999D01*
X152136651Y-129749999D01*
X152233126Y-129734719D01*
X152353220Y-129673528D01*
X152448528Y-129578220D01*
X152509719Y-129458126D01*
X152530804Y-129325000D01*
X152509719Y-129191874D01*
X152448528Y-129071780D01*
X152353220Y-128976472D01*
X152353217Y-128976470D01*
X152233129Y-128915282D01*
X152233127Y-128915281D01*
X152100000Y-128894196D01*
X151966872Y-128915281D01*
X151966870Y-128915282D01*
X151846782Y-128976470D01*
X151751470Y-129071782D01*
X151690282Y-129191870D01*
X151690281Y-129191872D01*
X151669196Y-129324999D01*
X149985694Y-129324999D01*
X150005492Y-129200000D01*
X149985646Y-129074696D01*
X149928050Y-128961658D01*
X149838342Y-128871950D01*
X149784869Y-128844704D01*
X149725307Y-128814355D01*
X149725304Y-128814354D01*
X149600000Y-128794508D01*
X149474696Y-128814354D01*
X149474692Y-128814355D01*
X149361659Y-128871949D01*
X149271949Y-128961659D01*
X149214355Y-129074692D01*
X149214354Y-129074696D01*
X149194508Y-129199999D01*
X136629240Y-129199999D01*
X136602200Y-129134719D01*
X136542860Y-128991459D01*
X136541003Y-128986621D01*
X136537408Y-128976470D01*
X136295802Y-128294196D01*
X136288471Y-128273494D01*
X136286869Y-128268565D01*
X136235828Y-128096254D01*
X136203096Y-127985752D01*
X137226662Y-127985752D01*
X137226663Y-127985753D01*
X137752690Y-127985753D01*
X137732942Y-128019957D01*
X137712498Y-128096257D01*
X137712498Y-128175249D01*
X137732942Y-128251549D01*
X137752690Y-128285753D01*
X137226662Y-128285753D01*
X137243240Y-128369101D01*
X137303546Y-128514693D01*
X137303550Y-128514702D01*
X137391097Y-128645722D01*
X137391100Y-128645726D01*
X137502524Y-128757150D01*
X137502528Y-128757153D01*
X137633548Y-128844700D01*
X137633557Y-128844704D01*
X137779148Y-128905010D01*
X137933702Y-128935752D01*
X137933706Y-128935753D01*
X138462497Y-128935753D01*
X138462498Y-128935752D01*
X138462498Y-128435753D01*
X138762498Y-128435753D01*
X138762498Y-128935752D01*
X138762499Y-128935753D01*
X139291290Y-128935753D01*
X139291293Y-128935752D01*
X139445847Y-128905010D01*
X139591438Y-128844704D01*
X139591447Y-128844700D01*
X139722467Y-128757153D01*
X139722471Y-128757150D01*
X139833895Y-128645726D01*
X139833898Y-128645722D01*
X139921445Y-128514702D01*
X139921449Y-128514693D01*
X139981755Y-128369101D01*
X139998334Y-128285753D01*
X139472306Y-128285753D01*
X139492054Y-128251549D01*
X139512498Y-128175249D01*
X139512498Y-128096257D01*
X139492054Y-128019957D01*
X139472306Y-127985753D01*
X139998333Y-127985753D01*
X139998333Y-127985752D01*
X139998332Y-127985749D01*
X141426663Y-127985749D01*
X141426664Y-127985750D01*
X141952691Y-127985750D01*
X141932943Y-128019954D01*
X141912499Y-128096254D01*
X141912499Y-128175246D01*
X141932943Y-128251546D01*
X141952691Y-128285750D01*
X141426663Y-128285750D01*
X141443241Y-128369098D01*
X141503547Y-128514690D01*
X141503551Y-128514699D01*
X141591098Y-128645719D01*
X141591101Y-128645723D01*
X141702525Y-128757147D01*
X141702529Y-128757150D01*
X141833549Y-128844697D01*
X141833558Y-128844701D01*
X141979149Y-128905007D01*
X142133703Y-128935749D01*
X142133707Y-128935750D01*
X142462498Y-128935750D01*
X142462499Y-128935749D01*
X142462499Y-128435750D01*
X142762499Y-128435750D01*
X142762499Y-128935749D01*
X142762500Y-128935750D01*
X143091291Y-128935750D01*
X143091294Y-128935749D01*
X143245848Y-128905007D01*
X143391439Y-128844701D01*
X143391448Y-128844697D01*
X143522468Y-128757150D01*
X143522472Y-128757147D01*
X143554620Y-128724999D01*
X162369196Y-128724999D01*
X162369196Y-128725000D01*
X162390281Y-128858127D01*
X162390282Y-128858129D01*
X162450580Y-128976470D01*
X162451472Y-128978220D01*
X162546780Y-129073528D01*
X162666874Y-129134719D01*
X162800000Y-129155804D01*
X162933126Y-129134719D01*
X163053220Y-129073528D01*
X163148528Y-128978220D01*
X163209719Y-128858126D01*
X163230804Y-128725000D01*
X163209719Y-128591874D01*
X163148528Y-128471780D01*
X163053220Y-128376472D01*
X163053217Y-128376470D01*
X162933129Y-128315282D01*
X162933127Y-128315281D01*
X162800000Y-128294196D01*
X162666872Y-128315281D01*
X162666870Y-128315282D01*
X162546782Y-128376470D01*
X162451470Y-128471782D01*
X162390282Y-128591870D01*
X162390281Y-128591872D01*
X162369196Y-128724999D01*
X143554620Y-128724999D01*
X143633896Y-128645723D01*
X143633899Y-128645719D01*
X143721446Y-128514699D01*
X143721450Y-128514690D01*
X143781756Y-128369098D01*
X143798335Y-128285750D01*
X143272307Y-128285750D01*
X143292055Y-128251546D01*
X143312499Y-128175246D01*
X143312499Y-128096254D01*
X143292055Y-128019954D01*
X143272307Y-127985750D01*
X143798334Y-127985750D01*
X143798334Y-127985749D01*
X143781756Y-127902401D01*
X143760051Y-127850000D01*
X156769508Y-127850000D01*
X156785591Y-127951548D01*
X156789354Y-127975303D01*
X156789355Y-127975307D01*
X156794678Y-127985753D01*
X156846950Y-128088342D01*
X156936658Y-128178050D01*
X157049696Y-128235646D01*
X157175000Y-128255492D01*
X157300304Y-128235646D01*
X157413342Y-128178050D01*
X157503050Y-128088342D01*
X157560646Y-127975304D01*
X157580492Y-127850000D01*
X157560646Y-127724696D01*
X157503050Y-127611658D01*
X157413342Y-127521950D01*
X157398424Y-127514349D01*
X157300307Y-127464355D01*
X157300304Y-127464354D01*
X157175000Y-127444508D01*
X157049696Y-127464354D01*
X157049692Y-127464355D01*
X156936659Y-127521949D01*
X156846949Y-127611659D01*
X156789355Y-127724692D01*
X156789354Y-127724696D01*
X156769508Y-127850000D01*
X143760051Y-127850000D01*
X143721450Y-127756809D01*
X143721446Y-127756800D01*
X143633899Y-127625780D01*
X143633896Y-127625776D01*
X143522472Y-127514352D01*
X143522468Y-127514349D01*
X143391448Y-127426802D01*
X143391439Y-127426798D01*
X143245848Y-127366492D01*
X143091294Y-127335750D01*
X142762500Y-127335750D01*
X142762499Y-127335751D01*
X142762499Y-127835750D01*
X142462499Y-127835750D01*
X142462499Y-127335751D01*
X142462498Y-127335750D01*
X142133703Y-127335750D01*
X141979149Y-127366492D01*
X141833558Y-127426798D01*
X141833549Y-127426802D01*
X141702529Y-127514349D01*
X141702525Y-127514352D01*
X141591101Y-127625776D01*
X141591098Y-127625780D01*
X141503551Y-127756800D01*
X141503547Y-127756809D01*
X141443241Y-127902401D01*
X141426663Y-127985749D01*
X139998332Y-127985749D01*
X139981755Y-127902404D01*
X139921449Y-127756812D01*
X139921445Y-127756803D01*
X139833898Y-127625783D01*
X139833895Y-127625779D01*
X139722471Y-127514355D01*
X139722467Y-127514352D01*
X139591447Y-127426805D01*
X139591438Y-127426801D01*
X139445847Y-127366495D01*
X139291293Y-127335753D01*
X138762499Y-127335753D01*
X138762498Y-127335754D01*
X138762498Y-127835753D01*
X138462498Y-127835753D01*
X138462498Y-127335754D01*
X138462497Y-127335753D01*
X137933702Y-127335753D01*
X137779148Y-127366495D01*
X137633557Y-127426801D01*
X137633548Y-127426805D01*
X137502528Y-127514352D01*
X137502524Y-127514355D01*
X137391100Y-127625779D01*
X137391097Y-127625783D01*
X137303550Y-127756803D01*
X137303546Y-127756812D01*
X137243240Y-127902404D01*
X137226662Y-127985752D01*
X136203096Y-127985752D01*
X136071998Y-127543174D01*
X136070658Y-127538173D01*
X136064938Y-127514349D01*
X135899440Y-126824999D01*
X153519196Y-126824999D01*
X153519196Y-126825000D01*
X153540281Y-126958127D01*
X153540282Y-126958129D01*
X153559976Y-126996780D01*
X153601472Y-127078220D01*
X153696780Y-127173528D01*
X153816874Y-127234719D01*
X153950000Y-127255804D01*
X153986651Y-127249999D01*
X162494196Y-127249999D01*
X162494196Y-127250000D01*
X162515281Y-127383127D01*
X162515282Y-127383129D01*
X162556669Y-127464355D01*
X162576472Y-127503220D01*
X162671780Y-127598528D01*
X162791874Y-127659719D01*
X162925000Y-127680804D01*
X163058126Y-127659719D01*
X163178220Y-127598528D01*
X163273528Y-127503220D01*
X163334719Y-127383126D01*
X163355804Y-127250000D01*
X163334719Y-127116874D01*
X163273528Y-126996780D01*
X163178220Y-126901472D01*
X163178217Y-126901470D01*
X163058129Y-126840282D01*
X163058127Y-126840281D01*
X162925000Y-126819196D01*
X162791872Y-126840281D01*
X162791870Y-126840282D01*
X162671782Y-126901470D01*
X162576470Y-126996782D01*
X162515282Y-127116870D01*
X162515281Y-127116872D01*
X162494196Y-127249999D01*
X153986651Y-127249999D01*
X154083126Y-127234719D01*
X154203220Y-127173528D01*
X154298528Y-127078220D01*
X154359719Y-126958126D01*
X154380804Y-126825000D01*
X154359719Y-126691874D01*
X154298528Y-126571780D01*
X154203220Y-126476472D01*
X154203217Y-126476470D01*
X154083129Y-126415282D01*
X154083127Y-126415281D01*
X153950000Y-126394196D01*
X153816872Y-126415281D01*
X153816870Y-126415282D01*
X153696782Y-126476470D01*
X153601470Y-126571782D01*
X153540282Y-126691870D01*
X153540281Y-126691872D01*
X153519196Y-126824999D01*
X135899440Y-126824999D01*
X135894042Y-126802514D01*
X135892966Y-126797449D01*
X135873399Y-126691874D01*
X135755099Y-126053589D01*
X135754290Y-126048477D01*
X135752479Y-126034718D01*
X135691956Y-125574999D01*
X141294508Y-125574999D01*
X141294508Y-125575000D01*
X141314354Y-125700303D01*
X141314355Y-125700307D01*
X141343816Y-125758126D01*
X141371950Y-125813342D01*
X141461658Y-125903050D01*
X141574696Y-125960646D01*
X141700000Y-125980492D01*
X141825304Y-125960646D01*
X141938342Y-125903050D01*
X142028050Y-125813342D01*
X142085646Y-125700304D01*
X142097573Y-125624999D01*
X160544196Y-125624999D01*
X160544196Y-125625000D01*
X160565281Y-125758127D01*
X160565282Y-125758129D01*
X160626470Y-125878217D01*
X160626472Y-125878220D01*
X160721780Y-125973528D01*
X160841874Y-126034719D01*
X160975000Y-126055804D01*
X161108126Y-126034719D01*
X161228220Y-125973528D01*
X161323528Y-125878220D01*
X161384719Y-125758126D01*
X161405804Y-125625000D01*
X161384719Y-125491874D01*
X161323528Y-125371780D01*
X161228220Y-125276472D01*
X161228217Y-125276470D01*
X161108129Y-125215282D01*
X161108127Y-125215281D01*
X160975000Y-125194196D01*
X160841872Y-125215281D01*
X160841870Y-125215282D01*
X160721782Y-125276470D01*
X160626470Y-125371782D01*
X160565282Y-125491870D01*
X160565281Y-125491872D01*
X160544196Y-125624999D01*
X142097573Y-125624999D01*
X142105492Y-125575000D01*
X142085646Y-125449696D01*
X142028050Y-125336658D01*
X141938342Y-125246950D01*
X141934406Y-125244944D01*
X141825307Y-125189355D01*
X141825304Y-125189354D01*
X141700000Y-125169508D01*
X141574696Y-125189354D01*
X141574692Y-125189355D01*
X141461659Y-125246949D01*
X141371949Y-125336659D01*
X141314355Y-125449692D01*
X141314354Y-125449696D01*
X141294508Y-125574999D01*
X135691956Y-125574999D01*
X135655538Y-125298378D01*
X135655003Y-125293288D01*
X135641759Y-125125000D01*
X158994508Y-125125000D01*
X159005467Y-125194196D01*
X159014354Y-125250303D01*
X159014355Y-125250307D01*
X159027686Y-125276470D01*
X159071950Y-125363342D01*
X159161658Y-125453050D01*
X159274696Y-125510646D01*
X159400000Y-125530492D01*
X159525304Y-125510646D01*
X159638342Y-125453050D01*
X159728050Y-125363342D01*
X159785646Y-125250304D01*
X159805492Y-125125000D01*
X159785646Y-124999696D01*
X159728050Y-124886658D01*
X159638342Y-124796950D01*
X159634406Y-124794944D01*
X159525307Y-124739355D01*
X159525304Y-124739354D01*
X159400000Y-124719508D01*
X159274696Y-124739354D01*
X159274692Y-124739355D01*
X159161659Y-124796949D01*
X159071949Y-124886659D01*
X159014355Y-124999692D01*
X159014354Y-124999696D01*
X158994508Y-125125000D01*
X135641759Y-125125000D01*
X135595643Y-124539041D01*
X135595372Y-124533866D01*
X135589978Y-124327880D01*
X135577464Y-123850001D01*
X150769196Y-123850001D01*
X150769196Y-123850002D01*
X150790281Y-123983129D01*
X150790282Y-123983131D01*
X150851470Y-124103219D01*
X150851472Y-124103222D01*
X150946780Y-124198530D01*
X151066874Y-124259721D01*
X151200000Y-124280806D01*
X151236363Y-124275046D01*
X151296792Y-124284616D01*
X151340058Y-124327880D01*
X151349630Y-124357340D01*
X151364354Y-124450303D01*
X151364355Y-124450307D01*
X151406931Y-124533866D01*
X151421950Y-124563342D01*
X151511658Y-124653050D01*
X151624696Y-124710646D01*
X151750000Y-124730492D01*
X151875304Y-124710646D01*
X151988342Y-124653050D01*
X152078050Y-124563342D01*
X152135646Y-124450304D01*
X152155492Y-124325000D01*
X152135646Y-124199696D01*
X152078050Y-124086658D01*
X151988342Y-123996950D01*
X151961215Y-123983128D01*
X151875307Y-123939355D01*
X151875304Y-123939354D01*
X151750000Y-123919508D01*
X151749998Y-123919508D01*
X151742236Y-123920737D01*
X151681804Y-123911162D01*
X151638542Y-123867895D01*
X151628973Y-123838442D01*
X151618514Y-123772408D01*
X151609719Y-123716876D01*
X151548528Y-123596782D01*
X151453220Y-123501474D01*
X151453217Y-123501472D01*
X151333129Y-123440284D01*
X151333127Y-123440283D01*
X151200000Y-123419198D01*
X151066872Y-123440283D01*
X151066870Y-123440284D01*
X150946782Y-123501472D01*
X150851470Y-123596784D01*
X150790282Y-123716872D01*
X150790281Y-123716874D01*
X150769196Y-123850001D01*
X135577464Y-123850001D01*
X135575567Y-123777558D01*
X135575567Y-123772441D01*
X135595372Y-123016131D01*
X135595643Y-123010958D01*
X135618124Y-122725304D01*
X135627986Y-122599999D01*
X141419508Y-122599999D01*
X141419508Y-122600000D01*
X141439354Y-122725303D01*
X141439355Y-122725307D01*
X141494944Y-122834406D01*
X141496950Y-122838342D01*
X141586658Y-122928050D01*
X141699696Y-122985646D01*
X141825000Y-123005492D01*
X141950304Y-122985646D01*
X142063342Y-122928050D01*
X142153050Y-122838342D01*
X142210646Y-122725304D01*
X142230492Y-122600000D01*
X142210646Y-122474696D01*
X142153050Y-122361658D01*
X142063342Y-122271950D01*
X142033497Y-122256743D01*
X141950307Y-122214355D01*
X141950304Y-122214354D01*
X141859669Y-122199999D01*
X160969196Y-122199999D01*
X160969196Y-122200000D01*
X160990281Y-122333127D01*
X160990282Y-122333129D01*
X161004819Y-122361659D01*
X161051472Y-122453220D01*
X161146780Y-122548528D01*
X161266874Y-122609719D01*
X161400000Y-122630804D01*
X161533126Y-122609719D01*
X161653220Y-122548528D01*
X161748528Y-122453220D01*
X161809719Y-122333126D01*
X161830804Y-122200000D01*
X161809719Y-122066874D01*
X161748528Y-121946780D01*
X161653220Y-121851472D01*
X161653217Y-121851470D01*
X161533129Y-121790282D01*
X161533127Y-121790281D01*
X161400000Y-121769196D01*
X161266872Y-121790281D01*
X161266870Y-121790282D01*
X161146782Y-121851470D01*
X161051470Y-121946782D01*
X160990282Y-122066870D01*
X160990281Y-122066872D01*
X160969196Y-122199999D01*
X141859669Y-122199999D01*
X141825000Y-122194508D01*
X141699696Y-122214354D01*
X141699692Y-122214355D01*
X141586659Y-122271949D01*
X141496949Y-122361659D01*
X141439355Y-122474692D01*
X141439354Y-122474696D01*
X141419508Y-122599999D01*
X135627986Y-122599999D01*
X135655003Y-122256707D01*
X135655538Y-122251625D01*
X135754291Y-121501510D01*
X135755101Y-121496403D01*
X135757562Y-121483129D01*
X135892968Y-120752537D01*
X135894043Y-120747480D01*
X135902256Y-120713271D01*
X136070662Y-120011810D01*
X136072000Y-120006819D01*
X136072026Y-120006734D01*
X136267819Y-119345746D01*
X137226662Y-119345746D01*
X137226663Y-119345747D01*
X137752690Y-119345747D01*
X137732942Y-119379951D01*
X137712498Y-119456251D01*
X137712498Y-119535243D01*
X137732942Y-119611543D01*
X137752690Y-119645747D01*
X137226662Y-119645747D01*
X137243240Y-119729095D01*
X137303546Y-119874687D01*
X137303550Y-119874696D01*
X137391097Y-120005716D01*
X137391100Y-120005720D01*
X137502524Y-120117144D01*
X137502528Y-120117147D01*
X137633548Y-120204694D01*
X137633557Y-120204698D01*
X137779148Y-120265004D01*
X137933702Y-120295746D01*
X137933706Y-120295747D01*
X138462497Y-120295747D01*
X138462498Y-120295746D01*
X138462498Y-119795747D01*
X138762498Y-119795747D01*
X138762498Y-120295746D01*
X138762499Y-120295747D01*
X139291290Y-120295747D01*
X139291293Y-120295746D01*
X139445847Y-120265004D01*
X139591438Y-120204698D01*
X139591447Y-120204694D01*
X139722467Y-120117147D01*
X139722471Y-120117144D01*
X139833895Y-120005720D01*
X139833898Y-120005716D01*
X139921445Y-119874696D01*
X139921449Y-119874687D01*
X139981755Y-119729095D01*
X139998334Y-119645747D01*
X139472306Y-119645747D01*
X139492054Y-119611543D01*
X139512498Y-119535243D01*
X139512498Y-119456251D01*
X139492054Y-119379951D01*
X139472306Y-119345747D01*
X139998333Y-119345747D01*
X141426663Y-119345747D01*
X141426664Y-119345748D01*
X141952691Y-119345748D01*
X141932943Y-119379952D01*
X141912499Y-119456252D01*
X141912499Y-119535244D01*
X141932943Y-119611544D01*
X141952691Y-119645748D01*
X141426663Y-119645748D01*
X141443241Y-119729096D01*
X141503547Y-119874688D01*
X141503551Y-119874697D01*
X141591098Y-120005717D01*
X141591101Y-120005721D01*
X141702525Y-120117145D01*
X141702529Y-120117148D01*
X141833549Y-120204695D01*
X141833558Y-120204699D01*
X141979149Y-120265005D01*
X142133703Y-120295747D01*
X142133707Y-120295748D01*
X142462498Y-120295748D01*
X142462499Y-120295747D01*
X142462499Y-119795748D01*
X142762499Y-119795748D01*
X142762499Y-120295747D01*
X142762500Y-120295748D01*
X143091291Y-120295748D01*
X143091294Y-120295747D01*
X143137562Y-120286544D01*
X145869201Y-120286544D01*
X145869201Y-120433459D01*
X145897861Y-120577543D01*
X145897861Y-120577545D01*
X145954079Y-120713268D01*
X145954079Y-120713269D01*
X145976939Y-120747480D01*
X146035700Y-120835422D01*
X146139581Y-120939303D01*
X146261732Y-121020922D01*
X146397459Y-121077142D01*
X146541546Y-121105802D01*
X146541548Y-121105802D01*
X146688454Y-121105802D01*
X146688456Y-121105802D01*
X146832543Y-121077142D01*
X146843107Y-121072765D01*
X146904103Y-121067964D01*
X146956273Y-121099932D01*
X146979689Y-121156460D01*
X146969205Y-121209172D01*
X146965281Y-121216873D01*
X146944196Y-121349999D01*
X146944196Y-121350000D01*
X146965281Y-121483127D01*
X146965282Y-121483129D01*
X146973347Y-121498957D01*
X147026472Y-121603220D01*
X147121780Y-121698528D01*
X147241874Y-121759719D01*
X147375000Y-121780804D01*
X147508126Y-121759719D01*
X147628220Y-121698528D01*
X147723528Y-121603220D01*
X147784719Y-121483126D01*
X147805804Y-121350000D01*
X147784719Y-121216874D01*
X147723528Y-121096780D01*
X147628220Y-121001472D01*
X147628217Y-121001470D01*
X147508129Y-120940282D01*
X147508127Y-120940281D01*
X147375000Y-120919196D01*
X147374997Y-120919196D01*
X147333858Y-120925711D01*
X147273426Y-120916139D01*
X147230163Y-120872874D01*
X147220592Y-120812441D01*
X147236055Y-120772934D01*
X147275921Y-120713271D01*
X147332141Y-120577544D01*
X147360801Y-120433457D01*
X147360801Y-120286547D01*
X147332141Y-120142460D01*
X147292691Y-120047219D01*
X147275922Y-120006735D01*
X147275922Y-120006734D01*
X147231866Y-119940801D01*
X147194302Y-119884582D01*
X147159719Y-119849999D01*
X152169196Y-119849999D01*
X152169196Y-119850000D01*
X152190281Y-119983127D01*
X152190282Y-119983129D01*
X152222938Y-120047219D01*
X152251472Y-120103220D01*
X152346780Y-120198528D01*
X152466874Y-120259719D01*
X152600000Y-120280804D01*
X152733126Y-120259719D01*
X152853220Y-120198528D01*
X152948528Y-120103220D01*
X153009719Y-119983126D01*
X153030804Y-119850000D01*
X153009719Y-119716874D01*
X153000652Y-119699080D01*
X152948529Y-119596782D01*
X152948528Y-119596780D01*
X152901747Y-119549999D01*
X160219196Y-119549999D01*
X160219196Y-119550000D01*
X160240281Y-119683127D01*
X160240282Y-119683129D01*
X160301470Y-119803217D01*
X160301472Y-119803220D01*
X160396780Y-119898528D01*
X160516874Y-119959719D01*
X160650000Y-119980804D01*
X160783126Y-119959719D01*
X160903220Y-119898528D01*
X160998528Y-119803220D01*
X161059719Y-119683126D01*
X161080804Y-119550000D01*
X161059719Y-119416874D01*
X160998528Y-119296780D01*
X160903220Y-119201472D01*
X160903217Y-119201470D01*
X160783129Y-119140282D01*
X160783127Y-119140281D01*
X160650000Y-119119196D01*
X160516872Y-119140281D01*
X160516870Y-119140282D01*
X160396782Y-119201470D01*
X160301470Y-119296782D01*
X160240282Y-119416870D01*
X160240281Y-119416872D01*
X160219196Y-119549999D01*
X152901747Y-119549999D01*
X152853220Y-119501472D01*
X152853217Y-119501470D01*
X152733129Y-119440282D01*
X152733127Y-119440281D01*
X152600000Y-119419196D01*
X152466872Y-119440281D01*
X152466870Y-119440282D01*
X152346782Y-119501470D01*
X152251470Y-119596782D01*
X152190282Y-119716870D01*
X152190281Y-119716872D01*
X152169196Y-119849999D01*
X147159719Y-119849999D01*
X147090421Y-119780701D01*
X146968270Y-119699082D01*
X146968269Y-119699081D01*
X146968267Y-119699080D01*
X146832543Y-119642862D01*
X146688458Y-119614202D01*
X146688456Y-119614202D01*
X146541546Y-119614202D01*
X146541543Y-119614202D01*
X146397459Y-119642862D01*
X146397457Y-119642862D01*
X146261734Y-119699080D01*
X146261733Y-119699080D01*
X146139581Y-119780701D01*
X146139577Y-119780704D01*
X146035703Y-119884578D01*
X146035700Y-119884582D01*
X145954079Y-120006734D01*
X145954079Y-120006735D01*
X145897861Y-120142458D01*
X145897861Y-120142460D01*
X145869201Y-120286544D01*
X143137562Y-120286544D01*
X143245848Y-120265005D01*
X143391439Y-120204699D01*
X143391448Y-120204695D01*
X143522468Y-120117148D01*
X143522472Y-120117145D01*
X143633896Y-120005721D01*
X143633899Y-120005717D01*
X143721446Y-119874697D01*
X143721450Y-119874688D01*
X143781756Y-119729096D01*
X143798335Y-119645748D01*
X143272307Y-119645748D01*
X143277070Y-119637499D01*
X145006696Y-119637499D01*
X145006696Y-119637500D01*
X145027781Y-119770627D01*
X145027782Y-119770629D01*
X145088970Y-119890717D01*
X145088972Y-119890720D01*
X145184280Y-119986028D01*
X145304374Y-120047219D01*
X145437500Y-120068304D01*
X145570626Y-120047219D01*
X145690720Y-119986028D01*
X145786028Y-119890720D01*
X145847219Y-119770626D01*
X145868304Y-119637500D01*
X145847219Y-119504374D01*
X145786028Y-119384280D01*
X145690720Y-119288972D01*
X145690717Y-119288970D01*
X145570629Y-119227782D01*
X145570627Y-119227781D01*
X145437500Y-119206696D01*
X145304372Y-119227781D01*
X145304370Y-119227782D01*
X145184282Y-119288970D01*
X145088970Y-119384282D01*
X145027782Y-119504370D01*
X145027781Y-119504372D01*
X145006696Y-119637499D01*
X143277070Y-119637499D01*
X143292055Y-119611544D01*
X143312499Y-119535244D01*
X143312499Y-119456252D01*
X143292055Y-119379952D01*
X143272307Y-119345748D01*
X143798334Y-119345748D01*
X143798334Y-119345747D01*
X143781756Y-119262399D01*
X143721450Y-119116807D01*
X143721446Y-119116798D01*
X143633899Y-118985778D01*
X143633896Y-118985774D01*
X143523121Y-118874999D01*
X148144196Y-118874999D01*
X148144196Y-118875000D01*
X148165281Y-119008127D01*
X148165282Y-119008129D01*
X148221874Y-119119196D01*
X148226472Y-119128220D01*
X148321780Y-119223528D01*
X148321782Y-119223529D01*
X148384897Y-119255688D01*
X148441874Y-119284719D01*
X148575000Y-119305804D01*
X148708126Y-119284719D01*
X148828220Y-119223528D01*
X148923528Y-119128220D01*
X148984719Y-119008126D01*
X149005804Y-118875000D01*
X149005700Y-118874346D01*
X149001835Y-118849945D01*
X148984719Y-118741874D01*
X148923528Y-118621780D01*
X148828220Y-118526472D01*
X148828217Y-118526470D01*
X148708129Y-118465282D01*
X148708128Y-118465281D01*
X148701553Y-118464240D01*
X148647037Y-118436460D01*
X148619261Y-118381943D01*
X148628835Y-118321511D01*
X148672101Y-118278248D01*
X148701553Y-118268679D01*
X148758126Y-118259719D01*
X148878220Y-118198528D01*
X148973528Y-118103220D01*
X149034719Y-117983126D01*
X149055804Y-117850000D01*
X149034719Y-117716874D01*
X148973528Y-117596780D01*
X148878220Y-117501472D01*
X148878217Y-117501470D01*
X148758129Y-117440282D01*
X148758127Y-117440281D01*
X148625000Y-117419196D01*
X148491872Y-117440281D01*
X148491870Y-117440282D01*
X148371782Y-117501470D01*
X148276470Y-117596782D01*
X148215282Y-117716870D01*
X148215281Y-117716872D01*
X148194196Y-117849999D01*
X148194196Y-117850000D01*
X148215281Y-117983127D01*
X148215282Y-117983129D01*
X148276470Y-118103217D01*
X148276472Y-118103220D01*
X148371780Y-118198528D01*
X148371782Y-118198529D01*
X148491870Y-118259717D01*
X148491871Y-118259717D01*
X148491874Y-118259719D01*
X148498444Y-118260759D01*
X148552958Y-118288535D01*
X148580737Y-118343051D01*
X148571167Y-118403483D01*
X148527903Y-118446749D01*
X148498444Y-118456321D01*
X148441872Y-118465281D01*
X148441870Y-118465282D01*
X148321782Y-118526470D01*
X148226470Y-118621782D01*
X148165282Y-118741870D01*
X148165281Y-118741872D01*
X148144196Y-118874999D01*
X143523121Y-118874999D01*
X143522472Y-118874350D01*
X143522468Y-118874347D01*
X143391448Y-118786800D01*
X143391439Y-118786796D01*
X143245848Y-118726490D01*
X143091294Y-118695748D01*
X142762500Y-118695748D01*
X142762499Y-118695749D01*
X142762499Y-119195748D01*
X142462499Y-119195748D01*
X142462499Y-118695749D01*
X142462498Y-118695748D01*
X142133703Y-118695748D01*
X141979149Y-118726490D01*
X141833558Y-118786796D01*
X141833549Y-118786800D01*
X141702529Y-118874347D01*
X141702525Y-118874350D01*
X141591101Y-118985774D01*
X141591098Y-118985778D01*
X141503551Y-119116798D01*
X141503547Y-119116807D01*
X141443241Y-119262399D01*
X141426663Y-119345747D01*
X139998333Y-119345747D01*
X139998333Y-119345746D01*
X139981755Y-119262398D01*
X139921449Y-119116806D01*
X139921445Y-119116797D01*
X139833898Y-118985777D01*
X139833895Y-118985773D01*
X139722471Y-118874349D01*
X139722467Y-118874346D01*
X139591447Y-118786799D01*
X139591438Y-118786795D01*
X139445847Y-118726489D01*
X139291293Y-118695747D01*
X138762499Y-118695747D01*
X138762498Y-118695748D01*
X138762498Y-119195747D01*
X138462498Y-119195747D01*
X138462498Y-118695748D01*
X138462497Y-118695747D01*
X137933702Y-118695747D01*
X137779148Y-118726489D01*
X137633557Y-118786795D01*
X137633548Y-118786799D01*
X137502528Y-118874346D01*
X137502524Y-118874349D01*
X137391100Y-118985773D01*
X137391097Y-118985777D01*
X137303550Y-119116797D01*
X137303546Y-119116806D01*
X137243240Y-119262398D01*
X137226662Y-119345746D01*
X136267819Y-119345746D01*
X136286872Y-119281424D01*
X136288471Y-119276505D01*
X136541012Y-118563354D01*
X136542860Y-118558540D01*
X136581489Y-118465281D01*
X136832386Y-117859559D01*
X136834467Y-117854883D01*
X137160190Y-117171993D01*
X137162538Y-117167386D01*
X137375586Y-116774999D01*
X144494196Y-116774999D01*
X144494196Y-116775000D01*
X144515281Y-116908127D01*
X144515282Y-116908129D01*
X144576470Y-117028217D01*
X144576472Y-117028220D01*
X144671780Y-117123528D01*
X144791874Y-117184719D01*
X144925000Y-117205804D01*
X145058126Y-117184719D01*
X145178220Y-117123528D01*
X145273528Y-117028220D01*
X145334719Y-116908126D01*
X145355804Y-116775000D01*
X145334719Y-116641874D01*
X145273528Y-116521780D01*
X145178220Y-116426472D01*
X145178217Y-116426470D01*
X145058129Y-116365282D01*
X145058127Y-116365281D01*
X144925000Y-116344196D01*
X144791872Y-116365281D01*
X144791870Y-116365282D01*
X144671782Y-116426470D01*
X144576470Y-116521782D01*
X144515282Y-116641870D01*
X144515281Y-116641872D01*
X144494196Y-116774999D01*
X137375586Y-116774999D01*
X137523552Y-116502480D01*
X137526103Y-116498062D01*
X137921413Y-115852976D01*
X137924208Y-115848670D01*
X138352770Y-115225108D01*
X138355762Y-115220990D01*
X138366851Y-115206538D01*
X144853202Y-115206538D01*
X144853202Y-115353453D01*
X144881862Y-115497537D01*
X144881862Y-115497539D01*
X144938080Y-115633262D01*
X144938080Y-115633263D01*
X144938987Y-115634620D01*
X145019701Y-115755416D01*
X145123582Y-115859297D01*
X145245733Y-115940916D01*
X145245734Y-115940916D01*
X145245735Y-115940917D01*
X145276481Y-115953652D01*
X145381460Y-115997136D01*
X145525547Y-116025796D01*
X145525549Y-116025796D01*
X145672455Y-116025796D01*
X145672457Y-116025796D01*
X145816544Y-115997136D01*
X145952271Y-115940916D01*
X146074422Y-115859297D01*
X146178303Y-115755416D01*
X146259922Y-115633265D01*
X146316142Y-115497538D01*
X146344802Y-115353451D01*
X146344802Y-115206541D01*
X146316142Y-115062454D01*
X146288032Y-114994590D01*
X146259923Y-114926729D01*
X146259923Y-114926728D01*
X146239587Y-114896294D01*
X146178303Y-114804576D01*
X146074422Y-114700695D01*
X145952271Y-114619076D01*
X145952270Y-114619075D01*
X145952268Y-114619074D01*
X145816544Y-114562856D01*
X145672459Y-114534196D01*
X145672457Y-114534196D01*
X145525547Y-114534196D01*
X145525544Y-114534196D01*
X145381460Y-114562856D01*
X145381458Y-114562856D01*
X145245735Y-114619074D01*
X145245734Y-114619074D01*
X145123582Y-114700695D01*
X145123578Y-114700698D01*
X145019704Y-114804572D01*
X145019701Y-114804576D01*
X144938080Y-114926728D01*
X144938080Y-114926729D01*
X144881862Y-115062452D01*
X144881862Y-115062454D01*
X144853202Y-115206538D01*
X138366851Y-115206538D01*
X138816355Y-114620735D01*
X138819582Y-114616750D01*
X139310930Y-114041454D01*
X139314395Y-114037607D01*
X139412034Y-113934717D01*
X139800842Y-113524999D01*
X145944196Y-113524999D01*
X145944196Y-113525000D01*
X145965281Y-113658127D01*
X145965282Y-113658129D01*
X146026470Y-113778217D01*
X146026472Y-113778220D01*
X146121780Y-113873528D01*
X146241874Y-113934719D01*
X146375000Y-113955804D01*
X146508126Y-113934719D01*
X146628220Y-113873528D01*
X146723528Y-113778220D01*
X146784719Y-113658126D01*
X146805804Y-113525000D01*
X146784719Y-113391874D01*
X146723528Y-113271780D01*
X146628220Y-113176472D01*
X146628217Y-113176470D01*
X146508129Y-113115282D01*
X146508127Y-113115281D01*
X146375000Y-113094196D01*
X146241872Y-113115281D01*
X146241870Y-113115282D01*
X146121782Y-113176470D01*
X146026470Y-113271782D01*
X145965282Y-113391870D01*
X145965281Y-113391872D01*
X145944196Y-113524999D01*
X139800842Y-113524999D01*
X139835183Y-113488811D01*
X139838811Y-113485183D01*
X140387611Y-112964391D01*
X140391459Y-112960927D01*
X140565746Y-112812072D01*
X140966750Y-112469582D01*
X140970735Y-112466355D01*
X141570979Y-112005771D01*
X141575127Y-112002757D01*
X141793300Y-111852810D01*
X141849212Y-111835400D01*
X148376425Y-111825154D01*
X148434643Y-111843970D01*
G37*
G04 #@! TD.AperFunction*
G04 #@! TA.AperFunction,Conductor*
G36*
X195608866Y-106985372D02*
G01*
X195614042Y-106985643D01*
X196368288Y-107045003D01*
X196373378Y-107045538D01*
X197123483Y-107144291D01*
X197128589Y-107145099D01*
X197872454Y-107282967D01*
X197877514Y-107284042D01*
X198613180Y-107460659D01*
X198618174Y-107461998D01*
X198855289Y-107532235D01*
X199343565Y-107676869D01*
X199348495Y-107678471D01*
X200061632Y-107931007D01*
X200066459Y-107932860D01*
X200765425Y-108222380D01*
X200770130Y-108224474D01*
X201348549Y-108500366D01*
X201452995Y-108550185D01*
X201457613Y-108552538D01*
X202122503Y-108913543D01*
X202126953Y-108916113D01*
X202772002Y-109311400D01*
X202776346Y-109314220D01*
X203399872Y-109742757D01*
X203404027Y-109745776D01*
X203885191Y-110114987D01*
X204004242Y-110206338D01*
X204008270Y-110209600D01*
X204583540Y-110700927D01*
X204587392Y-110704395D01*
X205136169Y-111225165D01*
X205139834Y-111228830D01*
X205660604Y-111777607D01*
X205664072Y-111781459D01*
X206155399Y-112356729D01*
X206158661Y-112360757D01*
X206619218Y-112960966D01*
X206622247Y-112965134D01*
X206894519Y-113361293D01*
X207050777Y-113588650D01*
X207053599Y-113592997D01*
X207090369Y-113653000D01*
X207290761Y-113980010D01*
X207448875Y-114238027D01*
X207451467Y-114242515D01*
X207812461Y-114907386D01*
X207814814Y-114912004D01*
X208023967Y-115350500D01*
X208123774Y-115559750D01*
X208140515Y-115594847D01*
X208142623Y-115599583D01*
X208432139Y-116298540D01*
X208433996Y-116303378D01*
X208686528Y-117016505D01*
X208688130Y-117021434D01*
X208902999Y-117746819D01*
X208904341Y-117751826D01*
X209080956Y-118487480D01*
X209082033Y-118492550D01*
X209219898Y-119236403D01*
X209220709Y-119241522D01*
X209319457Y-119991588D01*
X209319999Y-119996743D01*
X209379356Y-120750958D01*
X209379627Y-120756133D01*
X209399432Y-121512408D01*
X209399432Y-121517592D01*
X209382588Y-122160801D01*
X209362164Y-122218477D01*
X209311739Y-122253132D01*
X209250575Y-122251530D01*
X209202033Y-122214283D01*
X209201947Y-122214157D01*
X209197206Y-122207236D01*
X209197205Y-122207235D01*
X209197205Y-122207234D01*
X209117764Y-122127793D01*
X209014990Y-122082414D01*
X209014989Y-122082413D01*
X209014987Y-122082413D01*
X208989867Y-122079499D01*
X207900138Y-122079499D01*
X207900135Y-122079500D01*
X207875008Y-122082413D01*
X207772234Y-122127793D01*
X207692793Y-122207234D01*
X207647413Y-122310010D01*
X207644499Y-122335129D01*
X207644499Y-123424859D01*
X207644500Y-123424862D01*
X207647413Y-123449989D01*
X207669557Y-123500139D01*
X207692793Y-123552764D01*
X207772234Y-123632205D01*
X207875008Y-123677584D01*
X207900134Y-123680499D01*
X208989863Y-123680498D01*
X209014990Y-123677584D01*
X209087777Y-123645445D01*
X209148642Y-123639237D01*
X209201536Y-123669992D01*
X209226251Y-123725963D01*
X209225915Y-123748932D01*
X209220709Y-123788477D01*
X209219898Y-123793596D01*
X209082033Y-124537449D01*
X209080956Y-124542519D01*
X208904341Y-125278173D01*
X208902999Y-125283180D01*
X208688130Y-126008565D01*
X208686528Y-126013494D01*
X208433996Y-126726621D01*
X208432139Y-126731459D01*
X208142623Y-127430416D01*
X208140515Y-127435152D01*
X207814814Y-128117995D01*
X207812461Y-128122613D01*
X207451467Y-128787484D01*
X207448875Y-128791972D01*
X207053599Y-129437002D01*
X207050777Y-129441349D01*
X206622256Y-130064853D01*
X206619209Y-130069046D01*
X206158661Y-130669242D01*
X206155399Y-130673270D01*
X205664072Y-131248540D01*
X205660604Y-131252392D01*
X205139834Y-131801169D01*
X205136169Y-131804834D01*
X204587392Y-132325604D01*
X204583540Y-132329072D01*
X204008270Y-132820399D01*
X204004242Y-132823661D01*
X203404046Y-133284209D01*
X203399853Y-133287256D01*
X202776349Y-133715777D01*
X202772002Y-133718599D01*
X202126972Y-134113875D01*
X202122484Y-134116467D01*
X201457613Y-134477461D01*
X201452995Y-134479814D01*
X200770152Y-134805515D01*
X200765416Y-134807623D01*
X200066459Y-135097139D01*
X200061621Y-135098996D01*
X199348494Y-135351528D01*
X199343565Y-135353130D01*
X198618180Y-135567999D01*
X198613173Y-135569341D01*
X197877519Y-135745956D01*
X197872449Y-135747033D01*
X197128596Y-135884898D01*
X197123477Y-135885709D01*
X196373411Y-135984457D01*
X196368256Y-135984999D01*
X195783296Y-136031036D01*
X195723802Y-136016752D01*
X195684065Y-135970227D01*
X195679264Y-135909230D01*
X195711234Y-135857061D01*
X195715262Y-135853799D01*
X195824737Y-135769795D01*
X195824737Y-135769794D01*
X195824742Y-135769791D01*
X195908975Y-135660018D01*
X195961925Y-135532183D01*
X195979986Y-135395000D01*
X195961925Y-135257817D01*
X195908975Y-135129983D01*
X195824742Y-135020209D01*
X195824740Y-135020208D01*
X195824740Y-135020207D01*
X195714969Y-134935976D01*
X195714965Y-134935974D01*
X195664326Y-134914999D01*
X196924700Y-134914999D01*
X196924700Y-134915000D01*
X196943619Y-135058708D01*
X196943620Y-135058709D01*
X196999089Y-135192625D01*
X197087329Y-135307621D01*
X197202325Y-135395861D01*
X197336241Y-135451330D01*
X197479950Y-135470250D01*
X197623659Y-135451330D01*
X197757575Y-135395861D01*
X197872571Y-135307621D01*
X197960811Y-135192625D01*
X198016280Y-135058709D01*
X198035200Y-134915000D01*
X198030990Y-134883026D01*
X198016280Y-134771291D01*
X197960811Y-134637375D01*
X197872571Y-134522379D01*
X197757575Y-134434139D01*
X197757571Y-134434137D01*
X197623659Y-134378670D01*
X197623658Y-134378669D01*
X197479950Y-134359750D01*
X197336241Y-134378669D01*
X197336240Y-134378670D01*
X197202328Y-134434137D01*
X197202324Y-134434139D01*
X197087331Y-134522377D01*
X197087327Y-134522381D01*
X196999089Y-134637374D01*
X196999087Y-134637378D01*
X196943620Y-134771290D01*
X196943619Y-134771291D01*
X196924700Y-134914999D01*
X195664326Y-134914999D01*
X195587134Y-134883026D01*
X195587126Y-134883025D01*
X195449951Y-134864965D01*
X195449950Y-134864965D01*
X195312767Y-134883025D01*
X195312767Y-134883026D01*
X195184937Y-134935974D01*
X195184933Y-134935976D01*
X195075162Y-135020207D01*
X195075158Y-135020211D01*
X194990927Y-135129982D01*
X194990925Y-135129986D01*
X194937977Y-135257816D01*
X194937976Y-135257816D01*
X194925639Y-135351528D01*
X194919916Y-135395000D01*
X194937977Y-135532183D01*
X194990927Y-135660018D01*
X195075160Y-135769791D01*
X195184933Y-135854024D01*
X195192265Y-135857061D01*
X195212634Y-135865498D01*
X195259160Y-135905234D01*
X195273444Y-135964729D01*
X195250030Y-136021257D01*
X195197861Y-136053226D01*
X195177341Y-136055928D01*
X194852592Y-136064432D01*
X194847408Y-136064432D01*
X194091133Y-136044627D01*
X194085958Y-136044356D01*
X193331743Y-135984999D01*
X193326588Y-135984457D01*
X192576522Y-135885709D01*
X192571403Y-135884898D01*
X191827550Y-135747033D01*
X191822480Y-135745956D01*
X191086826Y-135569341D01*
X191081819Y-135567999D01*
X190356434Y-135353130D01*
X190351505Y-135351528D01*
X189638378Y-135098996D01*
X189633540Y-135097139D01*
X189193813Y-134914999D01*
X193664700Y-134914999D01*
X193664700Y-134915000D01*
X193683619Y-135058708D01*
X193683620Y-135058709D01*
X193739089Y-135192625D01*
X193827329Y-135307621D01*
X193942325Y-135395861D01*
X194076241Y-135451330D01*
X194219950Y-135470250D01*
X194363659Y-135451330D01*
X194497575Y-135395861D01*
X194612571Y-135307621D01*
X194700811Y-135192625D01*
X194756280Y-135058709D01*
X194775200Y-134915000D01*
X194770990Y-134883026D01*
X194756280Y-134771291D01*
X194700811Y-134637375D01*
X194612571Y-134522379D01*
X194497575Y-134434139D01*
X194497571Y-134434137D01*
X194363659Y-134378670D01*
X194363658Y-134378669D01*
X194219950Y-134359750D01*
X194076241Y-134378669D01*
X194076240Y-134378670D01*
X193942328Y-134434137D01*
X193942324Y-134434139D01*
X193827331Y-134522377D01*
X193827327Y-134522381D01*
X193739089Y-134637374D01*
X193739087Y-134637378D01*
X193683620Y-134771290D01*
X193683619Y-134771291D01*
X193664700Y-134914999D01*
X189193813Y-134914999D01*
X188934583Y-134807623D01*
X188929847Y-134805515D01*
X188927012Y-134804163D01*
X188577342Y-134637378D01*
X188247004Y-134479814D01*
X188242386Y-134477461D01*
X187577524Y-134116471D01*
X187573036Y-134113880D01*
X187556955Y-134104026D01*
X187524129Y-134083909D01*
X187484393Y-134037386D01*
X187479592Y-133976389D01*
X187511561Y-133924219D01*
X187568089Y-133900804D01*
X187575857Y-133900499D01*
X188264861Y-133900499D01*
X188264864Y-133900499D01*
X188289991Y-133897585D01*
X188392765Y-133852206D01*
X188472206Y-133772765D01*
X188517585Y-133669991D01*
X188520500Y-133644865D01*
X188520500Y-133304999D01*
X192279965Y-133304999D01*
X192298026Y-133442183D01*
X192350974Y-133570014D01*
X192350976Y-133570018D01*
X192434672Y-133679092D01*
X192435209Y-133679791D01*
X192544982Y-133764024D01*
X192672817Y-133816974D01*
X192810000Y-133835035D01*
X192947183Y-133816974D01*
X193075018Y-133764024D01*
X193184791Y-133679791D01*
X193269024Y-133570018D01*
X193321974Y-133442183D01*
X193340035Y-133305000D01*
X193339943Y-133304300D01*
X198079965Y-133304300D01*
X198098026Y-133441484D01*
X198150974Y-133569315D01*
X198150976Y-133569319D01*
X198208944Y-133644864D01*
X198235209Y-133679092D01*
X198344982Y-133763325D01*
X198472817Y-133816275D01*
X198610000Y-133834336D01*
X198747183Y-133816275D01*
X198875018Y-133763325D01*
X198984791Y-133679092D01*
X199069024Y-133569319D01*
X199121974Y-133441484D01*
X199140035Y-133304301D01*
X199124593Y-133187006D01*
X199124592Y-133187001D01*
X200683607Y-133187001D01*
X200683607Y-133187004D01*
X200683607Y-133333914D01*
X200705003Y-133441484D01*
X200712267Y-133478000D01*
X200712267Y-133478002D01*
X200768485Y-133613725D01*
X200768485Y-133613726D01*
X200789291Y-133644864D01*
X200850106Y-133735879D01*
X200953987Y-133839760D01*
X201076138Y-133921379D01*
X201211865Y-133977599D01*
X201355952Y-134006259D01*
X201355954Y-134006259D01*
X201502860Y-134006259D01*
X201502862Y-134006259D01*
X201646949Y-133977599D01*
X201782676Y-133921379D01*
X201904827Y-133839760D01*
X202008708Y-133735879D01*
X202090327Y-133613728D01*
X202146547Y-133478001D01*
X202175207Y-133333914D01*
X202175207Y-133187004D01*
X202146547Y-133042917D01*
X202099572Y-132929510D01*
X202090328Y-132907192D01*
X202090328Y-132907191D01*
X202049425Y-132845976D01*
X202008708Y-132785039D01*
X201904827Y-132681158D01*
X201782676Y-132599539D01*
X201782675Y-132599538D01*
X201782673Y-132599537D01*
X201646949Y-132543319D01*
X201502864Y-132514659D01*
X201502862Y-132514659D01*
X201355952Y-132514659D01*
X201355949Y-132514659D01*
X201211865Y-132543319D01*
X201211863Y-132543319D01*
X201076140Y-132599537D01*
X201076139Y-132599537D01*
X200953987Y-132681158D01*
X200953983Y-132681161D01*
X200850109Y-132785035D01*
X200850106Y-132785039D01*
X200768485Y-132907191D01*
X200768485Y-132907192D01*
X200712267Y-133042915D01*
X200712267Y-133042917D01*
X200683607Y-133187001D01*
X199124592Y-133187001D01*
X199121974Y-133167117D01*
X199069315Y-133039986D01*
X199069024Y-133039284D01*
X198984791Y-132929510D01*
X198984789Y-132929509D01*
X198984789Y-132929508D01*
X198875018Y-132845277D01*
X198875014Y-132845275D01*
X198747183Y-132792327D01*
X198747175Y-132792326D01*
X198610000Y-132774266D01*
X198609999Y-132774266D01*
X198472816Y-132792326D01*
X198472816Y-132792327D01*
X198344986Y-132845275D01*
X198344982Y-132845277D01*
X198235211Y-132929508D01*
X198235207Y-132929512D01*
X198150976Y-133039283D01*
X198150974Y-133039287D01*
X198098026Y-133167117D01*
X198098025Y-133167117D01*
X198079965Y-133304300D01*
X193339943Y-133304300D01*
X193321974Y-133167817D01*
X193321684Y-133167118D01*
X193269025Y-133039986D01*
X193269024Y-133039983D01*
X193184791Y-132930209D01*
X193184789Y-132930208D01*
X193184789Y-132930207D01*
X193075018Y-132845976D01*
X193075014Y-132845974D01*
X192947183Y-132793026D01*
X192886487Y-132785035D01*
X192810000Y-132774965D01*
X192809999Y-132774965D01*
X192672816Y-132793025D01*
X192672816Y-132793026D01*
X192544986Y-132845974D01*
X192544982Y-132845976D01*
X192435211Y-132930207D01*
X192435207Y-132930211D01*
X192350976Y-133039982D01*
X192350974Y-133039986D01*
X192298026Y-133167816D01*
X192298025Y-133167816D01*
X192279965Y-133304999D01*
X188520500Y-133304999D01*
X188520499Y-132555136D01*
X188517585Y-132530009D01*
X188472206Y-132427235D01*
X188392765Y-132347794D01*
X188289991Y-132302415D01*
X188289990Y-132302414D01*
X188289988Y-132302414D01*
X188264868Y-132299500D01*
X187175139Y-132299500D01*
X187175136Y-132299501D01*
X187150009Y-132302414D01*
X187047235Y-132347794D01*
X186967794Y-132427235D01*
X186922414Y-132530011D01*
X186919500Y-132555130D01*
X186919500Y-133524757D01*
X186900593Y-133582948D01*
X186851093Y-133618912D01*
X186789907Y-133618912D01*
X186764426Y-133606346D01*
X186730382Y-133582948D01*
X186300134Y-133287247D01*
X186295966Y-133284218D01*
X185695757Y-132823661D01*
X185691729Y-132820399D01*
X185116459Y-132329072D01*
X185112607Y-132325604D01*
X184563830Y-131804834D01*
X184560165Y-131801169D01*
X184039395Y-131252392D01*
X184035927Y-131248540D01*
X183968959Y-131170131D01*
X192429501Y-131170131D01*
X192429501Y-132259861D01*
X192429502Y-132259864D01*
X192432415Y-132284991D01*
X192440109Y-132302415D01*
X192477795Y-132387766D01*
X192557236Y-132467207D01*
X192660010Y-132512586D01*
X192685136Y-132515501D01*
X193774865Y-132515500D01*
X193799992Y-132512586D01*
X193902766Y-132467207D01*
X193982207Y-132387766D01*
X194027586Y-132284992D01*
X194030501Y-132259866D01*
X194030501Y-132254301D01*
X194879916Y-132254301D01*
X194889538Y-132327386D01*
X194897977Y-132391484D01*
X194950925Y-132519315D01*
X194950927Y-132519319D01*
X195030246Y-132622689D01*
X195035160Y-132629092D01*
X195144933Y-132713325D01*
X195272768Y-132766275D01*
X195409951Y-132784336D01*
X195547134Y-132766275D01*
X195674969Y-132713325D01*
X195784742Y-132629092D01*
X195784741Y-132629092D01*
X195789890Y-132625142D01*
X195791202Y-132626852D01*
X195837104Y-132603452D01*
X195897538Y-132613011D01*
X195912879Y-132622689D01*
X196004927Y-132693321D01*
X196004929Y-132693322D01*
X196004933Y-132693325D01*
X196132768Y-132746275D01*
X196269951Y-132764336D01*
X196407134Y-132746275D01*
X196534969Y-132693325D01*
X196644742Y-132609092D01*
X196728975Y-132499319D01*
X196781925Y-132371484D01*
X196799986Y-132234301D01*
X196781925Y-132097118D01*
X196728975Y-131969284D01*
X196644742Y-131859510D01*
X196644740Y-131859509D01*
X196644740Y-131859508D01*
X196534969Y-131775277D01*
X196534965Y-131775275D01*
X196474330Y-131750160D01*
X199246766Y-131750160D01*
X199246766Y-131897075D01*
X199275426Y-132041159D01*
X199275426Y-132041161D01*
X199331644Y-132176884D01*
X199331644Y-132176885D01*
X199370008Y-132234300D01*
X199413265Y-132299038D01*
X199517146Y-132402919D01*
X199639297Y-132484538D01*
X199775024Y-132540758D01*
X199919111Y-132569418D01*
X199919113Y-132569418D01*
X200066019Y-132569418D01*
X200066021Y-132569418D01*
X200210108Y-132540758D01*
X200345835Y-132484538D01*
X200467986Y-132402919D01*
X200571867Y-132299038D01*
X200653486Y-132176887D01*
X200709706Y-132041160D01*
X200738366Y-131897073D01*
X200738366Y-131750163D01*
X200709706Y-131606076D01*
X200653487Y-131470351D01*
X200653487Y-131470350D01*
X200633151Y-131439916D01*
X200571867Y-131348198D01*
X200467986Y-131244317D01*
X200345835Y-131162698D01*
X200345834Y-131162697D01*
X200345832Y-131162696D01*
X200210108Y-131106478D01*
X200066023Y-131077818D01*
X200066021Y-131077818D01*
X199919111Y-131077818D01*
X199919108Y-131077818D01*
X199775024Y-131106478D01*
X199775022Y-131106478D01*
X199639299Y-131162696D01*
X199639298Y-131162696D01*
X199517146Y-131244317D01*
X199517142Y-131244320D01*
X199413268Y-131348194D01*
X199413265Y-131348198D01*
X199331644Y-131470350D01*
X199331644Y-131470351D01*
X199275426Y-131606074D01*
X199275426Y-131606076D01*
X199246766Y-131750160D01*
X196474330Y-131750160D01*
X196407134Y-131722327D01*
X196407126Y-131722326D01*
X196269951Y-131704266D01*
X196269950Y-131704266D01*
X196132767Y-131722326D01*
X196132767Y-131722327D01*
X196004937Y-131775275D01*
X196004933Y-131775277D01*
X195937841Y-131826758D01*
X195895160Y-131859510D01*
X195895159Y-131859511D01*
X195890013Y-131863460D01*
X195888705Y-131861756D01*
X195842757Y-131885156D01*
X195782327Y-131875572D01*
X195767022Y-131865913D01*
X195763825Y-131863460D01*
X195747155Y-131850668D01*
X195674974Y-131795280D01*
X195674965Y-131795275D01*
X195547134Y-131742327D01*
X195547126Y-131742326D01*
X195409951Y-131724266D01*
X195409950Y-131724266D01*
X195272767Y-131742326D01*
X195272767Y-131742327D01*
X195144937Y-131795275D01*
X195144933Y-131795277D01*
X195035162Y-131879508D01*
X195035158Y-131879512D01*
X194950927Y-131989283D01*
X194950925Y-131989287D01*
X194897977Y-132117117D01*
X194897976Y-132117117D01*
X194882549Y-132234300D01*
X194879916Y-132254301D01*
X194030501Y-132254301D01*
X194030500Y-131170137D01*
X194027586Y-131145010D01*
X193982207Y-131042236D01*
X193902766Y-130962795D01*
X193799992Y-130917416D01*
X193799988Y-130917415D01*
X193796067Y-130915684D01*
X193750472Y-130874883D01*
X193739708Y-130825000D01*
X203849965Y-130825000D01*
X203861904Y-130915684D01*
X203868026Y-130962183D01*
X203920974Y-131090014D01*
X203920976Y-131090018D01*
X203982456Y-131170140D01*
X204005209Y-131199791D01*
X204114982Y-131284024D01*
X204242817Y-131336974D01*
X204380000Y-131355035D01*
X204517183Y-131336974D01*
X204645018Y-131284024D01*
X204754791Y-131199791D01*
X204839024Y-131090018D01*
X204891974Y-130962183D01*
X204910035Y-130825000D01*
X204891974Y-130687817D01*
X204891894Y-130687625D01*
X204839025Y-130559986D01*
X204839024Y-130559983D01*
X204754791Y-130450209D01*
X204754789Y-130450208D01*
X204754789Y-130450207D01*
X204645018Y-130365976D01*
X204645014Y-130365974D01*
X204517183Y-130313026D01*
X204517175Y-130313025D01*
X204380000Y-130294965D01*
X204379999Y-130294965D01*
X204242816Y-130313025D01*
X204242816Y-130313026D01*
X204114986Y-130365974D01*
X204114982Y-130365976D01*
X204005211Y-130450207D01*
X204005207Y-130450211D01*
X203920976Y-130559982D01*
X203920974Y-130559986D01*
X203868026Y-130687816D01*
X203868025Y-130687816D01*
X203856434Y-130775861D01*
X203849965Y-130825000D01*
X193739708Y-130825000D01*
X193737566Y-130815074D01*
X193762280Y-130759102D01*
X193775788Y-130746577D01*
X193852621Y-130687621D01*
X193940861Y-130572625D01*
X193996330Y-130438709D01*
X194015250Y-130295000D01*
X194015245Y-130294965D01*
X193996330Y-130151291D01*
X193940861Y-130017375D01*
X193852621Y-129902379D01*
X193852616Y-129902375D01*
X193852615Y-129902374D01*
X193813290Y-129872199D01*
X193778634Y-129821774D01*
X193780236Y-129760610D01*
X193817483Y-129712068D01*
X193824062Y-129707918D01*
X193827620Y-129705862D01*
X193827625Y-129705861D01*
X193942621Y-129617621D01*
X194030861Y-129502625D01*
X194086330Y-129368709D01*
X194105250Y-129225000D01*
X194086330Y-129081291D01*
X194030861Y-128947375D01*
X193976459Y-128876477D01*
X203557294Y-128876477D01*
X203557294Y-129023392D01*
X203585954Y-129167476D01*
X203585954Y-129167478D01*
X203642172Y-129303201D01*
X203642172Y-129303202D01*
X203682843Y-129364069D01*
X203723793Y-129425355D01*
X203827674Y-129529236D01*
X203949825Y-129610855D01*
X203949826Y-129610855D01*
X203949827Y-129610856D01*
X203966162Y-129617622D01*
X204085552Y-129667075D01*
X204229639Y-129695735D01*
X204229641Y-129695735D01*
X204376547Y-129695735D01*
X204376549Y-129695735D01*
X204520636Y-129667075D01*
X204656363Y-129610855D01*
X204778514Y-129529236D01*
X204882395Y-129425355D01*
X204964014Y-129303204D01*
X205020234Y-129167477D01*
X205048894Y-129023390D01*
X205048894Y-128876480D01*
X205020234Y-128732393D01*
X204964015Y-128596668D01*
X204964015Y-128596667D01*
X204927739Y-128542377D01*
X204882395Y-128474515D01*
X204778514Y-128370634D01*
X204656363Y-128289015D01*
X204656362Y-128289014D01*
X204656360Y-128289013D01*
X204520636Y-128232795D01*
X204376551Y-128204135D01*
X204376549Y-128204135D01*
X204229639Y-128204135D01*
X204229636Y-128204135D01*
X204085552Y-128232795D01*
X204085550Y-128232795D01*
X203949827Y-128289013D01*
X203949826Y-128289013D01*
X203827674Y-128370634D01*
X203827670Y-128370637D01*
X203723796Y-128474511D01*
X203723793Y-128474515D01*
X203642172Y-128596667D01*
X203642172Y-128596668D01*
X203585954Y-128732391D01*
X203585954Y-128732393D01*
X203557294Y-128876477D01*
X193976459Y-128876477D01*
X193942621Y-128832379D01*
X193827625Y-128744139D01*
X193827621Y-128744137D01*
X193693709Y-128688670D01*
X193693708Y-128688669D01*
X193550000Y-128669750D01*
X193406291Y-128688669D01*
X193406290Y-128688670D01*
X193272378Y-128744137D01*
X193272374Y-128744139D01*
X193157381Y-128832377D01*
X193157377Y-128832381D01*
X193069139Y-128947374D01*
X193069137Y-128947378D01*
X193013670Y-129081290D01*
X193013669Y-129081291D01*
X192994750Y-129224999D01*
X192994750Y-129225000D01*
X193013669Y-129368708D01*
X193013670Y-129368709D01*
X193042878Y-129439226D01*
X193069139Y-129502625D01*
X193157379Y-129617621D01*
X193157383Y-129617624D01*
X193157384Y-129617625D01*
X193196709Y-129647800D01*
X193231365Y-129698224D01*
X193229764Y-129759389D01*
X193192516Y-129807930D01*
X193185948Y-129812075D01*
X193182380Y-129814135D01*
X193067381Y-129902377D01*
X193067377Y-129902381D01*
X192979139Y-130017374D01*
X192979137Y-130017378D01*
X192923670Y-130151290D01*
X192923669Y-130151291D01*
X192904750Y-130294999D01*
X192904750Y-130295000D01*
X192923669Y-130438708D01*
X192923670Y-130438709D01*
X192973902Y-130559983D01*
X192979139Y-130572625D01*
X193067379Y-130687621D01*
X193131678Y-130736960D01*
X193166333Y-130787384D01*
X193164731Y-130848548D01*
X193127484Y-130897090D01*
X193071410Y-130914501D01*
X192685140Y-130914501D01*
X192685137Y-130914502D01*
X192660010Y-130917415D01*
X192557236Y-130962795D01*
X192477795Y-131042236D01*
X192432415Y-131145012D01*
X192429501Y-131170131D01*
X183968959Y-131170131D01*
X183557024Y-130687817D01*
X183544598Y-130673267D01*
X183541338Y-130669242D01*
X183457503Y-130559986D01*
X183080776Y-130069027D01*
X183077757Y-130064872D01*
X182649220Y-129441346D01*
X182646400Y-129437002D01*
X182639262Y-129425354D01*
X182251113Y-128791953D01*
X182248543Y-128787503D01*
X182228180Y-128749999D01*
X183599965Y-128749999D01*
X183618026Y-128887183D01*
X183670974Y-129015014D01*
X183670976Y-129015018D01*
X183719848Y-129078709D01*
X183755209Y-129124791D01*
X183864982Y-129209024D01*
X183992817Y-129261974D01*
X184130000Y-129280035D01*
X184267183Y-129261974D01*
X184395018Y-129209024D01*
X184504791Y-129124791D01*
X184589024Y-129015018D01*
X184622168Y-128934999D01*
X186434750Y-128934999D01*
X186434750Y-128935000D01*
X186453669Y-129078708D01*
X186453670Y-129078709D01*
X186472757Y-129124791D01*
X186509139Y-129212625D01*
X186597379Y-129327621D01*
X186712375Y-129415861D01*
X186846291Y-129471330D01*
X186990000Y-129490250D01*
X187133709Y-129471330D01*
X187267625Y-129415861D01*
X187382621Y-129327621D01*
X187470861Y-129212625D01*
X187526330Y-129078709D01*
X187545250Y-128935000D01*
X187526330Y-128791291D01*
X187470861Y-128657375D01*
X187382621Y-128542379D01*
X187267625Y-128454139D01*
X187267621Y-128454137D01*
X187133709Y-128398670D01*
X187133708Y-128398669D01*
X186990000Y-128379750D01*
X186846291Y-128398669D01*
X186846290Y-128398670D01*
X186712378Y-128454137D01*
X186712374Y-128454139D01*
X186597381Y-128542377D01*
X186597377Y-128542381D01*
X186509139Y-128657374D01*
X186509137Y-128657378D01*
X186453670Y-128791290D01*
X186453669Y-128791291D01*
X186434750Y-128934999D01*
X184622168Y-128934999D01*
X184641974Y-128887183D01*
X184660035Y-128750000D01*
X184651961Y-128688669D01*
X184641974Y-128612816D01*
X184589025Y-128484986D01*
X184589024Y-128484983D01*
X184504791Y-128375209D01*
X184504789Y-128375208D01*
X184504789Y-128375207D01*
X184395018Y-128290976D01*
X184395014Y-128290974D01*
X184267183Y-128238026D01*
X184267175Y-128238025D01*
X184130000Y-128219965D01*
X184129999Y-128219965D01*
X183992816Y-128238025D01*
X183992816Y-128238026D01*
X183864986Y-128290974D01*
X183864982Y-128290976D01*
X183755211Y-128375207D01*
X183755207Y-128375211D01*
X183670976Y-128484982D01*
X183670974Y-128484986D01*
X183618026Y-128612816D01*
X183618025Y-128612816D01*
X183599965Y-128749999D01*
X182228180Y-128749999D01*
X181887538Y-128122613D01*
X181885185Y-128117995D01*
X181835366Y-128013549D01*
X181559474Y-127435130D01*
X181557376Y-127430416D01*
X181451936Y-127175861D01*
X181267860Y-126731459D01*
X181266003Y-126726621D01*
X181254805Y-126695000D01*
X181014004Y-126014999D01*
X191994750Y-126014999D01*
X191994750Y-126015000D01*
X192013669Y-126158708D01*
X192013670Y-126158709D01*
X192057292Y-126264025D01*
X192069139Y-126292625D01*
X192157379Y-126407621D01*
X192272375Y-126495861D01*
X192406291Y-126551330D01*
X192550000Y-126570250D01*
X192693709Y-126551330D01*
X192827625Y-126495861D01*
X192942621Y-126407621D01*
X193030861Y-126292625D01*
X193086330Y-126158709D01*
X193105250Y-126015000D01*
X193093372Y-125924783D01*
X193086330Y-125871291D01*
X193030861Y-125737375D01*
X192942621Y-125622379D01*
X192827625Y-125534139D01*
X192827621Y-125534137D01*
X192693709Y-125478670D01*
X192693708Y-125478669D01*
X192550000Y-125459750D01*
X192406291Y-125478669D01*
X192406290Y-125478670D01*
X192272378Y-125534137D01*
X192272374Y-125534139D01*
X192157381Y-125622377D01*
X192157377Y-125622381D01*
X192069139Y-125737374D01*
X192069137Y-125737378D01*
X192013670Y-125871290D01*
X192013669Y-125871291D01*
X191994750Y-126014999D01*
X181014004Y-126014999D01*
X181013471Y-126013494D01*
X181011869Y-126008565D01*
X180940962Y-125769186D01*
X180796998Y-125283174D01*
X180795658Y-125278173D01*
X180781062Y-125217378D01*
X180773289Y-125185000D01*
X193889965Y-125185000D01*
X193902232Y-125278173D01*
X193908026Y-125322183D01*
X193960974Y-125450014D01*
X193960976Y-125450018D01*
X194045207Y-125559789D01*
X194045210Y-125559792D01*
X194100095Y-125601907D01*
X194154982Y-125644024D01*
X194282817Y-125696974D01*
X194363888Y-125707647D01*
X194419112Y-125733988D01*
X194448307Y-125787759D01*
X194449721Y-125803148D01*
X194468026Y-125942183D01*
X194490550Y-125996563D01*
X194520976Y-126070018D01*
X194605209Y-126179791D01*
X194714982Y-126264024D01*
X194842817Y-126316974D01*
X194980000Y-126335035D01*
X195117183Y-126316974D01*
X195245018Y-126264024D01*
X195354791Y-126179791D01*
X195439024Y-126070018D01*
X195482523Y-125965000D01*
X196534965Y-125965000D01*
X196539398Y-125998669D01*
X196553026Y-126102183D01*
X196605974Y-126230014D01*
X196605976Y-126230018D01*
X196686559Y-126335035D01*
X196690209Y-126339791D01*
X196799982Y-126424024D01*
X196927817Y-126476974D01*
X197065000Y-126495035D01*
X197202183Y-126476974D01*
X197330018Y-126424024D01*
X197439791Y-126339791D01*
X197524024Y-126230018D01*
X197576974Y-126102183D01*
X197577920Y-126094999D01*
X198944750Y-126094999D01*
X198944750Y-126095000D01*
X198963669Y-126238708D01*
X198963670Y-126238709D01*
X199017714Y-126369186D01*
X199022514Y-126430183D01*
X199017715Y-126444953D01*
X198980418Y-126535000D01*
X198973669Y-126551294D01*
X198954750Y-126694999D01*
X198954750Y-126695000D01*
X198973669Y-126838708D01*
X198973670Y-126838709D01*
X199029139Y-126972625D01*
X199117379Y-127087621D01*
X199232375Y-127175861D01*
X199366291Y-127231330D01*
X199510000Y-127250250D01*
X199653709Y-127231330D01*
X199787625Y-127175861D01*
X199856255Y-127123198D01*
X199902614Y-127087627D01*
X199902616Y-127087624D01*
X199902621Y-127087621D01*
X199902624Y-127087616D01*
X199903575Y-127086666D01*
X199904444Y-127086222D01*
X199907770Y-127083671D01*
X199908242Y-127084286D01*
X199958086Y-127058879D01*
X200011476Y-127065193D01*
X200026291Y-127071330D01*
X200026290Y-127071330D01*
X200169999Y-127090250D01*
X200169999Y-127090249D01*
X200170000Y-127090250D01*
X200313709Y-127071330D01*
X200447625Y-127015861D01*
X200562621Y-126927621D01*
X200650861Y-126812625D01*
X200706330Y-126678709D01*
X200725250Y-126535000D01*
X200719988Y-126495035D01*
X200706330Y-126391291D01*
X200650861Y-126257375D01*
X200562621Y-126142379D01*
X200447625Y-126054139D01*
X200447621Y-126054137D01*
X200313709Y-125998670D01*
X200313708Y-125998669D01*
X200170000Y-125979750D01*
X200169997Y-125979750D01*
X200129734Y-125985050D01*
X200069574Y-125973899D01*
X200027457Y-125929516D01*
X200025350Y-125924783D01*
X200003193Y-125871291D01*
X199992284Y-125844955D01*
X199987484Y-125783960D01*
X199992285Y-125769186D01*
X200002285Y-125745044D01*
X200046330Y-125638709D01*
X200065250Y-125495000D01*
X200046330Y-125351291D01*
X199990861Y-125217375D01*
X199902621Y-125102379D01*
X199787625Y-125014139D01*
X199787621Y-125014137D01*
X199653709Y-124958670D01*
X199653708Y-124958669D01*
X199510000Y-124939750D01*
X199366291Y-124958669D01*
X199366290Y-124958670D01*
X199232378Y-125014137D01*
X199232374Y-125014139D01*
X199117381Y-125102377D01*
X199117377Y-125102381D01*
X199029139Y-125217374D01*
X199029137Y-125217378D01*
X198973670Y-125351290D01*
X198973669Y-125351291D01*
X198954750Y-125494999D01*
X198954750Y-125495000D01*
X198971519Y-125622377D01*
X198973670Y-125638709D01*
X199017715Y-125745044D01*
X199022514Y-125806041D01*
X199017714Y-125820814D01*
X198963670Y-125951290D01*
X198963669Y-125951291D01*
X198944750Y-126094999D01*
X197577920Y-126094999D01*
X197595035Y-125965000D01*
X197582698Y-125871290D01*
X197576974Y-125827816D01*
X197524025Y-125699986D01*
X197524024Y-125699983D01*
X197439791Y-125590209D01*
X197439789Y-125590208D01*
X197439789Y-125590207D01*
X197330018Y-125505976D01*
X197330014Y-125505974D01*
X197202183Y-125453026D01*
X197202175Y-125453025D01*
X197065000Y-125434965D01*
X197064999Y-125434965D01*
X196927816Y-125453025D01*
X196927816Y-125453026D01*
X196799986Y-125505974D01*
X196799982Y-125505976D01*
X196690211Y-125590207D01*
X196690207Y-125590211D01*
X196605976Y-125699982D01*
X196605974Y-125699986D01*
X196553026Y-125827816D01*
X196553025Y-125827816D01*
X196537969Y-125942183D01*
X196534965Y-125965000D01*
X195482523Y-125965000D01*
X195491974Y-125942183D01*
X195510035Y-125805000D01*
X195507861Y-125788483D01*
X195491974Y-125667816D01*
X195439025Y-125539986D01*
X195439024Y-125539983D01*
X195354791Y-125430209D01*
X195354789Y-125430208D01*
X195354789Y-125430207D01*
X195245018Y-125345976D01*
X195245014Y-125345974D01*
X195187092Y-125321982D01*
X195117183Y-125293026D01*
X195100170Y-125290786D01*
X195036112Y-125282352D01*
X194980887Y-125256010D01*
X194951693Y-125202239D01*
X194950278Y-125186850D01*
X194950034Y-125185002D01*
X194950035Y-125185000D01*
X194931974Y-125047817D01*
X194918024Y-125014139D01*
X194898583Y-124967204D01*
X194879024Y-124919983D01*
X194794791Y-124810209D01*
X194794789Y-124810208D01*
X194794789Y-124810207D01*
X194685018Y-124725976D01*
X194685014Y-124725974D01*
X194557183Y-124673026D01*
X194557175Y-124673025D01*
X194420000Y-124654965D01*
X194419999Y-124654965D01*
X194282816Y-124673025D01*
X194282816Y-124673026D01*
X194154986Y-124725974D01*
X194154982Y-124725976D01*
X194045211Y-124810207D01*
X194045207Y-124810211D01*
X193960976Y-124919982D01*
X193960974Y-124919986D01*
X193908026Y-125047816D01*
X193908025Y-125047816D01*
X193900842Y-125102381D01*
X193889965Y-125185000D01*
X180773289Y-125185000D01*
X180619042Y-124542514D01*
X180617966Y-124537449D01*
X180602845Y-124455861D01*
X180480099Y-123793589D01*
X180479290Y-123788477D01*
X180470445Y-123721291D01*
X180441329Y-123500130D01*
X181009500Y-123500130D01*
X181009500Y-124589860D01*
X181009501Y-124589863D01*
X181012414Y-124614990D01*
X181030065Y-124654965D01*
X181057794Y-124717765D01*
X181137235Y-124797206D01*
X181240009Y-124842585D01*
X181265135Y-124845500D01*
X182354864Y-124845499D01*
X182379991Y-124842585D01*
X182482765Y-124797206D01*
X182562206Y-124717765D01*
X182607585Y-124614991D01*
X182610500Y-124589865D01*
X182610499Y-123794999D01*
X186544750Y-123794999D01*
X186544750Y-123795000D01*
X186563669Y-123938708D01*
X186563670Y-123938709D01*
X186592664Y-124008709D01*
X186619139Y-124072625D01*
X186707379Y-124187621D01*
X186822375Y-124275861D01*
X186956291Y-124331330D01*
X187100000Y-124350250D01*
X187243709Y-124331330D01*
X187377625Y-124275861D01*
X187492621Y-124187621D01*
X187580861Y-124072625D01*
X187621298Y-123974999D01*
X190304750Y-123974999D01*
X190304750Y-123975000D01*
X190323669Y-124118708D01*
X190323670Y-124118709D01*
X190352212Y-124187618D01*
X190379139Y-124252625D01*
X190467379Y-124367621D01*
X190582375Y-124455861D01*
X190716291Y-124511330D01*
X190860000Y-124530250D01*
X191003709Y-124511330D01*
X191137625Y-124455861D01*
X191252621Y-124367621D01*
X191340861Y-124252625D01*
X191396330Y-124118709D01*
X191415250Y-123975000D01*
X191396330Y-123831291D01*
X191340861Y-123697375D01*
X191252621Y-123582379D01*
X191137625Y-123494139D01*
X191137621Y-123494137D01*
X191003709Y-123438670D01*
X191003708Y-123438669D01*
X190860000Y-123419750D01*
X190716291Y-123438669D01*
X190716290Y-123438670D01*
X190582378Y-123494137D01*
X190582374Y-123494139D01*
X190467381Y-123582377D01*
X190467377Y-123582381D01*
X190379139Y-123697374D01*
X190379137Y-123697378D01*
X190323670Y-123831290D01*
X190323669Y-123831291D01*
X190304750Y-123974999D01*
X187621298Y-123974999D01*
X187636330Y-123938709D01*
X187655250Y-123795000D01*
X187645348Y-123719792D01*
X187636330Y-123651291D01*
X187580861Y-123517375D01*
X187492621Y-123402379D01*
X187417844Y-123345000D01*
X197689965Y-123345000D01*
X197707082Y-123475011D01*
X197708026Y-123482183D01*
X197760974Y-123610014D01*
X197760976Y-123610018D01*
X197828010Y-123697378D01*
X197845209Y-123719791D01*
X197954982Y-123804024D01*
X198082817Y-123856974D01*
X198220000Y-123875035D01*
X198296221Y-123865000D01*
X203484749Y-123865000D01*
X203484749Y-123865001D01*
X203503668Y-124008709D01*
X203503669Y-124008710D01*
X203559138Y-124142626D01*
X203647378Y-124257622D01*
X203762374Y-124345862D01*
X203896290Y-124401331D01*
X204039999Y-124420251D01*
X204183708Y-124401331D01*
X204317624Y-124345862D01*
X204432620Y-124257622D01*
X204520860Y-124142626D01*
X204576329Y-124008710D01*
X204595249Y-123865001D01*
X204576329Y-123721292D01*
X204520860Y-123587376D01*
X204432620Y-123472380D01*
X204317624Y-123384140D01*
X204317620Y-123384138D01*
X204183708Y-123328671D01*
X204183707Y-123328670D01*
X204039999Y-123309751D01*
X203896290Y-123328670D01*
X203896289Y-123328671D01*
X203762377Y-123384138D01*
X203762373Y-123384140D01*
X203647380Y-123472378D01*
X203647376Y-123472382D01*
X203559138Y-123587375D01*
X203559136Y-123587379D01*
X203503669Y-123721291D01*
X203503668Y-123721292D01*
X203484749Y-123865000D01*
X198296221Y-123865000D01*
X198357183Y-123856974D01*
X198485018Y-123804024D01*
X198594791Y-123719791D01*
X198679024Y-123610018D01*
X198731974Y-123482183D01*
X198750035Y-123345000D01*
X198731974Y-123207817D01*
X198679024Y-123079983D01*
X198594791Y-122970209D01*
X198594789Y-122970208D01*
X198594789Y-122970207D01*
X198485018Y-122885976D01*
X198485014Y-122885974D01*
X198357183Y-122833026D01*
X198357175Y-122833025D01*
X198220000Y-122814965D01*
X198219999Y-122814965D01*
X198082816Y-122833025D01*
X198082816Y-122833026D01*
X197954986Y-122885974D01*
X197954982Y-122885976D01*
X197845211Y-122970207D01*
X197845207Y-122970211D01*
X197760976Y-123079982D01*
X197760974Y-123079986D01*
X197708026Y-123207816D01*
X197708025Y-123207816D01*
X197694028Y-123314137D01*
X197689965Y-123345000D01*
X187417844Y-123345000D01*
X187377625Y-123314139D01*
X187377621Y-123314137D01*
X187243709Y-123258670D01*
X187243708Y-123258669D01*
X187100000Y-123239750D01*
X186956291Y-123258669D01*
X186956290Y-123258670D01*
X186822378Y-123314137D01*
X186822374Y-123314139D01*
X186707381Y-123402377D01*
X186707377Y-123402381D01*
X186619139Y-123517374D01*
X186619137Y-123517378D01*
X186563670Y-123651290D01*
X186563669Y-123651291D01*
X186544750Y-123794999D01*
X182610499Y-123794999D01*
X182610499Y-123500136D01*
X182607585Y-123475009D01*
X182562206Y-123372235D01*
X182482765Y-123292794D01*
X182379991Y-123247415D01*
X182379990Y-123247414D01*
X182379988Y-123247414D01*
X182354868Y-123244500D01*
X181265139Y-123244500D01*
X181265136Y-123244501D01*
X181240009Y-123247414D01*
X181137235Y-123292794D01*
X181057794Y-123372235D01*
X181012414Y-123475011D01*
X181009500Y-123500130D01*
X180441329Y-123500130D01*
X180380538Y-123038378D01*
X180380003Y-123033288D01*
X180320643Y-122279041D01*
X180320372Y-122273866D01*
X180319787Y-122251530D01*
X180300567Y-121517558D01*
X180300567Y-121512441D01*
X180314903Y-120964999D01*
X190369965Y-120964999D01*
X190388026Y-121102183D01*
X190440974Y-121230014D01*
X190440976Y-121230018D01*
X190523693Y-121337816D01*
X190525209Y-121339791D01*
X190634982Y-121424024D01*
X190762817Y-121476974D01*
X190900000Y-121495035D01*
X191037183Y-121476974D01*
X191041949Y-121475000D01*
X198974965Y-121475000D01*
X198993026Y-121612183D01*
X199045976Y-121740018D01*
X199130209Y-121849791D01*
X199239982Y-121934024D01*
X199367817Y-121986974D01*
X199505000Y-122005035D01*
X199642183Y-121986974D01*
X199770018Y-121934024D01*
X199879791Y-121849791D01*
X199964024Y-121740018D01*
X200016974Y-121612183D01*
X200035035Y-121475000D01*
X200016974Y-121337817D01*
X199964024Y-121209983D01*
X199879791Y-121100209D01*
X199879789Y-121100208D01*
X199879789Y-121100207D01*
X199770018Y-121015976D01*
X199770014Y-121015974D01*
X199642183Y-120963026D01*
X199642175Y-120963025D01*
X199505000Y-120944965D01*
X199504999Y-120944965D01*
X199367816Y-120963025D01*
X199367816Y-120963026D01*
X199239986Y-121015974D01*
X199239982Y-121015976D01*
X199130211Y-121100207D01*
X199130207Y-121100211D01*
X199045976Y-121209982D01*
X199045974Y-121209986D01*
X198993026Y-121337816D01*
X198993025Y-121337816D01*
X198981676Y-121424023D01*
X198974965Y-121475000D01*
X191041949Y-121475000D01*
X191165018Y-121424024D01*
X191274791Y-121339791D01*
X191359024Y-121230018D01*
X191411974Y-121102183D01*
X191430035Y-120965000D01*
X191411974Y-120827817D01*
X191359024Y-120699983D01*
X191274791Y-120590209D01*
X191274789Y-120590208D01*
X191274789Y-120590207D01*
X191165018Y-120505976D01*
X191165014Y-120505974D01*
X191037183Y-120453026D01*
X191037175Y-120453025D01*
X190900000Y-120434965D01*
X190899999Y-120434965D01*
X190762816Y-120453025D01*
X190762816Y-120453026D01*
X190634986Y-120505974D01*
X190634982Y-120505976D01*
X190525211Y-120590207D01*
X190525207Y-120590211D01*
X190440976Y-120699982D01*
X190440974Y-120699986D01*
X190388026Y-120827816D01*
X190388025Y-120827816D01*
X190369965Y-120964999D01*
X180314903Y-120964999D01*
X180320372Y-120756131D01*
X180320643Y-120750958D01*
X180333294Y-120590207D01*
X180380003Y-119996707D01*
X180380538Y-119991625D01*
X180448552Y-119474999D01*
X198769965Y-119474999D01*
X198788026Y-119612183D01*
X198840974Y-119740014D01*
X198840976Y-119740018D01*
X198901358Y-119818709D01*
X198925209Y-119849791D01*
X199034982Y-119934024D01*
X199162817Y-119986974D01*
X199300000Y-120005035D01*
X199437183Y-119986974D01*
X199565018Y-119934024D01*
X199674791Y-119849791D01*
X199759024Y-119740018D01*
X199785955Y-119674999D01*
X204924750Y-119674999D01*
X204924750Y-119675000D01*
X204943669Y-119818708D01*
X204943670Y-119818709D01*
X204991434Y-119934025D01*
X204999139Y-119952625D01*
X205087379Y-120067621D01*
X205202375Y-120155861D01*
X205336291Y-120211330D01*
X205480000Y-120230250D01*
X205623709Y-120211330D01*
X205757625Y-120155861D01*
X205872621Y-120067621D01*
X205960861Y-119952625D01*
X206016330Y-119818709D01*
X206035250Y-119675000D01*
X206016330Y-119531291D01*
X205960861Y-119397375D01*
X205872621Y-119282379D01*
X205757625Y-119194139D01*
X205757621Y-119194137D01*
X205623709Y-119138670D01*
X205623708Y-119138669D01*
X205480000Y-119119750D01*
X205336291Y-119138669D01*
X205336290Y-119138670D01*
X205202378Y-119194137D01*
X205202374Y-119194139D01*
X205087381Y-119282377D01*
X205087377Y-119282381D01*
X204999139Y-119397374D01*
X204999137Y-119397378D01*
X204943670Y-119531290D01*
X204943669Y-119531291D01*
X204924750Y-119674999D01*
X199785955Y-119674999D01*
X199811974Y-119612183D01*
X199830035Y-119475000D01*
X199811974Y-119337817D01*
X199759024Y-119209983D01*
X199674791Y-119100209D01*
X199674789Y-119100208D01*
X199674789Y-119100207D01*
X199565018Y-119015976D01*
X199565014Y-119015974D01*
X199437183Y-118963026D01*
X199437175Y-118963025D01*
X199300000Y-118944965D01*
X199299999Y-118944965D01*
X199162816Y-118963025D01*
X199162816Y-118963026D01*
X199034986Y-119015974D01*
X199034982Y-119015976D01*
X198925211Y-119100207D01*
X198925207Y-119100211D01*
X198840976Y-119209982D01*
X198840974Y-119209986D01*
X198788026Y-119337816D01*
X198788025Y-119337816D01*
X198769965Y-119474999D01*
X180448552Y-119474999D01*
X180479291Y-119241510D01*
X180480101Y-119236403D01*
X180487935Y-119194139D01*
X180617968Y-118492537D01*
X180619043Y-118487480D01*
X180624432Y-118465034D01*
X180795662Y-117751810D01*
X180797000Y-117746819D01*
X180798128Y-117743014D01*
X181011872Y-117021424D01*
X181013471Y-117016505D01*
X181014004Y-117015000D01*
X181219394Y-116434999D01*
X189614750Y-116434999D01*
X189614750Y-116435000D01*
X189633669Y-116578708D01*
X189633670Y-116578709D01*
X189688572Y-116711257D01*
X189693372Y-116772254D01*
X189688573Y-116787023D01*
X189683750Y-116798669D01*
X189653669Y-116871293D01*
X189634750Y-117014999D01*
X189634750Y-117015000D01*
X189653669Y-117158708D01*
X189653670Y-117158709D01*
X189689104Y-117244257D01*
X189709139Y-117292625D01*
X189797379Y-117407621D01*
X189912375Y-117495861D01*
X190046291Y-117551330D01*
X190160243Y-117566332D01*
X190215468Y-117592673D01*
X190244663Y-117646444D01*
X190238786Y-117702369D01*
X190193669Y-117811293D01*
X190174750Y-117954999D01*
X190174750Y-117955000D01*
X190193669Y-118098708D01*
X190193670Y-118098709D01*
X190206717Y-118130209D01*
X190249139Y-118232625D01*
X190337379Y-118347621D01*
X190452375Y-118435861D01*
X190586291Y-118491330D01*
X190730000Y-118510250D01*
X190769877Y-118505000D01*
X195329965Y-118505000D01*
X195348026Y-118642183D01*
X195400976Y-118770018D01*
X195485209Y-118879791D01*
X195594982Y-118964024D01*
X195722817Y-119016974D01*
X195860000Y-119035035D01*
X195997183Y-119016974D01*
X196125018Y-118964024D01*
X196234791Y-118879791D01*
X196319024Y-118770018D01*
X196371974Y-118642183D01*
X196390035Y-118505000D01*
X196387729Y-118487480D01*
X196371974Y-118367816D01*
X196319025Y-118239986D01*
X196319024Y-118239983D01*
X196234791Y-118130209D01*
X196234789Y-118130208D01*
X196234789Y-118130207D01*
X196125018Y-118045976D01*
X196125014Y-118045974D01*
X195997183Y-117993026D01*
X195997175Y-117993025D01*
X195860000Y-117974965D01*
X195859999Y-117974965D01*
X195722816Y-117993025D01*
X195722816Y-117993026D01*
X195594986Y-118045974D01*
X195594982Y-118045976D01*
X195485211Y-118130207D01*
X195485207Y-118130211D01*
X195400976Y-118239982D01*
X195400974Y-118239986D01*
X195348026Y-118367816D01*
X195348025Y-118367816D01*
X195331941Y-118489989D01*
X195329965Y-118505000D01*
X190769877Y-118505000D01*
X190873709Y-118491330D01*
X191007625Y-118435861D01*
X191014286Y-118430748D01*
X191071958Y-118410322D01*
X191112440Y-118417823D01*
X191182817Y-118446974D01*
X191182816Y-118446974D01*
X191200877Y-118449351D01*
X191320000Y-118465035D01*
X191457183Y-118446974D01*
X191585018Y-118394024D01*
X191694791Y-118309791D01*
X191779024Y-118200018D01*
X191831974Y-118072183D01*
X191850035Y-117935000D01*
X191831974Y-117797817D01*
X191803638Y-117729410D01*
X191798838Y-117668415D01*
X191816563Y-117631257D01*
X191821365Y-117625000D01*
X193429965Y-117625000D01*
X193444242Y-117733443D01*
X193448026Y-117762183D01*
X193500974Y-117890014D01*
X193500976Y-117890018D01*
X193535491Y-117934999D01*
X193585209Y-117999791D01*
X193694982Y-118084024D01*
X193822817Y-118136974D01*
X193960000Y-118155035D01*
X194097183Y-118136974D01*
X194225018Y-118084024D01*
X194334791Y-117999791D01*
X194414596Y-117895789D01*
X198811455Y-117895789D01*
X198811455Y-117895790D01*
X198830374Y-118039498D01*
X198830375Y-118039499D01*
X198867948Y-118130211D01*
X198885844Y-118173415D01*
X198974084Y-118288411D01*
X199089080Y-118376651D01*
X199222996Y-118432120D01*
X199366705Y-118451040D01*
X199510414Y-118432120D01*
X199644330Y-118376651D01*
X199759326Y-118288411D01*
X199847566Y-118173415D01*
X199903035Y-118039499D01*
X199914226Y-117954491D01*
X199940567Y-117899268D01*
X199994338Y-117870073D01*
X200029727Y-117871464D01*
X200029857Y-117870483D01*
X200179999Y-117890250D01*
X200179999Y-117890249D01*
X200180000Y-117890250D01*
X200323709Y-117871330D01*
X200454380Y-117817205D01*
X200463620Y-117813378D01*
X200464776Y-117816169D01*
X200512394Y-117805983D01*
X200556272Y-117823456D01*
X200556757Y-117822617D01*
X200562371Y-117825858D01*
X200562375Y-117825861D01*
X200696291Y-117881330D01*
X200840000Y-117900250D01*
X200983709Y-117881330D01*
X201117625Y-117825861D01*
X201232621Y-117737621D01*
X201320861Y-117622625D01*
X201376330Y-117488709D01*
X201395250Y-117345000D01*
X201393933Y-117335000D01*
X201393048Y-117328280D01*
X201376330Y-117201291D01*
X201330213Y-117089955D01*
X201325413Y-117028959D01*
X201330214Y-117014186D01*
X201335214Y-117002115D01*
X201386330Y-116878709D01*
X201405250Y-116735000D01*
X201396033Y-116664995D01*
X201386330Y-116591291D01*
X201356855Y-116520130D01*
X201844501Y-116520130D01*
X201844501Y-117609860D01*
X201844502Y-117609863D01*
X201847415Y-117634990D01*
X201852473Y-117646444D01*
X201892795Y-117737765D01*
X201972236Y-117817206D01*
X202075010Y-117862585D01*
X202100136Y-117865500D01*
X203189865Y-117865499D01*
X203214992Y-117862585D01*
X203317766Y-117817206D01*
X203373752Y-117761219D01*
X203428266Y-117733443D01*
X203488698Y-117743014D01*
X203496419Y-117747395D01*
X203503877Y-117752081D01*
X203565476Y-117790787D01*
X203565477Y-117790787D01*
X203565480Y-117790789D01*
X203648469Y-117819828D01*
X203735740Y-117850366D01*
X203735744Y-117850367D01*
X203735747Y-117850368D01*
X203915002Y-117870565D01*
X204094257Y-117850368D01*
X204264524Y-117790789D01*
X204417264Y-117694816D01*
X204544818Y-117567262D01*
X204640791Y-117414522D01*
X204700370Y-117244255D01*
X204720567Y-117065000D01*
X204700370Y-116885745D01*
X204695312Y-116871291D01*
X204669901Y-116798669D01*
X204640791Y-116715478D01*
X204638998Y-116712625D01*
X204544820Y-116562741D01*
X204544819Y-116562740D01*
X204544818Y-116562738D01*
X204417264Y-116435184D01*
X204417261Y-116435182D01*
X204417260Y-116435181D01*
X204264525Y-116339211D01*
X204094263Y-116279633D01*
X204094259Y-116279632D01*
X203915002Y-116259435D01*
X203735744Y-116279632D01*
X203735740Y-116279633D01*
X203565478Y-116339211D01*
X203496424Y-116382600D01*
X203437093Y-116397550D01*
X203380306Y-116374770D01*
X203373751Y-116368778D01*
X203317767Y-116312795D01*
X203317766Y-116312794D01*
X203214992Y-116267415D01*
X203214991Y-116267414D01*
X203214989Y-116267414D01*
X203189869Y-116264500D01*
X202100140Y-116264500D01*
X202100137Y-116264501D01*
X202075010Y-116267414D01*
X201972236Y-116312794D01*
X201892795Y-116392235D01*
X201847415Y-116495011D01*
X201844501Y-116520130D01*
X201356855Y-116520130D01*
X201330861Y-116457375D01*
X201328009Y-116452435D01*
X201315289Y-116392586D01*
X201322282Y-116365051D01*
X201332985Y-116339211D01*
X201366330Y-116258709D01*
X201385250Y-116115000D01*
X201366330Y-115971291D01*
X201310861Y-115837375D01*
X201222621Y-115722379D01*
X201107625Y-115634139D01*
X201107621Y-115634137D01*
X200973709Y-115578670D01*
X200973708Y-115578669D01*
X200830000Y-115559750D01*
X200686291Y-115578669D01*
X200686290Y-115578670D01*
X200552368Y-115634141D01*
X200549488Y-115635804D01*
X200547162Y-115636298D01*
X200546380Y-115636622D01*
X200546319Y-115636476D01*
X200489638Y-115648517D01*
X200450512Y-115635804D01*
X200447631Y-115634141D01*
X200313709Y-115578670D01*
X200313708Y-115578669D01*
X200170000Y-115559750D01*
X200026291Y-115578669D01*
X200026290Y-115578670D01*
X199892378Y-115634137D01*
X199892374Y-115634139D01*
X199777381Y-115722377D01*
X199777377Y-115722381D01*
X199689139Y-115837374D01*
X199689137Y-115837378D01*
X199633670Y-115971290D01*
X199633669Y-115971291D01*
X199614750Y-116114999D01*
X199614750Y-116115000D01*
X199633669Y-116258708D01*
X199633670Y-116258709D01*
X199691622Y-116398620D01*
X199690187Y-116399213D01*
X199701299Y-116451514D01*
X199694307Y-116479039D01*
X199643669Y-116601293D01*
X199624750Y-116744999D01*
X199624750Y-116745000D01*
X199643669Y-116888708D01*
X199643670Y-116888709D01*
X199690643Y-117002115D01*
X199695443Y-117063112D01*
X199690643Y-117077885D01*
X199643670Y-117191290D01*
X199643670Y-117191291D01*
X199632478Y-117276297D01*
X199606136Y-117331522D01*
X199552365Y-117360716D01*
X199516975Y-117359328D01*
X199516847Y-117360307D01*
X199366705Y-117340540D01*
X199222996Y-117359459D01*
X199222995Y-117359460D01*
X199089083Y-117414927D01*
X199089079Y-117414929D01*
X198974086Y-117503167D01*
X198974082Y-117503171D01*
X198885844Y-117618164D01*
X198885842Y-117618168D01*
X198830375Y-117752080D01*
X198830374Y-117752081D01*
X198811455Y-117895789D01*
X194414596Y-117895789D01*
X194419024Y-117890018D01*
X194471974Y-117762183D01*
X194490035Y-117625000D01*
X194482434Y-117567262D01*
X194471974Y-117487816D01*
X194438583Y-117407204D01*
X194419024Y-117359983D01*
X194334791Y-117250209D01*
X194334789Y-117250208D01*
X194334789Y-117250207D01*
X194225018Y-117165976D01*
X194225014Y-117165974D01*
X194097183Y-117113026D01*
X194097175Y-117113025D01*
X193960000Y-117094965D01*
X193959999Y-117094965D01*
X193822816Y-117113025D01*
X193822816Y-117113026D01*
X193694986Y-117165974D01*
X193694982Y-117165976D01*
X193585211Y-117250207D01*
X193585207Y-117250211D01*
X193500976Y-117359982D01*
X193500974Y-117359986D01*
X193448026Y-117487816D01*
X193448025Y-117487816D01*
X193431594Y-117612625D01*
X193429965Y-117625000D01*
X191821365Y-117625000D01*
X191830861Y-117612625D01*
X191886330Y-117478709D01*
X191905250Y-117335000D01*
X191897521Y-117276297D01*
X191886330Y-117191291D01*
X191830861Y-117057375D01*
X191742621Y-116942379D01*
X191627625Y-116854139D01*
X191627621Y-116854137D01*
X191493709Y-116798670D01*
X191493708Y-116798669D01*
X191350000Y-116779750D01*
X191349998Y-116779750D01*
X191339051Y-116781191D01*
X191278890Y-116770040D01*
X191236773Y-116725657D01*
X191228788Y-116664995D01*
X191234666Y-116645153D01*
X191252833Y-116601293D01*
X191266330Y-116568709D01*
X191285250Y-116425000D01*
X191273955Y-116339211D01*
X191266330Y-116281291D01*
X191210861Y-116147375D01*
X191122621Y-116032379D01*
X191007625Y-115944139D01*
X191007621Y-115944137D01*
X190873709Y-115888670D01*
X190873708Y-115888669D01*
X190730000Y-115869750D01*
X190586294Y-115888669D01*
X190586291Y-115888669D01*
X190586291Y-115888670D01*
X190562151Y-115898669D01*
X190475813Y-115934431D01*
X190414816Y-115939230D01*
X190400043Y-115934430D01*
X190313709Y-115898670D01*
X190313708Y-115898669D01*
X190170000Y-115879750D01*
X190026291Y-115898669D01*
X190026290Y-115898670D01*
X189892378Y-115954137D01*
X189892374Y-115954139D01*
X189777381Y-116042377D01*
X189777377Y-116042381D01*
X189689139Y-116157374D01*
X189689137Y-116157378D01*
X189633670Y-116291290D01*
X189633669Y-116291291D01*
X189614750Y-116434999D01*
X181219394Y-116434999D01*
X181266012Y-116303354D01*
X181267860Y-116298540D01*
X181275005Y-116281290D01*
X181557386Y-115599559D01*
X181559467Y-115594883D01*
X181885190Y-114911993D01*
X181887538Y-114907386D01*
X181954649Y-114783783D01*
X182248552Y-114242480D01*
X182251103Y-114238062D01*
X182646413Y-113592976D01*
X182649208Y-113588670D01*
X183077770Y-112965108D01*
X183080762Y-112960990D01*
X183541355Y-112360735D01*
X183544582Y-112356750D01*
X183586534Y-112307630D01*
X184119500Y-112307630D01*
X184119500Y-113397360D01*
X184119501Y-113397363D01*
X184122414Y-113422490D01*
X184147756Y-113479885D01*
X184167794Y-113525265D01*
X184247235Y-113604706D01*
X184350009Y-113650085D01*
X184375135Y-113653000D01*
X185464864Y-113652999D01*
X185489991Y-113650085D01*
X185592765Y-113604706D01*
X185672206Y-113525265D01*
X185681153Y-113505002D01*
X196119747Y-113505002D01*
X196119747Y-113505003D01*
X196138666Y-113648711D01*
X196138667Y-113648712D01*
X196181621Y-113752415D01*
X196194136Y-113782628D01*
X196282376Y-113897624D01*
X196397372Y-113985864D01*
X196531288Y-114041333D01*
X196674997Y-114060253D01*
X196818706Y-114041333D01*
X196906107Y-114005131D01*
X204934498Y-114005131D01*
X204934498Y-115094861D01*
X204934499Y-115094864D01*
X204937412Y-115119991D01*
X204962754Y-115177386D01*
X204982792Y-115222766D01*
X205062233Y-115302207D01*
X205165007Y-115347586D01*
X205190133Y-115350501D01*
X206279862Y-115350500D01*
X206304989Y-115347586D01*
X206407763Y-115302207D01*
X206487204Y-115222766D01*
X206532583Y-115119992D01*
X206535498Y-115094866D01*
X206535497Y-114005137D01*
X206532583Y-113980010D01*
X206487204Y-113877236D01*
X206407763Y-113797795D01*
X206304989Y-113752416D01*
X206304988Y-113752415D01*
X206304986Y-113752415D01*
X206279866Y-113749501D01*
X205190137Y-113749501D01*
X205190134Y-113749502D01*
X205165007Y-113752415D01*
X205062233Y-113797795D01*
X204982792Y-113877236D01*
X204937412Y-113980012D01*
X204934498Y-114005131D01*
X196906107Y-114005131D01*
X196952622Y-113985864D01*
X197067618Y-113897624D01*
X197155858Y-113782628D01*
X197211327Y-113648712D01*
X197230247Y-113505003D01*
X197219383Y-113422488D01*
X197211327Y-113361294D01*
X197155858Y-113227378D01*
X197067618Y-113112382D01*
X196952622Y-113024142D01*
X196952618Y-113024140D01*
X196818706Y-112968673D01*
X196818705Y-112968672D01*
X196674997Y-112949753D01*
X196531288Y-112968672D01*
X196531287Y-112968673D01*
X196397375Y-113024140D01*
X196397371Y-113024142D01*
X196282378Y-113112380D01*
X196282374Y-113112384D01*
X196194136Y-113227377D01*
X196194134Y-113227381D01*
X196138667Y-113361293D01*
X196138666Y-113361294D01*
X196119747Y-113505002D01*
X185681153Y-113505002D01*
X185717585Y-113422491D01*
X185720500Y-113397365D01*
X185720499Y-112307636D01*
X185717585Y-112282509D01*
X185672206Y-112179735D01*
X185592765Y-112100294D01*
X185575111Y-112092499D01*
X188499750Y-112092499D01*
X188499750Y-112092500D01*
X188518669Y-112236208D01*
X188518670Y-112236209D01*
X188570258Y-112360757D01*
X188574139Y-112370125D01*
X188662379Y-112485121D01*
X188777375Y-112573361D01*
X188911291Y-112628830D01*
X189055000Y-112647750D01*
X189198709Y-112628830D01*
X189332625Y-112573361D01*
X189447621Y-112485121D01*
X189535861Y-112370125D01*
X189591330Y-112236209D01*
X189610250Y-112092500D01*
X189591330Y-111948791D01*
X189535861Y-111814875D01*
X189447621Y-111699879D01*
X189332625Y-111611639D01*
X189332621Y-111611637D01*
X189198709Y-111556170D01*
X189198708Y-111556169D01*
X189055000Y-111537250D01*
X188911291Y-111556169D01*
X188911290Y-111556170D01*
X188777378Y-111611637D01*
X188777374Y-111611639D01*
X188662381Y-111699877D01*
X188662377Y-111699881D01*
X188574139Y-111814874D01*
X188574137Y-111814878D01*
X188518670Y-111948790D01*
X188518669Y-111948791D01*
X188499750Y-112092499D01*
X185575111Y-112092499D01*
X185489991Y-112054915D01*
X185489990Y-112054914D01*
X185489988Y-112054914D01*
X185464868Y-112052000D01*
X184375139Y-112052000D01*
X184375136Y-112052001D01*
X184350009Y-112054914D01*
X184247235Y-112100294D01*
X184167794Y-112179735D01*
X184122414Y-112282511D01*
X184119500Y-112307630D01*
X183586534Y-112307630D01*
X184035930Y-111781454D01*
X184039395Y-111777607D01*
X184560183Y-111228811D01*
X184563811Y-111225183D01*
X185112611Y-110704391D01*
X185116459Y-110700927D01*
X185691750Y-110209582D01*
X185695735Y-110206355D01*
X186295990Y-109745762D01*
X186300108Y-109742770D01*
X186923670Y-109314208D01*
X186927976Y-109311413D01*
X187028194Y-109249999D01*
X190649318Y-109249999D01*
X190649318Y-109250000D01*
X190669955Y-109406758D01*
X190669957Y-109406766D01*
X190730462Y-109552838D01*
X190730462Y-109552839D01*
X190730464Y-109552841D01*
X190826718Y-109678282D01*
X190952159Y-109774536D01*
X191098238Y-109835044D01*
X191215809Y-109850522D01*
X191254999Y-109855682D01*
X191255000Y-109855682D01*
X191255001Y-109855682D01*
X191286352Y-109851554D01*
X191411762Y-109835044D01*
X191557841Y-109774536D01*
X191683282Y-109678282D01*
X191779536Y-109552841D01*
X191840044Y-109406762D01*
X191860682Y-109250000D01*
X191840044Y-109093238D01*
X191801481Y-109000138D01*
X191779537Y-108947161D01*
X191779537Y-108947160D01*
X191683286Y-108821723D01*
X191683285Y-108821722D01*
X191683282Y-108821718D01*
X191683277Y-108821714D01*
X191683276Y-108821713D01*
X191589638Y-108749863D01*
X191557841Y-108725464D01*
X191557840Y-108725463D01*
X191557838Y-108725462D01*
X191411766Y-108664957D01*
X191411758Y-108664955D01*
X191255001Y-108644318D01*
X191254999Y-108644318D01*
X191098241Y-108664955D01*
X191098233Y-108664957D01*
X190952161Y-108725462D01*
X190952160Y-108725462D01*
X190826723Y-108821713D01*
X190826713Y-108821723D01*
X190730462Y-108947160D01*
X190730462Y-108947161D01*
X190669957Y-109093233D01*
X190669955Y-109093241D01*
X190649318Y-109249999D01*
X187028194Y-109249999D01*
X187573062Y-108916103D01*
X187577480Y-108913552D01*
X188242397Y-108552531D01*
X188246993Y-108550190D01*
X188929883Y-108224467D01*
X188934559Y-108222386D01*
X189633550Y-107932856D01*
X189638354Y-107931012D01*
X190351515Y-107678467D01*
X190356424Y-107676872D01*
X190412944Y-107660130D01*
X195654497Y-107660130D01*
X195654497Y-108749860D01*
X195654498Y-108749863D01*
X195657411Y-108774990D01*
X195665272Y-108792793D01*
X195702791Y-108877765D01*
X195782232Y-108957206D01*
X195885006Y-109002585D01*
X195910132Y-109005500D01*
X196999861Y-109005499D01*
X197024988Y-109002585D01*
X197030550Y-109000129D01*
X198064499Y-109000129D01*
X198064499Y-110089859D01*
X198064500Y-110089862D01*
X198067413Y-110114989D01*
X198092755Y-110172384D01*
X198112793Y-110217764D01*
X198192234Y-110297205D01*
X198295008Y-110342584D01*
X198320134Y-110345499D01*
X199409863Y-110345498D01*
X199434990Y-110342584D01*
X199537764Y-110297205D01*
X199617205Y-110217764D01*
X199662584Y-110114990D01*
X199665499Y-110089864D01*
X199665498Y-109000135D01*
X199662584Y-108975008D01*
X199617205Y-108872234D01*
X199537764Y-108792793D01*
X199434990Y-108747414D01*
X199434989Y-108747413D01*
X199434987Y-108747413D01*
X199409867Y-108744499D01*
X198320138Y-108744499D01*
X198320135Y-108744500D01*
X198295008Y-108747413D01*
X198192234Y-108792793D01*
X198112793Y-108872234D01*
X198067413Y-108975010D01*
X198064499Y-109000129D01*
X197030550Y-109000129D01*
X197127762Y-108957206D01*
X197207203Y-108877765D01*
X197252582Y-108774991D01*
X197255497Y-108749865D01*
X197255496Y-107660136D01*
X197252582Y-107635009D01*
X197207203Y-107532235D01*
X197127762Y-107452794D01*
X197024988Y-107407415D01*
X197024987Y-107407414D01*
X197024985Y-107407414D01*
X196999865Y-107404500D01*
X195910136Y-107404500D01*
X195910133Y-107404501D01*
X195885006Y-107407414D01*
X195782232Y-107452794D01*
X195702791Y-107532235D01*
X195657411Y-107635011D01*
X195654497Y-107660130D01*
X190412944Y-107660130D01*
X191081835Y-107461995D01*
X191086810Y-107460662D01*
X191822492Y-107284040D01*
X191827537Y-107282968D01*
X192571416Y-107145098D01*
X192576510Y-107144291D01*
X193326625Y-107045538D01*
X193331707Y-107045003D01*
X194085959Y-106985642D01*
X194091131Y-106985372D01*
X194847441Y-106965567D01*
X194852559Y-106965567D01*
X195608866Y-106985372D01*
G37*
G04 #@! TD.AperFunction*
M02*
