G04 #@! TF.GenerationSoftware,KiCad,Pcbnew,8.0.6*
G04 #@! TF.CreationDate,2025-07-21T23:51:58+02:00*
G04 #@! TF.ProjectId,nRF5340,6e524635-3334-4302-9e6b-696361645f70,rev?*
G04 #@! TF.SameCoordinates,Original*
G04 #@! TF.FileFunction,Copper,L3,Inr*
G04 #@! TF.FilePolarity,Positive*
%FSLAX46Y46*%
G04 Gerber Fmt 4.6, Leading zero omitted, Abs format (unit mm)*
G04 Created by KiCad (PCBNEW 8.0.6) date 2025-07-21 23:51:58*
%MOMM*%
%LPD*%
G01*
G04 APERTURE LIST*
G04 #@! TA.AperFunction,ComponentPad*
%ADD10R,1.000000X1.000000*%
G04 #@! TD*
G04 #@! TA.AperFunction,ComponentPad*
%ADD11O,1.000000X1.000000*%
G04 #@! TD*
G04 #@! TA.AperFunction,ComponentPad*
%ADD12O,1.800000X1.000000*%
G04 #@! TD*
G04 #@! TA.AperFunction,ComponentPad*
%ADD13O,2.200000X1.000000*%
G04 #@! TD*
G04 #@! TA.AperFunction,ViaPad*
%ADD14C,0.450000*%
G04 #@! TD*
G04 #@! TA.AperFunction,ViaPad*
%ADD15C,0.500000*%
G04 #@! TD*
G04 #@! TA.AperFunction,ViaPad*
%ADD16C,0.600000*%
G04 #@! TD*
G04 #@! TA.AperFunction,ViaPad*
%ADD17C,0.400000*%
G04 #@! TD*
G04 APERTURE END LIST*
D10*
X187720000Y-133100000D03*
D11*
X188990001Y-133100000D03*
D10*
X198864999Y-109544999D03*
D11*
X200135000Y-109544999D03*
D10*
X196454997Y-108205000D03*
D11*
X195184996Y-108205000D03*
D10*
X202645001Y-117065000D03*
D11*
X203915002Y-117065000D03*
D10*
X181810000Y-124045000D03*
D11*
X181810000Y-125315000D03*
D10*
X193230001Y-131715001D03*
D11*
X191960000Y-131715001D03*
D10*
X208444999Y-122879999D03*
D11*
X208444999Y-121609998D03*
D10*
X205734998Y-114550001D03*
D11*
X205734998Y-113280000D03*
D10*
X184920000Y-112852500D03*
D11*
X184920000Y-114122500D03*
D12*
X142612499Y-119495748D03*
D13*
X138612498Y-119495747D03*
D12*
X142612499Y-128135750D03*
D13*
X138612498Y-128135753D03*
D14*
X195409951Y-132254301D03*
X194980000Y-125805000D03*
X190900000Y-120965000D03*
X194420000Y-125185000D03*
X199505000Y-121475000D03*
X198610000Y-133304301D03*
D15*
X190730000Y-116425000D03*
D14*
X193960000Y-117625000D03*
D15*
X200180000Y-117335000D03*
X199510000Y-126695000D03*
X199366705Y-117895790D03*
X192550000Y-126015000D03*
D14*
X195860000Y-118505000D03*
X199300000Y-119475000D03*
X198220000Y-123345000D03*
D15*
X204039999Y-123865001D03*
D14*
X196269951Y-132234301D03*
X192810000Y-133305000D03*
D15*
X200180000Y-116745000D03*
D14*
X184130000Y-128750000D03*
D15*
X187100000Y-123795000D03*
X200170000Y-116115000D03*
X205480000Y-119675000D03*
X200840000Y-117345000D03*
X194219950Y-134915000D03*
X199510000Y-125495000D03*
D16*
X191255000Y-109250000D03*
D15*
X190860000Y-123975000D03*
D14*
X204380000Y-130825000D03*
D15*
X200830000Y-116115000D03*
X197479950Y-134915000D03*
X189055000Y-112092500D03*
X199500000Y-126095000D03*
D14*
X191320000Y-117935000D03*
D15*
X200170000Y-126535000D03*
D14*
X195285000Y-119500000D03*
X183210000Y-120185000D03*
X187930000Y-118075000D03*
D15*
X186990000Y-128935000D03*
D14*
X184960000Y-121935000D03*
D17*
X193155000Y-108050000D03*
D15*
X187615000Y-114722500D03*
X193550000Y-129225000D03*
X191590000Y-125445000D03*
D17*
X185055000Y-115750000D03*
D14*
X185310000Y-129715000D03*
D15*
X190705000Y-133025000D03*
D14*
X183200000Y-119525000D03*
D15*
X190740000Y-117005000D03*
X196674997Y-113505003D03*
X200850000Y-116735000D03*
D14*
X194530000Y-117305000D03*
D15*
X191350000Y-117335000D03*
X202650000Y-126535000D03*
D14*
X183180000Y-117575000D03*
X195449951Y-135395000D03*
D15*
X191600000Y-126025000D03*
X203080000Y-112675000D03*
D14*
X187040000Y-122205000D03*
D15*
X190190000Y-117015000D03*
D14*
X185680000Y-122215000D03*
X196249951Y-135375000D03*
X185930000Y-117575000D03*
D15*
X193460000Y-130295000D03*
X190630000Y-130650000D03*
D14*
X197620000Y-125585000D03*
D17*
X207530000Y-125350000D03*
X194305000Y-121975000D03*
D15*
X194500000Y-111025000D03*
X195460000Y-125325000D03*
X190170000Y-116435000D03*
X190860000Y-123275000D03*
D14*
X187650000Y-122185000D03*
D15*
X190730000Y-117955000D03*
D14*
X197065000Y-125965000D03*
X188050000Y-121025000D03*
X196940000Y-132445000D03*
D15*
X199400000Y-118595000D03*
X183410000Y-126315000D03*
D17*
X192105000Y-112425000D03*
D14*
X202560000Y-132565000D03*
D15*
X187430000Y-117575000D03*
D14*
X183800000Y-117595000D03*
X185180000Y-117575000D03*
X202570000Y-116025000D03*
D15*
X203200000Y-127275000D03*
D14*
X183200000Y-118845000D03*
X203900000Y-116015000D03*
X199430000Y-128035000D03*
X184430000Y-117575000D03*
D17*
X183030000Y-115800000D03*
X208030000Y-120175000D03*
D15*
X204480000Y-112435000D03*
X203240000Y-126535000D03*
X190630000Y-131800000D03*
D14*
X198780000Y-119085000D03*
D15*
X202650000Y-127265000D03*
D17*
X181555000Y-119975000D03*
D14*
X196890000Y-129845000D03*
D17*
X190630000Y-134550000D03*
D15*
X186580000Y-117575000D03*
D14*
X196935000Y-119675000D03*
X189660000Y-129705000D03*
X198450000Y-132465000D03*
X183190000Y-118225000D03*
D17*
X188280000Y-110575000D03*
D16*
X190255000Y-109225000D03*
D15*
X203750000Y-127285000D03*
D14*
X191930000Y-133375000D03*
D15*
X206270000Y-116365000D03*
X191430000Y-114700000D03*
X205640000Y-121205000D03*
X205530000Y-116345000D03*
D14*
X197430000Y-122675000D03*
X183805000Y-120780000D03*
D15*
X194250000Y-109605000D03*
X188330000Y-116325000D03*
D14*
X188060000Y-121725000D03*
X186410000Y-122205000D03*
D15*
X184620000Y-125815000D03*
D14*
X199420000Y-127385000D03*
X194780000Y-132445000D03*
D17*
X202830000Y-111050000D03*
D15*
X186480000Y-115075000D03*
D14*
X184345000Y-121320000D03*
D15*
X194980000Y-124795000D03*
D17*
X182805000Y-127700000D03*
D14*
X144925000Y-116775000D03*
X149550000Y-126850000D03*
D17*
X144350000Y-136325000D03*
D14*
X144700000Y-121150000D03*
D17*
X141525000Y-116825000D03*
D14*
X151450000Y-133575000D03*
X161775000Y-125675000D03*
X138600000Y-126950000D03*
X160000000Y-122725000D03*
X160225000Y-114625000D03*
D17*
X136975000Y-126250000D03*
D14*
X149925000Y-127775000D03*
X159850000Y-133850000D03*
D17*
X140075000Y-122250000D03*
X152275000Y-137400000D03*
D14*
X161625000Y-131325000D03*
D17*
X163525000Y-120725000D03*
X138600000Y-123775000D03*
D14*
X150975000Y-136900000D03*
X146500000Y-116000000D03*
X156025000Y-130300000D03*
X151847477Y-123707646D03*
X145175000Y-133825000D03*
X151450000Y-134675000D03*
D17*
X144825000Y-112475000D03*
D14*
X140975000Y-114425000D03*
X162150000Y-119775000D03*
X146012500Y-123137500D03*
D17*
X148275000Y-120300000D03*
D14*
X153925000Y-136925000D03*
D17*
X146950000Y-112550000D03*
D14*
X148850000Y-133824302D03*
X160275000Y-115825000D03*
X155700000Y-129075000D03*
X150812150Y-132662150D03*
X148350000Y-132700000D03*
X147250000Y-126850000D03*
D17*
X136925000Y-122125000D03*
X139750000Y-126200000D03*
D14*
X158325000Y-126625000D03*
X148725000Y-126800000D03*
X151650000Y-130475000D03*
D17*
X163575000Y-126350000D03*
D14*
X153400000Y-122350000D03*
X148025000Y-113125000D03*
D17*
X163550000Y-123550000D03*
D14*
X138600000Y-120725000D03*
D17*
X161725000Y-130300000D03*
X158450000Y-132650000D03*
D14*
X138425000Y-117725000D03*
D17*
X142550000Y-112450000D03*
D14*
X153750000Y-128675000D03*
X145750000Y-126875000D03*
X154500000Y-122400000D03*
D17*
X151750000Y-124325000D03*
D14*
X160975000Y-125625000D03*
X145025000Y-135375000D03*
X139250000Y-129975000D03*
X145437500Y-119637500D03*
X147375000Y-121350000D03*
X160650000Y-119550000D03*
X154575000Y-135225000D03*
X162925000Y-127250000D03*
X161400000Y-122200000D03*
X146375000Y-113525000D03*
X162800000Y-128725000D03*
X152100000Y-129325000D03*
D17*
X149600000Y-129200000D03*
X143225000Y-135400000D03*
X149625000Y-135300000D03*
X145200000Y-130350000D03*
X146750000Y-129900000D03*
X157150000Y-129750000D03*
X157175000Y-127850000D03*
X153824301Y-132324301D03*
X155000000Y-134275000D03*
X141825000Y-122600000D03*
X148650000Y-131825000D03*
X147250000Y-131175000D03*
X141700000Y-125575000D03*
X152475000Y-136100000D03*
X159400000Y-125125000D03*
D14*
X148625000Y-117850000D03*
X152600000Y-119850000D03*
X148575000Y-118875000D03*
X153950000Y-126825000D03*
X151200000Y-123850002D03*
G04 #@! TA.AperFunction,Conductor*
G36*
X148434643Y-111843970D02*
G01*
X148470684Y-111893414D01*
X148475576Y-111923575D01*
X148480345Y-112739013D01*
X148461779Y-112797313D01*
X148412490Y-112833566D01*
X148351305Y-112833924D01*
X148311345Y-112809597D01*
X148278220Y-112776472D01*
X148278217Y-112776470D01*
X148158129Y-112715282D01*
X148158127Y-112715281D01*
X148025000Y-112694196D01*
X147891872Y-112715281D01*
X147891870Y-112715282D01*
X147771782Y-112776470D01*
X147676470Y-112871782D01*
X147615282Y-112991870D01*
X147615281Y-112991872D01*
X147594196Y-113124999D01*
X147594196Y-113125000D01*
X147615281Y-113258127D01*
X147615282Y-113258129D01*
X147676470Y-113378217D01*
X147676472Y-113378220D01*
X147771780Y-113473528D01*
X147891874Y-113534719D01*
X148025000Y-113555804D01*
X148158126Y-113534719D01*
X148278220Y-113473528D01*
X148315826Y-113435921D01*
X148370340Y-113408145D01*
X148430772Y-113417716D01*
X148474037Y-113460980D01*
X148484826Y-113505347D01*
X148493064Y-114914042D01*
X148474498Y-114972342D01*
X148425209Y-115008595D01*
X148364024Y-115008953D01*
X148314315Y-114973279D01*
X148302602Y-114952506D01*
X148291925Y-114926730D01*
X148291925Y-114926729D01*
X148259510Y-114878217D01*
X148210305Y-114804577D01*
X148106424Y-114700696D01*
X147984273Y-114619077D01*
X147984272Y-114619076D01*
X147984270Y-114619075D01*
X147848546Y-114562857D01*
X147704461Y-114534197D01*
X147704459Y-114534197D01*
X147557549Y-114534197D01*
X147557546Y-114534197D01*
X147413462Y-114562857D01*
X147413460Y-114562857D01*
X147277737Y-114619075D01*
X147277736Y-114619075D01*
X147155584Y-114700696D01*
X147155580Y-114700699D01*
X147051706Y-114804573D01*
X147051703Y-114804577D01*
X146970082Y-114926729D01*
X146970082Y-114926730D01*
X146913864Y-115062453D01*
X146913864Y-115062455D01*
X146885204Y-115206539D01*
X146885204Y-115353454D01*
X146913864Y-115497538D01*
X146913864Y-115497540D01*
X146945839Y-115574735D01*
X146950639Y-115635732D01*
X146918670Y-115687901D01*
X146862142Y-115711315D01*
X146802647Y-115697031D01*
X146784375Y-115682627D01*
X146753220Y-115651472D01*
X146753217Y-115651470D01*
X146633129Y-115590282D01*
X146633127Y-115590281D01*
X146500000Y-115569196D01*
X146499998Y-115569196D01*
X146435739Y-115579373D01*
X146375307Y-115569801D01*
X146332043Y-115526536D01*
X146322472Y-115466104D01*
X146323155Y-115462278D01*
X146332503Y-115415282D01*
X146344802Y-115353451D01*
X146344802Y-115206541D01*
X146316142Y-115062454D01*
X146279308Y-114973528D01*
X146259923Y-114926729D01*
X146259923Y-114926728D01*
X146239587Y-114896294D01*
X146178303Y-114804576D01*
X146074422Y-114700695D01*
X145952271Y-114619076D01*
X145952270Y-114619075D01*
X145952268Y-114619074D01*
X145816544Y-114562856D01*
X145672459Y-114534196D01*
X145672457Y-114534196D01*
X145525547Y-114534196D01*
X145525544Y-114534196D01*
X145381460Y-114562856D01*
X145381458Y-114562856D01*
X145245735Y-114619074D01*
X145245734Y-114619074D01*
X145123582Y-114700695D01*
X145123578Y-114700698D01*
X145019704Y-114804572D01*
X145019701Y-114804576D01*
X144938080Y-114926728D01*
X144938080Y-114926729D01*
X144881862Y-115062452D01*
X144881862Y-115062454D01*
X144853202Y-115206538D01*
X144853202Y-115353453D01*
X144861306Y-115394196D01*
X144877671Y-115476470D01*
X144881862Y-115497537D01*
X144881862Y-115497539D01*
X144938080Y-115633262D01*
X144938080Y-115633263D01*
X144971063Y-115682624D01*
X145019701Y-115755416D01*
X145123582Y-115859297D01*
X145245733Y-115940916D01*
X145245734Y-115940916D01*
X145245735Y-115940917D01*
X145249219Y-115942360D01*
X145381460Y-115997136D01*
X145525547Y-116025796D01*
X145525549Y-116025796D01*
X145672455Y-116025796D01*
X145672457Y-116025796D01*
X145816544Y-115997136D01*
X145937194Y-115947160D01*
X145998190Y-115942360D01*
X146050359Y-115974330D01*
X146072860Y-116023137D01*
X146090281Y-116133128D01*
X146090282Y-116133129D01*
X146142045Y-116234719D01*
X146151472Y-116253220D01*
X146246780Y-116348528D01*
X146366874Y-116409719D01*
X146500000Y-116430804D01*
X146633126Y-116409719D01*
X146753220Y-116348528D01*
X146848528Y-116253220D01*
X146909719Y-116133126D01*
X146930804Y-116000000D01*
X146909719Y-115866874D01*
X146909717Y-115866871D01*
X146909687Y-115866678D01*
X146919258Y-115806245D01*
X146962522Y-115762981D01*
X147022954Y-115753409D01*
X147077471Y-115781186D01*
X147077472Y-115781186D01*
X147155584Y-115859298D01*
X147277735Y-115940917D01*
X147277736Y-115940917D01*
X147277737Y-115940918D01*
X147292809Y-115947161D01*
X147413462Y-115997137D01*
X147557549Y-116025797D01*
X147557551Y-116025797D01*
X147704457Y-116025797D01*
X147704459Y-116025797D01*
X147848546Y-115997137D01*
X147984273Y-115940917D01*
X148106424Y-115859298D01*
X148210305Y-115755417D01*
X148291924Y-115633266D01*
X148306816Y-115597314D01*
X148346552Y-115550788D01*
X148406047Y-115536504D01*
X148462575Y-115559918D01*
X148494544Y-115612087D01*
X148497278Y-115634620D01*
X148499999Y-116099999D01*
X148500000Y-116100000D01*
X159425000Y-116125000D01*
X159425000Y-115824999D01*
X159844196Y-115824999D01*
X159844196Y-115825000D01*
X159865281Y-115958127D01*
X159865282Y-115958129D01*
X159899761Y-116025797D01*
X159926472Y-116078220D01*
X160021780Y-116173528D01*
X160141874Y-116234719D01*
X160275000Y-116255804D01*
X160408126Y-116234719D01*
X160528220Y-116173528D01*
X160623528Y-116078220D01*
X160684719Y-115958126D01*
X160705804Y-115825000D01*
X160684719Y-115691874D01*
X160623528Y-115571780D01*
X160528220Y-115476472D01*
X160528217Y-115476470D01*
X160408129Y-115415282D01*
X160408127Y-115415281D01*
X160275000Y-115394196D01*
X160141872Y-115415281D01*
X160141870Y-115415282D01*
X160021782Y-115476470D01*
X159926470Y-115571782D01*
X159865282Y-115691870D01*
X159865281Y-115691872D01*
X159844196Y-115824999D01*
X159425000Y-115824999D01*
X159425000Y-115125000D01*
X159425001Y-115124648D01*
X159426779Y-114624999D01*
X159794196Y-114624999D01*
X159794196Y-114625000D01*
X159815281Y-114758127D01*
X159815282Y-114758129D01*
X159854307Y-114834719D01*
X159876472Y-114878220D01*
X159971780Y-114973528D01*
X160091874Y-115034719D01*
X160225000Y-115055804D01*
X160358126Y-115034719D01*
X160478220Y-114973528D01*
X160573528Y-114878220D01*
X160634719Y-114758126D01*
X160655804Y-114625000D01*
X160654865Y-114619074D01*
X160651835Y-114599945D01*
X160634719Y-114491874D01*
X160573528Y-114371780D01*
X160478220Y-114276472D01*
X160478217Y-114276470D01*
X160358129Y-114215282D01*
X160358127Y-114215281D01*
X160225000Y-114194196D01*
X160091872Y-114215281D01*
X160091870Y-114215282D01*
X159971782Y-114276470D01*
X159876470Y-114371782D01*
X159815282Y-114491870D01*
X159815281Y-114491872D01*
X159794196Y-114624999D01*
X159426779Y-114624999D01*
X159433230Y-112812070D01*
X159452344Y-112753949D01*
X159501972Y-112718161D01*
X159563157Y-112718379D01*
X159596524Y-112737144D01*
X159858540Y-112960927D01*
X159862392Y-112964395D01*
X160411169Y-113485165D01*
X160414834Y-113488830D01*
X160935604Y-114037607D01*
X160939072Y-114041459D01*
X161430399Y-114616729D01*
X161433661Y-114620757D01*
X161894218Y-115220966D01*
X161897247Y-115225134D01*
X162137521Y-115574735D01*
X162325777Y-115848650D01*
X162328599Y-115852997D01*
X162479963Y-116100000D01*
X162687920Y-116439355D01*
X162723875Y-116498027D01*
X162726467Y-116502515D01*
X163087461Y-117167386D01*
X163089814Y-117172004D01*
X163246962Y-117501470D01*
X163413202Y-117849999D01*
X163415515Y-117854847D01*
X163417623Y-117859583D01*
X163707139Y-118558540D01*
X163708996Y-118563378D01*
X163961528Y-119276505D01*
X163963130Y-119281434D01*
X164177999Y-120006819D01*
X164179341Y-120011826D01*
X164355956Y-120747480D01*
X164357033Y-120752550D01*
X164494898Y-121496403D01*
X164495709Y-121501522D01*
X164594457Y-122251588D01*
X164594999Y-122256743D01*
X164654356Y-123010958D01*
X164654627Y-123016133D01*
X164674432Y-123772408D01*
X164674432Y-123777592D01*
X164654627Y-124533866D01*
X164654356Y-124539041D01*
X164594999Y-125293256D01*
X164594457Y-125298411D01*
X164495709Y-126048477D01*
X164494898Y-126053596D01*
X164357033Y-126797449D01*
X164355956Y-126802519D01*
X164179341Y-127538173D01*
X164177999Y-127543180D01*
X163963130Y-128268565D01*
X163961528Y-128273494D01*
X163708996Y-128986621D01*
X163707139Y-128991459D01*
X163417623Y-129690416D01*
X163415515Y-129695152D01*
X163089814Y-130377995D01*
X163087461Y-130382613D01*
X162726467Y-131047484D01*
X162723875Y-131051972D01*
X162328599Y-131697002D01*
X162325777Y-131701349D01*
X161897256Y-132324853D01*
X161894209Y-132329046D01*
X161433661Y-132929242D01*
X161430399Y-132933270D01*
X160939072Y-133508540D01*
X160935604Y-133512392D01*
X160433275Y-134041737D01*
X160379504Y-134070932D01*
X160318842Y-134062946D01*
X160274460Y-134020829D01*
X160263310Y-133960668D01*
X160263682Y-133958103D01*
X160263789Y-133957431D01*
X160280804Y-133850000D01*
X160259719Y-133716874D01*
X160198528Y-133596780D01*
X160103220Y-133501472D01*
X160103217Y-133501470D01*
X159983129Y-133440282D01*
X159983127Y-133440281D01*
X159850000Y-133419196D01*
X159716872Y-133440281D01*
X159716870Y-133440282D01*
X159596782Y-133501470D01*
X159501470Y-133596782D01*
X159440282Y-133716870D01*
X159440281Y-133716872D01*
X159419196Y-133849999D01*
X159419196Y-133850000D01*
X159440281Y-133983127D01*
X159440282Y-133983129D01*
X159501470Y-134103217D01*
X159501472Y-134103220D01*
X159596780Y-134198528D01*
X159716874Y-134259719D01*
X159850000Y-134280804D01*
X159935510Y-134267260D01*
X159995940Y-134276831D01*
X160039205Y-134320095D01*
X160048777Y-134380527D01*
X160021000Y-134435044D01*
X160019143Y-134436853D01*
X159862392Y-134585604D01*
X159858540Y-134589072D01*
X159283270Y-135080399D01*
X159279242Y-135083661D01*
X158679046Y-135544209D01*
X158674853Y-135547256D01*
X158051349Y-135975777D01*
X158047002Y-135978599D01*
X157401972Y-136373875D01*
X157397484Y-136376467D01*
X156732613Y-136737461D01*
X156727995Y-136739814D01*
X156045152Y-137065515D01*
X156040416Y-137067623D01*
X155341459Y-137357139D01*
X155336621Y-137358996D01*
X154623494Y-137611528D01*
X154618565Y-137613130D01*
X153893180Y-137827999D01*
X153888173Y-137829341D01*
X153152519Y-138005956D01*
X153147449Y-138007033D01*
X152403596Y-138144898D01*
X152398477Y-138145709D01*
X151648411Y-138244457D01*
X151643256Y-138244999D01*
X150889041Y-138304356D01*
X150883866Y-138304627D01*
X150127592Y-138324432D01*
X150122408Y-138324432D01*
X149366133Y-138304627D01*
X149360958Y-138304356D01*
X148606743Y-138244999D01*
X148601588Y-138244457D01*
X147851522Y-138145709D01*
X147846403Y-138144898D01*
X147102550Y-138007033D01*
X147097480Y-138005956D01*
X146361826Y-137829341D01*
X146356819Y-137827999D01*
X145631434Y-137613130D01*
X145626505Y-137611528D01*
X145029167Y-137399999D01*
X151869508Y-137399999D01*
X151869508Y-137400000D01*
X151889354Y-137525303D01*
X151889355Y-137525307D01*
X151933730Y-137612397D01*
X151946950Y-137638342D01*
X152036658Y-137728050D01*
X152149696Y-137785646D01*
X152275000Y-137805492D01*
X152400304Y-137785646D01*
X152513342Y-137728050D01*
X152603050Y-137638342D01*
X152660646Y-137525304D01*
X152680492Y-137400000D01*
X152660646Y-137274696D01*
X152603050Y-137161658D01*
X152513342Y-137071950D01*
X152486211Y-137058126D01*
X152400307Y-137014355D01*
X152400304Y-137014354D01*
X152275000Y-136994508D01*
X152149696Y-137014354D01*
X152149692Y-137014355D01*
X152036659Y-137071949D01*
X151946949Y-137161659D01*
X151889355Y-137274692D01*
X151889354Y-137274696D01*
X151869508Y-137399999D01*
X145029167Y-137399999D01*
X144913378Y-137358996D01*
X144908540Y-137357139D01*
X144209583Y-137067623D01*
X144204847Y-137065515D01*
X144202012Y-137064163D01*
X144055978Y-136994508D01*
X143857837Y-136899999D01*
X150544196Y-136899999D01*
X150544196Y-136900000D01*
X150565281Y-137033127D01*
X150565282Y-137033129D01*
X150626470Y-137153217D01*
X150626472Y-137153220D01*
X150721780Y-137248528D01*
X150841874Y-137309719D01*
X150975000Y-137330804D01*
X151108126Y-137309719D01*
X151228220Y-137248528D01*
X151323528Y-137153220D01*
X151384719Y-137033126D01*
X151401845Y-136924999D01*
X153494196Y-136924999D01*
X153494196Y-136925000D01*
X153515281Y-137058127D01*
X153515282Y-137058129D01*
X153576470Y-137178217D01*
X153576472Y-137178220D01*
X153671780Y-137273528D01*
X153791874Y-137334719D01*
X153925000Y-137355804D01*
X154058126Y-137334719D01*
X154178220Y-137273528D01*
X154273528Y-137178220D01*
X154334719Y-137058126D01*
X154355804Y-136925000D01*
X154334719Y-136791874D01*
X154273528Y-136671780D01*
X154178220Y-136576472D01*
X154178217Y-136576470D01*
X154058129Y-136515282D01*
X154058127Y-136515281D01*
X153925000Y-136494196D01*
X153791872Y-136515281D01*
X153791870Y-136515282D01*
X153671782Y-136576470D01*
X153576470Y-136671782D01*
X153515282Y-136791870D01*
X153515281Y-136791872D01*
X153494196Y-136924999D01*
X151401845Y-136924999D01*
X151405804Y-136900000D01*
X151384719Y-136766874D01*
X151323528Y-136646780D01*
X151228220Y-136551472D01*
X151228217Y-136551470D01*
X151108129Y-136490282D01*
X151108127Y-136490281D01*
X150975000Y-136469196D01*
X150841872Y-136490281D01*
X150841870Y-136490282D01*
X150721782Y-136551470D01*
X150626470Y-136646782D01*
X150565282Y-136766870D01*
X150565281Y-136766872D01*
X150544196Y-136899999D01*
X143857837Y-136899999D01*
X143522004Y-136739814D01*
X143517386Y-136737461D01*
X142988505Y-136450303D01*
X142852508Y-136376463D01*
X142848027Y-136373875D01*
X142790039Y-136338340D01*
X142768270Y-136325000D01*
X143944508Y-136325000D01*
X143952659Y-136376467D01*
X143964354Y-136450303D01*
X143964355Y-136450307D01*
X143997462Y-136515282D01*
X144021950Y-136563342D01*
X144111658Y-136653050D01*
X144224696Y-136710646D01*
X144350000Y-136730492D01*
X144475304Y-136710646D01*
X144588342Y-136653050D01*
X144678050Y-136563342D01*
X144735646Y-136450304D01*
X144755492Y-136325000D01*
X144735646Y-136199696D01*
X144684848Y-136100000D01*
X152069508Y-136100000D01*
X152085297Y-136199692D01*
X152089354Y-136225303D01*
X152089355Y-136225307D01*
X152110189Y-136266195D01*
X152146950Y-136338342D01*
X152236658Y-136428050D01*
X152349696Y-136485646D01*
X152475000Y-136505492D01*
X152600304Y-136485646D01*
X152713342Y-136428050D01*
X152803050Y-136338342D01*
X152860646Y-136225304D01*
X152880492Y-136100000D01*
X152860646Y-135974696D01*
X152803050Y-135861658D01*
X152713342Y-135771950D01*
X152709406Y-135769944D01*
X152600307Y-135714355D01*
X152600304Y-135714354D01*
X152475000Y-135694508D01*
X152349696Y-135714354D01*
X152349692Y-135714355D01*
X152236659Y-135771949D01*
X152146949Y-135861659D01*
X152089355Y-135974692D01*
X152089354Y-135974696D01*
X152085830Y-135996949D01*
X152069508Y-136100000D01*
X144684848Y-136100000D01*
X144678050Y-136086658D01*
X144588342Y-135996950D01*
X144584406Y-135994944D01*
X144475307Y-135939355D01*
X144475304Y-135939354D01*
X144350000Y-135919508D01*
X144224696Y-135939354D01*
X144224692Y-135939355D01*
X144111659Y-135996949D01*
X144021949Y-136086659D01*
X143964355Y-136199692D01*
X143964354Y-136199696D01*
X143944508Y-136325000D01*
X142768270Y-136325000D01*
X142202997Y-135978599D01*
X142198650Y-135975777D01*
X141902079Y-135771950D01*
X141575134Y-135547247D01*
X141570966Y-135544218D01*
X141383016Y-135399999D01*
X142819508Y-135399999D01*
X142819508Y-135400000D01*
X142839354Y-135525303D01*
X142839355Y-135525307D01*
X142850539Y-135547256D01*
X142896950Y-135638342D01*
X142986658Y-135728050D01*
X143099696Y-135785646D01*
X143225000Y-135805492D01*
X143350304Y-135785646D01*
X143463342Y-135728050D01*
X143553050Y-135638342D01*
X143610646Y-135525304D01*
X143630492Y-135400000D01*
X143614654Y-135299999D01*
X149219508Y-135299999D01*
X149219508Y-135300000D01*
X149239354Y-135425303D01*
X149239355Y-135425307D01*
X149290306Y-135525303D01*
X149296950Y-135538342D01*
X149386658Y-135628050D01*
X149499696Y-135685646D01*
X149625000Y-135705492D01*
X149750304Y-135685646D01*
X149863342Y-135628050D01*
X149953050Y-135538342D01*
X150010646Y-135425304D01*
X150030492Y-135300000D01*
X150010646Y-135174696D01*
X149953050Y-135061658D01*
X149863342Y-134971950D01*
X149859406Y-134969944D01*
X149750307Y-134914355D01*
X149750304Y-134914354D01*
X149625000Y-134894508D01*
X149499696Y-134914354D01*
X149499692Y-134914355D01*
X149386659Y-134971949D01*
X149296949Y-135061659D01*
X149239355Y-135174692D01*
X149239354Y-135174696D01*
X149219508Y-135299999D01*
X143614654Y-135299999D01*
X143610646Y-135274696D01*
X143553050Y-135161658D01*
X143463342Y-135071950D01*
X143443143Y-135061658D01*
X143350307Y-135014355D01*
X143350304Y-135014354D01*
X143225000Y-134994508D01*
X143099696Y-135014354D01*
X143099692Y-135014355D01*
X142986659Y-135071949D01*
X142896949Y-135161659D01*
X142839355Y-135274692D01*
X142839354Y-135274696D01*
X142819508Y-135399999D01*
X141383016Y-135399999D01*
X140972136Y-135084719D01*
X140970757Y-135083661D01*
X140966729Y-135080399D01*
X140492067Y-134674999D01*
X151019196Y-134674999D01*
X151019196Y-134675000D01*
X151040281Y-134808127D01*
X151040282Y-134808129D01*
X151094407Y-134914355D01*
X151101472Y-134928220D01*
X151196780Y-135023528D01*
X151196782Y-135023529D01*
X151314797Y-135083661D01*
X151316874Y-135084719D01*
X151450000Y-135105804D01*
X151583126Y-135084719D01*
X151703220Y-135023528D01*
X151798528Y-134928220D01*
X151859719Y-134808126D01*
X151880804Y-134675000D01*
X151859719Y-134541874D01*
X151798528Y-134421780D01*
X151703220Y-134326472D01*
X151703217Y-134326470D01*
X151602200Y-134274999D01*
X154594508Y-134274999D01*
X154594508Y-134275000D01*
X154614354Y-134400303D01*
X154614355Y-134400307D01*
X154669944Y-134509406D01*
X154671950Y-134513342D01*
X154761658Y-134603050D01*
X154874696Y-134660646D01*
X155000000Y-134680492D01*
X155125304Y-134660646D01*
X155238342Y-134603050D01*
X155328050Y-134513342D01*
X155385646Y-134400304D01*
X155405492Y-134275000D01*
X155385646Y-134149696D01*
X155328050Y-134036658D01*
X155238342Y-133946950D01*
X155192374Y-133923528D01*
X155125307Y-133889355D01*
X155125304Y-133889354D01*
X155000000Y-133869508D01*
X154874696Y-133889354D01*
X154874692Y-133889355D01*
X154761659Y-133946949D01*
X154671949Y-134036659D01*
X154614355Y-134149692D01*
X154614354Y-134149696D01*
X154594508Y-134274999D01*
X151602200Y-134274999D01*
X151583129Y-134265282D01*
X151583127Y-134265281D01*
X151450000Y-134244196D01*
X151316872Y-134265281D01*
X151316870Y-134265282D01*
X151196782Y-134326470D01*
X151101470Y-134421782D01*
X151040282Y-134541870D01*
X151040281Y-134541872D01*
X151019196Y-134674999D01*
X140492067Y-134674999D01*
X140391459Y-134589072D01*
X140387607Y-134585604D01*
X139838830Y-134064834D01*
X139835165Y-134061169D01*
X139611048Y-133824999D01*
X144744196Y-133824999D01*
X144744196Y-133825000D01*
X144765281Y-133958127D01*
X144765282Y-133958129D01*
X144826116Y-134077522D01*
X144826472Y-134078220D01*
X144921780Y-134173528D01*
X145041874Y-134234719D01*
X145175000Y-134255804D01*
X145308126Y-134234719D01*
X145428220Y-134173528D01*
X145523528Y-134078220D01*
X145584719Y-133958126D01*
X145605804Y-133825000D01*
X145605693Y-133824302D01*
X145605693Y-133824301D01*
X148419196Y-133824301D01*
X148419196Y-133824302D01*
X148440281Y-133957429D01*
X148440282Y-133957431D01*
X148494045Y-134062946D01*
X148501472Y-134077522D01*
X148596780Y-134172830D01*
X148716874Y-134234021D01*
X148850000Y-134255106D01*
X148983126Y-134234021D01*
X149103220Y-134172830D01*
X149198528Y-134077522D01*
X149259719Y-133957428D01*
X149280804Y-133824302D01*
X149259719Y-133691176D01*
X149200524Y-133574999D01*
X151019196Y-133574999D01*
X151019196Y-133575000D01*
X151040281Y-133708127D01*
X151040282Y-133708129D01*
X151099831Y-133825000D01*
X151101472Y-133828220D01*
X151196780Y-133923528D01*
X151196782Y-133923529D01*
X151313749Y-133983127D01*
X151316874Y-133984719D01*
X151450000Y-134005804D01*
X151583126Y-133984719D01*
X151703220Y-133923528D01*
X151798528Y-133828220D01*
X151859719Y-133708126D01*
X151880804Y-133575000D01*
X151880183Y-133571082D01*
X151869158Y-133501470D01*
X151859719Y-133441874D01*
X151798528Y-133321780D01*
X151703220Y-133226472D01*
X151703217Y-133226470D01*
X151583129Y-133165282D01*
X151583127Y-133165281D01*
X151450000Y-133144196D01*
X151316872Y-133165281D01*
X151316870Y-133165282D01*
X151196782Y-133226470D01*
X151101470Y-133321782D01*
X151040282Y-133441870D01*
X151040281Y-133441872D01*
X151019196Y-133574999D01*
X149200524Y-133574999D01*
X149198528Y-133571082D01*
X149103220Y-133475774D01*
X149103217Y-133475772D01*
X148983129Y-133414584D01*
X148983127Y-133414583D01*
X148850000Y-133393498D01*
X148716872Y-133414583D01*
X148716870Y-133414584D01*
X148596782Y-133475772D01*
X148501470Y-133571084D01*
X148440282Y-133691172D01*
X148440281Y-133691174D01*
X148419196Y-133824301D01*
X145605693Y-133824301D01*
X145601835Y-133799945D01*
X145584719Y-133691874D01*
X145523528Y-133571780D01*
X145428220Y-133476472D01*
X145428217Y-133476470D01*
X145308129Y-133415282D01*
X145308127Y-133415281D01*
X145175000Y-133394196D01*
X145041872Y-133415281D01*
X145041870Y-133415282D01*
X144921782Y-133476470D01*
X144826470Y-133571782D01*
X144765282Y-133691870D01*
X144765281Y-133691872D01*
X144744196Y-133824999D01*
X139611048Y-133824999D01*
X139314395Y-133512392D01*
X139310927Y-133508540D01*
X138819600Y-132933270D01*
X138816338Y-132929242D01*
X138742586Y-132833127D01*
X138640433Y-132699999D01*
X147919196Y-132699999D01*
X147919196Y-132700000D01*
X147940281Y-132833127D01*
X147940282Y-132833129D01*
X148001470Y-132953217D01*
X148001472Y-132953220D01*
X148096780Y-133048528D01*
X148216874Y-133109719D01*
X148350000Y-133130804D01*
X148483126Y-133109719D01*
X148603220Y-133048528D01*
X148698528Y-132953220D01*
X148759719Y-132833126D01*
X148780804Y-132700000D01*
X148774809Y-132662149D01*
X150381346Y-132662149D01*
X150381346Y-132662150D01*
X150402431Y-132795277D01*
X150402432Y-132795279D01*
X150463620Y-132915367D01*
X150463622Y-132915370D01*
X150558930Y-133010678D01*
X150679024Y-133071869D01*
X150812150Y-133092954D01*
X150945276Y-133071869D01*
X151065370Y-133010678D01*
X151160678Y-132915370D01*
X151221869Y-132795276D01*
X151242954Y-132662150D01*
X151241029Y-132649999D01*
X151238985Y-132637095D01*
X151221869Y-132529024D01*
X151160678Y-132408930D01*
X151076048Y-132324300D01*
X153418809Y-132324300D01*
X153418809Y-132324301D01*
X153438655Y-132449604D01*
X153438656Y-132449608D01*
X153476914Y-132524692D01*
X153496251Y-132562643D01*
X153585959Y-132652351D01*
X153698997Y-132709947D01*
X153824301Y-132729793D01*
X153949605Y-132709947D01*
X154062643Y-132652351D01*
X154064995Y-132649999D01*
X158044508Y-132649999D01*
X158044508Y-132650000D01*
X158064354Y-132775303D01*
X158064355Y-132775307D01*
X158093816Y-132833126D01*
X158121950Y-132888342D01*
X158211658Y-132978050D01*
X158324696Y-133035646D01*
X158450000Y-133055492D01*
X158575304Y-133035646D01*
X158688342Y-132978050D01*
X158778050Y-132888342D01*
X158835646Y-132775304D01*
X158855492Y-132650000D01*
X158835646Y-132524696D01*
X158778050Y-132411658D01*
X158688342Y-132321950D01*
X158684406Y-132319944D01*
X158575307Y-132264355D01*
X158575304Y-132264354D01*
X158450000Y-132244508D01*
X158324696Y-132264354D01*
X158324692Y-132264355D01*
X158211659Y-132321949D01*
X158121949Y-132411659D01*
X158064355Y-132524692D01*
X158064354Y-132524696D01*
X158044508Y-132649999D01*
X154064995Y-132649999D01*
X154152351Y-132562643D01*
X154209947Y-132449605D01*
X154229793Y-132324301D01*
X154229420Y-132321949D01*
X154222122Y-132275870D01*
X154209947Y-132198997D01*
X154152351Y-132085959D01*
X154062643Y-131996251D01*
X154058707Y-131994245D01*
X153949608Y-131938656D01*
X153949605Y-131938655D01*
X153824301Y-131918809D01*
X153698997Y-131938655D01*
X153698993Y-131938656D01*
X153585960Y-131996250D01*
X153496250Y-132085960D01*
X153438656Y-132198993D01*
X153438655Y-132198997D01*
X153418809Y-132324300D01*
X151076048Y-132324300D01*
X151065370Y-132313622D01*
X151065367Y-132313620D01*
X150945279Y-132252432D01*
X150945277Y-132252431D01*
X150812150Y-132231346D01*
X150679022Y-132252431D01*
X150679020Y-132252432D01*
X150558932Y-132313620D01*
X150463620Y-132408932D01*
X150402432Y-132529020D01*
X150402431Y-132529022D01*
X150381346Y-132662149D01*
X148774809Y-132662149D01*
X148759719Y-132566874D01*
X148698528Y-132446780D01*
X148642564Y-132390816D01*
X148614789Y-132336302D01*
X148624360Y-132275870D01*
X148667625Y-132232605D01*
X148697079Y-132223035D01*
X148775304Y-132210646D01*
X148888342Y-132153050D01*
X148978050Y-132063342D01*
X149035646Y-131950304D01*
X149055492Y-131825000D01*
X149035646Y-131699696D01*
X148978050Y-131586658D01*
X148888342Y-131496950D01*
X148884406Y-131494944D01*
X148775307Y-131439355D01*
X148775304Y-131439354D01*
X148650000Y-131419508D01*
X148524696Y-131439354D01*
X148524692Y-131439355D01*
X148411659Y-131496949D01*
X148321949Y-131586659D01*
X148264355Y-131699692D01*
X148264354Y-131699696D01*
X148244508Y-131824999D01*
X148244508Y-131825000D01*
X148264354Y-131950303D01*
X148264355Y-131950307D01*
X148287765Y-131996251D01*
X148321950Y-132063342D01*
X148366104Y-132107496D01*
X148393880Y-132162011D01*
X148384309Y-132222443D01*
X148341044Y-132265708D01*
X148311587Y-132275279D01*
X148216872Y-132290281D01*
X148216870Y-132290282D01*
X148096782Y-132351470D01*
X148001470Y-132446782D01*
X147940282Y-132566870D01*
X147940281Y-132566872D01*
X147919196Y-132699999D01*
X138640433Y-132699999D01*
X138355776Y-132329027D01*
X138352757Y-132324872D01*
X137924220Y-131701346D01*
X137921400Y-131697002D01*
X137853781Y-131586658D01*
X137601516Y-131174999D01*
X146844508Y-131174999D01*
X146844508Y-131175000D01*
X146864354Y-131300303D01*
X146864355Y-131300307D01*
X146876937Y-131325000D01*
X146921950Y-131413342D01*
X147011658Y-131503050D01*
X147124696Y-131560646D01*
X147250000Y-131580492D01*
X147375304Y-131560646D01*
X147488342Y-131503050D01*
X147578050Y-131413342D01*
X147623063Y-131324999D01*
X161194196Y-131324999D01*
X161194196Y-131325000D01*
X161215281Y-131458127D01*
X161215282Y-131458129D01*
X161276470Y-131578217D01*
X161276472Y-131578220D01*
X161371780Y-131673528D01*
X161491874Y-131734719D01*
X161625000Y-131755804D01*
X161758126Y-131734719D01*
X161878220Y-131673528D01*
X161973528Y-131578220D01*
X162034719Y-131458126D01*
X162055804Y-131325000D01*
X162034719Y-131191874D01*
X161973528Y-131071780D01*
X161878220Y-130976472D01*
X161878217Y-130976470D01*
X161758129Y-130915282D01*
X161758127Y-130915281D01*
X161625000Y-130894196D01*
X161491872Y-130915281D01*
X161491870Y-130915282D01*
X161371782Y-130976470D01*
X161276470Y-131071782D01*
X161215282Y-131191870D01*
X161215281Y-131191872D01*
X161194196Y-131324999D01*
X147623063Y-131324999D01*
X147635646Y-131300304D01*
X147655492Y-131175000D01*
X147635646Y-131049696D01*
X147578050Y-130936658D01*
X147488342Y-130846950D01*
X147442374Y-130823528D01*
X147375307Y-130789355D01*
X147375304Y-130789354D01*
X147250000Y-130769508D01*
X147124696Y-130789354D01*
X147124692Y-130789355D01*
X147011659Y-130846949D01*
X146921949Y-130936659D01*
X146864355Y-131049692D01*
X146864354Y-131049696D01*
X146844508Y-131174999D01*
X137601516Y-131174999D01*
X137526113Y-131051953D01*
X137523543Y-131047503D01*
X137228734Y-130504533D01*
X137162538Y-130382613D01*
X137160185Y-130377995D01*
X137146832Y-130349999D01*
X144794508Y-130349999D01*
X144794508Y-130350000D01*
X144814354Y-130475303D01*
X144814355Y-130475307D01*
X144854053Y-130553217D01*
X144871950Y-130588342D01*
X144961658Y-130678050D01*
X145074696Y-130735646D01*
X145200000Y-130755492D01*
X145325304Y-130735646D01*
X145438342Y-130678050D01*
X145528050Y-130588342D01*
X145585646Y-130475304D01*
X145585694Y-130474999D01*
X151219196Y-130474999D01*
X151219196Y-130475000D01*
X151240281Y-130608127D01*
X151240282Y-130608129D01*
X151292045Y-130709719D01*
X151301472Y-130728220D01*
X151396780Y-130823528D01*
X151516874Y-130884719D01*
X151650000Y-130905804D01*
X151783126Y-130884719D01*
X151903220Y-130823528D01*
X151998528Y-130728220D01*
X152059719Y-130608126D01*
X152080804Y-130475000D01*
X152059719Y-130341874D01*
X152038383Y-130299999D01*
X155594196Y-130299999D01*
X155594196Y-130300000D01*
X155615281Y-130433127D01*
X155615282Y-130433129D01*
X155668890Y-130538340D01*
X155676472Y-130553220D01*
X155771780Y-130648528D01*
X155891874Y-130709719D01*
X156025000Y-130730804D01*
X156158126Y-130709719D01*
X156278220Y-130648528D01*
X156373528Y-130553220D01*
X156434719Y-130433126D01*
X156455804Y-130300000D01*
X161319508Y-130300000D01*
X161332592Y-130382613D01*
X161339354Y-130425303D01*
X161339355Y-130425307D01*
X161343340Y-130433127D01*
X161396950Y-130538342D01*
X161486658Y-130628050D01*
X161599696Y-130685646D01*
X161725000Y-130705492D01*
X161850304Y-130685646D01*
X161963342Y-130628050D01*
X162053050Y-130538342D01*
X162110646Y-130425304D01*
X162130492Y-130300000D01*
X162110646Y-130174696D01*
X162053050Y-130061658D01*
X161963342Y-129971950D01*
X161923148Y-129951470D01*
X161850307Y-129914355D01*
X161850304Y-129914354D01*
X161725000Y-129894508D01*
X161599696Y-129914354D01*
X161599692Y-129914355D01*
X161486659Y-129971949D01*
X161396949Y-130061659D01*
X161339355Y-130174692D01*
X161339354Y-130174696D01*
X161321782Y-130285645D01*
X161319508Y-130300000D01*
X156455804Y-130300000D01*
X156434719Y-130166874D01*
X156373528Y-130046780D01*
X156278220Y-129951472D01*
X156278217Y-129951470D01*
X156158129Y-129890282D01*
X156158127Y-129890281D01*
X156025000Y-129869196D01*
X155891872Y-129890281D01*
X155891870Y-129890282D01*
X155771782Y-129951470D01*
X155676470Y-130046782D01*
X155615282Y-130166870D01*
X155615281Y-130166872D01*
X155594196Y-130299999D01*
X152038383Y-130299999D01*
X151998528Y-130221780D01*
X151903220Y-130126472D01*
X151903217Y-130126470D01*
X151783129Y-130065282D01*
X151783127Y-130065281D01*
X151650000Y-130044196D01*
X151516872Y-130065281D01*
X151516870Y-130065282D01*
X151396782Y-130126470D01*
X151301470Y-130221782D01*
X151240282Y-130341870D01*
X151240281Y-130341872D01*
X151219196Y-130474999D01*
X145585694Y-130474999D01*
X145605492Y-130350000D01*
X145585646Y-130224696D01*
X145528050Y-130111658D01*
X145438342Y-130021950D01*
X145372383Y-129988342D01*
X145325307Y-129964355D01*
X145325304Y-129964354D01*
X145200000Y-129944508D01*
X145074696Y-129964354D01*
X145074692Y-129964355D01*
X144961659Y-130021949D01*
X144871949Y-130111659D01*
X144814355Y-130224692D01*
X144814354Y-130224696D01*
X144794508Y-130349999D01*
X137146832Y-130349999D01*
X137044590Y-130135646D01*
X136932192Y-129900000D01*
X146344508Y-129900000D01*
X146355903Y-129971949D01*
X146364354Y-130025303D01*
X146364355Y-130025307D01*
X146408354Y-130111658D01*
X146421950Y-130138342D01*
X146511658Y-130228050D01*
X146624696Y-130285646D01*
X146750000Y-130305492D01*
X146875304Y-130285646D01*
X146988342Y-130228050D01*
X147078050Y-130138342D01*
X147135646Y-130025304D01*
X147155492Y-129900000D01*
X147135646Y-129774696D01*
X147078050Y-129661658D01*
X146988342Y-129571950D01*
X146984406Y-129569944D01*
X146875307Y-129514355D01*
X146875304Y-129514354D01*
X146750000Y-129494508D01*
X146624696Y-129514354D01*
X146624692Y-129514355D01*
X146511659Y-129571949D01*
X146421949Y-129661659D01*
X146364355Y-129774692D01*
X146364354Y-129774696D01*
X146348420Y-129875303D01*
X146344508Y-129900000D01*
X136932192Y-129900000D01*
X136834474Y-129695130D01*
X136832376Y-129690416D01*
X136825381Y-129673529D01*
X136629240Y-129200000D01*
X149194508Y-129200000D01*
X149195795Y-129208129D01*
X149214354Y-129325303D01*
X149214355Y-129325307D01*
X149263597Y-129421949D01*
X149271950Y-129438342D01*
X149361658Y-129528050D01*
X149474696Y-129585646D01*
X149600000Y-129605492D01*
X149725304Y-129585646D01*
X149838342Y-129528050D01*
X149928050Y-129438342D01*
X149985646Y-129325304D01*
X149985694Y-129324999D01*
X151669196Y-129324999D01*
X151669196Y-129325000D01*
X151690281Y-129458127D01*
X151690282Y-129458129D01*
X151748277Y-129571950D01*
X151751472Y-129578220D01*
X151846780Y-129673528D01*
X151966874Y-129734719D01*
X152100000Y-129755804D01*
X152136651Y-129749999D01*
X156744508Y-129749999D01*
X156744508Y-129750000D01*
X156764354Y-129875303D01*
X156764355Y-129875307D01*
X156799615Y-129944508D01*
X156821950Y-129988342D01*
X156911658Y-130078050D01*
X157024696Y-130135646D01*
X157150000Y-130155492D01*
X157275304Y-130135646D01*
X157388342Y-130078050D01*
X157478050Y-129988342D01*
X157535646Y-129875304D01*
X157555492Y-129750000D01*
X157535646Y-129624696D01*
X157478050Y-129511658D01*
X157388342Y-129421950D01*
X157384406Y-129419944D01*
X157275307Y-129364355D01*
X157275304Y-129364354D01*
X157150000Y-129344508D01*
X157024696Y-129364354D01*
X157024692Y-129364355D01*
X156911659Y-129421949D01*
X156821949Y-129511659D01*
X156764355Y-129624692D01*
X156764354Y-129624696D01*
X156744508Y-129749999D01*
X152136651Y-129749999D01*
X152233126Y-129734719D01*
X152353220Y-129673528D01*
X152448528Y-129578220D01*
X152509719Y-129458126D01*
X152530804Y-129325000D01*
X152509719Y-129191874D01*
X152448528Y-129071780D01*
X152353220Y-128976472D01*
X152353217Y-128976470D01*
X152233129Y-128915282D01*
X152233127Y-128915281D01*
X152100000Y-128894196D01*
X151966872Y-128915281D01*
X151966870Y-128915282D01*
X151846782Y-128976470D01*
X151751470Y-129071782D01*
X151690282Y-129191870D01*
X151690281Y-129191872D01*
X151669196Y-129324999D01*
X149985694Y-129324999D01*
X150005492Y-129200000D01*
X149985646Y-129074696D01*
X149928050Y-128961658D01*
X149838342Y-128871950D01*
X149834406Y-128869944D01*
X149725307Y-128814355D01*
X149725304Y-128814354D01*
X149600000Y-128794508D01*
X149474696Y-128814354D01*
X149474692Y-128814355D01*
X149361659Y-128871949D01*
X149271949Y-128961659D01*
X149214355Y-129074692D01*
X149214354Y-129074696D01*
X149194508Y-129200000D01*
X136629240Y-129200000D01*
X136581489Y-129084718D01*
X136542860Y-128991459D01*
X136541003Y-128986621D01*
X136537408Y-128976470D01*
X136288471Y-128273494D01*
X136286869Y-128268565D01*
X136243907Y-128123528D01*
X136227091Y-128066757D01*
X137311998Y-128066757D01*
X137311998Y-128066758D01*
X137311998Y-128066760D01*
X137311998Y-128204746D01*
X137338917Y-128340078D01*
X137338918Y-128340080D01*
X137338918Y-128340082D01*
X137391720Y-128467559D01*
X137391726Y-128467570D01*
X137468383Y-128582294D01*
X137565956Y-128679867D01*
X137680680Y-128756524D01*
X137680691Y-128756530D01*
X137727781Y-128776035D01*
X137808170Y-128809333D01*
X137943505Y-128836253D01*
X137943506Y-128836253D01*
X139281490Y-128836253D01*
X139281491Y-128836253D01*
X139416826Y-128809333D01*
X139544309Y-128756528D01*
X139659040Y-128679867D01*
X139756612Y-128582295D01*
X139833273Y-128467564D01*
X139886078Y-128340081D01*
X139912998Y-128204746D01*
X139912998Y-128066760D01*
X139912997Y-128066754D01*
X141511999Y-128066754D01*
X141511999Y-128204745D01*
X141538919Y-128340077D01*
X141538919Y-128340079D01*
X141591721Y-128467556D01*
X141591727Y-128467567D01*
X141668384Y-128582291D01*
X141765957Y-128679864D01*
X141880681Y-128756521D01*
X141880692Y-128756527D01*
X141927782Y-128776032D01*
X142008171Y-128809330D01*
X142143506Y-128836250D01*
X142143507Y-128836250D01*
X143081491Y-128836250D01*
X143081492Y-128836250D01*
X143216827Y-128809330D01*
X143344310Y-128756525D01*
X143459041Y-128679864D01*
X143463906Y-128674999D01*
X153319196Y-128674999D01*
X153319196Y-128675000D01*
X153340281Y-128808127D01*
X153340282Y-128808129D01*
X153401470Y-128928217D01*
X153401472Y-128928220D01*
X153496780Y-129023528D01*
X153616874Y-129084719D01*
X153750000Y-129105804D01*
X153883126Y-129084719D01*
X153902203Y-129074999D01*
X155269196Y-129074999D01*
X155269196Y-129075000D01*
X155290281Y-129208127D01*
X155290282Y-129208129D01*
X155351470Y-129328217D01*
X155351472Y-129328220D01*
X155446780Y-129423528D01*
X155566874Y-129484719D01*
X155700000Y-129505804D01*
X155833126Y-129484719D01*
X155953220Y-129423528D01*
X156048528Y-129328220D01*
X156109719Y-129208126D01*
X156130804Y-129075000D01*
X156109719Y-128941874D01*
X156048528Y-128821780D01*
X155953220Y-128726472D01*
X155953217Y-128726470D01*
X155833129Y-128665282D01*
X155833127Y-128665281D01*
X155700000Y-128644196D01*
X155566872Y-128665281D01*
X155566870Y-128665282D01*
X155446782Y-128726470D01*
X155351470Y-128821782D01*
X155290282Y-128941870D01*
X155290281Y-128941872D01*
X155269196Y-129074999D01*
X153902203Y-129074999D01*
X154003220Y-129023528D01*
X154098528Y-128928220D01*
X154159719Y-128808126D01*
X154180804Y-128675000D01*
X154159719Y-128541874D01*
X154098528Y-128421780D01*
X154003220Y-128326472D01*
X154003217Y-128326470D01*
X153883129Y-128265282D01*
X153883127Y-128265281D01*
X153750000Y-128244196D01*
X153616872Y-128265281D01*
X153616870Y-128265282D01*
X153496782Y-128326470D01*
X153401470Y-128421782D01*
X153340282Y-128541870D01*
X153340281Y-128541872D01*
X153319196Y-128674999D01*
X143463906Y-128674999D01*
X143556613Y-128582292D01*
X143633274Y-128467561D01*
X143686079Y-128340078D01*
X143712999Y-128204743D01*
X143712999Y-128066757D01*
X143686079Y-127931422D01*
X143633274Y-127803939D01*
X143633273Y-127803937D01*
X143633270Y-127803932D01*
X143556613Y-127689208D01*
X143459040Y-127591635D01*
X143344316Y-127514978D01*
X143344305Y-127514972D01*
X143216827Y-127462170D01*
X143081494Y-127435250D01*
X143081492Y-127435250D01*
X142143506Y-127435250D01*
X142143503Y-127435250D01*
X142008171Y-127462170D01*
X142008169Y-127462170D01*
X141880692Y-127514972D01*
X141880681Y-127514978D01*
X141765957Y-127591635D01*
X141668384Y-127689208D01*
X141591727Y-127803932D01*
X141591721Y-127803943D01*
X141538919Y-127931420D01*
X141538919Y-127931422D01*
X141511999Y-128066754D01*
X139912997Y-128066754D01*
X139886078Y-127931425D01*
X139852351Y-127850000D01*
X139833275Y-127803946D01*
X139833269Y-127803935D01*
X139756612Y-127689211D01*
X139659039Y-127591638D01*
X139544315Y-127514981D01*
X139544304Y-127514975D01*
X139416826Y-127462173D01*
X139281493Y-127435253D01*
X139281491Y-127435253D01*
X138955502Y-127435253D01*
X138897311Y-127416346D01*
X138861347Y-127366846D01*
X138861347Y-127305660D01*
X138885496Y-127266251D01*
X138948528Y-127203220D01*
X139009719Y-127083126D01*
X139030804Y-126950000D01*
X139018925Y-126874999D01*
X145319196Y-126874999D01*
X145319196Y-126875000D01*
X145340281Y-127008127D01*
X145340282Y-127008129D01*
X145388734Y-127103221D01*
X145401472Y-127128220D01*
X145496780Y-127223528D01*
X145616874Y-127284719D01*
X145750000Y-127305804D01*
X145883126Y-127284719D01*
X146003220Y-127223528D01*
X146098528Y-127128220D01*
X146159719Y-127008126D01*
X146180804Y-126875000D01*
X146176844Y-126849999D01*
X146819196Y-126849999D01*
X146819196Y-126850000D01*
X146840281Y-126983127D01*
X146840282Y-126983129D01*
X146901470Y-127103217D01*
X146901472Y-127103220D01*
X146996780Y-127198528D01*
X147116874Y-127259719D01*
X147250000Y-127280804D01*
X147383126Y-127259719D01*
X147503220Y-127198528D01*
X147598528Y-127103220D01*
X147659719Y-126983126D01*
X147680804Y-126850000D01*
X147672885Y-126799999D01*
X148294196Y-126799999D01*
X148294196Y-126800000D01*
X148315281Y-126933127D01*
X148315282Y-126933129D01*
X148367045Y-127034719D01*
X148376472Y-127053220D01*
X148471780Y-127148528D01*
X148591874Y-127209719D01*
X148725000Y-127230804D01*
X148858126Y-127209719D01*
X148978220Y-127148528D01*
X149045058Y-127081689D01*
X149099572Y-127053913D01*
X149160004Y-127063484D01*
X149194896Y-127098368D01*
X149196894Y-127096918D01*
X149201470Y-127103217D01*
X149201472Y-127103220D01*
X149296780Y-127198528D01*
X149416874Y-127259719D01*
X149550000Y-127280804D01*
X149566841Y-127278136D01*
X149627269Y-127287706D01*
X149670535Y-127330969D01*
X149680109Y-127391401D01*
X149652333Y-127445918D01*
X149576473Y-127521778D01*
X149576470Y-127521782D01*
X149515282Y-127641870D01*
X149515281Y-127641872D01*
X149494196Y-127774999D01*
X149494196Y-127775000D01*
X149515281Y-127908127D01*
X149515282Y-127908129D01*
X149549511Y-127975307D01*
X149576472Y-128028220D01*
X149671780Y-128123528D01*
X149791874Y-128184719D01*
X149925000Y-128205804D01*
X150058126Y-128184719D01*
X150178220Y-128123528D01*
X150273528Y-128028220D01*
X150334719Y-127908126D01*
X150343925Y-127849999D01*
X156769508Y-127849999D01*
X156769508Y-127850000D01*
X156789354Y-127975303D01*
X156789355Y-127975307D01*
X156816316Y-128028220D01*
X156846950Y-128088342D01*
X156936658Y-128178050D01*
X157049696Y-128235646D01*
X157175000Y-128255492D01*
X157300304Y-128235646D01*
X157413342Y-128178050D01*
X157503050Y-128088342D01*
X157560646Y-127975304D01*
X157580492Y-127850000D01*
X157560646Y-127724696D01*
X157503050Y-127611658D01*
X157413342Y-127521950D01*
X157399647Y-127514972D01*
X157300307Y-127464355D01*
X157300304Y-127464354D01*
X157175000Y-127444508D01*
X157049696Y-127464354D01*
X157049692Y-127464355D01*
X156936659Y-127521949D01*
X156846949Y-127611659D01*
X156789355Y-127724692D01*
X156789354Y-127724696D01*
X156769508Y-127849999D01*
X150343925Y-127849999D01*
X150355804Y-127775000D01*
X150334719Y-127641874D01*
X150273528Y-127521780D01*
X150178220Y-127426472D01*
X150178217Y-127426470D01*
X150058129Y-127365282D01*
X150058127Y-127365281D01*
X149925000Y-127344196D01*
X149924998Y-127344196D01*
X149908158Y-127346863D01*
X149847726Y-127337291D01*
X149804462Y-127294026D01*
X149794891Y-127233594D01*
X149822667Y-127179080D01*
X149898528Y-127103220D01*
X149959719Y-126983126D01*
X149980804Y-126850000D01*
X149976844Y-126824999D01*
X153519196Y-126824999D01*
X153519196Y-126825000D01*
X153540281Y-126958127D01*
X153540282Y-126958129D01*
X153601470Y-127078217D01*
X153601472Y-127078220D01*
X153696780Y-127173528D01*
X153816874Y-127234719D01*
X153950000Y-127255804D01*
X154083126Y-127234719D01*
X154203220Y-127173528D01*
X154298528Y-127078220D01*
X154359719Y-126958126D01*
X154380804Y-126825000D01*
X154359719Y-126691874D01*
X154325644Y-126624999D01*
X157894196Y-126624999D01*
X157894196Y-126625000D01*
X157915281Y-126758127D01*
X157915282Y-126758129D01*
X157974831Y-126875000D01*
X157976472Y-126878220D01*
X158071780Y-126973528D01*
X158191874Y-127034719D01*
X158325000Y-127055804D01*
X158458126Y-127034719D01*
X158578220Y-126973528D01*
X158673528Y-126878220D01*
X158734719Y-126758126D01*
X158755804Y-126625000D01*
X158734719Y-126491874D01*
X158673528Y-126371780D01*
X158651748Y-126350000D01*
X163169508Y-126350000D01*
X163185579Y-126451472D01*
X163189354Y-126475303D01*
X163189355Y-126475307D01*
X163222462Y-126540282D01*
X163246950Y-126588342D01*
X163336658Y-126678050D01*
X163449696Y-126735646D01*
X163575000Y-126755492D01*
X163700304Y-126735646D01*
X163813342Y-126678050D01*
X163903050Y-126588342D01*
X163960646Y-126475304D01*
X163980492Y-126350000D01*
X163960646Y-126224696D01*
X163903050Y-126111658D01*
X163813342Y-126021950D01*
X163793143Y-126011658D01*
X163700307Y-125964355D01*
X163700304Y-125964354D01*
X163575000Y-125944508D01*
X163449696Y-125964354D01*
X163449692Y-125964355D01*
X163336659Y-126021949D01*
X163246949Y-126111659D01*
X163189355Y-126224692D01*
X163189354Y-126224696D01*
X163173420Y-126325303D01*
X163169508Y-126350000D01*
X158651748Y-126350000D01*
X158578220Y-126276472D01*
X158578217Y-126276470D01*
X158458129Y-126215282D01*
X158458127Y-126215281D01*
X158325000Y-126194196D01*
X158191872Y-126215281D01*
X158191870Y-126215282D01*
X158071782Y-126276470D01*
X157976470Y-126371782D01*
X157915282Y-126491870D01*
X157915281Y-126491872D01*
X157894196Y-126624999D01*
X154325644Y-126624999D01*
X154298528Y-126571780D01*
X154203220Y-126476472D01*
X154203217Y-126476470D01*
X154083129Y-126415282D01*
X154083127Y-126415281D01*
X153950000Y-126394196D01*
X153816872Y-126415281D01*
X153816870Y-126415282D01*
X153696782Y-126476470D01*
X153601470Y-126571782D01*
X153540282Y-126691870D01*
X153540281Y-126691872D01*
X153519196Y-126824999D01*
X149976844Y-126824999D01*
X149959719Y-126716874D01*
X149898528Y-126596780D01*
X149803220Y-126501472D01*
X149803217Y-126501470D01*
X149683129Y-126440282D01*
X149683127Y-126440281D01*
X149550000Y-126419196D01*
X149416872Y-126440281D01*
X149416870Y-126440282D01*
X149296782Y-126501470D01*
X149296778Y-126501473D01*
X149229942Y-126568309D01*
X149175425Y-126596086D01*
X149114993Y-126586514D01*
X149080105Y-126551629D01*
X149078106Y-126553082D01*
X149073529Y-126546782D01*
X149073528Y-126546780D01*
X148978220Y-126451472D01*
X148978217Y-126451470D01*
X148858129Y-126390282D01*
X148858127Y-126390281D01*
X148725000Y-126369196D01*
X148591872Y-126390281D01*
X148591870Y-126390282D01*
X148471782Y-126451470D01*
X148376470Y-126546782D01*
X148315282Y-126666870D01*
X148315281Y-126666872D01*
X148294196Y-126799999D01*
X147672885Y-126799999D01*
X147659719Y-126716874D01*
X147598528Y-126596780D01*
X147503220Y-126501472D01*
X147503217Y-126501470D01*
X147383129Y-126440282D01*
X147383127Y-126440281D01*
X147250000Y-126419196D01*
X147116872Y-126440281D01*
X147116870Y-126440282D01*
X146996782Y-126501470D01*
X146901470Y-126596782D01*
X146840282Y-126716870D01*
X146840281Y-126716872D01*
X146819196Y-126849999D01*
X146176844Y-126849999D01*
X146159719Y-126741874D01*
X146098528Y-126621780D01*
X146003220Y-126526472D01*
X146003217Y-126526470D01*
X145883129Y-126465282D01*
X145883127Y-126465281D01*
X145750000Y-126444196D01*
X145616872Y-126465281D01*
X145616870Y-126465282D01*
X145496782Y-126526470D01*
X145401470Y-126621782D01*
X145340282Y-126741870D01*
X145340281Y-126741872D01*
X145319196Y-126874999D01*
X139018925Y-126874999D01*
X139009719Y-126816874D01*
X138948528Y-126696780D01*
X138853220Y-126601472D01*
X138853217Y-126601470D01*
X138733129Y-126540282D01*
X138733127Y-126540281D01*
X138600000Y-126519196D01*
X138466872Y-126540281D01*
X138466870Y-126540282D01*
X138346782Y-126601470D01*
X138251470Y-126696782D01*
X138190282Y-126816870D01*
X138190281Y-126816872D01*
X138169196Y-126949999D01*
X138169196Y-126950000D01*
X138190281Y-127083127D01*
X138190282Y-127083129D01*
X138251470Y-127203217D01*
X138251472Y-127203220D01*
X138314503Y-127266251D01*
X138342279Y-127320766D01*
X138332708Y-127381198D01*
X138289443Y-127424463D01*
X138244498Y-127435253D01*
X137943502Y-127435253D01*
X137808170Y-127462173D01*
X137808168Y-127462173D01*
X137680691Y-127514975D01*
X137680680Y-127514981D01*
X137565956Y-127591638D01*
X137468383Y-127689211D01*
X137391726Y-127803935D01*
X137391720Y-127803946D01*
X137338918Y-127931423D01*
X137338918Y-127931425D01*
X137311998Y-128066757D01*
X136227091Y-128066757D01*
X136071998Y-127543174D01*
X136070658Y-127538173D01*
X136066722Y-127521780D01*
X135894042Y-126802514D01*
X135892966Y-126797449D01*
X135791502Y-126249999D01*
X136569508Y-126249999D01*
X136569508Y-126250000D01*
X136589354Y-126375303D01*
X136589355Y-126375307D01*
X136622462Y-126440282D01*
X136646950Y-126488342D01*
X136736658Y-126578050D01*
X136849696Y-126635646D01*
X136975000Y-126655492D01*
X137100304Y-126635646D01*
X137213342Y-126578050D01*
X137303050Y-126488342D01*
X137360646Y-126375304D01*
X137380492Y-126250000D01*
X137372573Y-126199999D01*
X139344508Y-126199999D01*
X139344508Y-126200000D01*
X139364354Y-126325303D01*
X139364355Y-126325307D01*
X139397462Y-126390282D01*
X139421950Y-126438342D01*
X139511658Y-126528050D01*
X139624696Y-126585646D01*
X139750000Y-126605492D01*
X139875304Y-126585646D01*
X139988342Y-126528050D01*
X140078050Y-126438342D01*
X140135646Y-126325304D01*
X140155492Y-126200000D01*
X140135646Y-126074696D01*
X140078050Y-125961658D01*
X139988342Y-125871950D01*
X139973434Y-125864354D01*
X139875307Y-125814355D01*
X139875304Y-125814354D01*
X139750000Y-125794508D01*
X139624696Y-125814354D01*
X139624692Y-125814355D01*
X139511659Y-125871949D01*
X139421949Y-125961659D01*
X139364355Y-126074692D01*
X139364354Y-126074696D01*
X139344508Y-126199999D01*
X137372573Y-126199999D01*
X137360646Y-126124696D01*
X137303050Y-126011658D01*
X137213342Y-125921950D01*
X137176249Y-125903050D01*
X137100307Y-125864355D01*
X137100304Y-125864354D01*
X136975000Y-125844508D01*
X136849696Y-125864354D01*
X136849692Y-125864355D01*
X136736659Y-125921949D01*
X136646949Y-126011659D01*
X136589355Y-126124692D01*
X136589354Y-126124696D01*
X136569508Y-126249999D01*
X135791502Y-126249999D01*
X135755099Y-126053589D01*
X135754290Y-126048477D01*
X135751006Y-126023529D01*
X135691956Y-125574999D01*
X141294508Y-125574999D01*
X141294508Y-125575000D01*
X141314354Y-125700303D01*
X141314355Y-125700307D01*
X141369292Y-125808126D01*
X141371950Y-125813342D01*
X141461658Y-125903050D01*
X141574696Y-125960646D01*
X141700000Y-125980492D01*
X141825304Y-125960646D01*
X141938342Y-125903050D01*
X142028050Y-125813342D01*
X142085646Y-125700304D01*
X142089654Y-125674999D01*
X161344196Y-125674999D01*
X161344196Y-125675000D01*
X161365281Y-125808127D01*
X161365282Y-125808129D01*
X161423277Y-125921950D01*
X161426472Y-125928220D01*
X161521780Y-126023528D01*
X161641874Y-126084719D01*
X161775000Y-126105804D01*
X161908126Y-126084719D01*
X162028220Y-126023528D01*
X162123528Y-125928220D01*
X162184719Y-125808126D01*
X162205804Y-125675000D01*
X162184719Y-125541874D01*
X162123528Y-125421780D01*
X162028220Y-125326472D01*
X162028217Y-125326470D01*
X161908129Y-125265282D01*
X161908127Y-125265281D01*
X161775000Y-125244196D01*
X161641872Y-125265281D01*
X161641870Y-125265282D01*
X161521782Y-125326470D01*
X161426470Y-125421782D01*
X161365282Y-125541870D01*
X161365281Y-125541872D01*
X161344196Y-125674999D01*
X142089654Y-125674999D01*
X142105492Y-125575000D01*
X142085646Y-125449696D01*
X142028050Y-125336658D01*
X141938342Y-125246950D01*
X141932937Y-125244196D01*
X141825307Y-125189355D01*
X141825304Y-125189354D01*
X141700000Y-125169508D01*
X141574696Y-125189354D01*
X141574692Y-125189355D01*
X141461659Y-125246949D01*
X141371949Y-125336659D01*
X141314355Y-125449692D01*
X141314354Y-125449696D01*
X141294508Y-125574999D01*
X135691956Y-125574999D01*
X135655538Y-125298378D01*
X135655003Y-125293288D01*
X135641758Y-125124999D01*
X158994508Y-125124999D01*
X158994508Y-125125000D01*
X159014354Y-125250303D01*
X159014355Y-125250307D01*
X159036239Y-125293256D01*
X159071950Y-125363342D01*
X159161658Y-125453050D01*
X159274696Y-125510646D01*
X159400000Y-125530492D01*
X159525304Y-125510646D01*
X159638342Y-125453050D01*
X159728050Y-125363342D01*
X159785646Y-125250304D01*
X159805492Y-125125000D01*
X159785646Y-124999696D01*
X159728050Y-124886658D01*
X159638342Y-124796950D01*
X159634406Y-124794944D01*
X159525307Y-124739355D01*
X159525304Y-124739354D01*
X159400000Y-124719508D01*
X159274696Y-124739354D01*
X159274692Y-124739355D01*
X159161659Y-124796949D01*
X159071949Y-124886659D01*
X159014355Y-124999692D01*
X159014354Y-124999696D01*
X158994508Y-125124999D01*
X135641758Y-125124999D01*
X135595643Y-124539041D01*
X135595372Y-124533866D01*
X135588193Y-124259719D01*
X135575567Y-123777558D01*
X135575567Y-123774999D01*
X138194508Y-123774999D01*
X138194508Y-123775000D01*
X138214354Y-123900303D01*
X138214355Y-123900307D01*
X138242474Y-123955492D01*
X138271950Y-124013342D01*
X138361658Y-124103050D01*
X138474696Y-124160646D01*
X138600000Y-124180492D01*
X138725304Y-124160646D01*
X138838342Y-124103050D01*
X138928050Y-124013342D01*
X138985646Y-123900304D01*
X138993613Y-123850001D01*
X150769196Y-123850001D01*
X150769196Y-123850002D01*
X150790281Y-123983129D01*
X150790282Y-123983131D01*
X150851384Y-124103050D01*
X150851472Y-124103222D01*
X150946780Y-124198530D01*
X151066874Y-124259721D01*
X151200000Y-124280806D01*
X151333126Y-124259721D01*
X151453220Y-124198530D01*
X151544271Y-124107478D01*
X151598785Y-124079702D01*
X151659217Y-124089272D01*
X151714351Y-124117365D01*
X151847477Y-124138450D01*
X151980603Y-124117365D01*
X152100697Y-124056174D01*
X152196005Y-123960866D01*
X152257196Y-123840772D01*
X152278281Y-123707646D01*
X152257196Y-123574520D01*
X152244702Y-123550000D01*
X163144508Y-123550000D01*
X163160297Y-123649692D01*
X163164354Y-123675303D01*
X163164355Y-123675307D01*
X163180833Y-123707646D01*
X163221950Y-123788342D01*
X163311658Y-123878050D01*
X163424696Y-123935646D01*
X163550000Y-123955492D01*
X163675304Y-123935646D01*
X163788342Y-123878050D01*
X163878050Y-123788342D01*
X163935646Y-123675304D01*
X163955492Y-123550000D01*
X163955051Y-123547218D01*
X163945360Y-123486028D01*
X163935646Y-123424696D01*
X163878050Y-123311658D01*
X163788342Y-123221950D01*
X163784406Y-123219944D01*
X163675307Y-123164355D01*
X163675304Y-123164354D01*
X163550000Y-123144508D01*
X163424696Y-123164354D01*
X163424692Y-123164355D01*
X163311659Y-123221949D01*
X163221949Y-123311659D01*
X163164355Y-123424692D01*
X163164354Y-123424696D01*
X163144949Y-123547218D01*
X163144508Y-123550000D01*
X152244702Y-123550000D01*
X152196005Y-123454426D01*
X152100697Y-123359118D01*
X152100694Y-123359116D01*
X151980606Y-123297928D01*
X151980604Y-123297927D01*
X151847477Y-123276842D01*
X151714349Y-123297927D01*
X151714347Y-123297928D01*
X151594259Y-123359116D01*
X151594255Y-123359119D01*
X151503206Y-123450168D01*
X151448690Y-123477945D01*
X151388258Y-123468374D01*
X151352526Y-123450168D01*
X151333126Y-123440283D01*
X151200000Y-123419198D01*
X151066872Y-123440283D01*
X151066870Y-123440284D01*
X150946782Y-123501472D01*
X150851470Y-123596784D01*
X150790282Y-123716872D01*
X150790281Y-123716874D01*
X150769196Y-123850001D01*
X138993613Y-123850001D01*
X139005492Y-123775000D01*
X139005081Y-123772408D01*
X138996286Y-123716876D01*
X138985646Y-123649696D01*
X138928050Y-123536658D01*
X138838342Y-123446950D01*
X138825257Y-123440283D01*
X138725307Y-123389355D01*
X138725304Y-123389354D01*
X138600000Y-123369508D01*
X138474696Y-123389354D01*
X138474692Y-123389355D01*
X138361659Y-123446949D01*
X138271949Y-123536659D01*
X138214355Y-123649692D01*
X138214354Y-123649696D01*
X138194508Y-123774999D01*
X135575567Y-123774999D01*
X135575567Y-123772441D01*
X135592194Y-123137499D01*
X145581696Y-123137499D01*
X145581696Y-123137500D01*
X145602781Y-123270627D01*
X145602782Y-123270629D01*
X145663276Y-123389354D01*
X145663972Y-123390720D01*
X145759280Y-123486028D01*
X145879374Y-123547219D01*
X146012500Y-123568304D01*
X146145626Y-123547219D01*
X146265720Y-123486028D01*
X146361028Y-123390720D01*
X146422219Y-123270626D01*
X146443304Y-123137500D01*
X146442863Y-123134718D01*
X146423670Y-123013538D01*
X146422219Y-123004374D01*
X146361028Y-122884280D01*
X146265720Y-122788972D01*
X146265717Y-122788970D01*
X146145629Y-122727782D01*
X146145627Y-122727781D01*
X146012500Y-122706696D01*
X145879372Y-122727781D01*
X145879370Y-122727782D01*
X145759282Y-122788970D01*
X145663970Y-122884282D01*
X145602782Y-123004370D01*
X145602781Y-123004372D01*
X145581696Y-123137499D01*
X135592194Y-123137499D01*
X135595372Y-123016131D01*
X135595643Y-123010958D01*
X135596161Y-123004372D01*
X135655003Y-122256707D01*
X135655538Y-122251625D01*
X135672208Y-122124999D01*
X136519508Y-122124999D01*
X136519508Y-122125000D01*
X136539354Y-122250303D01*
X136539355Y-122250307D01*
X136572462Y-122315282D01*
X136596950Y-122363342D01*
X136686658Y-122453050D01*
X136799696Y-122510646D01*
X136925000Y-122530492D01*
X137050304Y-122510646D01*
X137163342Y-122453050D01*
X137253050Y-122363342D01*
X137310646Y-122250304D01*
X137310694Y-122250000D01*
X139669508Y-122250000D01*
X139687459Y-122363342D01*
X139689354Y-122375303D01*
X139689355Y-122375307D01*
X139701937Y-122400000D01*
X139746950Y-122488342D01*
X139836658Y-122578050D01*
X139949696Y-122635646D01*
X140075000Y-122655492D01*
X140200304Y-122635646D01*
X140270265Y-122599999D01*
X141419508Y-122599999D01*
X141419508Y-122600000D01*
X141439354Y-122725303D01*
X141439355Y-122725307D01*
X141482365Y-122809717D01*
X141496950Y-122838342D01*
X141586658Y-122928050D01*
X141699696Y-122985646D01*
X141825000Y-123005492D01*
X141950304Y-122985646D01*
X142063342Y-122928050D01*
X142153050Y-122838342D01*
X142210646Y-122725304D01*
X142230492Y-122600000D01*
X142210646Y-122474696D01*
X142153050Y-122361658D01*
X142141391Y-122349999D01*
X152969196Y-122349999D01*
X152969196Y-122350000D01*
X152990281Y-122483127D01*
X152990282Y-122483129D01*
X153049831Y-122600000D01*
X153051472Y-122603220D01*
X153146780Y-122698528D01*
X153266874Y-122759719D01*
X153400000Y-122780804D01*
X153533126Y-122759719D01*
X153653220Y-122698528D01*
X153748528Y-122603220D01*
X153809719Y-122483126D01*
X153822885Y-122399999D01*
X154069196Y-122399999D01*
X154069196Y-122400000D01*
X154090281Y-122533127D01*
X154090282Y-122533129D01*
X154151470Y-122653217D01*
X154151472Y-122653220D01*
X154246780Y-122748528D01*
X154366874Y-122809719D01*
X154500000Y-122830804D01*
X154633126Y-122809719D01*
X154753220Y-122748528D01*
X154776749Y-122724999D01*
X159569196Y-122724999D01*
X159569196Y-122725000D01*
X159590281Y-122858127D01*
X159590282Y-122858129D01*
X159603607Y-122884280D01*
X159651472Y-122978220D01*
X159746780Y-123073528D01*
X159866874Y-123134719D01*
X160000000Y-123155804D01*
X160133126Y-123134719D01*
X160253220Y-123073528D01*
X160348528Y-122978220D01*
X160409719Y-122858126D01*
X160430804Y-122725000D01*
X160409719Y-122591874D01*
X160348528Y-122471780D01*
X160253220Y-122376472D01*
X160253217Y-122376470D01*
X160133129Y-122315282D01*
X160133127Y-122315281D01*
X160000000Y-122294196D01*
X159866872Y-122315281D01*
X159866870Y-122315282D01*
X159746782Y-122376470D01*
X159651470Y-122471782D01*
X159590282Y-122591870D01*
X159590281Y-122591872D01*
X159569196Y-122724999D01*
X154776749Y-122724999D01*
X154848528Y-122653220D01*
X154909719Y-122533126D01*
X154930804Y-122400000D01*
X154909719Y-122266874D01*
X154848528Y-122146780D01*
X154753220Y-122051472D01*
X154753217Y-122051470D01*
X154633129Y-121990282D01*
X154633127Y-121990281D01*
X154500000Y-121969196D01*
X154366872Y-121990281D01*
X154366870Y-121990282D01*
X154246782Y-122051470D01*
X154151470Y-122146782D01*
X154090282Y-122266870D01*
X154090281Y-122266872D01*
X154069196Y-122399999D01*
X153822885Y-122399999D01*
X153830804Y-122350000D01*
X153809719Y-122216874D01*
X153748528Y-122096780D01*
X153653220Y-122001472D01*
X153653217Y-122001470D01*
X153533129Y-121940282D01*
X153533127Y-121940281D01*
X153400000Y-121919196D01*
X153266872Y-121940281D01*
X153266870Y-121940282D01*
X153146782Y-122001470D01*
X153051470Y-122096782D01*
X152990282Y-122216870D01*
X152990281Y-122216872D01*
X152969196Y-122349999D01*
X142141391Y-122349999D01*
X142063342Y-122271950D01*
X142033497Y-122256743D01*
X141950307Y-122214355D01*
X141950304Y-122214354D01*
X141825000Y-122194508D01*
X141699696Y-122214354D01*
X141699692Y-122214355D01*
X141586659Y-122271949D01*
X141496949Y-122361659D01*
X141439355Y-122474692D01*
X141439354Y-122474696D01*
X141419508Y-122599999D01*
X140270265Y-122599999D01*
X140313342Y-122578050D01*
X140403050Y-122488342D01*
X140460646Y-122375304D01*
X140480492Y-122250000D01*
X140460646Y-122124696D01*
X140403050Y-122011658D01*
X140313342Y-121921950D01*
X140244078Y-121886658D01*
X140200307Y-121864355D01*
X140200304Y-121864354D01*
X140075000Y-121844508D01*
X139949696Y-121864354D01*
X139949692Y-121864355D01*
X139836659Y-121921949D01*
X139746949Y-122011659D01*
X139689355Y-122124692D01*
X139689354Y-122124696D01*
X139674755Y-122216874D01*
X139669508Y-122250000D01*
X137310694Y-122250000D01*
X137330492Y-122125000D01*
X137310646Y-121999696D01*
X137253050Y-121886658D01*
X137163342Y-121796950D01*
X137159406Y-121794944D01*
X137050307Y-121739355D01*
X137050304Y-121739354D01*
X136925000Y-121719508D01*
X136799696Y-121739354D01*
X136799692Y-121739355D01*
X136686659Y-121796949D01*
X136596949Y-121886659D01*
X136539355Y-121999692D01*
X136539354Y-121999696D01*
X136519508Y-122124999D01*
X135672208Y-122124999D01*
X135754291Y-121501510D01*
X135755101Y-121496403D01*
X135772372Y-121403220D01*
X135892968Y-120752537D01*
X135894043Y-120747480D01*
X135895771Y-120740282D01*
X136070662Y-120011810D01*
X136072000Y-120006819D01*
X136072026Y-120006734D01*
X136243824Y-119426751D01*
X137311998Y-119426751D01*
X137311998Y-119564742D01*
X137329944Y-119654963D01*
X137338720Y-119699082D01*
X137338918Y-119700074D01*
X137338918Y-119700076D01*
X137391720Y-119827553D01*
X137391726Y-119827564D01*
X137468383Y-119942288D01*
X137565956Y-120039861D01*
X137680680Y-120116518D01*
X137680691Y-120116524D01*
X137697601Y-120123528D01*
X137808170Y-120169327D01*
X137943505Y-120196247D01*
X137943506Y-120196247D01*
X138290148Y-120196247D01*
X138348339Y-120215154D01*
X138384303Y-120264654D01*
X138384303Y-120325840D01*
X138351843Y-120370516D01*
X138352290Y-120370963D01*
X138349470Y-120373782D01*
X138348339Y-120375340D01*
X138348338Y-120375340D01*
X138346783Y-120376469D01*
X138251470Y-120471782D01*
X138190282Y-120591870D01*
X138190281Y-120591872D01*
X138169196Y-120724999D01*
X138169196Y-120725000D01*
X138190281Y-120858127D01*
X138190282Y-120858129D01*
X138243890Y-120963340D01*
X138251472Y-120978220D01*
X138346780Y-121073528D01*
X138466874Y-121134719D01*
X138600000Y-121155804D01*
X138636651Y-121149999D01*
X144269196Y-121149999D01*
X144269196Y-121150000D01*
X144290281Y-121283127D01*
X144290282Y-121283129D01*
X144351470Y-121403217D01*
X144351472Y-121403220D01*
X144446780Y-121498528D01*
X144566874Y-121559719D01*
X144700000Y-121580804D01*
X144833126Y-121559719D01*
X144953220Y-121498528D01*
X145048528Y-121403220D01*
X145109719Y-121283126D01*
X145130804Y-121150000D01*
X145109719Y-121016874D01*
X145048528Y-120896780D01*
X144953220Y-120801472D01*
X144953217Y-120801470D01*
X144833129Y-120740282D01*
X144833127Y-120740281D01*
X144700000Y-120719196D01*
X144566872Y-120740281D01*
X144566870Y-120740282D01*
X144446782Y-120801470D01*
X144351470Y-120896782D01*
X144290282Y-121016870D01*
X144290281Y-121016872D01*
X144269196Y-121149999D01*
X138636651Y-121149999D01*
X138733126Y-121134719D01*
X138853220Y-121073528D01*
X138948528Y-120978220D01*
X139009719Y-120858126D01*
X139030804Y-120725000D01*
X139009719Y-120591874D01*
X139002417Y-120577544D01*
X138948529Y-120471782D01*
X138948528Y-120471780D01*
X138853220Y-120376472D01*
X138853217Y-120376470D01*
X138853216Y-120376469D01*
X138851662Y-120375340D01*
X138850532Y-120373785D01*
X138847710Y-120370963D01*
X138848157Y-120370515D01*
X138815698Y-120325840D01*
X138815697Y-120286544D01*
X145869201Y-120286544D01*
X145869201Y-120433459D01*
X145897861Y-120577543D01*
X145897861Y-120577545D01*
X145954079Y-120713268D01*
X145954079Y-120713269D01*
X145972129Y-120740282D01*
X146035700Y-120835422D01*
X146139581Y-120939303D01*
X146261732Y-121020922D01*
X146397459Y-121077142D01*
X146541546Y-121105802D01*
X146541548Y-121105802D01*
X146688454Y-121105802D01*
X146688456Y-121105802D01*
X146832543Y-121077142D01*
X146968270Y-121020922D01*
X147090421Y-120939303D01*
X147194302Y-120835422D01*
X147268084Y-120725000D01*
X163119508Y-120725000D01*
X163136997Y-120835425D01*
X163139354Y-120850303D01*
X163139355Y-120850307D01*
X163143340Y-120858127D01*
X163196950Y-120963342D01*
X163286658Y-121053050D01*
X163399696Y-121110646D01*
X163525000Y-121130492D01*
X163650304Y-121110646D01*
X163763342Y-121053050D01*
X163853050Y-120963342D01*
X163910646Y-120850304D01*
X163930492Y-120725000D01*
X163910646Y-120599696D01*
X163853050Y-120486658D01*
X163763342Y-120396950D01*
X163723146Y-120376469D01*
X163650307Y-120339355D01*
X163650304Y-120339354D01*
X163525000Y-120319508D01*
X163399696Y-120339354D01*
X163399692Y-120339355D01*
X163286659Y-120396949D01*
X163196949Y-120486659D01*
X163139355Y-120599692D01*
X163139354Y-120599696D01*
X163119508Y-120725000D01*
X147268084Y-120725000D01*
X147275921Y-120713271D01*
X147332141Y-120577544D01*
X147360801Y-120433457D01*
X147360801Y-120299999D01*
X147869508Y-120299999D01*
X147869508Y-120300000D01*
X147889354Y-120425303D01*
X147889355Y-120425307D01*
X147920616Y-120486659D01*
X147946950Y-120538342D01*
X148036658Y-120628050D01*
X148149696Y-120685646D01*
X148275000Y-120705492D01*
X148400304Y-120685646D01*
X148513342Y-120628050D01*
X148603050Y-120538342D01*
X148660646Y-120425304D01*
X148680492Y-120300000D01*
X148660646Y-120174696D01*
X148603050Y-120061658D01*
X148513342Y-119971950D01*
X148509406Y-119969944D01*
X148400307Y-119914355D01*
X148400304Y-119914354D01*
X148275000Y-119894508D01*
X148149696Y-119914354D01*
X148149692Y-119914355D01*
X148036659Y-119971949D01*
X147946949Y-120061659D01*
X147889355Y-120174692D01*
X147889354Y-120174696D01*
X147869508Y-120299999D01*
X147360801Y-120299999D01*
X147360801Y-120286547D01*
X147332141Y-120142460D01*
X147298672Y-120061658D01*
X147275922Y-120006735D01*
X147275922Y-120006734D01*
X147232861Y-119942290D01*
X147194302Y-119884582D01*
X147159719Y-119849999D01*
X152169196Y-119849999D01*
X152169196Y-119850000D01*
X152190281Y-119983127D01*
X152190282Y-119983129D01*
X152251470Y-120103217D01*
X152251472Y-120103220D01*
X152346780Y-120198528D01*
X152466874Y-120259719D01*
X152600000Y-120280804D01*
X152733126Y-120259719D01*
X152853220Y-120198528D01*
X152948528Y-120103220D01*
X153009719Y-119983126D01*
X153030804Y-119850000D01*
X153018925Y-119774999D01*
X161719196Y-119774999D01*
X161719196Y-119775000D01*
X161740281Y-119908127D01*
X161740282Y-119908129D01*
X161801470Y-120028217D01*
X161801472Y-120028220D01*
X161896780Y-120123528D01*
X161896782Y-120123529D01*
X161986665Y-120169327D01*
X162016874Y-120184719D01*
X162150000Y-120205804D01*
X162283126Y-120184719D01*
X162403220Y-120123528D01*
X162498528Y-120028220D01*
X162559719Y-119908126D01*
X162580804Y-119775000D01*
X162559719Y-119641874D01*
X162498528Y-119521780D01*
X162403220Y-119426472D01*
X162403217Y-119426470D01*
X162283129Y-119365282D01*
X162283127Y-119365281D01*
X162150000Y-119344196D01*
X162016872Y-119365281D01*
X162016870Y-119365282D01*
X161896782Y-119426470D01*
X161801470Y-119521782D01*
X161740282Y-119641870D01*
X161740281Y-119641872D01*
X161719196Y-119774999D01*
X153018925Y-119774999D01*
X153009719Y-119716874D01*
X153001160Y-119700077D01*
X152948529Y-119596782D01*
X152948528Y-119596780D01*
X152853220Y-119501472D01*
X152853217Y-119501470D01*
X152733129Y-119440282D01*
X152733127Y-119440281D01*
X152600000Y-119419196D01*
X152466872Y-119440281D01*
X152466870Y-119440282D01*
X152346782Y-119501470D01*
X152251470Y-119596782D01*
X152190282Y-119716870D01*
X152190281Y-119716872D01*
X152169196Y-119849999D01*
X147159719Y-119849999D01*
X147090421Y-119780701D01*
X146968270Y-119699082D01*
X146968269Y-119699081D01*
X146968267Y-119699080D01*
X146832543Y-119642862D01*
X146688458Y-119614202D01*
X146688456Y-119614202D01*
X146541546Y-119614202D01*
X146541543Y-119614202D01*
X146397459Y-119642862D01*
X146397457Y-119642862D01*
X146261734Y-119699080D01*
X146261733Y-119699080D01*
X146139581Y-119780701D01*
X146139577Y-119780704D01*
X146035703Y-119884578D01*
X146035700Y-119884582D01*
X145954079Y-120006734D01*
X145954079Y-120006735D01*
X145897861Y-120142458D01*
X145897861Y-120142460D01*
X145869201Y-120286544D01*
X138815697Y-120286544D01*
X138815697Y-120264655D01*
X138851661Y-120215155D01*
X138909851Y-120196247D01*
X139281490Y-120196247D01*
X139281491Y-120196247D01*
X139416826Y-120169327D01*
X139544309Y-120116522D01*
X139659040Y-120039861D01*
X139756612Y-119942289D01*
X139833273Y-119827558D01*
X139886078Y-119700075D01*
X139912998Y-119564740D01*
X139912998Y-119426754D01*
X139912998Y-119426752D01*
X141511999Y-119426752D01*
X141511999Y-119564743D01*
X141538919Y-119700075D01*
X141538919Y-119700077D01*
X141591721Y-119827554D01*
X141591727Y-119827565D01*
X141668384Y-119942289D01*
X141765957Y-120039862D01*
X141880681Y-120116519D01*
X141880692Y-120116525D01*
X141897602Y-120123529D01*
X142008171Y-120169328D01*
X142143506Y-120196248D01*
X142143507Y-120196248D01*
X143081491Y-120196248D01*
X143081492Y-120196248D01*
X143216827Y-120169328D01*
X143344310Y-120116523D01*
X143459041Y-120039862D01*
X143556613Y-119942290D01*
X143633274Y-119827559D01*
X143686079Y-119700076D01*
X143712999Y-119564741D01*
X143712999Y-119426755D01*
X143686079Y-119291420D01*
X143657957Y-119223528D01*
X143633276Y-119163941D01*
X143633270Y-119163930D01*
X143556613Y-119049206D01*
X143459040Y-118951633D01*
X143344350Y-118874999D01*
X148144196Y-118874999D01*
X148144196Y-118875000D01*
X148165281Y-119008127D01*
X148165282Y-119008129D01*
X148186212Y-119049206D01*
X148226472Y-119128220D01*
X148321780Y-119223528D01*
X148441874Y-119284719D01*
X148575000Y-119305804D01*
X148708126Y-119284719D01*
X148828220Y-119223528D01*
X148923528Y-119128220D01*
X148984719Y-119008126D01*
X149005804Y-118875000D01*
X148984719Y-118741874D01*
X148923528Y-118621780D01*
X148828220Y-118526472D01*
X148828217Y-118526470D01*
X148708129Y-118465282D01*
X148708128Y-118465281D01*
X148701553Y-118464240D01*
X148647037Y-118436460D01*
X148619261Y-118381943D01*
X148628835Y-118321511D01*
X148672101Y-118278248D01*
X148701553Y-118268679D01*
X148758126Y-118259719D01*
X148878220Y-118198528D01*
X148973528Y-118103220D01*
X149034719Y-117983126D01*
X149055804Y-117850000D01*
X149034719Y-117716874D01*
X148973528Y-117596780D01*
X148878220Y-117501472D01*
X148878217Y-117501470D01*
X148758129Y-117440282D01*
X148758127Y-117440281D01*
X148625000Y-117419196D01*
X148491872Y-117440281D01*
X148491870Y-117440282D01*
X148371782Y-117501470D01*
X148276470Y-117596782D01*
X148215282Y-117716870D01*
X148215281Y-117716872D01*
X148194196Y-117849999D01*
X148194196Y-117850000D01*
X148215281Y-117983127D01*
X148215282Y-117983129D01*
X148276470Y-118103217D01*
X148276472Y-118103220D01*
X148371780Y-118198528D01*
X148371782Y-118198529D01*
X148491870Y-118259717D01*
X148491871Y-118259717D01*
X148491874Y-118259719D01*
X148498444Y-118260759D01*
X148552958Y-118288535D01*
X148580737Y-118343051D01*
X148571167Y-118403483D01*
X148527903Y-118446749D01*
X148498444Y-118456321D01*
X148441872Y-118465281D01*
X148441870Y-118465282D01*
X148321782Y-118526470D01*
X148226470Y-118621782D01*
X148165282Y-118741870D01*
X148165281Y-118741872D01*
X148144196Y-118874999D01*
X143344350Y-118874999D01*
X143344316Y-118874976D01*
X143344305Y-118874970D01*
X143216827Y-118822168D01*
X143081494Y-118795248D01*
X143081492Y-118795248D01*
X142143506Y-118795248D01*
X142143503Y-118795248D01*
X142008171Y-118822168D01*
X142008169Y-118822168D01*
X141880692Y-118874970D01*
X141880681Y-118874976D01*
X141765957Y-118951633D01*
X141668384Y-119049206D01*
X141591727Y-119163930D01*
X141591721Y-119163941D01*
X141538919Y-119291418D01*
X141538919Y-119291420D01*
X141511999Y-119426752D01*
X139912998Y-119426752D01*
X139886078Y-119291419D01*
X139833273Y-119163936D01*
X139833272Y-119163934D01*
X139833269Y-119163929D01*
X139756612Y-119049205D01*
X139659039Y-118951632D01*
X139544315Y-118874975D01*
X139544304Y-118874969D01*
X139416826Y-118822167D01*
X139281493Y-118795247D01*
X139281491Y-118795247D01*
X137943505Y-118795247D01*
X137943502Y-118795247D01*
X137808170Y-118822167D01*
X137808168Y-118822167D01*
X137680691Y-118874969D01*
X137680680Y-118874975D01*
X137565956Y-118951632D01*
X137468383Y-119049205D01*
X137391726Y-119163929D01*
X137391720Y-119163940D01*
X137338918Y-119291417D01*
X137338918Y-119291419D01*
X137311998Y-119426751D01*
X136243824Y-119426751D01*
X136286872Y-119281424D01*
X136288471Y-119276505D01*
X136307231Y-119223529D01*
X136541012Y-118563354D01*
X136542860Y-118558540D01*
X136581489Y-118465281D01*
X136832386Y-117859559D01*
X136834467Y-117854883D01*
X136896419Y-117724999D01*
X137994196Y-117724999D01*
X137994196Y-117725000D01*
X138015281Y-117858127D01*
X138015282Y-117858129D01*
X138016023Y-117859583D01*
X138076472Y-117978220D01*
X138171780Y-118073528D01*
X138291874Y-118134719D01*
X138425000Y-118155804D01*
X138558126Y-118134719D01*
X138678220Y-118073528D01*
X138773528Y-117978220D01*
X138834719Y-117858126D01*
X138855804Y-117725000D01*
X138834719Y-117591874D01*
X138773528Y-117471780D01*
X138678220Y-117376472D01*
X138678217Y-117376470D01*
X138558129Y-117315282D01*
X138558127Y-117315281D01*
X138425000Y-117294196D01*
X138291872Y-117315281D01*
X138291870Y-117315282D01*
X138171782Y-117376470D01*
X138076470Y-117471782D01*
X138015282Y-117591870D01*
X138015281Y-117591872D01*
X137994196Y-117724999D01*
X136896419Y-117724999D01*
X137160190Y-117171993D01*
X137162538Y-117167386D01*
X137170322Y-117153050D01*
X137348439Y-116824999D01*
X141119508Y-116824999D01*
X141119508Y-116825000D01*
X141139354Y-116950303D01*
X141139355Y-116950307D01*
X141179053Y-117028217D01*
X141196950Y-117063342D01*
X141286658Y-117153050D01*
X141399696Y-117210646D01*
X141525000Y-117230492D01*
X141650304Y-117210646D01*
X141763342Y-117153050D01*
X141853050Y-117063342D01*
X141910646Y-116950304D01*
X141930492Y-116825000D01*
X141922573Y-116774999D01*
X144494196Y-116774999D01*
X144494196Y-116775000D01*
X144515281Y-116908127D01*
X144515282Y-116908129D01*
X144536773Y-116950307D01*
X144576472Y-117028220D01*
X144671780Y-117123528D01*
X144791874Y-117184719D01*
X144925000Y-117205804D01*
X145058126Y-117184719D01*
X145178220Y-117123528D01*
X145273528Y-117028220D01*
X145334719Y-116908126D01*
X145355804Y-116775000D01*
X145334719Y-116641874D01*
X145273528Y-116521780D01*
X145178220Y-116426472D01*
X145178217Y-116426470D01*
X145058129Y-116365282D01*
X145058127Y-116365281D01*
X144925000Y-116344196D01*
X144791872Y-116365281D01*
X144791870Y-116365282D01*
X144671782Y-116426470D01*
X144576470Y-116521782D01*
X144515282Y-116641870D01*
X144515281Y-116641872D01*
X144494196Y-116774999D01*
X141922573Y-116774999D01*
X141910646Y-116699696D01*
X141853050Y-116586658D01*
X141763342Y-116496950D01*
X141759406Y-116494944D01*
X141650307Y-116439355D01*
X141650304Y-116439354D01*
X141525000Y-116419508D01*
X141399696Y-116439354D01*
X141399692Y-116439355D01*
X141286659Y-116496949D01*
X141196949Y-116586659D01*
X141139355Y-116699692D01*
X141139354Y-116699696D01*
X141119508Y-116824999D01*
X137348439Y-116824999D01*
X137523552Y-116502480D01*
X137526103Y-116498062D01*
X137921413Y-115852976D01*
X137924208Y-115848670D01*
X138352770Y-115225108D01*
X138355762Y-115220990D01*
X138816355Y-114620735D01*
X138819582Y-114616750D01*
X138983352Y-114424999D01*
X140544196Y-114424999D01*
X140544196Y-114425000D01*
X140565281Y-114558127D01*
X140565282Y-114558129D01*
X140599355Y-114625000D01*
X140626472Y-114678220D01*
X140721780Y-114773528D01*
X140841874Y-114834719D01*
X140975000Y-114855804D01*
X141108126Y-114834719D01*
X141228220Y-114773528D01*
X141323528Y-114678220D01*
X141384719Y-114558126D01*
X141405804Y-114425000D01*
X141384719Y-114291874D01*
X141323528Y-114171780D01*
X141228220Y-114076472D01*
X141228217Y-114076470D01*
X141108129Y-114015282D01*
X141108127Y-114015281D01*
X140975000Y-113994196D01*
X140841872Y-114015281D01*
X140841870Y-114015282D01*
X140721782Y-114076470D01*
X140626470Y-114171782D01*
X140565282Y-114291870D01*
X140565281Y-114291872D01*
X140544196Y-114424999D01*
X138983352Y-114424999D01*
X139310930Y-114041454D01*
X139314395Y-114037607D01*
X139355591Y-113994196D01*
X139835183Y-113488811D01*
X139838811Y-113485183D01*
X140387611Y-112964391D01*
X140391459Y-112960927D01*
X140397823Y-112955492D01*
X140966750Y-112469582D01*
X140970735Y-112466355D01*
X140992051Y-112449999D01*
X142144508Y-112449999D01*
X142144508Y-112450000D01*
X142164354Y-112575303D01*
X142164355Y-112575307D01*
X142215306Y-112675303D01*
X142221950Y-112688342D01*
X142311658Y-112778050D01*
X142424696Y-112835646D01*
X142550000Y-112855492D01*
X142675304Y-112835646D01*
X142788342Y-112778050D01*
X142878050Y-112688342D01*
X142935646Y-112575304D01*
X142951532Y-112475000D01*
X144419508Y-112475000D01*
X144435394Y-112575304D01*
X144439354Y-112600303D01*
X144439355Y-112600307D01*
X144477570Y-112675307D01*
X144496950Y-112713342D01*
X144586658Y-112803050D01*
X144699696Y-112860646D01*
X144825000Y-112880492D01*
X144950304Y-112860646D01*
X145063342Y-112803050D01*
X145153050Y-112713342D01*
X145210646Y-112600304D01*
X145218613Y-112549999D01*
X146544508Y-112549999D01*
X146544508Y-112550000D01*
X146564354Y-112675303D01*
X146564355Y-112675307D01*
X146604426Y-112753949D01*
X146621950Y-112788342D01*
X146711658Y-112878050D01*
X146824696Y-112935646D01*
X146950000Y-112955492D01*
X147075304Y-112935646D01*
X147188342Y-112878050D01*
X147278050Y-112788342D01*
X147335646Y-112675304D01*
X147355492Y-112550000D01*
X147335646Y-112424696D01*
X147278050Y-112311658D01*
X147188342Y-112221950D01*
X147184406Y-112219944D01*
X147075307Y-112164355D01*
X147075304Y-112164354D01*
X146950000Y-112144508D01*
X146824696Y-112164354D01*
X146824692Y-112164355D01*
X146711659Y-112221949D01*
X146621949Y-112311659D01*
X146564355Y-112424692D01*
X146564354Y-112424696D01*
X146544508Y-112549999D01*
X145218613Y-112549999D01*
X145230492Y-112475000D01*
X145210646Y-112349696D01*
X145153050Y-112236658D01*
X145063342Y-112146950D01*
X145014275Y-112121949D01*
X144950307Y-112089355D01*
X144950304Y-112089354D01*
X144825000Y-112069508D01*
X144699696Y-112089354D01*
X144699692Y-112089355D01*
X144586659Y-112146949D01*
X144496949Y-112236659D01*
X144439355Y-112349692D01*
X144439354Y-112349696D01*
X144423468Y-112450000D01*
X144419508Y-112475000D01*
X142951532Y-112475000D01*
X142955492Y-112450000D01*
X142935646Y-112324696D01*
X142878050Y-112211658D01*
X142788342Y-112121950D01*
X142784406Y-112119944D01*
X142675307Y-112064355D01*
X142675304Y-112064354D01*
X142550000Y-112044508D01*
X142424696Y-112064354D01*
X142424692Y-112064355D01*
X142311659Y-112121949D01*
X142221949Y-112211659D01*
X142164355Y-112324692D01*
X142164354Y-112324696D01*
X142144508Y-112449999D01*
X140992051Y-112449999D01*
X141570979Y-112005771D01*
X141575127Y-112002757D01*
X141793300Y-111852810D01*
X141849212Y-111835400D01*
X148376425Y-111825154D01*
X148434643Y-111843970D01*
G37*
G04 #@! TD.AperFunction*
G04 #@! TA.AperFunction,Conductor*
G36*
X195608496Y-106985362D02*
G01*
X195614405Y-106985671D01*
X196367894Y-107044972D01*
X196373767Y-107045589D01*
X197123092Y-107144239D01*
X197128980Y-107145172D01*
X197872084Y-107282898D01*
X197877908Y-107284136D01*
X198612798Y-107460568D01*
X198618546Y-107462108D01*
X199343202Y-107676761D01*
X199348827Y-107678588D01*
X199848345Y-107855478D01*
X200061261Y-107930876D01*
X200066833Y-107933015D01*
X200765051Y-108222225D01*
X200770503Y-108224652D01*
X201452645Y-108550018D01*
X201457963Y-108552728D01*
X202122121Y-108913336D01*
X202127290Y-108916320D01*
X202771690Y-109311209D01*
X202776695Y-109314460D01*
X202795492Y-109327379D01*
X203399527Y-109742519D01*
X203404333Y-109746011D01*
X204003942Y-110206108D01*
X204008558Y-110209846D01*
X204583257Y-110700685D01*
X204587664Y-110704652D01*
X205135894Y-111224904D01*
X205140095Y-111229105D01*
X205660345Y-111777333D01*
X205664316Y-111781744D01*
X206004229Y-112179731D01*
X206151910Y-112352644D01*
X206178177Y-112411263D01*
X206168581Y-112474778D01*
X206126171Y-112523022D01*
X206064410Y-112540678D01*
X206027573Y-112534284D01*
X205968361Y-112513565D01*
X205914253Y-112494632D01*
X205735000Y-112474435D01*
X205734996Y-112474435D01*
X205555744Y-112494631D01*
X205385472Y-112554212D01*
X205385470Y-112554213D01*
X205232739Y-112650181D01*
X205210151Y-112672769D01*
X205153772Y-112703552D01*
X205089701Y-112698969D01*
X205038279Y-112660473D01*
X205015832Y-112600288D01*
X205016516Y-112577292D01*
X205035250Y-112435000D01*
X205016330Y-112291291D01*
X205012694Y-112282512D01*
X204960863Y-112157379D01*
X204960860Y-112157373D01*
X204872621Y-112042378D01*
X204757626Y-111954139D01*
X204757620Y-111954136D01*
X204623716Y-111898672D01*
X204623711Y-111898671D01*
X204623709Y-111898670D01*
X204480000Y-111879750D01*
X204336291Y-111898670D01*
X204336288Y-111898670D01*
X204336288Y-111898671D01*
X204336283Y-111898672D01*
X204202379Y-111954136D01*
X204202373Y-111954139D01*
X204087378Y-112042378D01*
X203999139Y-112157373D01*
X203999136Y-112157379D01*
X203943672Y-112291283D01*
X203943671Y-112291288D01*
X203943670Y-112291291D01*
X203924750Y-112435000D01*
X203943670Y-112578709D01*
X203943671Y-112578711D01*
X203943672Y-112578716D01*
X203999136Y-112712620D01*
X203999139Y-112712626D01*
X204087378Y-112827621D01*
X204202373Y-112915860D01*
X204202379Y-112915863D01*
X204336283Y-112971327D01*
X204336284Y-112971327D01*
X204336291Y-112971330D01*
X204480000Y-112990250D01*
X204623709Y-112971330D01*
X204757625Y-112915861D01*
X204805301Y-112879278D01*
X204865215Y-112856115D01*
X204928140Y-112869021D01*
X204974098Y-112913899D01*
X204988498Y-112976499D01*
X204982303Y-113007372D01*
X204949629Y-113100746D01*
X204929433Y-113279998D01*
X204929433Y-113280001D01*
X204949629Y-113459253D01*
X205009210Y-113629525D01*
X205046234Y-113688448D01*
X205063701Y-113750262D01*
X205044976Y-113811707D01*
X205030318Y-113829708D01*
X204982794Y-113877232D01*
X204982793Y-113877234D01*
X204937413Y-113980009D01*
X204937412Y-113980013D01*
X204934498Y-114005130D01*
X204934498Y-115094860D01*
X204934499Y-115094867D01*
X204937413Y-115119993D01*
X204937414Y-115119997D01*
X204982790Y-115222763D01*
X204982794Y-115222769D01*
X205062229Y-115302204D01*
X205062231Y-115302205D01*
X205062233Y-115302207D01*
X205165007Y-115347586D01*
X205190133Y-115350501D01*
X206279862Y-115350500D01*
X206304989Y-115347586D01*
X206322064Y-115340047D01*
X206345091Y-115329878D01*
X206407763Y-115302207D01*
X206487204Y-115222766D01*
X206532583Y-115119992D01*
X206535498Y-115094866D01*
X206535497Y-114005137D01*
X206532583Y-113980010D01*
X206532581Y-113980007D01*
X206532581Y-113980004D01*
X206487205Y-113877238D01*
X206487201Y-113877232D01*
X206439678Y-113829709D01*
X206408893Y-113773331D01*
X206413476Y-113709260D01*
X206423762Y-113688447D01*
X206460784Y-113629527D01*
X206460785Y-113629525D01*
X206460784Y-113629525D01*
X206460787Y-113629522D01*
X206520366Y-113459255D01*
X206540563Y-113280000D01*
X206533170Y-113214385D01*
X206544252Y-113151115D01*
X206587783Y-113103879D01*
X206649940Y-113087675D01*
X206710991Y-113107649D01*
X206740403Y-113137052D01*
X207050539Y-113588304D01*
X207053790Y-113593309D01*
X207448679Y-114237709D01*
X207451663Y-114242878D01*
X207812271Y-114907036D01*
X207814981Y-114912354D01*
X208140347Y-115594496D01*
X208142774Y-115599948D01*
X208431984Y-116298166D01*
X208434123Y-116303738D01*
X208686402Y-117016147D01*
X208688245Y-117021821D01*
X208695094Y-117044943D01*
X208902888Y-117746444D01*
X208904433Y-117752209D01*
X209080861Y-118487084D01*
X209082102Y-118492922D01*
X209219826Y-119236015D01*
X209220760Y-119241910D01*
X209319406Y-119991201D01*
X209320030Y-119997137D01*
X209379326Y-120750568D01*
X209379638Y-120756528D01*
X209391723Y-121218046D01*
X209375245Y-121280132D01*
X209327818Y-121323453D01*
X209264497Y-121334256D01*
X209205389Y-121309110D01*
X209174971Y-121265563D01*
X209173564Y-121266241D01*
X209170785Y-121260470D01*
X209074817Y-121107739D01*
X209074813Y-121107734D01*
X208947262Y-120980183D01*
X208947257Y-120980179D01*
X208794526Y-120884211D01*
X208794524Y-120884210D01*
X208624252Y-120824629D01*
X208445001Y-120804433D01*
X208444997Y-120804433D01*
X208361614Y-120813828D01*
X208298342Y-120802746D01*
X208251106Y-120759215D01*
X208234903Y-120697057D01*
X208254878Y-120636007D01*
X208287218Y-120604642D01*
X208297819Y-120597828D01*
X208361128Y-120557143D01*
X208455377Y-120448373D01*
X208515165Y-120317457D01*
X208535647Y-120175000D01*
X208515165Y-120032543D01*
X208455377Y-119901627D01*
X208361128Y-119792857D01*
X208361126Y-119792855D01*
X208240053Y-119715047D01*
X208240052Y-119715046D01*
X208101961Y-119674500D01*
X207958039Y-119674500D01*
X207819947Y-119715046D01*
X207819946Y-119715047D01*
X207698873Y-119792855D01*
X207698873Y-119792856D01*
X207604622Y-119901627D01*
X207544835Y-120032541D01*
X207524353Y-120175000D01*
X207544835Y-120317458D01*
X207604622Y-120448372D01*
X207604623Y-120448373D01*
X207698872Y-120557143D01*
X207698873Y-120557143D01*
X207698873Y-120557144D01*
X207742218Y-120585000D01*
X207819947Y-120634953D01*
X207958039Y-120675500D01*
X208031932Y-120675500D01*
X208093565Y-120693597D01*
X208135630Y-120742143D01*
X208144772Y-120805724D01*
X208118087Y-120864154D01*
X208092584Y-120886026D01*
X207942740Y-120980179D01*
X207942735Y-120980183D01*
X207815184Y-121107734D01*
X207815180Y-121107739D01*
X207719212Y-121260470D01*
X207719211Y-121260472D01*
X207659630Y-121430744D01*
X207639434Y-121609996D01*
X207639434Y-121609999D01*
X207659630Y-121789251D01*
X207719211Y-121959523D01*
X207756235Y-122018446D01*
X207773702Y-122080260D01*
X207754977Y-122141705D01*
X207740319Y-122159706D01*
X207692795Y-122207230D01*
X207692794Y-122207232D01*
X207647414Y-122310007D01*
X207647413Y-122310011D01*
X207644499Y-122335128D01*
X207644499Y-123424858D01*
X207644500Y-123424865D01*
X207647414Y-123449991D01*
X207647415Y-123449995D01*
X207692791Y-123552761D01*
X207692795Y-123552767D01*
X207772230Y-123632202D01*
X207772232Y-123632203D01*
X207772234Y-123632205D01*
X207875008Y-123677584D01*
X207900134Y-123680499D01*
X208989863Y-123680498D01*
X209014990Y-123677584D01*
X209063359Y-123656226D01*
X209127050Y-123647887D01*
X209185140Y-123675304D01*
X209219185Y-123729775D01*
X209222431Y-123775398D01*
X209220759Y-123788094D01*
X209219826Y-123793984D01*
X209082102Y-124537077D01*
X209080861Y-124542915D01*
X208904433Y-125277790D01*
X208902888Y-125283555D01*
X208688246Y-126008176D01*
X208686402Y-126013852D01*
X208434123Y-126726261D01*
X208431984Y-126731833D01*
X208142774Y-127430051D01*
X208140347Y-127435503D01*
X207814981Y-128117645D01*
X207812271Y-128122963D01*
X207451663Y-128787121D01*
X207448679Y-128792290D01*
X207053790Y-129436690D01*
X207050539Y-129441695D01*
X206622488Y-130064515D01*
X206618980Y-130069344D01*
X206158900Y-130668931D01*
X206155144Y-130673569D01*
X205664327Y-131248243D01*
X205660334Y-131252678D01*
X205140105Y-131800884D01*
X205135884Y-131805105D01*
X204587678Y-132325334D01*
X204583243Y-132329327D01*
X204008569Y-132820144D01*
X204003931Y-132823900D01*
X203404344Y-133283980D01*
X203399515Y-133287488D01*
X202776695Y-133715539D01*
X202771690Y-133718790D01*
X202127290Y-134113679D01*
X202122121Y-134116663D01*
X201457963Y-134477271D01*
X201452645Y-134479981D01*
X200770503Y-134805347D01*
X200765051Y-134807774D01*
X200066833Y-135096984D01*
X200061261Y-135099123D01*
X199348852Y-135351402D01*
X199343176Y-135353246D01*
X198618555Y-135567888D01*
X198612790Y-135569433D01*
X197877915Y-135745861D01*
X197872077Y-135747102D01*
X197128984Y-135884826D01*
X197123089Y-135885760D01*
X196725549Y-135938097D01*
X196662081Y-135928199D01*
X196614039Y-135885559D01*
X196596677Y-135823715D01*
X196615506Y-135762302D01*
X196620228Y-135755672D01*
X196624738Y-135749793D01*
X196624742Y-135749791D01*
X196708975Y-135640018D01*
X196761925Y-135512183D01*
X196779986Y-135375000D01*
X196761925Y-135237817D01*
X196761923Y-135237811D01*
X196708976Y-135109984D01*
X196708974Y-135109981D01*
X196624745Y-135000212D01*
X196624743Y-135000210D01*
X196624742Y-135000209D01*
X196514969Y-134915976D01*
X196387134Y-134863026D01*
X196249951Y-134844965D01*
X196112768Y-134863026D01*
X196112767Y-134863026D01*
X196112762Y-134863027D01*
X195984935Y-134915974D01*
X195984932Y-134915976D01*
X195875159Y-135000208D01*
X195790927Y-135109981D01*
X195790925Y-135109984D01*
X195737978Y-135237811D01*
X195737977Y-135237816D01*
X195737977Y-135237817D01*
X195719916Y-135375000D01*
X195737977Y-135512183D01*
X195790927Y-135640018D01*
X195875160Y-135749791D01*
X195911388Y-135777590D01*
X195963433Y-135817527D01*
X196001312Y-135869404D01*
X196005131Y-135933526D01*
X195973677Y-135989533D01*
X195916937Y-136019643D01*
X195902977Y-136021617D01*
X195614431Y-136044326D01*
X195608471Y-136044638D01*
X194852984Y-136064421D01*
X194847016Y-136064421D01*
X194091528Y-136044638D01*
X194085568Y-136044326D01*
X193332137Y-135985030D01*
X193326201Y-135984406D01*
X192576910Y-135885760D01*
X192571015Y-135884826D01*
X191827922Y-135747102D01*
X191822084Y-135745861D01*
X191087209Y-135569433D01*
X191081444Y-135567888D01*
X190356823Y-135353246D01*
X190351147Y-135351402D01*
X189638738Y-135099123D01*
X189633166Y-135096984D01*
X188934948Y-134807774D01*
X188929496Y-134805347D01*
X188394151Y-134550000D01*
X190124353Y-134550000D01*
X190144835Y-134692458D01*
X190204622Y-134823372D01*
X190204623Y-134823373D01*
X190298872Y-134932143D01*
X190298873Y-134932143D01*
X190298873Y-134932144D01*
X190359409Y-134971048D01*
X190419947Y-135009953D01*
X190558039Y-135050500D01*
X190701961Y-135050500D01*
X190840053Y-135009953D01*
X190961128Y-134932143D01*
X191055377Y-134823373D01*
X191115165Y-134692457D01*
X191135647Y-134550000D01*
X191115165Y-134407543D01*
X191055377Y-134276627D01*
X190961128Y-134167857D01*
X190961126Y-134167855D01*
X190840053Y-134090047D01*
X190840052Y-134090046D01*
X190701961Y-134049500D01*
X190558039Y-134049500D01*
X190419947Y-134090046D01*
X190419946Y-134090047D01*
X190298873Y-134167855D01*
X190298873Y-134167856D01*
X190204622Y-134276627D01*
X190144835Y-134407541D01*
X190124353Y-134550000D01*
X188394151Y-134550000D01*
X188247354Y-134479981D01*
X188242036Y-134477271D01*
X187577878Y-134116664D01*
X187572708Y-134113679D01*
X187569477Y-134111699D01*
X187526383Y-134064066D01*
X187515882Y-134000695D01*
X187541309Y-133941707D01*
X187594591Y-133905829D01*
X187629043Y-133900499D01*
X188264860Y-133900499D01*
X188264864Y-133900499D01*
X188289991Y-133897585D01*
X188392765Y-133852206D01*
X188440290Y-133804681D01*
X188496668Y-133773895D01*
X188560739Y-133778477D01*
X188581553Y-133788764D01*
X188640473Y-133825786D01*
X188640475Y-133825787D01*
X188640476Y-133825787D01*
X188640479Y-133825789D01*
X188810746Y-133885368D01*
X188870497Y-133892100D01*
X188989999Y-133905565D01*
X188990001Y-133905565D01*
X188990003Y-133905565D01*
X189079628Y-133895466D01*
X189169256Y-133885368D01*
X189339523Y-133825789D01*
X189354665Y-133816275D01*
X189398448Y-133788764D01*
X189492263Y-133729816D01*
X189619817Y-133602262D01*
X189715790Y-133449522D01*
X189775369Y-133279255D01*
X189795566Y-133100000D01*
X189795006Y-133095034D01*
X189776357Y-132929513D01*
X189775369Y-132920745D01*
X189715790Y-132750478D01*
X189715788Y-132750475D01*
X189715788Y-132750474D01*
X189715787Y-132750472D01*
X189619819Y-132597741D01*
X189619815Y-132597736D01*
X189492264Y-132470185D01*
X189492259Y-132470181D01*
X189339528Y-132374213D01*
X189339526Y-132374212D01*
X189169254Y-132314631D01*
X188990003Y-132294435D01*
X188989999Y-132294435D01*
X188810747Y-132314631D01*
X188640475Y-132374212D01*
X188581552Y-132411236D01*
X188519737Y-132428703D01*
X188458292Y-132409978D01*
X188440291Y-132395319D01*
X188392768Y-132347796D01*
X188392766Y-132347795D01*
X188392765Y-132347794D01*
X188289991Y-132302415D01*
X188289987Y-132302414D01*
X188264868Y-132299500D01*
X187175140Y-132299500D01*
X187175133Y-132299501D01*
X187150007Y-132302415D01*
X187150003Y-132302416D01*
X187047237Y-132347792D01*
X187047231Y-132347796D01*
X186967796Y-132427231D01*
X186967795Y-132427233D01*
X186922415Y-132530008D01*
X186922414Y-132530012D01*
X186919500Y-132555129D01*
X186919500Y-133496248D01*
X186901403Y-133557881D01*
X186852857Y-133599946D01*
X186789276Y-133609088D01*
X186740931Y-133590198D01*
X186300479Y-133287484D01*
X186295655Y-133283980D01*
X185696061Y-132823894D01*
X185691430Y-132820144D01*
X185691016Y-132819790D01*
X185116744Y-132329316D01*
X185112333Y-132325345D01*
X184564105Y-131805095D01*
X184559904Y-131800894D01*
X184039652Y-131252664D01*
X184035685Y-131248257D01*
X183544846Y-130673558D01*
X183541108Y-130668942D01*
X183526573Y-130650000D01*
X190074750Y-130650000D01*
X190093670Y-130793709D01*
X190093671Y-130793711D01*
X190093672Y-130793716D01*
X190149136Y-130927620D01*
X190149139Y-130927626D01*
X190237378Y-131042621D01*
X190357192Y-131134558D01*
X190395072Y-131186435D01*
X190398891Y-131250557D01*
X190367438Y-131306564D01*
X190357192Y-131315442D01*
X190237378Y-131407378D01*
X190149139Y-131522373D01*
X190149136Y-131522379D01*
X190093672Y-131656283D01*
X190093671Y-131656288D01*
X190093670Y-131656291D01*
X190074750Y-131800000D01*
X190093670Y-131943709D01*
X190093671Y-131943711D01*
X190093672Y-131943716D01*
X190149136Y-132077620D01*
X190149139Y-132077626D01*
X190237378Y-132192621D01*
X190269494Y-132217264D01*
X190352375Y-132280861D01*
X190453411Y-132322711D01*
X190503425Y-132363014D01*
X190523711Y-132423962D01*
X190507826Y-132486202D01*
X190460813Y-132529973D01*
X190453412Y-132533354D01*
X190437232Y-132540055D01*
X190429353Y-132543320D01*
X190427373Y-132544140D01*
X190312378Y-132632378D01*
X190224139Y-132747373D01*
X190224136Y-132747379D01*
X190168672Y-132881283D01*
X190168671Y-132881288D01*
X190168670Y-132881291D01*
X190149750Y-133025000D01*
X190168670Y-133168709D01*
X190168671Y-133168711D01*
X190168672Y-133168716D01*
X190224136Y-133302620D01*
X190224139Y-133302626D01*
X190312378Y-133417621D01*
X190427373Y-133505860D01*
X190427379Y-133505863D01*
X190561283Y-133561327D01*
X190561284Y-133561327D01*
X190561291Y-133561330D01*
X190705000Y-133580250D01*
X190848709Y-133561330D01*
X190982625Y-133505861D01*
X191097621Y-133417621D01*
X191185861Y-133302625D01*
X191185865Y-133302614D01*
X191188988Y-133297207D01*
X191235474Y-133252877D01*
X191298547Y-133240715D01*
X191358183Y-133264585D01*
X191395446Y-133316906D01*
X191400744Y-133369074D01*
X191399965Y-133374993D01*
X191399965Y-133374996D01*
X191399965Y-133374997D01*
X191399965Y-133375000D01*
X191418026Y-133512183D01*
X191470976Y-133640018D01*
X191555209Y-133749791D01*
X191664982Y-133834024D01*
X191792817Y-133886974D01*
X191930000Y-133905035D01*
X192067183Y-133886974D01*
X192195018Y-133834024D01*
X192304791Y-133749791D01*
X192317532Y-133733186D01*
X192369407Y-133695308D01*
X192433528Y-133691487D01*
X192477369Y-133712142D01*
X192544982Y-133764024D01*
X192672817Y-133816974D01*
X192810000Y-133835035D01*
X192947183Y-133816974D01*
X193075018Y-133764024D01*
X193184791Y-133679791D01*
X193269024Y-133570018D01*
X193321974Y-133442183D01*
X193340035Y-133305000D01*
X193321974Y-133167817D01*
X193321972Y-133167811D01*
X193269025Y-133039984D01*
X193269023Y-133039981D01*
X193184794Y-132930212D01*
X193184792Y-132930210D01*
X193184791Y-132930209D01*
X193075018Y-132845976D01*
X192947183Y-132793026D01*
X192810000Y-132774965D01*
X192672817Y-132793026D01*
X192672816Y-132793026D01*
X192672811Y-132793027D01*
X192544984Y-132845974D01*
X192544981Y-132845976D01*
X192435210Y-132930207D01*
X192422468Y-132946813D01*
X192370590Y-132984692D01*
X192306469Y-132988511D01*
X192262628Y-132967856D01*
X192195018Y-132915976D01*
X192067183Y-132863026D01*
X191930000Y-132844965D01*
X191792817Y-132863026D01*
X191792816Y-132863026D01*
X191792811Y-132863027D01*
X191664984Y-132915974D01*
X191664981Y-132915976D01*
X191555208Y-133000208D01*
X191470972Y-133109987D01*
X191470063Y-133111562D01*
X191468949Y-133112623D01*
X191466427Y-133115911D01*
X191465913Y-133115517D01*
X191423569Y-133155885D01*
X191360494Y-133168035D01*
X191300863Y-133144155D01*
X191263608Y-133091827D01*
X191258318Y-133039670D01*
X191260250Y-133025000D01*
X191241330Y-132881291D01*
X191241327Y-132881283D01*
X191185863Y-132747379D01*
X191185860Y-132747373D01*
X191097621Y-132632378D01*
X190982626Y-132544140D01*
X190982625Y-132544139D01*
X190881588Y-132502289D01*
X190831573Y-132461984D01*
X190811288Y-132401037D01*
X190827173Y-132338797D01*
X190874186Y-132295026D01*
X190881579Y-132291649D01*
X190907625Y-132280861D01*
X191022621Y-132192621D01*
X191083432Y-132113371D01*
X191135309Y-132075491D01*
X191199430Y-132071671D01*
X191255437Y-132103125D01*
X191270400Y-132122118D01*
X191319326Y-132199984D01*
X191330184Y-132217263D01*
X191457738Y-132344817D01*
X191457740Y-132344818D01*
X191457741Y-132344819D01*
X191610472Y-132440787D01*
X191610474Y-132440788D01*
X191610475Y-132440788D01*
X191610478Y-132440790D01*
X191780745Y-132500369D01*
X191797795Y-132502290D01*
X191959998Y-132520566D01*
X191960000Y-132520566D01*
X191960002Y-132520566D01*
X192049627Y-132510467D01*
X192139255Y-132500369D01*
X192297491Y-132445000D01*
X194249965Y-132445000D01*
X194268026Y-132582183D01*
X194320976Y-132710018D01*
X194405209Y-132819791D01*
X194514982Y-132904024D01*
X194642817Y-132956974D01*
X194780000Y-132975035D01*
X194917183Y-132956974D01*
X195045018Y-132904024D01*
X195154791Y-132819791D01*
X195162845Y-132809294D01*
X195214720Y-132771415D01*
X195268168Y-132765668D01*
X195272763Y-132766272D01*
X195272768Y-132766275D01*
X195409951Y-132784336D01*
X195547134Y-132766275D01*
X195674969Y-132713325D01*
X195783583Y-132629980D01*
X195843497Y-132606817D01*
X195906422Y-132619723D01*
X195922381Y-132629979D01*
X196004933Y-132693325D01*
X196132768Y-132746275D01*
X196269951Y-132764336D01*
X196407134Y-132746275D01*
X196407137Y-132746273D01*
X196407141Y-132746273D01*
X196414358Y-132744340D01*
X196414953Y-132746564D01*
X196467309Y-132740926D01*
X196524755Y-132769668D01*
X196537527Y-132783716D01*
X196565209Y-132819791D01*
X196674982Y-132904024D01*
X196802817Y-132956974D01*
X196940000Y-132975035D01*
X197077183Y-132956974D01*
X197205018Y-132904024D01*
X197314791Y-132819791D01*
X197399024Y-132710018D01*
X197451974Y-132582183D01*
X197467402Y-132465000D01*
X197919965Y-132465000D01*
X197938026Y-132602183D01*
X197990976Y-132730018D01*
X198075209Y-132839791D01*
X198128804Y-132880916D01*
X198166683Y-132932792D01*
X198170502Y-132996913D01*
X198153829Y-133032308D01*
X198154710Y-133032817D01*
X198150974Y-133039286D01*
X198098027Y-133167112D01*
X198098026Y-133167117D01*
X198098026Y-133167118D01*
X198079965Y-133304301D01*
X198098026Y-133441484D01*
X198150976Y-133569319D01*
X198235209Y-133679092D01*
X198344982Y-133763325D01*
X198472817Y-133816275D01*
X198610000Y-133834336D01*
X198747183Y-133816275D01*
X198875018Y-133763325D01*
X198984791Y-133679092D01*
X199069024Y-133569319D01*
X199121974Y-133441484D01*
X199140035Y-133304301D01*
X199124592Y-133187004D01*
X200683607Y-133187004D01*
X200683607Y-133333914D01*
X200705004Y-133441485D01*
X200712268Y-133478006D01*
X200768485Y-133613725D01*
X200768491Y-133613735D01*
X200850103Y-133735876D01*
X200953989Y-133839762D01*
X201076130Y-133921374D01*
X201076140Y-133921380D01*
X201211859Y-133977597D01*
X201211861Y-133977597D01*
X201211865Y-133977599D01*
X201355952Y-134006259D01*
X201355955Y-134006259D01*
X201502859Y-134006259D01*
X201502862Y-134006259D01*
X201646949Y-133977599D01*
X201782676Y-133921379D01*
X201904827Y-133839760D01*
X202008708Y-133735879D01*
X202090327Y-133613728D01*
X202146547Y-133478001D01*
X202175207Y-133333914D01*
X202175207Y-133187004D01*
X202170731Y-133164502D01*
X202176455Y-133100526D01*
X202215860Y-133049798D01*
X202276436Y-133028427D01*
X202326164Y-133036939D01*
X202422817Y-133076974D01*
X202560000Y-133095035D01*
X202697183Y-133076974D01*
X202825018Y-133024024D01*
X202934791Y-132939791D01*
X203019024Y-132830018D01*
X203071974Y-132702183D01*
X203090035Y-132565000D01*
X203071974Y-132427817D01*
X203071733Y-132427235D01*
X203019025Y-132299984D01*
X203019023Y-132299981D01*
X202934794Y-132190212D01*
X202934792Y-132190210D01*
X202934791Y-132190209D01*
X202825018Y-132105976D01*
X202697183Y-132053026D01*
X202560000Y-132034965D01*
X202422817Y-132053026D01*
X202422816Y-132053026D01*
X202422811Y-132053027D01*
X202294984Y-132105974D01*
X202294981Y-132105976D01*
X202185208Y-132190208D01*
X202100976Y-132299981D01*
X202100974Y-132299984D01*
X202048027Y-132427811D01*
X202048026Y-132427816D01*
X202048026Y-132427817D01*
X202032316Y-132547143D01*
X202029720Y-132566862D01*
X202003732Y-132625605D01*
X201950111Y-132660974D01*
X201885880Y-132661737D01*
X201853360Y-132646768D01*
X201782683Y-132599543D01*
X201782673Y-132599537D01*
X201646954Y-132543320D01*
X201646949Y-132543319D01*
X201502862Y-132514659D01*
X201355952Y-132514659D01*
X201261964Y-132533354D01*
X201211859Y-132543320D01*
X201076140Y-132599537D01*
X201076130Y-132599543D01*
X200953989Y-132681155D01*
X200850103Y-132785041D01*
X200768491Y-132907182D01*
X200768485Y-132907192D01*
X200712268Y-133042911D01*
X200712267Y-133042917D01*
X200683607Y-133187004D01*
X199124592Y-133187004D01*
X199121974Y-133167118D01*
X199121972Y-133167112D01*
X199069025Y-133039285D01*
X199069023Y-133039282D01*
X198984794Y-132929513D01*
X198984792Y-132929511D01*
X198984791Y-132929510D01*
X198931195Y-132888384D01*
X198893318Y-132836508D01*
X198889499Y-132772387D01*
X198906170Y-132737004D01*
X198905286Y-132736494D01*
X198909021Y-132730023D01*
X198909021Y-132730020D01*
X198909024Y-132730018D01*
X198961974Y-132602183D01*
X198980035Y-132465000D01*
X198961974Y-132327817D01*
X198961972Y-132327811D01*
X198909025Y-132199984D01*
X198909023Y-132199981D01*
X198824794Y-132090212D01*
X198824792Y-132090210D01*
X198824791Y-132090209D01*
X198715018Y-132005976D01*
X198587183Y-131953026D01*
X198450000Y-131934965D01*
X198312817Y-131953026D01*
X198312816Y-131953026D01*
X198312811Y-131953027D01*
X198184984Y-132005974D01*
X198184981Y-132005976D01*
X198075208Y-132090208D01*
X197990976Y-132199981D01*
X197990974Y-132199984D01*
X197938027Y-132327811D01*
X197938026Y-132327816D01*
X197938026Y-132327817D01*
X197919965Y-132465000D01*
X197467402Y-132465000D01*
X197470035Y-132445000D01*
X197451974Y-132307817D01*
X197449737Y-132302416D01*
X197399025Y-132179984D01*
X197399023Y-132179981D01*
X197314794Y-132070212D01*
X197314792Y-132070210D01*
X197314791Y-132070209D01*
X197205018Y-131985976D01*
X197077183Y-131933026D01*
X196940000Y-131914965D01*
X196802817Y-131933026D01*
X196802816Y-131933026D01*
X196802811Y-131933027D01*
X196795599Y-131934960D01*
X196795004Y-131932740D01*
X196742617Y-131938371D01*
X196685178Y-131909616D01*
X196672421Y-131895582D01*
X196644743Y-131859511D01*
X196643583Y-131858621D01*
X196534969Y-131775277D01*
X196474337Y-131750163D01*
X199246766Y-131750163D01*
X199246766Y-131897073D01*
X199268427Y-132005974D01*
X199275427Y-132041165D01*
X199331644Y-132176884D01*
X199331650Y-132176894D01*
X199413262Y-132299035D01*
X199517148Y-132402921D01*
X199639289Y-132484533D01*
X199639299Y-132484539D01*
X199775018Y-132540756D01*
X199775020Y-132540756D01*
X199775024Y-132540758D01*
X199919111Y-132569418D01*
X199919114Y-132569418D01*
X200066018Y-132569418D01*
X200066021Y-132569418D01*
X200210108Y-132540758D01*
X200345835Y-132484538D01*
X200467986Y-132402919D01*
X200571867Y-132299038D01*
X200653486Y-132176887D01*
X200709706Y-132041160D01*
X200738366Y-131897073D01*
X200738366Y-131750163D01*
X200709706Y-131606076D01*
X200680574Y-131535746D01*
X200653487Y-131470351D01*
X200653481Y-131470341D01*
X200571869Y-131348200D01*
X200467983Y-131244314D01*
X200345842Y-131162702D01*
X200345832Y-131162696D01*
X200210113Y-131106479D01*
X200210108Y-131106478D01*
X200066021Y-131077818D01*
X199919111Y-131077818D01*
X199810294Y-131099462D01*
X199775018Y-131106479D01*
X199639299Y-131162696D01*
X199639289Y-131162702D01*
X199517148Y-131244314D01*
X199413262Y-131348200D01*
X199331650Y-131470341D01*
X199331644Y-131470351D01*
X199275427Y-131606070D01*
X199275426Y-131606076D01*
X199246766Y-131750163D01*
X196474337Y-131750163D01*
X196407134Y-131722327D01*
X196269951Y-131704266D01*
X196132768Y-131722327D01*
X196132767Y-131722327D01*
X196132762Y-131722328D01*
X196004935Y-131775275D01*
X196004932Y-131775277D01*
X195896317Y-131858621D01*
X195836403Y-131881784D01*
X195773478Y-131868877D01*
X195757526Y-131858626D01*
X195674969Y-131795277D01*
X195547134Y-131742327D01*
X195409951Y-131724266D01*
X195272768Y-131742327D01*
X195272767Y-131742327D01*
X195272762Y-131742328D01*
X195144935Y-131795275D01*
X195144932Y-131795277D01*
X195035162Y-131879507D01*
X195027102Y-131890011D01*
X194975222Y-131927888D01*
X194921783Y-131933632D01*
X194917184Y-131933026D01*
X194917183Y-131933026D01*
X194780000Y-131914965D01*
X194642817Y-131933026D01*
X194642816Y-131933026D01*
X194642811Y-131933027D01*
X194514984Y-131985974D01*
X194514981Y-131985976D01*
X194405208Y-132070208D01*
X194320976Y-132179981D01*
X194320974Y-132179984D01*
X194268027Y-132307811D01*
X194268026Y-132307816D01*
X194268026Y-132307817D01*
X194249965Y-132445000D01*
X192297491Y-132445000D01*
X192309522Y-132440790D01*
X192462262Y-132344817D01*
X192589816Y-132217263D01*
X192677556Y-132077626D01*
X192685786Y-132064528D01*
X192685787Y-132064526D01*
X192685786Y-132064526D01*
X192685789Y-132064523D01*
X192745368Y-131894256D01*
X192764521Y-131724266D01*
X192765565Y-131715002D01*
X192765565Y-131714999D01*
X192745368Y-131535747D01*
X192745368Y-131535746D01*
X192685789Y-131365479D01*
X192685787Y-131365476D01*
X192685787Y-131365475D01*
X192685786Y-131365473D01*
X192589818Y-131212742D01*
X192589814Y-131212737D01*
X192462263Y-131085186D01*
X192462258Y-131085182D01*
X192309527Y-130989214D01*
X192309525Y-130989213D01*
X192139253Y-130929632D01*
X191960002Y-130909436D01*
X191959998Y-130909436D01*
X191780746Y-130929632D01*
X191610474Y-130989213D01*
X191610472Y-130989214D01*
X191457741Y-131085182D01*
X191457736Y-131085186D01*
X191330185Y-131212737D01*
X191330181Y-131212742D01*
X191234213Y-131365473D01*
X191234211Y-131365479D01*
X191227528Y-131384577D01*
X191190090Y-131436773D01*
X191130375Y-131460443D01*
X191067342Y-131448071D01*
X191029484Y-131416322D01*
X191022621Y-131407378D01*
X190902807Y-131315442D01*
X190864927Y-131263565D01*
X190861107Y-131199444D01*
X190892561Y-131143436D01*
X190902807Y-131134558D01*
X191022621Y-131042621D01*
X191110860Y-130927626D01*
X191110859Y-130927626D01*
X191110861Y-130927625D01*
X191166330Y-130793709D01*
X191185250Y-130650000D01*
X191166330Y-130506291D01*
X191111963Y-130375035D01*
X191110863Y-130372379D01*
X191110860Y-130372373D01*
X191022621Y-130257378D01*
X190907626Y-130169139D01*
X190907620Y-130169136D01*
X190773716Y-130113672D01*
X190773711Y-130113671D01*
X190773709Y-130113670D01*
X190630000Y-130094750D01*
X190486291Y-130113670D01*
X190486288Y-130113670D01*
X190486288Y-130113671D01*
X190486283Y-130113672D01*
X190352379Y-130169136D01*
X190352373Y-130169139D01*
X190237378Y-130257378D01*
X190149139Y-130372373D01*
X190149136Y-130372379D01*
X190093672Y-130506283D01*
X190093671Y-130506288D01*
X190093670Y-130506291D01*
X190074750Y-130650000D01*
X183526573Y-130650000D01*
X183081011Y-130069333D01*
X183077511Y-130064515D01*
X183019437Y-129980017D01*
X182837297Y-129715000D01*
X184779965Y-129715000D01*
X184798026Y-129852183D01*
X184850976Y-129980018D01*
X184935209Y-130089791D01*
X185044982Y-130174024D01*
X185172817Y-130226974D01*
X185310000Y-130245035D01*
X185447183Y-130226974D01*
X185575018Y-130174024D01*
X185684791Y-130089791D01*
X185769024Y-129980018D01*
X185821974Y-129852183D01*
X185840035Y-129715000D01*
X185838718Y-129705000D01*
X189129965Y-129705000D01*
X189148026Y-129842183D01*
X189200976Y-129970018D01*
X189285209Y-130079791D01*
X189394982Y-130164024D01*
X189522817Y-130216974D01*
X189660000Y-130235035D01*
X189797183Y-130216974D01*
X189925018Y-130164024D01*
X190034791Y-130079791D01*
X190119024Y-129970018D01*
X190170807Y-129845000D01*
X196359965Y-129845000D01*
X196378026Y-129982183D01*
X196430976Y-130110018D01*
X196515209Y-130219791D01*
X196624982Y-130304024D01*
X196752817Y-130356974D01*
X196890000Y-130375035D01*
X197027183Y-130356974D01*
X197155018Y-130304024D01*
X197264791Y-130219791D01*
X197349024Y-130110018D01*
X197401974Y-129982183D01*
X197420035Y-129845000D01*
X197401974Y-129707817D01*
X197401972Y-129707811D01*
X197349025Y-129579984D01*
X197349023Y-129579981D01*
X197264794Y-129470212D01*
X197264792Y-129470210D01*
X197264791Y-129470209D01*
X197155018Y-129385976D01*
X197027183Y-129333026D01*
X196890000Y-129314965D01*
X196752817Y-129333026D01*
X196752816Y-129333026D01*
X196752811Y-129333027D01*
X196624984Y-129385974D01*
X196624981Y-129385976D01*
X196515208Y-129470208D01*
X196430976Y-129579981D01*
X196430974Y-129579984D01*
X196378027Y-129707811D01*
X196378026Y-129707816D01*
X196378026Y-129707817D01*
X196359965Y-129845000D01*
X190170807Y-129845000D01*
X190171974Y-129842183D01*
X190190035Y-129705000D01*
X190171974Y-129567817D01*
X190171972Y-129567811D01*
X190119025Y-129439984D01*
X190119023Y-129439981D01*
X190034794Y-129330212D01*
X190034792Y-129330210D01*
X190034791Y-129330209D01*
X189925018Y-129245976D01*
X189797183Y-129193026D01*
X189660000Y-129174965D01*
X189522817Y-129193026D01*
X189522816Y-129193026D01*
X189522811Y-129193027D01*
X189394984Y-129245974D01*
X189394981Y-129245976D01*
X189285208Y-129330208D01*
X189200976Y-129439981D01*
X189200974Y-129439984D01*
X189148027Y-129567811D01*
X189148026Y-129567816D01*
X189148026Y-129567817D01*
X189129965Y-129705000D01*
X185838718Y-129705000D01*
X185821974Y-129577817D01*
X185817832Y-129567817D01*
X185769025Y-129449984D01*
X185769023Y-129449981D01*
X185684794Y-129340212D01*
X185684792Y-129340210D01*
X185684791Y-129340209D01*
X185575018Y-129255976D01*
X185447183Y-129203026D01*
X185310000Y-129184965D01*
X185172817Y-129203026D01*
X185172816Y-129203026D01*
X185172811Y-129203027D01*
X185044984Y-129255974D01*
X185044981Y-129255976D01*
X184935208Y-129340208D01*
X184850976Y-129449981D01*
X184850974Y-129449984D01*
X184798027Y-129577811D01*
X184798026Y-129577816D01*
X184798026Y-129577817D01*
X184779965Y-129715000D01*
X182837297Y-129715000D01*
X182649460Y-129441695D01*
X182646209Y-129436690D01*
X182302912Y-128876480D01*
X203557294Y-128876480D01*
X203557294Y-129023390D01*
X203585954Y-129167477D01*
X203585955Y-129167482D01*
X203642172Y-129303201D01*
X203642178Y-129303211D01*
X203723790Y-129425352D01*
X203827676Y-129529238D01*
X203949817Y-129610850D01*
X203949827Y-129610856D01*
X204085546Y-129667073D01*
X204085548Y-129667073D01*
X204085552Y-129667075D01*
X204229639Y-129695735D01*
X204229642Y-129695735D01*
X204376546Y-129695735D01*
X204376549Y-129695735D01*
X204520636Y-129667075D01*
X204656363Y-129610855D01*
X204778514Y-129529236D01*
X204882395Y-129425355D01*
X204964014Y-129303204D01*
X205020234Y-129167477D01*
X205048894Y-129023390D01*
X205048894Y-128876480D01*
X205020234Y-128732393D01*
X204964014Y-128596666D01*
X204942879Y-128565035D01*
X204882397Y-128474517D01*
X204778511Y-128370631D01*
X204656370Y-128289019D01*
X204656360Y-128289013D01*
X204520641Y-128232796D01*
X204520636Y-128232795D01*
X204376549Y-128204135D01*
X204229639Y-128204135D01*
X204120822Y-128225779D01*
X204085546Y-128232796D01*
X203949827Y-128289013D01*
X203949817Y-128289019D01*
X203827676Y-128370631D01*
X203723790Y-128474517D01*
X203642178Y-128596658D01*
X203642172Y-128596668D01*
X203585955Y-128732387D01*
X203585954Y-128732393D01*
X203557294Y-128876480D01*
X182302912Y-128876480D01*
X182251320Y-128792290D01*
X182248336Y-128787121D01*
X181887728Y-128122963D01*
X181885018Y-128117645D01*
X181685811Y-127700000D01*
X182299353Y-127700000D01*
X182319835Y-127842458D01*
X182379622Y-127973372D01*
X182379623Y-127973373D01*
X182473872Y-128082143D01*
X182473873Y-128082143D01*
X182473873Y-128082144D01*
X182529114Y-128117645D01*
X182594947Y-128159953D01*
X182733039Y-128200500D01*
X182876961Y-128200500D01*
X183015053Y-128159953D01*
X183136128Y-128082143D01*
X183230377Y-127973373D01*
X183290165Y-127842457D01*
X183310647Y-127700000D01*
X183290165Y-127557543D01*
X183230377Y-127426627D01*
X183194307Y-127385000D01*
X198889965Y-127385000D01*
X198908026Y-127522183D01*
X198960976Y-127650018D01*
X198960977Y-127650019D01*
X198964712Y-127656489D01*
X198963241Y-127657338D01*
X198982998Y-127708456D01*
X198971948Y-127762298D01*
X198973835Y-127763080D01*
X198918027Y-127897811D01*
X198918026Y-127897816D01*
X198918026Y-127897817D01*
X198899965Y-128035000D01*
X198918026Y-128172183D01*
X198970976Y-128300018D01*
X199055209Y-128409791D01*
X199164982Y-128494024D01*
X199292817Y-128546974D01*
X199430000Y-128565035D01*
X199567183Y-128546974D01*
X199695018Y-128494024D01*
X199804791Y-128409791D01*
X199889024Y-128300018D01*
X199941974Y-128172183D01*
X199960035Y-128035000D01*
X199941974Y-127897817D01*
X199919044Y-127842458D01*
X199889025Y-127769984D01*
X199885288Y-127763512D01*
X199886758Y-127762662D01*
X199867002Y-127711548D01*
X199878049Y-127657702D01*
X199876164Y-127656922D01*
X199879024Y-127650018D01*
X199931974Y-127522183D01*
X199950035Y-127385000D01*
X199931974Y-127247817D01*
X199928756Y-127240047D01*
X199879025Y-127119984D01*
X199879023Y-127119981D01*
X199794794Y-127010212D01*
X199794792Y-127010210D01*
X199794791Y-127010209D01*
X199685018Y-126925976D01*
X199557183Y-126873026D01*
X199420000Y-126854965D01*
X199282817Y-126873026D01*
X199282816Y-126873026D01*
X199282811Y-126873027D01*
X199154984Y-126925974D01*
X199154981Y-126925976D01*
X199045208Y-127010208D01*
X198960976Y-127119981D01*
X198960974Y-127119984D01*
X198908027Y-127247811D01*
X198908026Y-127247816D01*
X198908026Y-127247817D01*
X198889965Y-127385000D01*
X183194307Y-127385000D01*
X183136128Y-127317857D01*
X183136126Y-127317855D01*
X183015053Y-127240047D01*
X183015052Y-127240046D01*
X182876961Y-127199500D01*
X182733039Y-127199500D01*
X182594947Y-127240046D01*
X182594946Y-127240047D01*
X182473873Y-127317855D01*
X182473873Y-127317856D01*
X182379622Y-127426627D01*
X182319835Y-127557541D01*
X182299353Y-127700000D01*
X181685811Y-127700000D01*
X181559652Y-127435503D01*
X181557225Y-127430051D01*
X181268015Y-126731833D01*
X181265876Y-126726261D01*
X181214170Y-126580249D01*
X181120240Y-126315000D01*
X182854750Y-126315000D01*
X182873670Y-126458709D01*
X182873671Y-126458711D01*
X182873672Y-126458716D01*
X182929136Y-126592620D01*
X182929139Y-126592626D01*
X183017378Y-126707621D01*
X183132373Y-126795860D01*
X183132379Y-126795863D01*
X183266283Y-126851327D01*
X183266284Y-126851327D01*
X183266291Y-126851330D01*
X183410000Y-126870250D01*
X183553709Y-126851330D01*
X183687625Y-126795861D01*
X183802621Y-126707621D01*
X183890861Y-126592625D01*
X183946330Y-126458709D01*
X183965250Y-126315000D01*
X183949428Y-126194828D01*
X183959325Y-126131365D01*
X184001965Y-126083323D01*
X184063808Y-126065960D01*
X184125222Y-126084789D01*
X184152895Y-126110553D01*
X184227378Y-126207621D01*
X184342373Y-126295860D01*
X184342379Y-126295863D01*
X184476283Y-126351327D01*
X184476284Y-126351327D01*
X184476291Y-126351330D01*
X184620000Y-126370250D01*
X184763709Y-126351330D01*
X184897625Y-126295861D01*
X185012621Y-126207621D01*
X185100861Y-126092625D01*
X185156330Y-125958709D01*
X185175250Y-125815000D01*
X185156330Y-125671291D01*
X185156327Y-125671283D01*
X185100863Y-125537379D01*
X185100860Y-125537373D01*
X185029980Y-125445000D01*
X191034750Y-125445000D01*
X191053670Y-125588709D01*
X191053671Y-125588711D01*
X191053671Y-125588713D01*
X191101194Y-125703444D01*
X191108061Y-125767311D01*
X191101195Y-125790695D01*
X191066328Y-125874873D01*
X191063670Y-125881291D01*
X191044750Y-126025000D01*
X191063670Y-126168709D01*
X191063671Y-126168711D01*
X191063672Y-126168716D01*
X191119136Y-126302620D01*
X191119139Y-126302626D01*
X191207378Y-126417621D01*
X191322373Y-126505860D01*
X191322379Y-126505863D01*
X191456283Y-126561327D01*
X191456284Y-126561327D01*
X191456291Y-126561330D01*
X191600000Y-126580250D01*
X191743709Y-126561330D01*
X191807276Y-126535000D01*
X202094750Y-126535000D01*
X202113670Y-126678709D01*
X202113671Y-126678711D01*
X202113672Y-126678716D01*
X202169136Y-126812620D01*
X202169139Y-126812625D01*
X202182933Y-126830602D01*
X202206095Y-126890515D01*
X202193188Y-126953440D01*
X202182933Y-126969398D01*
X202169139Y-126987374D01*
X202169136Y-126987379D01*
X202113672Y-127121283D01*
X202113671Y-127121288D01*
X202113670Y-127121291D01*
X202094750Y-127265000D01*
X202113670Y-127408709D01*
X202113671Y-127408711D01*
X202113672Y-127408716D01*
X202169136Y-127542620D01*
X202169139Y-127542626D01*
X202257378Y-127657621D01*
X202372373Y-127745860D01*
X202372379Y-127745863D01*
X202506283Y-127801327D01*
X202506284Y-127801327D01*
X202506291Y-127801330D01*
X202650000Y-127820250D01*
X202793709Y-127801330D01*
X202869302Y-127770017D01*
X202933166Y-127763151D01*
X202956552Y-127770018D01*
X203056283Y-127811327D01*
X203056284Y-127811327D01*
X203056291Y-127811330D01*
X203200000Y-127830250D01*
X203343709Y-127811330D01*
X203419302Y-127780017D01*
X203483166Y-127773151D01*
X203506552Y-127780018D01*
X203606283Y-127821327D01*
X203606284Y-127821327D01*
X203606291Y-127821330D01*
X203750000Y-127840250D01*
X203893709Y-127821330D01*
X204027625Y-127765861D01*
X204142621Y-127677621D01*
X204230861Y-127562625D01*
X204286330Y-127428709D01*
X204305250Y-127285000D01*
X204286330Y-127141291D01*
X204278043Y-127121283D01*
X204230863Y-127007379D01*
X204230860Y-127007373D01*
X204142621Y-126892378D01*
X204027626Y-126804139D01*
X204027620Y-126804136D01*
X203893712Y-126748670D01*
X203893708Y-126748669D01*
X203882297Y-126747167D01*
X203823554Y-126721179D01*
X203788187Y-126667557D01*
X203784155Y-126619268D01*
X203795250Y-126535000D01*
X203776330Y-126391291D01*
X203767615Y-126370250D01*
X203720863Y-126257379D01*
X203720860Y-126257373D01*
X203632621Y-126142378D01*
X203517626Y-126054139D01*
X203517620Y-126054136D01*
X203383716Y-125998672D01*
X203383711Y-125998671D01*
X203383709Y-125998670D01*
X203240000Y-125979750D01*
X203096291Y-125998670D01*
X203059638Y-126013852D01*
X202988625Y-126043266D01*
X202924758Y-126050132D01*
X202901375Y-126043266D01*
X202887162Y-126037379D01*
X202793709Y-125998670D01*
X202650000Y-125979750D01*
X202506291Y-125998670D01*
X202506288Y-125998670D01*
X202506288Y-125998671D01*
X202506283Y-125998672D01*
X202372379Y-126054136D01*
X202372373Y-126054139D01*
X202257378Y-126142378D01*
X202169139Y-126257373D01*
X202169136Y-126257379D01*
X202113672Y-126391283D01*
X202113671Y-126391288D01*
X202113670Y-126391291D01*
X202094750Y-126535000D01*
X191807276Y-126535000D01*
X191877625Y-126505861D01*
X191992621Y-126417621D01*
X192080861Y-126302625D01*
X192136330Y-126168709D01*
X192155250Y-126025000D01*
X192136330Y-125881291D01*
X192088804Y-125766553D01*
X192081938Y-125702688D01*
X192088805Y-125679303D01*
X192092127Y-125671283D01*
X192126330Y-125588709D01*
X192145250Y-125445000D01*
X192126330Y-125301291D01*
X192116961Y-125278671D01*
X192078162Y-125185000D01*
X193889965Y-125185000D01*
X193908026Y-125322183D01*
X193960976Y-125450018D01*
X194045209Y-125559791D01*
X194154982Y-125644024D01*
X194282817Y-125696974D01*
X194351716Y-125706045D01*
X194410457Y-125732032D01*
X194445825Y-125785653D01*
X194449858Y-125804188D01*
X194451651Y-125817812D01*
X194468026Y-125942183D01*
X194520976Y-126070018D01*
X194605209Y-126179791D01*
X194714982Y-126264024D01*
X194842817Y-126316974D01*
X194980000Y-126335035D01*
X195117183Y-126316974D01*
X195245018Y-126264024D01*
X195354791Y-126179791D01*
X195439024Y-126070018D01*
X195491974Y-125942183D01*
X195491974Y-125942181D01*
X195494833Y-125935280D01*
X195497283Y-125936294D01*
X195524035Y-125892374D01*
X195581804Y-125864288D01*
X195585867Y-125863679D01*
X195603710Y-125861330D01*
X195737620Y-125805863D01*
X195737619Y-125805863D01*
X195737625Y-125805861D01*
X195852621Y-125717621D01*
X195940861Y-125602625D01*
X195948161Y-125585000D01*
X197089965Y-125585000D01*
X197108026Y-125722183D01*
X197160976Y-125850018D01*
X197245209Y-125959791D01*
X197354982Y-126044024D01*
X197482817Y-126096974D01*
X197620000Y-126115035D01*
X197757183Y-126096974D01*
X197885018Y-126044024D01*
X197994791Y-125959791D01*
X198079024Y-125850018D01*
X198131974Y-125722183D01*
X198150035Y-125585000D01*
X198131974Y-125447817D01*
X198131972Y-125447811D01*
X198091458Y-125350000D01*
X207024353Y-125350000D01*
X207044835Y-125492458D01*
X207104622Y-125623372D01*
X207104623Y-125623373D01*
X207198872Y-125732143D01*
X207198873Y-125732143D01*
X207198873Y-125732144D01*
X207241829Y-125759750D01*
X207319947Y-125809953D01*
X207458039Y-125850500D01*
X207601961Y-125850500D01*
X207740053Y-125809953D01*
X207861128Y-125732143D01*
X207955377Y-125623373D01*
X208015165Y-125492457D01*
X208035647Y-125350000D01*
X208015165Y-125207543D01*
X207955377Y-125076627D01*
X207861128Y-124967857D01*
X207861126Y-124967855D01*
X207740053Y-124890047D01*
X207740052Y-124890046D01*
X207601961Y-124849500D01*
X207458039Y-124849500D01*
X207319947Y-124890046D01*
X207319946Y-124890047D01*
X207198873Y-124967855D01*
X207198873Y-124967856D01*
X207104622Y-125076627D01*
X207044835Y-125207541D01*
X207024353Y-125350000D01*
X198091458Y-125350000D01*
X198079025Y-125319984D01*
X198079023Y-125319981D01*
X197994794Y-125210212D01*
X197994792Y-125210210D01*
X197994791Y-125210209D01*
X197885018Y-125125976D01*
X197757183Y-125073026D01*
X197620000Y-125054965D01*
X197482817Y-125073026D01*
X197482816Y-125073026D01*
X197482811Y-125073027D01*
X197354984Y-125125974D01*
X197354981Y-125125976D01*
X197245208Y-125210208D01*
X197160976Y-125319981D01*
X197160974Y-125319984D01*
X197108027Y-125447811D01*
X197108026Y-125447816D01*
X197108026Y-125447817D01*
X197089965Y-125585000D01*
X195948161Y-125585000D01*
X195996330Y-125468709D01*
X196015250Y-125325000D01*
X195996330Y-125181291D01*
X195973418Y-125125976D01*
X195940863Y-125047379D01*
X195940860Y-125047373D01*
X195852621Y-124932378D01*
X195737626Y-124844139D01*
X195737620Y-124844136D01*
X195596806Y-124785810D01*
X195597449Y-124784257D01*
X195550608Y-124755705D01*
X195522542Y-124697925D01*
X195521945Y-124693947D01*
X195516330Y-124651291D01*
X195516327Y-124651283D01*
X195460863Y-124517379D01*
X195460860Y-124517373D01*
X195372621Y-124402378D01*
X195257626Y-124314139D01*
X195257620Y-124314136D01*
X195123716Y-124258672D01*
X195123711Y-124258671D01*
X195123709Y-124258670D01*
X194980000Y-124239750D01*
X194836291Y-124258670D01*
X194836288Y-124258670D01*
X194836288Y-124258671D01*
X194836283Y-124258672D01*
X194702379Y-124314136D01*
X194702373Y-124314139D01*
X194587378Y-124402378D01*
X194499139Y-124517373D01*
X194499137Y-124517376D01*
X194468612Y-124591073D01*
X194428307Y-124641089D01*
X194378170Y-124660472D01*
X194282817Y-124673026D01*
X194282816Y-124673026D01*
X194282811Y-124673027D01*
X194154984Y-124725974D01*
X194154981Y-124725976D01*
X194045208Y-124810208D01*
X193960976Y-124919981D01*
X193960974Y-124919984D01*
X193908027Y-125047811D01*
X193908026Y-125047816D01*
X193908026Y-125047817D01*
X193889965Y-125185000D01*
X192078162Y-125185000D01*
X192070863Y-125167379D01*
X192070860Y-125167373D01*
X191982621Y-125052378D01*
X191867626Y-124964139D01*
X191867620Y-124964136D01*
X191733716Y-124908672D01*
X191733711Y-124908671D01*
X191733709Y-124908670D01*
X191590000Y-124889750D01*
X191446291Y-124908670D01*
X191446288Y-124908670D01*
X191446288Y-124908671D01*
X191446283Y-124908672D01*
X191312379Y-124964136D01*
X191312373Y-124964139D01*
X191197378Y-125052378D01*
X191109139Y-125167373D01*
X191109136Y-125167379D01*
X191053672Y-125301283D01*
X191053671Y-125301288D01*
X191053670Y-125301291D01*
X191034750Y-125445000D01*
X185029980Y-125445000D01*
X185012621Y-125422378D01*
X184897626Y-125334139D01*
X184897620Y-125334136D01*
X184763716Y-125278672D01*
X184763711Y-125278671D01*
X184763709Y-125278670D01*
X184620000Y-125259750D01*
X184476291Y-125278670D01*
X184476288Y-125278670D01*
X184476288Y-125278671D01*
X184476283Y-125278672D01*
X184342379Y-125334136D01*
X184342373Y-125334139D01*
X184227378Y-125422378D01*
X184139139Y-125537373D01*
X184139136Y-125537379D01*
X184083672Y-125671283D01*
X184083671Y-125671288D01*
X184083670Y-125671291D01*
X184064750Y-125815000D01*
X184079624Y-125927978D01*
X184080571Y-125935167D01*
X184070673Y-125998635D01*
X184028034Y-126046676D01*
X183966190Y-126064039D01*
X183904776Y-126045210D01*
X183877104Y-126019446D01*
X183802621Y-125922378D01*
X183687626Y-125834139D01*
X183687620Y-125834136D01*
X183553716Y-125778672D01*
X183553711Y-125778671D01*
X183553709Y-125778670D01*
X183410000Y-125759750D01*
X183266291Y-125778670D01*
X183266288Y-125778670D01*
X183266288Y-125778671D01*
X183266283Y-125778672D01*
X183132379Y-125834136D01*
X183132373Y-125834139D01*
X183017378Y-125922378D01*
X182929139Y-126037373D01*
X182929136Y-126037379D01*
X182873672Y-126171283D01*
X182873671Y-126171288D01*
X182873670Y-126171291D01*
X182854750Y-126315000D01*
X181120240Y-126315000D01*
X181013588Y-126013827D01*
X181011768Y-126008225D01*
X180987996Y-125927974D01*
X180987845Y-125863743D01*
X181022444Y-125809623D01*
X181080811Y-125782800D01*
X181144414Y-125791791D01*
X181177913Y-125814991D01*
X181180184Y-125817262D01*
X181307738Y-125944816D01*
X181307740Y-125944817D01*
X181307741Y-125944818D01*
X181460472Y-126040786D01*
X181460474Y-126040787D01*
X181460475Y-126040787D01*
X181460478Y-126040789D01*
X181630745Y-126100368D01*
X181690496Y-126107100D01*
X181809998Y-126120565D01*
X181810000Y-126120565D01*
X181810002Y-126120565D01*
X181899627Y-126110466D01*
X181989255Y-126100368D01*
X182159522Y-126040789D01*
X182164956Y-126037375D01*
X182226554Y-125998670D01*
X182312262Y-125944816D01*
X182439816Y-125817262D01*
X182515399Y-125696972D01*
X182535786Y-125664527D01*
X182535787Y-125664525D01*
X182535786Y-125664525D01*
X182535789Y-125664522D01*
X182595368Y-125494255D01*
X182608832Y-125374751D01*
X182615565Y-125315001D01*
X182615565Y-125314998D01*
X182595368Y-125135746D01*
X182595368Y-125135745D01*
X182535789Y-124965478D01*
X182535787Y-124965475D01*
X182535787Y-124965474D01*
X182535786Y-124965472D01*
X182498764Y-124906552D01*
X182481296Y-124844737D01*
X182500021Y-124783292D01*
X182514672Y-124765298D01*
X182562206Y-124717765D01*
X182607585Y-124614991D01*
X182610500Y-124589865D01*
X182610499Y-123500136D01*
X182607585Y-123475009D01*
X182607583Y-123475006D01*
X182607583Y-123475003D01*
X182562207Y-123372237D01*
X182562203Y-123372231D01*
X182482768Y-123292796D01*
X182482766Y-123292795D01*
X182482765Y-123292794D01*
X182442465Y-123275000D01*
X190304750Y-123275000D01*
X190323670Y-123418709D01*
X190323671Y-123418711D01*
X190323672Y-123418716D01*
X190379136Y-123552620D01*
X190379139Y-123552626D01*
X190467378Y-123667621D01*
X190582373Y-123755860D01*
X190582379Y-123755863D01*
X190716283Y-123811327D01*
X190716284Y-123811327D01*
X190716291Y-123811330D01*
X190860000Y-123830250D01*
X191003709Y-123811330D01*
X191137625Y-123755861D01*
X191252621Y-123667621D01*
X191340861Y-123552625D01*
X191396330Y-123418709D01*
X191415250Y-123275000D01*
X191396330Y-123131291D01*
X191377160Y-123085009D01*
X191340863Y-122997379D01*
X191340860Y-122997373D01*
X191252621Y-122882378D01*
X191137626Y-122794139D01*
X191137620Y-122794136D01*
X191003716Y-122738672D01*
X191003711Y-122738671D01*
X191003709Y-122738670D01*
X190860000Y-122719750D01*
X190716291Y-122738670D01*
X190716288Y-122738670D01*
X190716288Y-122738671D01*
X190716283Y-122738672D01*
X190582379Y-122794136D01*
X190582373Y-122794139D01*
X190467378Y-122882378D01*
X190379139Y-122997373D01*
X190379136Y-122997379D01*
X190323672Y-123131283D01*
X190323671Y-123131288D01*
X190323670Y-123131291D01*
X190304750Y-123275000D01*
X182442465Y-123275000D01*
X182379991Y-123247415D01*
X182379987Y-123247414D01*
X182354868Y-123244500D01*
X181265140Y-123244500D01*
X181265133Y-123244501D01*
X181240007Y-123247415D01*
X181240003Y-123247416D01*
X181137237Y-123292792D01*
X181137231Y-123292796D01*
X181057796Y-123372231D01*
X181057795Y-123372233D01*
X181012415Y-123475008D01*
X181012414Y-123475012D01*
X181009500Y-123500129D01*
X181009500Y-124589859D01*
X181009501Y-124589866D01*
X181012415Y-124614992D01*
X181012416Y-124614996D01*
X181057792Y-124717762D01*
X181057796Y-124717768D01*
X181105319Y-124765291D01*
X181136104Y-124821669D01*
X181131521Y-124885740D01*
X181121236Y-124906552D01*
X181084212Y-124965475D01*
X181084211Y-124965478D01*
X181028051Y-125125976D01*
X181024632Y-125135746D01*
X181013225Y-125236978D01*
X180988340Y-125296197D01*
X180935390Y-125332562D01*
X180871185Y-125334526D01*
X180816110Y-125301467D01*
X180789093Y-125250828D01*
X180619136Y-124542908D01*
X180617897Y-124537077D01*
X180614245Y-124517375D01*
X180480172Y-123793980D01*
X180479239Y-123788089D01*
X180477568Y-123775398D01*
X180380589Y-123038767D01*
X180379972Y-123032894D01*
X180320671Y-122279405D01*
X180320362Y-122273496D01*
X180300578Y-121517978D01*
X180300578Y-121512016D01*
X180301547Y-121475000D01*
X180320362Y-120756501D01*
X180320671Y-120750596D01*
X180379972Y-119997101D01*
X180380589Y-119991236D01*
X180382726Y-119975000D01*
X181049353Y-119975000D01*
X181069835Y-120117458D01*
X181129622Y-120248372D01*
X181129623Y-120248373D01*
X181223872Y-120357143D01*
X181223873Y-120357143D01*
X181223873Y-120357144D01*
X181284409Y-120396048D01*
X181344947Y-120434953D01*
X181483039Y-120475500D01*
X181626961Y-120475500D01*
X181765053Y-120434953D01*
X181886128Y-120357143D01*
X181980377Y-120248373D01*
X182040165Y-120117457D01*
X182060647Y-119975000D01*
X182040165Y-119832543D01*
X181980377Y-119701627D01*
X181886128Y-119592857D01*
X181886126Y-119592855D01*
X181765053Y-119515047D01*
X181765052Y-119515046D01*
X181626961Y-119474500D01*
X181483039Y-119474500D01*
X181344947Y-119515046D01*
X181344946Y-119515047D01*
X181223873Y-119592855D01*
X181223873Y-119592856D01*
X181223872Y-119592856D01*
X181223872Y-119592857D01*
X181220305Y-119596974D01*
X181129622Y-119701627D01*
X181069835Y-119832541D01*
X181049353Y-119975000D01*
X180382726Y-119975000D01*
X180479240Y-119241901D01*
X180480173Y-119236015D01*
X180480364Y-119234984D01*
X180617900Y-118492907D01*
X180619138Y-118487084D01*
X180627731Y-118451293D01*
X180795570Y-117752191D01*
X180797105Y-117746463D01*
X181010812Y-117024999D01*
X182600000Y-117024999D01*
X182600000Y-120585000D01*
X185089998Y-122794999D01*
X185089999Y-122794999D01*
X185090000Y-122795000D01*
X185090001Y-122795000D01*
X188460000Y-122795000D01*
X188460000Y-122675000D01*
X196899965Y-122675000D01*
X196918026Y-122812183D01*
X196970976Y-122940018D01*
X197055209Y-123049791D01*
X197164982Y-123134024D01*
X197292817Y-123186974D01*
X197430000Y-123205035D01*
X197566008Y-123187128D01*
X197629472Y-123197025D01*
X197677514Y-123239665D01*
X197694877Y-123301509D01*
X197693910Y-123315031D01*
X197689965Y-123344997D01*
X197689965Y-123345000D01*
X197708026Y-123482183D01*
X197760976Y-123610018D01*
X197845209Y-123719791D01*
X197954982Y-123804024D01*
X198082817Y-123856974D01*
X198220000Y-123875035D01*
X198357183Y-123856974D01*
X198485018Y-123804024D01*
X198594791Y-123719791D01*
X198679024Y-123610018D01*
X198731974Y-123482183D01*
X198750035Y-123345000D01*
X198731974Y-123207817D01*
X198730822Y-123205035D01*
X198679025Y-123079984D01*
X198679023Y-123079981D01*
X198594794Y-122970212D01*
X198594792Y-122970210D01*
X198594791Y-122970209D01*
X198485018Y-122885976D01*
X198357183Y-122833026D01*
X198220000Y-122814965D01*
X198219999Y-122814965D01*
X198083994Y-122832871D01*
X198020526Y-122822973D01*
X197972485Y-122780334D01*
X197955122Y-122718490D01*
X197956090Y-122704964D01*
X197960035Y-122675000D01*
X197941974Y-122537817D01*
X197899367Y-122434953D01*
X197889025Y-122409984D01*
X197889023Y-122409981D01*
X197804794Y-122300212D01*
X197804792Y-122300210D01*
X197804791Y-122300209D01*
X197695018Y-122215976D01*
X197567183Y-122163026D01*
X197430000Y-122144965D01*
X197292817Y-122163026D01*
X197292816Y-122163026D01*
X197292811Y-122163027D01*
X197164984Y-122215974D01*
X197164981Y-122215976D01*
X197055208Y-122300208D01*
X196970976Y-122409981D01*
X196970974Y-122409984D01*
X196918027Y-122537811D01*
X196918026Y-122537816D01*
X196918026Y-122537817D01*
X196899965Y-122675000D01*
X188460000Y-122675000D01*
X188460000Y-122105636D01*
X188478097Y-122044003D01*
X188483559Y-122036236D01*
X188507501Y-122005035D01*
X188519024Y-121990018D01*
X188525245Y-121975000D01*
X193799353Y-121975000D01*
X193819835Y-122117458D01*
X193879622Y-122248372D01*
X193879623Y-122248373D01*
X193973872Y-122357143D01*
X193973873Y-122357143D01*
X193973873Y-122357144D01*
X194034409Y-122396048D01*
X194094947Y-122434953D01*
X194233039Y-122475500D01*
X194376961Y-122475500D01*
X194515053Y-122434953D01*
X194636128Y-122357143D01*
X194730377Y-122248373D01*
X194790165Y-122117457D01*
X194810647Y-121975000D01*
X194790165Y-121832543D01*
X194730377Y-121701627D01*
X194636128Y-121592857D01*
X194636126Y-121592855D01*
X194515053Y-121515047D01*
X194515052Y-121515046D01*
X194378664Y-121475000D01*
X198974965Y-121475000D01*
X198993026Y-121612183D01*
X199045976Y-121740018D01*
X199130209Y-121849791D01*
X199239982Y-121934024D01*
X199367817Y-121986974D01*
X199505000Y-122005035D01*
X199642183Y-121986974D01*
X199770018Y-121934024D01*
X199879791Y-121849791D01*
X199964024Y-121740018D01*
X200016974Y-121612183D01*
X200035035Y-121475000D01*
X200016974Y-121337817D01*
X200015499Y-121334256D01*
X199964025Y-121209984D01*
X199964023Y-121209981D01*
X199960201Y-121205000D01*
X205084750Y-121205000D01*
X205103670Y-121348709D01*
X205103671Y-121348711D01*
X205103672Y-121348716D01*
X205159136Y-121482620D01*
X205159139Y-121482626D01*
X205247378Y-121597621D01*
X205362373Y-121685860D01*
X205362379Y-121685863D01*
X205496283Y-121741327D01*
X205496284Y-121741327D01*
X205496291Y-121741330D01*
X205640000Y-121760250D01*
X205783709Y-121741330D01*
X205917625Y-121685861D01*
X206032621Y-121597621D01*
X206120861Y-121482625D01*
X206176330Y-121348709D01*
X206195250Y-121205000D01*
X206176330Y-121061291D01*
X206161298Y-121025000D01*
X206120863Y-120927379D01*
X206120860Y-120927373D01*
X206032621Y-120812378D01*
X205917626Y-120724139D01*
X205917620Y-120724136D01*
X205783716Y-120668672D01*
X205783711Y-120668671D01*
X205783709Y-120668670D01*
X205640000Y-120649750D01*
X205496291Y-120668670D01*
X205496288Y-120668670D01*
X205496288Y-120668671D01*
X205496283Y-120668672D01*
X205362379Y-120724136D01*
X205362373Y-120724139D01*
X205247378Y-120812378D01*
X205159139Y-120927373D01*
X205159136Y-120927379D01*
X205103672Y-121061283D01*
X205103671Y-121061288D01*
X205103670Y-121061291D01*
X205084750Y-121205000D01*
X199960201Y-121205000D01*
X199879794Y-121100212D01*
X199879792Y-121100210D01*
X199879791Y-121100209D01*
X199770018Y-121015976D01*
X199642183Y-120963026D01*
X199505000Y-120944965D01*
X199367817Y-120963026D01*
X199367816Y-120963026D01*
X199367811Y-120963027D01*
X199239984Y-121015974D01*
X199239981Y-121015976D01*
X199130208Y-121100208D01*
X199045976Y-121209981D01*
X199045974Y-121209984D01*
X198993027Y-121337811D01*
X198993026Y-121337816D01*
X198993026Y-121337817D01*
X198974965Y-121475000D01*
X194378664Y-121475000D01*
X194376961Y-121474500D01*
X194233039Y-121474500D01*
X194094947Y-121515046D01*
X194094946Y-121515047D01*
X193973873Y-121592855D01*
X193973873Y-121592856D01*
X193879622Y-121701627D01*
X193819835Y-121832541D01*
X193799353Y-121975000D01*
X188525245Y-121975000D01*
X188571974Y-121862183D01*
X188590035Y-121725000D01*
X188571974Y-121587817D01*
X188533542Y-121495034D01*
X188519025Y-121459985D01*
X188519024Y-121459984D01*
X188519024Y-121459983D01*
X188502065Y-121437881D01*
X188478903Y-121377970D01*
X188491809Y-121315045D01*
X188502063Y-121299088D01*
X188509024Y-121290018D01*
X188561974Y-121162183D01*
X188580035Y-121025000D01*
X188572136Y-120965000D01*
X190369965Y-120965000D01*
X190388026Y-121102183D01*
X190440976Y-121230018D01*
X190525209Y-121339791D01*
X190634982Y-121424024D01*
X190762817Y-121476974D01*
X190900000Y-121495035D01*
X191037183Y-121476974D01*
X191165018Y-121424024D01*
X191274791Y-121339791D01*
X191359024Y-121230018D01*
X191411974Y-121102183D01*
X191430035Y-120965000D01*
X191411974Y-120827817D01*
X191406180Y-120813828D01*
X191359025Y-120699984D01*
X191359023Y-120699981D01*
X191274794Y-120590212D01*
X191274792Y-120590210D01*
X191274791Y-120590209D01*
X191165018Y-120505976D01*
X191037183Y-120453026D01*
X190900000Y-120434965D01*
X190762817Y-120453026D01*
X190762816Y-120453026D01*
X190762811Y-120453027D01*
X190634984Y-120505974D01*
X190634981Y-120505976D01*
X190525208Y-120590208D01*
X190440976Y-120699981D01*
X190440974Y-120699984D01*
X190388027Y-120827811D01*
X190388026Y-120827816D01*
X190388026Y-120827817D01*
X190369965Y-120965000D01*
X188572136Y-120965000D01*
X188561974Y-120887817D01*
X188561972Y-120887811D01*
X188509025Y-120759984D01*
X188509023Y-120759981D01*
X188483558Y-120726795D01*
X188460395Y-120666882D01*
X188460000Y-120657396D01*
X188460000Y-119500000D01*
X194754965Y-119500000D01*
X194773026Y-119637183D01*
X194825976Y-119765018D01*
X194910209Y-119874791D01*
X195019982Y-119959024D01*
X195147817Y-120011974D01*
X195285000Y-120030035D01*
X195422183Y-120011974D01*
X195550018Y-119959024D01*
X195659791Y-119874791D01*
X195744024Y-119765018D01*
X195781310Y-119675000D01*
X196404965Y-119675000D01*
X196423026Y-119812183D01*
X196475976Y-119940018D01*
X196560209Y-120049791D01*
X196669982Y-120134024D01*
X196797817Y-120186974D01*
X196935000Y-120205035D01*
X197072183Y-120186974D01*
X197200018Y-120134024D01*
X197309791Y-120049791D01*
X197394024Y-119940018D01*
X197446974Y-119812183D01*
X197465035Y-119675000D01*
X197446974Y-119537817D01*
X197446972Y-119537811D01*
X197394025Y-119409984D01*
X197394023Y-119409981D01*
X197309794Y-119300212D01*
X197309792Y-119300210D01*
X197309791Y-119300209D01*
X197200018Y-119215976D01*
X197072183Y-119163026D01*
X196935000Y-119144965D01*
X196797817Y-119163026D01*
X196797816Y-119163026D01*
X196797811Y-119163027D01*
X196669984Y-119215974D01*
X196669981Y-119215976D01*
X196560208Y-119300208D01*
X196475976Y-119409981D01*
X196475974Y-119409984D01*
X196423027Y-119537811D01*
X196423026Y-119537816D01*
X196423026Y-119537817D01*
X196404965Y-119675000D01*
X195781310Y-119675000D01*
X195796974Y-119637183D01*
X195815035Y-119500000D01*
X195796974Y-119362817D01*
X195791673Y-119350018D01*
X195744025Y-119234984D01*
X195744023Y-119234981D01*
X195727869Y-119213929D01*
X195704706Y-119154015D01*
X195717613Y-119091090D01*
X195723560Y-119085000D01*
X198249965Y-119085000D01*
X198268026Y-119222183D01*
X198320976Y-119350018D01*
X198405209Y-119459791D01*
X198514982Y-119544024D01*
X198642817Y-119596974D01*
X198724484Y-119607726D01*
X198783226Y-119633713D01*
X198814924Y-119677124D01*
X198840974Y-119740015D01*
X198840975Y-119740017D01*
X198840976Y-119740018D01*
X198925209Y-119849791D01*
X199034982Y-119934024D01*
X199162817Y-119986974D01*
X199300000Y-120005035D01*
X199437183Y-119986974D01*
X199565018Y-119934024D01*
X199674791Y-119849791D01*
X199759024Y-119740018D01*
X199811974Y-119612183D01*
X199830035Y-119475000D01*
X199811974Y-119337817D01*
X199796396Y-119300209D01*
X199759025Y-119209985D01*
X199759024Y-119209984D01*
X199759024Y-119209983D01*
X199733480Y-119176693D01*
X199710318Y-119116782D01*
X199723224Y-119053857D01*
X199754525Y-119016853D01*
X199792621Y-118987621D01*
X199880861Y-118872625D01*
X199936330Y-118738709D01*
X199955250Y-118595000D01*
X199936330Y-118451291D01*
X199929735Y-118435368D01*
X199880863Y-118317379D01*
X199880860Y-118317373D01*
X199792621Y-118202378D01*
X199677626Y-118114139D01*
X199677620Y-118114136D01*
X199543716Y-118058672D01*
X199543711Y-118058671D01*
X199543709Y-118058670D01*
X199400000Y-118039750D01*
X199256291Y-118058670D01*
X199256288Y-118058670D01*
X199256288Y-118058671D01*
X199256283Y-118058672D01*
X199122379Y-118114136D01*
X199122373Y-118114139D01*
X199007378Y-118202378D01*
X198919139Y-118317373D01*
X198919137Y-118317376D01*
X198863671Y-118451285D01*
X198863669Y-118451293D01*
X198862673Y-118458861D01*
X198836684Y-118517603D01*
X198783062Y-118552970D01*
X198764533Y-118557001D01*
X198642817Y-118573026D01*
X198642816Y-118573026D01*
X198642811Y-118573027D01*
X198514984Y-118625974D01*
X198514981Y-118625976D01*
X198405208Y-118710208D01*
X198320976Y-118819981D01*
X198320974Y-118819984D01*
X198268027Y-118947811D01*
X198268026Y-118947816D01*
X198268026Y-118947817D01*
X198249965Y-119085000D01*
X195723560Y-119085000D01*
X195762490Y-119045132D01*
X195825090Y-119030732D01*
X195833176Y-119031503D01*
X195860000Y-119035035D01*
X195997183Y-119016974D01*
X196125018Y-118964024D01*
X196234791Y-118879791D01*
X196319024Y-118770018D01*
X196371974Y-118642183D01*
X196390035Y-118505000D01*
X196371974Y-118367817D01*
X196371972Y-118367811D01*
X196319025Y-118239984D01*
X196319023Y-118239981D01*
X196234794Y-118130212D01*
X196234792Y-118130210D01*
X196234791Y-118130209D01*
X196125018Y-118045976D01*
X195997183Y-117993026D01*
X195860000Y-117974965D01*
X195722817Y-117993026D01*
X195722816Y-117993026D01*
X195722811Y-117993027D01*
X195594984Y-118045974D01*
X195594981Y-118045976D01*
X195485208Y-118130208D01*
X195400976Y-118239981D01*
X195400974Y-118239984D01*
X195348027Y-118367811D01*
X195348026Y-118367816D01*
X195348026Y-118367817D01*
X195329965Y-118505000D01*
X195348026Y-118642183D01*
X195400976Y-118770018D01*
X195400977Y-118770019D01*
X195400977Y-118770020D01*
X195417129Y-118791069D01*
X195440293Y-118850982D01*
X195427387Y-118913908D01*
X195382510Y-118959867D01*
X195319910Y-118974267D01*
X195311810Y-118973494D01*
X195285002Y-118969965D01*
X195285000Y-118969965D01*
X195147817Y-118988026D01*
X195147816Y-118988026D01*
X195147811Y-118988027D01*
X195019984Y-119040974D01*
X195019981Y-119040976D01*
X194910208Y-119125208D01*
X194825976Y-119234981D01*
X194825974Y-119234984D01*
X194773027Y-119362811D01*
X194773026Y-119362816D01*
X194773026Y-119362817D01*
X194754965Y-119500000D01*
X188460000Y-119500000D01*
X188460000Y-118082760D01*
X188460033Y-118082256D01*
X188460036Y-118067828D01*
X188460000Y-118067264D01*
X188460000Y-117825000D01*
X188357064Y-117757759D01*
X188328967Y-117731716D01*
X188304793Y-117700212D01*
X188304791Y-117700209D01*
X188206778Y-117625000D01*
X193429965Y-117625000D01*
X193448026Y-117762183D01*
X193500976Y-117890018D01*
X193585209Y-117999791D01*
X193694982Y-118084024D01*
X193822817Y-118136974D01*
X193960000Y-118155035D01*
X194097183Y-118136974D01*
X194225018Y-118084024D01*
X194334791Y-117999791D01*
X194419024Y-117890018D01*
X194419024Y-117890016D01*
X194423573Y-117884089D01*
X194424837Y-117885059D01*
X194464749Y-117846990D01*
X194522528Y-117835843D01*
X194522528Y-117835035D01*
X194526717Y-117835035D01*
X194527821Y-117834822D01*
X194529698Y-117835035D01*
X194529997Y-117835035D01*
X194529998Y-117835034D01*
X194530000Y-117835035D01*
X194667183Y-117816974D01*
X194795018Y-117764024D01*
X194904791Y-117679791D01*
X194989024Y-117570018D01*
X195041974Y-117442183D01*
X195060035Y-117305000D01*
X195041974Y-117167817D01*
X195041972Y-117167811D01*
X194989025Y-117039984D01*
X194989023Y-117039981D01*
X194904794Y-116930212D01*
X194904792Y-116930210D01*
X194904791Y-116930209D01*
X194795018Y-116845976D01*
X194667183Y-116793026D01*
X194530000Y-116774965D01*
X194392817Y-116793026D01*
X194392816Y-116793026D01*
X194392811Y-116793027D01*
X194264984Y-116845974D01*
X194264981Y-116845976D01*
X194155208Y-116930208D01*
X194066427Y-117045911D01*
X194065166Y-117044943D01*
X194025227Y-117083022D01*
X193967471Y-117094150D01*
X193967471Y-117094965D01*
X193963242Y-117094965D01*
X193962152Y-117095175D01*
X193960301Y-117094965D01*
X193960003Y-117094965D01*
X193960001Y-117094965D01*
X193960000Y-117094965D01*
X193822817Y-117113026D01*
X193822816Y-117113026D01*
X193822811Y-117113027D01*
X193694984Y-117165974D01*
X193694981Y-117165976D01*
X193585208Y-117250208D01*
X193500976Y-117359981D01*
X193500974Y-117359984D01*
X193448027Y-117487811D01*
X193448026Y-117487816D01*
X193448026Y-117487817D01*
X193429965Y-117625000D01*
X188206778Y-117625000D01*
X188195018Y-117615976D01*
X188067183Y-117563026D01*
X188067182Y-117563025D01*
X188060280Y-117560167D01*
X188060585Y-117559428D01*
X188037987Y-117549329D01*
X188020437Y-117537866D01*
X187978733Y-117489011D01*
X187969755Y-117457307D01*
X187966330Y-117431291D01*
X187966327Y-117431283D01*
X187910863Y-117297379D01*
X187910860Y-117297373D01*
X187822621Y-117182378D01*
X187707626Y-117094139D01*
X187707620Y-117094136D01*
X187573716Y-117038672D01*
X187573711Y-117038671D01*
X187573709Y-117038670D01*
X187430000Y-117019750D01*
X187429999Y-117019750D01*
X187303146Y-117036451D01*
X187239678Y-117026553D01*
X187225924Y-117018869D01*
X187220003Y-117015001D01*
X187220001Y-117015000D01*
X187220000Y-117015000D01*
X187219997Y-117015000D01*
X182600000Y-117024999D01*
X181010812Y-117024999D01*
X181011764Y-117021786D01*
X181013585Y-117016183D01*
X181258346Y-116325000D01*
X187774750Y-116325000D01*
X187793670Y-116468709D01*
X187793671Y-116468711D01*
X187793672Y-116468716D01*
X187849136Y-116602620D01*
X187849139Y-116602626D01*
X187937378Y-116717621D01*
X188052373Y-116805860D01*
X188052379Y-116805863D01*
X188186283Y-116861327D01*
X188186284Y-116861327D01*
X188186291Y-116861330D01*
X188330000Y-116880250D01*
X188473709Y-116861330D01*
X188607625Y-116805861D01*
X188722621Y-116717621D01*
X188810861Y-116602625D01*
X188845031Y-116520129D01*
X201844501Y-116520129D01*
X201844501Y-117609859D01*
X201844502Y-117609866D01*
X201847416Y-117634992D01*
X201847417Y-117634996D01*
X201892793Y-117737762D01*
X201892797Y-117737768D01*
X201972232Y-117817203D01*
X201972234Y-117817204D01*
X201972236Y-117817206D01*
X202075010Y-117862585D01*
X202100136Y-117865500D01*
X203189865Y-117865499D01*
X203214992Y-117862585D01*
X203317766Y-117817206D01*
X203365291Y-117769681D01*
X203421669Y-117738895D01*
X203485740Y-117743477D01*
X203506554Y-117753764D01*
X203565474Y-117790786D01*
X203565476Y-117790787D01*
X203565477Y-117790787D01*
X203565480Y-117790789D01*
X203735747Y-117850368D01*
X203795498Y-117857100D01*
X203915000Y-117870565D01*
X203915002Y-117870565D01*
X203915004Y-117870565D01*
X204004629Y-117860466D01*
X204094257Y-117850368D01*
X204264524Y-117790789D01*
X204417264Y-117694816D01*
X204544818Y-117567262D01*
X204640791Y-117414522D01*
X204700370Y-117244255D01*
X204717284Y-117094136D01*
X204720567Y-117065001D01*
X204720567Y-117064998D01*
X204700370Y-116885746D01*
X204698447Y-116880249D01*
X204640791Y-116715478D01*
X204640789Y-116715475D01*
X204640789Y-116715474D01*
X204640788Y-116715472D01*
X204544820Y-116562741D01*
X204544816Y-116562736D01*
X204417265Y-116435185D01*
X204417257Y-116435179D01*
X204401561Y-116425316D01*
X204359003Y-116377202D01*
X204354038Y-116345000D01*
X204974750Y-116345000D01*
X204993670Y-116488709D01*
X204993671Y-116488711D01*
X204993672Y-116488716D01*
X205049136Y-116622620D01*
X205049139Y-116622626D01*
X205137378Y-116737621D01*
X205252373Y-116825860D01*
X205252379Y-116825863D01*
X205386283Y-116881327D01*
X205386284Y-116881327D01*
X205386291Y-116881330D01*
X205530000Y-116900250D01*
X205673709Y-116881330D01*
X205807625Y-116825861D01*
X205817565Y-116818232D01*
X205877475Y-116795068D01*
X205940401Y-116807970D01*
X205956359Y-116818225D01*
X205992375Y-116845861D01*
X205992376Y-116845861D01*
X205992377Y-116845862D01*
X205992379Y-116845863D01*
X206126283Y-116901327D01*
X206126284Y-116901327D01*
X206126291Y-116901330D01*
X206270000Y-116920250D01*
X206413709Y-116901330D01*
X206547625Y-116845861D01*
X206662621Y-116757621D01*
X206750861Y-116642625D01*
X206806330Y-116508709D01*
X206825250Y-116365000D01*
X206806330Y-116221291D01*
X206801634Y-116209953D01*
X206750863Y-116087379D01*
X206750860Y-116087373D01*
X206662621Y-115972378D01*
X206547626Y-115884139D01*
X206547620Y-115884136D01*
X206413716Y-115828672D01*
X206413711Y-115828671D01*
X206413709Y-115828670D01*
X206270000Y-115809750D01*
X206126291Y-115828670D01*
X206126288Y-115828670D01*
X206126288Y-115828671D01*
X206126283Y-115828672D01*
X205992379Y-115884136D01*
X205992371Y-115884141D01*
X205982427Y-115891771D01*
X205922513Y-115914931D01*
X205859588Y-115902022D01*
X205843634Y-115891769D01*
X205807625Y-115864139D01*
X205807620Y-115864136D01*
X205673716Y-115808672D01*
X205673711Y-115808671D01*
X205673709Y-115808670D01*
X205530000Y-115789750D01*
X205386291Y-115808670D01*
X205386288Y-115808670D01*
X205386288Y-115808671D01*
X205386283Y-115808672D01*
X205252379Y-115864136D01*
X205252373Y-115864139D01*
X205137378Y-115952378D01*
X205049139Y-116067373D01*
X205049136Y-116067379D01*
X204993672Y-116201283D01*
X204993671Y-116201288D01*
X204993670Y-116201291D01*
X204974750Y-116345000D01*
X204354038Y-116345000D01*
X204349215Y-116313717D01*
X204356892Y-116285166D01*
X204411971Y-116152190D01*
X204411970Y-116152190D01*
X204411974Y-116152183D01*
X204430035Y-116015000D01*
X204411974Y-115877817D01*
X204411972Y-115877811D01*
X204359025Y-115749984D01*
X204359023Y-115749981D01*
X204274794Y-115640212D01*
X204274792Y-115640210D01*
X204274791Y-115640209D01*
X204165018Y-115555976D01*
X204037183Y-115503026D01*
X203900000Y-115484965D01*
X203762817Y-115503026D01*
X203762816Y-115503026D01*
X203762811Y-115503027D01*
X203634984Y-115555974D01*
X203634981Y-115555976D01*
X203525208Y-115640208D01*
X203440976Y-115749981D01*
X203440974Y-115749984D01*
X203388027Y-115877811D01*
X203388026Y-115877816D01*
X203388026Y-115877817D01*
X203369965Y-116015000D01*
X203376860Y-116067375D01*
X203388338Y-116154551D01*
X203378440Y-116218019D01*
X203335801Y-116266060D01*
X203273957Y-116283423D01*
X203229267Y-116273718D01*
X203214992Y-116267415D01*
X203214988Y-116267414D01*
X203186594Y-116264120D01*
X203186748Y-116262785D01*
X203131381Y-116242986D01*
X203092193Y-116192090D01*
X203085430Y-116135929D01*
X203100035Y-116025000D01*
X203081974Y-115887817D01*
X203081972Y-115887811D01*
X203029025Y-115759984D01*
X203029023Y-115759981D01*
X202944794Y-115650212D01*
X202944792Y-115650210D01*
X202944791Y-115650209D01*
X202835018Y-115565976D01*
X202707183Y-115513026D01*
X202570000Y-115494965D01*
X202432817Y-115513026D01*
X202432816Y-115513026D01*
X202432811Y-115513027D01*
X202304984Y-115565974D01*
X202304981Y-115565976D01*
X202195208Y-115650208D01*
X202110976Y-115759981D01*
X202110974Y-115759984D01*
X202058027Y-115887811D01*
X202058026Y-115887816D01*
X202058026Y-115887817D01*
X202039965Y-116025000D01*
X202058026Y-116162183D01*
X202058027Y-116162185D01*
X202059759Y-116168650D01*
X202058228Y-116232866D01*
X202022221Y-116286061D01*
X201995691Y-116302437D01*
X201972235Y-116312794D01*
X201972232Y-116312796D01*
X201892797Y-116392231D01*
X201892796Y-116392233D01*
X201847416Y-116495008D01*
X201847415Y-116495012D01*
X201844501Y-116520129D01*
X188845031Y-116520129D01*
X188866330Y-116468709D01*
X188885250Y-116325000D01*
X188866330Y-116181291D01*
X188858416Y-116162185D01*
X188810863Y-116047379D01*
X188810860Y-116047373D01*
X188722621Y-115932378D01*
X188607626Y-115844139D01*
X188607620Y-115844136D01*
X188473716Y-115788672D01*
X188473711Y-115788671D01*
X188473709Y-115788670D01*
X188330000Y-115769750D01*
X188186291Y-115788670D01*
X188186288Y-115788670D01*
X188186288Y-115788671D01*
X188186283Y-115788672D01*
X188052379Y-115844136D01*
X188052373Y-115844139D01*
X187937378Y-115932378D01*
X187849139Y-116047373D01*
X187849136Y-116047379D01*
X187793672Y-116181283D01*
X187793671Y-116181288D01*
X187793670Y-116181291D01*
X187774750Y-116325000D01*
X181258346Y-116325000D01*
X181265878Y-116303730D01*
X181268015Y-116298166D01*
X181278142Y-116273718D01*
X181474361Y-115800000D01*
X182524353Y-115800000D01*
X182544835Y-115942458D01*
X182604622Y-116073372D01*
X182604623Y-116073373D01*
X182698872Y-116182143D01*
X182698873Y-116182143D01*
X182698873Y-116182144D01*
X182728654Y-116201283D01*
X182819947Y-116259953D01*
X182958039Y-116300500D01*
X183101961Y-116300500D01*
X183240053Y-116259953D01*
X183361128Y-116182143D01*
X183455377Y-116073373D01*
X183515165Y-115942457D01*
X183535647Y-115800000D01*
X183528458Y-115750000D01*
X184549353Y-115750000D01*
X184569835Y-115892458D01*
X184629622Y-116023372D01*
X184629623Y-116023373D01*
X184723872Y-116132143D01*
X184723873Y-116132143D01*
X184723873Y-116132144D01*
X184770615Y-116162183D01*
X184844947Y-116209953D01*
X184983039Y-116250500D01*
X185126961Y-116250500D01*
X185265053Y-116209953D01*
X185386128Y-116132143D01*
X185480377Y-116023373D01*
X185540165Y-115892457D01*
X185560647Y-115750000D01*
X185540165Y-115607543D01*
X185480377Y-115476627D01*
X185386128Y-115367857D01*
X185386126Y-115367855D01*
X185265053Y-115290047D01*
X185265052Y-115290046D01*
X185126961Y-115249500D01*
X184983039Y-115249500D01*
X184844947Y-115290046D01*
X184844946Y-115290047D01*
X184723873Y-115367855D01*
X184723873Y-115367856D01*
X184629622Y-115476627D01*
X184569835Y-115607541D01*
X184549353Y-115750000D01*
X183528458Y-115750000D01*
X183515165Y-115657543D01*
X183455377Y-115526627D01*
X183361128Y-115417857D01*
X183361126Y-115417855D01*
X183240053Y-115340047D01*
X183240052Y-115340046D01*
X183101961Y-115299500D01*
X182958039Y-115299500D01*
X182819947Y-115340046D01*
X182819946Y-115340047D01*
X182698873Y-115417855D01*
X182698873Y-115417856D01*
X182604622Y-115526627D01*
X182544835Y-115657541D01*
X182524353Y-115800000D01*
X181474361Y-115800000D01*
X181557232Y-115599930D01*
X181559643Y-115594514D01*
X181807439Y-115075000D01*
X185924750Y-115075000D01*
X185943670Y-115218709D01*
X185943671Y-115218711D01*
X185943672Y-115218716D01*
X185999136Y-115352620D01*
X185999139Y-115352626D01*
X186087378Y-115467621D01*
X186202373Y-115555860D01*
X186202379Y-115555863D01*
X186336283Y-115611327D01*
X186336284Y-115611327D01*
X186336291Y-115611330D01*
X186480000Y-115630250D01*
X186623709Y-115611330D01*
X186757625Y-115555861D01*
X186872621Y-115467621D01*
X186960861Y-115352625D01*
X187016330Y-115218709D01*
X187022222Y-115173951D01*
X187048208Y-115115211D01*
X187101828Y-115079842D01*
X187166059Y-115079077D01*
X187216365Y-115110567D01*
X187217095Y-115109838D01*
X187220265Y-115113008D01*
X187220506Y-115113159D01*
X187220933Y-115113676D01*
X187222377Y-115115120D01*
X187337373Y-115203360D01*
X187337379Y-115203363D01*
X187471283Y-115258827D01*
X187471284Y-115258827D01*
X187471291Y-115258830D01*
X187615000Y-115277750D01*
X187758709Y-115258830D01*
X187892625Y-115203361D01*
X188007621Y-115115121D01*
X188095861Y-115000125D01*
X188151330Y-114866209D01*
X188170250Y-114722500D01*
X188167288Y-114700000D01*
X190874750Y-114700000D01*
X190893670Y-114843709D01*
X190893671Y-114843711D01*
X190893672Y-114843716D01*
X190949136Y-114977620D01*
X190949139Y-114977626D01*
X191037378Y-115092621D01*
X191152373Y-115180860D01*
X191152379Y-115180863D01*
X191286283Y-115236327D01*
X191286284Y-115236327D01*
X191286291Y-115236330D01*
X191430000Y-115255250D01*
X191573709Y-115236330D01*
X191707625Y-115180861D01*
X191822621Y-115092621D01*
X191910861Y-114977625D01*
X191966330Y-114843709D01*
X191985250Y-114700000D01*
X191966330Y-114556291D01*
X191959032Y-114538671D01*
X191910863Y-114422379D01*
X191910860Y-114422373D01*
X191822621Y-114307378D01*
X191707626Y-114219139D01*
X191707620Y-114219136D01*
X191573716Y-114163672D01*
X191573711Y-114163671D01*
X191573709Y-114163670D01*
X191430000Y-114144750D01*
X191286291Y-114163670D01*
X191286288Y-114163670D01*
X191286288Y-114163671D01*
X191286283Y-114163672D01*
X191152379Y-114219136D01*
X191152373Y-114219139D01*
X191037378Y-114307378D01*
X190949139Y-114422373D01*
X190949136Y-114422379D01*
X190893672Y-114556283D01*
X190893671Y-114556288D01*
X190893670Y-114556291D01*
X190874750Y-114700000D01*
X188167288Y-114700000D01*
X188151330Y-114578791D01*
X188151327Y-114578783D01*
X188095863Y-114444879D01*
X188095860Y-114444873D01*
X188007621Y-114329878D01*
X187892626Y-114241639D01*
X187892620Y-114241636D01*
X187758716Y-114186172D01*
X187758711Y-114186171D01*
X187758709Y-114186170D01*
X187615000Y-114167250D01*
X187471291Y-114186170D01*
X187471288Y-114186170D01*
X187471288Y-114186171D01*
X187471283Y-114186172D01*
X187337379Y-114241636D01*
X187337373Y-114241639D01*
X187222378Y-114329878D01*
X187134139Y-114444873D01*
X187134136Y-114444879D01*
X187078672Y-114578783D01*
X187078671Y-114578787D01*
X187078671Y-114578788D01*
X187078670Y-114578791D01*
X187072778Y-114623547D01*
X187046790Y-114682290D01*
X186993168Y-114717658D01*
X186928938Y-114718421D01*
X186878634Y-114686932D01*
X186877905Y-114687662D01*
X186874731Y-114684488D01*
X186874491Y-114684338D01*
X186874064Y-114683821D01*
X186872622Y-114682379D01*
X186757626Y-114594139D01*
X186757620Y-114594136D01*
X186623716Y-114538672D01*
X186623711Y-114538671D01*
X186623709Y-114538670D01*
X186480000Y-114519750D01*
X186336291Y-114538670D01*
X186336288Y-114538670D01*
X186336288Y-114538671D01*
X186336283Y-114538672D01*
X186202379Y-114594136D01*
X186202373Y-114594139D01*
X186087378Y-114682378D01*
X185999139Y-114797373D01*
X185999136Y-114797379D01*
X185943672Y-114931283D01*
X185943671Y-114931288D01*
X185943670Y-114931291D01*
X185924750Y-115075000D01*
X181807439Y-115075000D01*
X181885024Y-114912341D01*
X181887728Y-114907036D01*
X181909892Y-114866216D01*
X182248337Y-114242874D01*
X182251320Y-114237709D01*
X182282903Y-114186170D01*
X182321921Y-114122498D01*
X184114435Y-114122498D01*
X184114435Y-114122501D01*
X184134631Y-114301753D01*
X184194212Y-114472025D01*
X184194213Y-114472027D01*
X184290181Y-114624758D01*
X184290184Y-114624762D01*
X184417738Y-114752316D01*
X184417740Y-114752317D01*
X184417741Y-114752318D01*
X184570472Y-114848286D01*
X184570474Y-114848287D01*
X184570475Y-114848287D01*
X184570478Y-114848289D01*
X184740745Y-114907868D01*
X184780560Y-114912354D01*
X184919998Y-114928065D01*
X184920000Y-114928065D01*
X184920002Y-114928065D01*
X185009627Y-114917966D01*
X185099255Y-114907868D01*
X185269522Y-114848289D01*
X185422262Y-114752316D01*
X185549816Y-114624762D01*
X185645789Y-114472022D01*
X185705368Y-114301755D01*
X185725565Y-114122500D01*
X185705368Y-113943245D01*
X185645789Y-113772978D01*
X185645787Y-113772975D01*
X185645787Y-113772974D01*
X185645786Y-113772972D01*
X185608764Y-113714052D01*
X185591296Y-113652237D01*
X185610021Y-113590792D01*
X185624672Y-113572798D01*
X185672206Y-113525265D01*
X185717585Y-113422491D01*
X185720500Y-113397365D01*
X185720499Y-112425000D01*
X191599353Y-112425000D01*
X191619835Y-112567458D01*
X191679622Y-112698372D01*
X191679623Y-112698373D01*
X191773872Y-112807143D01*
X191773873Y-112807143D01*
X191773873Y-112807144D01*
X191791869Y-112818709D01*
X191894947Y-112884953D01*
X192033039Y-112925500D01*
X192176961Y-112925500D01*
X192315053Y-112884953D01*
X192436128Y-112807143D01*
X192530377Y-112698373D01*
X192541051Y-112675000D01*
X202524750Y-112675000D01*
X202543670Y-112818709D01*
X202543671Y-112818711D01*
X202543672Y-112818716D01*
X202599136Y-112952620D01*
X202599139Y-112952626D01*
X202687378Y-113067621D01*
X202802373Y-113155860D01*
X202802379Y-113155863D01*
X202936283Y-113211327D01*
X202936284Y-113211327D01*
X202936291Y-113211330D01*
X203080000Y-113230250D01*
X203223709Y-113211330D01*
X203357625Y-113155861D01*
X203472621Y-113067621D01*
X203560861Y-112952625D01*
X203616330Y-112818709D01*
X203635250Y-112675000D01*
X203616330Y-112531291D01*
X203576445Y-112434999D01*
X203560863Y-112397379D01*
X203560860Y-112397373D01*
X203472621Y-112282378D01*
X203357626Y-112194139D01*
X203357620Y-112194136D01*
X203223716Y-112138672D01*
X203223711Y-112138671D01*
X203223709Y-112138670D01*
X203080000Y-112119750D01*
X202936291Y-112138670D01*
X202936288Y-112138670D01*
X202936288Y-112138671D01*
X202936283Y-112138672D01*
X202802379Y-112194136D01*
X202802373Y-112194139D01*
X202687378Y-112282378D01*
X202599139Y-112397373D01*
X202599136Y-112397379D01*
X202543672Y-112531283D01*
X202543671Y-112531288D01*
X202543670Y-112531291D01*
X202524750Y-112675000D01*
X192541051Y-112675000D01*
X192590165Y-112567457D01*
X192610647Y-112425000D01*
X192590165Y-112282543D01*
X192530377Y-112151627D01*
X192436128Y-112042857D01*
X192436126Y-112042855D01*
X192315053Y-111965047D01*
X192315052Y-111965046D01*
X192176961Y-111924500D01*
X192033039Y-111924500D01*
X191894947Y-111965046D01*
X191894946Y-111965047D01*
X191773873Y-112042855D01*
X191773873Y-112042856D01*
X191679622Y-112151627D01*
X191619835Y-112282541D01*
X191599353Y-112425000D01*
X185720499Y-112425000D01*
X185720499Y-112307636D01*
X185717585Y-112282509D01*
X185717583Y-112282506D01*
X185717583Y-112282503D01*
X185672207Y-112179737D01*
X185672203Y-112179731D01*
X185592768Y-112100296D01*
X185592766Y-112100295D01*
X185592765Y-112100294D01*
X185489991Y-112054915D01*
X185489987Y-112054914D01*
X185464868Y-112052000D01*
X184375140Y-112052000D01*
X184375133Y-112052001D01*
X184350007Y-112054915D01*
X184350003Y-112054916D01*
X184247237Y-112100292D01*
X184247231Y-112100296D01*
X184167796Y-112179731D01*
X184167795Y-112179733D01*
X184122415Y-112282508D01*
X184122414Y-112282512D01*
X184119500Y-112307629D01*
X184119500Y-113397359D01*
X184119501Y-113397366D01*
X184122415Y-113422492D01*
X184122416Y-113422496D01*
X184167792Y-113525262D01*
X184167796Y-113525268D01*
X184215319Y-113572791D01*
X184246104Y-113629169D01*
X184241521Y-113693240D01*
X184231236Y-113714052D01*
X184194212Y-113772975D01*
X184134631Y-113943246D01*
X184114435Y-114122498D01*
X182321921Y-114122498D01*
X182646218Y-113593294D01*
X182649449Y-113588319D01*
X183077532Y-112965454D01*
X183080997Y-112960684D01*
X183541123Y-112361038D01*
X183544830Y-112356459D01*
X184035701Y-111781722D01*
X184039635Y-111777354D01*
X184559923Y-111229085D01*
X184564085Y-111224923D01*
X185112354Y-110704635D01*
X185116722Y-110700701D01*
X185263899Y-110575000D01*
X187774353Y-110575000D01*
X187794835Y-110717458D01*
X187854622Y-110848372D01*
X187854623Y-110848373D01*
X187948872Y-110957143D01*
X187948873Y-110957143D01*
X187948873Y-110957144D01*
X188009409Y-110996048D01*
X188069947Y-111034953D01*
X188208039Y-111075500D01*
X188351961Y-111075500D01*
X188490053Y-111034953D01*
X188505540Y-111025000D01*
X193944750Y-111025000D01*
X193963670Y-111168709D01*
X193963671Y-111168711D01*
X193963672Y-111168716D01*
X194019136Y-111302620D01*
X194019139Y-111302626D01*
X194107378Y-111417621D01*
X194222373Y-111505860D01*
X194222379Y-111505863D01*
X194356283Y-111561327D01*
X194356284Y-111561327D01*
X194356291Y-111561330D01*
X194500000Y-111580250D01*
X194643709Y-111561330D01*
X194777625Y-111505861D01*
X194892621Y-111417621D01*
X194980861Y-111302625D01*
X195036330Y-111168709D01*
X195051959Y-111050000D01*
X202324353Y-111050000D01*
X202344835Y-111192458D01*
X202404622Y-111323372D01*
X202404623Y-111323373D01*
X202498872Y-111432143D01*
X202498873Y-111432143D01*
X202498873Y-111432144D01*
X202559409Y-111471048D01*
X202619947Y-111509953D01*
X202758039Y-111550500D01*
X202901961Y-111550500D01*
X203040053Y-111509953D01*
X203161128Y-111432143D01*
X203255377Y-111323373D01*
X203315165Y-111192457D01*
X203335647Y-111050000D01*
X203315165Y-110907543D01*
X203255377Y-110776627D01*
X203161128Y-110667857D01*
X203161126Y-110667855D01*
X203040053Y-110590047D01*
X203040052Y-110590046D01*
X202901961Y-110549500D01*
X202758039Y-110549500D01*
X202619947Y-110590046D01*
X202619946Y-110590047D01*
X202498873Y-110667855D01*
X202498873Y-110667856D01*
X202404622Y-110776627D01*
X202344835Y-110907541D01*
X202324353Y-111050000D01*
X195051959Y-111050000D01*
X195055250Y-111025000D01*
X195036330Y-110881291D01*
X195022695Y-110848372D01*
X194980863Y-110747379D01*
X194980860Y-110747373D01*
X194892621Y-110632378D01*
X194777626Y-110544139D01*
X194777620Y-110544136D01*
X194643716Y-110488672D01*
X194643711Y-110488671D01*
X194643709Y-110488670D01*
X194500000Y-110469750D01*
X194356291Y-110488670D01*
X194356288Y-110488670D01*
X194356288Y-110488671D01*
X194356283Y-110488672D01*
X194222379Y-110544136D01*
X194222373Y-110544139D01*
X194107378Y-110632378D01*
X194019139Y-110747373D01*
X194019136Y-110747379D01*
X193963672Y-110881283D01*
X193963671Y-110881288D01*
X193963670Y-110881291D01*
X193944750Y-111025000D01*
X188505540Y-111025000D01*
X188611128Y-110957143D01*
X188705377Y-110848373D01*
X188765165Y-110717457D01*
X188785647Y-110575000D01*
X188765165Y-110432543D01*
X188705377Y-110301627D01*
X188611128Y-110192857D01*
X188611126Y-110192855D01*
X188490053Y-110115047D01*
X188490052Y-110115046D01*
X188351961Y-110074500D01*
X188208039Y-110074500D01*
X188069947Y-110115046D01*
X188069946Y-110115047D01*
X187948873Y-110192855D01*
X187948873Y-110192856D01*
X187854622Y-110301627D01*
X187794835Y-110432541D01*
X187774353Y-110575000D01*
X185263899Y-110575000D01*
X185691459Y-110209830D01*
X185696038Y-110206123D01*
X186295684Y-109745997D01*
X186300454Y-109742532D01*
X186923319Y-109314449D01*
X186928294Y-109311218D01*
X187068989Y-109225000D01*
X189649318Y-109225000D01*
X189667847Y-109365745D01*
X189669957Y-109381766D01*
X189730462Y-109527838D01*
X189730463Y-109527840D01*
X189730464Y-109527841D01*
X189826718Y-109653282D01*
X189952159Y-109749536D01*
X190098238Y-109810044D01*
X190255000Y-109830682D01*
X190411762Y-109810044D01*
X190557841Y-109749536D01*
X190683282Y-109653282D01*
X190720330Y-109605000D01*
X193694750Y-109605000D01*
X193713670Y-109748709D01*
X193713671Y-109748711D01*
X193713672Y-109748716D01*
X193769136Y-109882620D01*
X193769139Y-109882626D01*
X193857378Y-109997621D01*
X193972373Y-110085860D01*
X193972379Y-110085863D01*
X194106283Y-110141327D01*
X194106284Y-110141327D01*
X194106291Y-110141330D01*
X194250000Y-110160250D01*
X194393709Y-110141330D01*
X194527625Y-110085861D01*
X194642621Y-109997621D01*
X194730861Y-109882625D01*
X194786330Y-109748709D01*
X194805250Y-109605000D01*
X194786330Y-109461291D01*
X194753390Y-109381766D01*
X194730863Y-109327379D01*
X194730860Y-109327373D01*
X194642621Y-109212378D01*
X194527626Y-109124139D01*
X194527620Y-109124136D01*
X194393716Y-109068672D01*
X194393711Y-109068671D01*
X194393709Y-109068670D01*
X194250000Y-109049750D01*
X194106291Y-109068670D01*
X194106288Y-109068670D01*
X194106288Y-109068671D01*
X194106283Y-109068672D01*
X193972379Y-109124136D01*
X193972373Y-109124139D01*
X193857378Y-109212378D01*
X193769139Y-109327373D01*
X193769136Y-109327379D01*
X193713672Y-109461283D01*
X193713671Y-109461288D01*
X193713670Y-109461291D01*
X193694750Y-109605000D01*
X190720330Y-109605000D01*
X190779536Y-109527841D01*
X190840044Y-109381762D01*
X190860682Y-109225000D01*
X190840044Y-109068238D01*
X190801427Y-108975008D01*
X190779537Y-108922161D01*
X190779536Y-108922160D01*
X190779536Y-108922159D01*
X190683282Y-108796718D01*
X190557841Y-108700464D01*
X190557840Y-108700463D01*
X190557838Y-108700462D01*
X190411766Y-108639957D01*
X190411763Y-108639956D01*
X190411762Y-108639956D01*
X190255000Y-108619318D01*
X190098238Y-108639956D01*
X190098236Y-108639956D01*
X190098233Y-108639957D01*
X189952161Y-108700462D01*
X189826718Y-108796718D01*
X189730462Y-108922161D01*
X189669957Y-109068233D01*
X189669956Y-109068236D01*
X189669956Y-109068238D01*
X189649318Y-109225000D01*
X187068989Y-109225000D01*
X187572712Y-108916317D01*
X187577878Y-108913336D01*
X187643392Y-108877765D01*
X188242048Y-108552721D01*
X188247341Y-108550024D01*
X188929514Y-108224643D01*
X188934930Y-108222232D01*
X189350737Y-108050000D01*
X192649353Y-108050000D01*
X192669835Y-108192458D01*
X192729622Y-108323372D01*
X192729623Y-108323373D01*
X192823872Y-108432143D01*
X192823873Y-108432143D01*
X192823873Y-108432144D01*
X192884409Y-108471048D01*
X192944947Y-108509953D01*
X193083039Y-108550500D01*
X193226961Y-108550500D01*
X193365053Y-108509953D01*
X193486128Y-108432143D01*
X193580377Y-108323373D01*
X193634438Y-108204998D01*
X194379431Y-108204998D01*
X194379431Y-108205001D01*
X194399627Y-108384253D01*
X194459208Y-108554525D01*
X194459209Y-108554527D01*
X194555177Y-108707258D01*
X194555180Y-108707262D01*
X194682734Y-108834816D01*
X194682736Y-108834817D01*
X194682737Y-108834818D01*
X194835468Y-108930786D01*
X194835470Y-108930787D01*
X194835471Y-108930787D01*
X194835474Y-108930789D01*
X195005741Y-108990368D01*
X195065492Y-108997100D01*
X195184994Y-109010565D01*
X195184996Y-109010565D01*
X195184998Y-109010565D01*
X195274623Y-109000466D01*
X195364251Y-108990368D01*
X195534518Y-108930789D01*
X195534523Y-108930786D01*
X195593443Y-108893764D01*
X195655257Y-108876296D01*
X195716702Y-108895020D01*
X195734705Y-108909680D01*
X195782228Y-108957203D01*
X195782230Y-108957204D01*
X195782232Y-108957206D01*
X195885006Y-109002585D01*
X195910132Y-109005500D01*
X196999861Y-109005499D01*
X197024988Y-109002585D01*
X197030553Y-109000128D01*
X198064499Y-109000128D01*
X198064499Y-110089858D01*
X198064500Y-110089865D01*
X198067414Y-110114991D01*
X198067415Y-110114995D01*
X198112791Y-110217761D01*
X198112795Y-110217767D01*
X198192230Y-110297202D01*
X198192232Y-110297203D01*
X198192234Y-110297205D01*
X198295008Y-110342584D01*
X198320134Y-110345499D01*
X199409863Y-110345498D01*
X199434990Y-110342584D01*
X199537764Y-110297205D01*
X199585289Y-110249680D01*
X199641667Y-110218894D01*
X199705738Y-110223476D01*
X199726552Y-110233763D01*
X199785472Y-110270785D01*
X199785474Y-110270786D01*
X199785475Y-110270786D01*
X199785478Y-110270788D01*
X199955745Y-110330367D01*
X200015496Y-110337099D01*
X200134998Y-110350564D01*
X200135000Y-110350564D01*
X200135002Y-110350564D01*
X200224627Y-110340465D01*
X200314255Y-110330367D01*
X200484522Y-110270788D01*
X200637262Y-110174815D01*
X200764816Y-110047261D01*
X200860789Y-109894521D01*
X200920368Y-109724254D01*
X200940565Y-109544999D01*
X200938631Y-109527838D01*
X200920368Y-109365745D01*
X200920368Y-109365744D01*
X200860789Y-109195477D01*
X200860787Y-109195474D01*
X200860787Y-109195473D01*
X200860786Y-109195471D01*
X200764818Y-109042740D01*
X200764814Y-109042735D01*
X200637263Y-108915184D01*
X200637258Y-108915180D01*
X200484527Y-108819212D01*
X200484525Y-108819211D01*
X200314253Y-108759630D01*
X200135002Y-108739434D01*
X200134998Y-108739434D01*
X199955746Y-108759630D01*
X199785474Y-108819211D01*
X199726551Y-108856235D01*
X199664736Y-108873702D01*
X199603291Y-108854977D01*
X199585290Y-108840318D01*
X199537767Y-108792795D01*
X199537765Y-108792794D01*
X199537764Y-108792793D01*
X199434990Y-108747414D01*
X199434986Y-108747413D01*
X199409867Y-108744499D01*
X198320139Y-108744499D01*
X198320132Y-108744500D01*
X198295006Y-108747414D01*
X198295002Y-108747415D01*
X198192236Y-108792791D01*
X198192230Y-108792795D01*
X198112795Y-108872230D01*
X198112794Y-108872232D01*
X198112793Y-108872233D01*
X198112793Y-108872234D01*
X198110351Y-108877765D01*
X198067414Y-108975007D01*
X198067413Y-108975011D01*
X198064499Y-109000128D01*
X197030553Y-109000128D01*
X197127762Y-108957206D01*
X197207203Y-108877765D01*
X197252582Y-108774991D01*
X197255497Y-108749865D01*
X197255496Y-107660136D01*
X197252582Y-107635009D01*
X197252580Y-107635006D01*
X197252580Y-107635003D01*
X197207204Y-107532237D01*
X197207200Y-107532231D01*
X197127765Y-107452796D01*
X197127763Y-107452795D01*
X197127762Y-107452794D01*
X197024988Y-107407415D01*
X197024984Y-107407414D01*
X196999865Y-107404500D01*
X195910137Y-107404500D01*
X195910130Y-107404501D01*
X195885004Y-107407415D01*
X195885000Y-107407416D01*
X195782234Y-107452792D01*
X195782228Y-107452796D01*
X195734704Y-107500320D01*
X195678326Y-107531104D01*
X195614255Y-107526521D01*
X195593444Y-107516236D01*
X195534521Y-107479212D01*
X195364249Y-107419631D01*
X195184998Y-107399435D01*
X195184994Y-107399435D01*
X195005742Y-107419631D01*
X194835470Y-107479212D01*
X194835468Y-107479213D01*
X194682737Y-107575181D01*
X194682732Y-107575185D01*
X194555181Y-107702736D01*
X194555177Y-107702741D01*
X194459209Y-107855472D01*
X194459208Y-107855474D01*
X194399627Y-108025746D01*
X194379431Y-108204998D01*
X193634438Y-108204998D01*
X193640165Y-108192457D01*
X193660647Y-108050000D01*
X193640165Y-107907543D01*
X193580377Y-107776627D01*
X193486128Y-107667857D01*
X193486126Y-107667855D01*
X193365053Y-107590047D01*
X193365052Y-107590046D01*
X193226961Y-107549500D01*
X193083039Y-107549500D01*
X192944947Y-107590046D01*
X192944946Y-107590047D01*
X192823873Y-107667855D01*
X192823873Y-107667856D01*
X192729622Y-107776627D01*
X192669835Y-107907541D01*
X192649353Y-108050000D01*
X189350737Y-108050000D01*
X189633173Y-107933012D01*
X189638730Y-107930878D01*
X190351183Y-107678585D01*
X190356786Y-107676764D01*
X191081463Y-107462105D01*
X191087191Y-107460570D01*
X191822099Y-107284134D01*
X191827907Y-107282900D01*
X192571024Y-107145171D01*
X192576901Y-107144240D01*
X193326236Y-107045589D01*
X193332101Y-107044972D01*
X194085596Y-106985671D01*
X194091501Y-106985362D01*
X194847021Y-106965578D01*
X194852979Y-106965578D01*
X195608496Y-106985362D01*
G37*
G04 #@! TD.AperFunction*
M02*
