M48
; DRILL file {KiCad 8.0.6} date 2025-07-21T23:52:02+0200
; FORMAT={-:-/ absolute / metric / decimal}
; #@! TF.CreationDate,2025-07-21T23:52:02+02:00
; #@! TF.GenerationSoftware,Kicad,Pcbnew,8.0.6
; #@! TF.FileFunction,Plated,1,4,PTH
FMAT,2
METRIC
; #@! TA.AperFunction,Plated,PTH,ViaDrill
T1C0.300
; #@! TA.AperFunction,Plated,PTH,ComponentDrill
T2C0.600
; #@! TA.AperFunction,Plated,PTH,ComponentDrill
T3C0.650
%
G90
G05
T1
X136.925Y-122.125
X136.975Y-126.25
X138.425Y-117.725
X138.6Y-120.725
X138.6Y-123.775
X138.6Y-126.95
X139.25Y-129.975
X139.75Y-126.2
X140.075Y-122.25
X140.975Y-114.425
X141.525Y-116.825
X141.7Y-125.575
X141.825Y-122.6
X142.55Y-112.45
X143.225Y-135.4
X144.35Y-136.325
X144.7Y-121.15
X144.825Y-112.475
X144.925Y-116.775
X145.025Y-135.375
X145.175Y-133.825
X145.2Y-130.35
X145.438Y-119.637
X145.75Y-126.875
X146.012Y-123.137
X146.375Y-113.525
X146.5Y-116.0
X146.75Y-129.9
X146.95Y-112.55
X147.25Y-126.85
X147.25Y-131.175
X147.375Y-121.35
X148.025Y-113.125
X148.275Y-120.3
X148.35Y-132.7
X148.575Y-118.875
X148.625Y-117.85
X148.65Y-131.825
X148.725Y-126.8
X148.85Y-133.824
X149.55Y-126.85
X149.6Y-129.2
X149.625Y-135.3
X149.925Y-127.775
X150.812Y-132.662
X150.975Y-136.9
X151.2Y-123.85
X151.45Y-133.575
X151.45Y-134.675
X151.65Y-130.475
X151.75Y-124.325
X151.847Y-123.708
X152.1Y-129.325
X152.275Y-137.4
X152.475Y-136.1
X152.6Y-119.85
X153.4Y-122.35
X153.75Y-128.675
X153.824Y-132.324
X153.925Y-136.925
X153.95Y-126.825
X154.5Y-122.4
X154.575Y-135.225
X155.0Y-134.275
X155.7Y-129.075
X156.025Y-130.3
X157.15Y-129.75
X157.175Y-127.85
X158.325Y-126.625
X158.45Y-132.65
X159.4Y-125.125
X159.85Y-133.85
X160.0Y-122.725
X160.225Y-114.625
X160.275Y-115.825
X160.65Y-119.55
X160.975Y-125.625
X161.4Y-122.2
X161.625Y-131.325
X161.725Y-130.3
X161.775Y-125.675
X162.15Y-119.775
X162.8Y-128.725
X162.925Y-127.25
X163.525Y-120.725
X163.55Y-123.55
X163.575Y-126.35
X181.555Y-119.975
X182.805Y-127.7
X183.03Y-115.8
X183.18Y-117.575
X183.19Y-118.225
X183.2Y-118.845
X183.2Y-119.525
X183.21Y-120.185
X183.41Y-126.315
X183.8Y-117.595
X183.805Y-120.78
X184.13Y-128.75
X184.345Y-121.32
X184.43Y-117.575
X184.62Y-125.815
X184.96Y-121.935
X185.055Y-115.75
X185.18Y-117.575
X185.31Y-129.715
X185.68Y-122.215
X185.93Y-117.575
X186.41Y-122.205
X186.48Y-115.075
X186.58Y-117.575
X186.99Y-128.935
X187.04Y-122.205
X187.1Y-123.795
X187.43Y-117.575
X187.615Y-114.722
X187.65Y-122.185
X187.93Y-118.075
X188.05Y-121.025
X188.06Y-121.725
X188.28Y-110.575
X188.33Y-116.325
X189.055Y-112.093
X189.66Y-129.705
X190.17Y-116.435
X190.19Y-117.015
X190.255Y-109.225
X190.63Y-130.65
X190.63Y-131.8
X190.63Y-134.55
X190.705Y-133.025
X190.73Y-116.425
X190.73Y-117.955
X190.74Y-117.005
X190.86Y-123.275
X190.86Y-123.975
X190.9Y-120.965
X191.255Y-109.25
X191.32Y-117.935
X191.35Y-117.335
X191.43Y-114.7
X191.59Y-125.445
X191.6Y-126.025
X191.93Y-133.375
X192.105Y-112.425
X192.55Y-126.015
X192.81Y-133.305
X193.155Y-108.05
X193.46Y-130.295
X193.55Y-129.225
X193.96Y-117.625
X194.22Y-134.915
X194.25Y-109.605
X194.305Y-121.975
X194.42Y-125.185
X194.5Y-111.025
X194.53Y-117.305
X194.78Y-132.445
X194.98Y-124.795
X194.98Y-125.805
X195.285Y-119.5
X195.41Y-132.254
X195.45Y-135.395
X195.46Y-125.325
X195.86Y-118.505
X196.25Y-135.375
X196.27Y-132.234
X196.675Y-113.505
X196.89Y-129.845
X196.935Y-119.675
X196.94Y-132.445
X197.065Y-125.965
X197.43Y-122.675
X197.48Y-134.915
X197.62Y-125.585
X198.22Y-123.345
X198.45Y-132.465
X198.61Y-133.304
X198.78Y-119.085
X199.3Y-119.475
X199.367Y-117.896
X199.4Y-118.595
X199.42Y-127.385
X199.43Y-128.035
X199.5Y-126.095
X199.505Y-121.475
X199.51Y-125.495
X199.51Y-126.695
X200.17Y-116.115
X200.17Y-126.535
X200.18Y-116.745
X200.18Y-117.335
X200.83Y-116.115
X200.84Y-117.345
X200.85Y-116.735
X202.56Y-132.565
X202.57Y-116.025
X202.65Y-126.535
X202.65Y-127.265
X202.83Y-111.05
X203.08Y-112.675
X203.2Y-127.275
X203.24Y-126.535
X203.75Y-127.285
X203.9Y-116.015
X204.04Y-123.865
X204.38Y-130.825
X204.48Y-112.435
X205.48Y-119.675
X205.53Y-116.345
X205.64Y-121.205
X206.27Y-116.365
X207.53Y-125.35
X208.03Y-120.175
T3
X181.81Y-124.045
X181.81Y-125.315
X184.92Y-112.852
X184.92Y-114.122
X187.72Y-133.1
X188.99Y-133.1
X191.96Y-131.715
X193.23Y-131.715
X195.185Y-108.205
X196.455Y-108.205
X198.865Y-109.545
X200.135Y-109.545
X202.645Y-117.065
X203.915Y-117.065
X205.735Y-113.28
X205.735Y-114.55
X208.445Y-121.61
X208.445Y-122.88
T2
X139.212Y-119.496G85X138.012Y-119.496
G05
X139.212Y-128.136G85X138.012Y-128.136
G05
X143.012Y-119.496G85X142.212Y-119.496
G05
X143.012Y-128.136G85X142.212Y-128.136
G05
M30
