G04 #@! TF.GenerationSoftware,KiCad,Pcbnew,8.0.6*
G04 #@! TF.CreationDate,2025-07-21T23:51:58+02:00*
G04 #@! TF.ProjectId,nRF5340,6e524635-3334-4302-9e6b-696361645f70,rev?*
G04 #@! TF.SameCoordinates,Original*
G04 #@! TF.FileFunction,Copper,L4,Bot*
G04 #@! TF.FilePolarity,Positive*
%FSLAX46Y46*%
G04 Gerber Fmt 4.6, Leading zero omitted, Abs format (unit mm)*
G04 Created by KiCad (PCBNEW 8.0.6) date 2025-07-21 23:51:58*
%MOMM*%
%LPD*%
G01*
G04 APERTURE LIST*
G04 Aperture macros list*
%AMRoundRect*
0 Rectangle with rounded corners*
0 $1 Rounding radius*
0 $2 $3 $4 $5 $6 $7 $8 $9 X,Y pos of 4 corners*
0 Add a 4 corners polygon primitive as box body*
4,1,4,$2,$3,$4,$5,$6,$7,$8,$9,$2,$3,0*
0 Add four circle primitives for the rounded corners*
1,1,$1+$1,$2,$3*
1,1,$1+$1,$4,$5*
1,1,$1+$1,$6,$7*
1,1,$1+$1,$8,$9*
0 Add four rect primitives between the rounded corners*
20,1,$1+$1,$2,$3,$4,$5,0*
20,1,$1+$1,$4,$5,$6,$7,0*
20,1,$1+$1,$6,$7,$8,$9,0*
20,1,$1+$1,$8,$9,$2,$3,0*%
%AMRotRect*
0 Rectangle, with rotation*
0 The origin of the aperture is its center*
0 $1 length*
0 $2 width*
0 $3 Rotation angle, in degrees counterclockwise*
0 Add horizontal line*
21,1,$1,$2,0,0,$3*%
G04 Aperture macros list end*
G04 #@! TA.AperFunction,ComponentPad*
%ADD10R,1.000000X1.000000*%
G04 #@! TD*
G04 #@! TA.AperFunction,ComponentPad*
%ADD11O,1.000000X1.000000*%
G04 #@! TD*
G04 #@! TA.AperFunction,SMDPad,CuDef*
%ADD12R,1.000000X1.000000*%
G04 #@! TD*
G04 #@! TA.AperFunction,SMDPad,CuDef*
%ADD13RoundRect,0.237500X-0.250000X-0.237500X0.250000X-0.237500X0.250000X0.237500X-0.250000X0.237500X0*%
G04 #@! TD*
G04 #@! TA.AperFunction,SMDPad,CuDef*
%ADD14R,0.990600X0.711200*%
G04 #@! TD*
G04 #@! TA.AperFunction,SMDPad,CuDef*
%ADD15RoundRect,0.237500X0.237500X-0.300000X0.237500X0.300000X-0.237500X0.300000X-0.237500X-0.300000X0*%
G04 #@! TD*
G04 #@! TA.AperFunction,SMDPad,CuDef*
%ADD16R,1.250000X0.500000*%
G04 #@! TD*
G04 #@! TA.AperFunction,SMDPad,CuDef*
%ADD17RoundRect,0.200000X-0.275000X0.200000X-0.275000X-0.200000X0.275000X-0.200000X0.275000X0.200000X0*%
G04 #@! TD*
G04 #@! TA.AperFunction,SMDPad,CuDef*
%ADD18RoundRect,0.200000X0.275000X-0.200000X0.275000X0.200000X-0.275000X0.200000X-0.275000X-0.200000X0*%
G04 #@! TD*
G04 #@! TA.AperFunction,SMDPad,CuDef*
%ADD19R,0.600000X1.550000*%
G04 #@! TD*
G04 #@! TA.AperFunction,SMDPad,CuDef*
%ADD20R,1.200000X1.800000*%
G04 #@! TD*
G04 #@! TA.AperFunction,SMDPad,CuDef*
%ADD21RotRect,1.000000X1.000000X225.000000*%
G04 #@! TD*
G04 #@! TA.AperFunction,ConnectorPad*
%ADD22C,0.787400*%
G04 #@! TD*
G04 #@! TA.AperFunction,ComponentPad*
%ADD23O,1.800000X1.000000*%
G04 #@! TD*
G04 #@! TA.AperFunction,ComponentPad*
%ADD24O,2.200000X1.000000*%
G04 #@! TD*
G04 #@! TA.AperFunction,SMDPad,CuDef*
%ADD25R,1.500000X1.500000*%
G04 #@! TD*
G04 #@! TA.AperFunction,SMDPad,CuDef*
%ADD26R,1.550000X0.600000*%
G04 #@! TD*
G04 #@! TA.AperFunction,SMDPad,CuDef*
%ADD27R,1.800000X1.200000*%
G04 #@! TD*
G04 #@! TA.AperFunction,ViaPad*
%ADD28C,0.450000*%
G04 #@! TD*
G04 #@! TA.AperFunction,ViaPad*
%ADD29C,0.500000*%
G04 #@! TD*
G04 #@! TA.AperFunction,ViaPad*
%ADD30C,0.600000*%
G04 #@! TD*
G04 #@! TA.AperFunction,ViaPad*
%ADD31C,0.400000*%
G04 #@! TD*
G04 #@! TA.AperFunction,Conductor*
%ADD32C,0.300000*%
G04 #@! TD*
G04 #@! TA.AperFunction,Conductor*
%ADD33C,0.200000*%
G04 #@! TD*
G04 #@! TA.AperFunction,Conductor*
%ADD34C,0.500000*%
G04 #@! TD*
G04 #@! TA.AperFunction,Conductor*
%ADD35C,0.250000*%
G04 #@! TD*
G04 #@! TA.AperFunction,Conductor*
%ADD36C,0.160000*%
G04 #@! TD*
G04 APERTURE END LIST*
D10*
X187720000Y-133100000D03*
D11*
X188990001Y-133100000D03*
D12*
X200880000Y-111350000D03*
D13*
X198642500Y-113125000D03*
X200467500Y-113125000D03*
D14*
X186149996Y-129704998D03*
X190649999Y-129704998D03*
X186149997Y-127555000D03*
X190650000Y-127555000D03*
D12*
X204410000Y-114715000D03*
X187480000Y-131355000D03*
X189130000Y-131355000D03*
X192700000Y-134285000D03*
D15*
X194380000Y-115312500D03*
X194380000Y-113587500D03*
D12*
X186485000Y-114172500D03*
D16*
X196030002Y-116499998D03*
X196030000Y-115550000D03*
X196029998Y-114599998D03*
X198529998Y-114600002D03*
X198530002Y-116500002D03*
D17*
X191905000Y-127240000D03*
X191905000Y-128890000D03*
D18*
X184905000Y-128875000D03*
X184905000Y-127225000D03*
D12*
X183360000Y-125485000D03*
D19*
X191255000Y-110425000D03*
X190255000Y-110425000D03*
D20*
X192555000Y-114300000D03*
X188955000Y-114300000D03*
D12*
X196700000Y-109705000D03*
D21*
X202230000Y-128415000D03*
D12*
X204420000Y-113285000D03*
X194090000Y-118665000D03*
D22*
X203854074Y-130296973D03*
X202956052Y-129398949D03*
X202956051Y-131195000D03*
X202058025Y-130296974D03*
X202058024Y-132093025D03*
X201160002Y-131195001D03*
D12*
X204040000Y-118425000D03*
X194090000Y-120695000D03*
X195020000Y-109715000D03*
D19*
X204080000Y-120150000D03*
X203080000Y-120150000D03*
D20*
X205380000Y-124025000D03*
X201780000Y-124025000D03*
D12*
X192070000Y-120715000D03*
X206980000Y-122975000D03*
X202530000Y-118415000D03*
X192070000Y-118665000D03*
D21*
X200270000Y-130335000D03*
D12*
X206970000Y-121305000D03*
D21*
X201260000Y-129365000D03*
D12*
X183350000Y-123765000D03*
D10*
X198864999Y-109544999D03*
D11*
X200135000Y-109544999D03*
D12*
X186485000Y-112522500D03*
D10*
X196454997Y-108205000D03*
D11*
X195184996Y-108205000D03*
D12*
X198960000Y-134235000D03*
X198855000Y-111375000D03*
D10*
X202645001Y-117065000D03*
D11*
X203915002Y-117065000D03*
D10*
X181810000Y-124045000D03*
D11*
X181810000Y-125315000D03*
D10*
X193230001Y-131715001D03*
D11*
X191960000Y-131715001D03*
D10*
X208444999Y-122879999D03*
D11*
X208444999Y-121609998D03*
D10*
X205734998Y-114550001D03*
D11*
X205734998Y-113280000D03*
D10*
X184920000Y-112852500D03*
D11*
X184920000Y-114122500D03*
D23*
X142612499Y-119495748D03*
D24*
X138612498Y-119495747D03*
D23*
X142612499Y-128135750D03*
D24*
X138612498Y-128135753D03*
D25*
X156175000Y-122800000D03*
D19*
X154875001Y-130249999D03*
X153875000Y-130250000D03*
D20*
X156175000Y-134125000D03*
X152575000Y-134125000D03*
D25*
X158725000Y-122800000D03*
X152300000Y-127900000D03*
X144700003Y-123124999D03*
D19*
X146650001Y-125024998D03*
X145650001Y-125024998D03*
D20*
X147950000Y-128900000D03*
X144350000Y-128900000D03*
D22*
X145980004Y-119089996D03*
X147250001Y-119089998D03*
X145980002Y-117819998D03*
X147250002Y-117819998D03*
X145980003Y-116549998D03*
X147250000Y-116550000D03*
D26*
X155425000Y-118374999D03*
X155424999Y-119375001D03*
D27*
X159300000Y-117075000D03*
X159300000Y-120675000D03*
D25*
X147375000Y-123100000D03*
X155475000Y-127925000D03*
D28*
X195409951Y-132254301D03*
X194980000Y-125805000D03*
X190900000Y-120965000D03*
X194420000Y-125185000D03*
X199505000Y-121475000D03*
X198610000Y-133304301D03*
D29*
X190730000Y-116425000D03*
D28*
X193960000Y-117625000D03*
D29*
X200180000Y-117335000D03*
X199510000Y-126695000D03*
X199366705Y-117895790D03*
X192550000Y-126015000D03*
D28*
X195860000Y-118505000D03*
X199300000Y-119475000D03*
X198220000Y-123345000D03*
D29*
X204039999Y-123865001D03*
D28*
X196269951Y-132234301D03*
X192810000Y-133305000D03*
D29*
X200180000Y-116745000D03*
D28*
X184130000Y-128750000D03*
D29*
X187100000Y-123795000D03*
X200170000Y-116115000D03*
X205480000Y-119675000D03*
X200840000Y-117345000D03*
X194219950Y-134915000D03*
X199510000Y-125495000D03*
D30*
X191255000Y-109250000D03*
D29*
X190860000Y-123975000D03*
D28*
X204380000Y-130825000D03*
D29*
X200830000Y-116115000D03*
X197479950Y-134915000D03*
X189055000Y-112092500D03*
X199500000Y-126095000D03*
D28*
X191320000Y-117935000D03*
D29*
X200170000Y-126535000D03*
D28*
X195285000Y-119500000D03*
X183210000Y-120185000D03*
X187930000Y-118075000D03*
D29*
X186990000Y-128935000D03*
D28*
X184960000Y-121935000D03*
D31*
X193155000Y-108050000D03*
D29*
X187615000Y-114722500D03*
X193550000Y-129225000D03*
X191590000Y-125445000D03*
D31*
X185055000Y-115750000D03*
D28*
X185310000Y-129715000D03*
D29*
X190705000Y-133025000D03*
D28*
X183200000Y-119525000D03*
D29*
X190740000Y-117005000D03*
X196674997Y-113505003D03*
X200850000Y-116735000D03*
D28*
X194530000Y-117305000D03*
D29*
X191350000Y-117335000D03*
X202650000Y-126535000D03*
D28*
X183180000Y-117575000D03*
X195449951Y-135395000D03*
D29*
X191600000Y-126025000D03*
X203080000Y-112675000D03*
D28*
X187040000Y-122205000D03*
D29*
X190190000Y-117015000D03*
D28*
X185680000Y-122215000D03*
X196249951Y-135375000D03*
X185930000Y-117575000D03*
D29*
X193460000Y-130295000D03*
X190630000Y-130650000D03*
D28*
X197620000Y-125585000D03*
D31*
X207530000Y-125350000D03*
X194305000Y-121975000D03*
D29*
X194500000Y-111025000D03*
X195460000Y-125325000D03*
X190170000Y-116435000D03*
X190860000Y-123275000D03*
D28*
X187650000Y-122185000D03*
D29*
X190730000Y-117955000D03*
D28*
X197065000Y-125965000D03*
X188050000Y-121025000D03*
X196940000Y-132445000D03*
D29*
X199400000Y-118595000D03*
X183410000Y-126315000D03*
D31*
X192105000Y-112425000D03*
D28*
X202560000Y-132565000D03*
D29*
X187430000Y-117575000D03*
D28*
X183800000Y-117595000D03*
X185180000Y-117575000D03*
X202570000Y-116025000D03*
D29*
X203200000Y-127275000D03*
D28*
X183200000Y-118845000D03*
X203900000Y-116015000D03*
X199430000Y-128035000D03*
X184430000Y-117575000D03*
D31*
X183030000Y-115800000D03*
X208030000Y-120175000D03*
D29*
X204480000Y-112435000D03*
X203240000Y-126535000D03*
X190630000Y-131800000D03*
D28*
X198780000Y-119085000D03*
D29*
X202650000Y-127265000D03*
D31*
X181555000Y-119975000D03*
D28*
X196890000Y-129845000D03*
D31*
X190630000Y-134550000D03*
D29*
X186580000Y-117575000D03*
D28*
X196935000Y-119675000D03*
X189660000Y-129705000D03*
X198450000Y-132465000D03*
X183190000Y-118225000D03*
D31*
X188280000Y-110575000D03*
D30*
X190255000Y-109225000D03*
D29*
X203750000Y-127285000D03*
D28*
X191930000Y-133375000D03*
D29*
X206270000Y-116365000D03*
X191430000Y-114700000D03*
X205640000Y-121205000D03*
X205530000Y-116345000D03*
D28*
X197430000Y-122675000D03*
X183805000Y-120780000D03*
D29*
X194250000Y-109605000D03*
X188330000Y-116325000D03*
D28*
X188060000Y-121725000D03*
X186410000Y-122205000D03*
D29*
X184620000Y-125815000D03*
D28*
X199420000Y-127385000D03*
X194780000Y-132445000D03*
D31*
X202830000Y-111050000D03*
D29*
X186480000Y-115075000D03*
D28*
X184345000Y-121320000D03*
D29*
X194980000Y-124795000D03*
D31*
X182805000Y-127700000D03*
D28*
X144925000Y-116775000D03*
X149550000Y-126850000D03*
D31*
X144350000Y-136325000D03*
D28*
X144700000Y-121150000D03*
D31*
X141525000Y-116825000D03*
D28*
X151450000Y-133575000D03*
X161775000Y-125675000D03*
X138600000Y-126950000D03*
X160000000Y-122725000D03*
X160225000Y-114625000D03*
D31*
X136975000Y-126250000D03*
D28*
X149925000Y-127775000D03*
X159850000Y-133850000D03*
D31*
X140075000Y-122250000D03*
X152275000Y-137400000D03*
D28*
X161625000Y-131325000D03*
D31*
X163525000Y-120725000D03*
X138600000Y-123775000D03*
D28*
X150975000Y-136900000D03*
X146500000Y-116000000D03*
X156025000Y-130300000D03*
X151847477Y-123707646D03*
X145175000Y-133825000D03*
X151450000Y-134675000D03*
D31*
X144825000Y-112475000D03*
D28*
X140975000Y-114425000D03*
X162150000Y-119775000D03*
X146012500Y-123137500D03*
D31*
X148275000Y-120300000D03*
D28*
X153925000Y-136925000D03*
D31*
X146950000Y-112550000D03*
D28*
X148850000Y-133824302D03*
X160275000Y-115825000D03*
X155700000Y-129075000D03*
X150812150Y-132662150D03*
X148350000Y-132700000D03*
X147250000Y-126850000D03*
D31*
X136925000Y-122125000D03*
X139750000Y-126200000D03*
D28*
X158325000Y-126625000D03*
X148725000Y-126800000D03*
X151650000Y-130475000D03*
D31*
X163575000Y-126350000D03*
D28*
X153400000Y-122350000D03*
X148025000Y-113125000D03*
D31*
X163550000Y-123550000D03*
D28*
X138600000Y-120725000D03*
D31*
X161725000Y-130300000D03*
X158450000Y-132650000D03*
D28*
X138425000Y-117725000D03*
D31*
X142550000Y-112450000D03*
D28*
X153750000Y-128675000D03*
X145750000Y-126875000D03*
X154500000Y-122400000D03*
D31*
X151750000Y-124325000D03*
D28*
X160975000Y-125625000D03*
X145025000Y-135375000D03*
X139250000Y-129975000D03*
X145437500Y-119637500D03*
X147375000Y-121350000D03*
X160650000Y-119550000D03*
X154575000Y-135225000D03*
X162925000Y-127250000D03*
X161400000Y-122200000D03*
X146375000Y-113525000D03*
X162800000Y-128725000D03*
X152100000Y-129325000D03*
D31*
X149600000Y-129200000D03*
X143225000Y-135400000D03*
X149625000Y-135300000D03*
X145200000Y-130350000D03*
X146750000Y-129900000D03*
X157150000Y-129750000D03*
X157175000Y-127850000D03*
X153824301Y-132324301D03*
X155000000Y-134275000D03*
X141825000Y-122600000D03*
X148650000Y-131825000D03*
X147250000Y-131175000D03*
X141700000Y-125575000D03*
X152475000Y-136100000D03*
X159400000Y-125125000D03*
D28*
X148625000Y-117850000D03*
X152600000Y-119850000D03*
X148575000Y-118875000D03*
X153950000Y-126825000D03*
X151200000Y-123850002D03*
D32*
X199505000Y-121475000D02*
X199505000Y-120625000D01*
X194617500Y-115550000D02*
X196030000Y-115550000D01*
X201480000Y-115550000D02*
X200217500Y-114287500D01*
X199904998Y-114600002D02*
X200217500Y-114287500D01*
X198529998Y-114600002D02*
X199904998Y-114600002D01*
X198642500Y-113125000D02*
X198642500Y-111587500D01*
X199505000Y-120625000D02*
X201480000Y-118650000D01*
D33*
X200720000Y-128958949D02*
X202058025Y-130296974D01*
D32*
X196930000Y-115550000D02*
X197305000Y-115175000D01*
D33*
X200720000Y-125890000D02*
X200720000Y-128958949D01*
D32*
X200467500Y-114037500D02*
X200467500Y-113125000D01*
X201480000Y-118650000D02*
X201480000Y-115550000D01*
X198155000Y-113125000D02*
X198642500Y-113125000D01*
X196030000Y-115550000D02*
X196930000Y-115550000D01*
X197305000Y-113975000D02*
X198155000Y-113125000D01*
X197305000Y-115175000D02*
X197305000Y-113975000D01*
X198855000Y-111375000D02*
X198855000Y-109554998D01*
D33*
X198220000Y-123345000D02*
X198220000Y-123390000D01*
X198220000Y-123390000D02*
X200720000Y-125890000D01*
D32*
X200217500Y-114287500D02*
X200467500Y-114037500D01*
X192810000Y-133305000D02*
X192810000Y-134175000D01*
X204410000Y-114715000D02*
X205569999Y-114715000D01*
X196700000Y-109705000D02*
X196700000Y-108450003D01*
D33*
X195409951Y-132254301D02*
X194420000Y-131264350D01*
D32*
X198610000Y-133304301D02*
X198610000Y-133885000D01*
D33*
X194870000Y-125915000D02*
X194980000Y-125805000D01*
X198810000Y-123305000D02*
X201660000Y-126155000D01*
X199300000Y-119475000D02*
X199280000Y-119475000D01*
X194420000Y-131264350D02*
X194420000Y-125185000D01*
X201660000Y-126155000D02*
X201660000Y-127845000D01*
X198810000Y-119945000D02*
X198810000Y-123305000D01*
D32*
X206980000Y-122975000D02*
X208349998Y-122975000D01*
X187685000Y-131560000D02*
X187685000Y-132935000D01*
D33*
X201660000Y-127845000D02*
X202956052Y-129141052D01*
X196410000Y-119055000D02*
X195860000Y-118505000D01*
X196410000Y-126444999D02*
X196410000Y-119055000D01*
X201160002Y-131195001D02*
X196410000Y-126444999D01*
X196269951Y-132234301D02*
X194870000Y-130834350D01*
X199280000Y-119475000D02*
X198810000Y-119945000D01*
D32*
X183350000Y-123765000D02*
X182090000Y-123765000D01*
X185970000Y-112525000D02*
X185247500Y-112525000D01*
D33*
X200960758Y-134105759D02*
X201797059Y-134105759D01*
X194870000Y-130834350D02*
X194870000Y-125915000D01*
D32*
X204080000Y-118465000D02*
X204080000Y-120150000D01*
X202530000Y-118415000D02*
X203080000Y-118965000D01*
X193960000Y-117625000D02*
X193960000Y-118535000D01*
X203080000Y-118965000D02*
X203080000Y-120150000D01*
D33*
X201797059Y-134105759D02*
X203349750Y-132553068D01*
D32*
X204040000Y-118425000D02*
X204040000Y-117189998D01*
X202530000Y-118415000D02*
X202530000Y-117180001D01*
X196860000Y-118630000D02*
X196160000Y-117930000D01*
X196160000Y-117930000D02*
X195621827Y-117930000D01*
X204420000Y-113285000D02*
X205729998Y-113285000D01*
X190255000Y-110425000D02*
X190255000Y-109225000D01*
X195020000Y-109715000D02*
X195020000Y-108369996D01*
X195621827Y-117930000D02*
X195285000Y-118266827D01*
X191560000Y-128890000D02*
X190970000Y-128890000D01*
X195285000Y-119500000D02*
X194090000Y-120695000D01*
X183410000Y-126315000D02*
X183360000Y-126265000D01*
X189130000Y-131355000D02*
X189130000Y-132760001D01*
X208140001Y-121305000D02*
X208444999Y-121609998D01*
X190955000Y-128875000D02*
X190649999Y-129180001D01*
X200135000Y-109544999D02*
X200805000Y-110214999D01*
X196935000Y-119675000D02*
X196860000Y-119750000D01*
X190649999Y-129704998D02*
X189660002Y-129704998D01*
X190970000Y-128890000D02*
X190955000Y-128875000D01*
D34*
X202560000Y-132565000D02*
X202088025Y-132093025D01*
D32*
X195505000Y-113625000D02*
X196029998Y-114149998D01*
X194380000Y-113625000D02*
X195505000Y-113625000D01*
X200805000Y-110214999D02*
X200805000Y-111275000D01*
X186485000Y-115070000D02*
X186485000Y-114175000D01*
X186480000Y-115075000D02*
X186485000Y-115070000D01*
X183360000Y-125485000D02*
X181980000Y-125485000D01*
X196029998Y-114149998D02*
X196029998Y-114599998D01*
X185320002Y-129704998D02*
X185310000Y-129715000D01*
X206970000Y-121305000D02*
X208140001Y-121305000D01*
X189130000Y-132760001D02*
X188935001Y-132955000D01*
X189660002Y-129704998D02*
X189660000Y-129705000D01*
X196860000Y-119750000D02*
X196860000Y-118630000D01*
X186149996Y-129704998D02*
X185320002Y-129704998D01*
X190649999Y-129180001D02*
X190649999Y-129704998D01*
X195285000Y-118266827D02*
X195285000Y-119500000D01*
X183360000Y-126265000D02*
X183360000Y-125485000D01*
X186485000Y-114175000D02*
X184972500Y-114175000D01*
X184130000Y-128750000D02*
X184780000Y-128750000D01*
D33*
X190650000Y-125035000D02*
X193515000Y-122170000D01*
D32*
X185819997Y-127225000D02*
X186149997Y-127555000D01*
D33*
X203349750Y-132553068D02*
X203349750Y-131588699D01*
X190900000Y-120965000D02*
X192320000Y-120965000D01*
D32*
X186149997Y-127555000D02*
X190650000Y-127555000D01*
D33*
X197320000Y-131675000D02*
X198529999Y-131675000D01*
X196010000Y-130365000D02*
X197320000Y-131675000D01*
X198529999Y-131675000D02*
X200960758Y-134105759D01*
X193515000Y-122170000D02*
X193515000Y-122160000D01*
D32*
X198530002Y-116500002D02*
X199935002Y-116500002D01*
D33*
X196010000Y-124655000D02*
X196010000Y-130365000D01*
D32*
X191590000Y-127555000D02*
X190650000Y-127555000D01*
D33*
X190650000Y-127555000D02*
X190650000Y-125035000D01*
D34*
X203854074Y-130299074D02*
X204380000Y-130825000D01*
D32*
X184905000Y-127225000D02*
X185819997Y-127225000D01*
X192050000Y-118665000D02*
X191320000Y-117935000D01*
D33*
X192320000Y-120965000D02*
X196010000Y-124655000D01*
D32*
X191905000Y-127240000D02*
X191590000Y-127555000D01*
X199935002Y-116500002D02*
X200180000Y-116745000D01*
D33*
X203349750Y-131588699D02*
X202956051Y-131195000D01*
D32*
X191255000Y-110425000D02*
X191255000Y-109250000D01*
D33*
X144925000Y-116775000D02*
X144925000Y-117450000D01*
X145294998Y-117819998D02*
X145980002Y-117819998D01*
X144925000Y-117450000D02*
X145294998Y-117819998D01*
D32*
X155700000Y-129075000D02*
X155700000Y-128150000D01*
X144975002Y-125024998D02*
X145650001Y-125024998D01*
D33*
X145980003Y-116549998D02*
X145980003Y-116519997D01*
D32*
X144700003Y-123124999D02*
X145999999Y-123124999D01*
X144700003Y-123124999D02*
X144700003Y-121150003D01*
X154875000Y-128525000D02*
X154875000Y-130249998D01*
X144700003Y-121150003D02*
X144700000Y-121150000D01*
X155475000Y-127925000D02*
X154875000Y-128525000D01*
X144700003Y-124750003D02*
X144975000Y-125025000D01*
X154875001Y-130249999D02*
X155974999Y-130249999D01*
D33*
X145980003Y-116519997D02*
X146500000Y-116000000D01*
D32*
X153750000Y-128675000D02*
X154725000Y-128675000D01*
X145999999Y-123124999D02*
X146012500Y-123137500D01*
X144700003Y-123124999D02*
X144700003Y-124750003D01*
X155974999Y-130249999D02*
X156025000Y-130300000D01*
X155700000Y-128150000D02*
X155475000Y-127925000D01*
X154875000Y-130249998D02*
X154875001Y-130249999D01*
X144975000Y-125025000D02*
X144975002Y-125024998D01*
X147375000Y-124850000D02*
X147375000Y-123150000D01*
D33*
X145437500Y-119637500D02*
X145980004Y-119094996D01*
D32*
X146650001Y-125024998D02*
X147200002Y-125024998D01*
X147200002Y-125024998D02*
X147375000Y-124850000D01*
X147375000Y-123150000D02*
X147375000Y-121350000D01*
D33*
X145980004Y-119094996D02*
X145980004Y-119089996D01*
D32*
X153100000Y-130250000D02*
X153875000Y-130250000D01*
X152100000Y-128100000D02*
X152300000Y-127900000D01*
X152100000Y-129325000D02*
X152175000Y-129325000D01*
X152175000Y-129325000D02*
X153100000Y-130250000D01*
X152100000Y-129325000D02*
X152100000Y-128100000D01*
D35*
X143225000Y-135400000D02*
X143750000Y-135400000D01*
D32*
X149600000Y-129800000D02*
X150100000Y-130300000D01*
D35*
X144550000Y-134600000D02*
X148450000Y-134600000D01*
X148450000Y-134600000D02*
X149150000Y-135300000D01*
X143750000Y-135400000D02*
X144550000Y-134600000D01*
D32*
X150100000Y-130300000D02*
X150100000Y-134825000D01*
X150100000Y-134825000D02*
X149625000Y-135300000D01*
D35*
X149150000Y-135300000D02*
X149625000Y-135300000D01*
D32*
X149600000Y-129200000D02*
X149600000Y-129800000D01*
X146300000Y-130350000D02*
X146750000Y-129900000D01*
X145200000Y-130350000D02*
X146300000Y-130350000D01*
D33*
X157175000Y-129725000D02*
X157150000Y-129750000D01*
X157175000Y-127850000D02*
X157175000Y-129725000D01*
X153824301Y-132324301D02*
X154649301Y-132324301D01*
X155000000Y-132675000D02*
X155000000Y-134275000D01*
X154649301Y-132324301D02*
X155000000Y-132675000D01*
X141075000Y-122600000D02*
X141825000Y-122600000D01*
X148650000Y-131825000D02*
X141150000Y-131825000D01*
X141150000Y-131825000D02*
X140450000Y-131125000D01*
X140450000Y-123225000D02*
X141075000Y-122600000D01*
X140450000Y-131125000D02*
X140450000Y-123225000D01*
X141225000Y-130675000D02*
X141225000Y-126050000D01*
X147250000Y-131175000D02*
X141725000Y-131175000D01*
X141225000Y-126050000D02*
X141700000Y-125575000D01*
X141725000Y-131175000D02*
X141225000Y-130675000D01*
X156600000Y-136100000D02*
X152475000Y-136100000D01*
X159400000Y-125125000D02*
X159400000Y-132842893D01*
X158250000Y-133992893D02*
X158250000Y-134450000D01*
X158250000Y-134450000D02*
X156600000Y-136100000D01*
X159400000Y-132842893D02*
X158250000Y-133992893D01*
X148625000Y-117850000D02*
X148600000Y-117825000D01*
X148600000Y-117825000D02*
X147255004Y-117825000D01*
X147255004Y-117825000D02*
X147250002Y-117819998D01*
X152600000Y-119850000D02*
X152600000Y-117450000D01*
X152600000Y-117450000D02*
X151700000Y-116550000D01*
X151700000Y-116550000D02*
X147250000Y-116550000D01*
X148125000Y-118875000D02*
X147910002Y-119089998D01*
X147910002Y-119089998D02*
X147250001Y-119089998D01*
X148575000Y-118875000D02*
X148125000Y-118875000D01*
X155424999Y-120549999D02*
X156175000Y-121300000D01*
X155025000Y-126825000D02*
X156175000Y-125675000D01*
X155424999Y-119375001D02*
X155424999Y-120549999D01*
X156175000Y-125675000D02*
X156175000Y-122800000D01*
X156175000Y-121300000D02*
X156175000Y-122800000D01*
X153950000Y-126825000D02*
X155025000Y-126825000D01*
X156424999Y-118374999D02*
X157650000Y-119600000D01*
X151200000Y-122750000D02*
X153825000Y-120125000D01*
X153825000Y-120125000D02*
X153825000Y-118750000D01*
X157650000Y-121725000D02*
X158725000Y-122800000D01*
X154200001Y-118374999D02*
X155425000Y-118374999D01*
X157650000Y-119600000D02*
X157650000Y-121725000D01*
X153825000Y-118750000D02*
X154200001Y-118374999D01*
D36*
X155425000Y-118374999D02*
X155900000Y-118374999D01*
D33*
X155425000Y-118374999D02*
X156424999Y-118374999D01*
X151200000Y-123850002D02*
X151200000Y-122750000D01*
G04 #@! TA.AperFunction,Conductor*
G36*
X142762499Y-128935749D02*
G01*
X142762500Y-128935750D01*
X143091291Y-128935750D01*
X143091294Y-128935749D01*
X143245848Y-128905007D01*
X143391439Y-128844701D01*
X143391448Y-128844697D01*
X143395498Y-128841991D01*
X143454386Y-128825382D01*
X143511790Y-128846559D01*
X143545783Y-128897433D01*
X143549500Y-128924306D01*
X143549500Y-129819746D01*
X143549501Y-129819758D01*
X143561132Y-129878227D01*
X143561134Y-129878233D01*
X143605445Y-129944548D01*
X143605448Y-129944552D01*
X143671769Y-129988867D01*
X143716231Y-129997711D01*
X143730241Y-130000498D01*
X143730246Y-130000498D01*
X143730252Y-130000500D01*
X143730253Y-130000500D01*
X144767035Y-130000500D01*
X144825226Y-130019407D01*
X144861190Y-130068907D01*
X144861190Y-130130093D01*
X144855245Y-130144441D01*
X144844919Y-130164709D01*
X144814355Y-130224692D01*
X144814354Y-130224696D01*
X144794508Y-130349999D01*
X144794508Y-130350000D01*
X144814354Y-130475303D01*
X144814355Y-130475307D01*
X144852683Y-130550529D01*
X144871950Y-130588342D01*
X144961658Y-130678050D01*
X144961660Y-130678051D01*
X144979794Y-130687291D01*
X145023059Y-130730555D01*
X145032630Y-130790987D01*
X145004852Y-130845504D01*
X144950336Y-130873281D01*
X144934849Y-130874500D01*
X141890479Y-130874500D01*
X141832288Y-130855593D01*
X141820475Y-130845504D01*
X141554496Y-130579525D01*
X141526719Y-130525008D01*
X141525500Y-130509521D01*
X141525500Y-128819129D01*
X141544407Y-128760938D01*
X141593907Y-128724974D01*
X141655093Y-128724974D01*
X141694507Y-128749128D01*
X141702529Y-128757150D01*
X141833549Y-128844697D01*
X141833558Y-128844701D01*
X141979149Y-128905007D01*
X142133703Y-128935749D01*
X142133707Y-128935750D01*
X142462498Y-128935750D01*
X142462499Y-128935749D01*
X142462499Y-128435750D01*
X142762499Y-128435750D01*
X142762499Y-128935749D01*
G37*
G04 #@! TD.AperFunction*
G04 #@! TA.AperFunction,Conductor*
G36*
X148434643Y-111843970D02*
G01*
X148470684Y-111893414D01*
X148475576Y-111923575D01*
X148493064Y-114914042D01*
X148474498Y-114972342D01*
X148425209Y-115008595D01*
X148364024Y-115008953D01*
X148314315Y-114973279D01*
X148302602Y-114952506D01*
X148291925Y-114926730D01*
X148291925Y-114926729D01*
X148271589Y-114896295D01*
X148210305Y-114804577D01*
X148106424Y-114700696D01*
X147984273Y-114619077D01*
X147984272Y-114619076D01*
X147984270Y-114619075D01*
X147848546Y-114562857D01*
X147704461Y-114534197D01*
X147704459Y-114534197D01*
X147557549Y-114534197D01*
X147557546Y-114534197D01*
X147413462Y-114562857D01*
X147413460Y-114562857D01*
X147277737Y-114619075D01*
X147277736Y-114619075D01*
X147155584Y-114700696D01*
X147155580Y-114700699D01*
X147051706Y-114804573D01*
X147051703Y-114804577D01*
X146970082Y-114926729D01*
X146970082Y-114926730D01*
X146913864Y-115062453D01*
X146913864Y-115062455D01*
X146885204Y-115206539D01*
X146885204Y-115353454D01*
X146913864Y-115497538D01*
X146913864Y-115497540D01*
X146970082Y-115633263D01*
X146970082Y-115633264D01*
X147010753Y-115694131D01*
X147051703Y-115755417D01*
X147051705Y-115755419D01*
X147051706Y-115755420D01*
X147112089Y-115815803D01*
X147139866Y-115870320D01*
X147130295Y-115930752D01*
X147087030Y-115974017D01*
X147079971Y-115977271D01*
X146950338Y-116030967D01*
X146826217Y-116126207D01*
X146826210Y-116126214D01*
X146753256Y-116221290D01*
X146702831Y-116255945D01*
X146641667Y-116254343D01*
X146593238Y-116217259D01*
X146565320Y-116176812D01*
X146565319Y-116176812D01*
X146221129Y-116521002D01*
X146166613Y-116548779D01*
X146151126Y-116549998D01*
X146006879Y-116549998D01*
X145970731Y-116538253D01*
X145980003Y-116576873D01*
X145980003Y-116721122D01*
X145961096Y-116779313D01*
X145951007Y-116791126D01*
X145605336Y-117136796D01*
X145639834Y-117154902D01*
X145682573Y-117198685D01*
X145691414Y-117259229D01*
X145662980Y-117313406D01*
X145654094Y-117321104D01*
X145556219Y-117396205D01*
X145556208Y-117396216D01*
X145512035Y-117453783D01*
X145461610Y-117488439D01*
X145400446Y-117486836D01*
X145363490Y-117463519D01*
X145254496Y-117354525D01*
X145226719Y-117300008D01*
X145225500Y-117284521D01*
X145225500Y-117117255D01*
X145244407Y-117059064D01*
X145254490Y-117047257D01*
X145273528Y-117028220D01*
X145299615Y-116977020D01*
X145342879Y-116933757D01*
X145393948Y-116923919D01*
X145811000Y-116506869D01*
X145865516Y-116479092D01*
X145916810Y-116487215D01*
X145912724Y-116481591D01*
X145912724Y-116420405D01*
X145936875Y-116380994D01*
X145980003Y-116337866D01*
X146354668Y-115963199D01*
X146354668Y-115963198D01*
X146222497Y-115893830D01*
X146223286Y-115892326D01*
X146181658Y-115858882D01*
X146165593Y-115799843D01*
X146182162Y-115749640D01*
X146259017Y-115634620D01*
X146259922Y-115633265D01*
X146316142Y-115497538D01*
X146344802Y-115353451D01*
X146344802Y-115206541D01*
X146316142Y-115062454D01*
X146288032Y-114994590D01*
X146259923Y-114926729D01*
X146259923Y-114926728D01*
X146239587Y-114896294D01*
X146178303Y-114804576D01*
X146074422Y-114700695D01*
X145952271Y-114619076D01*
X145952270Y-114619075D01*
X145952268Y-114619074D01*
X145816544Y-114562856D01*
X145672459Y-114534196D01*
X145672457Y-114534196D01*
X145525547Y-114534196D01*
X145525544Y-114534196D01*
X145381460Y-114562856D01*
X145381458Y-114562856D01*
X145245735Y-114619074D01*
X145245734Y-114619074D01*
X145123582Y-114700695D01*
X145123578Y-114700698D01*
X145019704Y-114804572D01*
X145019701Y-114804576D01*
X144938080Y-114926728D01*
X144938080Y-114926729D01*
X144881862Y-115062452D01*
X144881862Y-115062454D01*
X144853202Y-115206538D01*
X144853202Y-115353453D01*
X144881862Y-115497537D01*
X144881862Y-115497539D01*
X144938080Y-115633262D01*
X144938080Y-115633263D01*
X144938987Y-115634620D01*
X145019701Y-115755416D01*
X145123582Y-115859297D01*
X145245733Y-115940916D01*
X145245734Y-115940916D01*
X145245735Y-115940917D01*
X145375009Y-115994464D01*
X145421535Y-116034200D01*
X145435819Y-116093695D01*
X145418600Y-116142165D01*
X145361252Y-116225249D01*
X145361248Y-116225256D01*
X145306802Y-116368819D01*
X145268489Y-116416524D01*
X145209453Y-116432597D01*
X145169293Y-116421923D01*
X145058126Y-116365281D01*
X144925000Y-116344196D01*
X144791872Y-116365281D01*
X144791870Y-116365282D01*
X144671782Y-116426470D01*
X144576470Y-116521782D01*
X144515282Y-116641870D01*
X144515281Y-116641872D01*
X144494196Y-116774999D01*
X144494196Y-116775000D01*
X144515281Y-116908127D01*
X144515282Y-116908129D01*
X144548736Y-116973786D01*
X144576472Y-117028220D01*
X144595505Y-117047253D01*
X144623281Y-117101768D01*
X144624500Y-117117255D01*
X144624500Y-117489564D01*
X144644977Y-117565985D01*
X144644981Y-117565993D01*
X144662754Y-117596779D01*
X144662755Y-117596779D01*
X144684540Y-117634511D01*
X145054537Y-118004509D01*
X145110487Y-118060458D01*
X145179005Y-118100017D01*
X145179009Y-118100019D01*
X145255433Y-118120497D01*
X145255435Y-118120498D01*
X145255436Y-118120498D01*
X145334560Y-118120498D01*
X145412790Y-118120498D01*
X145470981Y-118139405D01*
X145491329Y-118159227D01*
X145556214Y-118243786D01*
X145680338Y-118339030D01*
X145690046Y-118343051D01*
X145739494Y-118363533D01*
X145786020Y-118403269D01*
X145800304Y-118462764D01*
X145776890Y-118519292D01*
X145739495Y-118546461D01*
X145680342Y-118570963D01*
X145556221Y-118666203D01*
X145556211Y-118666213D01*
X145460970Y-118790334D01*
X145460970Y-118790335D01*
X145401099Y-118934878D01*
X145401098Y-118934879D01*
X145394398Y-118985774D01*
X145380677Y-119089996D01*
X145384206Y-119116798D01*
X145384300Y-119117514D01*
X145373148Y-119177674D01*
X145328765Y-119219790D01*
X145311690Y-119225093D01*
X145311782Y-119225374D01*
X145304370Y-119227782D01*
X145184282Y-119288970D01*
X145088970Y-119384282D01*
X145027782Y-119504370D01*
X145027781Y-119504372D01*
X145006696Y-119637499D01*
X145006696Y-119637500D01*
X145027781Y-119770627D01*
X145027782Y-119770629D01*
X145086635Y-119886134D01*
X145088972Y-119890720D01*
X145184280Y-119986028D01*
X145304374Y-120047219D01*
X145437500Y-120068304D01*
X145570626Y-120047219D01*
X145690720Y-119986028D01*
X145786028Y-119890720D01*
X145847219Y-119770626D01*
X145847458Y-119769114D01*
X145848152Y-119767752D01*
X145849625Y-119763219D01*
X145850342Y-119763452D01*
X145875232Y-119714599D01*
X145929748Y-119686820D01*
X145958160Y-119686447D01*
X145980004Y-119689323D01*
X145980004Y-119689322D01*
X145980005Y-119689323D01*
X145986493Y-119689323D01*
X145986493Y-119690574D01*
X146040009Y-119700488D01*
X146082130Y-119744867D01*
X146090122Y-119805528D01*
X146062783Y-119857497D01*
X146035708Y-119884572D01*
X146035700Y-119884582D01*
X145954079Y-120006734D01*
X145954079Y-120006735D01*
X145897861Y-120142458D01*
X145897861Y-120142460D01*
X145869201Y-120286544D01*
X145869201Y-120433459D01*
X145897861Y-120577543D01*
X145897861Y-120577545D01*
X145954079Y-120713268D01*
X145954080Y-120713270D01*
X145954081Y-120713271D01*
X146035700Y-120835422D01*
X146139581Y-120939303D01*
X146261732Y-121020922D01*
X146397459Y-121077142D01*
X146541546Y-121105802D01*
X146541548Y-121105802D01*
X146688454Y-121105802D01*
X146688456Y-121105802D01*
X146832543Y-121077142D01*
X146843107Y-121072765D01*
X146904103Y-121067964D01*
X146956273Y-121099932D01*
X146979689Y-121156460D01*
X146969205Y-121209172D01*
X146965281Y-121216873D01*
X146944196Y-121349999D01*
X146944196Y-121350000D01*
X146965281Y-121483127D01*
X146965282Y-121483129D01*
X147013709Y-121578172D01*
X147024500Y-121623117D01*
X147024500Y-122050500D01*
X147005593Y-122108691D01*
X146956093Y-122144655D01*
X146925500Y-122149500D01*
X146605252Y-122149500D01*
X146605251Y-122149500D01*
X146605241Y-122149501D01*
X146546772Y-122161132D01*
X146546766Y-122161134D01*
X146480451Y-122205445D01*
X146480445Y-122205451D01*
X146436134Y-122271766D01*
X146436132Y-122271772D01*
X146424501Y-122330241D01*
X146424500Y-122330250D01*
X146424500Y-122330252D01*
X146424500Y-123869748D01*
X146436133Y-123928231D01*
X146436134Y-123928232D01*
X146436721Y-123931183D01*
X146429530Y-123991944D01*
X146387998Y-124036875D01*
X146339623Y-124049498D01*
X146330250Y-124049498D01*
X146262207Y-124063033D01*
X146261979Y-124061888D01*
X146210803Y-124065911D01*
X146163920Y-124039653D01*
X146122478Y-123998211D01*
X146019873Y-123952907D01*
X145994798Y-123949998D01*
X145849003Y-123949998D01*
X145790812Y-123931091D01*
X145754848Y-123881591D01*
X145750003Y-123850998D01*
X145750003Y-123275000D01*
X145750002Y-123274999D01*
X144850004Y-123274999D01*
X144850003Y-123275000D01*
X144850003Y-124174997D01*
X144850004Y-124174998D01*
X144951001Y-124174998D01*
X145009192Y-124193905D01*
X145045156Y-124243405D01*
X145050001Y-124273998D01*
X145050001Y-124874997D01*
X145050002Y-124874998D01*
X145701001Y-124874998D01*
X145759192Y-124893905D01*
X145795156Y-124943405D01*
X145800001Y-124973998D01*
X145800001Y-126099996D01*
X145800002Y-126099997D01*
X145994791Y-126099997D01*
X145994792Y-126099996D01*
X146019875Y-126097088D01*
X146122479Y-126051784D01*
X146163921Y-126010342D01*
X146218437Y-125982564D01*
X146262056Y-125987726D01*
X146262208Y-125986963D01*
X146330242Y-126000496D01*
X146330247Y-126000496D01*
X146330253Y-126000498D01*
X146330254Y-126000498D01*
X146969748Y-126000498D01*
X146969749Y-126000498D01*
X147028232Y-125988865D01*
X147094553Y-125944550D01*
X147138868Y-125878229D01*
X147150501Y-125819746D01*
X147150501Y-125474498D01*
X147169408Y-125416307D01*
X147218908Y-125380343D01*
X147239802Y-125377033D01*
X147239712Y-125376345D01*
X147246143Y-125375498D01*
X147246146Y-125375498D01*
X147335290Y-125351612D01*
X147361191Y-125336658D01*
X147415214Y-125305468D01*
X147655470Y-125065212D01*
X147701614Y-124985288D01*
X147725500Y-124896143D01*
X147725500Y-124803856D01*
X147725500Y-124149500D01*
X147744407Y-124091309D01*
X147793907Y-124055345D01*
X147824500Y-124050500D01*
X148144747Y-124050500D01*
X148144748Y-124050500D01*
X148203231Y-124038867D01*
X148269552Y-123994552D01*
X148313867Y-123928231D01*
X148325500Y-123869748D01*
X148325500Y-123850001D01*
X150769196Y-123850001D01*
X150769196Y-123850002D01*
X150790281Y-123983129D01*
X150790282Y-123983131D01*
X150845402Y-124091309D01*
X150851472Y-124103222D01*
X150946780Y-124198530D01*
X151066874Y-124259721D01*
X151200000Y-124280806D01*
X151236363Y-124275046D01*
X151296792Y-124284616D01*
X151340058Y-124327880D01*
X151349630Y-124357340D01*
X151364354Y-124450303D01*
X151364355Y-124450307D01*
X151406931Y-124533866D01*
X151421950Y-124563342D01*
X151511658Y-124653050D01*
X151624696Y-124710646D01*
X151750000Y-124730492D01*
X151875304Y-124710646D01*
X151988342Y-124653050D01*
X152078050Y-124563342D01*
X152135646Y-124450304D01*
X152155492Y-124325000D01*
X152135646Y-124199696D01*
X152078050Y-124086658D01*
X151988342Y-123996950D01*
X151961215Y-123983128D01*
X151875307Y-123939355D01*
X151875304Y-123939354D01*
X151750000Y-123919508D01*
X151749998Y-123919508D01*
X151742236Y-123920737D01*
X151681804Y-123911162D01*
X151638542Y-123867895D01*
X151628973Y-123838442D01*
X151618039Y-123769407D01*
X151609719Y-123716876D01*
X151548528Y-123596782D01*
X151548525Y-123596779D01*
X151529495Y-123577748D01*
X151501719Y-123523231D01*
X151500500Y-123507746D01*
X151500500Y-122915478D01*
X151519407Y-122857287D01*
X151529490Y-122845480D01*
X154065460Y-120309511D01*
X154078717Y-120286549D01*
X154105020Y-120240992D01*
X154105020Y-120240990D01*
X154105022Y-120240988D01*
X154125500Y-120164562D01*
X154125500Y-120085438D01*
X154125500Y-118915479D01*
X154144407Y-118857288D01*
X154154496Y-118845476D01*
X154294595Y-118705376D01*
X154349112Y-118677598D01*
X154409544Y-118687169D01*
X154452808Y-118730434D01*
X154458558Y-118747013D01*
X154461134Y-118753232D01*
X154505746Y-118819997D01*
X154522355Y-118878885D01*
X154505746Y-118930001D01*
X154461133Y-118996767D01*
X154461131Y-118996773D01*
X154449500Y-119055242D01*
X154449499Y-119055254D01*
X154449499Y-119694747D01*
X154449500Y-119694759D01*
X154461131Y-119753228D01*
X154461133Y-119753234D01*
X154505444Y-119819549D01*
X154505447Y-119819553D01*
X154571768Y-119863868D01*
X154616230Y-119872712D01*
X154630240Y-119875499D01*
X154630245Y-119875499D01*
X154630251Y-119875501D01*
X155025499Y-119875501D01*
X155083690Y-119894408D01*
X155119654Y-119943908D01*
X155124499Y-119974501D01*
X155124499Y-120589563D01*
X155144977Y-120665987D01*
X155144978Y-120665988D01*
X155172276Y-120713269D01*
X155172277Y-120713273D01*
X155172278Y-120713273D01*
X155184536Y-120734506D01*
X155184537Y-120734507D01*
X155184539Y-120734510D01*
X155845505Y-121395476D01*
X155873281Y-121449991D01*
X155874500Y-121465478D01*
X155874500Y-121750500D01*
X155855593Y-121808691D01*
X155806093Y-121844655D01*
X155775500Y-121849500D01*
X155405252Y-121849500D01*
X155405251Y-121849500D01*
X155405241Y-121849501D01*
X155346772Y-121861132D01*
X155346766Y-121861134D01*
X155280451Y-121905445D01*
X155280445Y-121905451D01*
X155236134Y-121971766D01*
X155236132Y-121971772D01*
X155224501Y-122030241D01*
X155224500Y-122030253D01*
X155224500Y-123569746D01*
X155224501Y-123569758D01*
X155236132Y-123628227D01*
X155236133Y-123628231D01*
X155280448Y-123694552D01*
X155346769Y-123738867D01*
X155391231Y-123747711D01*
X155405241Y-123750498D01*
X155405246Y-123750498D01*
X155405252Y-123750500D01*
X155775500Y-123750500D01*
X155833691Y-123769407D01*
X155869655Y-123818907D01*
X155874500Y-123849500D01*
X155874500Y-125509521D01*
X155855593Y-125567712D01*
X155845504Y-125579525D01*
X154929525Y-126495504D01*
X154875008Y-126523281D01*
X154859521Y-126524500D01*
X154292255Y-126524500D01*
X154234064Y-126505593D01*
X154222257Y-126495509D01*
X154203220Y-126476472D01*
X154203217Y-126476470D01*
X154083129Y-126415282D01*
X154083127Y-126415281D01*
X153950000Y-126394196D01*
X153816872Y-126415281D01*
X153816870Y-126415282D01*
X153696782Y-126476470D01*
X153601470Y-126571782D01*
X153540282Y-126691870D01*
X153540281Y-126691872D01*
X153519196Y-126824999D01*
X153519196Y-126825000D01*
X153540281Y-126958127D01*
X153540282Y-126958129D01*
X153601470Y-127078217D01*
X153601472Y-127078220D01*
X153696780Y-127173528D01*
X153816874Y-127234719D01*
X153950000Y-127255804D01*
X154083126Y-127234719D01*
X154203220Y-127173528D01*
X154222253Y-127154494D01*
X154276768Y-127126719D01*
X154292255Y-127125500D01*
X154326000Y-127125500D01*
X154384191Y-127144407D01*
X154420155Y-127193907D01*
X154425000Y-127224500D01*
X154425000Y-127774999D01*
X154425001Y-127775000D01*
X156524998Y-127775000D01*
X156524999Y-127774999D01*
X156524999Y-127130210D01*
X156524998Y-127130208D01*
X156522090Y-127105125D01*
X156476786Y-127002522D01*
X156397477Y-126923213D01*
X156294872Y-126877909D01*
X156269797Y-126875000D01*
X155638978Y-126875000D01*
X155580787Y-126856093D01*
X155544823Y-126806593D01*
X155544823Y-126745407D01*
X155568972Y-126705998D01*
X156415460Y-125859511D01*
X156438413Y-125819756D01*
X156455020Y-125790992D01*
X156455020Y-125790990D01*
X156455022Y-125790988D01*
X156475500Y-125714562D01*
X156475500Y-125635438D01*
X156475500Y-123849500D01*
X156494407Y-123791309D01*
X156543907Y-123755345D01*
X156574500Y-123750500D01*
X156944747Y-123750500D01*
X156944748Y-123750500D01*
X157003231Y-123738867D01*
X157069552Y-123694552D01*
X157113867Y-123628231D01*
X157125500Y-123569748D01*
X157125500Y-122030252D01*
X157113867Y-121971769D01*
X157069552Y-121905448D01*
X157069548Y-121905445D01*
X157003233Y-121861134D01*
X157003231Y-121861133D01*
X157003228Y-121861132D01*
X157003227Y-121861132D01*
X156944758Y-121849501D01*
X156944748Y-121849500D01*
X156944747Y-121849500D01*
X156574500Y-121849500D01*
X156516309Y-121830593D01*
X156480345Y-121781093D01*
X156475500Y-121750500D01*
X156475500Y-121260439D01*
X156475500Y-121260438D01*
X156463827Y-121216874D01*
X156463827Y-121216873D01*
X156463827Y-121216872D01*
X156459424Y-121200443D01*
X156455022Y-121184012D01*
X156415460Y-121115489D01*
X155754495Y-120454524D01*
X155726718Y-120400007D01*
X155725499Y-120384520D01*
X155725499Y-119974501D01*
X155744406Y-119916310D01*
X155793906Y-119880346D01*
X155824499Y-119875501D01*
X156219746Y-119875501D01*
X156219747Y-119875501D01*
X156278230Y-119863868D01*
X156344551Y-119819553D01*
X156388866Y-119753232D01*
X156400499Y-119694749D01*
X156400499Y-119055253D01*
X156400498Y-119055251D01*
X156400498Y-119055245D01*
X156394698Y-119026090D01*
X156401888Y-118965329D01*
X156443419Y-118920398D01*
X156503429Y-118908460D01*
X156558994Y-118934074D01*
X156561799Y-118936770D01*
X157320504Y-119695475D01*
X157348281Y-119749992D01*
X157349500Y-119765479D01*
X157349500Y-121764564D01*
X157369977Y-121840985D01*
X157369979Y-121840990D01*
X157407189Y-121905440D01*
X157409538Y-121909508D01*
X157409540Y-121909511D01*
X157745505Y-122245476D01*
X157773281Y-122299991D01*
X157774500Y-122315478D01*
X157774500Y-123569746D01*
X157774501Y-123569758D01*
X157786132Y-123628227D01*
X157786133Y-123628231D01*
X157830448Y-123694552D01*
X157896769Y-123738867D01*
X157941231Y-123747711D01*
X157955241Y-123750498D01*
X157955246Y-123750498D01*
X157955252Y-123750500D01*
X157955253Y-123750500D01*
X159494747Y-123750500D01*
X159494748Y-123750500D01*
X159553231Y-123738867D01*
X159619552Y-123694552D01*
X159663867Y-123628231D01*
X159675500Y-123569748D01*
X159675500Y-122199999D01*
X160969196Y-122199999D01*
X160969196Y-122200000D01*
X160990281Y-122333127D01*
X160990282Y-122333129D01*
X161004819Y-122361659D01*
X161051472Y-122453220D01*
X161146780Y-122548528D01*
X161266874Y-122609719D01*
X161400000Y-122630804D01*
X161533126Y-122609719D01*
X161653220Y-122548528D01*
X161748528Y-122453220D01*
X161809719Y-122333126D01*
X161830804Y-122200000D01*
X161809719Y-122066874D01*
X161748528Y-121946780D01*
X161653220Y-121851472D01*
X161653217Y-121851470D01*
X161533129Y-121790282D01*
X161533127Y-121790281D01*
X161400000Y-121769196D01*
X161266872Y-121790281D01*
X161266870Y-121790282D01*
X161146782Y-121851470D01*
X161051470Y-121946782D01*
X160990282Y-122066870D01*
X160990281Y-122066872D01*
X160969196Y-122199999D01*
X159675500Y-122199999D01*
X159675500Y-122030252D01*
X159663867Y-121971769D01*
X159619552Y-121905448D01*
X159619548Y-121905445D01*
X159553233Y-121861134D01*
X159553231Y-121861133D01*
X159553228Y-121861132D01*
X159553227Y-121861132D01*
X159494758Y-121849501D01*
X159494748Y-121849500D01*
X159494747Y-121849500D01*
X158240479Y-121849500D01*
X158182288Y-121830593D01*
X158170475Y-121820504D01*
X157979496Y-121629525D01*
X157951719Y-121575008D01*
X157950500Y-121559521D01*
X157950500Y-120055253D01*
X158199500Y-120055253D01*
X158199500Y-121294746D01*
X158199501Y-121294758D01*
X158210490Y-121349999D01*
X158211133Y-121353231D01*
X158255448Y-121419552D01*
X158321769Y-121463867D01*
X158366231Y-121472711D01*
X158380241Y-121475498D01*
X158380246Y-121475498D01*
X158380252Y-121475500D01*
X158380253Y-121475500D01*
X160219747Y-121475500D01*
X160219748Y-121475500D01*
X160278231Y-121463867D01*
X160344552Y-121419552D01*
X160388867Y-121353231D01*
X160400500Y-121294748D01*
X160400500Y-120057201D01*
X160419407Y-119999010D01*
X160468907Y-119963046D01*
X160514987Y-119959420D01*
X160516873Y-119959718D01*
X160516874Y-119959719D01*
X160650000Y-119980804D01*
X160783126Y-119959719D01*
X160903220Y-119898528D01*
X160998528Y-119803220D01*
X161059719Y-119683126D01*
X161080804Y-119550000D01*
X161059719Y-119416874D01*
X160998528Y-119296780D01*
X160903220Y-119201472D01*
X160903217Y-119201470D01*
X160783129Y-119140282D01*
X160783127Y-119140281D01*
X160650000Y-119119196D01*
X160516872Y-119140281D01*
X160516870Y-119140282D01*
X160396782Y-119201470D01*
X160301470Y-119296782D01*
X160240282Y-119416870D01*
X160240281Y-119416872D01*
X160219196Y-119549999D01*
X160219196Y-119550000D01*
X160240281Y-119683127D01*
X160244076Y-119690574D01*
X160263703Y-119729095D01*
X160264447Y-119730554D01*
X160274019Y-119790986D01*
X160246242Y-119845503D01*
X160191726Y-119873281D01*
X160176238Y-119874500D01*
X158380252Y-119874500D01*
X158380251Y-119874500D01*
X158380241Y-119874501D01*
X158321772Y-119886132D01*
X158321766Y-119886134D01*
X158255451Y-119930445D01*
X158255445Y-119930451D01*
X158211134Y-119996766D01*
X158211132Y-119996772D01*
X158199501Y-120055241D01*
X158199500Y-120055253D01*
X157950500Y-120055253D01*
X157950500Y-119560437D01*
X157950499Y-119560435D01*
X157930021Y-119484011D01*
X157930019Y-119484007D01*
X157890460Y-119415489D01*
X157834511Y-119359539D01*
X157834511Y-119359540D01*
X156609510Y-118134539D01*
X156609507Y-118134537D01*
X156540991Y-118094979D01*
X156540987Y-118094977D01*
X156460400Y-118073383D01*
X156409086Y-118040059D01*
X156392941Y-118005632D01*
X156392597Y-118005775D01*
X156389479Y-117998249D01*
X156388927Y-117997070D01*
X156388867Y-117996768D01*
X156344552Y-117930447D01*
X156344548Y-117930444D01*
X156278233Y-117886133D01*
X156278231Y-117886132D01*
X156278228Y-117886131D01*
X156278227Y-117886131D01*
X156219758Y-117874500D01*
X156219748Y-117874499D01*
X154630252Y-117874499D01*
X154630251Y-117874499D01*
X154630241Y-117874500D01*
X154571772Y-117886131D01*
X154571766Y-117886133D01*
X154505451Y-117930444D01*
X154505445Y-117930450D01*
X154461134Y-117996765D01*
X154457403Y-118005775D01*
X154455763Y-118005095D01*
X154431629Y-118048194D01*
X154376065Y-118073812D01*
X154364425Y-118074499D01*
X154239563Y-118074499D01*
X154160439Y-118074499D01*
X154113662Y-118087032D01*
X154084008Y-118094978D01*
X154015494Y-118134535D01*
X154015489Y-118134539D01*
X153584539Y-118565489D01*
X153544980Y-118634007D01*
X153544978Y-118634011D01*
X153524500Y-118710435D01*
X153524500Y-119959521D01*
X153505593Y-120017712D01*
X153495504Y-120029525D01*
X151015489Y-122509540D01*
X151015488Y-122509539D01*
X150959539Y-122565489D01*
X150919980Y-122634007D01*
X150919978Y-122634011D01*
X150899500Y-122710435D01*
X150899500Y-123507746D01*
X150880593Y-123565937D01*
X150870505Y-123577748D01*
X150851474Y-123596779D01*
X150851470Y-123596784D01*
X150790282Y-123716872D01*
X150790281Y-123716874D01*
X150769196Y-123850001D01*
X148325500Y-123850001D01*
X148325500Y-122330252D01*
X148325491Y-122330209D01*
X148320502Y-122305124D01*
X148313867Y-122271769D01*
X148269552Y-122205448D01*
X148261399Y-122200000D01*
X148203233Y-122161134D01*
X148203231Y-122161133D01*
X148203228Y-122161132D01*
X148203227Y-122161132D01*
X148144758Y-122149501D01*
X148144748Y-122149500D01*
X148144747Y-122149500D01*
X147824500Y-122149500D01*
X147766309Y-122130593D01*
X147730345Y-122081093D01*
X147725500Y-122050500D01*
X147725500Y-121623117D01*
X147736291Y-121578172D01*
X147765268Y-121521300D01*
X147784719Y-121483126D01*
X147805804Y-121350000D01*
X147784719Y-121216874D01*
X147723528Y-121096780D01*
X147628220Y-121001472D01*
X147628217Y-121001470D01*
X147508129Y-120940282D01*
X147508127Y-120940281D01*
X147375000Y-120919196D01*
X147374997Y-120919196D01*
X147333858Y-120925711D01*
X147273426Y-120916139D01*
X147230163Y-120872874D01*
X147220592Y-120812441D01*
X147236055Y-120772934D01*
X147275921Y-120713271D01*
X147332141Y-120577544D01*
X147360801Y-120433457D01*
X147360801Y-120286547D01*
X147332141Y-120142460D01*
X147292691Y-120047219D01*
X147275922Y-120006735D01*
X147275922Y-120006734D01*
X147244307Y-119959420D01*
X147194302Y-119884582D01*
X147167221Y-119857501D01*
X147139444Y-119802984D01*
X147149015Y-119742552D01*
X147192280Y-119699287D01*
X147243512Y-119690485D01*
X147243512Y-119689325D01*
X147250001Y-119689325D01*
X147405118Y-119668903D01*
X147549665Y-119609030D01*
X147673789Y-119513786D01*
X147738672Y-119429229D01*
X147789096Y-119394575D01*
X147817213Y-119390498D01*
X147949565Y-119390498D01*
X147949565Y-119390497D01*
X148025991Y-119370019D01*
X148094513Y-119330458D01*
X148136001Y-119288970D01*
X148150463Y-119274509D01*
X148192293Y-119232678D01*
X148246809Y-119204900D01*
X148307241Y-119214471D01*
X148320489Y-119222589D01*
X148321774Y-119223522D01*
X148321780Y-119223528D01*
X148441874Y-119284719D01*
X148575000Y-119305804D01*
X148708126Y-119284719D01*
X148828220Y-119223528D01*
X148923528Y-119128220D01*
X148984719Y-119008126D01*
X149005804Y-118875000D01*
X149005700Y-118874346D01*
X148992394Y-118790333D01*
X148984719Y-118741874D01*
X148923528Y-118621780D01*
X148828220Y-118526472D01*
X148828217Y-118526470D01*
X148708129Y-118465282D01*
X148708128Y-118465281D01*
X148701553Y-118464240D01*
X148647037Y-118436460D01*
X148619261Y-118381943D01*
X148628835Y-118321511D01*
X148672101Y-118278248D01*
X148701553Y-118268679D01*
X148758126Y-118259719D01*
X148878220Y-118198528D01*
X148973528Y-118103220D01*
X149034719Y-117983126D01*
X149055804Y-117850000D01*
X149034719Y-117716874D01*
X148973528Y-117596780D01*
X148878220Y-117501472D01*
X148878217Y-117501470D01*
X148758129Y-117440282D01*
X148758127Y-117440281D01*
X148625000Y-117419196D01*
X148491872Y-117440281D01*
X148491870Y-117440282D01*
X148371783Y-117501470D01*
X148366107Y-117505594D01*
X148307918Y-117524500D01*
X147821052Y-117524500D01*
X147762861Y-117505593D01*
X147742510Y-117485768D01*
X147707607Y-117440282D01*
X147673790Y-117396210D01*
X147549666Y-117300966D01*
X147549665Y-117300965D01*
X147490508Y-117276462D01*
X147443983Y-117236725D01*
X147429699Y-117177230D01*
X147453114Y-117120702D01*
X147490505Y-117093535D01*
X147549664Y-117069032D01*
X147673788Y-116973788D01*
X147738671Y-116889231D01*
X147789095Y-116854577D01*
X147817212Y-116850500D01*
X151534521Y-116850500D01*
X151592712Y-116869407D01*
X151604525Y-116879496D01*
X152270504Y-117545475D01*
X152298281Y-117599992D01*
X152299500Y-117615479D01*
X152299500Y-119507744D01*
X152280593Y-119565935D01*
X152270505Y-119577746D01*
X152251474Y-119596777D01*
X152251470Y-119596782D01*
X152190282Y-119716870D01*
X152190281Y-119716872D01*
X152169196Y-119849999D01*
X152169196Y-119850000D01*
X152190281Y-119983127D01*
X152190282Y-119983129D01*
X152251470Y-120103217D01*
X152251472Y-120103220D01*
X152346780Y-120198528D01*
X152466874Y-120259719D01*
X152600000Y-120280804D01*
X152733126Y-120259719D01*
X152853220Y-120198528D01*
X152948528Y-120103220D01*
X153009719Y-119983126D01*
X153030804Y-119850000D01*
X153009719Y-119716874D01*
X152948528Y-119596780D01*
X152948525Y-119596777D01*
X152929495Y-119577746D01*
X152901719Y-119523229D01*
X152900500Y-119507744D01*
X152900500Y-117410437D01*
X152900499Y-117410435D01*
X152896687Y-117396210D01*
X152880021Y-117334011D01*
X152860389Y-117300008D01*
X152840460Y-117265489D01*
X152784511Y-117209539D01*
X152784511Y-117209540D01*
X151884511Y-116309540D01*
X151855042Y-116292526D01*
X151814102Y-116247056D01*
X151807707Y-116186206D01*
X151838300Y-116133218D01*
X151894196Y-116108332D01*
X151904746Y-116107791D01*
X158240845Y-116122290D01*
X158298992Y-116141331D01*
X158334842Y-116190913D01*
X158334702Y-116252098D01*
X158298625Y-116301516D01*
X158295621Y-116303605D01*
X158255449Y-116330447D01*
X158255445Y-116330451D01*
X158211134Y-116396766D01*
X158211132Y-116396772D01*
X158199501Y-116455241D01*
X158199500Y-116455253D01*
X158199500Y-117694746D01*
X158199501Y-117694758D01*
X158211132Y-117753227D01*
X158211133Y-117753231D01*
X158255448Y-117819552D01*
X158321769Y-117863867D01*
X158366231Y-117872711D01*
X158380241Y-117875498D01*
X158380246Y-117875498D01*
X158380252Y-117875500D01*
X158380253Y-117875500D01*
X160219747Y-117875500D01*
X160219748Y-117875500D01*
X160278231Y-117863867D01*
X160344552Y-117819552D01*
X160388867Y-117753231D01*
X160400500Y-117694748D01*
X160400500Y-116455252D01*
X160388867Y-116396769D01*
X160344552Y-116330448D01*
X160344548Y-116330445D01*
X160278233Y-116286134D01*
X160278231Y-116286133D01*
X160278228Y-116286132D01*
X160278227Y-116286132D01*
X160219758Y-116274501D01*
X160219748Y-116274500D01*
X159514552Y-116274500D01*
X159456361Y-116255593D01*
X159420397Y-116206093D01*
X159420397Y-116144907D01*
X159425000Y-116137405D01*
X159425000Y-115125000D01*
X159425001Y-115124648D01*
X159433230Y-112812070D01*
X159452344Y-112753949D01*
X159501972Y-112718161D01*
X159563157Y-112718379D01*
X159596524Y-112737144D01*
X159858540Y-112960927D01*
X159862392Y-112964395D01*
X160411169Y-113485165D01*
X160414834Y-113488830D01*
X160935604Y-114037607D01*
X160939072Y-114041459D01*
X161430399Y-114616729D01*
X161433661Y-114620757D01*
X161894218Y-115220966D01*
X161897247Y-115225134D01*
X162111246Y-115536504D01*
X162325777Y-115848650D01*
X162328599Y-115852997D01*
X162437660Y-116030968D01*
X162712271Y-116479092D01*
X162723875Y-116498027D01*
X162726463Y-116502508D01*
X162766840Y-116576873D01*
X163087461Y-117167386D01*
X163089814Y-117172004D01*
X163277734Y-117565985D01*
X163413202Y-117849999D01*
X163415515Y-117854847D01*
X163417623Y-117859583D01*
X163707139Y-118558540D01*
X163708996Y-118563378D01*
X163961528Y-119276505D01*
X163963130Y-119281434D01*
X164177999Y-120006819D01*
X164179341Y-120011826D01*
X164355956Y-120747480D01*
X164357033Y-120752550D01*
X164494898Y-121496403D01*
X164495709Y-121501522D01*
X164594457Y-122251588D01*
X164594999Y-122256743D01*
X164654356Y-123010958D01*
X164654627Y-123016133D01*
X164674432Y-123772408D01*
X164674432Y-123777592D01*
X164654627Y-124533866D01*
X164654356Y-124539041D01*
X164594999Y-125293256D01*
X164594457Y-125298411D01*
X164495709Y-126048477D01*
X164494898Y-126053596D01*
X164357033Y-126797449D01*
X164355956Y-126802519D01*
X164179341Y-127538173D01*
X164177999Y-127543180D01*
X163963130Y-128268565D01*
X163961528Y-128273494D01*
X163708996Y-128986621D01*
X163707139Y-128991459D01*
X163417623Y-129690416D01*
X163415515Y-129695152D01*
X163089814Y-130377995D01*
X163087461Y-130382613D01*
X162726467Y-131047484D01*
X162723875Y-131051972D01*
X162328599Y-131697002D01*
X162325777Y-131701349D01*
X161897256Y-132324853D01*
X161894209Y-132329046D01*
X161433661Y-132929242D01*
X161430399Y-132933270D01*
X160939072Y-133508540D01*
X160935604Y-133512392D01*
X160414834Y-134061169D01*
X160411169Y-134064834D01*
X159862392Y-134585604D01*
X159858540Y-134589072D01*
X159283270Y-135080399D01*
X159279242Y-135083661D01*
X158679046Y-135544209D01*
X158674853Y-135547256D01*
X158051349Y-135975777D01*
X158047002Y-135978599D01*
X157401972Y-136373875D01*
X157397484Y-136376467D01*
X156732613Y-136737461D01*
X156727995Y-136739814D01*
X156045152Y-137065515D01*
X156040416Y-137067623D01*
X155341459Y-137357139D01*
X155336621Y-137358996D01*
X154623494Y-137611528D01*
X154618565Y-137613130D01*
X153893180Y-137827999D01*
X153888173Y-137829341D01*
X153152519Y-138005956D01*
X153147449Y-138007033D01*
X152403596Y-138144898D01*
X152398477Y-138145709D01*
X151648411Y-138244457D01*
X151643256Y-138244999D01*
X150889041Y-138304356D01*
X150883866Y-138304627D01*
X150127592Y-138324432D01*
X150122408Y-138324432D01*
X149366133Y-138304627D01*
X149360958Y-138304356D01*
X148606743Y-138244999D01*
X148601588Y-138244457D01*
X147851522Y-138145709D01*
X147846403Y-138144898D01*
X147102550Y-138007033D01*
X147097480Y-138005956D01*
X146361826Y-137829341D01*
X146356819Y-137827999D01*
X145631434Y-137613130D01*
X145626505Y-137611528D01*
X144913378Y-137358996D01*
X144908540Y-137357139D01*
X144209583Y-137067623D01*
X144204847Y-137065515D01*
X144202012Y-137064163D01*
X144062051Y-136997404D01*
X143522004Y-136739814D01*
X143517386Y-136737461D01*
X143022145Y-136468568D01*
X142852508Y-136376463D01*
X142848027Y-136373875D01*
X142790039Y-136338340D01*
X142401103Y-136099999D01*
X152069508Y-136099999D01*
X152069508Y-136100000D01*
X152089354Y-136225303D01*
X152089355Y-136225307D01*
X152144944Y-136334406D01*
X152146950Y-136338342D01*
X152236658Y-136428050D01*
X152349696Y-136485646D01*
X152475000Y-136505492D01*
X152600304Y-136485646D01*
X152713342Y-136428050D01*
X152713348Y-136428043D01*
X152719647Y-136423469D01*
X152720748Y-136424985D01*
X152766412Y-136401719D01*
X152781899Y-136400500D01*
X156639563Y-136400500D01*
X156639563Y-136400499D01*
X156715989Y-136380021D01*
X156784511Y-136340460D01*
X156840460Y-136284511D01*
X158490460Y-134634511D01*
X158517667Y-134587386D01*
X158530021Y-134565989D01*
X158550500Y-134489562D01*
X158550500Y-134158371D01*
X158569407Y-134100180D01*
X158579490Y-134088373D01*
X159640460Y-133027404D01*
X159680022Y-132958881D01*
X159700500Y-132882455D01*
X159700500Y-132803331D01*
X159700500Y-128724999D01*
X162369196Y-128724999D01*
X162369196Y-128725000D01*
X162390281Y-128858127D01*
X162390282Y-128858129D01*
X162451470Y-128978217D01*
X162451472Y-128978220D01*
X162546780Y-129073528D01*
X162666874Y-129134719D01*
X162800000Y-129155804D01*
X162933126Y-129134719D01*
X163053220Y-129073528D01*
X163148528Y-128978220D01*
X163209719Y-128858126D01*
X163230804Y-128725000D01*
X163209719Y-128591874D01*
X163148528Y-128471780D01*
X163053220Y-128376472D01*
X163053217Y-128376470D01*
X162933129Y-128315282D01*
X162933127Y-128315281D01*
X162800000Y-128294196D01*
X162666872Y-128315281D01*
X162666870Y-128315282D01*
X162546782Y-128376470D01*
X162451470Y-128471782D01*
X162390282Y-128591870D01*
X162390281Y-128591872D01*
X162369196Y-128724999D01*
X159700500Y-128724999D01*
X159700500Y-127249999D01*
X162494196Y-127249999D01*
X162494196Y-127250000D01*
X162515281Y-127383127D01*
X162515282Y-127383129D01*
X162556669Y-127464355D01*
X162576472Y-127503220D01*
X162671780Y-127598528D01*
X162791874Y-127659719D01*
X162925000Y-127680804D01*
X163058126Y-127659719D01*
X163178220Y-127598528D01*
X163273528Y-127503220D01*
X163334719Y-127383126D01*
X163355804Y-127250000D01*
X163334719Y-127116874D01*
X163273528Y-126996780D01*
X163178220Y-126901472D01*
X163178217Y-126901470D01*
X163058129Y-126840282D01*
X163058127Y-126840281D01*
X162925000Y-126819196D01*
X162791872Y-126840281D01*
X162791870Y-126840282D01*
X162671782Y-126901470D01*
X162576470Y-126996782D01*
X162515282Y-127116870D01*
X162515281Y-127116872D01*
X162494196Y-127249999D01*
X159700500Y-127249999D01*
X159700500Y-125624999D01*
X160544196Y-125624999D01*
X160544196Y-125625000D01*
X160565281Y-125758127D01*
X160565282Y-125758129D01*
X160616937Y-125859507D01*
X160626472Y-125878220D01*
X160721780Y-125973528D01*
X160841874Y-126034719D01*
X160975000Y-126055804D01*
X161108126Y-126034719D01*
X161228220Y-125973528D01*
X161323528Y-125878220D01*
X161384719Y-125758126D01*
X161405804Y-125625000D01*
X161384719Y-125491874D01*
X161375865Y-125474498D01*
X161323529Y-125371782D01*
X161323528Y-125371780D01*
X161228220Y-125276472D01*
X161228217Y-125276470D01*
X161108129Y-125215282D01*
X161108127Y-125215281D01*
X160975000Y-125194196D01*
X160841872Y-125215281D01*
X160841870Y-125215282D01*
X160721782Y-125276470D01*
X160626470Y-125371782D01*
X160565282Y-125491870D01*
X160565281Y-125491872D01*
X160544196Y-125624999D01*
X159700500Y-125624999D01*
X159700500Y-125431899D01*
X159719407Y-125373708D01*
X159726850Y-125364992D01*
X159728043Y-125363348D01*
X159728050Y-125363342D01*
X159785646Y-125250304D01*
X159805492Y-125125000D01*
X159785646Y-124999696D01*
X159728050Y-124886658D01*
X159638342Y-124796950D01*
X159634406Y-124794944D01*
X159525307Y-124739355D01*
X159525304Y-124739354D01*
X159400000Y-124719508D01*
X159274696Y-124739354D01*
X159274692Y-124739355D01*
X159161659Y-124796949D01*
X159071949Y-124886659D01*
X159014355Y-124999692D01*
X159014354Y-124999696D01*
X159003978Y-125065211D01*
X158994508Y-125125000D01*
X159005467Y-125194196D01*
X159014354Y-125250303D01*
X159014355Y-125250307D01*
X159027686Y-125276470D01*
X159071950Y-125363342D01*
X159071952Y-125363344D01*
X159076531Y-125369647D01*
X159075014Y-125370748D01*
X159098281Y-125416412D01*
X159099500Y-125431899D01*
X159099500Y-132677414D01*
X159080593Y-132735605D01*
X159070504Y-132747418D01*
X158065489Y-133752433D01*
X158065488Y-133752432D01*
X158009539Y-133808382D01*
X157969980Y-133876900D01*
X157969978Y-133876904D01*
X157949500Y-133953328D01*
X157949500Y-134284521D01*
X157930593Y-134342712D01*
X157920504Y-134354525D01*
X157143009Y-135132019D01*
X157088492Y-135159796D01*
X157028060Y-135150225D01*
X156984795Y-135106960D01*
X156975720Y-135049660D01*
X156975023Y-135049592D01*
X156975286Y-135046919D01*
X156975224Y-135046528D01*
X156975448Y-135045273D01*
X156975500Y-135044746D01*
X156975500Y-133205253D01*
X156975498Y-133205241D01*
X156972711Y-133191231D01*
X156963867Y-133146769D01*
X156919552Y-133080448D01*
X156919548Y-133080445D01*
X156853233Y-133036134D01*
X156853231Y-133036133D01*
X156853228Y-133036132D01*
X156853227Y-133036132D01*
X156794758Y-133024501D01*
X156794748Y-133024500D01*
X155555252Y-133024500D01*
X155555251Y-133024500D01*
X155555241Y-133024501D01*
X155496772Y-133036132D01*
X155496766Y-133036134D01*
X155454502Y-133064375D01*
X155395614Y-133080984D01*
X155338210Y-133059807D01*
X155304217Y-133008933D01*
X155300500Y-132982060D01*
X155300500Y-132635437D01*
X155300499Y-132635435D01*
X155280021Y-132559011D01*
X155280019Y-132559007D01*
X155240460Y-132490489D01*
X155184512Y-132434540D01*
X154833812Y-132083841D01*
X154801975Y-132065459D01*
X154801975Y-132065460D01*
X154765290Y-132044280D01*
X154765289Y-132044279D01*
X154765288Y-132044279D01*
X154688865Y-132023801D01*
X154688863Y-132023801D01*
X154131200Y-132023801D01*
X154073009Y-132004894D01*
X154064293Y-131997450D01*
X154062645Y-131996253D01*
X154062643Y-131996251D01*
X154007162Y-131967982D01*
X153949608Y-131938656D01*
X153949605Y-131938655D01*
X153824301Y-131918809D01*
X153698997Y-131938655D01*
X153698993Y-131938656D01*
X153585960Y-131996250D01*
X153496250Y-132085960D01*
X153438656Y-132198993D01*
X153438655Y-132198997D01*
X153418809Y-132324300D01*
X153418809Y-132324301D01*
X153438655Y-132449604D01*
X153438656Y-132449608D01*
X153494245Y-132558707D01*
X153496251Y-132562643D01*
X153585959Y-132652351D01*
X153698997Y-132709947D01*
X153824301Y-132729793D01*
X153949605Y-132709947D01*
X154062643Y-132652351D01*
X154062649Y-132652344D01*
X154068948Y-132647770D01*
X154070049Y-132649286D01*
X154115713Y-132626020D01*
X154131200Y-132624801D01*
X154483822Y-132624801D01*
X154542013Y-132643708D01*
X154553826Y-132653797D01*
X154670504Y-132770475D01*
X154698281Y-132824992D01*
X154699500Y-132840479D01*
X154699500Y-133968100D01*
X154680593Y-134026291D01*
X154673153Y-134035002D01*
X154671950Y-134036658D01*
X154614355Y-134149692D01*
X154614354Y-134149696D01*
X154594508Y-134275000D01*
X154605232Y-134342712D01*
X154614354Y-134400303D01*
X154614355Y-134400307D01*
X154659832Y-134489559D01*
X154671950Y-134513342D01*
X154761658Y-134603050D01*
X154874696Y-134660646D01*
X155000000Y-134680492D01*
X155125304Y-134660646D01*
X155230557Y-134607016D01*
X155290986Y-134597445D01*
X155345503Y-134625222D01*
X155373281Y-134679738D01*
X155374500Y-134695226D01*
X155374500Y-135044746D01*
X155374501Y-135044758D01*
X155386132Y-135103227D01*
X155386134Y-135103233D01*
X155414602Y-135145837D01*
X155430448Y-135169552D01*
X155496769Y-135213867D01*
X155541231Y-135222711D01*
X155555241Y-135225498D01*
X155555246Y-135225498D01*
X155555252Y-135225500D01*
X155555253Y-135225500D01*
X156794747Y-135225500D01*
X156794748Y-135225500D01*
X156794748Y-135225499D01*
X156799592Y-135225023D01*
X156799761Y-135226746D01*
X156853451Y-135233094D01*
X156898386Y-135274620D01*
X156910330Y-135334629D01*
X156884722Y-135390197D01*
X156882019Y-135393008D01*
X156504525Y-135770503D01*
X156450008Y-135798281D01*
X156434521Y-135799500D01*
X154797090Y-135799500D01*
X154738899Y-135780593D01*
X154702935Y-135731093D01*
X154702935Y-135669907D01*
X154738899Y-135620407D01*
X154752144Y-135612291D01*
X154769879Y-135603253D01*
X154828220Y-135573528D01*
X154923528Y-135478220D01*
X154984719Y-135358126D01*
X155005804Y-135225000D01*
X154984719Y-135091874D01*
X154975866Y-135074500D01*
X154943925Y-135011811D01*
X154923528Y-134971780D01*
X154828220Y-134876472D01*
X154828217Y-134876470D01*
X154708129Y-134815282D01*
X154708127Y-134815281D01*
X154575000Y-134794196D01*
X154441872Y-134815281D01*
X154441870Y-134815282D01*
X154321782Y-134876470D01*
X154226470Y-134971782D01*
X154165282Y-135091870D01*
X154165281Y-135091872D01*
X154144196Y-135224999D01*
X154144196Y-135225000D01*
X154165281Y-135358127D01*
X154165282Y-135358129D01*
X154226470Y-135478217D01*
X154226472Y-135478220D01*
X154321780Y-135573528D01*
X154369090Y-135597633D01*
X154397856Y-135612291D01*
X154441120Y-135655556D01*
X154450691Y-135715988D01*
X154422913Y-135770504D01*
X154368396Y-135798281D01*
X154352910Y-135799500D01*
X152781899Y-135799500D01*
X152723708Y-135780593D01*
X152714992Y-135773149D01*
X152713344Y-135771952D01*
X152713342Y-135771950D01*
X152627184Y-135728050D01*
X152600307Y-135714355D01*
X152600304Y-135714354D01*
X152475000Y-135694508D01*
X152349696Y-135714354D01*
X152349692Y-135714355D01*
X152236659Y-135771949D01*
X152146949Y-135861659D01*
X152089355Y-135974692D01*
X152089354Y-135974696D01*
X152069508Y-136099999D01*
X142401103Y-136099999D01*
X142202997Y-135978599D01*
X142198650Y-135975777D01*
X141914655Y-135780593D01*
X141575134Y-135547247D01*
X141570966Y-135544218D01*
X141383018Y-135400000D01*
X142819508Y-135400000D01*
X142836633Y-135508127D01*
X142839354Y-135525303D01*
X142839355Y-135525307D01*
X142863925Y-135573528D01*
X142896950Y-135638342D01*
X142986658Y-135728050D01*
X143099696Y-135785646D01*
X143225000Y-135805492D01*
X143350304Y-135785646D01*
X143447168Y-135736290D01*
X143492114Y-135725500D01*
X143792851Y-135725500D01*
X143792853Y-135725500D01*
X143875639Y-135703318D01*
X143875641Y-135703316D01*
X143875643Y-135703316D01*
X143949857Y-135660468D01*
X143949857Y-135660467D01*
X143949862Y-135660465D01*
X144446286Y-135164040D01*
X144500799Y-135136266D01*
X144561231Y-135145837D01*
X144604496Y-135189102D01*
X144614067Y-135249533D01*
X144594196Y-135374998D01*
X144594196Y-135375000D01*
X144615281Y-135508127D01*
X144615282Y-135508129D01*
X144672491Y-135620407D01*
X144676472Y-135628220D01*
X144771780Y-135723528D01*
X144771782Y-135723529D01*
X144863975Y-135770504D01*
X144891874Y-135784719D01*
X145025000Y-135805804D01*
X145158126Y-135784719D01*
X145278220Y-135723528D01*
X145373528Y-135628220D01*
X145434719Y-135508126D01*
X145455804Y-135375000D01*
X145434719Y-135241874D01*
X145373528Y-135121780D01*
X145346249Y-135094501D01*
X145318474Y-135039987D01*
X145328045Y-134979555D01*
X145371310Y-134936290D01*
X145416255Y-134925500D01*
X148274165Y-134925500D01*
X148332356Y-134944407D01*
X148344169Y-134954496D01*
X148889535Y-135499862D01*
X148889534Y-135499862D01*
X148928014Y-135538341D01*
X148950138Y-135560465D01*
X149024362Y-135603318D01*
X149107147Y-135625500D01*
X149357886Y-135625500D01*
X149402831Y-135636290D01*
X149499696Y-135685646D01*
X149625000Y-135705492D01*
X149750304Y-135685646D01*
X149863342Y-135628050D01*
X149953050Y-135538342D01*
X150010646Y-135425304D01*
X150010647Y-135425299D01*
X150010650Y-135425292D01*
X150010658Y-135425277D01*
X150014183Y-135418361D01*
X150014727Y-135418638D01*
X150034800Y-135385880D01*
X150380469Y-135040213D01*
X150426614Y-134960288D01*
X150435935Y-134925500D01*
X150450500Y-134871144D01*
X150450500Y-133205253D01*
X151774500Y-133205253D01*
X151774500Y-135044746D01*
X151774501Y-135044758D01*
X151786132Y-135103227D01*
X151786134Y-135103233D01*
X151814602Y-135145837D01*
X151830448Y-135169552D01*
X151896769Y-135213867D01*
X151941231Y-135222711D01*
X151955241Y-135225498D01*
X151955246Y-135225498D01*
X151955252Y-135225500D01*
X151955253Y-135225500D01*
X153194747Y-135225500D01*
X153194748Y-135225500D01*
X153253231Y-135213867D01*
X153319552Y-135169552D01*
X153363867Y-135103231D01*
X153375500Y-135044748D01*
X153375500Y-133205252D01*
X153363867Y-133146769D01*
X153319552Y-133080448D01*
X153319548Y-133080445D01*
X153253233Y-133036134D01*
X153253231Y-133036133D01*
X153253228Y-133036132D01*
X153253227Y-133036132D01*
X153194758Y-133024501D01*
X153194748Y-133024500D01*
X151955252Y-133024500D01*
X151955251Y-133024500D01*
X151955241Y-133024501D01*
X151896772Y-133036132D01*
X151896766Y-133036134D01*
X151830451Y-133080445D01*
X151830445Y-133080451D01*
X151786134Y-133146766D01*
X151786132Y-133146772D01*
X151774501Y-133205241D01*
X151774500Y-133205253D01*
X150450500Y-133205253D01*
X150450500Y-130253856D01*
X150426614Y-130164712D01*
X150411389Y-130138342D01*
X150411389Y-130138341D01*
X150380470Y-130084788D01*
X149979496Y-129683813D01*
X149951719Y-129629297D01*
X149950500Y-129613810D01*
X149950500Y-129418048D01*
X149961291Y-129373102D01*
X149983023Y-129330451D01*
X149985646Y-129325304D01*
X150005492Y-129200000D01*
X149985646Y-129074696D01*
X149928050Y-128961658D01*
X149838342Y-128871950D01*
X149805753Y-128855345D01*
X149725307Y-128814355D01*
X149725304Y-128814354D01*
X149600000Y-128794508D01*
X149474696Y-128814354D01*
X149474692Y-128814355D01*
X149361659Y-128871949D01*
X149271949Y-128961659D01*
X149214355Y-129074692D01*
X149214354Y-129074696D01*
X149194508Y-129199999D01*
X149194508Y-129200000D01*
X149214354Y-129325304D01*
X149238709Y-129373102D01*
X149249500Y-129418048D01*
X149249500Y-129846144D01*
X149249499Y-129846144D01*
X149258097Y-129878227D01*
X149258097Y-129878230D01*
X149258098Y-129878230D01*
X149258098Y-129878231D01*
X149273386Y-129935288D01*
X149319530Y-130015212D01*
X149720505Y-130416187D01*
X149748281Y-130470702D01*
X149749500Y-130486189D01*
X149749500Y-134638810D01*
X149730593Y-134697001D01*
X149720503Y-134708814D01*
X149539117Y-134890199D01*
X149506360Y-134910275D01*
X149506637Y-134910818D01*
X149499753Y-134914325D01*
X149499723Y-134914344D01*
X149499706Y-134914349D01*
X149499696Y-134914353D01*
X149499696Y-134914354D01*
X149402828Y-134963710D01*
X149357886Y-134974500D01*
X149325835Y-134974500D01*
X149267644Y-134955593D01*
X149255831Y-134945504D01*
X148970971Y-134660644D01*
X148649862Y-134339535D01*
X148649859Y-134339533D01*
X148649858Y-134339532D01*
X148649857Y-134339531D01*
X148575642Y-134296683D01*
X148575644Y-134296683D01*
X148543521Y-134288076D01*
X148492853Y-134274500D01*
X144592853Y-134274500D01*
X144507147Y-134274500D01*
X144456478Y-134288076D01*
X144424356Y-134296683D01*
X144350142Y-134339531D01*
X143644169Y-135045504D01*
X143589652Y-135073281D01*
X143574165Y-135074500D01*
X143492114Y-135074500D01*
X143447168Y-135063709D01*
X143350307Y-135014355D01*
X143350304Y-135014354D01*
X143225000Y-134994508D01*
X143099696Y-135014354D01*
X143099692Y-135014355D01*
X142986659Y-135071949D01*
X142896949Y-135161659D01*
X142839355Y-135274692D01*
X142839354Y-135274696D01*
X142821061Y-135390197D01*
X142819508Y-135400000D01*
X141383018Y-135400000D01*
X140970757Y-135083661D01*
X140966729Y-135080399D01*
X140391459Y-134589072D01*
X140387607Y-134585604D01*
X139838830Y-134064834D01*
X139835165Y-134061169D01*
X139314395Y-133512392D01*
X139310927Y-133508540D01*
X138819600Y-132933270D01*
X138816338Y-132929242D01*
X138780437Y-132882455D01*
X138355776Y-132329027D01*
X138352757Y-132324872D01*
X137924220Y-131701346D01*
X137921400Y-131697002D01*
X137853781Y-131586658D01*
X137526113Y-131051953D01*
X137523543Y-131047503D01*
X137218775Y-130486189D01*
X137162538Y-130382613D01*
X137160185Y-130377995D01*
X137045876Y-130138342D01*
X136967965Y-129974999D01*
X138819196Y-129974999D01*
X138819196Y-129975000D01*
X138840281Y-130108127D01*
X138840282Y-130108129D01*
X138901385Y-130228050D01*
X138901472Y-130228220D01*
X138996780Y-130323528D01*
X139116874Y-130384719D01*
X139250000Y-130405804D01*
X139383126Y-130384719D01*
X139503220Y-130323528D01*
X139598528Y-130228220D01*
X139659719Y-130108126D01*
X139680804Y-129975000D01*
X139659719Y-129841874D01*
X139598528Y-129721780D01*
X139503220Y-129626472D01*
X139503217Y-129626470D01*
X139383129Y-129565282D01*
X139383127Y-129565281D01*
X139250000Y-129544196D01*
X139116872Y-129565281D01*
X139116870Y-129565282D01*
X138996782Y-129626470D01*
X138901470Y-129721782D01*
X138840282Y-129841870D01*
X138840281Y-129841872D01*
X138819196Y-129974999D01*
X136967965Y-129974999D01*
X136834474Y-129695130D01*
X136832376Y-129690416D01*
X136825381Y-129673529D01*
X136602200Y-129134719D01*
X136542860Y-128991459D01*
X136541003Y-128986621D01*
X136536887Y-128974999D01*
X136295802Y-128294196D01*
X136288471Y-128273494D01*
X136286869Y-128268565D01*
X136233973Y-128089992D01*
X136203096Y-127985752D01*
X137226662Y-127985752D01*
X137226663Y-127985753D01*
X137752690Y-127985753D01*
X137732942Y-128019957D01*
X137712498Y-128096257D01*
X137712498Y-128175249D01*
X137732942Y-128251549D01*
X137752690Y-128285753D01*
X137226662Y-128285753D01*
X137243240Y-128369101D01*
X137303546Y-128514693D01*
X137303550Y-128514702D01*
X137391097Y-128645722D01*
X137391100Y-128645726D01*
X137502524Y-128757150D01*
X137502528Y-128757153D01*
X137633548Y-128844700D01*
X137633557Y-128844704D01*
X137779148Y-128905010D01*
X137933702Y-128935752D01*
X137933706Y-128935753D01*
X138462497Y-128935753D01*
X138462498Y-128935752D01*
X138462498Y-128435753D01*
X138762498Y-128435753D01*
X138762498Y-128935752D01*
X138762499Y-128935753D01*
X139291290Y-128935753D01*
X139291293Y-128935752D01*
X139445847Y-128905010D01*
X139591438Y-128844704D01*
X139591447Y-128844700D01*
X139722467Y-128757153D01*
X139722471Y-128757150D01*
X139833895Y-128645726D01*
X139833898Y-128645722D01*
X139921445Y-128514702D01*
X139921451Y-128514690D01*
X139959036Y-128423952D01*
X139998772Y-128377426D01*
X140058267Y-128363142D01*
X140114795Y-128386557D01*
X140146765Y-128438726D01*
X140149500Y-128461837D01*
X140149500Y-131164564D01*
X140169977Y-131240985D01*
X140169979Y-131240989D01*
X140204224Y-131300304D01*
X140209540Y-131309511D01*
X140909540Y-132009511D01*
X140909539Y-132009511D01*
X140965489Y-132065460D01*
X141034007Y-132105019D01*
X141034011Y-132105021D01*
X141110435Y-132125499D01*
X141110437Y-132125500D01*
X141110438Y-132125500D01*
X141189562Y-132125500D01*
X148343101Y-132125500D01*
X148401292Y-132144407D01*
X148410007Y-132151850D01*
X148411654Y-132153046D01*
X148411658Y-132153050D01*
X148524696Y-132210646D01*
X148650000Y-132230492D01*
X148775304Y-132210646D01*
X148888342Y-132153050D01*
X148978050Y-132063342D01*
X149035646Y-131950304D01*
X149055492Y-131825000D01*
X149035646Y-131699696D01*
X148978050Y-131586658D01*
X148888342Y-131496950D01*
X148884406Y-131494944D01*
X148775307Y-131439355D01*
X148775304Y-131439354D01*
X148650000Y-131419508D01*
X148524696Y-131439354D01*
X148524692Y-131439355D01*
X148411658Y-131496950D01*
X148405353Y-131501531D01*
X148404251Y-131500014D01*
X148358588Y-131523281D01*
X148343101Y-131524500D01*
X147682965Y-131524500D01*
X147624774Y-131505593D01*
X147588810Y-131456093D01*
X147588810Y-131394907D01*
X147594756Y-131380554D01*
X147635645Y-131300306D01*
X147635645Y-131300305D01*
X147635646Y-131300304D01*
X147655492Y-131175000D01*
X147654629Y-131169554D01*
X147644124Y-131103227D01*
X147635646Y-131049696D01*
X147578050Y-130936658D01*
X147488342Y-130846950D01*
X147484406Y-130844944D01*
X147375307Y-130789355D01*
X147375304Y-130789354D01*
X147250000Y-130769508D01*
X147124696Y-130789354D01*
X147124692Y-130789355D01*
X147011658Y-130846950D01*
X147005353Y-130851531D01*
X147004251Y-130850014D01*
X146958588Y-130873281D01*
X146943101Y-130874500D01*
X146448746Y-130874500D01*
X146390555Y-130855593D01*
X146354591Y-130806093D01*
X146354591Y-130744907D01*
X146390555Y-130695407D01*
X146423120Y-130679874D01*
X146435288Y-130676614D01*
X146515212Y-130630470D01*
X146835880Y-130309800D01*
X146868638Y-130289727D01*
X146868361Y-130289183D01*
X146875277Y-130285658D01*
X146875292Y-130285650D01*
X146875299Y-130285647D01*
X146875299Y-130285646D01*
X146875304Y-130285646D01*
X146988342Y-130228050D01*
X147078050Y-130138342D01*
X147133492Y-130029530D01*
X147176755Y-129986268D01*
X147237187Y-129976697D01*
X147262197Y-129986486D01*
X147262758Y-129985134D01*
X147271764Y-129988863D01*
X147271769Y-129988867D01*
X147316231Y-129997711D01*
X147330241Y-130000498D01*
X147330246Y-130000498D01*
X147330252Y-130000500D01*
X147330253Y-130000500D01*
X148569747Y-130000500D01*
X148569748Y-130000500D01*
X148628231Y-129988867D01*
X148694552Y-129944552D01*
X148738867Y-129878231D01*
X148750500Y-129819748D01*
X148750500Y-127980252D01*
X148738867Y-127921769D01*
X148694552Y-127855448D01*
X148686399Y-127850000D01*
X148628233Y-127811134D01*
X148628231Y-127811133D01*
X148628228Y-127811132D01*
X148628227Y-127811132D01*
X148569758Y-127799501D01*
X148569748Y-127799500D01*
X147330252Y-127799500D01*
X147330251Y-127799500D01*
X147330241Y-127799501D01*
X147271772Y-127811132D01*
X147271766Y-127811134D01*
X147205451Y-127855445D01*
X147205445Y-127855451D01*
X147161134Y-127921766D01*
X147161132Y-127921772D01*
X147149501Y-127980241D01*
X147149500Y-127980253D01*
X147149500Y-129494739D01*
X147130593Y-129552930D01*
X147081093Y-129588894D01*
X147019907Y-129588894D01*
X146992316Y-129574837D01*
X146988342Y-129571950D01*
X146875307Y-129514355D01*
X146875304Y-129514354D01*
X146750000Y-129494508D01*
X146624696Y-129514354D01*
X146624692Y-129514355D01*
X146511659Y-129571949D01*
X146421948Y-129661660D01*
X146364351Y-129774700D01*
X146364344Y-129774723D01*
X146364319Y-129774762D01*
X146360817Y-129781637D01*
X146360275Y-129781361D01*
X146340199Y-129814117D01*
X146183815Y-129970503D01*
X146129299Y-129998281D01*
X146113811Y-129999500D01*
X145418050Y-129999500D01*
X145373105Y-129988710D01*
X145368740Y-129986486D01*
X145325304Y-129964354D01*
X145229652Y-129949204D01*
X145175135Y-129921426D01*
X145147358Y-129866910D01*
X145148042Y-129832107D01*
X145150499Y-129819755D01*
X145150500Y-129819746D01*
X145150500Y-127980253D01*
X145150498Y-127980241D01*
X145144790Y-127951545D01*
X145138867Y-127921769D01*
X145094552Y-127855448D01*
X145086399Y-127850000D01*
X145028233Y-127811134D01*
X145028231Y-127811133D01*
X145028228Y-127811132D01*
X145028227Y-127811132D01*
X144969758Y-127799501D01*
X144969748Y-127799500D01*
X143802892Y-127799500D01*
X143744701Y-127780593D01*
X143720577Y-127755501D01*
X143633903Y-127625784D01*
X143633896Y-127625776D01*
X143522472Y-127514352D01*
X143522468Y-127514349D01*
X143391448Y-127426802D01*
X143391439Y-127426798D01*
X143245848Y-127366492D01*
X143091294Y-127335750D01*
X142762500Y-127335750D01*
X142762499Y-127335751D01*
X142762499Y-127835750D01*
X142462499Y-127835750D01*
X142462499Y-127335751D01*
X142462498Y-127335750D01*
X142133703Y-127335750D01*
X141979149Y-127366492D01*
X141833558Y-127426798D01*
X141833549Y-127426802D01*
X141702529Y-127514349D01*
X141702525Y-127514352D01*
X141694504Y-127522374D01*
X141639987Y-127550151D01*
X141579555Y-127540580D01*
X141536290Y-127497315D01*
X141525500Y-127452370D01*
X141525500Y-127130253D01*
X151349500Y-127130253D01*
X151349500Y-128669746D01*
X151349501Y-128669758D01*
X151361132Y-128728227D01*
X151361134Y-128728233D01*
X151405445Y-128794548D01*
X151405448Y-128794552D01*
X151471769Y-128838867D01*
X151515054Y-128847477D01*
X151530241Y-128850498D01*
X151530246Y-128850498D01*
X151530252Y-128850500D01*
X151650500Y-128850500D01*
X151708691Y-128869407D01*
X151744655Y-128918907D01*
X151749500Y-128949500D01*
X151749500Y-129051881D01*
X151738710Y-129096826D01*
X151690281Y-129191872D01*
X151690281Y-129191874D01*
X151669196Y-129324999D01*
X151669196Y-129325000D01*
X151690281Y-129458127D01*
X151690282Y-129458129D01*
X151748277Y-129571950D01*
X151751472Y-129578220D01*
X151846780Y-129673528D01*
X151966874Y-129734719D01*
X152080255Y-129752676D01*
X152134770Y-129780453D01*
X152134771Y-129780453D01*
X152884788Y-130530470D01*
X152964712Y-130576614D01*
X153053856Y-130600500D01*
X153053857Y-130600500D01*
X153146144Y-130600500D01*
X153275500Y-130600500D01*
X153333691Y-130619407D01*
X153369655Y-130668907D01*
X153374500Y-130699500D01*
X153374500Y-131044746D01*
X153374501Y-131044758D01*
X153386132Y-131103227D01*
X153386134Y-131103233D01*
X153427115Y-131164564D01*
X153430448Y-131169552D01*
X153496769Y-131213867D01*
X153541231Y-131222711D01*
X153555241Y-131225498D01*
X153555246Y-131225498D01*
X153555252Y-131225500D01*
X153555253Y-131225500D01*
X154194747Y-131225500D01*
X154194748Y-131225500D01*
X154253231Y-131213867D01*
X154253232Y-131213865D01*
X154262794Y-131211964D01*
X154263021Y-131213109D01*
X154314185Y-131209082D01*
X154361081Y-131235343D01*
X154402523Y-131276785D01*
X154505128Y-131322089D01*
X154530204Y-131324998D01*
X154725001Y-131324998D01*
X154725001Y-130400000D01*
X155025001Y-130400000D01*
X155025001Y-131324997D01*
X155025002Y-131324998D01*
X155219791Y-131324998D01*
X155219792Y-131324997D01*
X155244875Y-131322089D01*
X155347478Y-131276785D01*
X155426787Y-131197476D01*
X155472091Y-131094871D01*
X155475000Y-131069796D01*
X155475001Y-131069794D01*
X155475001Y-130400000D01*
X155475000Y-130399999D01*
X155025002Y-130399999D01*
X155025001Y-130400000D01*
X154725001Y-130400000D01*
X154725001Y-129175000D01*
X155025001Y-129175000D01*
X155025001Y-130099998D01*
X155025002Y-130099999D01*
X155474999Y-130099999D01*
X155475000Y-130099998D01*
X155475000Y-129750000D01*
X156744508Y-129750000D01*
X156755556Y-129819758D01*
X156764354Y-129875303D01*
X156764355Y-129875307D01*
X156815151Y-129974999D01*
X156821950Y-129988342D01*
X156911658Y-130078050D01*
X157024696Y-130135646D01*
X157150000Y-130155492D01*
X157275304Y-130135646D01*
X157388342Y-130078050D01*
X157478050Y-129988342D01*
X157535646Y-129875304D01*
X157555492Y-129750000D01*
X157535646Y-129624696D01*
X157486290Y-129527831D01*
X157475500Y-129482886D01*
X157475500Y-128156899D01*
X157494407Y-128098708D01*
X157501850Y-128089992D01*
X157503043Y-128088348D01*
X157503050Y-128088342D01*
X157560646Y-127975304D01*
X157580492Y-127850000D01*
X157560646Y-127724696D01*
X157503050Y-127611658D01*
X157413342Y-127521950D01*
X157398424Y-127514349D01*
X157300307Y-127464355D01*
X157300304Y-127464354D01*
X157175000Y-127444508D01*
X157049696Y-127464354D01*
X157049692Y-127464355D01*
X156936659Y-127521949D01*
X156846949Y-127611659D01*
X156789355Y-127724692D01*
X156789354Y-127724696D01*
X156769508Y-127850000D01*
X156785591Y-127951548D01*
X156789354Y-127975303D01*
X156789355Y-127975307D01*
X156794678Y-127985753D01*
X156846950Y-128088342D01*
X156846952Y-128088344D01*
X156851531Y-128094647D01*
X156850014Y-128095748D01*
X156873281Y-128141412D01*
X156874500Y-128156899D01*
X156874500Y-129418100D01*
X156855593Y-129476291D01*
X156845505Y-129488102D01*
X156821952Y-129511655D01*
X156821950Y-129511658D01*
X156764355Y-129624692D01*
X156764354Y-129624696D01*
X156746929Y-129734717D01*
X156744508Y-129750000D01*
X155475000Y-129750000D01*
X155475000Y-129430209D01*
X155474999Y-129430207D01*
X155472091Y-129405124D01*
X155426787Y-129302521D01*
X155347478Y-129223212D01*
X155244873Y-129177908D01*
X155219798Y-129174999D01*
X155025002Y-129174999D01*
X155025001Y-129175000D01*
X154725001Y-129175000D01*
X154725000Y-129174999D01*
X154530211Y-129174999D01*
X154530208Y-129175000D01*
X154505126Y-129177908D01*
X154402521Y-129223213D01*
X154361078Y-129264656D01*
X154306561Y-129292433D01*
X154262944Y-129287271D01*
X154262793Y-129288035D01*
X154194758Y-129274501D01*
X154194748Y-129274500D01*
X153555252Y-129274500D01*
X153555251Y-129274500D01*
X153555241Y-129274501D01*
X153496772Y-129286132D01*
X153496766Y-129286134D01*
X153430451Y-129330445D01*
X153430445Y-129330451D01*
X153386134Y-129396766D01*
X153386132Y-129396772D01*
X153374501Y-129455241D01*
X153374500Y-129455253D01*
X153374500Y-129789810D01*
X153355593Y-129848001D01*
X153306093Y-129883965D01*
X153244907Y-129883965D01*
X153205496Y-129859814D01*
X152491887Y-129146205D01*
X152473680Y-129121144D01*
X152461289Y-129096824D01*
X152450500Y-129051881D01*
X152450500Y-128949500D01*
X152469407Y-128891309D01*
X152518907Y-128855345D01*
X152549500Y-128850500D01*
X153069747Y-128850500D01*
X153069748Y-128850500D01*
X153128231Y-128838867D01*
X153194552Y-128794552D01*
X153238867Y-128728231D01*
X153250500Y-128669748D01*
X153250500Y-128075001D01*
X154425001Y-128075001D01*
X154425001Y-128719791D01*
X154427909Y-128744874D01*
X154473213Y-128847477D01*
X154552522Y-128926786D01*
X154655127Y-128972090D01*
X154680203Y-128974999D01*
X155324998Y-128974999D01*
X155325000Y-128974998D01*
X155325000Y-128075001D01*
X155625000Y-128075001D01*
X155625000Y-128974998D01*
X155625001Y-128974999D01*
X156269790Y-128974999D01*
X156269791Y-128974998D01*
X156294874Y-128972090D01*
X156397477Y-128926786D01*
X156476786Y-128847477D01*
X156522090Y-128744872D01*
X156524999Y-128719797D01*
X156525000Y-128719795D01*
X156525000Y-128075001D01*
X156524999Y-128075000D01*
X155625001Y-128075000D01*
X155625000Y-128075001D01*
X155325000Y-128075001D01*
X155324999Y-128075000D01*
X154425002Y-128075000D01*
X154425001Y-128075001D01*
X153250500Y-128075001D01*
X153250500Y-127130252D01*
X153238867Y-127071769D01*
X153194552Y-127005448D01*
X153181580Y-126996780D01*
X153128233Y-126961134D01*
X153128231Y-126961133D01*
X153128228Y-126961132D01*
X153128227Y-126961132D01*
X153069758Y-126949501D01*
X153069748Y-126949500D01*
X151530252Y-126949500D01*
X151530251Y-126949500D01*
X151530241Y-126949501D01*
X151471772Y-126961132D01*
X151471766Y-126961134D01*
X151405451Y-127005445D01*
X151405445Y-127005451D01*
X151361134Y-127071766D01*
X151361132Y-127071772D01*
X151349501Y-127130241D01*
X151349500Y-127130253D01*
X141525500Y-127130253D01*
X141525500Y-126215477D01*
X141544407Y-126157286D01*
X141554491Y-126145479D01*
X141700400Y-125999569D01*
X141754911Y-125971794D01*
X141825304Y-125960646D01*
X141938342Y-125903050D01*
X142028050Y-125813342D01*
X142085646Y-125700304D01*
X142105492Y-125575000D01*
X142105428Y-125574599D01*
X142092326Y-125491874D01*
X142085646Y-125449696D01*
X142028050Y-125336658D01*
X141938342Y-125246950D01*
X141934406Y-125244944D01*
X141825307Y-125189355D01*
X141825304Y-125189354D01*
X141734669Y-125174999D01*
X145050002Y-125174999D01*
X145050002Y-125844789D01*
X145052910Y-125869872D01*
X145098214Y-125972475D01*
X145177523Y-126051784D01*
X145280128Y-126097088D01*
X145305204Y-126099997D01*
X145500001Y-126099997D01*
X145500001Y-125174999D01*
X145500000Y-125174998D01*
X145050003Y-125174998D01*
X145050002Y-125174999D01*
X141734669Y-125174999D01*
X141700000Y-125169508D01*
X141574696Y-125189354D01*
X141574692Y-125189355D01*
X141461659Y-125246949D01*
X141371949Y-125336659D01*
X141314354Y-125449694D01*
X141303205Y-125520084D01*
X141275428Y-125574599D01*
X141040489Y-125809539D01*
X140984539Y-125865489D01*
X140944980Y-125934007D01*
X140942497Y-125940003D01*
X140941221Y-125939474D01*
X140911801Y-125984776D01*
X140854679Y-126006701D01*
X140795579Y-125990864D01*
X140757075Y-125943313D01*
X140750500Y-125907837D01*
X140750500Y-123390479D01*
X140769407Y-123332288D01*
X140779496Y-123320475D01*
X140824971Y-123275000D01*
X143650004Y-123275000D01*
X143650004Y-123919790D01*
X143652912Y-123944873D01*
X143698216Y-124047476D01*
X143777525Y-124126785D01*
X143880130Y-124172089D01*
X143905206Y-124174998D01*
X144550001Y-124174998D01*
X144550003Y-124174997D01*
X144550003Y-123275000D01*
X144550002Y-123274999D01*
X143650005Y-123274999D01*
X143650004Y-123275000D01*
X140824971Y-123275000D01*
X141170475Y-122929496D01*
X141224992Y-122901719D01*
X141240479Y-122900500D01*
X141518101Y-122900500D01*
X141576292Y-122919407D01*
X141585007Y-122926850D01*
X141586654Y-122928046D01*
X141586658Y-122928050D01*
X141699696Y-122985646D01*
X141825000Y-123005492D01*
X141950304Y-122985646D01*
X142063342Y-122928050D01*
X142153050Y-122838342D01*
X142210646Y-122725304D01*
X142230492Y-122600000D01*
X142210646Y-122474696D01*
X142153050Y-122361658D01*
X142121593Y-122330201D01*
X143650003Y-122330201D01*
X143650003Y-122974998D01*
X143650004Y-122974999D01*
X144550002Y-122974999D01*
X144550003Y-122974998D01*
X144550003Y-122075000D01*
X144850003Y-122075000D01*
X144850003Y-122974998D01*
X144850004Y-122974999D01*
X145750001Y-122974999D01*
X145750002Y-122974998D01*
X145750002Y-122330209D01*
X145750001Y-122330207D01*
X145747093Y-122305124D01*
X145701789Y-122202521D01*
X145622480Y-122123212D01*
X145519875Y-122077908D01*
X145494800Y-122074999D01*
X144850004Y-122074999D01*
X144850003Y-122075000D01*
X144550003Y-122075000D01*
X144550002Y-122074999D01*
X143905213Y-122074999D01*
X143905210Y-122075000D01*
X143880128Y-122077908D01*
X143777525Y-122123212D01*
X143698216Y-122202521D01*
X143652912Y-122305126D01*
X143650003Y-122330201D01*
X142121593Y-122330201D01*
X142063342Y-122271950D01*
X142033497Y-122256743D01*
X141950307Y-122214355D01*
X141950304Y-122214354D01*
X141825000Y-122194508D01*
X141699696Y-122214354D01*
X141699692Y-122214355D01*
X141586658Y-122271950D01*
X141580353Y-122276531D01*
X141579251Y-122275014D01*
X141533588Y-122298281D01*
X141518101Y-122299500D01*
X141035435Y-122299500D01*
X140959011Y-122319978D01*
X140959009Y-122319979D01*
X140941292Y-122330209D01*
X140941218Y-122330252D01*
X140890489Y-122359540D01*
X140265489Y-122984540D01*
X140265488Y-122984539D01*
X140209539Y-123040489D01*
X140169980Y-123109007D01*
X140169978Y-123109011D01*
X140149500Y-123185435D01*
X140149500Y-127809668D01*
X140130593Y-127867859D01*
X140081093Y-127903823D01*
X140019907Y-127903823D01*
X139970407Y-127867859D01*
X139959036Y-127847554D01*
X139921449Y-127756812D01*
X139921445Y-127756803D01*
X139833898Y-127625783D01*
X139833895Y-127625779D01*
X139722471Y-127514355D01*
X139722467Y-127514352D01*
X139591447Y-127426805D01*
X139591438Y-127426801D01*
X139445847Y-127366495D01*
X139291293Y-127335753D01*
X138762499Y-127335753D01*
X138762498Y-127335754D01*
X138762498Y-127835753D01*
X138462498Y-127835753D01*
X138462498Y-127335754D01*
X138462497Y-127335753D01*
X137933702Y-127335753D01*
X137779148Y-127366495D01*
X137633557Y-127426801D01*
X137633548Y-127426805D01*
X137502528Y-127514352D01*
X137502524Y-127514355D01*
X137391100Y-127625779D01*
X137391097Y-127625783D01*
X137303550Y-127756803D01*
X137303546Y-127756812D01*
X137243240Y-127902404D01*
X137226662Y-127985752D01*
X136203096Y-127985752D01*
X136071998Y-127543174D01*
X136070658Y-127538173D01*
X136064938Y-127514349D01*
X135894042Y-126802514D01*
X135892966Y-126797449D01*
X135873399Y-126691874D01*
X135755099Y-126053589D01*
X135754290Y-126048477D01*
X135752479Y-126034718D01*
X135655538Y-125298378D01*
X135655003Y-125293288D01*
X135595643Y-124539041D01*
X135595372Y-124533866D01*
X135589978Y-124327880D01*
X135575567Y-123777558D01*
X135575567Y-123772441D01*
X135595372Y-123016131D01*
X135595643Y-123010958D01*
X135618124Y-122725304D01*
X135655003Y-122256707D01*
X135655538Y-122251625D01*
X135754291Y-121501510D01*
X135755101Y-121496403D01*
X135757562Y-121483129D01*
X135892968Y-120752537D01*
X135894043Y-120747480D01*
X135897158Y-120734506D01*
X136070662Y-120011810D01*
X136072000Y-120006819D01*
X136072026Y-120006734D01*
X136267819Y-119345746D01*
X137226662Y-119345746D01*
X137226663Y-119345747D01*
X137752690Y-119345747D01*
X137732942Y-119379951D01*
X137712498Y-119456251D01*
X137712498Y-119535243D01*
X137732942Y-119611543D01*
X137752690Y-119645747D01*
X137226662Y-119645747D01*
X137243240Y-119729095D01*
X137303546Y-119874687D01*
X137303550Y-119874696D01*
X137391097Y-120005716D01*
X137391100Y-120005720D01*
X137502524Y-120117144D01*
X137502528Y-120117147D01*
X137633548Y-120204694D01*
X137633557Y-120204698D01*
X137779148Y-120265004D01*
X137933702Y-120295746D01*
X137933706Y-120295747D01*
X138462497Y-120295747D01*
X138462498Y-120295746D01*
X138462498Y-119795747D01*
X138762498Y-119795747D01*
X138762498Y-120295746D01*
X138762499Y-120295747D01*
X139291290Y-120295747D01*
X139291293Y-120295746D01*
X139445847Y-120265004D01*
X139591438Y-120204698D01*
X139591447Y-120204694D01*
X139722467Y-120117147D01*
X139722471Y-120117144D01*
X139833895Y-120005720D01*
X139833898Y-120005716D01*
X139921445Y-119874696D01*
X139921449Y-119874687D01*
X139981755Y-119729095D01*
X139998334Y-119645747D01*
X139472306Y-119645747D01*
X139492054Y-119611543D01*
X139512498Y-119535243D01*
X139512498Y-119456251D01*
X139492054Y-119379951D01*
X139472306Y-119345747D01*
X139998333Y-119345747D01*
X141426663Y-119345747D01*
X141426664Y-119345748D01*
X141952691Y-119345748D01*
X141932943Y-119379952D01*
X141912499Y-119456252D01*
X141912499Y-119535244D01*
X141932943Y-119611544D01*
X141952691Y-119645748D01*
X141426663Y-119645748D01*
X141443241Y-119729096D01*
X141503547Y-119874688D01*
X141503551Y-119874697D01*
X141591098Y-120005717D01*
X141591101Y-120005721D01*
X141702525Y-120117145D01*
X141702529Y-120117148D01*
X141833549Y-120204695D01*
X141833558Y-120204699D01*
X141979149Y-120265005D01*
X142133703Y-120295747D01*
X142133707Y-120295748D01*
X142462498Y-120295748D01*
X142462499Y-120295747D01*
X142462499Y-119795748D01*
X142762499Y-119795748D01*
X142762499Y-120295747D01*
X142762500Y-120295748D01*
X143091291Y-120295748D01*
X143091294Y-120295747D01*
X143245848Y-120265005D01*
X143391439Y-120204699D01*
X143391448Y-120204695D01*
X143522468Y-120117148D01*
X143522472Y-120117145D01*
X143633896Y-120005721D01*
X143633899Y-120005717D01*
X143721446Y-119874697D01*
X143721450Y-119874688D01*
X143781756Y-119729096D01*
X143798335Y-119645748D01*
X143272307Y-119645748D01*
X143292055Y-119611544D01*
X143312499Y-119535244D01*
X143312499Y-119456252D01*
X143292055Y-119379952D01*
X143272307Y-119345748D01*
X143798334Y-119345748D01*
X143798334Y-119345747D01*
X143781756Y-119262399D01*
X143721450Y-119116807D01*
X143721446Y-119116798D01*
X143633899Y-118985778D01*
X143633896Y-118985774D01*
X143522472Y-118874350D01*
X143522468Y-118874347D01*
X143391448Y-118786800D01*
X143391439Y-118786796D01*
X143245848Y-118726490D01*
X143091294Y-118695748D01*
X142762500Y-118695748D01*
X142762499Y-118695749D01*
X142762499Y-119195748D01*
X142462499Y-119195748D01*
X142462499Y-118695749D01*
X142462498Y-118695748D01*
X142133703Y-118695748D01*
X141979149Y-118726490D01*
X141833558Y-118786796D01*
X141833549Y-118786800D01*
X141702529Y-118874347D01*
X141702525Y-118874350D01*
X141591101Y-118985774D01*
X141591098Y-118985778D01*
X141503551Y-119116798D01*
X141503547Y-119116807D01*
X141443241Y-119262399D01*
X141426663Y-119345747D01*
X139998333Y-119345747D01*
X139998333Y-119345746D01*
X139981755Y-119262398D01*
X139921449Y-119116806D01*
X139921445Y-119116797D01*
X139833898Y-118985777D01*
X139833895Y-118985773D01*
X139722471Y-118874349D01*
X139722467Y-118874346D01*
X139591447Y-118786799D01*
X139591438Y-118786795D01*
X139445847Y-118726489D01*
X139291293Y-118695747D01*
X138762499Y-118695747D01*
X138762498Y-118695748D01*
X138762498Y-119195747D01*
X138462498Y-119195747D01*
X138462498Y-118695748D01*
X138462497Y-118695747D01*
X137933702Y-118695747D01*
X137779148Y-118726489D01*
X137633557Y-118786795D01*
X137633548Y-118786799D01*
X137502528Y-118874346D01*
X137502524Y-118874349D01*
X137391100Y-118985773D01*
X137391097Y-118985777D01*
X137303550Y-119116797D01*
X137303546Y-119116806D01*
X137243240Y-119262398D01*
X137226662Y-119345746D01*
X136267819Y-119345746D01*
X136286872Y-119281424D01*
X136288471Y-119276505D01*
X136289178Y-119274509D01*
X136541012Y-118563354D01*
X136542860Y-118558540D01*
X136547863Y-118546462D01*
X136832386Y-117859559D01*
X136834467Y-117854883D01*
X137160190Y-117171993D01*
X137162538Y-117167386D01*
X137523552Y-116502480D01*
X137526103Y-116498062D01*
X137921413Y-115852976D01*
X137924208Y-115848670D01*
X138352770Y-115225108D01*
X138355762Y-115220990D01*
X138816355Y-114620735D01*
X138819582Y-114616750D01*
X139310930Y-114041454D01*
X139314395Y-114037607D01*
X139412034Y-113934717D01*
X139800842Y-113524999D01*
X145944196Y-113524999D01*
X145944196Y-113525000D01*
X145965281Y-113658127D01*
X145965282Y-113658129D01*
X146026470Y-113778217D01*
X146026472Y-113778220D01*
X146121780Y-113873528D01*
X146241874Y-113934719D01*
X146375000Y-113955804D01*
X146508126Y-113934719D01*
X146628220Y-113873528D01*
X146723528Y-113778220D01*
X146784719Y-113658126D01*
X146805804Y-113525000D01*
X146784719Y-113391874D01*
X146723528Y-113271780D01*
X146628220Y-113176472D01*
X146628217Y-113176470D01*
X146508129Y-113115282D01*
X146508127Y-113115281D01*
X146375000Y-113094196D01*
X146241872Y-113115281D01*
X146241870Y-113115282D01*
X146121782Y-113176470D01*
X146026470Y-113271782D01*
X145965282Y-113391870D01*
X145965281Y-113391872D01*
X145944196Y-113524999D01*
X139800842Y-113524999D01*
X139835183Y-113488811D01*
X139838811Y-113485183D01*
X140387611Y-112964391D01*
X140391459Y-112960927D01*
X140565746Y-112812072D01*
X140966750Y-112469582D01*
X140970735Y-112466355D01*
X141570979Y-112005771D01*
X141575127Y-112002757D01*
X141793300Y-111852810D01*
X141849212Y-111835400D01*
X148376425Y-111825154D01*
X148434643Y-111843970D01*
G37*
G04 #@! TD.AperFunction*
G04 #@! TA.AperFunction,Conductor*
G36*
X195608866Y-106985372D02*
G01*
X195614042Y-106985643D01*
X196368288Y-107045003D01*
X196373378Y-107045538D01*
X197123483Y-107144291D01*
X197128589Y-107145099D01*
X197872454Y-107282967D01*
X197877514Y-107284042D01*
X198613180Y-107460659D01*
X198618174Y-107461998D01*
X198855289Y-107532235D01*
X199343565Y-107676869D01*
X199348495Y-107678471D01*
X200061632Y-107931007D01*
X200066459Y-107932860D01*
X200765425Y-108222380D01*
X200770130Y-108224474D01*
X201348549Y-108500366D01*
X201452995Y-108550185D01*
X201457613Y-108552538D01*
X202122503Y-108913543D01*
X202126953Y-108916113D01*
X202772002Y-109311400D01*
X202776346Y-109314220D01*
X203399872Y-109742757D01*
X203404027Y-109745776D01*
X203885191Y-110114987D01*
X204004242Y-110206338D01*
X204008270Y-110209600D01*
X204583540Y-110700927D01*
X204587392Y-110704395D01*
X205136169Y-111225165D01*
X205139834Y-111228830D01*
X205660604Y-111777607D01*
X205664072Y-111781459D01*
X206155399Y-112356729D01*
X206158661Y-112360757D01*
X206619218Y-112960966D01*
X206622247Y-112965134D01*
X206873020Y-113330011D01*
X207050777Y-113588650D01*
X207053599Y-113592997D01*
X207204460Y-113839179D01*
X207407270Y-114170135D01*
X207448875Y-114238027D01*
X207451463Y-114242508D01*
X207472019Y-114280368D01*
X207812461Y-114907386D01*
X207814814Y-114912004D01*
X208045310Y-115395247D01*
X208123774Y-115559750D01*
X208140515Y-115594847D01*
X208142623Y-115599583D01*
X208432139Y-116298540D01*
X208433996Y-116303378D01*
X208686528Y-117016505D01*
X208688130Y-117021434D01*
X208902999Y-117746819D01*
X208904341Y-117751826D01*
X209080956Y-118487480D01*
X209082033Y-118492550D01*
X209219898Y-119236403D01*
X209220709Y-119241522D01*
X209319457Y-119991588D01*
X209319999Y-119996743D01*
X209379356Y-120750958D01*
X209379627Y-120756133D01*
X209399432Y-121512408D01*
X209399432Y-121517592D01*
X209382588Y-122160801D01*
X209362164Y-122218477D01*
X209311739Y-122253132D01*
X209250575Y-122251530D01*
X209202033Y-122214283D01*
X209201947Y-122214157D01*
X209197206Y-122207236D01*
X209197205Y-122207235D01*
X209197205Y-122207234D01*
X209117764Y-122127793D01*
X209014990Y-122082414D01*
X209014989Y-122082413D01*
X209014987Y-122082413D01*
X208989867Y-122079499D01*
X207900138Y-122079499D01*
X207900135Y-122079500D01*
X207875008Y-122082413D01*
X207772232Y-122127794D01*
X207717691Y-122182335D01*
X207663174Y-122210112D01*
X207607701Y-122202896D01*
X207549991Y-122177415D01*
X207549988Y-122177414D01*
X207524868Y-122174500D01*
X206435139Y-122174500D01*
X206435136Y-122174501D01*
X206410009Y-122177414D01*
X206307235Y-122222794D01*
X206227794Y-122302235D01*
X206182414Y-122405011D01*
X206179500Y-122430130D01*
X206179500Y-122733117D01*
X206160593Y-122791308D01*
X206111093Y-122827272D01*
X206054510Y-122828645D01*
X206049993Y-122827415D01*
X206049991Y-122827415D01*
X206049988Y-122827414D01*
X206049986Y-122827414D01*
X206024868Y-122824500D01*
X204735139Y-122824500D01*
X204735136Y-122824501D01*
X204710009Y-122827414D01*
X204607235Y-122872794D01*
X204527794Y-122952235D01*
X204482414Y-123055011D01*
X204479500Y-123080130D01*
X204479500Y-123307599D01*
X204460593Y-123365790D01*
X204411093Y-123401754D01*
X204349907Y-123401754D01*
X204320235Y-123386143D01*
X204317627Y-123384142D01*
X204317625Y-123384141D01*
X204317624Y-123384140D01*
X204317622Y-123384139D01*
X204317620Y-123384138D01*
X204183708Y-123328671D01*
X204183707Y-123328670D01*
X204039999Y-123309751D01*
X203896290Y-123328670D01*
X203896289Y-123328671D01*
X203762377Y-123384138D01*
X203762373Y-123384140D01*
X203647380Y-123472378D01*
X203647376Y-123472382D01*
X203559138Y-123587375D01*
X203559136Y-123587379D01*
X203503669Y-123721291D01*
X203503668Y-123721292D01*
X203484749Y-123865000D01*
X203484749Y-123865001D01*
X203503668Y-124008709D01*
X203503669Y-124008710D01*
X203559138Y-124142626D01*
X203647378Y-124257622D01*
X203762374Y-124345862D01*
X203896290Y-124401331D01*
X204039999Y-124420251D01*
X204183708Y-124401331D01*
X204317624Y-124345862D01*
X204320229Y-124343862D01*
X204322446Y-124343077D01*
X204323246Y-124342616D01*
X204323331Y-124342764D01*
X204377904Y-124323436D01*
X204436570Y-124340811D01*
X204473820Y-124389350D01*
X204479500Y-124422402D01*
X204479500Y-124969860D01*
X204479501Y-124969863D01*
X204482414Y-124994990D01*
X204497681Y-125029565D01*
X204527794Y-125097765D01*
X204607235Y-125177206D01*
X204710009Y-125222585D01*
X204735135Y-125225500D01*
X206024864Y-125225499D01*
X206049991Y-125222585D01*
X206152765Y-125177206D01*
X206232206Y-125097765D01*
X206277585Y-124994991D01*
X206280500Y-124969865D01*
X206280499Y-123866881D01*
X206299406Y-123808691D01*
X206348906Y-123772727D01*
X206405494Y-123771356D01*
X206410005Y-123772583D01*
X206410009Y-123772585D01*
X206435135Y-123775500D01*
X207524864Y-123775499D01*
X207549991Y-123772585D01*
X207652765Y-123727206D01*
X207707308Y-123672662D01*
X207761822Y-123644886D01*
X207817295Y-123652101D01*
X207875008Y-123677584D01*
X207900134Y-123680499D01*
X208989863Y-123680498D01*
X209014990Y-123677584D01*
X209087777Y-123645445D01*
X209148642Y-123639237D01*
X209201536Y-123669992D01*
X209226251Y-123725963D01*
X209225915Y-123748932D01*
X209220709Y-123788477D01*
X209219898Y-123793596D01*
X209082033Y-124537449D01*
X209080956Y-124542519D01*
X208904341Y-125278173D01*
X208902999Y-125283180D01*
X208688130Y-126008565D01*
X208686528Y-126013494D01*
X208433996Y-126726621D01*
X208432139Y-126731459D01*
X208142623Y-127430416D01*
X208140515Y-127435152D01*
X207814814Y-128117995D01*
X207812461Y-128122613D01*
X207451467Y-128787484D01*
X207448875Y-128791972D01*
X207053599Y-129437002D01*
X207050777Y-129441349D01*
X206622256Y-130064853D01*
X206619209Y-130069046D01*
X206158661Y-130669242D01*
X206155399Y-130673270D01*
X205664072Y-131248540D01*
X205660604Y-131252392D01*
X205139834Y-131801169D01*
X205136169Y-131804834D01*
X204587392Y-132325604D01*
X204583540Y-132329072D01*
X204008270Y-132820399D01*
X204004242Y-132823661D01*
X203660934Y-133087091D01*
X203603259Y-133107515D01*
X203544593Y-133090138D01*
X203507346Y-133041596D01*
X203505744Y-132980432D01*
X203530661Y-132938547D01*
X203595660Y-132873549D01*
X203595663Y-132873548D01*
X203670230Y-132798981D01*
X203722957Y-132707655D01*
X203733501Y-132668305D01*
X203750251Y-132605795D01*
X203750251Y-132500341D01*
X203750251Y-132494279D01*
X203750250Y-132494261D01*
X203750250Y-131535973D01*
X203743361Y-131510263D01*
X203722957Y-131434112D01*
X203714196Y-131418938D01*
X203677002Y-131354516D01*
X203670230Y-131342786D01*
X203670227Y-131342783D01*
X203666496Y-131337920D01*
X203646074Y-131280244D01*
X203646761Y-131265727D01*
X203655350Y-131195000D01*
X203646241Y-131119982D01*
X203657996Y-131059939D01*
X203702800Y-131018271D01*
X203763539Y-131010895D01*
X203814522Y-131038047D01*
X203939173Y-131162697D01*
X204041986Y-131265510D01*
X204167515Y-131337984D01*
X204307526Y-131375500D01*
X204307528Y-131375500D01*
X204452472Y-131375500D01*
X204452474Y-131375500D01*
X204592485Y-131337984D01*
X204718015Y-131265510D01*
X204820510Y-131163015D01*
X204892984Y-131037485D01*
X204930500Y-130897474D01*
X204930500Y-130752526D01*
X204892984Y-130612515D01*
X204820510Y-130486986D01*
X204706131Y-130372607D01*
X204566870Y-130233345D01*
X204539093Y-130178829D01*
X204538596Y-130175275D01*
X204538449Y-130174067D01*
X204533053Y-130129620D01*
X204473273Y-129971993D01*
X204425221Y-129902377D01*
X204379488Y-129836121D01*
X204361993Y-129777490D01*
X204382301Y-129719773D01*
X204432656Y-129685016D01*
X204441636Y-129682788D01*
X204520636Y-129667075D01*
X204656363Y-129610855D01*
X204778514Y-129529236D01*
X204882395Y-129425355D01*
X204964014Y-129303204D01*
X205020234Y-129167477D01*
X205048894Y-129023390D01*
X205048894Y-128876480D01*
X205020234Y-128732393D01*
X204970704Y-128612816D01*
X204964015Y-128596668D01*
X204964015Y-128596667D01*
X204927739Y-128542377D01*
X204882395Y-128474515D01*
X204778514Y-128370634D01*
X204656363Y-128289015D01*
X204656362Y-128289014D01*
X204656360Y-128289013D01*
X204520636Y-128232795D01*
X204376551Y-128204135D01*
X204376549Y-128204135D01*
X204229639Y-128204135D01*
X204229636Y-128204135D01*
X204085552Y-128232795D01*
X204085550Y-128232795D01*
X203949827Y-128289013D01*
X203949826Y-128289013D01*
X203827674Y-128370634D01*
X203827670Y-128370637D01*
X203723796Y-128474511D01*
X203723793Y-128474515D01*
X203642172Y-128596667D01*
X203642172Y-128596668D01*
X203585954Y-128732391D01*
X203569349Y-128815871D01*
X203539452Y-128869254D01*
X203483887Y-128894870D01*
X203423877Y-128882933D01*
X203406602Y-128870659D01*
X203353300Y-128823438D01*
X203353299Y-128823437D01*
X203210109Y-128748285D01*
X203167371Y-128704501D01*
X203158530Y-128643957D01*
X203180342Y-128598637D01*
X203179540Y-128598002D01*
X203197020Y-128575935D01*
X203197022Y-128575933D01*
X203237607Y-128471173D01*
X203237607Y-128358827D01*
X203197022Y-128254067D01*
X203181317Y-128234239D01*
X202410761Y-127463685D01*
X202407157Y-127460830D01*
X202390935Y-127447979D01*
X202390929Y-127447976D01*
X202286177Y-127407394D01*
X202286174Y-127407393D01*
X202286173Y-127407393D01*
X202173827Y-127407393D01*
X202164653Y-127407393D01*
X202164653Y-127404974D01*
X202117013Y-127398775D01*
X202072568Y-127356724D01*
X202060500Y-127309356D01*
X202060500Y-126215714D01*
X202060501Y-126215701D01*
X202060501Y-126102272D01*
X202060500Y-126102270D01*
X202033208Y-126000416D01*
X202033207Y-126000415D01*
X202033207Y-126000413D01*
X202027699Y-125990872D01*
X202014337Y-125967727D01*
X201980483Y-125909091D01*
X201980481Y-125909089D01*
X201980480Y-125909087D01*
X201905913Y-125834520D01*
X201905910Y-125834518D01*
X201902455Y-125831062D01*
X201465896Y-125394502D01*
X201438119Y-125339986D01*
X201447690Y-125279554D01*
X201490955Y-125236289D01*
X201535900Y-125225499D01*
X202424861Y-125225499D01*
X202424864Y-125225499D01*
X202449991Y-125222585D01*
X202552765Y-125177206D01*
X202632206Y-125097765D01*
X202677585Y-124994991D01*
X202680500Y-124969865D01*
X202680499Y-123080136D01*
X202677585Y-123055009D01*
X202632206Y-122952235D01*
X202552765Y-122872794D01*
X202449991Y-122827415D01*
X202449990Y-122827414D01*
X202449988Y-122827414D01*
X202424868Y-122824500D01*
X201135139Y-122824500D01*
X201135136Y-122824501D01*
X201110009Y-122827414D01*
X201007235Y-122872794D01*
X200927794Y-122952235D01*
X200882414Y-123055011D01*
X200879500Y-123080130D01*
X200879500Y-124569099D01*
X200860593Y-124627290D01*
X200811093Y-124663254D01*
X200749907Y-124663254D01*
X200710496Y-124639103D01*
X199239496Y-123168103D01*
X199211719Y-123113586D01*
X199210500Y-123098099D01*
X199210500Y-122069974D01*
X199229407Y-122011783D01*
X199278907Y-121975819D01*
X199340093Y-121975819D01*
X199347369Y-121978504D01*
X199367817Y-121986974D01*
X199505000Y-122005035D01*
X199642183Y-121986974D01*
X199770018Y-121934024D01*
X199879791Y-121849791D01*
X199964024Y-121740018D01*
X200016974Y-121612183D01*
X200035035Y-121475000D01*
X200028324Y-121424022D01*
X200016974Y-121337816D01*
X199963036Y-121207597D01*
X199955500Y-121169712D01*
X199955500Y-120852611D01*
X199974407Y-120794420D01*
X199984496Y-120782607D01*
X200814482Y-119952621D01*
X201658564Y-119108538D01*
X201713079Y-119080763D01*
X201773511Y-119090334D01*
X201798566Y-119108537D01*
X201857235Y-119167206D01*
X201960009Y-119212585D01*
X201985135Y-119215500D01*
X202381649Y-119215499D01*
X202439840Y-119234406D01*
X202475804Y-119283906D01*
X202479991Y-119325896D01*
X202479500Y-119330132D01*
X202479500Y-120969860D01*
X202479501Y-120969863D01*
X202482414Y-120994990D01*
X202507756Y-121052385D01*
X202527794Y-121097765D01*
X202607235Y-121177206D01*
X202710009Y-121222585D01*
X202735135Y-121225500D01*
X203424864Y-121225499D01*
X203449991Y-121222585D01*
X203540012Y-121182836D01*
X203600881Y-121176628D01*
X203619979Y-121182833D01*
X203710009Y-121222585D01*
X203735135Y-121225500D01*
X204424864Y-121225499D01*
X204449991Y-121222585D01*
X204552765Y-121177206D01*
X204632206Y-121097765D01*
X204677585Y-120994991D01*
X204680500Y-120969865D01*
X204680499Y-119674999D01*
X204924750Y-119674999D01*
X204924750Y-119675000D01*
X204943669Y-119818708D01*
X204943670Y-119818709D01*
X204999139Y-119952625D01*
X205087379Y-120067621D01*
X205202375Y-120155861D01*
X205336291Y-120211330D01*
X205480000Y-120230250D01*
X205623709Y-120211330D01*
X205757625Y-120155861D01*
X205872621Y-120067621D01*
X205960861Y-119952625D01*
X206016330Y-119818709D01*
X206035250Y-119675000D01*
X206016330Y-119531291D01*
X205960861Y-119397375D01*
X205872621Y-119282379D01*
X205757625Y-119194139D01*
X205757621Y-119194137D01*
X205623709Y-119138670D01*
X205623708Y-119138669D01*
X205480000Y-119119750D01*
X205336291Y-119138669D01*
X205336290Y-119138670D01*
X205202378Y-119194137D01*
X205202374Y-119194139D01*
X205087381Y-119282377D01*
X205087377Y-119282381D01*
X204999139Y-119397374D01*
X204999137Y-119397378D01*
X204943670Y-119531290D01*
X204943669Y-119531291D01*
X204924750Y-119674999D01*
X204680499Y-119674999D01*
X204680499Y-119330136D01*
X204677585Y-119305009D01*
X204675636Y-119300594D01*
X204669426Y-119239725D01*
X204700179Y-119186830D01*
X204710256Y-119178924D01*
X204712759Y-119177208D01*
X204712765Y-119177206D01*
X204792206Y-119097765D01*
X204837585Y-118994991D01*
X204840500Y-118969865D01*
X204840499Y-117880136D01*
X204837585Y-117855009D01*
X204792206Y-117752235D01*
X204712765Y-117672794D01*
X204712763Y-117672793D01*
X204712762Y-117672792D01*
X204634156Y-117638084D01*
X204588560Y-117597284D01*
X204575655Y-117537475D01*
X204590319Y-117494848D01*
X204640789Y-117414526D01*
X204640789Y-117414524D01*
X204640791Y-117414522D01*
X204700370Y-117244255D01*
X204720567Y-117065000D01*
X204700370Y-116885745D01*
X204695312Y-116871291D01*
X204668567Y-116794858D01*
X204640791Y-116715478D01*
X204638998Y-116712625D01*
X204544820Y-116562741D01*
X204544819Y-116562740D01*
X204544818Y-116562738D01*
X204417264Y-116435184D01*
X204417261Y-116435182D01*
X204417260Y-116435181D01*
X204264525Y-116339211D01*
X204094263Y-116279633D01*
X204094259Y-116279632D01*
X203915002Y-116259435D01*
X203735744Y-116279632D01*
X203735740Y-116279633D01*
X203565478Y-116339211D01*
X203496424Y-116382600D01*
X203437093Y-116397550D01*
X203380306Y-116374770D01*
X203373751Y-116368778D01*
X203317767Y-116312795D01*
X203317766Y-116312794D01*
X203214992Y-116267415D01*
X203214991Y-116267414D01*
X203214989Y-116267414D01*
X203189869Y-116264500D01*
X202100140Y-116264500D01*
X202100137Y-116264501D01*
X202075010Y-116267414D01*
X202069486Y-116269854D01*
X202008616Y-116276060D01*
X201955723Y-116245303D01*
X201931011Y-116189330D01*
X201930500Y-116179288D01*
X201930500Y-115490692D01*
X201929235Y-115485970D01*
X201899799Y-115376114D01*
X201897865Y-115372765D01*
X201861434Y-115309663D01*
X201840492Y-115273389D01*
X201840491Y-115273388D01*
X201840490Y-115273386D01*
X200901186Y-114334083D01*
X200873410Y-114279567D01*
X200882981Y-114219135D01*
X200885437Y-114214610D01*
X200887299Y-114211386D01*
X200898354Y-114170130D01*
X203609500Y-114170130D01*
X203609500Y-115259860D01*
X203609501Y-115259863D01*
X203612414Y-115284990D01*
X203628523Y-115321472D01*
X203657794Y-115387765D01*
X203737235Y-115467206D01*
X203840009Y-115512585D01*
X203865135Y-115515500D01*
X204954864Y-115515499D01*
X204979991Y-115512585D01*
X205082765Y-115467206D01*
X205162206Y-115387765D01*
X205162206Y-115387763D01*
X205168693Y-115381277D01*
X205171086Y-115383670D01*
X205206689Y-115356242D01*
X205239910Y-115350500D01*
X206279862Y-115350500D01*
X206304989Y-115347586D01*
X206407763Y-115302207D01*
X206487204Y-115222766D01*
X206532583Y-115119992D01*
X206535498Y-115094866D01*
X206535497Y-114005137D01*
X206532583Y-113980010D01*
X206487204Y-113877236D01*
X206407763Y-113797795D01*
X206304989Y-113752416D01*
X206304988Y-113752415D01*
X206304986Y-113752415D01*
X206279866Y-113749501D01*
X205190137Y-113749501D01*
X205190134Y-113749502D01*
X205165007Y-113752415D01*
X205062233Y-113797795D01*
X204982792Y-113877236D01*
X204982791Y-113877237D01*
X204976306Y-113883723D01*
X204973919Y-113881336D01*
X204938236Y-113908783D01*
X204905081Y-113914500D01*
X203865139Y-113914500D01*
X203865136Y-113914501D01*
X203840009Y-113917414D01*
X203737235Y-113962794D01*
X203657794Y-114042235D01*
X203612414Y-114145011D01*
X203609500Y-114170130D01*
X200898354Y-114170130D01*
X200918000Y-114096809D01*
X200918000Y-113929133D01*
X200936907Y-113870942D01*
X200977806Y-113839262D01*
X200977759Y-113839179D01*
X200978325Y-113838860D01*
X200980681Y-113837036D01*
X200980769Y-113837001D01*
X200983658Y-113835862D01*
X201101500Y-113746500D01*
X201190862Y-113628658D01*
X201245117Y-113491077D01*
X201255500Y-113404618D01*
X201255500Y-112845382D01*
X201245117Y-112758923D01*
X201190862Y-112621342D01*
X201101500Y-112503500D01*
X200983658Y-112414138D01*
X200976692Y-112411391D01*
X200846079Y-112359883D01*
X200759620Y-112349500D01*
X200759618Y-112349500D01*
X200175382Y-112349500D01*
X200175379Y-112349500D01*
X200088920Y-112359883D01*
X199951341Y-112414138D01*
X199833503Y-112503497D01*
X199833497Y-112503503D01*
X199744138Y-112621341D01*
X199689883Y-112758920D01*
X199679500Y-112845379D01*
X199679500Y-113404620D01*
X199689883Y-113491079D01*
X199744138Y-113628658D01*
X199833500Y-113746500D01*
X199881142Y-113782628D01*
X199906765Y-113802058D01*
X199941707Y-113852284D01*
X199940454Y-113913457D01*
X199916950Y-113950945D01*
X199747392Y-114120505D01*
X199692876Y-114148283D01*
X199677388Y-114149502D01*
X199420477Y-114149502D01*
X199362286Y-114130595D01*
X199350475Y-114120507D01*
X199327764Y-114097797D01*
X199327763Y-114097796D01*
X199224989Y-114052417D01*
X199224988Y-114052416D01*
X199224986Y-114052416D01*
X199199867Y-114049502D01*
X199199863Y-114049502D01*
X199137812Y-114049502D01*
X199079621Y-114030595D01*
X199043657Y-113981095D01*
X199043657Y-113919909D01*
X199079621Y-113870409D01*
X199101486Y-113858407D01*
X199158658Y-113835862D01*
X199276500Y-113746500D01*
X199365862Y-113628658D01*
X199420117Y-113491077D01*
X199430500Y-113404618D01*
X199430500Y-112845382D01*
X199420117Y-112758923D01*
X199365862Y-112621342D01*
X199276500Y-112503500D01*
X199158658Y-112414138D01*
X199158656Y-112414137D01*
X199158653Y-112414135D01*
X199155676Y-112412961D01*
X199153773Y-112411391D01*
X199152754Y-112410818D01*
X199152856Y-112410635D01*
X199108481Y-112374022D01*
X199093000Y-112320866D01*
X199093000Y-112274499D01*
X199111907Y-112216308D01*
X199161407Y-112180344D01*
X199192000Y-112175499D01*
X199399861Y-112175499D01*
X199399864Y-112175499D01*
X199424991Y-112172585D01*
X199527765Y-112127206D01*
X199607206Y-112047765D01*
X199652585Y-111944991D01*
X199655500Y-111919865D01*
X199655499Y-110830136D01*
X199652585Y-110805009D01*
X199607206Y-110702235D01*
X199527765Y-110622794D01*
X199424991Y-110577415D01*
X199424990Y-110577414D01*
X199424988Y-110577414D01*
X199399860Y-110574499D01*
X199398772Y-110574436D01*
X199398541Y-110574346D01*
X199397024Y-110574170D01*
X199397070Y-110573771D01*
X199341773Y-110552194D01*
X199308733Y-110500696D01*
X199305500Y-110475602D01*
X199305500Y-110444498D01*
X199324407Y-110386307D01*
X199373907Y-110350343D01*
X199404500Y-110345498D01*
X199409860Y-110345498D01*
X199409863Y-110345498D01*
X199434990Y-110342584D01*
X199537764Y-110297205D01*
X199617205Y-110217764D01*
X199662584Y-110114990D01*
X199665499Y-110089864D01*
X199665498Y-109000135D01*
X199662584Y-108975008D01*
X199617205Y-108872234D01*
X199537764Y-108792793D01*
X199434990Y-108747414D01*
X199434989Y-108747413D01*
X199434987Y-108747413D01*
X199409867Y-108744499D01*
X198320138Y-108744499D01*
X198320135Y-108744500D01*
X198295008Y-108747413D01*
X198192234Y-108792793D01*
X198112793Y-108872234D01*
X198067413Y-108975010D01*
X198064499Y-109000129D01*
X198064499Y-110089859D01*
X198064500Y-110089862D01*
X198067413Y-110114989D01*
X198092755Y-110172384D01*
X198112793Y-110217764D01*
X198192234Y-110297205D01*
X198295008Y-110342584D01*
X198308335Y-110344130D01*
X198316909Y-110345125D01*
X198372533Y-110370612D01*
X198402553Y-110423927D01*
X198404500Y-110443465D01*
X198404500Y-110475603D01*
X198385593Y-110533794D01*
X198336093Y-110569758D01*
X198312966Y-110574110D01*
X198312974Y-110574172D01*
X198312108Y-110574272D01*
X198311234Y-110574437D01*
X198310143Y-110574500D01*
X198285009Y-110577414D01*
X198182235Y-110622794D01*
X198102794Y-110702235D01*
X198057414Y-110805011D01*
X198054500Y-110830130D01*
X198054500Y-111919860D01*
X198054501Y-111919863D01*
X198057414Y-111944990D01*
X198071829Y-111977636D01*
X198102794Y-112047765D01*
X198163005Y-112107976D01*
X198190781Y-112162491D01*
X198192000Y-112177978D01*
X198192000Y-112320866D01*
X198173093Y-112379057D01*
X198132198Y-112410734D01*
X198132246Y-112410818D01*
X198131678Y-112411136D01*
X198129324Y-112412961D01*
X198126346Y-112414135D01*
X198126343Y-112414137D01*
X198008503Y-112503497D01*
X198008497Y-112503503D01*
X197919138Y-112621341D01*
X197862554Y-112764828D01*
X197861485Y-112764406D01*
X197839134Y-112803761D01*
X197336678Y-113306217D01*
X197282161Y-113333994D01*
X197221729Y-113324423D01*
X197178464Y-113281158D01*
X197175210Y-113274098D01*
X197155859Y-113227381D01*
X197155858Y-113227378D01*
X197067618Y-113112382D01*
X196952622Y-113024142D01*
X196952618Y-113024140D01*
X196818706Y-112968673D01*
X196818705Y-112968672D01*
X196674997Y-112949753D01*
X196531288Y-112968672D01*
X196531287Y-112968673D01*
X196397375Y-113024140D01*
X196397371Y-113024142D01*
X196282378Y-113112380D01*
X196282374Y-113112384D01*
X196194136Y-113227377D01*
X196194134Y-113227381D01*
X196138667Y-113361293D01*
X196138666Y-113361294D01*
X196119747Y-113505002D01*
X196119747Y-113505003D01*
X196138666Y-113648711D01*
X196138667Y-113648712D01*
X196181621Y-113752415D01*
X196194136Y-113782628D01*
X196282376Y-113897624D01*
X196397372Y-113985864D01*
X196531288Y-114041333D01*
X196674997Y-114060253D01*
X196742579Y-114051355D01*
X196802738Y-114062505D01*
X196844855Y-114106886D01*
X196854500Y-114149508D01*
X196854500Y-114908116D01*
X196835593Y-114966307D01*
X196786093Y-115002271D01*
X196729518Y-115003646D01*
X196724991Y-115002414D01*
X196699868Y-114999500D01*
X195360139Y-114999500D01*
X195360136Y-114999501D01*
X195335009Y-115002414D01*
X195298789Y-115018407D01*
X195290528Y-115022055D01*
X195229659Y-115028263D01*
X195176766Y-114997507D01*
X195152247Y-114943295D01*
X195148022Y-114908116D01*
X195145117Y-114883923D01*
X195138047Y-114865996D01*
X195132016Y-114850700D01*
X195090862Y-114746342D01*
X195001500Y-114628500D01*
X194883658Y-114539138D01*
X194746079Y-114484883D01*
X194659620Y-114474500D01*
X194659618Y-114474500D01*
X194100382Y-114474500D01*
X194100379Y-114474500D01*
X194013920Y-114484883D01*
X193876341Y-114539138D01*
X193758503Y-114628497D01*
X193758497Y-114628503D01*
X193669138Y-114746340D01*
X193646596Y-114803503D01*
X193607659Y-114850700D01*
X193548416Y-114865996D01*
X193491497Y-114843549D01*
X193458643Y-114791933D01*
X193455499Y-114767188D01*
X193455499Y-113355136D01*
X193452585Y-113330009D01*
X193407206Y-113227235D01*
X193327765Y-113147794D01*
X193224991Y-113102415D01*
X193224990Y-113102414D01*
X193224988Y-113102414D01*
X193199868Y-113099500D01*
X191910139Y-113099500D01*
X191910136Y-113099501D01*
X191885009Y-113102414D01*
X191782235Y-113147794D01*
X191702794Y-113227235D01*
X191657414Y-113330011D01*
X191654500Y-113355130D01*
X191654500Y-115244860D01*
X191654501Y-115244863D01*
X191657414Y-115269990D01*
X191674932Y-115309663D01*
X191702794Y-115372765D01*
X191782235Y-115452206D01*
X191885009Y-115497585D01*
X191910135Y-115500500D01*
X193199864Y-115500499D01*
X193224991Y-115497585D01*
X193327765Y-115452206D01*
X193407206Y-115372765D01*
X193414936Y-115355257D01*
X193455736Y-115309663D01*
X193515545Y-115296758D01*
X193571517Y-115321472D01*
X193602273Y-115374365D01*
X193604500Y-115395247D01*
X193604500Y-115654620D01*
X193614883Y-115741079D01*
X193652858Y-115837375D01*
X193669138Y-115878658D01*
X193758500Y-115996500D01*
X193876342Y-116085862D01*
X193981989Y-116127524D01*
X194012330Y-116139489D01*
X194013923Y-116140117D01*
X194100382Y-116150500D01*
X194100384Y-116150500D01*
X194659616Y-116150500D01*
X194659618Y-116150500D01*
X194746077Y-116140117D01*
X194883658Y-116085862D01*
X194883658Y-116085861D01*
X194883660Y-116085861D01*
X194883661Y-116085860D01*
X194969697Y-116020617D01*
X195027488Y-116000521D01*
X195029517Y-116000500D01*
X195034744Y-116000500D01*
X195092935Y-116019407D01*
X195128899Y-116068907D01*
X195128899Y-116130093D01*
X195125311Y-116139478D01*
X195117410Y-116157375D01*
X195107417Y-116180007D01*
X195107416Y-116180009D01*
X195104502Y-116205128D01*
X195104502Y-116794858D01*
X195104502Y-116794860D01*
X195104503Y-116794862D01*
X195104504Y-116794867D01*
X195107416Y-116819988D01*
X195130069Y-116871291D01*
X195152796Y-116922763D01*
X195232237Y-117002204D01*
X195335011Y-117047583D01*
X195360137Y-117050498D01*
X196699866Y-117050497D01*
X196724993Y-117047583D01*
X196827767Y-117002204D01*
X196907208Y-116922763D01*
X196952587Y-116819989D01*
X196955502Y-116794863D01*
X196955501Y-116205134D01*
X196952587Y-116180007D01*
X196932270Y-116133995D01*
X196926063Y-116073126D01*
X196956819Y-116020233D01*
X196997210Y-115998382D01*
X197092817Y-115972765D01*
X197103887Y-115969799D01*
X197206614Y-115910489D01*
X197665489Y-115451614D01*
X197724799Y-115348887D01*
X197727741Y-115337903D01*
X197731287Y-115324672D01*
X197731287Y-115324669D01*
X197755500Y-115234309D01*
X197757180Y-115228040D01*
X197758970Y-115228519D01*
X197781560Y-115181141D01*
X197835327Y-115151938D01*
X197857274Y-115150556D01*
X197857274Y-115150502D01*
X197858144Y-115150501D01*
X197859098Y-115150442D01*
X197860114Y-115150499D01*
X197860133Y-115150502D01*
X199199862Y-115150501D01*
X199224989Y-115147587D01*
X199327763Y-115102208D01*
X199339119Y-115090851D01*
X199350475Y-115079497D01*
X199404992Y-115051721D01*
X199420477Y-115050502D01*
X199964305Y-115050502D01*
X199964307Y-115050502D01*
X200067815Y-115022767D01*
X200078885Y-115019801D01*
X200140258Y-114984367D01*
X200161327Y-114972203D01*
X200221175Y-114959481D01*
X200277071Y-114984367D01*
X200280831Y-114987935D01*
X200712532Y-115419636D01*
X200740309Y-115474153D01*
X200730738Y-115534585D01*
X200687473Y-115577850D01*
X200680413Y-115581104D01*
X200552368Y-115634141D01*
X200549488Y-115635804D01*
X200547162Y-115636298D01*
X200546380Y-115636622D01*
X200546319Y-115636476D01*
X200489638Y-115648517D01*
X200450512Y-115635804D01*
X200447631Y-115634141D01*
X200313709Y-115578670D01*
X200313708Y-115578669D01*
X200170000Y-115559750D01*
X200026291Y-115578669D01*
X200026290Y-115578670D01*
X199892378Y-115634137D01*
X199892374Y-115634139D01*
X199777381Y-115722377D01*
X199777377Y-115722381D01*
X199689139Y-115837374D01*
X199689137Y-115837378D01*
X199633670Y-115971290D01*
X199632374Y-115976127D01*
X199599049Y-116027441D01*
X199541927Y-116049366D01*
X199536748Y-116049502D01*
X199420481Y-116049502D01*
X199362290Y-116030595D01*
X199350479Y-116020507D01*
X199327768Y-115997797D01*
X199327767Y-115997796D01*
X199224993Y-115952417D01*
X199224992Y-115952416D01*
X199224990Y-115952416D01*
X199199870Y-115949502D01*
X197860141Y-115949502D01*
X197860138Y-115949503D01*
X197835011Y-115952416D01*
X197732237Y-115997796D01*
X197652796Y-116077237D01*
X197607416Y-116180013D01*
X197604502Y-116205132D01*
X197604502Y-116794862D01*
X197604503Y-116794865D01*
X197607416Y-116819992D01*
X197622493Y-116854137D01*
X197652796Y-116922767D01*
X197732237Y-117002208D01*
X197835011Y-117047587D01*
X197860137Y-117050502D01*
X199199866Y-117050501D01*
X199224993Y-117047587D01*
X199327767Y-117002208D01*
X199339123Y-116990851D01*
X199350479Y-116979497D01*
X199404996Y-116951721D01*
X199420481Y-116950502D01*
X199595244Y-116950502D01*
X199653435Y-116969409D01*
X199689399Y-117018909D01*
X199689399Y-117080095D01*
X199686709Y-117087382D01*
X199654156Y-117165976D01*
X199643670Y-117191291D01*
X199632478Y-117276297D01*
X199606136Y-117331522D01*
X199552365Y-117360716D01*
X199516975Y-117359328D01*
X199516847Y-117360307D01*
X199366705Y-117340540D01*
X199222996Y-117359459D01*
X199222995Y-117359460D01*
X199089083Y-117414927D01*
X199089079Y-117414929D01*
X198974086Y-117503167D01*
X198974082Y-117503171D01*
X198885844Y-117618164D01*
X198885842Y-117618168D01*
X198830375Y-117752080D01*
X198830374Y-117752081D01*
X198811455Y-117895789D01*
X198811455Y-117895790D01*
X198830374Y-118039498D01*
X198830375Y-118039499D01*
X198867948Y-118130211D01*
X198885844Y-118173415D01*
X198974084Y-118288411D01*
X199089080Y-118376651D01*
X199222996Y-118432120D01*
X199366705Y-118451040D01*
X199510414Y-118432120D01*
X199644330Y-118376651D01*
X199759326Y-118288411D01*
X199847566Y-118173415D01*
X199903035Y-118039499D01*
X199914226Y-117954491D01*
X199940567Y-117899268D01*
X199994338Y-117870073D01*
X200029727Y-117871464D01*
X200029857Y-117870483D01*
X200179999Y-117890250D01*
X200179999Y-117890249D01*
X200180000Y-117890250D01*
X200323709Y-117871330D01*
X200448048Y-117819828D01*
X200463620Y-117813378D01*
X200464776Y-117816169D01*
X200512394Y-117805983D01*
X200556272Y-117823456D01*
X200556757Y-117822617D01*
X200562371Y-117825858D01*
X200562375Y-117825861D01*
X200696291Y-117881330D01*
X200840000Y-117900250D01*
X200917578Y-117890036D01*
X200977738Y-117901186D01*
X201019856Y-117945568D01*
X201029500Y-117988189D01*
X201029500Y-118422388D01*
X201010593Y-118480579D01*
X201000504Y-118492392D01*
X199993843Y-119499052D01*
X199939326Y-119526829D01*
X199878894Y-119517258D01*
X199835629Y-119473993D01*
X199825686Y-119441970D01*
X199811974Y-119337817D01*
X199759024Y-119209983D01*
X199674791Y-119100209D01*
X199674789Y-119100208D01*
X199674789Y-119100207D01*
X199565018Y-119015976D01*
X199565014Y-119015974D01*
X199437183Y-118963026D01*
X199437175Y-118963025D01*
X199300000Y-118944965D01*
X199299999Y-118944965D01*
X199162816Y-118963025D01*
X199162816Y-118963026D01*
X199034986Y-119015974D01*
X199034982Y-119015976D01*
X198925211Y-119100207D01*
X198925207Y-119100211D01*
X198840976Y-119209982D01*
X198840974Y-119209986D01*
X198788026Y-119337815D01*
X198782895Y-119376782D01*
X198756552Y-119432006D01*
X198754746Y-119433859D01*
X198489520Y-119699086D01*
X198489516Y-119699091D01*
X198436793Y-119790411D01*
X198436792Y-119790411D01*
X198436793Y-119790412D01*
X198409500Y-119892273D01*
X198409500Y-122727025D01*
X198390593Y-122785216D01*
X198341093Y-122821180D01*
X198297578Y-122825178D01*
X198220001Y-122814965D01*
X198220000Y-122814965D01*
X198082816Y-122833025D01*
X198082816Y-122833026D01*
X197954986Y-122885974D01*
X197954982Y-122885976D01*
X197845211Y-122970207D01*
X197845207Y-122970211D01*
X197760976Y-123079982D01*
X197760974Y-123079986D01*
X197708026Y-123207816D01*
X197708025Y-123207816D01*
X197692115Y-123328670D01*
X197689965Y-123345000D01*
X197707082Y-123475011D01*
X197708026Y-123482183D01*
X197760974Y-123610014D01*
X197760976Y-123610018D01*
X197828010Y-123697378D01*
X197845209Y-123719791D01*
X197954982Y-123804024D01*
X198082817Y-123856974D01*
X198092985Y-123858312D01*
X198148208Y-123884650D01*
X198150068Y-123886461D01*
X199178223Y-124914616D01*
X199206000Y-124969133D01*
X199196429Y-125029565D01*
X199168487Y-125063161D01*
X199117385Y-125102373D01*
X199117377Y-125102381D01*
X199029139Y-125217374D01*
X199029137Y-125217378D01*
X198973670Y-125351290D01*
X198973669Y-125351291D01*
X198954750Y-125494999D01*
X198954750Y-125495000D01*
X198971519Y-125622377D01*
X198973670Y-125638709D01*
X199015850Y-125740542D01*
X199017715Y-125745044D01*
X199022514Y-125806041D01*
X199017714Y-125820814D01*
X198963670Y-125951290D01*
X198963669Y-125951291D01*
X198944750Y-126094999D01*
X198944750Y-126095000D01*
X198963669Y-126238708D01*
X198963670Y-126238709D01*
X199017714Y-126369186D01*
X199022514Y-126430183D01*
X199017715Y-126444953D01*
X198973670Y-126551291D01*
X198973669Y-126551294D01*
X198954750Y-126694999D01*
X198954750Y-126695000D01*
X198973669Y-126838708D01*
X198973670Y-126838709D01*
X199012524Y-126932514D01*
X199029139Y-126972625D01*
X199117379Y-127087621D01*
X199232375Y-127175861D01*
X199366291Y-127231330D01*
X199510000Y-127250250D01*
X199653709Y-127231330D01*
X199787625Y-127175861D01*
X199891114Y-127096451D01*
X199902614Y-127087627D01*
X199902616Y-127087624D01*
X199902621Y-127087621D01*
X199902624Y-127087616D01*
X199903575Y-127086666D01*
X199904444Y-127086222D01*
X199907770Y-127083671D01*
X199908242Y-127084286D01*
X199958086Y-127058879D01*
X200011476Y-127065193D01*
X200026291Y-127071330D01*
X200026290Y-127071330D01*
X200048078Y-127074198D01*
X200170000Y-127090250D01*
X200207578Y-127085302D01*
X200267737Y-127096451D01*
X200309855Y-127140833D01*
X200319500Y-127183455D01*
X200319500Y-128906222D01*
X200319500Y-129011676D01*
X200338887Y-129084034D01*
X200335685Y-129145134D01*
X200313270Y-129179653D01*
X200308692Y-129184231D01*
X200308678Y-129184247D01*
X200292979Y-129204064D01*
X200292977Y-129204068D01*
X200266530Y-129272333D01*
X200227877Y-129319763D01*
X200209980Y-129328882D01*
X200109069Y-129367976D01*
X200108145Y-129368708D01*
X200089239Y-129383683D01*
X200089237Y-129383685D01*
X200089232Y-129383688D01*
X200072160Y-129400761D01*
X200017642Y-129428538D01*
X199957211Y-129418964D01*
X199932154Y-129400760D01*
X197169902Y-126638508D01*
X197142125Y-126583991D01*
X197151696Y-126523559D01*
X197194961Y-126480294D01*
X197202022Y-126477039D01*
X197202177Y-126476974D01*
X197202183Y-126476974D01*
X197330018Y-126424024D01*
X197439791Y-126339791D01*
X197524024Y-126230018D01*
X197576974Y-126102183D01*
X197595035Y-125965000D01*
X197582698Y-125871290D01*
X197576974Y-125827816D01*
X197524025Y-125699986D01*
X197524024Y-125699983D01*
X197439791Y-125590209D01*
X197439789Y-125590208D01*
X197439789Y-125590207D01*
X197330018Y-125505976D01*
X197330014Y-125505974D01*
X197202183Y-125453026D01*
X197179343Y-125450019D01*
X197065000Y-125434965D01*
X197064999Y-125434965D01*
X196922422Y-125453736D01*
X196862261Y-125442586D01*
X196820144Y-125398204D01*
X196810500Y-125355583D01*
X196810500Y-119002274D01*
X196810500Y-119002273D01*
X196783207Y-118900413D01*
X196771301Y-118879792D01*
X196730480Y-118809087D01*
X196655913Y-118734519D01*
X196655913Y-118734520D01*
X196408284Y-118486891D01*
X196380507Y-118432374D01*
X196380135Y-118429809D01*
X196379158Y-118422388D01*
X196371974Y-118367817D01*
X196319024Y-118239983D01*
X196234791Y-118130209D01*
X196234789Y-118130208D01*
X196234789Y-118130207D01*
X196125018Y-118045976D01*
X196125014Y-118045974D01*
X195997183Y-117993026D01*
X195960443Y-117988189D01*
X195860000Y-117974965D01*
X195859999Y-117974965D01*
X195722816Y-117993025D01*
X195722816Y-117993026D01*
X195594986Y-118045974D01*
X195594982Y-118045976D01*
X195485211Y-118130207D01*
X195485207Y-118130211D01*
X195400976Y-118239982D01*
X195400974Y-118239986D01*
X195348026Y-118367816D01*
X195348025Y-118367816D01*
X195329965Y-118504999D01*
X195348026Y-118642183D01*
X195400974Y-118770014D01*
X195400976Y-118770018D01*
X195485207Y-118879789D01*
X195485210Y-118879792D01*
X195512080Y-118900410D01*
X195594982Y-118964024D01*
X195722817Y-119016974D01*
X195784810Y-119025135D01*
X195840034Y-119051476D01*
X195841891Y-119053284D01*
X195980504Y-119191897D01*
X196008281Y-119246414D01*
X196009500Y-119261901D01*
X196009500Y-123849099D01*
X195990593Y-123907290D01*
X195941093Y-123943254D01*
X195879907Y-123943254D01*
X195840496Y-123919103D01*
X192899495Y-120978102D01*
X192871718Y-120923585D01*
X192870499Y-120908098D01*
X192870499Y-120170139D01*
X192870499Y-120170136D01*
X192867585Y-120145009D01*
X192822206Y-120042235D01*
X192742765Y-119962794D01*
X192639991Y-119917415D01*
X192639990Y-119917414D01*
X192639988Y-119917414D01*
X192614868Y-119914500D01*
X191525139Y-119914500D01*
X191525136Y-119914501D01*
X191500009Y-119917414D01*
X191397235Y-119962794D01*
X191317794Y-120042235D01*
X191272414Y-120145011D01*
X191269500Y-120170130D01*
X191269500Y-120401090D01*
X191250593Y-120459281D01*
X191201093Y-120495245D01*
X191139907Y-120495245D01*
X191132626Y-120492559D01*
X191037183Y-120453026D01*
X191037180Y-120453025D01*
X191037179Y-120453025D01*
X190929849Y-120438894D01*
X190900000Y-120434965D01*
X190899999Y-120434965D01*
X190762816Y-120453025D01*
X190762816Y-120453026D01*
X190634986Y-120505974D01*
X190634982Y-120505976D01*
X190525211Y-120590207D01*
X190525207Y-120590211D01*
X190440976Y-120699982D01*
X190440974Y-120699986D01*
X190388026Y-120827816D01*
X190388025Y-120827816D01*
X190369965Y-120964999D01*
X190369965Y-120965000D01*
X190370606Y-120969865D01*
X190388026Y-121102183D01*
X190440974Y-121230014D01*
X190440976Y-121230018D01*
X190523693Y-121337816D01*
X190525209Y-121339791D01*
X190634982Y-121424024D01*
X190762817Y-121476974D01*
X190900000Y-121495035D01*
X191037183Y-121476974D01*
X191165018Y-121424024D01*
X191203099Y-121394802D01*
X191260772Y-121374378D01*
X191319438Y-121391754D01*
X191333364Y-121403335D01*
X191397235Y-121467206D01*
X191500009Y-121512585D01*
X191525135Y-121515500D01*
X192263098Y-121515499D01*
X192321289Y-121534406D01*
X192333102Y-121544495D01*
X192883602Y-122094995D01*
X192911379Y-122149512D01*
X192901808Y-122209944D01*
X192883602Y-122235003D01*
X191455579Y-123663026D01*
X191401062Y-123690803D01*
X191340630Y-123681232D01*
X191307033Y-123653290D01*
X191252621Y-123582379D01*
X191137625Y-123494139D01*
X191137621Y-123494137D01*
X191003709Y-123438670D01*
X191003708Y-123438669D01*
X190860000Y-123419750D01*
X190716291Y-123438669D01*
X190716290Y-123438670D01*
X190582378Y-123494137D01*
X190582374Y-123494139D01*
X190467381Y-123582377D01*
X190467377Y-123582381D01*
X190379139Y-123697374D01*
X190379137Y-123697378D01*
X190323670Y-123831290D01*
X190323669Y-123831291D01*
X190304750Y-123974999D01*
X190304750Y-123975000D01*
X190323669Y-124118708D01*
X190323670Y-124118709D01*
X190352212Y-124187618D01*
X190379139Y-124252625D01*
X190467379Y-124367621D01*
X190535967Y-124420251D01*
X190538290Y-124422033D01*
X190572946Y-124472457D01*
X190571345Y-124533622D01*
X190548027Y-124570578D01*
X190329520Y-124789086D01*
X190329516Y-124789091D01*
X190276795Y-124880406D01*
X190276793Y-124880410D01*
X190276793Y-124880412D01*
X190266191Y-124919982D01*
X190260894Y-124939750D01*
X190249500Y-124982273D01*
X190249500Y-126799900D01*
X190230593Y-126858091D01*
X190181093Y-126894055D01*
X190150502Y-126898900D01*
X190109839Y-126898900D01*
X190109835Y-126898901D01*
X190084709Y-126901814D01*
X189981935Y-126947194D01*
X189902493Y-127026636D01*
X189894169Y-127045489D01*
X189853368Y-127091084D01*
X189803605Y-127104500D01*
X186996392Y-127104500D01*
X186938201Y-127085593D01*
X186905828Y-127045489D01*
X186897503Y-127026636D01*
X186897503Y-127026635D01*
X186818062Y-126947194D01*
X186715288Y-126901815D01*
X186715287Y-126901814D01*
X186715285Y-126901814D01*
X186690166Y-126898900D01*
X186690162Y-126898900D01*
X186172007Y-126898900D01*
X186113816Y-126879993D01*
X186102009Y-126869909D01*
X186096611Y-126864511D01*
X186096608Y-126864509D01*
X186096606Y-126864507D01*
X185993889Y-126805203D01*
X185993886Y-126805202D01*
X185993884Y-126805201D01*
X185965773Y-126797669D01*
X185879306Y-126774500D01*
X185879305Y-126774500D01*
X185667236Y-126774500D01*
X185609045Y-126755593D01*
X185587983Y-126734829D01*
X185581838Y-126726621D01*
X185537546Y-126667454D01*
X185537541Y-126667450D01*
X185422329Y-126581202D01*
X185287488Y-126530910D01*
X185287483Y-126530909D01*
X185287481Y-126530908D01*
X185287477Y-126530908D01*
X185256249Y-126527550D01*
X185227873Y-126524500D01*
X185227870Y-126524500D01*
X184582133Y-126524500D01*
X184582129Y-126524500D01*
X184582128Y-126524501D01*
X184574949Y-126525272D01*
X184522519Y-126530908D01*
X184522514Y-126530909D01*
X184387670Y-126581202D01*
X184272458Y-126667450D01*
X184272450Y-126667458D01*
X184186202Y-126782670D01*
X184135910Y-126917511D01*
X184135908Y-126917522D01*
X184134296Y-126932517D01*
X184129985Y-126972621D01*
X184129500Y-126977129D01*
X184129500Y-127472866D01*
X184129501Y-127472870D01*
X184135908Y-127532480D01*
X184135909Y-127532485D01*
X184186202Y-127667329D01*
X184197433Y-127682331D01*
X184272454Y-127782546D01*
X184272457Y-127782548D01*
X184272458Y-127782549D01*
X184387670Y-127868797D01*
X184522511Y-127919089D01*
X184522512Y-127919089D01*
X184522517Y-127919091D01*
X184582127Y-127925500D01*
X185227872Y-127925499D01*
X185256107Y-127922463D01*
X185315982Y-127935042D01*
X185357032Y-127980414D01*
X185357252Y-127980908D01*
X185384233Y-128042015D01*
X185390441Y-128102885D01*
X185359685Y-128155778D01*
X185303713Y-128180492D01*
X185283086Y-128180436D01*
X185258745Y-128177819D01*
X185227873Y-128174500D01*
X185227870Y-128174500D01*
X184582133Y-128174500D01*
X184582129Y-128174500D01*
X184582128Y-128174501D01*
X184574949Y-128175272D01*
X184522519Y-128180908D01*
X184522514Y-128180909D01*
X184387674Y-128231201D01*
X184387668Y-128231204D01*
X184384010Y-128233943D01*
X184326095Y-128253677D01*
X184286802Y-128246152D01*
X184281547Y-128243975D01*
X184267183Y-128238026D01*
X184130000Y-128219965D01*
X184129999Y-128219965D01*
X183992816Y-128238025D01*
X183992816Y-128238026D01*
X183864986Y-128290974D01*
X183864982Y-128290976D01*
X183755211Y-128375207D01*
X183755207Y-128375211D01*
X183670976Y-128484982D01*
X183670974Y-128484986D01*
X183618026Y-128612816D01*
X183618025Y-128612816D01*
X183600736Y-128744142D01*
X183599965Y-128750000D01*
X183609634Y-128823438D01*
X183618026Y-128887183D01*
X183670974Y-129015014D01*
X183670976Y-129015018D01*
X183753734Y-129122870D01*
X183755209Y-129124791D01*
X183864982Y-129209024D01*
X183992817Y-129261974D01*
X184120035Y-129278723D01*
X184175259Y-129305064D01*
X184186365Y-129317547D01*
X184272450Y-129432541D01*
X184272454Y-129432546D01*
X184272457Y-129432548D01*
X184272458Y-129432549D01*
X184387670Y-129518797D01*
X184522511Y-129569089D01*
X184522512Y-129569089D01*
X184522517Y-129569091D01*
X184582127Y-129575500D01*
X185227872Y-129575499D01*
X185287483Y-129569091D01*
X185403196Y-129525933D01*
X185422329Y-129518797D01*
X185422329Y-129518796D01*
X185422331Y-129518796D01*
X185537546Y-129432546D01*
X185623796Y-129317331D01*
X185628372Y-129305064D01*
X185674089Y-129182488D01*
X185674088Y-129182488D01*
X185674091Y-129182483D01*
X185680500Y-129122873D01*
X185680500Y-128934999D01*
X186434750Y-128934999D01*
X186434750Y-128935000D01*
X186453669Y-129078708D01*
X186453670Y-129078709D01*
X186505594Y-129204068D01*
X186509139Y-129212625D01*
X186597379Y-129327621D01*
X186712375Y-129415861D01*
X186846291Y-129471330D01*
X186990000Y-129490250D01*
X187133709Y-129471330D01*
X187267625Y-129415861D01*
X187382621Y-129327621D01*
X187470861Y-129212625D01*
X187526330Y-129078709D01*
X187545250Y-128935000D01*
X187526330Y-128791291D01*
X187470861Y-128657375D01*
X187382621Y-128542379D01*
X187267625Y-128454139D01*
X187267621Y-128454137D01*
X187133709Y-128398670D01*
X187133708Y-128398669D01*
X186990000Y-128379750D01*
X186846291Y-128398669D01*
X186846290Y-128398670D01*
X186712378Y-128454137D01*
X186712374Y-128454139D01*
X186597381Y-128542377D01*
X186597377Y-128542381D01*
X186509139Y-128657374D01*
X186509137Y-128657378D01*
X186453670Y-128791290D01*
X186453669Y-128791291D01*
X186434750Y-128934999D01*
X185680500Y-128934999D01*
X185680499Y-128627128D01*
X185674091Y-128567517D01*
X185664715Y-128542379D01*
X185623797Y-128432670D01*
X185576454Y-128369428D01*
X185556717Y-128311513D01*
X185574791Y-128253058D01*
X185623772Y-128216391D01*
X185655701Y-128211099D01*
X186690161Y-128211099D01*
X186715288Y-128208185D01*
X186818062Y-128162806D01*
X186897503Y-128083365D01*
X186905828Y-128064511D01*
X186946629Y-128018916D01*
X186996392Y-128005500D01*
X189803605Y-128005500D01*
X189861796Y-128024407D01*
X189894169Y-128064511D01*
X189902494Y-128083365D01*
X189981935Y-128162806D01*
X190084709Y-128208185D01*
X190109835Y-128211100D01*
X191190164Y-128211099D01*
X191215291Y-128208185D01*
X191318065Y-128162806D01*
X191397506Y-128083365D01*
X191405831Y-128064511D01*
X191446632Y-128018916D01*
X191496395Y-128005500D01*
X191649308Y-128005500D01*
X191649309Y-128005500D01*
X191742270Y-127980591D01*
X191763887Y-127974799D01*
X191800321Y-127953762D01*
X191849822Y-127940499D01*
X192227867Y-127940499D01*
X192227872Y-127940499D01*
X192287483Y-127934091D01*
X192394418Y-127894207D01*
X192422329Y-127883797D01*
X192422329Y-127883796D01*
X192422331Y-127883796D01*
X192537546Y-127797546D01*
X192623796Y-127682331D01*
X192629392Y-127667329D01*
X192674089Y-127547488D01*
X192674088Y-127547488D01*
X192674091Y-127547483D01*
X192680500Y-127487873D01*
X192680499Y-126992128D01*
X192674091Y-126932517D01*
X192668498Y-126917522D01*
X192623797Y-126797670D01*
X192581246Y-126740830D01*
X192563565Y-126717211D01*
X192543829Y-126659299D01*
X192561903Y-126600844D01*
X192610884Y-126564176D01*
X192629895Y-126559731D01*
X192693709Y-126551330D01*
X192827625Y-126495861D01*
X192942621Y-126407621D01*
X193030861Y-126292625D01*
X193086330Y-126158709D01*
X193105250Y-126015000D01*
X193102073Y-125990872D01*
X193086330Y-125871291D01*
X193030861Y-125737375D01*
X192942621Y-125622379D01*
X192827625Y-125534139D01*
X192827621Y-125534137D01*
X192693709Y-125478670D01*
X192693708Y-125478669D01*
X192550000Y-125459750D01*
X192406291Y-125478669D01*
X192406290Y-125478670D01*
X192272378Y-125534137D01*
X192272374Y-125534139D01*
X192157381Y-125622377D01*
X192157377Y-125622381D01*
X192069139Y-125737374D01*
X192069137Y-125737378D01*
X192013670Y-125871290D01*
X192013669Y-125871291D01*
X191994750Y-126014999D01*
X191994750Y-126015000D01*
X192013669Y-126158708D01*
X192013670Y-126158709D01*
X192046806Y-126238709D01*
X192069139Y-126292625D01*
X192130525Y-126372625D01*
X192136363Y-126380232D01*
X192156787Y-126437908D01*
X192139410Y-126496574D01*
X192090868Y-126533821D01*
X192057821Y-126539500D01*
X191582133Y-126539500D01*
X191582129Y-126539500D01*
X191582128Y-126539501D01*
X191574949Y-126540272D01*
X191522519Y-126545908D01*
X191522514Y-126545909D01*
X191387670Y-126596202D01*
X191272458Y-126682450D01*
X191272450Y-126682458D01*
X191228753Y-126740830D01*
X191178744Y-126776083D01*
X191117565Y-126775209D01*
X191068584Y-126738541D01*
X191050500Y-126681501D01*
X191050500Y-125241901D01*
X191069407Y-125183710D01*
X191079496Y-125171897D01*
X193449996Y-122801397D01*
X193504513Y-122773620D01*
X193564945Y-122783191D01*
X193590004Y-122801397D01*
X195580504Y-124791897D01*
X195608281Y-124846414D01*
X195609500Y-124861901D01*
X195609500Y-125470506D01*
X195590593Y-125528697D01*
X195541093Y-125564661D01*
X195479907Y-125564661D01*
X195431958Y-125530774D01*
X195354789Y-125430207D01*
X195245018Y-125345976D01*
X195245014Y-125345974D01*
X195187092Y-125321982D01*
X195117183Y-125293026D01*
X195100170Y-125290786D01*
X195036112Y-125282352D01*
X194980887Y-125256010D01*
X194951693Y-125202239D01*
X194950278Y-125186850D01*
X194950034Y-125185002D01*
X194950035Y-125185000D01*
X194931974Y-125047817D01*
X194918024Y-125014139D01*
X194879025Y-124919986D01*
X194879024Y-124919983D01*
X194794791Y-124810209D01*
X194794789Y-124810208D01*
X194794789Y-124810207D01*
X194685018Y-124725976D01*
X194685014Y-124725974D01*
X194557183Y-124673026D01*
X194482959Y-124663254D01*
X194420000Y-124654965D01*
X194419999Y-124654965D01*
X194282816Y-124673025D01*
X194282816Y-124673026D01*
X194154986Y-124725974D01*
X194154982Y-124725976D01*
X194045211Y-124810207D01*
X194045207Y-124810211D01*
X193960976Y-124919982D01*
X193960974Y-124919986D01*
X193908026Y-125047816D01*
X193908025Y-125047816D01*
X193900842Y-125102381D01*
X193889965Y-125185000D01*
X193902232Y-125278173D01*
X193908026Y-125322183D01*
X193960974Y-125450014D01*
X193960976Y-125450019D01*
X193976697Y-125470506D01*
X193999041Y-125499624D01*
X194019466Y-125557298D01*
X194019500Y-125559892D01*
X194019500Y-128690617D01*
X194000593Y-128748808D01*
X193951093Y-128784772D01*
X193889907Y-128784772D01*
X193860233Y-128769159D01*
X193827630Y-128744142D01*
X193827621Y-128744137D01*
X193693709Y-128688670D01*
X193693708Y-128688669D01*
X193550000Y-128669750D01*
X193406291Y-128688669D01*
X193406290Y-128688670D01*
X193272378Y-128744137D01*
X193272374Y-128744139D01*
X193157381Y-128832377D01*
X193157377Y-128832381D01*
X193069139Y-128947374D01*
X193069137Y-128947378D01*
X193013670Y-129081290D01*
X193013669Y-129081291D01*
X192994750Y-129224999D01*
X192994750Y-129225000D01*
X193013669Y-129368708D01*
X193013670Y-129368709D01*
X193042878Y-129439226D01*
X193069139Y-129502625D01*
X193157379Y-129617621D01*
X193157383Y-129617624D01*
X193157384Y-129617625D01*
X193196709Y-129647800D01*
X193231365Y-129698224D01*
X193229764Y-129759389D01*
X193192516Y-129807930D01*
X193185948Y-129812075D01*
X193182380Y-129814135D01*
X193067381Y-129902377D01*
X193067377Y-129902381D01*
X192979139Y-130017374D01*
X192979137Y-130017378D01*
X192923670Y-130151290D01*
X192923669Y-130151291D01*
X192904750Y-130294999D01*
X192904750Y-130295000D01*
X192923669Y-130438708D01*
X192923670Y-130438709D01*
X192966099Y-130541145D01*
X192979139Y-130572625D01*
X193067379Y-130687621D01*
X193131678Y-130736960D01*
X193166333Y-130787384D01*
X193164731Y-130848548D01*
X193127484Y-130897090D01*
X193071410Y-130914501D01*
X192685140Y-130914501D01*
X192685137Y-130914502D01*
X192660010Y-130917415D01*
X192557236Y-130962795D01*
X192477795Y-131042236D01*
X192432415Y-131145012D01*
X192429501Y-131170131D01*
X192429501Y-132259861D01*
X192429502Y-132259864D01*
X192432415Y-132284991D01*
X192440109Y-132302415D01*
X192477795Y-132387766D01*
X192557236Y-132467207D01*
X192660010Y-132512586D01*
X192685136Y-132515501D01*
X193774865Y-132515500D01*
X193799992Y-132512586D01*
X193902766Y-132467207D01*
X193982207Y-132387766D01*
X194027586Y-132284992D01*
X194030501Y-132259866D01*
X194030500Y-131680248D01*
X194049407Y-131622059D01*
X194098907Y-131586095D01*
X194160093Y-131586095D01*
X194199501Y-131610244D01*
X194558540Y-131969283D01*
X194861665Y-132272408D01*
X194889442Y-132326925D01*
X194889814Y-132329488D01*
X194897977Y-132391485D01*
X194950925Y-132519315D01*
X194950927Y-132519319D01*
X195030246Y-132622689D01*
X195035160Y-132629092D01*
X195144933Y-132713325D01*
X195272768Y-132766275D01*
X195409951Y-132784336D01*
X195547134Y-132766275D01*
X195674969Y-132713325D01*
X195784742Y-132629092D01*
X195784741Y-132629092D01*
X195789890Y-132625142D01*
X195791202Y-132626852D01*
X195837104Y-132603452D01*
X195897538Y-132613011D01*
X195912879Y-132622689D01*
X196004927Y-132693321D01*
X196004929Y-132693322D01*
X196004933Y-132693325D01*
X196132768Y-132746275D01*
X196269951Y-132764336D01*
X196407134Y-132746275D01*
X196534969Y-132693325D01*
X196644742Y-132609092D01*
X196728975Y-132499319D01*
X196781925Y-132371484D01*
X196799986Y-132234301D01*
X196792101Y-132174406D01*
X196781925Y-132097117D01*
X196728976Y-131969287D01*
X196728975Y-131969284D01*
X196644742Y-131859510D01*
X196644740Y-131859509D01*
X196644740Y-131859508D01*
X196534969Y-131775277D01*
X196534965Y-131775275D01*
X196413317Y-131724888D01*
X196407134Y-131722327D01*
X196407132Y-131722326D01*
X196407130Y-131722326D01*
X196345137Y-131714164D01*
X196289913Y-131687822D01*
X196288057Y-131686015D01*
X195299496Y-130697453D01*
X195271719Y-130642936D01*
X195270500Y-130627449D01*
X195270500Y-126293291D01*
X195289407Y-126235100D01*
X195309233Y-126214749D01*
X195354791Y-126179791D01*
X195385712Y-126139494D01*
X195431958Y-126079225D01*
X195482383Y-126044571D01*
X195543547Y-126046173D01*
X195592089Y-126083420D01*
X195609500Y-126139494D01*
X195609500Y-130312273D01*
X195609500Y-130417727D01*
X195615122Y-130438708D01*
X195636794Y-130519592D01*
X195689516Y-130610908D01*
X195689518Y-130610910D01*
X195689520Y-130610913D01*
X196999518Y-131920910D01*
X196999520Y-131920913D01*
X197074087Y-131995480D01*
X197074089Y-131995481D01*
X197101463Y-132011285D01*
X197101465Y-132011287D01*
X197101466Y-132011287D01*
X197165412Y-132048207D01*
X197267273Y-132075500D01*
X197372727Y-132075500D01*
X198323098Y-132075500D01*
X198381289Y-132094407D01*
X198393102Y-132104496D01*
X198964996Y-132676390D01*
X198992773Y-132730907D01*
X198983202Y-132791339D01*
X198939937Y-132834604D01*
X198879505Y-132844175D01*
X198857107Y-132837858D01*
X198747183Y-132792327D01*
X198739679Y-132791339D01*
X198610000Y-132774266D01*
X198609999Y-132774266D01*
X198472816Y-132792326D01*
X198472816Y-132792327D01*
X198344986Y-132845275D01*
X198344982Y-132845277D01*
X198235211Y-132929508D01*
X198235207Y-132929512D01*
X198150976Y-133039283D01*
X198150974Y-133039287D01*
X198098026Y-133167117D01*
X198098025Y-133167117D01*
X198079965Y-133304300D01*
X198098026Y-133441484D01*
X198151964Y-133571705D01*
X198159500Y-133609590D01*
X198159500Y-134619348D01*
X198140593Y-134677539D01*
X198091093Y-134713503D01*
X198029907Y-134713503D01*
X197980407Y-134677539D01*
X197969038Y-134657238D01*
X197960811Y-134637375D01*
X197872571Y-134522379D01*
X197757575Y-134434139D01*
X197757571Y-134434137D01*
X197623659Y-134378670D01*
X197623658Y-134378669D01*
X197479950Y-134359750D01*
X197336241Y-134378669D01*
X197336240Y-134378670D01*
X197202328Y-134434137D01*
X197202324Y-134434139D01*
X197087331Y-134522377D01*
X197087327Y-134522381D01*
X196999089Y-134637374D01*
X196999087Y-134637378D01*
X196943620Y-134771290D01*
X196943619Y-134771291D01*
X196924700Y-134914999D01*
X196924700Y-134915000D01*
X196943619Y-135058708D01*
X196943620Y-135058709D01*
X196999089Y-135192625D01*
X197087329Y-135307621D01*
X197202325Y-135395861D01*
X197336241Y-135451330D01*
X197479950Y-135470250D01*
X197623659Y-135451330D01*
X197757575Y-135395861D01*
X197872571Y-135307621D01*
X197960811Y-135192625D01*
X198016280Y-135058709D01*
X198030081Y-134953876D01*
X198056422Y-134898653D01*
X198110193Y-134869458D01*
X198170854Y-134877444D01*
X198200113Y-134902472D01*
X198201308Y-134901278D01*
X198207793Y-134907763D01*
X198207794Y-134907765D01*
X198287235Y-134987206D01*
X198390009Y-135032585D01*
X198415135Y-135035500D01*
X199504864Y-135035499D01*
X199529991Y-135032585D01*
X199632765Y-134987206D01*
X199712206Y-134907765D01*
X199757585Y-134804991D01*
X199760500Y-134779865D01*
X199760499Y-133710900D01*
X199779406Y-133652710D01*
X199828906Y-133616746D01*
X199890092Y-133616746D01*
X199929503Y-133640897D01*
X200640278Y-134351672D01*
X200640277Y-134351672D01*
X200710899Y-134422293D01*
X200714845Y-134426239D01*
X200806171Y-134478966D01*
X200908031Y-134506259D01*
X200960038Y-134506259D01*
X201018229Y-134525166D01*
X201054193Y-134574666D01*
X201054193Y-134635852D01*
X201018229Y-134685352D01*
X201002660Y-134694614D01*
X200916486Y-134735717D01*
X200770152Y-134805515D01*
X200765416Y-134807623D01*
X200066459Y-135097139D01*
X200061621Y-135098996D01*
X199348494Y-135351528D01*
X199343565Y-135353130D01*
X198618180Y-135567999D01*
X198613173Y-135569341D01*
X197877519Y-135745956D01*
X197872449Y-135747033D01*
X197128596Y-135884898D01*
X197123477Y-135885709D01*
X196373411Y-135984457D01*
X196368256Y-135984999D01*
X195783296Y-136031036D01*
X195723802Y-136016752D01*
X195684065Y-135970227D01*
X195679264Y-135909230D01*
X195711234Y-135857061D01*
X195715262Y-135853799D01*
X195824737Y-135769795D01*
X195824737Y-135769794D01*
X195824742Y-135769791D01*
X195908975Y-135660018D01*
X195961925Y-135532183D01*
X195979986Y-135395000D01*
X195961925Y-135257817D01*
X195908975Y-135129983D01*
X195824742Y-135020209D01*
X195824740Y-135020208D01*
X195824740Y-135020207D01*
X195714969Y-134935976D01*
X195714965Y-134935974D01*
X195587134Y-134883026D01*
X195587126Y-134883025D01*
X195449951Y-134864965D01*
X195449950Y-134864965D01*
X195312767Y-134883025D01*
X195312767Y-134883026D01*
X195184937Y-134935974D01*
X195184933Y-134935976D01*
X195075162Y-135020207D01*
X195075158Y-135020211D01*
X194990927Y-135129982D01*
X194990925Y-135129986D01*
X194937977Y-135257816D01*
X194937976Y-135257816D01*
X194925639Y-135351528D01*
X194919916Y-135395000D01*
X194937977Y-135532183D01*
X194990927Y-135660018D01*
X195075160Y-135769791D01*
X195184933Y-135854024D01*
X195192265Y-135857061D01*
X195212634Y-135865498D01*
X195259160Y-135905234D01*
X195273444Y-135964729D01*
X195250030Y-136021257D01*
X195197861Y-136053226D01*
X195177341Y-136055928D01*
X194852592Y-136064432D01*
X194847408Y-136064432D01*
X194091133Y-136044627D01*
X194085958Y-136044356D01*
X193331743Y-135984999D01*
X193326588Y-135984457D01*
X192576522Y-135885709D01*
X192571403Y-135884898D01*
X191827550Y-135747033D01*
X191822480Y-135745956D01*
X191086826Y-135569341D01*
X191081819Y-135567999D01*
X190356434Y-135353130D01*
X190351505Y-135351528D01*
X189638378Y-135098996D01*
X189633540Y-135097139D01*
X188934583Y-134807623D01*
X188929847Y-134805515D01*
X188928748Y-134804991D01*
X188787051Y-134737404D01*
X188247004Y-134479814D01*
X188242386Y-134477461D01*
X187577524Y-134116471D01*
X187573036Y-134113880D01*
X187556955Y-134104026D01*
X187524129Y-134083909D01*
X187484393Y-134037386D01*
X187479592Y-133976389D01*
X187511561Y-133924219D01*
X187568089Y-133900804D01*
X187575857Y-133900499D01*
X188264861Y-133900499D01*
X188264864Y-133900499D01*
X188289991Y-133897585D01*
X188392765Y-133852206D01*
X188472206Y-133772765D01*
X188486616Y-133740130D01*
X191899500Y-133740130D01*
X191899500Y-134829860D01*
X191899501Y-134829863D01*
X191902414Y-134854990D01*
X191922397Y-134900246D01*
X191947794Y-134957765D01*
X192027235Y-135037206D01*
X192130009Y-135082585D01*
X192155135Y-135085500D01*
X193244864Y-135085499D01*
X193269991Y-135082585D01*
X193372765Y-135037206D01*
X193452206Y-134957765D01*
X193477604Y-134900243D01*
X193518402Y-134854650D01*
X193578211Y-134841744D01*
X193634183Y-134866457D01*
X193664939Y-134919350D01*
X193666320Y-134927310D01*
X193680181Y-135032585D01*
X193683620Y-135058709D01*
X193739089Y-135192625D01*
X193827329Y-135307621D01*
X193942325Y-135395861D01*
X194076241Y-135451330D01*
X194219950Y-135470250D01*
X194363659Y-135451330D01*
X194497575Y-135395861D01*
X194612571Y-135307621D01*
X194700811Y-135192625D01*
X194756280Y-135058709D01*
X194775200Y-134915000D01*
X194774247Y-134907765D01*
X194756280Y-134771291D01*
X194700811Y-134637375D01*
X194612571Y-134522379D01*
X194497575Y-134434139D01*
X194497571Y-134434137D01*
X194363659Y-134378670D01*
X194363658Y-134378669D01*
X194219950Y-134359750D01*
X194076241Y-134378669D01*
X194076240Y-134378670D01*
X193942328Y-134434137D01*
X193942324Y-134434139D01*
X193827331Y-134522377D01*
X193827327Y-134522381D01*
X193739089Y-134637374D01*
X193739088Y-134637375D01*
X193690963Y-134753562D01*
X193651226Y-134800087D01*
X193591732Y-134814371D01*
X193535204Y-134790956D01*
X193503234Y-134738787D01*
X193500499Y-134715683D01*
X193500499Y-133740136D01*
X193497585Y-133715009D01*
X193452206Y-133612235D01*
X193372765Y-133532794D01*
X193372763Y-133532793D01*
X193372762Y-133532792D01*
X193365368Y-133527727D01*
X193328047Y-133479242D01*
X193323165Y-133433133D01*
X193340035Y-133305000D01*
X193321974Y-133167817D01*
X193321684Y-133167118D01*
X193269025Y-133039986D01*
X193269024Y-133039983D01*
X193184791Y-132930209D01*
X193184789Y-132930208D01*
X193184789Y-132930207D01*
X193075018Y-132845976D01*
X193075014Y-132845974D01*
X192947183Y-132793026D01*
X192886487Y-132785035D01*
X192810000Y-132774965D01*
X192809999Y-132774965D01*
X192672816Y-132793025D01*
X192672816Y-132793026D01*
X192544986Y-132845974D01*
X192544982Y-132845976D01*
X192435211Y-132930207D01*
X192435207Y-132930211D01*
X192350976Y-133039982D01*
X192350974Y-133039986D01*
X192298026Y-133167816D01*
X192298025Y-133167816D01*
X192279965Y-133304999D01*
X192279965Y-133305000D01*
X192288862Y-133372578D01*
X192277712Y-133432738D01*
X192233330Y-133474856D01*
X192190712Y-133484500D01*
X192155139Y-133484500D01*
X192155135Y-133484501D01*
X192130009Y-133487414D01*
X192027235Y-133532794D01*
X191947794Y-133612235D01*
X191902414Y-133715011D01*
X191899500Y-133740130D01*
X188486616Y-133740130D01*
X188517585Y-133669991D01*
X188520500Y-133644865D01*
X188520499Y-132555136D01*
X188517585Y-132530009D01*
X188472206Y-132427235D01*
X188392765Y-132347794D01*
X188289991Y-132302415D01*
X188289990Y-132302414D01*
X188289988Y-132302414D01*
X188264869Y-132299500D01*
X188264865Y-132299500D01*
X188234500Y-132299500D01*
X188176309Y-132280593D01*
X188140345Y-132231093D01*
X188135500Y-132200500D01*
X188135500Y-132165478D01*
X188154407Y-132107287D01*
X188164490Y-132095480D01*
X188232206Y-132027765D01*
X188277585Y-131924991D01*
X188280500Y-131899865D01*
X188280499Y-130810136D01*
X188277585Y-130785009D01*
X188232206Y-130682235D01*
X188152765Y-130602794D01*
X188049991Y-130557415D01*
X188049990Y-130557414D01*
X188049988Y-130557414D01*
X188024868Y-130554500D01*
X186935139Y-130554500D01*
X186935136Y-130554501D01*
X186910009Y-130557414D01*
X186807235Y-130602794D01*
X186727794Y-130682235D01*
X186682414Y-130785011D01*
X186679500Y-130810130D01*
X186679500Y-131899860D01*
X186679501Y-131899863D01*
X186682414Y-131924990D01*
X186706124Y-131978688D01*
X186727794Y-132027765D01*
X186807235Y-132107206D01*
X186910009Y-132152585D01*
X186935135Y-132155500D01*
X187013430Y-132155499D01*
X187071619Y-132174406D01*
X187107583Y-132223905D01*
X187107584Y-132285091D01*
X187071621Y-132334591D01*
X187053422Y-132345061D01*
X187047238Y-132347791D01*
X186967794Y-132427235D01*
X186922414Y-132530011D01*
X186919500Y-132555130D01*
X186919500Y-133524757D01*
X186900593Y-133582948D01*
X186851093Y-133618912D01*
X186789907Y-133618912D01*
X186764426Y-133606346D01*
X186714023Y-133571705D01*
X186300134Y-133287247D01*
X186295966Y-133284218D01*
X185695757Y-132823661D01*
X185691729Y-132820399D01*
X185116459Y-132329072D01*
X185112607Y-132325604D01*
X184563830Y-131804834D01*
X184560165Y-131801169D01*
X184039395Y-131252392D01*
X184035927Y-131248540D01*
X183544600Y-130673270D01*
X183541338Y-130669242D01*
X183497810Y-130612515D01*
X183080776Y-130069027D01*
X183077757Y-130064872D01*
X182649220Y-129441346D01*
X182646400Y-129437002D01*
X182635346Y-129418964D01*
X182251113Y-128791953D01*
X182248543Y-128787503D01*
X181887538Y-128122613D01*
X181885185Y-128117995D01*
X181800523Y-127940498D01*
X181559474Y-127435130D01*
X181557376Y-127430416D01*
X181483018Y-127250900D01*
X181329384Y-126879993D01*
X181267860Y-126731459D01*
X181266003Y-126726621D01*
X181262671Y-126717213D01*
X181013471Y-126013494D01*
X181011869Y-126008565D01*
X180971206Y-125871290D01*
X180796998Y-125283174D01*
X180795658Y-125278173D01*
X180783012Y-125225500D01*
X180619042Y-124542514D01*
X180617966Y-124537449D01*
X180607207Y-124479400D01*
X180480099Y-123793589D01*
X180479290Y-123788477D01*
X180477582Y-123775500D01*
X180441329Y-123500130D01*
X181009500Y-123500130D01*
X181009500Y-124589860D01*
X181009501Y-124589863D01*
X181012414Y-124614990D01*
X181023061Y-124639103D01*
X181057794Y-124717765D01*
X181137235Y-124797206D01*
X181240009Y-124842585D01*
X181265135Y-124845500D01*
X182354864Y-124845499D01*
X182379991Y-124842585D01*
X182482765Y-124797206D01*
X182562206Y-124717765D01*
X182607585Y-124614991D01*
X182607585Y-124614984D01*
X182608588Y-124611304D01*
X182610503Y-124608378D01*
X182610592Y-124608179D01*
X182610625Y-124608193D01*
X182642109Y-124560119D01*
X182699314Y-124538411D01*
X182744102Y-124546730D01*
X182780009Y-124562585D01*
X182805135Y-124565500D01*
X183894864Y-124565499D01*
X183919991Y-124562585D01*
X184022765Y-124517206D01*
X184102206Y-124437765D01*
X184147585Y-124334991D01*
X184150500Y-124309865D01*
X184150500Y-123794999D01*
X186544750Y-123794999D01*
X186544750Y-123795000D01*
X186563669Y-123938708D01*
X186563670Y-123938709D01*
X186592664Y-124008709D01*
X186619139Y-124072625D01*
X186707379Y-124187621D01*
X186822375Y-124275861D01*
X186956291Y-124331330D01*
X187100000Y-124350250D01*
X187243709Y-124331330D01*
X187377625Y-124275861D01*
X187492621Y-124187621D01*
X187580861Y-124072625D01*
X187636330Y-123938709D01*
X187655250Y-123795000D01*
X187652682Y-123775498D01*
X187636330Y-123651291D01*
X187580861Y-123517375D01*
X187492621Y-123402379D01*
X187377625Y-123314139D01*
X187377621Y-123314137D01*
X187243709Y-123258670D01*
X187243708Y-123258669D01*
X187100000Y-123239750D01*
X186956291Y-123258669D01*
X186956290Y-123258670D01*
X186822378Y-123314137D01*
X186822374Y-123314139D01*
X186707381Y-123402377D01*
X186707377Y-123402381D01*
X186619139Y-123517374D01*
X186619137Y-123517378D01*
X186563670Y-123651290D01*
X186563669Y-123651291D01*
X186544750Y-123794999D01*
X184150500Y-123794999D01*
X184150499Y-123220136D01*
X184147585Y-123195009D01*
X184102206Y-123092235D01*
X184022765Y-123012794D01*
X183919991Y-122967415D01*
X183919990Y-122967414D01*
X183919988Y-122967414D01*
X183894868Y-122964500D01*
X182805139Y-122964500D01*
X182805136Y-122964501D01*
X182780009Y-122967414D01*
X182677235Y-123012794D01*
X182597794Y-123092235D01*
X182552413Y-123195013D01*
X182551409Y-123198705D01*
X182549491Y-123201632D01*
X182549408Y-123201821D01*
X182549376Y-123201807D01*
X182517882Y-123249887D01*
X182460674Y-123271588D01*
X182415897Y-123263269D01*
X182405479Y-123258669D01*
X182379991Y-123247415D01*
X182379989Y-123247414D01*
X182379988Y-123247414D01*
X182354868Y-123244500D01*
X181265139Y-123244500D01*
X181265136Y-123244501D01*
X181240009Y-123247414D01*
X181137235Y-123292794D01*
X181057794Y-123372235D01*
X181012414Y-123475011D01*
X181009500Y-123500130D01*
X180441329Y-123500130D01*
X180380538Y-123038378D01*
X180380003Y-123033288D01*
X180320643Y-122279041D01*
X180320372Y-122273866D01*
X180319035Y-122222794D01*
X180300567Y-121517558D01*
X180300567Y-121512441D01*
X180320372Y-120756131D01*
X180320643Y-120750958D01*
X180333704Y-120584998D01*
X180380003Y-119996707D01*
X180380538Y-119991625D01*
X180479291Y-119241510D01*
X180480101Y-119236403D01*
X180480364Y-119234988D01*
X180617968Y-118492537D01*
X180619043Y-118487480D01*
X180795662Y-117751810D01*
X180797000Y-117746819D01*
X180802157Y-117729412D01*
X181010813Y-117025000D01*
X182600000Y-117025000D01*
X182600000Y-120585000D01*
X185090000Y-122795000D01*
X185090001Y-122795000D01*
X188459999Y-122795000D01*
X188460000Y-122795000D01*
X188460000Y-117825000D01*
X187220000Y-117015000D01*
X187219999Y-117015000D01*
X182600000Y-117025000D01*
X181010813Y-117025000D01*
X181011872Y-117021424D01*
X181013471Y-117016505D01*
X181014004Y-117015000D01*
X181219394Y-116434999D01*
X189614750Y-116434999D01*
X189614750Y-116435000D01*
X189633669Y-116578708D01*
X189633670Y-116578709D01*
X189688572Y-116711257D01*
X189693372Y-116772254D01*
X189688573Y-116787023D01*
X189685325Y-116794867D01*
X189653669Y-116871293D01*
X189634750Y-117014999D01*
X189634750Y-117015000D01*
X189653669Y-117158708D01*
X189653670Y-117158709D01*
X189689104Y-117244257D01*
X189709139Y-117292625D01*
X189797379Y-117407621D01*
X189912375Y-117495861D01*
X190046291Y-117551330D01*
X190160243Y-117566332D01*
X190215468Y-117592673D01*
X190244663Y-117646444D01*
X190238786Y-117702369D01*
X190193669Y-117811293D01*
X190174750Y-117954999D01*
X190174750Y-117955000D01*
X190193669Y-118098708D01*
X190193670Y-118098709D01*
X190206717Y-118130209D01*
X190249139Y-118232625D01*
X190337379Y-118347621D01*
X190452375Y-118435861D01*
X190586291Y-118491330D01*
X190730000Y-118510250D01*
X190873709Y-118491330D01*
X191007625Y-118435861D01*
X191014286Y-118430748D01*
X191071958Y-118410322D01*
X191112440Y-118417823D01*
X191155988Y-118435861D01*
X191185200Y-118447961D01*
X191217318Y-118469421D01*
X191240504Y-118492607D01*
X191268281Y-118547124D01*
X191269500Y-118562611D01*
X191269500Y-119209860D01*
X191269501Y-119209863D01*
X191272414Y-119234990D01*
X191284297Y-119261901D01*
X191317794Y-119337765D01*
X191397235Y-119417206D01*
X191500009Y-119462585D01*
X191525135Y-119465500D01*
X192614864Y-119465499D01*
X192639991Y-119462585D01*
X192742765Y-119417206D01*
X192822206Y-119337765D01*
X192867585Y-119234991D01*
X192870500Y-119209865D01*
X192870499Y-118120136D01*
X192870498Y-118120130D01*
X193289500Y-118120130D01*
X193289500Y-119209860D01*
X193289501Y-119209863D01*
X193292414Y-119234990D01*
X193304297Y-119261901D01*
X193337794Y-119337765D01*
X193417235Y-119417206D01*
X193520009Y-119462585D01*
X193545135Y-119465500D01*
X194634864Y-119465499D01*
X194659991Y-119462585D01*
X194762765Y-119417206D01*
X194842206Y-119337765D01*
X194887585Y-119234991D01*
X194890500Y-119209865D01*
X194890499Y-118120136D01*
X194887585Y-118095009D01*
X194842206Y-117992235D01*
X194762765Y-117912794D01*
X194659991Y-117867415D01*
X194659990Y-117867414D01*
X194659988Y-117867414D01*
X194634869Y-117864500D01*
X194634865Y-117864500D01*
X194571392Y-117864500D01*
X194513201Y-117845593D01*
X194477237Y-117796093D01*
X194473239Y-117752578D01*
X194490035Y-117625000D01*
X194490035Y-117624999D01*
X194471974Y-117487816D01*
X194438583Y-117407204D01*
X194419024Y-117359983D01*
X194334791Y-117250209D01*
X194334789Y-117250208D01*
X194334789Y-117250207D01*
X194225018Y-117165976D01*
X194225014Y-117165974D01*
X194097183Y-117113026D01*
X194097175Y-117113025D01*
X193960000Y-117094965D01*
X193959999Y-117094965D01*
X193822816Y-117113025D01*
X193822816Y-117113026D01*
X193694986Y-117165974D01*
X193694982Y-117165976D01*
X193585211Y-117250207D01*
X193585207Y-117250211D01*
X193500976Y-117359982D01*
X193500974Y-117359986D01*
X193448026Y-117487816D01*
X193448025Y-117487816D01*
X193431594Y-117612625D01*
X193429965Y-117625000D01*
X193446003Y-117746819D01*
X193448026Y-117762183D01*
X193448027Y-117762186D01*
X193459089Y-117788895D01*
X193463888Y-117849892D01*
X193431917Y-117902060D01*
X193423577Y-117908449D01*
X193417238Y-117912791D01*
X193337794Y-117992235D01*
X193292414Y-118095011D01*
X193289500Y-118120130D01*
X192870498Y-118120130D01*
X192867585Y-118095009D01*
X192822206Y-117992235D01*
X192742765Y-117912794D01*
X192639991Y-117867415D01*
X192639990Y-117867414D01*
X192639988Y-117867414D01*
X192614869Y-117864500D01*
X192614865Y-117864500D01*
X191927611Y-117864500D01*
X191869420Y-117845593D01*
X191857607Y-117835504D01*
X191854420Y-117832317D01*
X191832960Y-117800199D01*
X191831974Y-117797819D01*
X191831974Y-117797817D01*
X191803638Y-117729410D01*
X191798838Y-117668415D01*
X191816563Y-117631257D01*
X191830861Y-117612625D01*
X191886330Y-117478709D01*
X191905250Y-117335000D01*
X191897521Y-117276297D01*
X191886330Y-117191291D01*
X191830861Y-117057375D01*
X191742621Y-116942379D01*
X191627625Y-116854139D01*
X191627621Y-116854137D01*
X191493709Y-116798670D01*
X191493708Y-116798669D01*
X191350000Y-116779750D01*
X191349998Y-116779750D01*
X191339051Y-116781191D01*
X191278890Y-116770040D01*
X191236773Y-116725657D01*
X191228788Y-116664995D01*
X191234666Y-116645153D01*
X191266330Y-116568709D01*
X191285250Y-116425000D01*
X191273955Y-116339211D01*
X191266330Y-116281291D01*
X191210861Y-116147375D01*
X191122621Y-116032379D01*
X191007625Y-115944139D01*
X191007621Y-115944137D01*
X190873709Y-115888670D01*
X190873708Y-115888669D01*
X190730000Y-115869750D01*
X190586294Y-115888669D01*
X190586291Y-115888669D01*
X190586291Y-115888670D01*
X190475815Y-115934430D01*
X190475813Y-115934431D01*
X190414816Y-115939230D01*
X190400043Y-115934430D01*
X190313709Y-115898670D01*
X190313708Y-115898669D01*
X190170000Y-115879750D01*
X190026291Y-115898669D01*
X190026290Y-115898670D01*
X189892378Y-115954137D01*
X189892374Y-115954139D01*
X189777381Y-116042377D01*
X189777377Y-116042381D01*
X189689139Y-116157374D01*
X189689137Y-116157378D01*
X189633670Y-116291290D01*
X189633669Y-116291291D01*
X189614750Y-116434999D01*
X181219394Y-116434999D01*
X181266012Y-116303354D01*
X181267860Y-116298540D01*
X181275005Y-116281290D01*
X181557386Y-115599559D01*
X181559467Y-115594883D01*
X181885190Y-114911993D01*
X181887538Y-114907386D01*
X182248552Y-114242480D01*
X182251103Y-114238062D01*
X182646413Y-113592976D01*
X182649208Y-113588670D01*
X183077770Y-112965108D01*
X183080762Y-112960990D01*
X183541355Y-112360735D01*
X183544582Y-112356750D01*
X183586534Y-112307630D01*
X184119500Y-112307630D01*
X184119500Y-113397360D01*
X184119501Y-113397363D01*
X184122414Y-113422490D01*
X184147756Y-113479885D01*
X184167794Y-113525265D01*
X184247235Y-113604706D01*
X184350009Y-113650085D01*
X184375135Y-113653000D01*
X185464864Y-113652999D01*
X185489991Y-113650085D01*
X185592765Y-113604706D01*
X185672206Y-113525265D01*
X185717585Y-113422491D01*
X185720500Y-113397365D01*
X185720499Y-113386138D01*
X185730572Y-113355130D01*
X188054500Y-113355130D01*
X188054500Y-115244860D01*
X188054501Y-115244863D01*
X188057414Y-115269990D01*
X188074932Y-115309663D01*
X188102794Y-115372765D01*
X188182235Y-115452206D01*
X188285009Y-115497585D01*
X188310135Y-115500500D01*
X189599864Y-115500499D01*
X189624991Y-115497585D01*
X189727765Y-115452206D01*
X189807206Y-115372765D01*
X189852585Y-115269991D01*
X189855500Y-115244865D01*
X189855499Y-113355136D01*
X189852585Y-113330009D01*
X189807206Y-113227235D01*
X189727765Y-113147794D01*
X189624991Y-113102415D01*
X189624990Y-113102414D01*
X189624988Y-113102414D01*
X189599868Y-113099500D01*
X188310139Y-113099500D01*
X188310136Y-113099501D01*
X188285009Y-113102414D01*
X188182235Y-113147794D01*
X188102794Y-113227235D01*
X188057414Y-113330011D01*
X188054500Y-113355130D01*
X185730572Y-113355130D01*
X185739402Y-113327949D01*
X185788900Y-113291982D01*
X185850085Y-113291977D01*
X185859474Y-113295564D01*
X185915009Y-113320085D01*
X185940135Y-113323000D01*
X187029864Y-113322999D01*
X187054991Y-113320085D01*
X187157765Y-113274706D01*
X187237206Y-113195265D01*
X187282585Y-113092491D01*
X187285500Y-113067365D01*
X187285499Y-112092499D01*
X188499750Y-112092499D01*
X188499750Y-112092500D01*
X188518669Y-112236208D01*
X188518670Y-112236209D01*
X188570258Y-112360757D01*
X188574139Y-112370125D01*
X188662379Y-112485121D01*
X188777375Y-112573361D01*
X188911291Y-112628830D01*
X189055000Y-112647750D01*
X189198709Y-112628830D01*
X189332625Y-112573361D01*
X189447621Y-112485121D01*
X189535861Y-112370125D01*
X189591330Y-112236209D01*
X189610250Y-112092500D01*
X189604360Y-112047765D01*
X189591330Y-111948791D01*
X189535861Y-111814875D01*
X189447621Y-111699879D01*
X189332625Y-111611639D01*
X189332621Y-111611637D01*
X189198709Y-111556170D01*
X189198708Y-111556169D01*
X189055000Y-111537250D01*
X188911291Y-111556169D01*
X188911290Y-111556170D01*
X188777378Y-111611637D01*
X188777374Y-111611639D01*
X188662381Y-111699877D01*
X188662377Y-111699881D01*
X188574139Y-111814874D01*
X188574137Y-111814878D01*
X188518670Y-111948790D01*
X188518669Y-111948791D01*
X188499750Y-112092499D01*
X187285499Y-112092499D01*
X187285499Y-111977636D01*
X187282585Y-111952509D01*
X187237206Y-111849735D01*
X187157765Y-111770294D01*
X187054991Y-111724915D01*
X187054990Y-111724914D01*
X187054988Y-111724914D01*
X187029868Y-111722000D01*
X185940139Y-111722000D01*
X185940136Y-111722001D01*
X185915009Y-111724914D01*
X185812235Y-111770294D01*
X185732794Y-111849735D01*
X185687414Y-111952511D01*
X185684500Y-111977630D01*
X185684335Y-111980488D01*
X185682906Y-111980405D01*
X185665593Y-112033691D01*
X185616093Y-112069655D01*
X185585500Y-112074500D01*
X185555231Y-112074500D01*
X185515244Y-112066065D01*
X185489991Y-112054915D01*
X185489988Y-112054914D01*
X185464868Y-112052000D01*
X184375139Y-112052000D01*
X184375136Y-112052001D01*
X184350009Y-112054914D01*
X184247235Y-112100294D01*
X184167794Y-112179735D01*
X184122414Y-112282511D01*
X184119500Y-112307630D01*
X183586534Y-112307630D01*
X184035930Y-111781454D01*
X184039395Y-111777607D01*
X184092164Y-111722000D01*
X184560183Y-111228811D01*
X184563811Y-111225183D01*
X185112611Y-110704391D01*
X185116459Y-110700927D01*
X185261073Y-110577415D01*
X185691750Y-110209582D01*
X185695735Y-110206355D01*
X186295990Y-109745762D01*
X186300108Y-109742770D01*
X186923670Y-109314208D01*
X186927976Y-109311413D01*
X187028194Y-109249999D01*
X190649318Y-109249999D01*
X190649318Y-109250000D01*
X190669955Y-109406758D01*
X190669956Y-109406763D01*
X190684704Y-109442368D01*
X190689503Y-109503365D01*
X190683804Y-109520239D01*
X190657416Y-109580003D01*
X190657414Y-109580010D01*
X190654500Y-109605130D01*
X190654500Y-111244860D01*
X190654501Y-111244863D01*
X190657414Y-111269990D01*
X190682756Y-111327385D01*
X190702794Y-111372765D01*
X190782235Y-111452206D01*
X190885009Y-111497585D01*
X190910135Y-111500500D01*
X191599864Y-111500499D01*
X191624991Y-111497585D01*
X191727765Y-111452206D01*
X191807206Y-111372765D01*
X191852585Y-111269991D01*
X191855500Y-111244865D01*
X191855499Y-109605136D01*
X191852585Y-109580009D01*
X191826194Y-109520241D01*
X191819986Y-109459372D01*
X191825296Y-109442365D01*
X191840044Y-109406762D01*
X191860682Y-109250000D01*
X191840044Y-109093238D01*
X191801481Y-109000138D01*
X191779537Y-108947161D01*
X191779537Y-108947160D01*
X191683286Y-108821723D01*
X191683285Y-108821722D01*
X191683282Y-108821718D01*
X191683277Y-108821714D01*
X191683276Y-108821713D01*
X191589638Y-108749863D01*
X191557841Y-108725464D01*
X191557840Y-108725463D01*
X191557838Y-108725462D01*
X191411766Y-108664957D01*
X191411758Y-108664955D01*
X191255001Y-108644318D01*
X191254999Y-108644318D01*
X191098241Y-108664955D01*
X191098233Y-108664957D01*
X190952161Y-108725462D01*
X190952160Y-108725462D01*
X190826723Y-108821713D01*
X190826713Y-108821723D01*
X190730462Y-108947160D01*
X190730462Y-108947161D01*
X190669957Y-109093233D01*
X190669955Y-109093241D01*
X190649318Y-109249999D01*
X187028194Y-109249999D01*
X187573062Y-108916103D01*
X187577480Y-108913552D01*
X188242397Y-108552531D01*
X188246993Y-108550190D01*
X188929883Y-108224467D01*
X188934559Y-108222386D01*
X189633550Y-107932856D01*
X189638354Y-107931012D01*
X190351515Y-107678467D01*
X190356424Y-107676872D01*
X190412944Y-107660130D01*
X195654497Y-107660130D01*
X195654497Y-108749860D01*
X195654498Y-108749863D01*
X195657411Y-108774990D01*
X195678042Y-108821713D01*
X195702791Y-108877765D01*
X195782232Y-108957206D01*
X195857942Y-108990635D01*
X195903537Y-109031435D01*
X195916442Y-109091244D01*
X195908519Y-109121184D01*
X195902415Y-109135008D01*
X195902414Y-109135011D01*
X195899500Y-109160130D01*
X195899500Y-110249860D01*
X195899501Y-110249863D01*
X195902414Y-110274990D01*
X195912223Y-110297204D01*
X195947794Y-110377765D01*
X196027235Y-110457206D01*
X196130009Y-110502585D01*
X196155135Y-110505500D01*
X197244864Y-110505499D01*
X197269991Y-110502585D01*
X197372765Y-110457206D01*
X197452206Y-110377765D01*
X197497585Y-110274991D01*
X197500500Y-110249865D01*
X197500499Y-109160136D01*
X197497585Y-109135009D01*
X197452206Y-109032235D01*
X197372765Y-108952794D01*
X197372763Y-108952793D01*
X197372762Y-108952792D01*
X197297055Y-108919364D01*
X197251459Y-108878564D01*
X197238554Y-108818755D01*
X197246476Y-108788819D01*
X197252582Y-108774991D01*
X197255497Y-108749865D01*
X197255496Y-107660136D01*
X197252582Y-107635009D01*
X197207203Y-107532235D01*
X197127762Y-107452794D01*
X197024988Y-107407415D01*
X197024987Y-107407414D01*
X197024985Y-107407414D01*
X196999865Y-107404500D01*
X195910136Y-107404500D01*
X195910133Y-107404501D01*
X195885006Y-107407414D01*
X195782232Y-107452794D01*
X195702791Y-107532235D01*
X195657411Y-107635011D01*
X195654497Y-107660130D01*
X190412944Y-107660130D01*
X191081835Y-107461995D01*
X191086810Y-107460662D01*
X191822492Y-107284040D01*
X191827537Y-107282968D01*
X192571416Y-107145098D01*
X192576510Y-107144291D01*
X193326625Y-107045538D01*
X193331707Y-107045003D01*
X194085959Y-106985642D01*
X194091131Y-106985372D01*
X194847441Y-106965567D01*
X194852559Y-106965567D01*
X195608866Y-106985372D01*
G37*
G04 #@! TD.AperFunction*
G04 #@! TA.AperFunction,Conductor*
G36*
X201697851Y-131737335D02*
G01*
X201717668Y-131752668D01*
X202058024Y-132093025D01*
X202398382Y-131752664D01*
X202452897Y-131724888D01*
X202513329Y-131734459D01*
X202534032Y-131748566D01*
X202558804Y-131770512D01*
X202708076Y-131848856D01*
X202871760Y-131889200D01*
X202871763Y-131889200D01*
X202873942Y-131889737D01*
X202925917Y-131922020D01*
X202948990Y-131978688D01*
X202949250Y-131985860D01*
X202949250Y-132346166D01*
X202930343Y-132404357D01*
X202920254Y-132416170D01*
X202294358Y-133042065D01*
X202239841Y-133069842D01*
X202179409Y-133060271D01*
X202136144Y-133017006D01*
X202132890Y-133009946D01*
X202090328Y-132907192D01*
X202090328Y-132907191D01*
X202049425Y-132845976D01*
X202008708Y-132785039D01*
X201904827Y-132681158D01*
X201782676Y-132599539D01*
X201782675Y-132599538D01*
X201782673Y-132599537D01*
X201646949Y-132543319D01*
X201502864Y-132514659D01*
X201502862Y-132514659D01*
X201355952Y-132514659D01*
X201355949Y-132514659D01*
X201211865Y-132543319D01*
X201211863Y-132543319D01*
X201076140Y-132599537D01*
X201076139Y-132599537D01*
X200953987Y-132681158D01*
X200953983Y-132681161D01*
X200850109Y-132785035D01*
X200850106Y-132785039D01*
X200768485Y-132907191D01*
X200768485Y-132907192D01*
X200712267Y-133042915D01*
X200707262Y-133068079D01*
X200677364Y-133121463D01*
X200621799Y-133147078D01*
X200561790Y-133135141D01*
X200540160Y-133118768D01*
X200134256Y-132712864D01*
X200106479Y-132658347D01*
X200116050Y-132597915D01*
X200159315Y-132554650D01*
X200184946Y-132545762D01*
X200210108Y-132540758D01*
X200345835Y-132484538D01*
X200467986Y-132402919D01*
X200571867Y-132299038D01*
X200653486Y-132176887D01*
X200709706Y-132041160D01*
X200737629Y-131900778D01*
X200767524Y-131847396D01*
X200823089Y-131821779D01*
X200880733Y-131832433D01*
X200909243Y-131847396D01*
X200912027Y-131848857D01*
X201075711Y-131889201D01*
X201075714Y-131889201D01*
X201244290Y-131889201D01*
X201244293Y-131889201D01*
X201407977Y-131848857D01*
X201557249Y-131770513D01*
X201582015Y-131748571D01*
X201638107Y-131724134D01*
X201697851Y-131737335D01*
G37*
G04 #@! TD.AperFunction*
G04 #@! TA.AperFunction,Conductor*
G36*
X196579504Y-127180896D02*
G01*
X199365762Y-129967154D01*
X199393539Y-130021671D01*
X199383968Y-130082103D01*
X199365762Y-130107161D01*
X199318690Y-130154233D01*
X199318678Y-130154247D01*
X199302979Y-130174064D01*
X199302976Y-130174070D01*
X199262394Y-130278822D01*
X199262393Y-130278828D01*
X199262393Y-130391174D01*
X199302977Y-130495932D01*
X199302978Y-130495933D01*
X199318683Y-130515761D01*
X199720339Y-130917416D01*
X199765275Y-130962351D01*
X199793053Y-131016868D01*
X199783482Y-131077300D01*
X199740217Y-131120565D01*
X199733158Y-131123819D01*
X199639297Y-131162697D01*
X199517146Y-131244317D01*
X199517142Y-131244320D01*
X199413268Y-131348194D01*
X199413265Y-131348198D01*
X199331644Y-131470350D01*
X199331644Y-131470351D01*
X199275426Y-131606074D01*
X199270421Y-131631238D01*
X199240523Y-131684622D01*
X199184958Y-131710237D01*
X199124949Y-131698300D01*
X199103320Y-131681927D01*
X198775912Y-131354520D01*
X198775907Y-131354516D01*
X198684590Y-131301794D01*
X198684592Y-131301794D01*
X198645069Y-131291204D01*
X198582726Y-131274500D01*
X198582724Y-131274500D01*
X197526900Y-131274500D01*
X197468709Y-131255593D01*
X197456896Y-131245504D01*
X196439496Y-130228103D01*
X196411719Y-130173586D01*
X196410500Y-130158099D01*
X196410500Y-127250900D01*
X196429407Y-127192709D01*
X196478907Y-127156745D01*
X196540093Y-127156745D01*
X196579504Y-127180896D01*
G37*
G04 #@! TD.AperFunction*
M02*
