G04 #@! TF.GenerationSoftware,KiCad,Pcbnew,8.0.6*
G04 #@! TF.CreationDate,2025-05-06T14:40:43+02:00*
G04 #@! TF.ProjectId,capacitance,63617061-6369-4746-916e-63652e6b6963,rev?*
G04 #@! TF.SameCoordinates,Original*
G04 #@! TF.FileFunction,Copper,L2,Inr*
G04 #@! TF.FilePolarity,Positive*
%FSLAX46Y46*%
G04 Gerber Fmt 4.6, Leading zero omitted, Abs format (unit mm)*
G04 Created by KiCad (PCBNEW 8.0.6) date 2025-05-06 14:40:43*
%MOMM*%
%LPD*%
G01*
G04 APERTURE LIST*
G04 Aperture macros list*
%AMHorizOval*
0 Thick line with rounded ends*
0 $1 width*
0 $2 $3 position (X,Y) of the first rounded end (center of the circle)*
0 $4 $5 position (X,Y) of the second rounded end (center of the circle)*
0 Add line between two ends*
20,1,$1,$2,$3,$4,$5,0*
0 Add two circle primitives to create the rounded ends*
1,1,$1,$2,$3*
1,1,$1,$4,$5*%
%AMRotRect*
0 Rectangle, with rotation*
0 The origin of the aperture is its center*
0 $1 length*
0 $2 width*
0 $3 Rotation angle, in degrees counterclockwise*
0 Add horizontal line*
21,1,$1,$2,0,0,$3*%
G04 Aperture macros list end*
%ADD10C,0.187500*%
G04 #@! TA.AperFunction,NonConductor*
%ADD11C,0.187500*%
G04 #@! TD*
G04 #@! TA.AperFunction,ComponentPad*
%ADD12R,1.700000X1.700000*%
G04 #@! TD*
G04 #@! TA.AperFunction,ComponentPad*
%ADD13O,1.700000X1.700000*%
G04 #@! TD*
G04 #@! TA.AperFunction,ComponentPad*
%ADD14RotRect,1.700000X1.700000X300.000000*%
G04 #@! TD*
G04 #@! TA.AperFunction,ComponentPad*
%ADD15HorizOval,1.700000X0.000000X0.000000X0.000000X0.000000X0*%
G04 #@! TD*
G04 #@! TA.AperFunction,ComponentPad*
%ADD16O,1.800000X1.000000*%
G04 #@! TD*
G04 #@! TA.AperFunction,ComponentPad*
%ADD17O,2.200000X1.000000*%
G04 #@! TD*
G04 #@! TA.AperFunction,ViaPad*
%ADD18C,0.700000*%
G04 #@! TD*
G04 #@! TA.AperFunction,ViaPad*
%ADD19C,0.800000*%
G04 #@! TD*
G04 #@! TA.AperFunction,ViaPad*
%ADD20C,0.450000*%
G04 #@! TD*
G04 #@! TA.AperFunction,ViaPad*
%ADD21C,0.500000*%
G04 #@! TD*
G04 APERTURE END LIST*
D10*
D11*
X129189496Y-125751793D02*
X129287069Y-125725648D01*
X129287069Y-125725648D02*
X129446501Y-125735218D01*
X129446501Y-125735218D02*
X129755796Y-125913789D01*
X129755796Y-125913789D02*
X129843800Y-126047077D01*
X129843800Y-126047077D02*
X129869945Y-126144650D01*
X129869945Y-126144650D02*
X129860375Y-126304082D01*
X129860375Y-126304082D02*
X129788946Y-126427800D01*
X129788946Y-126427800D02*
X129619945Y-126577663D01*
X129619945Y-126577663D02*
X128449066Y-126891399D01*
X128449066Y-126891399D02*
X129253232Y-127355684D01*
D12*
X156892499Y-111959990D03*
D13*
X159432497Y-111959976D03*
D14*
X155609114Y-84730000D03*
D15*
X153409409Y-86000000D03*
X151209705Y-87270000D03*
X149010000Y-88540000D03*
X146810296Y-89810000D03*
D12*
X151650022Y-99929998D03*
D13*
X151650000Y-97390000D03*
D16*
X165840000Y-109240000D03*
D17*
X169840000Y-109240000D03*
D16*
X165840000Y-100600000D03*
D17*
X169840000Y-100600000D03*
D18*
X146460000Y-104960000D03*
D19*
X152120000Y-128190000D03*
D18*
X139180000Y-117480000D03*
X136540000Y-104250000D03*
X135450000Y-104280000D03*
D19*
X156105659Y-125275311D03*
D18*
X137230000Y-82890000D03*
X136520000Y-103370000D03*
X138080000Y-118740000D03*
D19*
X146310000Y-114860000D03*
D18*
X138230000Y-117490000D03*
X130870000Y-82860000D03*
D19*
X146300000Y-116310000D03*
D20*
X126300039Y-114052667D03*
D18*
X137290000Y-117480000D03*
X135450000Y-105210000D03*
D19*
X151030000Y-104524999D03*
D18*
X149307500Y-98740000D03*
X136080000Y-118770000D03*
X121100000Y-100175000D03*
X149010000Y-105850000D03*
X136590000Y-105210000D03*
X135440000Y-103370000D03*
X137100000Y-118750000D03*
D20*
X160193112Y-96396091D03*
D19*
X152150000Y-121720000D03*
D20*
X127610428Y-95500686D03*
D18*
X143225000Y-113895000D03*
D20*
X144010001Y-86280000D03*
X142630000Y-124720000D03*
X159424599Y-115331786D03*
D18*
X167750000Y-109420000D03*
X166920000Y-106270000D03*
X167800000Y-99830000D03*
X166810000Y-103510000D03*
X145690000Y-102600000D03*
X144840000Y-107550000D03*
D19*
X140660000Y-112600000D03*
X149835000Y-124055000D03*
X149940000Y-125640000D03*
X139170000Y-110060000D03*
D18*
X134610000Y-88910000D03*
X139610000Y-100620000D03*
D20*
X130280000Y-113020000D03*
D18*
X145450000Y-106160000D03*
D20*
X132685000Y-107475000D03*
D21*
X134620000Y-129540000D03*
X135636000Y-89408000D03*
D20*
X126446617Y-108440000D03*
X133870000Y-105420000D03*
D18*
X122601938Y-93955109D03*
X149370001Y-97139999D03*
D20*
X128510000Y-103090000D03*
D21*
X129540000Y-124460000D03*
X149775000Y-122775000D03*
D20*
X131220000Y-107475000D03*
X129150000Y-107475000D03*
D21*
X134620000Y-93980000D03*
D20*
X131850000Y-100420000D03*
D18*
X146140001Y-85010000D03*
D21*
X162560000Y-91440000D03*
X137668000Y-91440000D03*
X162560000Y-111760000D03*
X134620000Y-124968000D03*
X147320000Y-81280000D03*
X124460000Y-99568000D03*
X124460000Y-104140000D03*
D20*
X128370000Y-107475000D03*
D18*
X150000000Y-116320001D03*
D21*
X137160000Y-96520000D03*
D18*
X149020000Y-102120000D03*
X169314994Y-111835006D03*
X142730001Y-81540000D03*
X117004999Y-109350000D03*
D21*
X129032000Y-83820000D03*
D18*
X127628027Y-94222867D03*
D21*
X159500000Y-84075000D03*
X155448000Y-119380000D03*
X161268004Y-114821428D03*
D20*
X133860000Y-106110000D03*
D21*
X132080000Y-81280000D03*
D20*
X132020000Y-112500000D03*
D21*
X134620000Y-78740000D03*
D20*
X130930000Y-113030000D03*
D21*
X139700000Y-129540000D03*
X132080000Y-91440000D03*
X138684000Y-100076000D03*
D20*
X128510000Y-102240000D03*
X128545000Y-100435000D03*
D21*
X170688000Y-104648000D03*
D18*
X145670000Y-117700000D03*
D21*
X121920000Y-96520000D03*
D20*
X132000000Y-107475000D03*
D21*
X139700000Y-88900000D03*
D18*
X140573346Y-125281704D03*
D21*
X154940000Y-129540000D03*
D20*
X128510000Y-103830000D03*
D18*
X116375000Y-101050000D03*
D20*
X126520000Y-111900000D03*
X133860000Y-101450000D03*
D21*
X143764000Y-108204000D03*
D18*
X166780000Y-101760000D03*
X158720298Y-116214157D03*
D21*
X168950000Y-99425000D03*
X132080000Y-121920000D03*
X124460000Y-124460000D03*
X127000000Y-86360000D03*
D18*
X150050000Y-117830000D03*
D21*
X157480000Y-127000000D03*
X157480000Y-96520000D03*
X116840000Y-111760000D03*
D20*
X129890000Y-107475000D03*
D21*
X157480000Y-91440000D03*
D18*
X163444570Y-93099618D03*
D20*
X126446617Y-107220585D03*
D19*
X160996639Y-97353147D03*
D20*
X133645000Y-100815000D03*
D21*
X116840000Y-96520000D03*
D20*
X133860000Y-102810000D03*
D21*
X157480000Y-116840000D03*
D20*
X128510000Y-101310000D03*
D18*
X137090000Y-99550000D03*
D20*
X126446617Y-111176617D03*
D18*
X145755000Y-121840000D03*
D20*
X133761944Y-110238056D03*
X126446617Y-105840000D03*
X133045000Y-111475000D03*
D21*
X125880000Y-115930000D03*
X151892000Y-131572000D03*
X167325000Y-104925000D03*
X149860000Y-78740000D03*
D20*
X132520000Y-100420000D03*
D21*
X155956000Y-88900000D03*
X129540000Y-88900000D03*
D18*
X152950000Y-102410000D03*
D20*
X126446617Y-110490000D03*
X133575000Y-110945000D03*
D21*
X147320000Y-91440000D03*
X148336000Y-121920000D03*
X129540000Y-93980000D03*
X124460000Y-88900000D03*
D20*
X127744997Y-107475000D03*
D21*
X150050000Y-126925000D03*
X130048000Y-129540000D03*
D20*
X126446617Y-106465003D03*
D21*
X137160000Y-81280000D03*
D18*
X138100000Y-114180000D03*
D21*
X149860000Y-83820000D03*
X155448000Y-114808000D03*
D18*
X163890000Y-116520000D03*
D21*
X155440000Y-103875005D03*
X160020000Y-99060000D03*
X121920000Y-106680000D03*
D18*
X134480000Y-115240000D03*
D20*
X127650000Y-113030000D03*
D21*
X123900000Y-86075000D03*
D20*
X128500000Y-105070000D03*
D21*
X162950000Y-105300000D03*
X147320000Y-127000000D03*
X151175000Y-91675000D03*
D18*
X143900000Y-117510000D03*
D20*
X133860000Y-102140000D03*
D18*
X155337494Y-107590000D03*
D21*
X157480000Y-121920000D03*
D18*
X166790000Y-108100000D03*
X137360000Y-86920000D03*
D21*
X167640000Y-113792000D03*
X140208000Y-110744000D03*
X137160000Y-127000000D03*
X142642437Y-84962436D03*
D18*
X130700000Y-85020000D03*
D21*
X121920000Y-121920000D03*
X162560000Y-86360000D03*
D20*
X128340000Y-113050000D03*
D21*
X149860000Y-129540000D03*
X121920000Y-101600000D03*
X157480000Y-81280000D03*
D19*
X156683965Y-124459488D03*
D20*
X129020000Y-113050000D03*
D18*
X154410000Y-99060000D03*
D21*
X156980002Y-103930002D03*
X119380000Y-114300000D03*
D20*
X129630000Y-113040000D03*
D18*
X150070000Y-114810000D03*
D20*
X126446617Y-107845588D03*
X133180000Y-100420000D03*
D21*
X147320000Y-86360000D03*
X147320000Y-132080000D03*
D18*
X137670000Y-105780000D03*
D21*
X147828000Y-100584000D03*
D18*
X134480000Y-118960000D03*
X138079998Y-120240001D03*
D20*
X130130000Y-100420000D03*
D18*
X156470000Y-107267494D03*
D21*
X166525000Y-110375000D03*
D20*
X127920000Y-105070000D03*
X127050000Y-107475000D03*
D21*
X160059998Y-103930002D03*
X157480000Y-86360000D03*
X144780000Y-93980000D03*
D20*
X127120000Y-112500000D03*
D18*
X137580000Y-111550000D03*
X137290000Y-85040000D03*
D20*
X129340000Y-100420000D03*
D18*
X124320000Y-112770000D03*
D20*
X131030000Y-100420000D03*
D21*
X129540000Y-119380000D03*
D20*
X131570000Y-112990000D03*
D21*
X137160000Y-132080000D03*
D20*
X127220000Y-105070000D03*
D21*
X127000000Y-121920000D03*
X146304000Y-101600000D03*
D20*
X130550000Y-107475000D03*
D21*
X144270249Y-125778597D03*
X132080000Y-96520000D03*
X141525000Y-107525000D03*
D18*
X166270000Y-97480000D03*
D20*
X133890000Y-104810000D03*
D18*
X135560000Y-99560000D03*
X152160000Y-117780001D03*
X143858346Y-128856702D03*
D21*
X153125000Y-89550000D03*
X162560000Y-121920000D03*
X160020000Y-124460000D03*
X167640000Y-96520000D03*
D20*
X126446617Y-109720000D03*
D18*
X147530000Y-102120000D03*
D21*
X157480000Y-101092000D03*
D20*
X133880000Y-103550000D03*
D18*
X123156742Y-117289722D03*
D20*
X133870000Y-104160000D03*
D21*
X125353784Y-95817913D03*
X149860000Y-119888000D03*
D20*
X126446617Y-109066617D03*
D21*
X152400000Y-81280000D03*
D20*
X126446617Y-105110000D03*
D21*
X141732000Y-112268000D03*
X127000000Y-101600000D03*
X154432000Y-92456000D03*
X139700000Y-93980000D03*
D20*
X128510000Y-104490000D03*
D21*
X137160000Y-121920000D03*
D20*
X133761944Y-109388056D03*
D21*
X160020000Y-88900000D03*
D18*
X150300000Y-106590000D03*
X132160000Y-108810000D03*
D21*
X160531544Y-94410271D03*
D20*
X132535000Y-111985000D03*
G04 #@! TA.AperFunction,Conductor*
G36*
X144040788Y-76043162D02*
G01*
X145114299Y-76082857D01*
X145117886Y-76083056D01*
X146189277Y-76162398D01*
X146192875Y-76162731D01*
X147260565Y-76281604D01*
X147264132Y-76282068D01*
X148326725Y-76440316D01*
X148330268Y-76440911D01*
X149337120Y-76629124D01*
X149386221Y-76638303D01*
X149389807Y-76639041D01*
X150437783Y-76875326D01*
X150441321Y-76876194D01*
X151367795Y-77121386D01*
X151479788Y-77151025D01*
X151483302Y-77152024D01*
X152510968Y-77465060D01*
X152514429Y-77466185D01*
X153529788Y-77816967D01*
X153533178Y-77818208D01*
X154246693Y-78094625D01*
X154534922Y-78206286D01*
X154538309Y-78207671D01*
X155524986Y-78632481D01*
X155528313Y-78633987D01*
X156498599Y-79094957D01*
X156501874Y-79096587D01*
X157454500Y-79593115D01*
X157457713Y-79594866D01*
X157952180Y-79876299D01*
X158391345Y-80126256D01*
X158394470Y-80128113D01*
X159307825Y-80693639D01*
X159310844Y-80695586D01*
X159871627Y-81072166D01*
X160202679Y-81294476D01*
X160205678Y-81296571D01*
X161074775Y-81928006D01*
X161077686Y-81930204D01*
X161922888Y-82593348D01*
X161925677Y-82595621D01*
X162745750Y-83289503D01*
X162748489Y-83291909D01*
X163021182Y-83540500D01*
X163542387Y-84015641D01*
X163545045Y-84018156D01*
X164311631Y-84770705D01*
X164314194Y-84773316D01*
X165052437Y-85553666D01*
X165054902Y-85556369D01*
X165763846Y-86363509D01*
X165766209Y-86366303D01*
X166444792Y-87199027D01*
X166447051Y-87201905D01*
X167094445Y-88059193D01*
X167096595Y-88062153D01*
X167385372Y-88475471D01*
X167688967Y-88909998D01*
X167711846Y-88942743D01*
X167713878Y-88945770D01*
X167952028Y-89314972D01*
X168296183Y-89848516D01*
X168298109Y-89851627D01*
X168846639Y-90775242D01*
X168848449Y-90778421D01*
X169362497Y-91721711D01*
X169364188Y-91724956D01*
X169843017Y-92686573D01*
X169844587Y-92689878D01*
X170287550Y-93668525D01*
X170288997Y-93671885D01*
X170695504Y-94666245D01*
X170696826Y-94669657D01*
X171066308Y-95678353D01*
X171067503Y-95681811D01*
X171399466Y-96703487D01*
X171400532Y-96706987D01*
X171694511Y-97740217D01*
X171695447Y-97743754D01*
X171951047Y-98787140D01*
X171951852Y-98790710D01*
X172168723Y-99842839D01*
X172169395Y-99846435D01*
X172347238Y-100905846D01*
X172347777Y-100909465D01*
X172486353Y-101974726D01*
X172486758Y-101978362D01*
X172585878Y-103048032D01*
X172586148Y-103051681D01*
X172645673Y-104124270D01*
X172645808Y-104127927D01*
X172665659Y-105201979D01*
X172665659Y-105205637D01*
X172645808Y-106279688D01*
X172645673Y-106283345D01*
X172586148Y-107355934D01*
X172585878Y-107359583D01*
X172486758Y-108429253D01*
X172486353Y-108432889D01*
X172347777Y-109498150D01*
X172347238Y-109501769D01*
X172169395Y-110561180D01*
X172168723Y-110564776D01*
X171951852Y-111616905D01*
X171951047Y-111620475D01*
X171695447Y-112663861D01*
X171694511Y-112667398D01*
X171400532Y-113700628D01*
X171399466Y-113704128D01*
X171067503Y-114725804D01*
X171066308Y-114729262D01*
X170696826Y-115737958D01*
X170695504Y-115741370D01*
X170288997Y-116735730D01*
X170287550Y-116739090D01*
X169844587Y-117717737D01*
X169843017Y-117721042D01*
X169364188Y-118682659D01*
X169362497Y-118685904D01*
X168848449Y-119629194D01*
X168846639Y-119632373D01*
X168298109Y-120555988D01*
X168296183Y-120559099D01*
X167713886Y-121461834D01*
X167711846Y-121464872D01*
X167096595Y-122345462D01*
X167094445Y-122348422D01*
X166447051Y-123205710D01*
X166444792Y-123208588D01*
X165766209Y-124041312D01*
X165763846Y-124044106D01*
X165054902Y-124851246D01*
X165052437Y-124853949D01*
X164314194Y-125634299D01*
X164311631Y-125636910D01*
X163545045Y-126389459D01*
X163542387Y-126391974D01*
X162748499Y-127115698D01*
X162745750Y-127118112D01*
X161925701Y-127811974D01*
X161922865Y-127814286D01*
X161077695Y-128477404D01*
X161074775Y-128479609D01*
X160205678Y-129111044D01*
X160202679Y-129113139D01*
X159310884Y-129712003D01*
X159307809Y-129713986D01*
X158394480Y-130279496D01*
X158391334Y-130281365D01*
X157457713Y-130812749D01*
X157454500Y-130814500D01*
X156501874Y-131311028D01*
X156498599Y-131312658D01*
X155528319Y-131773625D01*
X155524986Y-131775134D01*
X154538309Y-132199944D01*
X154534922Y-132201329D01*
X153533201Y-132589398D01*
X153529765Y-132590656D01*
X152514438Y-132941427D01*
X152510959Y-132942558D01*
X151483308Y-133255589D01*
X151479788Y-133256590D01*
X150441329Y-133531419D01*
X150437776Y-133532290D01*
X149389805Y-133768574D01*
X149386221Y-133769312D01*
X148330300Y-133966698D01*
X148326692Y-133967304D01*
X147264162Y-134125543D01*
X147260534Y-134126015D01*
X146192898Y-134244881D01*
X146189254Y-134245219D01*
X145117918Y-134324557D01*
X145114265Y-134324759D01*
X144040789Y-134364453D01*
X144037131Y-134364521D01*
X142962869Y-134364521D01*
X142959211Y-134364453D01*
X141885734Y-134324759D01*
X141882081Y-134324557D01*
X140810745Y-134245219D01*
X140807101Y-134244881D01*
X139739465Y-134126015D01*
X139735837Y-134125543D01*
X138673307Y-133967304D01*
X138669699Y-133966698D01*
X137613778Y-133769312D01*
X137610194Y-133768574D01*
X136562223Y-133532290D01*
X136558670Y-133531419D01*
X135520211Y-133256590D01*
X135516691Y-133255589D01*
X134489040Y-132942558D01*
X134485561Y-132941427D01*
X133470234Y-132590656D01*
X133466798Y-132589398D01*
X132465077Y-132201329D01*
X132461690Y-132199944D01*
X131475013Y-131775134D01*
X131471680Y-131773625D01*
X130501400Y-131312658D01*
X130498125Y-131311028D01*
X129545499Y-130814500D01*
X129542286Y-130812749D01*
X128608665Y-130281365D01*
X128605519Y-130279496D01*
X127692190Y-129713986D01*
X127689142Y-129712020D01*
X126797320Y-129113139D01*
X126794321Y-129111044D01*
X125925224Y-128479609D01*
X125922304Y-128477404D01*
X125555998Y-128190001D01*
X125555997Y-128190000D01*
X151414355Y-128190000D01*
X151434860Y-128358872D01*
X151495182Y-128517930D01*
X151591817Y-128657929D01*
X151719148Y-128770734D01*
X151869775Y-128849790D01*
X152034944Y-128890500D01*
X152034947Y-128890500D01*
X152205053Y-128890500D01*
X152205056Y-128890500D01*
X152370225Y-128849790D01*
X152520852Y-128770734D01*
X152648183Y-128657929D01*
X152744818Y-128517930D01*
X152805140Y-128358872D01*
X152825645Y-128190000D01*
X152805140Y-128021128D01*
X152744818Y-127862070D01*
X152648183Y-127722071D01*
X152520852Y-127609266D01*
X152370225Y-127530210D01*
X152370224Y-127530209D01*
X152370223Y-127530209D01*
X152205058Y-127489500D01*
X152205056Y-127489500D01*
X152034944Y-127489500D01*
X152034941Y-127489500D01*
X151869776Y-127530209D01*
X151719146Y-127609267D01*
X151591818Y-127722069D01*
X151591817Y-127722071D01*
X151495182Y-127862070D01*
X151434860Y-128021128D01*
X151414355Y-128190000D01*
X125555997Y-128190000D01*
X125077117Y-127814272D01*
X125074316Y-127811989D01*
X124254242Y-127118106D01*
X124251500Y-127115698D01*
X124165758Y-127037534D01*
X127903680Y-127037534D01*
X127903680Y-127037535D01*
X129400298Y-127901608D01*
X130550085Y-125910118D01*
X129053467Y-125046045D01*
X127903680Y-127037534D01*
X124165758Y-127037534D01*
X123457612Y-126391974D01*
X123454954Y-126389459D01*
X122688368Y-125636910D01*
X122685805Y-125634299D01*
X121947562Y-124853949D01*
X121945097Y-124851246D01*
X121829817Y-124719999D01*
X142099965Y-124719999D01*
X142118026Y-124857183D01*
X142155386Y-124947381D01*
X142170976Y-124985018D01*
X142255209Y-125094791D01*
X142364982Y-125179024D01*
X142492817Y-125231974D01*
X142630000Y-125250035D01*
X142767183Y-125231974D01*
X142895018Y-125179024D01*
X143004791Y-125094791D01*
X143089024Y-124985018D01*
X143141974Y-124857183D01*
X143160035Y-124720000D01*
X143141974Y-124582817D01*
X143089024Y-124454983D01*
X143004791Y-124345209D01*
X143004789Y-124345208D01*
X143004789Y-124345207D01*
X142895018Y-124260976D01*
X142895014Y-124260974D01*
X142767183Y-124208026D01*
X142767175Y-124208025D01*
X142630000Y-124189965D01*
X142629999Y-124189965D01*
X142492816Y-124208025D01*
X142492816Y-124208026D01*
X142364986Y-124260974D01*
X142364982Y-124260976D01*
X142255211Y-124345207D01*
X142255207Y-124345211D01*
X142170976Y-124454982D01*
X142170974Y-124454986D01*
X142118026Y-124582816D01*
X142118025Y-124582816D01*
X142099965Y-124719999D01*
X121829817Y-124719999D01*
X121245722Y-124055000D01*
X149129355Y-124055000D01*
X149149860Y-124223872D01*
X149210182Y-124382930D01*
X149306817Y-124522929D01*
X149434148Y-124635734D01*
X149584775Y-124714790D01*
X149749944Y-124755500D01*
X149749947Y-124755500D01*
X149786123Y-124755500D01*
X149844314Y-124774407D01*
X149880278Y-124823907D01*
X149880278Y-124885093D01*
X149844314Y-124934593D01*
X149809815Y-124950623D01*
X149689776Y-124980209D01*
X149539146Y-125059267D01*
X149411818Y-125172069D01*
X149411816Y-125172072D01*
X149315182Y-125312070D01*
X149254860Y-125471129D01*
X149238819Y-125603240D01*
X149234355Y-125640000D01*
X149254860Y-125808872D01*
X149315182Y-125967930D01*
X149411817Y-126107929D01*
X149539148Y-126220734D01*
X149689775Y-126299790D01*
X149854944Y-126340500D01*
X149854947Y-126340500D01*
X150025053Y-126340500D01*
X150025056Y-126340500D01*
X150190225Y-126299790D01*
X150340852Y-126220734D01*
X150468183Y-126107929D01*
X150564818Y-125967930D01*
X150625140Y-125808872D01*
X150645645Y-125640000D01*
X150625140Y-125471128D01*
X150564818Y-125312070D01*
X150539445Y-125275311D01*
X155400014Y-125275311D01*
X155420519Y-125444183D01*
X155480841Y-125603241D01*
X155577476Y-125743240D01*
X155704807Y-125856045D01*
X155855434Y-125935101D01*
X156020603Y-125975811D01*
X156020606Y-125975811D01*
X156190712Y-125975811D01*
X156190715Y-125975811D01*
X156355884Y-125935101D01*
X156506511Y-125856045D01*
X156633842Y-125743240D01*
X156730477Y-125603241D01*
X156790799Y-125444183D01*
X156811304Y-125275311D01*
X156790799Y-125106439D01*
X156730477Y-124947381D01*
X156633842Y-124807382D01*
X156506511Y-124694577D01*
X156355884Y-124615521D01*
X156355883Y-124615520D01*
X156355882Y-124615520D01*
X156190717Y-124574811D01*
X156190715Y-124574811D01*
X156020603Y-124574811D01*
X156020600Y-124574811D01*
X155855435Y-124615520D01*
X155704805Y-124694578D01*
X155577477Y-124807380D01*
X155577475Y-124807383D01*
X155489668Y-124934593D01*
X155480841Y-124947381D01*
X155420519Y-125106439D01*
X155400014Y-125275311D01*
X150539445Y-125275311D01*
X150468183Y-125172071D01*
X150340852Y-125059266D01*
X150190225Y-124980210D01*
X150190224Y-124980209D01*
X150190223Y-124980209D01*
X150025058Y-124939500D01*
X150025056Y-124939500D01*
X149988877Y-124939500D01*
X149930686Y-124920593D01*
X149894722Y-124871093D01*
X149894722Y-124809907D01*
X149930686Y-124760407D01*
X149965185Y-124744377D01*
X149994914Y-124737049D01*
X150085225Y-124714790D01*
X150235852Y-124635734D01*
X150363183Y-124522929D01*
X150459818Y-124382930D01*
X150520140Y-124223872D01*
X150540645Y-124055000D01*
X150520140Y-123886128D01*
X150459818Y-123727070D01*
X150363183Y-123587071D01*
X150235852Y-123474266D01*
X150085225Y-123395210D01*
X150085224Y-123395209D01*
X150085223Y-123395209D01*
X149920058Y-123354500D01*
X149920056Y-123354500D01*
X149749944Y-123354500D01*
X149749941Y-123354500D01*
X149584776Y-123395209D01*
X149434146Y-123474267D01*
X149306818Y-123587069D01*
X149306816Y-123587072D01*
X149210182Y-123727070D01*
X149149860Y-123886129D01*
X149130843Y-124042748D01*
X149129355Y-124055000D01*
X121245722Y-124055000D01*
X121236153Y-124044106D01*
X121233790Y-124041312D01*
X120555207Y-123208588D01*
X120552948Y-123205710D01*
X119905554Y-122348422D01*
X119903404Y-122345462D01*
X119872152Y-122300732D01*
X119466406Y-121720000D01*
X151444355Y-121720000D01*
X151464860Y-121888872D01*
X151525182Y-122047930D01*
X151621817Y-122187929D01*
X151749148Y-122300734D01*
X151899775Y-122379790D01*
X152064944Y-122420500D01*
X152064947Y-122420500D01*
X152235053Y-122420500D01*
X152235056Y-122420500D01*
X152400225Y-122379790D01*
X152550852Y-122300734D01*
X152678183Y-122187929D01*
X152774818Y-122047930D01*
X152835140Y-121888872D01*
X152855645Y-121720000D01*
X152835140Y-121551128D01*
X152774818Y-121392070D01*
X152678183Y-121252071D01*
X152550852Y-121139266D01*
X152400225Y-121060210D01*
X152400224Y-121060209D01*
X152400223Y-121060209D01*
X152235058Y-121019500D01*
X152235056Y-121019500D01*
X152064944Y-121019500D01*
X152064941Y-121019500D01*
X151899776Y-121060209D01*
X151749146Y-121139267D01*
X151621818Y-121252069D01*
X151621817Y-121252071D01*
X151525182Y-121392070D01*
X151464860Y-121551128D01*
X151444355Y-121720000D01*
X119466406Y-121720000D01*
X119288137Y-121464849D01*
X119286129Y-121461858D01*
X118703811Y-120559091D01*
X118701890Y-120555988D01*
X118153360Y-119632373D01*
X118151550Y-119629194D01*
X118037822Y-119420500D01*
X117683329Y-118769998D01*
X135424722Y-118769998D01*
X135424722Y-118770001D01*
X135443762Y-118926816D01*
X135443763Y-118926817D01*
X135499780Y-119074523D01*
X135589515Y-119204528D01*
X135589516Y-119204529D01*
X135589517Y-119204530D01*
X135707760Y-119309283D01*
X135847635Y-119382696D01*
X136001015Y-119420500D01*
X136001018Y-119420500D01*
X136158982Y-119420500D01*
X136158985Y-119420500D01*
X136312365Y-119382696D01*
X136452240Y-119309283D01*
X136535639Y-119235399D01*
X136591734Y-119210964D01*
X136651477Y-119224167D01*
X136666936Y-119235398D01*
X136727760Y-119289283D01*
X136867635Y-119362696D01*
X137021015Y-119400500D01*
X137021018Y-119400500D01*
X137178982Y-119400500D01*
X137178985Y-119400500D01*
X137332365Y-119362696D01*
X137472240Y-119289283D01*
X137529994Y-119238117D01*
X137586087Y-119213682D01*
X137645831Y-119226885D01*
X137661292Y-119238117D01*
X137695138Y-119268101D01*
X137707760Y-119279283D01*
X137847635Y-119352696D01*
X138001015Y-119390500D01*
X138001018Y-119390500D01*
X138158982Y-119390500D01*
X138158985Y-119390500D01*
X138312365Y-119352696D01*
X138452240Y-119279283D01*
X138570483Y-119174530D01*
X138660220Y-119044523D01*
X138716237Y-118896818D01*
X138735278Y-118740000D01*
X138728515Y-118684305D01*
X138716237Y-118583183D01*
X138716237Y-118583182D01*
X138660220Y-118435477D01*
X138591191Y-118335471D01*
X138570484Y-118305471D01*
X138546926Y-118284601D01*
X138493882Y-118237608D01*
X138462863Y-118184868D01*
X138468768Y-118123968D01*
X138509342Y-118078170D01*
X138513495Y-118075860D01*
X138602240Y-118029283D01*
X138644995Y-117991405D01*
X138701087Y-117966970D01*
X138760831Y-117980173D01*
X138776291Y-117991405D01*
X138807755Y-118019279D01*
X138807760Y-118019283D01*
X138947635Y-118092696D01*
X139101015Y-118130500D01*
X139101018Y-118130500D01*
X139258982Y-118130500D01*
X139258985Y-118130500D01*
X139412365Y-118092696D01*
X139552240Y-118019283D01*
X139670483Y-117914530D01*
X139760220Y-117784523D01*
X139816237Y-117636818D01*
X139835278Y-117480000D01*
X139816237Y-117323182D01*
X139760220Y-117175477D01*
X139670483Y-117045470D01*
X139552240Y-116940717D01*
X139457003Y-116890732D01*
X139412364Y-116867303D01*
X139258987Y-116829500D01*
X139258985Y-116829500D01*
X139101015Y-116829500D01*
X139101012Y-116829500D01*
X138947635Y-116867303D01*
X138807761Y-116940716D01*
X138807760Y-116940717D01*
X138765004Y-116978595D01*
X138708909Y-117003029D01*
X138649166Y-116989825D01*
X138633708Y-116978595D01*
X138602240Y-116950717D01*
X138583185Y-116940716D01*
X138462364Y-116877303D01*
X138308987Y-116839500D01*
X138308985Y-116839500D01*
X138151015Y-116839500D01*
X138151012Y-116839500D01*
X137997635Y-116877303D01*
X137857761Y-116950716D01*
X137857755Y-116950720D01*
X137831289Y-116974166D01*
X137775194Y-116998599D01*
X137715451Y-116985394D01*
X137699994Y-116974163D01*
X137662244Y-116940719D01*
X137522364Y-116867303D01*
X137368987Y-116829500D01*
X137368985Y-116829500D01*
X137211015Y-116829500D01*
X137211012Y-116829500D01*
X137057635Y-116867303D01*
X136917758Y-116940718D01*
X136799515Y-117045471D01*
X136709780Y-117175476D01*
X136653763Y-117323182D01*
X136653762Y-117323183D01*
X136634722Y-117479998D01*
X136634722Y-117480001D01*
X136653762Y-117636816D01*
X136653763Y-117636818D01*
X136685085Y-117719408D01*
X136709780Y-117784523D01*
X136799515Y-117914528D01*
X136799516Y-117914529D01*
X136799517Y-117914530D01*
X136873613Y-117980173D01*
X136875413Y-117981767D01*
X136906432Y-118034507D01*
X136900527Y-118095407D01*
X136859953Y-118141205D01*
X136855772Y-118143530D01*
X136727758Y-118210718D01*
X136644361Y-118284601D01*
X136588266Y-118309036D01*
X136528523Y-118295833D01*
X136513063Y-118284601D01*
X136452241Y-118230718D01*
X136452240Y-118230717D01*
X136364883Y-118184868D01*
X136312364Y-118157303D01*
X136158987Y-118119500D01*
X136158985Y-118119500D01*
X136001015Y-118119500D01*
X136001012Y-118119500D01*
X135847635Y-118157303D01*
X135707758Y-118230718D01*
X135589515Y-118335471D01*
X135499780Y-118465476D01*
X135443763Y-118613182D01*
X135443762Y-118613183D01*
X135424722Y-118769998D01*
X117683329Y-118769998D01*
X117637493Y-118685888D01*
X117635811Y-118682659D01*
X117586278Y-118583183D01*
X117156968Y-117721014D01*
X117155425Y-117717766D01*
X116803711Y-116940717D01*
X116712449Y-116739090D01*
X116711002Y-116735730D01*
X116536958Y-116310000D01*
X145594355Y-116310000D01*
X145614860Y-116478872D01*
X145675182Y-116637930D01*
X145771817Y-116777929D01*
X145899148Y-116890734D01*
X146049775Y-116969790D01*
X146214944Y-117010500D01*
X146214947Y-117010500D01*
X146385053Y-117010500D01*
X146385056Y-117010500D01*
X146550225Y-116969790D01*
X146700852Y-116890734D01*
X146828183Y-116777929D01*
X146924818Y-116637930D01*
X146985140Y-116478872D01*
X147005645Y-116310000D01*
X146985140Y-116141128D01*
X146924818Y-115982070D01*
X146828183Y-115842071D01*
X146700852Y-115729266D01*
X146597996Y-115675282D01*
X146555260Y-115631500D01*
X146546419Y-115570956D01*
X146574854Y-115516780D01*
X146597993Y-115499967D01*
X146710852Y-115440734D01*
X146833830Y-115331785D01*
X158894564Y-115331785D01*
X158912625Y-115468969D01*
X158965573Y-115596800D01*
X158965575Y-115596804D01*
X159025795Y-115675284D01*
X159049808Y-115706577D01*
X159159581Y-115790810D01*
X159287416Y-115843760D01*
X159424599Y-115861821D01*
X159561782Y-115843760D01*
X159689617Y-115790810D01*
X159799390Y-115706577D01*
X159883623Y-115596804D01*
X159936573Y-115468969D01*
X159954634Y-115331786D01*
X159936573Y-115194603D01*
X159883623Y-115066769D01*
X159799390Y-114956995D01*
X159799388Y-114956994D01*
X159799388Y-114956993D01*
X159689617Y-114872762D01*
X159689613Y-114872760D01*
X159561782Y-114819812D01*
X159561774Y-114819811D01*
X159424599Y-114801751D01*
X159424598Y-114801751D01*
X159287415Y-114819811D01*
X159287415Y-114819812D01*
X159159585Y-114872760D01*
X159159581Y-114872762D01*
X159049810Y-114956993D01*
X159049806Y-114956997D01*
X158965575Y-115066768D01*
X158965573Y-115066772D01*
X158912625Y-115194602D01*
X158912624Y-115194602D01*
X158894564Y-115331785D01*
X146833830Y-115331785D01*
X146838183Y-115327929D01*
X146934818Y-115187930D01*
X146995140Y-115028872D01*
X147015645Y-114860000D01*
X146995140Y-114691128D01*
X146934818Y-114532070D01*
X146838183Y-114392071D01*
X146710852Y-114279266D01*
X146560225Y-114200210D01*
X146560224Y-114200209D01*
X146560223Y-114200209D01*
X146395058Y-114159500D01*
X146395056Y-114159500D01*
X146224944Y-114159500D01*
X146224941Y-114159500D01*
X146059776Y-114200209D01*
X145909146Y-114279267D01*
X145781818Y-114392069D01*
X145781817Y-114392071D01*
X145685182Y-114532070D01*
X145624860Y-114691128D01*
X145604355Y-114860000D01*
X145624860Y-115028872D01*
X145685182Y-115187930D01*
X145781816Y-115327927D01*
X145781818Y-115327930D01*
X145786171Y-115331786D01*
X145909148Y-115440734D01*
X146012003Y-115494717D01*
X146054739Y-115538499D01*
X146063580Y-115599042D01*
X146035146Y-115653219D01*
X146012001Y-115670035D01*
X145899146Y-115729266D01*
X145771818Y-115842069D01*
X145771817Y-115842071D01*
X145675182Y-115982070D01*
X145614860Y-116141128D01*
X145594355Y-116310000D01*
X116536958Y-116310000D01*
X116353737Y-115861821D01*
X116304492Y-115741362D01*
X116303173Y-115737958D01*
X116278293Y-115670035D01*
X115933687Y-114729250D01*
X115932496Y-114725804D01*
X115921229Y-114691129D01*
X115713780Y-114052666D01*
X125770004Y-114052666D01*
X125788065Y-114189850D01*
X125841013Y-114317681D01*
X125841015Y-114317685D01*
X125898092Y-114392069D01*
X125925248Y-114427458D01*
X126035021Y-114511691D01*
X126162856Y-114564641D01*
X126300039Y-114582702D01*
X126437222Y-114564641D01*
X126565057Y-114511691D01*
X126674830Y-114427458D01*
X126759063Y-114317685D01*
X126812013Y-114189850D01*
X126830074Y-114052667D01*
X126812013Y-113915484D01*
X126803528Y-113895000D01*
X126803527Y-113894998D01*
X142569722Y-113894998D01*
X142569722Y-113895001D01*
X142588762Y-114051816D01*
X142588763Y-114051817D01*
X142644780Y-114199523D01*
X142734515Y-114329528D01*
X142734516Y-114329529D01*
X142734517Y-114329530D01*
X142852760Y-114434283D01*
X142992635Y-114507696D01*
X143146015Y-114545500D01*
X143146018Y-114545500D01*
X143303982Y-114545500D01*
X143303985Y-114545500D01*
X143457365Y-114507696D01*
X143597240Y-114434283D01*
X143715483Y-114329530D01*
X143805220Y-114199523D01*
X143861237Y-114051818D01*
X143880278Y-113895000D01*
X143861237Y-113738182D01*
X143805220Y-113590477D01*
X143715483Y-113460470D01*
X143597240Y-113355717D01*
X143527302Y-113319010D01*
X143457364Y-113282303D01*
X143303987Y-113244500D01*
X143303985Y-113244500D01*
X143146015Y-113244500D01*
X143146012Y-113244500D01*
X142992635Y-113282303D01*
X142852758Y-113355718D01*
X142734515Y-113460471D01*
X142644780Y-113590476D01*
X142588763Y-113738182D01*
X142588762Y-113738183D01*
X142569722Y-113894998D01*
X126803527Y-113894998D01*
X126759064Y-113787653D01*
X126759063Y-113787650D01*
X126674830Y-113677876D01*
X126674828Y-113677875D01*
X126674828Y-113677874D01*
X126565057Y-113593643D01*
X126565053Y-113593641D01*
X126437222Y-113540693D01*
X126437214Y-113540692D01*
X126300039Y-113522632D01*
X126300038Y-113522632D01*
X126162855Y-113540692D01*
X126162855Y-113540693D01*
X126035025Y-113593641D01*
X126035021Y-113593643D01*
X125925250Y-113677874D01*
X125925246Y-113677878D01*
X125841015Y-113787649D01*
X125841013Y-113787653D01*
X125788065Y-113915483D01*
X125788064Y-113915483D01*
X125770004Y-114052666D01*
X115713780Y-114052666D01*
X115600532Y-113704124D01*
X115599467Y-113700628D01*
X115501332Y-113355718D01*
X115305485Y-112667388D01*
X115304552Y-112663861D01*
X115288908Y-112600000D01*
X139954355Y-112600000D01*
X139974860Y-112768872D01*
X140035182Y-112927930D01*
X140131817Y-113067929D01*
X140259148Y-113180734D01*
X140409775Y-113259790D01*
X140574944Y-113300500D01*
X140574947Y-113300500D01*
X140745053Y-113300500D01*
X140745056Y-113300500D01*
X140910225Y-113259790D01*
X141060852Y-113180734D01*
X141188183Y-113067929D01*
X141284818Y-112927930D01*
X141345140Y-112768872D01*
X141365645Y-112600000D01*
X141345140Y-112431128D01*
X141284818Y-112272070D01*
X141188183Y-112132071D01*
X141060852Y-112019266D01*
X140910225Y-111940210D01*
X140910224Y-111940209D01*
X140910223Y-111940209D01*
X140745058Y-111899500D01*
X140745056Y-111899500D01*
X140574944Y-111899500D01*
X140574941Y-111899500D01*
X140409776Y-111940209D01*
X140259146Y-112019267D01*
X140131818Y-112132069D01*
X140131816Y-112132072D01*
X140035182Y-112272070D01*
X139974860Y-112431128D01*
X139954355Y-112600000D01*
X115288908Y-112600000D01*
X115048942Y-111620433D01*
X115048156Y-111616947D01*
X114934410Y-111065120D01*
X155741999Y-111065120D01*
X155741999Y-112854850D01*
X155742000Y-112854853D01*
X155744913Y-112879980D01*
X155745818Y-112882029D01*
X155790293Y-112982755D01*
X155869734Y-113062196D01*
X155972508Y-113107575D01*
X155997634Y-113110490D01*
X157787363Y-113110489D01*
X157812490Y-113107575D01*
X157915264Y-113062196D01*
X157994705Y-112982755D01*
X158040084Y-112879981D01*
X158042999Y-112854855D01*
X158042998Y-111959976D01*
X158277068Y-111959976D01*
X158296741Y-112172286D01*
X158355092Y-112377365D01*
X158450131Y-112568231D01*
X158578625Y-112738383D01*
X158612070Y-112768872D01*
X158736189Y-112882023D01*
X158736196Y-112882029D01*
X158810327Y-112927929D01*
X158917478Y-112994274D01*
X159116299Y-113071297D01*
X159325887Y-113110476D01*
X159539107Y-113110476D01*
X159748695Y-113071297D01*
X159947516Y-112994274D01*
X160128799Y-112882028D01*
X160286369Y-112738383D01*
X160414863Y-112568231D01*
X160509902Y-112377365D01*
X160568253Y-112172286D01*
X160587926Y-111959976D01*
X160568253Y-111747666D01*
X160509902Y-111542587D01*
X160414863Y-111351721D01*
X160286369Y-111181569D01*
X160232120Y-111132115D01*
X160128804Y-111037928D01*
X160128797Y-111037922D01*
X159947521Y-110925681D01*
X159947516Y-110925678D01*
X159748692Y-110848654D01*
X159539107Y-110809476D01*
X159325887Y-110809476D01*
X159116301Y-110848654D01*
X158917477Y-110925678D01*
X158917472Y-110925681D01*
X158736196Y-111037922D01*
X158736189Y-111037928D01*
X158578632Y-111181562D01*
X158578628Y-111181565D01*
X158578625Y-111181569D01*
X158578622Y-111181573D01*
X158450132Y-111351719D01*
X158450127Y-111351728D01*
X158355093Y-111542584D01*
X158296741Y-111747664D01*
X158296741Y-111747666D01*
X158277068Y-111959976D01*
X158042998Y-111959976D01*
X158042998Y-111065126D01*
X158040084Y-111039999D01*
X157994705Y-110937225D01*
X157915264Y-110857784D01*
X157812490Y-110812405D01*
X157812489Y-110812404D01*
X157812487Y-110812404D01*
X157787367Y-110809490D01*
X155997638Y-110809490D01*
X155997635Y-110809491D01*
X155972508Y-110812404D01*
X155869734Y-110857784D01*
X155790293Y-110937225D01*
X155744913Y-111040001D01*
X155741999Y-111065120D01*
X114934410Y-111065120D01*
X114831274Y-110564768D01*
X114830604Y-110561180D01*
X114801520Y-110387929D01*
X114746471Y-110060000D01*
X138464355Y-110060000D01*
X138484860Y-110228872D01*
X138545182Y-110387930D01*
X138641817Y-110527929D01*
X138769148Y-110640734D01*
X138919775Y-110719790D01*
X139084944Y-110760500D01*
X139084947Y-110760500D01*
X139255053Y-110760500D01*
X139255056Y-110760500D01*
X139420225Y-110719790D01*
X139570852Y-110640734D01*
X139698183Y-110527929D01*
X139794818Y-110387930D01*
X139855140Y-110228872D01*
X139875645Y-110060000D01*
X139872921Y-110037570D01*
X139871994Y-110029938D01*
X139855140Y-109891128D01*
X139794818Y-109732070D01*
X139698183Y-109592071D01*
X139570852Y-109479266D01*
X139420225Y-109400210D01*
X139420224Y-109400209D01*
X139420223Y-109400209D01*
X139255058Y-109359500D01*
X139255056Y-109359500D01*
X139084944Y-109359500D01*
X139084941Y-109359500D01*
X138919776Y-109400209D01*
X138769146Y-109479267D01*
X138641818Y-109592069D01*
X138641816Y-109592072D01*
X138581582Y-109679336D01*
X138545182Y-109732070D01*
X138498741Y-109854528D01*
X138484860Y-109891129D01*
X138467079Y-110037570D01*
X138464355Y-110060000D01*
X114746471Y-110060000D01*
X114652760Y-109501768D01*
X114652222Y-109498150D01*
X114603577Y-109124204D01*
X114602380Y-109114999D01*
X164547232Y-109114999D01*
X164547233Y-109115000D01*
X165165758Y-109115000D01*
X165160444Y-109124204D01*
X165140000Y-109200504D01*
X165140000Y-109279496D01*
X165160444Y-109355796D01*
X165165758Y-109365000D01*
X164547232Y-109365000D01*
X164574585Y-109502518D01*
X164574586Y-109502521D01*
X164642429Y-109666308D01*
X164740923Y-109813715D01*
X164866284Y-109939076D01*
X165013691Y-110037570D01*
X165177479Y-110105413D01*
X165351355Y-110139999D01*
X165351359Y-110140000D01*
X165714999Y-110140000D01*
X165715000Y-110139999D01*
X165715000Y-109540000D01*
X165965000Y-109540000D01*
X165965000Y-110139999D01*
X165965001Y-110140000D01*
X166328641Y-110140000D01*
X166328644Y-110139999D01*
X166502519Y-110105413D01*
X166502521Y-110105413D01*
X166666308Y-110037570D01*
X166813715Y-109939076D01*
X166939075Y-109813716D01*
X167001950Y-109719618D01*
X167050000Y-109681738D01*
X167111139Y-109679336D01*
X167162012Y-109713329D01*
X167166170Y-109719739D01*
X167166379Y-109719595D01*
X167169779Y-109724521D01*
X167169780Y-109724523D01*
X167209729Y-109782399D01*
X167259515Y-109854528D01*
X167259516Y-109854529D01*
X167259517Y-109854530D01*
X167377760Y-109959283D01*
X167517635Y-110032696D01*
X167671015Y-110070500D01*
X167671018Y-110070500D01*
X167828982Y-110070500D01*
X167828985Y-110070500D01*
X167982365Y-110032696D01*
X168122240Y-109959283D01*
X168240483Y-109854530D01*
X168324195Y-109733250D01*
X168372810Y-109696102D01*
X168433978Y-109694623D01*
X168484333Y-109729380D01*
X168487985Y-109734488D01*
X168540923Y-109813715D01*
X168666284Y-109939076D01*
X168813691Y-110037570D01*
X168977479Y-110105413D01*
X169151355Y-110139999D01*
X169151359Y-110140000D01*
X169714999Y-110140000D01*
X169715000Y-110139999D01*
X169715000Y-109540000D01*
X169965000Y-109540000D01*
X169965000Y-110139999D01*
X169965001Y-110140000D01*
X170528641Y-110140000D01*
X170528644Y-110139999D01*
X170702519Y-110105413D01*
X170702521Y-110105413D01*
X170866308Y-110037570D01*
X171013715Y-109939076D01*
X171139076Y-109813715D01*
X171237570Y-109666308D01*
X171305413Y-109502521D01*
X171305414Y-109502518D01*
X171332768Y-109365000D01*
X170714242Y-109365000D01*
X170719556Y-109355796D01*
X170740000Y-109279496D01*
X170740000Y-109200504D01*
X170719556Y-109124204D01*
X170714242Y-109115000D01*
X171332767Y-109115000D01*
X171332767Y-109114999D01*
X171305414Y-108977481D01*
X171305413Y-108977478D01*
X171237570Y-108813691D01*
X171139076Y-108666284D01*
X171013715Y-108540923D01*
X170866308Y-108442429D01*
X170702520Y-108374586D01*
X170528644Y-108340000D01*
X169965001Y-108340000D01*
X169965000Y-108340001D01*
X169965000Y-108940000D01*
X169715000Y-108940000D01*
X169715000Y-108340001D01*
X169714999Y-108340000D01*
X169151355Y-108340000D01*
X168977480Y-108374586D01*
X168977478Y-108374586D01*
X168813691Y-108442429D01*
X168666284Y-108540923D01*
X168540923Y-108666284D01*
X168442430Y-108813689D01*
X168389316Y-108941918D01*
X168349579Y-108988443D01*
X168290084Y-109002727D01*
X168233557Y-108979312D01*
X168232203Y-108978135D01*
X168231461Y-108977478D01*
X168122240Y-108880717D01*
X168052302Y-108844010D01*
X167982364Y-108807303D01*
X167828987Y-108769500D01*
X167828985Y-108769500D01*
X167671015Y-108769500D01*
X167671012Y-108769500D01*
X167517635Y-108807303D01*
X167377758Y-108880718D01*
X167255035Y-108989441D01*
X167253559Y-108987775D01*
X167208975Y-109013978D01*
X167148077Y-109008052D01*
X167102292Y-108967464D01*
X167096180Y-108955188D01*
X167037570Y-108813690D01*
X166939076Y-108666284D01*
X166813715Y-108540923D01*
X166666308Y-108442429D01*
X166502520Y-108374586D01*
X166328644Y-108340000D01*
X165965001Y-108340000D01*
X165965000Y-108340001D01*
X165965000Y-108940000D01*
X165715000Y-108940000D01*
X165715000Y-108340001D01*
X165714999Y-108340000D01*
X165351355Y-108340000D01*
X165177480Y-108374586D01*
X165177478Y-108374586D01*
X165013691Y-108442429D01*
X164866284Y-108540923D01*
X164740923Y-108666284D01*
X164642429Y-108813691D01*
X164574586Y-108977478D01*
X164574585Y-108977481D01*
X164547232Y-109114999D01*
X114602380Y-109114999D01*
X114513642Y-108432855D01*
X114513244Y-108429286D01*
X114431766Y-107549998D01*
X144184722Y-107549998D01*
X144184722Y-107550001D01*
X144203762Y-107706816D01*
X144203763Y-107706817D01*
X144259780Y-107854523D01*
X144349515Y-107984528D01*
X144349516Y-107984529D01*
X144349517Y-107984530D01*
X144467760Y-108089283D01*
X144607635Y-108162696D01*
X144761015Y-108200500D01*
X144761018Y-108200500D01*
X144918982Y-108200500D01*
X144918985Y-108200500D01*
X145072365Y-108162696D01*
X145212240Y-108089283D01*
X145330483Y-107984530D01*
X145420220Y-107854523D01*
X145476237Y-107706818D01*
X145495278Y-107550000D01*
X145476237Y-107393182D01*
X145420220Y-107245477D01*
X145330483Y-107115470D01*
X145212240Y-107010717D01*
X145142302Y-106974010D01*
X145072364Y-106937303D01*
X144918987Y-106899500D01*
X144918985Y-106899500D01*
X144761015Y-106899500D01*
X144761012Y-106899500D01*
X144607635Y-106937303D01*
X144467758Y-107010718D01*
X144349515Y-107115471D01*
X144259780Y-107245476D01*
X144203763Y-107393182D01*
X144203762Y-107393183D01*
X144184722Y-107549998D01*
X114431766Y-107549998D01*
X114414120Y-107359573D01*
X114413851Y-107355934D01*
X114390618Y-106937304D01*
X114354325Y-106283341D01*
X114354191Y-106279688D01*
X114348384Y-105965476D01*
X114334340Y-105205593D01*
X114334340Y-105202022D01*
X114354191Y-104127922D01*
X114354326Y-104124270D01*
X114358055Y-104057070D01*
X114396185Y-103369998D01*
X134784722Y-103369998D01*
X134784722Y-103370001D01*
X134803762Y-103526816D01*
X134803763Y-103526818D01*
X134859780Y-103674523D01*
X134899999Y-103732791D01*
X134929828Y-103776005D01*
X134947323Y-103834636D01*
X134929828Y-103888480D01*
X134869781Y-103975474D01*
X134813763Y-104123182D01*
X134813762Y-104123183D01*
X134794722Y-104279998D01*
X134794722Y-104280001D01*
X134813762Y-104436816D01*
X134813763Y-104436817D01*
X134869780Y-104584523D01*
X134941730Y-104688762D01*
X134959225Y-104747393D01*
X134941730Y-104801238D01*
X134869780Y-104905476D01*
X134813763Y-105053182D01*
X134813762Y-105053183D01*
X134794722Y-105209998D01*
X134794722Y-105210001D01*
X134813762Y-105366816D01*
X134813763Y-105366818D01*
X134864000Y-105499283D01*
X134869780Y-105514523D01*
X134959515Y-105644528D01*
X134959516Y-105644529D01*
X134959517Y-105644530D01*
X135077760Y-105749283D01*
X135217635Y-105822696D01*
X135371015Y-105860500D01*
X135371018Y-105860500D01*
X135528982Y-105860500D01*
X135528985Y-105860500D01*
X135682365Y-105822696D01*
X135822240Y-105749283D01*
X135940483Y-105644530D01*
X135940485Y-105644526D01*
X135944457Y-105640045D01*
X135946149Y-105641544D01*
X135987132Y-105610221D01*
X136048299Y-105608737D01*
X136094721Y-105640772D01*
X136095543Y-105640045D01*
X136098495Y-105643377D01*
X136098657Y-105643489D01*
X136098942Y-105643881D01*
X136099514Y-105644527D01*
X136099516Y-105644529D01*
X136099517Y-105644530D01*
X136217760Y-105749283D01*
X136357635Y-105822696D01*
X136511015Y-105860500D01*
X136511018Y-105860500D01*
X136668982Y-105860500D01*
X136668985Y-105860500D01*
X136711594Y-105849998D01*
X148354722Y-105849998D01*
X148354722Y-105850001D01*
X148373762Y-106006816D01*
X148373763Y-106006818D01*
X148414102Y-106113183D01*
X148429780Y-106154523D01*
X148519515Y-106284528D01*
X148519516Y-106284529D01*
X148519517Y-106284530D01*
X148637760Y-106389283D01*
X148777635Y-106462696D01*
X148931015Y-106500500D01*
X148931018Y-106500500D01*
X149088982Y-106500500D01*
X149088985Y-106500500D01*
X149242365Y-106462696D01*
X149382240Y-106389283D01*
X149500483Y-106284530D01*
X149510514Y-106269998D01*
X166264722Y-106269998D01*
X166264722Y-106270001D01*
X166283762Y-106426816D01*
X166283763Y-106426818D01*
X166311707Y-106500500D01*
X166339780Y-106574523D01*
X166429515Y-106704528D01*
X166429516Y-106704529D01*
X166429517Y-106704530D01*
X166547760Y-106809283D01*
X166687635Y-106882696D01*
X166841015Y-106920500D01*
X166841018Y-106920500D01*
X166998982Y-106920500D01*
X166998985Y-106920500D01*
X167152365Y-106882696D01*
X167292240Y-106809283D01*
X167410483Y-106704530D01*
X167500220Y-106574523D01*
X167556237Y-106426818D01*
X167575278Y-106270000D01*
X167556237Y-106113182D01*
X167500220Y-105965477D01*
X167420513Y-105850001D01*
X167410484Y-105835471D01*
X167292241Y-105730718D01*
X167292240Y-105730717D01*
X167220724Y-105693182D01*
X167152364Y-105657303D01*
X166998987Y-105619500D01*
X166998985Y-105619500D01*
X166841015Y-105619500D01*
X166841012Y-105619500D01*
X166687635Y-105657303D01*
X166547758Y-105730718D01*
X166429515Y-105835471D01*
X166339780Y-105965476D01*
X166283763Y-106113182D01*
X166283762Y-106113183D01*
X166264722Y-106269998D01*
X149510514Y-106269998D01*
X149590220Y-106154523D01*
X149646237Y-106006818D01*
X149665278Y-105850000D01*
X149646237Y-105693182D01*
X149590220Y-105545477D01*
X149500483Y-105415470D01*
X149382240Y-105310717D01*
X149294226Y-105264523D01*
X149242364Y-105237303D01*
X149088987Y-105199500D01*
X149088985Y-105199500D01*
X148931015Y-105199500D01*
X148931012Y-105199500D01*
X148777635Y-105237303D01*
X148637758Y-105310718D01*
X148519515Y-105415471D01*
X148429780Y-105545476D01*
X148373763Y-105693182D01*
X148373762Y-105693183D01*
X148354722Y-105849998D01*
X136711594Y-105849998D01*
X136822365Y-105822696D01*
X136962240Y-105749283D01*
X137080483Y-105644530D01*
X137170220Y-105514523D01*
X137226237Y-105366818D01*
X137245278Y-105210000D01*
X137226237Y-105053182D01*
X137190897Y-104959998D01*
X145804722Y-104959998D01*
X145804722Y-104960001D01*
X145823762Y-105116816D01*
X145823763Y-105116818D01*
X145859102Y-105210000D01*
X145879780Y-105264523D01*
X145969515Y-105394528D01*
X145969516Y-105394529D01*
X145969517Y-105394530D01*
X146087760Y-105499283D01*
X146227635Y-105572696D01*
X146381015Y-105610500D01*
X146381018Y-105610500D01*
X146538982Y-105610500D01*
X146538985Y-105610500D01*
X146692365Y-105572696D01*
X146832240Y-105499283D01*
X146950483Y-105394530D01*
X147040220Y-105264523D01*
X147096237Y-105116818D01*
X147115278Y-104960000D01*
X147096237Y-104803182D01*
X147040220Y-104655477D01*
X146991244Y-104584523D01*
X146950484Y-104525471D01*
X146949951Y-104524999D01*
X150324355Y-104524999D01*
X150344860Y-104693871D01*
X150405182Y-104852929D01*
X150501817Y-104992928D01*
X150629148Y-105105733D01*
X150779775Y-105184789D01*
X150944944Y-105225499D01*
X150944947Y-105225499D01*
X151115053Y-105225499D01*
X151115056Y-105225499D01*
X151280225Y-105184789D01*
X151430852Y-105105733D01*
X151558183Y-104992928D01*
X151654818Y-104852929D01*
X151715140Y-104693871D01*
X151735645Y-104524999D01*
X151715140Y-104356127D01*
X151654818Y-104197069D01*
X151558183Y-104057070D01*
X151430852Y-103944265D01*
X151280225Y-103865209D01*
X151280224Y-103865208D01*
X151280223Y-103865208D01*
X151115058Y-103824499D01*
X151115056Y-103824499D01*
X150944944Y-103824499D01*
X150944941Y-103824499D01*
X150779776Y-103865208D01*
X150629146Y-103944266D01*
X150501818Y-104057068D01*
X150501816Y-104057071D01*
X150430425Y-104160499D01*
X150405182Y-104197069D01*
X150344860Y-104356127D01*
X150324355Y-104524999D01*
X146949951Y-104524999D01*
X146832241Y-104420718D01*
X146832240Y-104420717D01*
X146709176Y-104356127D01*
X146692364Y-104347303D01*
X146538987Y-104309500D01*
X146538985Y-104309500D01*
X146381015Y-104309500D01*
X146381012Y-104309500D01*
X146227635Y-104347303D01*
X146087758Y-104420718D01*
X145969515Y-104525471D01*
X145879780Y-104655476D01*
X145823763Y-104803182D01*
X145823762Y-104803183D01*
X145804722Y-104959998D01*
X137190897Y-104959998D01*
X137170220Y-104905477D01*
X137080483Y-104775470D01*
X137076152Y-104771633D01*
X137045134Y-104718892D01*
X137051040Y-104657992D01*
X137060323Y-104641298D01*
X137120220Y-104554523D01*
X137176237Y-104406818D01*
X137195278Y-104250000D01*
X137176237Y-104093182D01*
X137120220Y-103945477D01*
X137119566Y-103944530D01*
X137064815Y-103865209D01*
X137055524Y-103851748D01*
X137038029Y-103793120D01*
X137055524Y-103739275D01*
X137100220Y-103674523D01*
X137156237Y-103526818D01*
X137158279Y-103509998D01*
X166154722Y-103509998D01*
X166154722Y-103510001D01*
X166173762Y-103666816D01*
X166173763Y-103666818D01*
X166215172Y-103776005D01*
X166229780Y-103814523D01*
X166319515Y-103944528D01*
X166319516Y-103944529D01*
X166319517Y-103944530D01*
X166437760Y-104049283D01*
X166577635Y-104122696D01*
X166731015Y-104160500D01*
X166731018Y-104160500D01*
X166888982Y-104160500D01*
X166888985Y-104160500D01*
X167042365Y-104122696D01*
X167182240Y-104049283D01*
X167300483Y-103944530D01*
X167390220Y-103814523D01*
X167446237Y-103666818D01*
X167465278Y-103510000D01*
X167446237Y-103353182D01*
X167390220Y-103205477D01*
X167300483Y-103075470D01*
X167182240Y-102970717D01*
X167087853Y-102921178D01*
X167042364Y-102897303D01*
X166888987Y-102859500D01*
X166888985Y-102859500D01*
X166731015Y-102859500D01*
X166731012Y-102859500D01*
X166577635Y-102897303D01*
X166437758Y-102970718D01*
X166319515Y-103075471D01*
X166229780Y-103205476D01*
X166173763Y-103353182D01*
X166173762Y-103353183D01*
X166154722Y-103509998D01*
X137158279Y-103509998D01*
X137175278Y-103370000D01*
X137156237Y-103213182D01*
X137100220Y-103065477D01*
X137010483Y-102935470D01*
X136892240Y-102830717D01*
X136822302Y-102794010D01*
X136752364Y-102757303D01*
X136598987Y-102719500D01*
X136598985Y-102719500D01*
X136441015Y-102719500D01*
X136441012Y-102719500D01*
X136287635Y-102757303D01*
X136147758Y-102830718D01*
X136045649Y-102921178D01*
X135989554Y-102945613D01*
X135929810Y-102932410D01*
X135914351Y-102921178D01*
X135812241Y-102830718D01*
X135812240Y-102830717D01*
X135742302Y-102794010D01*
X135672364Y-102757303D01*
X135518987Y-102719500D01*
X135518985Y-102719500D01*
X135361015Y-102719500D01*
X135361012Y-102719500D01*
X135207635Y-102757303D01*
X135067758Y-102830718D01*
X134949515Y-102935471D01*
X134859780Y-103065476D01*
X134803763Y-103213182D01*
X134803762Y-103213183D01*
X134784722Y-103369998D01*
X114396185Y-103369998D01*
X114413852Y-103051666D01*
X114414121Y-103048032D01*
X114455638Y-102599998D01*
X145034722Y-102599998D01*
X145034722Y-102600001D01*
X145053762Y-102756816D01*
X145053763Y-102756818D01*
X145081789Y-102830717D01*
X145109780Y-102904523D01*
X145199515Y-103034528D01*
X145199516Y-103034529D01*
X145199517Y-103034530D01*
X145317760Y-103139283D01*
X145457635Y-103212696D01*
X145611015Y-103250500D01*
X145611018Y-103250500D01*
X145768982Y-103250500D01*
X145768985Y-103250500D01*
X145922365Y-103212696D01*
X146062240Y-103139283D01*
X146180483Y-103034530D01*
X146270220Y-102904523D01*
X146326237Y-102756818D01*
X146345278Y-102600000D01*
X146326237Y-102443182D01*
X146270220Y-102295477D01*
X146180483Y-102165470D01*
X146062240Y-102060717D01*
X145992302Y-102024010D01*
X145922364Y-101987303D01*
X145768987Y-101949500D01*
X145768985Y-101949500D01*
X145611015Y-101949500D01*
X145611012Y-101949500D01*
X145457635Y-101987303D01*
X145317758Y-102060718D01*
X145199515Y-102165471D01*
X145109780Y-102295476D01*
X145053763Y-102443182D01*
X145053762Y-102443183D01*
X145034722Y-102599998D01*
X114455638Y-102599998D01*
X114513245Y-101978323D01*
X114513641Y-101974766D01*
X114652223Y-100909456D01*
X114652761Y-100905846D01*
X114775448Y-100174998D01*
X120444722Y-100174998D01*
X120444722Y-100175001D01*
X120463762Y-100331816D01*
X120463763Y-100331818D01*
X120477971Y-100369281D01*
X120519780Y-100479523D01*
X120609515Y-100609528D01*
X120609516Y-100609529D01*
X120609517Y-100609530D01*
X120727760Y-100714283D01*
X120867635Y-100787696D01*
X121021015Y-100825500D01*
X121021018Y-100825500D01*
X121178982Y-100825500D01*
X121178985Y-100825500D01*
X121332365Y-100787696D01*
X121472240Y-100714283D01*
X121578667Y-100619998D01*
X138954722Y-100619998D01*
X138954722Y-100620001D01*
X138973762Y-100776816D01*
X138973763Y-100776818D01*
X139001512Y-100849986D01*
X139029780Y-100924523D01*
X139119515Y-101054528D01*
X139119516Y-101054529D01*
X139119517Y-101054530D01*
X139237760Y-101159283D01*
X139377635Y-101232696D01*
X139531015Y-101270500D01*
X139531018Y-101270500D01*
X139688982Y-101270500D01*
X139688985Y-101270500D01*
X139842365Y-101232696D01*
X139982240Y-101159283D01*
X140100483Y-101054530D01*
X140190220Y-100924523D01*
X140246237Y-100776818D01*
X140265278Y-100620000D01*
X140264006Y-100609528D01*
X140252584Y-100515454D01*
X140246237Y-100463182D01*
X140190220Y-100315477D01*
X140100483Y-100185470D01*
X139982240Y-100080717D01*
X139878528Y-100026284D01*
X139842364Y-100007303D01*
X139688987Y-99969500D01*
X139688985Y-99969500D01*
X139531015Y-99969500D01*
X139531012Y-99969500D01*
X139377635Y-100007303D01*
X139237758Y-100080718D01*
X139119515Y-100185471D01*
X139029780Y-100315476D01*
X138973763Y-100463182D01*
X138973762Y-100463183D01*
X138954722Y-100619998D01*
X121578667Y-100619998D01*
X121590483Y-100609530D01*
X121680220Y-100479523D01*
X121736237Y-100331818D01*
X121755278Y-100175000D01*
X121755189Y-100174271D01*
X121736237Y-100018183D01*
X121736237Y-100018182D01*
X121680220Y-99870477D01*
X121590483Y-99740470D01*
X121472240Y-99635717D01*
X121402302Y-99599010D01*
X121332364Y-99562303D01*
X121178987Y-99524500D01*
X121178985Y-99524500D01*
X121021015Y-99524500D01*
X121021012Y-99524500D01*
X120867635Y-99562303D01*
X120727758Y-99635718D01*
X120609515Y-99740471D01*
X120519780Y-99870476D01*
X120463763Y-100018182D01*
X120463762Y-100018183D01*
X120444722Y-100174998D01*
X114775448Y-100174998D01*
X114830607Y-99846417D01*
X114831276Y-99842839D01*
X115048159Y-98790656D01*
X115048939Y-98787193D01*
X115060500Y-98739998D01*
X148652222Y-98739998D01*
X148652222Y-98740001D01*
X148671262Y-98896816D01*
X148671263Y-98896817D01*
X148727280Y-99044523D01*
X148817015Y-99174528D01*
X148817016Y-99174529D01*
X148817017Y-99174530D01*
X148935260Y-99279283D01*
X149075135Y-99352696D01*
X149228515Y-99390500D01*
X149228518Y-99390500D01*
X149386482Y-99390500D01*
X149386485Y-99390500D01*
X149539865Y-99352696D01*
X149679740Y-99279283D01*
X149797983Y-99174530D01*
X149887720Y-99044523D01*
X149943737Y-98896818D01*
X149962778Y-98740000D01*
X149943737Y-98583182D01*
X149887720Y-98435477D01*
X149797983Y-98305470D01*
X149679740Y-98200717D01*
X149609802Y-98164010D01*
X149539864Y-98127303D01*
X149386487Y-98089500D01*
X149386485Y-98089500D01*
X149228515Y-98089500D01*
X149228512Y-98089500D01*
X149075135Y-98127303D01*
X148935258Y-98200718D01*
X148817015Y-98305471D01*
X148727280Y-98435476D01*
X148671263Y-98583182D01*
X148671262Y-98583183D01*
X148652222Y-98739998D01*
X115060500Y-98739998D01*
X115304557Y-97743731D01*
X115305488Y-97740217D01*
X115317256Y-97698859D01*
X115440699Y-97264999D01*
X150406160Y-97264999D01*
X150406161Y-97265000D01*
X151165856Y-97265000D01*
X151150000Y-97324174D01*
X151150000Y-97455826D01*
X151165856Y-97515000D01*
X150406161Y-97515000D01*
X150414286Y-97607880D01*
X150470897Y-97819157D01*
X150563332Y-98017386D01*
X150688783Y-98196549D01*
X150843450Y-98351216D01*
X151022613Y-98476667D01*
X151220844Y-98569103D01*
X151279692Y-98584871D01*
X151331007Y-98618194D01*
X151352934Y-98675316D01*
X151337099Y-98734416D01*
X151289549Y-98772922D01*
X151254070Y-98779498D01*
X150755161Y-98779498D01*
X150755158Y-98779499D01*
X150730031Y-98782412D01*
X150627257Y-98827792D01*
X150547816Y-98907233D01*
X150502436Y-99010009D01*
X150499522Y-99035128D01*
X150499522Y-100824858D01*
X150499523Y-100824861D01*
X150502436Y-100849988D01*
X150524519Y-100900000D01*
X150547816Y-100952763D01*
X150627257Y-101032204D01*
X150730031Y-101077583D01*
X150755157Y-101080498D01*
X152544886Y-101080497D01*
X152570013Y-101077583D01*
X152672787Y-101032204D01*
X152752228Y-100952763D01*
X152797607Y-100849989D01*
X152800522Y-100824863D01*
X152800522Y-100474999D01*
X164547232Y-100474999D01*
X164547233Y-100475000D01*
X165165758Y-100475000D01*
X165160444Y-100484204D01*
X165140000Y-100560504D01*
X165140000Y-100639496D01*
X165160444Y-100715796D01*
X165165758Y-100725000D01*
X164547232Y-100725000D01*
X164574585Y-100862518D01*
X164574586Y-100862521D01*
X164642429Y-101026308D01*
X164740923Y-101173715D01*
X164866284Y-101299076D01*
X165013691Y-101397570D01*
X165177479Y-101465413D01*
X165351355Y-101499999D01*
X165351359Y-101500000D01*
X165714999Y-101500000D01*
X165715000Y-101499999D01*
X165715000Y-100900000D01*
X165965000Y-100900000D01*
X165965000Y-101499999D01*
X165965001Y-101500000D01*
X166328641Y-101500000D01*
X166328644Y-101499999D01*
X166502519Y-101465413D01*
X166502521Y-101465413D01*
X166666308Y-101397570D01*
X166813715Y-101299076D01*
X166939076Y-101173715D01*
X167037570Y-101026308D01*
X167105413Y-100862521D01*
X167105414Y-100862518D01*
X167132768Y-100725000D01*
X166514242Y-100725000D01*
X166519556Y-100715796D01*
X166540000Y-100639496D01*
X166540000Y-100560504D01*
X166519556Y-100484204D01*
X166514242Y-100475000D01*
X167132767Y-100475000D01*
X167132767Y-100474999D01*
X167105414Y-100337482D01*
X167080581Y-100277530D01*
X167075780Y-100216533D01*
X167101677Y-100174271D01*
X167096936Y-100176070D01*
X167037900Y-100159996D01*
X167009839Y-100132188D01*
X166939076Y-100026284D01*
X166813715Y-99900923D01*
X166707568Y-99829998D01*
X167144722Y-99829998D01*
X167144722Y-99830001D01*
X167163762Y-99986816D01*
X167163764Y-99986820D01*
X167184721Y-100042081D01*
X167187676Y-100103195D01*
X167162443Y-100141708D01*
X167164277Y-100140949D01*
X167223772Y-100155232D01*
X167253520Y-100183406D01*
X167309512Y-100264525D01*
X167309514Y-100264527D01*
X167309516Y-100264529D01*
X167309517Y-100264530D01*
X167427760Y-100369283D01*
X167567635Y-100442696D01*
X167721015Y-100480500D01*
X167721018Y-100480500D01*
X167878982Y-100480500D01*
X167878985Y-100480500D01*
X168032365Y-100442696D01*
X168172240Y-100369283D01*
X168190072Y-100353484D01*
X168246166Y-100329048D01*
X168305910Y-100342250D01*
X168346485Y-100388047D01*
X168352821Y-100446898D01*
X168347231Y-100474999D01*
X168347233Y-100475000D01*
X168965758Y-100475000D01*
X168960444Y-100484204D01*
X168940000Y-100560504D01*
X168940000Y-100639496D01*
X168960444Y-100715796D01*
X168965758Y-100725000D01*
X168347232Y-100725000D01*
X168374585Y-100862518D01*
X168374586Y-100862521D01*
X168442429Y-101026308D01*
X168540923Y-101173715D01*
X168666284Y-101299076D01*
X168813691Y-101397570D01*
X168977479Y-101465413D01*
X169151355Y-101499999D01*
X169151359Y-101500000D01*
X169714999Y-101500000D01*
X169715000Y-101499999D01*
X169715000Y-100900000D01*
X169965000Y-100900000D01*
X169965000Y-101499999D01*
X169965001Y-101500000D01*
X170528641Y-101500000D01*
X170528644Y-101499999D01*
X170702519Y-101465413D01*
X170702521Y-101465413D01*
X170866308Y-101397570D01*
X171013715Y-101299076D01*
X171139076Y-101173715D01*
X171237570Y-101026308D01*
X171305413Y-100862521D01*
X171305414Y-100862518D01*
X171332768Y-100725000D01*
X170714242Y-100725000D01*
X170719556Y-100715796D01*
X170740000Y-100639496D01*
X170740000Y-100560504D01*
X170719556Y-100484204D01*
X170714242Y-100475000D01*
X171332767Y-100475000D01*
X171332767Y-100474999D01*
X171305414Y-100337481D01*
X171305413Y-100337478D01*
X171237570Y-100173691D01*
X171139076Y-100026284D01*
X171013715Y-99900923D01*
X170866308Y-99802429D01*
X170702520Y-99734586D01*
X170528644Y-99700000D01*
X169965001Y-99700000D01*
X169965000Y-99700001D01*
X169965000Y-100300000D01*
X169715000Y-100300000D01*
X169715000Y-99700001D01*
X169714999Y-99700000D01*
X169151355Y-99700000D01*
X168977480Y-99734586D01*
X168977478Y-99734586D01*
X168813691Y-99802429D01*
X168666281Y-99900925D01*
X168619176Y-99948030D01*
X168564659Y-99975807D01*
X168504227Y-99966235D01*
X168460963Y-99922970D01*
X168450895Y-99866093D01*
X168455278Y-99830000D01*
X168436237Y-99673182D01*
X168380220Y-99525477D01*
X168290483Y-99395470D01*
X168172240Y-99290717D01*
X168102302Y-99254010D01*
X168032364Y-99217303D01*
X167878987Y-99179500D01*
X167878985Y-99179500D01*
X167721015Y-99179500D01*
X167721012Y-99179500D01*
X167567635Y-99217303D01*
X167427758Y-99290718D01*
X167309515Y-99395471D01*
X167219780Y-99525476D01*
X167163763Y-99673182D01*
X167163762Y-99673183D01*
X167144722Y-99829998D01*
X166707568Y-99829998D01*
X166666308Y-99802429D01*
X166502520Y-99734586D01*
X166328644Y-99700000D01*
X165965001Y-99700000D01*
X165965000Y-99700001D01*
X165965000Y-100300000D01*
X165715000Y-100300000D01*
X165715000Y-99700001D01*
X165714999Y-99700000D01*
X165351355Y-99700000D01*
X165177480Y-99734586D01*
X165177478Y-99734586D01*
X165013691Y-99802429D01*
X164866284Y-99900923D01*
X164740923Y-100026284D01*
X164642429Y-100173691D01*
X164574586Y-100337478D01*
X164574585Y-100337481D01*
X164547232Y-100474999D01*
X152800522Y-100474999D01*
X152800521Y-99035134D01*
X152797607Y-99010007D01*
X152752228Y-98907233D01*
X152672787Y-98827792D01*
X152570013Y-98782413D01*
X152570012Y-98782412D01*
X152570010Y-98782412D01*
X152544891Y-98779498D01*
X152045931Y-98779498D01*
X151987740Y-98760591D01*
X151951776Y-98711091D01*
X151951776Y-98649905D01*
X151987740Y-98600405D01*
X152020309Y-98584871D01*
X152079155Y-98569103D01*
X152277386Y-98476667D01*
X152456549Y-98351216D01*
X152611216Y-98196549D01*
X152736667Y-98017386D01*
X152829102Y-97819157D01*
X152885713Y-97607880D01*
X152893839Y-97515000D01*
X152134144Y-97515000D01*
X152150000Y-97455826D01*
X152150000Y-97324174D01*
X152134144Y-97265000D01*
X152893839Y-97265000D01*
X152893839Y-97264999D01*
X152885713Y-97172119D01*
X152829102Y-96960842D01*
X152736667Y-96762614D01*
X152611216Y-96583450D01*
X152456549Y-96428783D01*
X152409858Y-96396090D01*
X159663077Y-96396090D01*
X159681138Y-96533274D01*
X159734086Y-96661105D01*
X159734088Y-96661109D01*
X159811976Y-96762614D01*
X159818321Y-96770882D01*
X159928094Y-96855115D01*
X160055929Y-96908065D01*
X160193112Y-96926126D01*
X160330295Y-96908065D01*
X160458130Y-96855115D01*
X160567903Y-96770882D01*
X160652136Y-96661109D01*
X160705086Y-96533274D01*
X160723147Y-96396091D01*
X160705086Y-96258908D01*
X160685199Y-96210897D01*
X160671695Y-96178295D01*
X160652136Y-96131074D01*
X160567903Y-96021300D01*
X160567901Y-96021299D01*
X160567901Y-96021298D01*
X160458130Y-95937067D01*
X160458126Y-95937065D01*
X160330295Y-95884117D01*
X160264677Y-95875478D01*
X160193112Y-95866056D01*
X160193111Y-95866056D01*
X160055928Y-95884116D01*
X160055928Y-95884117D01*
X159928098Y-95937065D01*
X159928094Y-95937067D01*
X159818323Y-96021298D01*
X159818319Y-96021302D01*
X159734088Y-96131073D01*
X159734086Y-96131077D01*
X159681138Y-96258907D01*
X159681137Y-96258907D01*
X159663077Y-96396090D01*
X152409858Y-96396090D01*
X152277386Y-96303332D01*
X152079157Y-96210897D01*
X151867880Y-96154286D01*
X151775000Y-96146160D01*
X151775000Y-96905855D01*
X151715826Y-96890000D01*
X151584174Y-96890000D01*
X151525000Y-96905855D01*
X151525000Y-96146160D01*
X151524999Y-96146160D01*
X151432119Y-96154286D01*
X151220842Y-96210897D01*
X151022614Y-96303332D01*
X150843450Y-96428783D01*
X150688783Y-96583450D01*
X150563332Y-96762614D01*
X150470897Y-96960842D01*
X150414286Y-97172119D01*
X150406160Y-97264999D01*
X115440699Y-97264999D01*
X115599472Y-96706967D01*
X115600533Y-96703487D01*
X115932505Y-95681783D01*
X115933681Y-95678381D01*
X115998770Y-95500685D01*
X127080393Y-95500685D01*
X127098454Y-95637869D01*
X127151402Y-95765700D01*
X127151404Y-95765704D01*
X127235635Y-95875475D01*
X127235638Y-95875478D01*
X127290523Y-95917593D01*
X127345410Y-95959710D01*
X127473245Y-96012660D01*
X127610428Y-96030721D01*
X127747611Y-96012660D01*
X127875446Y-95959710D01*
X127985219Y-95875477D01*
X128069452Y-95765704D01*
X128122402Y-95637869D01*
X128140463Y-95500686D01*
X128122402Y-95363503D01*
X128069452Y-95235669D01*
X127985219Y-95125895D01*
X127985217Y-95125894D01*
X127985217Y-95125893D01*
X127875446Y-95041662D01*
X127875442Y-95041660D01*
X127747611Y-94988712D01*
X127747603Y-94988711D01*
X127610428Y-94970651D01*
X127610427Y-94970651D01*
X127473244Y-94988711D01*
X127473244Y-94988712D01*
X127345414Y-95041660D01*
X127345410Y-95041662D01*
X127235639Y-95125893D01*
X127235635Y-95125897D01*
X127151404Y-95235668D01*
X127151402Y-95235672D01*
X127098454Y-95363502D01*
X127098453Y-95363502D01*
X127080393Y-95500685D01*
X115998770Y-95500685D01*
X116303182Y-94669631D01*
X116304484Y-94666271D01*
X116711004Y-93671878D01*
X116712449Y-93668525D01*
X116743878Y-93599089D01*
X117155435Y-92689828D01*
X117156958Y-92686622D01*
X117635830Y-91724917D01*
X117637481Y-91721749D01*
X118151570Y-90778384D01*
X118153338Y-90775279D01*
X118701910Y-89851593D01*
X118703795Y-89848548D01*
X118728662Y-89809996D01*
X145555521Y-89809996D01*
X145555521Y-89810003D01*
X145574582Y-90027881D01*
X145631192Y-90239156D01*
X145631193Y-90239158D01*
X145670598Y-90323665D01*
X146328514Y-89943816D01*
X146344371Y-90002993D01*
X146410197Y-90117007D01*
X146453513Y-90160323D01*
X145795598Y-90540171D01*
X145849079Y-90616549D01*
X146003746Y-90771216D01*
X146182909Y-90896667D01*
X146381138Y-90989102D01*
X146592414Y-91045713D01*
X146810293Y-91064775D01*
X146810299Y-91064775D01*
X147028177Y-91045713D01*
X147239458Y-90989101D01*
X147323961Y-90949696D01*
X146944113Y-90291781D01*
X147003289Y-90275925D01*
X147117303Y-90210099D01*
X147160620Y-90166781D01*
X147540468Y-90824696D01*
X147616845Y-90771216D01*
X147771512Y-90616549D01*
X147896963Y-90437386D01*
X147989398Y-90239157D01*
X148046009Y-90027881D01*
X148065071Y-89810003D01*
X148065071Y-89809996D01*
X148046009Y-89592118D01*
X148000862Y-89423624D01*
X148004065Y-89362522D01*
X148042570Y-89314972D01*
X148101671Y-89299137D01*
X148158792Y-89321064D01*
X148163178Y-89324834D01*
X148204520Y-89362522D01*
X148313692Y-89462047D01*
X148313699Y-89462053D01*
X148379820Y-89502993D01*
X148494981Y-89574298D01*
X148693802Y-89651321D01*
X148903390Y-89690500D01*
X149116610Y-89690500D01*
X149326198Y-89651321D01*
X149525019Y-89574298D01*
X149706302Y-89462052D01*
X149863872Y-89318407D01*
X149992366Y-89148255D01*
X150087405Y-88957389D01*
X150145756Y-88752310D01*
X150165429Y-88540000D01*
X150145756Y-88327690D01*
X150087405Y-88122611D01*
X149992366Y-87931745D01*
X149863872Y-87761593D01*
X149782475Y-87687389D01*
X149706307Y-87617952D01*
X149706300Y-87617946D01*
X149525024Y-87505705D01*
X149525019Y-87505702D01*
X149326195Y-87428678D01*
X149116610Y-87389500D01*
X148903390Y-87389500D01*
X148693804Y-87428678D01*
X148494980Y-87505702D01*
X148494975Y-87505705D01*
X148313699Y-87617946D01*
X148313692Y-87617952D01*
X148156135Y-87761586D01*
X148156131Y-87761589D01*
X148156128Y-87761593D01*
X148156125Y-87761597D01*
X148027635Y-87931743D01*
X148027630Y-87931752D01*
X147932596Y-88122608D01*
X147874244Y-88327688D01*
X147854571Y-88540000D01*
X147874244Y-88752311D01*
X147910652Y-88880268D01*
X147908391Y-88941412D01*
X147870623Y-88989549D01*
X147811773Y-89006293D01*
X147754321Y-88985249D01*
X147745427Y-88977365D01*
X147616845Y-88848783D01*
X147437682Y-88723332D01*
X147239453Y-88630897D01*
X147028177Y-88574286D01*
X146810299Y-88555225D01*
X146810293Y-88555225D01*
X146592414Y-88574286D01*
X146381138Y-88630897D01*
X146296628Y-88670304D01*
X146676476Y-89328219D01*
X146617303Y-89344075D01*
X146503289Y-89409901D01*
X146459971Y-89453218D01*
X146080123Y-88795303D01*
X146003746Y-88848783D01*
X145849079Y-89003450D01*
X145723628Y-89182614D01*
X145631193Y-89380842D01*
X145574582Y-89592118D01*
X145555521Y-89809996D01*
X118728662Y-89809996D01*
X119286145Y-88945732D01*
X119288120Y-88942791D01*
X119311032Y-88909998D01*
X133954722Y-88909998D01*
X133954722Y-88910001D01*
X133973762Y-89066816D01*
X133973763Y-89066817D01*
X134029780Y-89214523D01*
X134119515Y-89344528D01*
X134119516Y-89344529D01*
X134119517Y-89344530D01*
X134237760Y-89449283D01*
X134377635Y-89522696D01*
X134531015Y-89560500D01*
X134531018Y-89560500D01*
X134688982Y-89560500D01*
X134688985Y-89560500D01*
X134842365Y-89522696D01*
X134982240Y-89449283D01*
X135100483Y-89344530D01*
X135190220Y-89214523D01*
X135246237Y-89066818D01*
X135265278Y-88910000D01*
X135255801Y-88831953D01*
X135246237Y-88753183D01*
X135246237Y-88753182D01*
X135190220Y-88605477D01*
X135100483Y-88475470D01*
X134982240Y-88370717D01*
X134900256Y-88327688D01*
X134842364Y-88297303D01*
X134688987Y-88259500D01*
X134688985Y-88259500D01*
X134531015Y-88259500D01*
X134531012Y-88259500D01*
X134377635Y-88297303D01*
X134237758Y-88370718D01*
X134119515Y-88475471D01*
X134029780Y-88605476D01*
X133973763Y-88753182D01*
X133973762Y-88753183D01*
X133954722Y-88909998D01*
X119311032Y-88909998D01*
X119903422Y-88062127D01*
X119905535Y-88059218D01*
X120501525Y-87270000D01*
X150054276Y-87270000D01*
X150073949Y-87482311D01*
X150097154Y-87563867D01*
X150132300Y-87687389D01*
X150227339Y-87878255D01*
X150355833Y-88048407D01*
X150370912Y-88062153D01*
X150513397Y-88192047D01*
X150513404Y-88192053D01*
X150617094Y-88256255D01*
X150694686Y-88304298D01*
X150893507Y-88381321D01*
X151103095Y-88420500D01*
X151316315Y-88420500D01*
X151525903Y-88381321D01*
X151724724Y-88304298D01*
X151906007Y-88192052D01*
X152063577Y-88048407D01*
X152192071Y-87878255D01*
X152287110Y-87687389D01*
X152345461Y-87482310D01*
X152365134Y-87270000D01*
X152345461Y-87057690D01*
X152287110Y-86852611D01*
X152192071Y-86661745D01*
X152063577Y-86491593D01*
X151981954Y-86417183D01*
X151906012Y-86347952D01*
X151906005Y-86347946D01*
X151724729Y-86235705D01*
X151724724Y-86235702D01*
X151664342Y-86212310D01*
X151525903Y-86158679D01*
X151525902Y-86158678D01*
X151525900Y-86158678D01*
X151316315Y-86119500D01*
X151103095Y-86119500D01*
X150893509Y-86158678D01*
X150694685Y-86235702D01*
X150694680Y-86235705D01*
X150513404Y-86347946D01*
X150513397Y-86347952D01*
X150355840Y-86491586D01*
X150355836Y-86491589D01*
X150355833Y-86491593D01*
X150355830Y-86491597D01*
X150227340Y-86661743D01*
X150227335Y-86661752D01*
X150132301Y-86852608D01*
X150073949Y-87057688D01*
X150054276Y-87270000D01*
X120501525Y-87270000D01*
X120552962Y-87201886D01*
X120555192Y-87199045D01*
X121233807Y-86366282D01*
X121236135Y-86363529D01*
X121309503Y-86279999D01*
X143479966Y-86279999D01*
X143479966Y-86280000D01*
X143491139Y-86364868D01*
X143498027Y-86417183D01*
X143550975Y-86545014D01*
X143550977Y-86545018D01*
X143635208Y-86654789D01*
X143635211Y-86654792D01*
X143690096Y-86696907D01*
X143744983Y-86739024D01*
X143872818Y-86791974D01*
X144010001Y-86810035D01*
X144147184Y-86791974D01*
X144275019Y-86739024D01*
X144384792Y-86654791D01*
X144469025Y-86545018D01*
X144521975Y-86417183D01*
X144540036Y-86280000D01*
X144528967Y-86195921D01*
X144521975Y-86142816D01*
X144469026Y-86014986D01*
X144469025Y-86014983D01*
X144457528Y-86000000D01*
X152253980Y-86000000D01*
X152273653Y-86212311D01*
X152292913Y-86280000D01*
X152332004Y-86417389D01*
X152427043Y-86608255D01*
X152555537Y-86778407D01*
X152590230Y-86810034D01*
X152713101Y-86922047D01*
X152713108Y-86922053D01*
X152816798Y-86986255D01*
X152894390Y-87034298D01*
X153093211Y-87111321D01*
X153302799Y-87150500D01*
X153516019Y-87150500D01*
X153725607Y-87111321D01*
X153924428Y-87034298D01*
X154105711Y-86922052D01*
X154263281Y-86778407D01*
X154391775Y-86608255D01*
X154486814Y-86417389D01*
X154545165Y-86212310D01*
X154564838Y-86000000D01*
X154545165Y-85787690D01*
X154486814Y-85582611D01*
X154391775Y-85391745D01*
X154263281Y-85221593D01*
X154209032Y-85172139D01*
X154105716Y-85077952D01*
X154105709Y-85077946D01*
X153924433Y-84965705D01*
X153924428Y-84965702D01*
X153725607Y-84888679D01*
X153725606Y-84888678D01*
X153725604Y-84888678D01*
X153516019Y-84849500D01*
X153302799Y-84849500D01*
X153093213Y-84888678D01*
X152894389Y-84965702D01*
X152894384Y-84965705D01*
X152713108Y-85077946D01*
X152713101Y-85077952D01*
X152555544Y-85221586D01*
X152555540Y-85221589D01*
X152555537Y-85221593D01*
X152555534Y-85221597D01*
X152427044Y-85391743D01*
X152427039Y-85391752D01*
X152332005Y-85582608D01*
X152273653Y-85787688D01*
X152253980Y-86000000D01*
X144457528Y-86000000D01*
X144384792Y-85905209D01*
X144384790Y-85905208D01*
X144384790Y-85905207D01*
X144275019Y-85820976D01*
X144275015Y-85820974D01*
X144147184Y-85768026D01*
X144147176Y-85768025D01*
X144010001Y-85749965D01*
X144010000Y-85749965D01*
X143872817Y-85768025D01*
X143872817Y-85768026D01*
X143744987Y-85820974D01*
X143744983Y-85820976D01*
X143635212Y-85905207D01*
X143635208Y-85905211D01*
X143550977Y-86014982D01*
X143550975Y-86014986D01*
X143498027Y-86142816D01*
X143498026Y-86142816D01*
X143479966Y-86279999D01*
X121309503Y-86279999D01*
X121945112Y-85556351D01*
X121947546Y-85553683D01*
X122685827Y-84773292D01*
X122688344Y-84770728D01*
X123070710Y-84395364D01*
X154143193Y-84395364D01*
X154155280Y-84507055D01*
X154155281Y-84507057D01*
X154165319Y-84530274D01*
X155022517Y-86014982D01*
X155060184Y-86080222D01*
X155075273Y-86100529D01*
X155165955Y-86166841D01*
X155165958Y-86166843D01*
X155274477Y-86195921D01*
X155386171Y-86183833D01*
X155409388Y-86173795D01*
X156959338Y-85278929D01*
X156979642Y-85263842D01*
X157045957Y-85173156D01*
X157075035Y-85064637D01*
X157062947Y-84952943D01*
X157052909Y-84929726D01*
X156158043Y-83379776D01*
X156142956Y-83359472D01*
X156142954Y-83359471D01*
X156142954Y-83359470D01*
X156052272Y-83293158D01*
X156052271Y-83293157D01*
X156052270Y-83293157D01*
X155943751Y-83264079D01*
X155943749Y-83264079D01*
X155832058Y-83276166D01*
X155808840Y-83286205D01*
X155808834Y-83286208D01*
X154258891Y-84181070D01*
X154238584Y-84196159D01*
X154172272Y-84286841D01*
X154172272Y-84286842D01*
X154143193Y-84395364D01*
X123070710Y-84395364D01*
X123454981Y-84018129D01*
X123457584Y-84015667D01*
X124251536Y-83291885D01*
X124254211Y-83289535D01*
X124761865Y-82859998D01*
X130214722Y-82859998D01*
X130214722Y-82860001D01*
X130233762Y-83016816D01*
X130233763Y-83016818D01*
X130267280Y-83105194D01*
X130289780Y-83164523D01*
X130379515Y-83294528D01*
X130379516Y-83294529D01*
X130379517Y-83294530D01*
X130497760Y-83399283D01*
X130637635Y-83472696D01*
X130791015Y-83510500D01*
X130791018Y-83510500D01*
X130948982Y-83510500D01*
X130948985Y-83510500D01*
X131102365Y-83472696D01*
X131242240Y-83399283D01*
X131360483Y-83294530D01*
X131450220Y-83164523D01*
X131506237Y-83016818D01*
X131521636Y-82889998D01*
X136574722Y-82889998D01*
X136574722Y-82890001D01*
X136593762Y-83046816D01*
X136593763Y-83046817D01*
X136649780Y-83194523D01*
X136739515Y-83324528D01*
X136739516Y-83324529D01*
X136739517Y-83324530D01*
X136857760Y-83429283D01*
X136997635Y-83502696D01*
X137151015Y-83540500D01*
X137151018Y-83540500D01*
X137308982Y-83540500D01*
X137308985Y-83540500D01*
X137462365Y-83502696D01*
X137602240Y-83429283D01*
X137720483Y-83324530D01*
X137810220Y-83194523D01*
X137866237Y-83046818D01*
X137885278Y-82890000D01*
X137881635Y-82860001D01*
X137866237Y-82733183D01*
X137866237Y-82733182D01*
X137810220Y-82585477D01*
X137720483Y-82455470D01*
X137602240Y-82350717D01*
X137532302Y-82314010D01*
X137462364Y-82277303D01*
X137308987Y-82239500D01*
X137308985Y-82239500D01*
X137151015Y-82239500D01*
X137151012Y-82239500D01*
X136997635Y-82277303D01*
X136857758Y-82350718D01*
X136739515Y-82455471D01*
X136649780Y-82585476D01*
X136593763Y-82733182D01*
X136593762Y-82733183D01*
X136574722Y-82889998D01*
X131521636Y-82889998D01*
X131525278Y-82860000D01*
X131506237Y-82703182D01*
X131450220Y-82555477D01*
X131381191Y-82455471D01*
X131360484Y-82425471D01*
X131276105Y-82350718D01*
X131242240Y-82320717D01*
X131172302Y-82284010D01*
X131102364Y-82247303D01*
X130948987Y-82209500D01*
X130948985Y-82209500D01*
X130791015Y-82209500D01*
X130791012Y-82209500D01*
X130637635Y-82247303D01*
X130497758Y-82320718D01*
X130379515Y-82425471D01*
X130289780Y-82555476D01*
X130233763Y-82703182D01*
X130233762Y-82703183D01*
X130214722Y-82859998D01*
X124761865Y-82859998D01*
X125074348Y-82595599D01*
X125077084Y-82593369D01*
X125922339Y-81930184D01*
X125925189Y-81928032D01*
X126794328Y-81296565D01*
X126797288Y-81294498D01*
X127689180Y-80695570D01*
X127692149Y-80693655D01*
X128605553Y-80128098D01*
X128608630Y-80126270D01*
X129542290Y-79594863D01*
X129545499Y-79593115D01*
X130498150Y-79096574D01*
X130501375Y-79094969D01*
X131471706Y-78633977D01*
X131474987Y-78632492D01*
X132461698Y-78207667D01*
X132465077Y-78206286D01*
X133466838Y-77818202D01*
X133470193Y-77816973D01*
X134485586Y-77466179D01*
X134489015Y-77465065D01*
X135516711Y-77152020D01*
X135520191Y-77151030D01*
X136558690Y-76876190D01*
X136562204Y-76875329D01*
X137610203Y-76639039D01*
X137613769Y-76638304D01*
X138669740Y-76440910D01*
X138673265Y-76440317D01*
X139735874Y-76282067D01*
X139739427Y-76281604D01*
X140807129Y-76162731D01*
X140810717Y-76162398D01*
X141882116Y-76083056D01*
X141885697Y-76082858D01*
X142959211Y-76043162D01*
X142962869Y-76043095D01*
X144037131Y-76043095D01*
X144040788Y-76043162D01*
G37*
G04 #@! TD.AperFunction*
M02*
