M48
; DRILL file {KiCad 8.0.6} date 2025-05-06T14:41:07+0200
; FORMAT={-:-/ absolute / metric / decimal}
; #@! TF.CreationDate,2025-05-06T14:41:07+02:00
; #@! TF.GenerationSoftware,Kicad,Pcbnew,8.0.6
; #@! TF.FileFunction,Plated,1,4,PTH
FMAT,2
METRIC
; #@! TA.AperFunction,Plated,PTH,ViaDrill
T1C0.300
; #@! TA.AperFunction,Plated,PTH,ViaDrill
T2C0.400
; #@! TA.AperFunction,Plated,PTH,ComponentDrill
T3C0.600
; #@! TA.AperFunction,Plated,PTH,ComponentDrill
T4C1.000
%
G90
G05
T1
X116.375Y-101.05
X116.84Y-96.52
X116.84Y-111.76
X117.005Y-109.35
X119.38Y-114.3
X121.1Y-100.175
X121.92Y-96.52
X121.92Y-101.6
X121.92Y-106.68
X121.92Y-121.92
X122.602Y-93.955
X123.157Y-117.29
X123.9Y-86.075
X124.32Y-112.77
X124.46Y-88.9
X124.46Y-99.568
X124.46Y-104.14
X124.46Y-124.46
X125.354Y-95.818
X125.88Y-115.93
X126.3Y-114.053
X126.447Y-105.11
X126.447Y-105.84
X126.447Y-106.465
X126.447Y-107.221
X126.447Y-107.846
X126.447Y-108.44
X126.447Y-109.067
X126.447Y-109.72
X126.447Y-110.49
X126.447Y-111.177
X126.52Y-111.9
X127.0Y-86.36
X127.0Y-101.6
X127.0Y-121.92
X127.05Y-107.475
X127.12Y-112.5
X127.22Y-105.07
X127.61Y-95.501
X127.628Y-94.223
X127.65Y-113.03
X127.745Y-107.475
X127.92Y-105.07
X128.34Y-113.05
X128.37Y-107.475
X128.5Y-105.07
X128.51Y-101.31
X128.51Y-102.24
X128.51Y-103.09
X128.51Y-103.83
X128.51Y-104.49
X128.545Y-100.435
X129.02Y-113.05
X129.032Y-83.82
X129.15Y-107.475
X129.34Y-100.42
X129.54Y-88.9
X129.54Y-93.98
X129.54Y-119.38
X129.54Y-124.46
X129.63Y-113.04
X129.89Y-107.475
X130.048Y-129.54
X130.13Y-100.42
X130.28Y-113.02
X130.55Y-107.475
X130.7Y-85.02
X130.87Y-82.86
X130.93Y-113.03
X131.03Y-100.42
X131.22Y-107.475
X131.57Y-112.99
X131.85Y-100.42
X132.0Y-107.475
X132.02Y-112.5
X132.08Y-81.28
X132.08Y-91.44
X132.08Y-96.52
X132.08Y-121.92
X132.16Y-108.81
X132.52Y-100.42
X132.535Y-111.985
X132.685Y-107.475
X133.045Y-111.475
X133.18Y-100.42
X133.575Y-110.945
X133.645Y-100.815
X133.762Y-109.388
X133.762Y-110.238
X133.86Y-101.45
X133.86Y-102.14
X133.86Y-102.81
X133.86Y-106.11
X133.87Y-104.16
X133.87Y-105.42
X133.88Y-103.55
X133.89Y-104.81
X134.48Y-115.24
X134.48Y-118.96
X134.61Y-88.91
X134.62Y-78.74
X134.62Y-93.98
X134.62Y-124.968
X134.62Y-129.54
X135.44Y-103.37
X135.45Y-104.28
X135.45Y-105.21
X135.56Y-99.56
X135.636Y-89.408
X136.08Y-118.77
X136.52Y-103.37
X136.54Y-104.25
X136.59Y-105.21
X137.09Y-99.55
X137.1Y-118.75
X137.16Y-81.28
X137.16Y-96.52
X137.16Y-121.92
X137.16Y-127.0
X137.16Y-132.08
X137.23Y-82.89
X137.29Y-85.04
X137.29Y-117.48
X137.36Y-86.92
X137.58Y-111.55
X137.668Y-91.44
X137.67Y-105.78
X138.08Y-120.24
X138.08Y-118.74
X138.1Y-114.18
X138.23Y-117.49
X138.684Y-100.076
X139.18Y-117.48
X139.61Y-100.62
X139.7Y-88.9
X139.7Y-93.98
X139.7Y-129.54
X140.208Y-110.744
X140.573Y-125.282
X141.525Y-107.525
X141.732Y-112.268
X142.63Y-124.72
X142.642Y-84.962
X142.73Y-81.54
X143.225Y-113.895
X143.764Y-108.204
X143.858Y-128.857
X143.9Y-117.51
X144.01Y-86.28
X144.27Y-125.779
X144.78Y-93.98
X144.84Y-107.55
X145.45Y-106.16
X145.67Y-117.7
X145.69Y-102.6
X145.755Y-121.84
X146.14Y-85.01
X146.304Y-101.6
X146.46Y-104.96
X147.32Y-81.28
X147.32Y-86.36
X147.32Y-91.44
X147.32Y-127.0
X147.32Y-132.08
X147.53Y-102.12
X147.828Y-100.584
X148.336Y-121.92
X149.01Y-105.85
X149.02Y-102.12
X149.308Y-98.74
X149.37Y-97.14
X149.775Y-122.775
X149.86Y-78.74
X149.86Y-83.82
X149.86Y-119.888
X149.86Y-129.54
X150.0Y-116.32
X150.05Y-117.83
X150.05Y-126.925
X150.07Y-114.81
X150.3Y-106.59
X151.175Y-91.675
X151.892Y-131.572
X152.16Y-117.78
X152.4Y-81.28
X152.95Y-102.41
X153.125Y-89.55
X154.41Y-99.06
X154.432Y-92.456
X154.94Y-129.54
X155.337Y-107.59
X155.44Y-103.875
X155.448Y-114.808
X155.448Y-119.38
X155.956Y-88.9
X156.47Y-107.267
X156.98Y-103.93
X157.48Y-81.28
X157.48Y-86.36
X157.48Y-91.44
X157.48Y-96.52
X157.48Y-101.092
X157.48Y-116.84
X157.48Y-121.92
X157.48Y-127.0
X158.72Y-116.214
X159.425Y-115.332
X159.5Y-84.075
X160.02Y-88.9
X160.02Y-99.06
X160.02Y-124.46
X160.06Y-103.93
X160.193Y-96.396
X160.532Y-94.41
X161.268Y-114.821
X162.56Y-86.36
X162.56Y-91.44
X162.56Y-111.76
X162.56Y-121.92
X162.95Y-105.3
X163.445Y-93.1
X163.89Y-116.52
X166.27Y-97.48
X166.525Y-110.375
X166.78Y-101.76
X166.79Y-108.1
X166.81Y-103.51
X166.92Y-106.27
X167.325Y-104.925
X167.64Y-96.52
X167.64Y-113.792
X167.75Y-109.42
X167.8Y-99.83
X168.95Y-99.425
X169.315Y-111.835
X170.688Y-104.648
T2
X139.17Y-110.06
X140.66Y-112.6
X146.3Y-116.31
X146.31Y-114.86
X149.835Y-124.055
X149.94Y-125.64
X151.03Y-104.525
X152.12Y-128.19
X152.15Y-121.72
X156.106Y-125.275
X156.684Y-124.459
X160.997Y-97.353
T4
X146.81Y-89.81
X149.01Y-88.54
X151.21Y-87.27
X151.65Y-97.39
X151.65Y-99.93
X153.409Y-86.0
X155.609Y-84.73
X156.892Y-111.96
X159.432Y-111.96
T3
X165.44Y-100.6G85X166.24Y-100.6
G05
X165.44Y-109.24G85X166.24Y-109.24
G05
X169.24Y-100.6G85X170.44Y-100.6
G05
X169.24Y-109.24G85X170.44Y-109.24
G05
M30
