%TF.GenerationSoftware,KiCad,Pcbnew,8.0.6*%
%TF.CreationDate,2025-05-06T14:41:08+02:00*%
%TF.ProjectId,capacitance,63617061-6369-4746-916e-63652e6b6963,rev?*%
%TF.SameCoordinates,Original*%
%TF.FileFunction,Drillmap*%
%TF.FilePolarity,Positive*%
%FSLAX45Y45*%
G04 Gerber Fmt 4.5, Leading zero omitted, Abs format (unit mm)*
G04 Created by KiCad (PCBNEW 8.0.6) date 2025-05-06 14:41:08*
%MOMM*%
%LPD*%
G01*
G04 APERTURE LIST*
%ADD10C,0.100000*%
%ADD11C,0.200000*%
G04 APERTURE END LIST*
D10*
X17291619Y-10520381D02*
G75*
G02*
X11408381Y-10520381I-2941619J0D01*
G01*
X11408381Y-10520381D02*
G75*
G02*
X17291619Y-10520381I2941619J0D01*
G01*
D11*
D10*
X11622500Y-10090000D02*
X11652500Y-10120000D01*
X11652500Y-10090000D02*
X11622500Y-10120000D01*
X11669000Y-9637000D02*
X11699000Y-9667000D01*
X11699000Y-9637000D02*
X11669000Y-9667000D01*
X11669000Y-11161000D02*
X11699000Y-11191000D01*
X11699000Y-11161000D02*
X11669000Y-11191000D01*
X11685500Y-10920000D02*
X11715500Y-10950000D01*
X11715500Y-10920000D02*
X11685500Y-10950000D01*
X11923000Y-11415000D02*
X11953000Y-11445000D01*
X11953000Y-11415000D02*
X11923000Y-11445000D01*
X12095000Y-10002500D02*
X12125000Y-10032500D01*
X12125000Y-10002500D02*
X12095000Y-10032500D01*
X12177000Y-9637000D02*
X12207000Y-9667000D01*
X12207000Y-9637000D02*
X12177000Y-9667000D01*
X12177000Y-10145000D02*
X12207000Y-10175000D01*
X12207000Y-10145000D02*
X12177000Y-10175000D01*
X12177000Y-10653000D02*
X12207000Y-10683000D01*
X12207000Y-10653000D02*
X12177000Y-10683000D01*
X12177000Y-12177000D02*
X12207000Y-12207000D01*
X12207000Y-12177000D02*
X12177000Y-12207000D01*
X12245194Y-9380511D02*
X12275194Y-9410511D01*
X12275194Y-9380511D02*
X12245194Y-9410511D01*
X12300674Y-11713972D02*
X12330674Y-11743972D01*
X12330674Y-11713972D02*
X12300674Y-11743972D01*
X12375000Y-8592500D02*
X12405000Y-8622500D01*
X12405000Y-8592500D02*
X12375000Y-8622500D01*
X12417000Y-11262000D02*
X12447000Y-11292000D01*
X12447000Y-11262000D02*
X12417000Y-11292000D01*
X12431000Y-8875000D02*
X12461000Y-8905000D01*
X12461000Y-8875000D02*
X12431000Y-8905000D01*
X12431000Y-9941800D02*
X12461000Y-9971800D01*
X12461000Y-9941800D02*
X12431000Y-9971800D01*
X12431000Y-10399000D02*
X12461000Y-10429000D01*
X12461000Y-10399000D02*
X12431000Y-10429000D01*
X12431000Y-12431000D02*
X12461000Y-12461000D01*
X12461000Y-12431000D02*
X12431000Y-12461000D01*
X12520378Y-9566791D02*
X12550378Y-9596791D01*
X12550378Y-9566791D02*
X12520378Y-9596791D01*
X12573000Y-11578000D02*
X12603000Y-11608000D01*
X12603000Y-11578000D02*
X12573000Y-11608000D01*
X12615004Y-11390267D02*
X12645004Y-11420267D01*
X12645004Y-11390267D02*
X12615004Y-11420267D01*
X12629662Y-10496000D02*
X12659662Y-10526000D01*
X12659662Y-10496000D02*
X12629662Y-10526000D01*
X12629662Y-10569000D02*
X12659662Y-10599000D01*
X12659662Y-10569000D02*
X12629662Y-10599000D01*
X12629662Y-10631500D02*
X12659662Y-10661500D01*
X12659662Y-10631500D02*
X12629662Y-10661500D01*
X12629662Y-10707059D02*
X12659662Y-10737059D01*
X12659662Y-10707059D02*
X12629662Y-10737059D01*
X12629662Y-10769559D02*
X12659662Y-10799559D01*
X12659662Y-10769559D02*
X12629662Y-10799559D01*
X12629662Y-10829000D02*
X12659662Y-10859000D01*
X12659662Y-10829000D02*
X12629662Y-10859000D01*
X12629662Y-10891662D02*
X12659662Y-10921662D01*
X12659662Y-10891662D02*
X12629662Y-10921662D01*
X12629662Y-10957000D02*
X12659662Y-10987000D01*
X12659662Y-10957000D02*
X12629662Y-10987000D01*
X12629662Y-11034000D02*
X12659662Y-11064000D01*
X12659662Y-11034000D02*
X12629662Y-11064000D01*
X12629662Y-11102662D02*
X12659662Y-11132662D01*
X12659662Y-11102662D02*
X12629662Y-11132662D01*
X12637000Y-11175000D02*
X12667000Y-11205000D01*
X12667000Y-11175000D02*
X12637000Y-11205000D01*
X12685000Y-8621000D02*
X12715000Y-8651000D01*
X12715000Y-8621000D02*
X12685000Y-8651000D01*
X12685000Y-10145000D02*
X12715000Y-10175000D01*
X12715000Y-10145000D02*
X12685000Y-10175000D01*
X12685000Y-12177000D02*
X12715000Y-12207000D01*
X12715000Y-12177000D02*
X12685000Y-12207000D01*
X12690000Y-10732500D02*
X12720000Y-10762500D01*
X12720000Y-10732500D02*
X12690000Y-10762500D01*
X12697000Y-11235000D02*
X12727000Y-11265000D01*
X12727000Y-11235000D02*
X12697000Y-11265000D01*
X12707000Y-10492000D02*
X12737000Y-10522000D01*
X12737000Y-10492000D02*
X12707000Y-10522000D01*
X12746043Y-9535069D02*
X12776043Y-9565069D01*
X12776043Y-9535069D02*
X12746043Y-9565069D01*
X12747803Y-9407287D02*
X12777803Y-9437287D01*
X12777803Y-9407287D02*
X12747803Y-9437287D01*
X12750000Y-11288000D02*
X12780000Y-11318000D01*
X12780000Y-11288000D02*
X12750000Y-11318000D01*
X12759500Y-10732500D02*
X12789500Y-10762500D01*
X12789500Y-10732500D02*
X12759500Y-10762500D01*
X12777000Y-10492000D02*
X12807000Y-10522000D01*
X12807000Y-10492000D02*
X12777000Y-10522000D01*
X12819000Y-11290000D02*
X12849000Y-11320000D01*
X12849000Y-11290000D02*
X12819000Y-11320000D01*
X12822000Y-10732500D02*
X12852000Y-10762500D01*
X12852000Y-10732500D02*
X12822000Y-10762500D01*
X12835000Y-10492000D02*
X12865000Y-10522000D01*
X12865000Y-10492000D02*
X12835000Y-10522000D01*
X12836000Y-10116000D02*
X12866000Y-10146000D01*
X12866000Y-10116000D02*
X12836000Y-10146000D01*
X12836000Y-10209000D02*
X12866000Y-10239000D01*
X12866000Y-10209000D02*
X12836000Y-10239000D01*
X12836000Y-10294000D02*
X12866000Y-10324000D01*
X12866000Y-10294000D02*
X12836000Y-10324000D01*
X12836000Y-10368000D02*
X12866000Y-10398000D01*
X12866000Y-10368000D02*
X12836000Y-10398000D01*
X12836000Y-10434000D02*
X12866000Y-10464000D01*
X12866000Y-10434000D02*
X12836000Y-10464000D01*
X12839500Y-10028500D02*
X12869500Y-10058500D01*
X12869500Y-10028500D02*
X12839500Y-10058500D01*
X12887000Y-11290000D02*
X12917000Y-11320000D01*
X12917000Y-11290000D02*
X12887000Y-11320000D01*
X12888200Y-8367000D02*
X12918200Y-8397000D01*
X12918200Y-8367000D02*
X12888200Y-8397000D01*
X12900000Y-10732500D02*
X12930000Y-10762500D01*
X12930000Y-10732500D02*
X12900000Y-10762500D01*
X12919000Y-10027000D02*
X12949000Y-10057000D01*
X12949000Y-10027000D02*
X12919000Y-10057000D01*
X12939000Y-8875000D02*
X12969000Y-8905000D01*
X12969000Y-8875000D02*
X12939000Y-8905000D01*
X12939000Y-9383000D02*
X12969000Y-9413000D01*
X12969000Y-9383000D02*
X12939000Y-9413000D01*
X12939000Y-11923000D02*
X12969000Y-11953000D01*
X12969000Y-11923000D02*
X12939000Y-11953000D01*
X12939000Y-12431000D02*
X12969000Y-12461000D01*
X12969000Y-12431000D02*
X12939000Y-12461000D01*
X12948000Y-11289000D02*
X12978000Y-11319000D01*
X12978000Y-11289000D02*
X12948000Y-11319000D01*
X12974000Y-10732500D02*
X13004000Y-10762500D01*
X13004000Y-10732500D02*
X12974000Y-10762500D01*
X12989800Y-12939000D02*
X13019800Y-12969000D01*
X13019800Y-12939000D02*
X12989800Y-12969000D01*
X12998000Y-10027000D02*
X13028000Y-10057000D01*
X13028000Y-10027000D02*
X12998000Y-10057000D01*
X13013000Y-11287000D02*
X13043000Y-11317000D01*
X13043000Y-11287000D02*
X13013000Y-11317000D01*
X13040000Y-10732500D02*
X13070000Y-10762500D01*
X13070000Y-10732500D02*
X13040000Y-10762500D01*
X13055000Y-8487000D02*
X13085000Y-8517000D01*
X13085000Y-8487000D02*
X13055000Y-8517000D01*
X13072000Y-8271000D02*
X13102000Y-8301000D01*
X13102000Y-8271000D02*
X13072000Y-8301000D01*
X13078000Y-11288000D02*
X13108000Y-11318000D01*
X13108000Y-11288000D02*
X13078000Y-11318000D01*
X13088000Y-10027000D02*
X13118000Y-10057000D01*
X13118000Y-10027000D02*
X13088000Y-10057000D01*
X13107000Y-10732500D02*
X13137000Y-10762500D01*
X13137000Y-10732500D02*
X13107000Y-10762500D01*
X13142000Y-11284000D02*
X13172000Y-11314000D01*
X13172000Y-11284000D02*
X13142000Y-11314000D01*
X13170000Y-10027000D02*
X13200000Y-10057000D01*
X13200000Y-10027000D02*
X13170000Y-10057000D01*
X13185000Y-10732500D02*
X13215000Y-10762500D01*
X13215000Y-10732500D02*
X13185000Y-10762500D01*
X13187000Y-11235000D02*
X13217000Y-11265000D01*
X13217000Y-11235000D02*
X13187000Y-11265000D01*
X13193000Y-8113000D02*
X13223000Y-8143000D01*
X13223000Y-8113000D02*
X13193000Y-8143000D01*
X13193000Y-9129000D02*
X13223000Y-9159000D01*
X13223000Y-9129000D02*
X13193000Y-9159000D01*
X13193000Y-9637000D02*
X13223000Y-9667000D01*
X13223000Y-9637000D02*
X13193000Y-9667000D01*
X13193000Y-12177000D02*
X13223000Y-12207000D01*
X13223000Y-12177000D02*
X13193000Y-12207000D01*
X13201000Y-10866000D02*
X13231000Y-10896000D01*
X13231000Y-10866000D02*
X13201000Y-10896000D01*
X13237000Y-10027000D02*
X13267000Y-10057000D01*
X13267000Y-10027000D02*
X13237000Y-10057000D01*
X13238500Y-11183500D02*
X13268500Y-11213500D01*
X13268500Y-11183500D02*
X13238500Y-11213500D01*
X13253500Y-10732500D02*
X13283500Y-10762500D01*
X13283500Y-10732500D02*
X13253500Y-10762500D01*
X13289500Y-11132500D02*
X13319500Y-11162500D01*
X13319500Y-11132500D02*
X13289500Y-11162500D01*
X13303000Y-10027000D02*
X13333000Y-10057000D01*
X13333000Y-10027000D02*
X13303000Y-10057000D01*
X13342500Y-11079500D02*
X13372500Y-11109500D01*
X13372500Y-11079500D02*
X13342500Y-11109500D01*
X13349500Y-10066500D02*
X13379500Y-10096500D01*
X13379500Y-10066500D02*
X13349500Y-10096500D01*
X13361194Y-10923806D02*
X13391194Y-10953806D01*
X13391194Y-10923806D02*
X13361194Y-10953806D01*
X13361194Y-11008806D02*
X13391194Y-11038806D01*
X13391194Y-11008806D02*
X13361194Y-11038806D01*
X13371000Y-10130000D02*
X13401000Y-10160000D01*
X13401000Y-10130000D02*
X13371000Y-10160000D01*
X13371000Y-10199000D02*
X13401000Y-10229000D01*
X13401000Y-10199000D02*
X13371000Y-10229000D01*
X13371000Y-10266000D02*
X13401000Y-10296000D01*
X13401000Y-10266000D02*
X13371000Y-10296000D01*
X13371000Y-10596000D02*
X13401000Y-10626000D01*
X13401000Y-10596000D02*
X13371000Y-10626000D01*
X13372000Y-10401000D02*
X13402000Y-10431000D01*
X13402000Y-10401000D02*
X13372000Y-10431000D01*
X13372000Y-10527000D02*
X13402000Y-10557000D01*
X13402000Y-10527000D02*
X13372000Y-10557000D01*
X13373000Y-10340000D02*
X13403000Y-10370000D01*
X13403000Y-10340000D02*
X13373000Y-10370000D01*
X13374000Y-10466000D02*
X13404000Y-10496000D01*
X13404000Y-10466000D02*
X13374000Y-10496000D01*
X13433000Y-11509000D02*
X13463000Y-11539000D01*
X13463000Y-11509000D02*
X13433000Y-11539000D01*
X13433000Y-11881000D02*
X13463000Y-11911000D01*
X13463000Y-11881000D02*
X13433000Y-11911000D01*
X13446000Y-8876000D02*
X13476000Y-8906000D01*
X13476000Y-8876000D02*
X13446000Y-8906000D01*
X13447000Y-7859000D02*
X13477000Y-7889000D01*
X13477000Y-7859000D02*
X13447000Y-7889000D01*
X13447000Y-9383000D02*
X13477000Y-9413000D01*
X13477000Y-9383000D02*
X13447000Y-9413000D01*
X13447000Y-12481800D02*
X13477000Y-12511800D01*
X13477000Y-12481800D02*
X13447000Y-12511800D01*
X13447000Y-12939000D02*
X13477000Y-12969000D01*
X13477000Y-12939000D02*
X13447000Y-12969000D01*
X13529000Y-10322000D02*
X13559000Y-10352000D01*
X13559000Y-10322000D02*
X13529000Y-10352000D01*
X13530000Y-10413000D02*
X13560000Y-10443000D01*
X13560000Y-10413000D02*
X13530000Y-10443000D01*
X13530000Y-10506000D02*
X13560000Y-10536000D01*
X13560000Y-10506000D02*
X13530000Y-10536000D01*
X13541000Y-9941000D02*
X13571000Y-9971000D01*
X13571000Y-9941000D02*
X13541000Y-9971000D01*
X13548600Y-8925800D02*
X13578600Y-8955800D01*
X13578600Y-8925800D02*
X13548600Y-8955800D01*
X13593000Y-11862000D02*
X13623000Y-11892000D01*
X13623000Y-11862000D02*
X13593000Y-11892000D01*
X13637000Y-10322000D02*
X13667000Y-10352000D01*
X13667000Y-10322000D02*
X13637000Y-10352000D01*
X13639000Y-10410000D02*
X13669000Y-10440000D01*
X13669000Y-10410000D02*
X13639000Y-10440000D01*
X13644000Y-10506000D02*
X13674000Y-10536000D01*
X13674000Y-10506000D02*
X13644000Y-10536000D01*
X13694000Y-9940000D02*
X13724000Y-9970000D01*
X13724000Y-9940000D02*
X13694000Y-9970000D01*
X13695000Y-11860000D02*
X13725000Y-11890000D01*
X13725000Y-11860000D02*
X13695000Y-11890000D01*
X13701000Y-8113000D02*
X13731000Y-8143000D01*
X13731000Y-8113000D02*
X13701000Y-8143000D01*
X13701000Y-9637000D02*
X13731000Y-9667000D01*
X13731000Y-9637000D02*
X13701000Y-9667000D01*
X13701000Y-12177000D02*
X13731000Y-12207000D01*
X13731000Y-12177000D02*
X13701000Y-12207000D01*
X13701000Y-12685000D02*
X13731000Y-12715000D01*
X13731000Y-12685000D02*
X13701000Y-12715000D01*
X13701000Y-13193000D02*
X13731000Y-13223000D01*
X13731000Y-13193000D02*
X13701000Y-13223000D01*
X13708000Y-8274000D02*
X13738000Y-8304000D01*
X13738000Y-8274000D02*
X13708000Y-8304000D01*
X13714000Y-8489000D02*
X13744000Y-8519000D01*
X13744000Y-8489000D02*
X13714000Y-8519000D01*
X13714000Y-11733000D02*
X13744000Y-11763000D01*
X13744000Y-11733000D02*
X13714000Y-11763000D01*
X13721000Y-8677000D02*
X13751000Y-8707000D01*
X13751000Y-8677000D02*
X13721000Y-8707000D01*
X13743000Y-11140000D02*
X13773000Y-11170000D01*
X13773000Y-11140000D02*
X13743000Y-11170000D01*
X13751800Y-9129000D02*
X13781800Y-9159000D01*
X13781800Y-9129000D02*
X13751800Y-9159000D01*
X13752000Y-10563000D02*
X13782000Y-10593000D01*
X13782000Y-10563000D02*
X13752000Y-10593000D01*
X13793000Y-12009000D02*
X13823000Y-12039000D01*
X13823000Y-12009000D02*
X13793000Y-12039000D01*
X13793000Y-11859000D02*
X13823000Y-11889000D01*
X13823000Y-11859000D02*
X13793000Y-11889000D01*
X13795000Y-11403000D02*
X13825000Y-11433000D01*
X13825000Y-11403000D02*
X13795000Y-11433000D01*
X13808000Y-11734000D02*
X13838000Y-11764000D01*
X13838000Y-11734000D02*
X13808000Y-11764000D01*
X13853400Y-9992600D02*
X13883400Y-10022600D01*
X13883400Y-9992600D02*
X13853400Y-10022600D01*
X13903000Y-11733000D02*
X13933000Y-11763000D01*
X13933000Y-11733000D02*
X13903000Y-11763000D01*
X13946000Y-10047000D02*
X13976000Y-10077000D01*
X13976000Y-10047000D02*
X13946000Y-10077000D01*
X13955000Y-8875000D02*
X13985000Y-8905000D01*
X13985000Y-8875000D02*
X13955000Y-8905000D01*
X13955000Y-9383000D02*
X13985000Y-9413000D01*
X13985000Y-9383000D02*
X13955000Y-9413000D01*
X13955000Y-12939000D02*
X13985000Y-12969000D01*
X13985000Y-12939000D02*
X13955000Y-12969000D01*
X14005800Y-11059400D02*
X14035800Y-11089400D01*
X14035800Y-11059400D02*
X14005800Y-11089400D01*
X14042335Y-12513170D02*
X14072335Y-12543170D01*
X14072335Y-12513170D02*
X14042335Y-12543170D01*
X14137500Y-10737500D02*
X14167500Y-10767500D01*
X14167500Y-10737500D02*
X14137500Y-10767500D01*
X14158200Y-11211800D02*
X14188200Y-11241800D01*
X14188200Y-11211800D02*
X14158200Y-11241800D01*
X14248000Y-12457000D02*
X14278000Y-12487000D01*
X14278000Y-12457000D02*
X14248000Y-12487000D01*
X14249244Y-8481244D02*
X14279244Y-8511244D01*
X14279244Y-8481244D02*
X14249244Y-8511244D01*
X14258000Y-8139000D02*
X14288000Y-8169000D01*
X14288000Y-8139000D02*
X14258000Y-8169000D01*
X14307500Y-11374500D02*
X14337500Y-11404500D01*
X14337500Y-11374500D02*
X14307500Y-11404500D01*
X14361400Y-10805400D02*
X14391400Y-10835400D01*
X14391400Y-10805400D02*
X14361400Y-10835400D01*
X14370835Y-12870670D02*
X14400835Y-12900670D01*
X14400835Y-12870670D02*
X14370835Y-12900670D01*
X14375000Y-11736000D02*
X14405000Y-11766000D01*
X14405000Y-11736000D02*
X14375000Y-11766000D01*
X14386000Y-8613000D02*
X14416000Y-8643000D01*
X14416000Y-8613000D02*
X14386000Y-8643000D01*
X14412025Y-12562860D02*
X14442025Y-12592860D01*
X14442025Y-12562860D02*
X14412025Y-12592860D01*
X14463000Y-9383000D02*
X14493000Y-9413000D01*
X14493000Y-9383000D02*
X14463000Y-9413000D01*
X14469000Y-10740000D02*
X14499000Y-10770000D01*
X14499000Y-10740000D02*
X14469000Y-10770000D01*
X14530000Y-10601000D02*
X14560000Y-10631000D01*
X14560000Y-10601000D02*
X14530000Y-10631000D01*
X14552000Y-11755000D02*
X14582000Y-11785000D01*
X14582000Y-11755000D02*
X14552000Y-11785000D01*
X14554000Y-10245000D02*
X14584000Y-10275000D01*
X14584000Y-10245000D02*
X14554000Y-10275000D01*
X14560500Y-12169000D02*
X14590500Y-12199000D01*
X14590500Y-12169000D02*
X14560500Y-12199000D01*
X14599000Y-8486000D02*
X14629000Y-8516000D01*
X14629000Y-8486000D02*
X14599000Y-8516000D01*
X14615400Y-10145000D02*
X14645400Y-10175000D01*
X14645400Y-10145000D02*
X14615400Y-10175000D01*
X14631000Y-10481000D02*
X14661000Y-10511000D01*
X14661000Y-10481000D02*
X14631000Y-10511000D01*
X14717000Y-8113000D02*
X14747000Y-8143000D01*
X14747000Y-8113000D02*
X14717000Y-8143000D01*
X14717000Y-8621000D02*
X14747000Y-8651000D01*
X14747000Y-8621000D02*
X14717000Y-8651000D01*
X14717000Y-9129000D02*
X14747000Y-9159000D01*
X14747000Y-9129000D02*
X14717000Y-9159000D01*
X14717000Y-12685000D02*
X14747000Y-12715000D01*
X14747000Y-12685000D02*
X14717000Y-12715000D01*
X14717000Y-13193000D02*
X14747000Y-13223000D01*
X14747000Y-13193000D02*
X14717000Y-13223000D01*
X14738000Y-10197000D02*
X14768000Y-10227000D01*
X14768000Y-10197000D02*
X14738000Y-10227000D01*
X14767800Y-10043400D02*
X14797800Y-10073400D01*
X14797800Y-10043400D02*
X14767800Y-10073400D01*
X14818600Y-12177000D02*
X14848600Y-12207000D01*
X14848600Y-12177000D02*
X14818600Y-12207000D01*
X14886000Y-10570000D02*
X14916000Y-10600000D01*
X14916000Y-10570000D02*
X14886000Y-10600000D01*
X14887000Y-10197000D02*
X14917000Y-10227000D01*
X14917000Y-10197000D02*
X14887000Y-10227000D01*
X14915750Y-9859000D02*
X14945750Y-9889000D01*
X14945750Y-9859000D02*
X14915750Y-9889000D01*
X14922000Y-9699000D02*
X14952000Y-9729000D01*
X14952000Y-9699000D02*
X14922000Y-9729000D01*
X14962500Y-12262500D02*
X14992500Y-12292500D01*
X14992500Y-12262500D02*
X14962500Y-12292500D01*
X14971000Y-7859000D02*
X15001000Y-7889000D01*
X15001000Y-7859000D02*
X14971000Y-7889000D01*
X14971000Y-8367000D02*
X15001000Y-8397000D01*
X15001000Y-8367000D02*
X14971000Y-8397000D01*
X14971000Y-11973800D02*
X15001000Y-12003800D01*
X15001000Y-11973800D02*
X14971000Y-12003800D01*
X14971000Y-12939000D02*
X15001000Y-12969000D01*
X15001000Y-12939000D02*
X14971000Y-12969000D01*
X14985000Y-11617000D02*
X15015000Y-11647000D01*
X15015000Y-11617000D02*
X14985000Y-11647000D01*
X14990000Y-11768000D02*
X15020000Y-11798000D01*
X15020000Y-11768000D02*
X14990000Y-11798000D01*
X14990000Y-12677500D02*
X15020000Y-12707500D01*
X15020000Y-12677500D02*
X14990000Y-12707500D01*
X14992000Y-11466000D02*
X15022000Y-11496000D01*
X15022000Y-11466000D02*
X14992000Y-11496000D01*
X15015000Y-10644000D02*
X15045000Y-10674000D01*
X15045000Y-10644000D02*
X15015000Y-10674000D01*
X15102500Y-9152500D02*
X15132500Y-9182500D01*
X15132500Y-9152500D02*
X15102500Y-9182500D01*
X15174200Y-13142200D02*
X15204200Y-13172200D01*
X15204200Y-13142200D02*
X15174200Y-13172200D01*
X15201000Y-11763000D02*
X15231000Y-11793000D01*
X15231000Y-11763000D02*
X15201000Y-11793000D01*
X15225000Y-8113000D02*
X15255000Y-8143000D01*
X15255000Y-8113000D02*
X15225000Y-8143000D01*
X15280000Y-10226000D02*
X15310000Y-10256000D01*
X15310000Y-10226000D02*
X15280000Y-10256000D01*
X15297500Y-8940000D02*
X15327500Y-8970000D01*
X15327500Y-8940000D02*
X15297500Y-8970000D01*
X15426000Y-9891000D02*
X15456000Y-9921000D01*
X15456000Y-9891000D02*
X15426000Y-9921000D01*
X15428200Y-9230600D02*
X15458200Y-9260600D01*
X15458200Y-9230600D02*
X15428200Y-9260600D01*
X15479000Y-12939000D02*
X15509000Y-12969000D01*
X15509000Y-12939000D02*
X15479000Y-12969000D01*
X15518749Y-10744000D02*
X15548749Y-10774000D01*
X15548749Y-10744000D02*
X15518749Y-10774000D01*
X15529000Y-10372501D02*
X15559000Y-10402501D01*
X15559000Y-10372501D02*
X15529000Y-10402501D01*
X15529800Y-11465800D02*
X15559800Y-11495800D01*
X15559800Y-11465800D02*
X15529800Y-11495800D01*
X15529800Y-11923000D02*
X15559800Y-11953000D01*
X15559800Y-11923000D02*
X15529800Y-11953000D01*
X15580600Y-8875000D02*
X15610600Y-8905000D01*
X15610600Y-8875000D02*
X15580600Y-8905000D01*
X15632000Y-10711749D02*
X15662000Y-10741749D01*
X15662000Y-10711749D02*
X15632000Y-10741749D01*
X15683000Y-10378000D02*
X15713000Y-10408000D01*
X15713000Y-10378000D02*
X15683000Y-10408000D01*
X15733000Y-8113000D02*
X15763000Y-8143000D01*
X15763000Y-8113000D02*
X15733000Y-8143000D01*
X15733000Y-8621000D02*
X15763000Y-8651000D01*
X15763000Y-8621000D02*
X15733000Y-8651000D01*
X15733000Y-9129000D02*
X15763000Y-9159000D01*
X15763000Y-9129000D02*
X15733000Y-9159000D01*
X15733000Y-9637000D02*
X15763000Y-9667000D01*
X15763000Y-9637000D02*
X15733000Y-9667000D01*
X15733000Y-10094200D02*
X15763000Y-10124200D01*
X15763000Y-10094200D02*
X15733000Y-10124200D01*
X15733000Y-11669000D02*
X15763000Y-11699000D01*
X15763000Y-11669000D02*
X15733000Y-11699000D01*
X15733000Y-12177000D02*
X15763000Y-12207000D01*
X15763000Y-12177000D02*
X15733000Y-12207000D01*
X15733000Y-12685000D02*
X15763000Y-12715000D01*
X15763000Y-12685000D02*
X15733000Y-12715000D01*
X15857030Y-11606416D02*
X15887030Y-11636416D01*
X15887030Y-11606416D02*
X15857030Y-11636416D01*
X15927460Y-11518179D02*
X15957460Y-11548179D01*
X15957460Y-11518179D02*
X15927460Y-11548179D01*
X15935000Y-8392500D02*
X15965000Y-8422500D01*
X15965000Y-8392500D02*
X15935000Y-8422500D01*
X15987000Y-8875000D02*
X16017000Y-8905000D01*
X16017000Y-8875000D02*
X15987000Y-8905000D01*
X15987000Y-9891000D02*
X16017000Y-9921000D01*
X16017000Y-9891000D02*
X15987000Y-9921000D01*
X15987000Y-12431000D02*
X16017000Y-12461000D01*
X16017000Y-12431000D02*
X15987000Y-12461000D01*
X15991000Y-10378000D02*
X16021000Y-10408000D01*
X16021000Y-10378000D02*
X15991000Y-10408000D01*
X16004311Y-9624609D02*
X16034311Y-9654609D01*
X16034311Y-9624609D02*
X16004311Y-9654609D01*
X16038154Y-9426027D02*
X16068154Y-9456027D01*
X16068154Y-9426027D02*
X16038154Y-9456027D01*
X16111800Y-11467143D02*
X16141800Y-11497143D01*
X16141800Y-11467143D02*
X16111800Y-11497143D01*
X16241000Y-8621000D02*
X16271000Y-8651000D01*
X16271000Y-8621000D02*
X16241000Y-8651000D01*
X16241000Y-9129000D02*
X16271000Y-9159000D01*
X16271000Y-9129000D02*
X16241000Y-9159000D01*
X16241000Y-11161000D02*
X16271000Y-11191000D01*
X16271000Y-11161000D02*
X16241000Y-11191000D01*
X16241000Y-12177000D02*
X16271000Y-12207000D01*
X16271000Y-12177000D02*
X16241000Y-12207000D01*
X16280000Y-10515000D02*
X16310000Y-10545000D01*
X16310000Y-10515000D02*
X16280000Y-10545000D01*
X16329457Y-9294962D02*
X16359457Y-9324962D01*
X16359457Y-9294962D02*
X16329457Y-9324962D01*
X16374000Y-11637000D02*
X16404000Y-11667000D01*
X16404000Y-11637000D02*
X16374000Y-11667000D01*
X16612000Y-9733000D02*
X16642000Y-9763000D01*
X16642000Y-9733000D02*
X16612000Y-9763000D01*
X16637500Y-11022500D02*
X16667500Y-11052500D01*
X16667500Y-11022500D02*
X16637500Y-11052500D01*
X16663000Y-10161000D02*
X16693000Y-10191000D01*
X16693000Y-10161000D02*
X16663000Y-10191000D01*
X16664000Y-10795000D02*
X16694000Y-10825000D01*
X16694000Y-10795000D02*
X16664000Y-10825000D01*
X16666000Y-10336000D02*
X16696000Y-10366000D01*
X16696000Y-10336000D02*
X16666000Y-10366000D01*
X16677000Y-10612000D02*
X16707000Y-10642000D01*
X16707000Y-10612000D02*
X16677000Y-10642000D01*
X16717500Y-10477500D02*
X16747500Y-10507500D01*
X16747500Y-10477500D02*
X16717500Y-10507500D01*
X16749000Y-9637000D02*
X16779000Y-9667000D01*
X16779000Y-9637000D02*
X16749000Y-9667000D01*
X16749000Y-11364200D02*
X16779000Y-11394200D01*
X16779000Y-11364200D02*
X16749000Y-11394200D01*
X16760000Y-10927000D02*
X16790000Y-10957000D01*
X16790000Y-10927000D02*
X16760000Y-10957000D01*
X16765000Y-9968000D02*
X16795000Y-9998000D01*
X16795000Y-9968000D02*
X16765000Y-9998000D01*
X16880000Y-9927500D02*
X16910000Y-9957500D01*
X16910000Y-9927500D02*
X16880000Y-9957500D01*
X16916499Y-11168501D02*
X16946499Y-11198501D01*
X16946499Y-11168501D02*
X16916499Y-11198501D01*
X17053800Y-10449800D02*
X17083800Y-10479800D01*
X17083800Y-10449800D02*
X17053800Y-10479800D01*
X13937000Y-11006000D02*
G75*
G02*
X13897000Y-11006000I-20000J0D01*
G01*
X13897000Y-11006000D02*
G75*
G02*
X13937000Y-11006000I20000J0D01*
G01*
X14086000Y-11260000D02*
G75*
G02*
X14046000Y-11260000I-20000J0D01*
G01*
X14046000Y-11260000D02*
G75*
G02*
X14086000Y-11260000I20000J0D01*
G01*
X14650000Y-11631000D02*
G75*
G02*
X14610000Y-11631000I-20000J0D01*
G01*
X14610000Y-11631000D02*
G75*
G02*
X14650000Y-11631000I20000J0D01*
G01*
X14651000Y-11486000D02*
G75*
G02*
X14611000Y-11486000I-20000J0D01*
G01*
X14611000Y-11486000D02*
G75*
G02*
X14651000Y-11486000I20000J0D01*
G01*
X15003500Y-12405500D02*
G75*
G02*
X14963500Y-12405500I-20000J0D01*
G01*
X14963500Y-12405500D02*
G75*
G02*
X15003500Y-12405500I20000J0D01*
G01*
X15014000Y-12564000D02*
G75*
G02*
X14974000Y-12564000I-20000J0D01*
G01*
X14974000Y-12564000D02*
G75*
G02*
X15014000Y-12564000I20000J0D01*
G01*
X15123000Y-10452500D02*
G75*
G02*
X15083000Y-10452500I-20000J0D01*
G01*
X15083000Y-10452500D02*
G75*
G02*
X15123000Y-10452500I20000J0D01*
G01*
X15232000Y-12819000D02*
G75*
G02*
X15192000Y-12819000I-20000J0D01*
G01*
X15192000Y-12819000D02*
G75*
G02*
X15232000Y-12819000I20000J0D01*
G01*
X15235000Y-12172000D02*
G75*
G02*
X15195000Y-12172000I-20000J0D01*
G01*
X15195000Y-12172000D02*
G75*
G02*
X15235000Y-12172000I20000J0D01*
G01*
X15630566Y-12527531D02*
G75*
G02*
X15590566Y-12527531I-20000J0D01*
G01*
X15590566Y-12527531D02*
G75*
G02*
X15630566Y-12527531I20000J0D01*
G01*
X15688396Y-12445949D02*
G75*
G02*
X15648396Y-12445949I-20000J0D01*
G01*
X15648396Y-12445949D02*
G75*
G02*
X15688396Y-12445949I20000J0D01*
G01*
X16119664Y-9735315D02*
G75*
G02*
X16079664Y-9735315I-20000J0D01*
G01*
X16079664Y-9735315D02*
G75*
G02*
X16119664Y-9735315I20000J0D01*
G01*
X16584000Y-10030000D02*
X16584000Y-10090000D01*
X16554000Y-10060000D02*
X16614000Y-10060000D01*
X16544000Y-10090000D02*
X16624000Y-10090000D01*
X16624000Y-10030000D02*
G75*
G02*
X16624000Y-10090000I0J-30000D01*
G01*
X16624000Y-10030000D02*
X16544000Y-10030000D01*
X16544000Y-10030000D02*
G75*
G03*
X16544000Y-10090000I0J-30000D01*
G01*
X16584000Y-10894000D02*
X16584000Y-10954000D01*
X16554000Y-10924000D02*
X16614000Y-10924000D01*
X16544000Y-10954000D02*
X16624000Y-10954000D01*
X16624000Y-10894000D02*
G75*
G02*
X16624000Y-10954000I0J-30000D01*
G01*
X16624000Y-10894000D02*
X16544000Y-10894000D01*
X16544000Y-10894000D02*
G75*
G03*
X16544000Y-10954000I0J-30000D01*
G01*
X16984000Y-10030000D02*
X16984000Y-10090000D01*
X16954000Y-10060000D02*
X17014000Y-10060000D01*
X16924000Y-10090000D02*
X17044000Y-10090000D01*
X17044000Y-10030000D02*
G75*
G02*
X17044000Y-10090000I0J-30000D01*
G01*
X17044000Y-10030000D02*
X16924000Y-10030000D01*
X16924000Y-10030000D02*
G75*
G03*
X16924000Y-10090000I0J-30000D01*
G01*
X16984000Y-10894000D02*
X16984000Y-10954000D01*
X16954000Y-10924000D02*
X17014000Y-10924000D01*
X16924000Y-10954000D02*
X17044000Y-10954000D01*
X17044000Y-10894000D02*
G75*
G02*
X17044000Y-10954000I0J-30000D01*
G01*
X17044000Y-10894000D02*
X16924000Y-10894000D01*
X16924000Y-10894000D02*
G75*
G03*
X16924000Y-10954000I0J-30000D01*
G01*
X14716385Y-9016356D02*
X14716385Y-8945644D01*
X14645674Y-8945644D01*
X14645674Y-9016356D01*
X14716385Y-9016356D01*
X14936356Y-8889356D02*
X14936356Y-8818644D01*
X14865644Y-8818644D01*
X14865644Y-8889356D01*
X14936356Y-8889356D01*
X15156326Y-8762356D02*
X15156326Y-8691644D01*
X15085615Y-8691644D01*
X15085615Y-8762356D01*
X15156326Y-8762356D01*
X15200356Y-9774356D02*
X15200356Y-9703644D01*
X15129644Y-9703644D01*
X15129644Y-9774356D01*
X15200356Y-9774356D01*
X15200358Y-10028356D02*
X15200358Y-9957644D01*
X15129646Y-9957644D01*
X15129646Y-10028356D01*
X15200358Y-10028356D01*
X15376297Y-8635356D02*
X15376297Y-8564644D01*
X15305585Y-8564644D01*
X15305585Y-8635356D01*
X15376297Y-8635356D01*
X15596267Y-8508356D02*
X15596267Y-8437644D01*
X15525556Y-8437644D01*
X15525556Y-8508356D01*
X15596267Y-8508356D01*
X15724606Y-11231355D02*
X15724606Y-11160643D01*
X15653894Y-11160643D01*
X15653894Y-11231355D01*
X15724606Y-11231355D01*
X15978605Y-11231353D02*
X15978605Y-11160642D01*
X15907894Y-11160642D01*
X15907894Y-11231353D01*
X15978605Y-11231353D01*
D11*
X11664157Y-13778484D02*
X11664157Y-13578484D01*
X11664157Y-13578484D02*
X11711776Y-13578484D01*
X11711776Y-13578484D02*
X11740348Y-13588008D01*
X11740348Y-13588008D02*
X11759396Y-13607055D01*
X11759396Y-13607055D02*
X11768919Y-13626103D01*
X11768919Y-13626103D02*
X11778443Y-13664198D01*
X11778443Y-13664198D02*
X11778443Y-13692770D01*
X11778443Y-13692770D02*
X11768919Y-13730865D01*
X11768919Y-13730865D02*
X11759396Y-13749912D01*
X11759396Y-13749912D02*
X11740348Y-13768960D01*
X11740348Y-13768960D02*
X11711776Y-13778484D01*
X11711776Y-13778484D02*
X11664157Y-13778484D01*
X11864157Y-13778484D02*
X11864157Y-13645150D01*
X11864157Y-13683246D02*
X11873681Y-13664198D01*
X11873681Y-13664198D02*
X11883205Y-13654674D01*
X11883205Y-13654674D02*
X11902253Y-13645150D01*
X11902253Y-13645150D02*
X11921300Y-13645150D01*
X11987967Y-13778484D02*
X11987967Y-13645150D01*
X11987967Y-13578484D02*
X11978443Y-13588008D01*
X11978443Y-13588008D02*
X11987967Y-13597531D01*
X11987967Y-13597531D02*
X11997491Y-13588008D01*
X11997491Y-13588008D02*
X11987967Y-13578484D01*
X11987967Y-13578484D02*
X11987967Y-13597531D01*
X12111776Y-13778484D02*
X12092729Y-13768960D01*
X12092729Y-13768960D02*
X12083205Y-13749912D01*
X12083205Y-13749912D02*
X12083205Y-13578484D01*
X12216538Y-13778484D02*
X12197491Y-13768960D01*
X12197491Y-13768960D02*
X12187967Y-13749912D01*
X12187967Y-13749912D02*
X12187967Y-13578484D01*
X12445110Y-13778484D02*
X12445110Y-13578484D01*
X12445110Y-13578484D02*
X12511777Y-13721341D01*
X12511777Y-13721341D02*
X12578443Y-13578484D01*
X12578443Y-13578484D02*
X12578443Y-13778484D01*
X12759396Y-13778484D02*
X12759396Y-13673722D01*
X12759396Y-13673722D02*
X12749872Y-13654674D01*
X12749872Y-13654674D02*
X12730824Y-13645150D01*
X12730824Y-13645150D02*
X12692729Y-13645150D01*
X12692729Y-13645150D02*
X12673681Y-13654674D01*
X12759396Y-13768960D02*
X12740348Y-13778484D01*
X12740348Y-13778484D02*
X12692729Y-13778484D01*
X12692729Y-13778484D02*
X12673681Y-13768960D01*
X12673681Y-13768960D02*
X12664157Y-13749912D01*
X12664157Y-13749912D02*
X12664157Y-13730865D01*
X12664157Y-13730865D02*
X12673681Y-13711817D01*
X12673681Y-13711817D02*
X12692729Y-13702293D01*
X12692729Y-13702293D02*
X12740348Y-13702293D01*
X12740348Y-13702293D02*
X12759396Y-13692770D01*
X12854634Y-13645150D02*
X12854634Y-13845150D01*
X12854634Y-13654674D02*
X12873681Y-13645150D01*
X12873681Y-13645150D02*
X12911777Y-13645150D01*
X12911777Y-13645150D02*
X12930824Y-13654674D01*
X12930824Y-13654674D02*
X12940348Y-13664198D01*
X12940348Y-13664198D02*
X12949872Y-13683246D01*
X12949872Y-13683246D02*
X12949872Y-13740389D01*
X12949872Y-13740389D02*
X12940348Y-13759436D01*
X12940348Y-13759436D02*
X12930824Y-13768960D01*
X12930824Y-13768960D02*
X12911777Y-13778484D01*
X12911777Y-13778484D02*
X12873681Y-13778484D01*
X12873681Y-13778484D02*
X12854634Y-13768960D01*
X13035586Y-13759436D02*
X13045110Y-13768960D01*
X13045110Y-13768960D02*
X13035586Y-13778484D01*
X13035586Y-13778484D02*
X13026062Y-13768960D01*
X13026062Y-13768960D02*
X13035586Y-13759436D01*
X13035586Y-13759436D02*
X13035586Y-13778484D01*
X13035586Y-13654674D02*
X13045110Y-13664198D01*
X13045110Y-13664198D02*
X13035586Y-13673722D01*
X13035586Y-13673722D02*
X13026062Y-13664198D01*
X13026062Y-13664198D02*
X13035586Y-13654674D01*
X13035586Y-13654674D02*
X13035586Y-13673722D01*
D10*
X11373381Y-14092000D02*
X11403381Y-14122000D01*
X11403381Y-14092000D02*
X11373381Y-14122000D01*
D11*
X11702253Y-13998484D02*
X11721300Y-13998484D01*
X11721300Y-13998484D02*
X11740348Y-14008008D01*
X11740348Y-14008008D02*
X11749872Y-14017531D01*
X11749872Y-14017531D02*
X11759396Y-14036579D01*
X11759396Y-14036579D02*
X11768919Y-14074674D01*
X11768919Y-14074674D02*
X11768919Y-14122293D01*
X11768919Y-14122293D02*
X11759396Y-14160389D01*
X11759396Y-14160389D02*
X11749872Y-14179436D01*
X11749872Y-14179436D02*
X11740348Y-14188960D01*
X11740348Y-14188960D02*
X11721300Y-14198484D01*
X11721300Y-14198484D02*
X11702253Y-14198484D01*
X11702253Y-14198484D02*
X11683205Y-14188960D01*
X11683205Y-14188960D02*
X11673681Y-14179436D01*
X11673681Y-14179436D02*
X11664157Y-14160389D01*
X11664157Y-14160389D02*
X11654634Y-14122293D01*
X11654634Y-14122293D02*
X11654634Y-14074674D01*
X11654634Y-14074674D02*
X11664157Y-14036579D01*
X11664157Y-14036579D02*
X11673681Y-14017531D01*
X11673681Y-14017531D02*
X11683205Y-14008008D01*
X11683205Y-14008008D02*
X11702253Y-13998484D01*
X11854634Y-14179436D02*
X11864157Y-14188960D01*
X11864157Y-14188960D02*
X11854634Y-14198484D01*
X11854634Y-14198484D02*
X11845110Y-14188960D01*
X11845110Y-14188960D02*
X11854634Y-14179436D01*
X11854634Y-14179436D02*
X11854634Y-14198484D01*
X11930824Y-13998484D02*
X12054634Y-13998484D01*
X12054634Y-13998484D02*
X11987967Y-14074674D01*
X11987967Y-14074674D02*
X12016538Y-14074674D01*
X12016538Y-14074674D02*
X12035586Y-14084198D01*
X12035586Y-14084198D02*
X12045110Y-14093722D01*
X12045110Y-14093722D02*
X12054634Y-14112770D01*
X12054634Y-14112770D02*
X12054634Y-14160389D01*
X12054634Y-14160389D02*
X12045110Y-14179436D01*
X12045110Y-14179436D02*
X12035586Y-14188960D01*
X12035586Y-14188960D02*
X12016538Y-14198484D01*
X12016538Y-14198484D02*
X11959396Y-14198484D01*
X11959396Y-14198484D02*
X11940348Y-14188960D01*
X11940348Y-14188960D02*
X11930824Y-14179436D01*
X12178443Y-13998484D02*
X12197491Y-13998484D01*
X12197491Y-13998484D02*
X12216538Y-14008008D01*
X12216538Y-14008008D02*
X12226062Y-14017531D01*
X12226062Y-14017531D02*
X12235586Y-14036579D01*
X12235586Y-14036579D02*
X12245110Y-14074674D01*
X12245110Y-14074674D02*
X12245110Y-14122293D01*
X12245110Y-14122293D02*
X12235586Y-14160389D01*
X12235586Y-14160389D02*
X12226062Y-14179436D01*
X12226062Y-14179436D02*
X12216538Y-14188960D01*
X12216538Y-14188960D02*
X12197491Y-14198484D01*
X12197491Y-14198484D02*
X12178443Y-14198484D01*
X12178443Y-14198484D02*
X12159396Y-14188960D01*
X12159396Y-14188960D02*
X12149872Y-14179436D01*
X12149872Y-14179436D02*
X12140348Y-14160389D01*
X12140348Y-14160389D02*
X12130824Y-14122293D01*
X12130824Y-14122293D02*
X12130824Y-14074674D01*
X12130824Y-14074674D02*
X12140348Y-14036579D01*
X12140348Y-14036579D02*
X12149872Y-14017531D01*
X12149872Y-14017531D02*
X12159396Y-14008008D01*
X12159396Y-14008008D02*
X12178443Y-13998484D01*
X12368919Y-13998484D02*
X12387967Y-13998484D01*
X12387967Y-13998484D02*
X12407015Y-14008008D01*
X12407015Y-14008008D02*
X12416538Y-14017531D01*
X12416538Y-14017531D02*
X12426062Y-14036579D01*
X12426062Y-14036579D02*
X12435586Y-14074674D01*
X12435586Y-14074674D02*
X12435586Y-14122293D01*
X12435586Y-14122293D02*
X12426062Y-14160389D01*
X12426062Y-14160389D02*
X12416538Y-14179436D01*
X12416538Y-14179436D02*
X12407015Y-14188960D01*
X12407015Y-14188960D02*
X12387967Y-14198484D01*
X12387967Y-14198484D02*
X12368919Y-14198484D01*
X12368919Y-14198484D02*
X12349872Y-14188960D01*
X12349872Y-14188960D02*
X12340348Y-14179436D01*
X12340348Y-14179436D02*
X12330824Y-14160389D01*
X12330824Y-14160389D02*
X12321300Y-14122293D01*
X12321300Y-14122293D02*
X12321300Y-14074674D01*
X12321300Y-14074674D02*
X12330824Y-14036579D01*
X12330824Y-14036579D02*
X12340348Y-14017531D01*
X12340348Y-14017531D02*
X12349872Y-14008008D01*
X12349872Y-14008008D02*
X12368919Y-13998484D01*
X12521300Y-14198484D02*
X12521300Y-14065150D01*
X12521300Y-14084198D02*
X12530824Y-14074674D01*
X12530824Y-14074674D02*
X12549872Y-14065150D01*
X12549872Y-14065150D02*
X12578443Y-14065150D01*
X12578443Y-14065150D02*
X12597491Y-14074674D01*
X12597491Y-14074674D02*
X12607015Y-14093722D01*
X12607015Y-14093722D02*
X12607015Y-14198484D01*
X12607015Y-14093722D02*
X12616538Y-14074674D01*
X12616538Y-14074674D02*
X12635586Y-14065150D01*
X12635586Y-14065150D02*
X12664157Y-14065150D01*
X12664157Y-14065150D02*
X12683205Y-14074674D01*
X12683205Y-14074674D02*
X12692729Y-14093722D01*
X12692729Y-14093722D02*
X12692729Y-14198484D01*
X12787967Y-14198484D02*
X12787967Y-14065150D01*
X12787967Y-14084198D02*
X12797491Y-14074674D01*
X12797491Y-14074674D02*
X12816538Y-14065150D01*
X12816538Y-14065150D02*
X12845110Y-14065150D01*
X12845110Y-14065150D02*
X12864158Y-14074674D01*
X12864158Y-14074674D02*
X12873681Y-14093722D01*
X12873681Y-14093722D02*
X12873681Y-14198484D01*
X12873681Y-14093722D02*
X12883205Y-14074674D01*
X12883205Y-14074674D02*
X12902253Y-14065150D01*
X12902253Y-14065150D02*
X12930824Y-14065150D01*
X12930824Y-14065150D02*
X12949872Y-14074674D01*
X12949872Y-14074674D02*
X12959396Y-14093722D01*
X12959396Y-14093722D02*
X12959396Y-14198484D01*
X13349872Y-13988960D02*
X13178443Y-14246103D01*
X13607015Y-13998484D02*
X13626062Y-13998484D01*
X13626062Y-13998484D02*
X13645110Y-14008008D01*
X13645110Y-14008008D02*
X13654634Y-14017531D01*
X13654634Y-14017531D02*
X13664158Y-14036579D01*
X13664158Y-14036579D02*
X13673681Y-14074674D01*
X13673681Y-14074674D02*
X13673681Y-14122293D01*
X13673681Y-14122293D02*
X13664158Y-14160389D01*
X13664158Y-14160389D02*
X13654634Y-14179436D01*
X13654634Y-14179436D02*
X13645110Y-14188960D01*
X13645110Y-14188960D02*
X13626062Y-14198484D01*
X13626062Y-14198484D02*
X13607015Y-14198484D01*
X13607015Y-14198484D02*
X13587967Y-14188960D01*
X13587967Y-14188960D02*
X13578443Y-14179436D01*
X13578443Y-14179436D02*
X13568920Y-14160389D01*
X13568920Y-14160389D02*
X13559396Y-14122293D01*
X13559396Y-14122293D02*
X13559396Y-14074674D01*
X13559396Y-14074674D02*
X13568920Y-14036579D01*
X13568920Y-14036579D02*
X13578443Y-14017531D01*
X13578443Y-14017531D02*
X13587967Y-14008008D01*
X13587967Y-14008008D02*
X13607015Y-13998484D01*
X13759396Y-14179436D02*
X13768920Y-14188960D01*
X13768920Y-14188960D02*
X13759396Y-14198484D01*
X13759396Y-14198484D02*
X13749872Y-14188960D01*
X13749872Y-14188960D02*
X13759396Y-14179436D01*
X13759396Y-14179436D02*
X13759396Y-14198484D01*
X13892729Y-13998484D02*
X13911777Y-13998484D01*
X13911777Y-13998484D02*
X13930824Y-14008008D01*
X13930824Y-14008008D02*
X13940348Y-14017531D01*
X13940348Y-14017531D02*
X13949872Y-14036579D01*
X13949872Y-14036579D02*
X13959396Y-14074674D01*
X13959396Y-14074674D02*
X13959396Y-14122293D01*
X13959396Y-14122293D02*
X13949872Y-14160389D01*
X13949872Y-14160389D02*
X13940348Y-14179436D01*
X13940348Y-14179436D02*
X13930824Y-14188960D01*
X13930824Y-14188960D02*
X13911777Y-14198484D01*
X13911777Y-14198484D02*
X13892729Y-14198484D01*
X13892729Y-14198484D02*
X13873681Y-14188960D01*
X13873681Y-14188960D02*
X13864158Y-14179436D01*
X13864158Y-14179436D02*
X13854634Y-14160389D01*
X13854634Y-14160389D02*
X13845110Y-14122293D01*
X13845110Y-14122293D02*
X13845110Y-14074674D01*
X13845110Y-14074674D02*
X13854634Y-14036579D01*
X13854634Y-14036579D02*
X13864158Y-14017531D01*
X13864158Y-14017531D02*
X13873681Y-14008008D01*
X13873681Y-14008008D02*
X13892729Y-13998484D01*
X14149872Y-14198484D02*
X14035586Y-14198484D01*
X14092729Y-14198484D02*
X14092729Y-13998484D01*
X14092729Y-13998484D02*
X14073681Y-14027055D01*
X14073681Y-14027055D02*
X14054634Y-14046103D01*
X14054634Y-14046103D02*
X14035586Y-14055627D01*
X14340348Y-14198484D02*
X14226062Y-14198484D01*
X14283205Y-14198484D02*
X14283205Y-13998484D01*
X14283205Y-13998484D02*
X14264158Y-14027055D01*
X14264158Y-14027055D02*
X14245110Y-14046103D01*
X14245110Y-14046103D02*
X14226062Y-14055627D01*
X14454634Y-14084198D02*
X14435586Y-14074674D01*
X14435586Y-14074674D02*
X14426062Y-14065150D01*
X14426062Y-14065150D02*
X14416539Y-14046103D01*
X14416539Y-14046103D02*
X14416539Y-14036579D01*
X14416539Y-14036579D02*
X14426062Y-14017531D01*
X14426062Y-14017531D02*
X14435586Y-14008008D01*
X14435586Y-14008008D02*
X14454634Y-13998484D01*
X14454634Y-13998484D02*
X14492729Y-13998484D01*
X14492729Y-13998484D02*
X14511777Y-14008008D01*
X14511777Y-14008008D02*
X14521301Y-14017531D01*
X14521301Y-14017531D02*
X14530824Y-14036579D01*
X14530824Y-14036579D02*
X14530824Y-14046103D01*
X14530824Y-14046103D02*
X14521301Y-14065150D01*
X14521301Y-14065150D02*
X14511777Y-14074674D01*
X14511777Y-14074674D02*
X14492729Y-14084198D01*
X14492729Y-14084198D02*
X14454634Y-14084198D01*
X14454634Y-14084198D02*
X14435586Y-14093722D01*
X14435586Y-14093722D02*
X14426062Y-14103246D01*
X14426062Y-14103246D02*
X14416539Y-14122293D01*
X14416539Y-14122293D02*
X14416539Y-14160389D01*
X14416539Y-14160389D02*
X14426062Y-14179436D01*
X14426062Y-14179436D02*
X14435586Y-14188960D01*
X14435586Y-14188960D02*
X14454634Y-14198484D01*
X14454634Y-14198484D02*
X14492729Y-14198484D01*
X14492729Y-14198484D02*
X14511777Y-14188960D01*
X14511777Y-14188960D02*
X14521301Y-14179436D01*
X14521301Y-14179436D02*
X14530824Y-14160389D01*
X14530824Y-14160389D02*
X14530824Y-14122293D01*
X14530824Y-14122293D02*
X14521301Y-14103246D01*
X14521301Y-14103246D02*
X14511777Y-14093722D01*
X14511777Y-14093722D02*
X14492729Y-14084198D01*
X14607015Y-13998484D02*
X14607015Y-14036579D01*
X14683205Y-13998484D02*
X14683205Y-14036579D01*
X14978444Y-14274674D02*
X14968920Y-14265150D01*
X14968920Y-14265150D02*
X14949872Y-14236579D01*
X14949872Y-14236579D02*
X14940348Y-14217531D01*
X14940348Y-14217531D02*
X14930824Y-14188960D01*
X14930824Y-14188960D02*
X14921301Y-14141341D01*
X14921301Y-14141341D02*
X14921301Y-14103246D01*
X14921301Y-14103246D02*
X14930824Y-14055627D01*
X14930824Y-14055627D02*
X14940348Y-14027055D01*
X14940348Y-14027055D02*
X14949872Y-14008008D01*
X14949872Y-14008008D02*
X14968920Y-13979436D01*
X14968920Y-13979436D02*
X14978444Y-13969912D01*
X15045110Y-14017531D02*
X15054634Y-14008008D01*
X15054634Y-14008008D02*
X15073682Y-13998484D01*
X15073682Y-13998484D02*
X15121301Y-13998484D01*
X15121301Y-13998484D02*
X15140348Y-14008008D01*
X15140348Y-14008008D02*
X15149872Y-14017531D01*
X15149872Y-14017531D02*
X15159396Y-14036579D01*
X15159396Y-14036579D02*
X15159396Y-14055627D01*
X15159396Y-14055627D02*
X15149872Y-14084198D01*
X15149872Y-14084198D02*
X15035586Y-14198484D01*
X15035586Y-14198484D02*
X15159396Y-14198484D01*
X15226063Y-13998484D02*
X15349872Y-13998484D01*
X15349872Y-13998484D02*
X15283205Y-14074674D01*
X15283205Y-14074674D02*
X15311777Y-14074674D01*
X15311777Y-14074674D02*
X15330824Y-14084198D01*
X15330824Y-14084198D02*
X15340348Y-14093722D01*
X15340348Y-14093722D02*
X15349872Y-14112770D01*
X15349872Y-14112770D02*
X15349872Y-14160389D01*
X15349872Y-14160389D02*
X15340348Y-14179436D01*
X15340348Y-14179436D02*
X15330824Y-14188960D01*
X15330824Y-14188960D02*
X15311777Y-14198484D01*
X15311777Y-14198484D02*
X15254634Y-14198484D01*
X15254634Y-14198484D02*
X15235586Y-14188960D01*
X15235586Y-14188960D02*
X15226063Y-14179436D01*
X15521301Y-13998484D02*
X15483205Y-13998484D01*
X15483205Y-13998484D02*
X15464158Y-14008008D01*
X15464158Y-14008008D02*
X15454634Y-14017531D01*
X15454634Y-14017531D02*
X15435586Y-14046103D01*
X15435586Y-14046103D02*
X15426063Y-14084198D01*
X15426063Y-14084198D02*
X15426063Y-14160389D01*
X15426063Y-14160389D02*
X15435586Y-14179436D01*
X15435586Y-14179436D02*
X15445110Y-14188960D01*
X15445110Y-14188960D02*
X15464158Y-14198484D01*
X15464158Y-14198484D02*
X15502253Y-14198484D01*
X15502253Y-14198484D02*
X15521301Y-14188960D01*
X15521301Y-14188960D02*
X15530824Y-14179436D01*
X15530824Y-14179436D02*
X15540348Y-14160389D01*
X15540348Y-14160389D02*
X15540348Y-14112770D01*
X15540348Y-14112770D02*
X15530824Y-14093722D01*
X15530824Y-14093722D02*
X15521301Y-14084198D01*
X15521301Y-14084198D02*
X15502253Y-14074674D01*
X15502253Y-14074674D02*
X15464158Y-14074674D01*
X15464158Y-14074674D02*
X15445110Y-14084198D01*
X15445110Y-14084198D02*
X15435586Y-14093722D01*
X15435586Y-14093722D02*
X15426063Y-14112770D01*
X15778444Y-14198484D02*
X15778444Y-13998484D01*
X15864158Y-14198484D02*
X15864158Y-14093722D01*
X15864158Y-14093722D02*
X15854634Y-14074674D01*
X15854634Y-14074674D02*
X15835586Y-14065150D01*
X15835586Y-14065150D02*
X15807015Y-14065150D01*
X15807015Y-14065150D02*
X15787967Y-14074674D01*
X15787967Y-14074674D02*
X15778444Y-14084198D01*
X15987967Y-14198484D02*
X15968920Y-14188960D01*
X15968920Y-14188960D02*
X15959396Y-14179436D01*
X15959396Y-14179436D02*
X15949872Y-14160389D01*
X15949872Y-14160389D02*
X15949872Y-14103246D01*
X15949872Y-14103246D02*
X15959396Y-14084198D01*
X15959396Y-14084198D02*
X15968920Y-14074674D01*
X15968920Y-14074674D02*
X15987967Y-14065150D01*
X15987967Y-14065150D02*
X16016539Y-14065150D01*
X16016539Y-14065150D02*
X16035586Y-14074674D01*
X16035586Y-14074674D02*
X16045110Y-14084198D01*
X16045110Y-14084198D02*
X16054634Y-14103246D01*
X16054634Y-14103246D02*
X16054634Y-14160389D01*
X16054634Y-14160389D02*
X16045110Y-14179436D01*
X16045110Y-14179436D02*
X16035586Y-14188960D01*
X16035586Y-14188960D02*
X16016539Y-14198484D01*
X16016539Y-14198484D02*
X15987967Y-14198484D01*
X16168920Y-14198484D02*
X16149872Y-14188960D01*
X16149872Y-14188960D02*
X16140348Y-14169912D01*
X16140348Y-14169912D02*
X16140348Y-13998484D01*
X16321301Y-14188960D02*
X16302253Y-14198484D01*
X16302253Y-14198484D02*
X16264158Y-14198484D01*
X16264158Y-14198484D02*
X16245110Y-14188960D01*
X16245110Y-14188960D02*
X16235586Y-14169912D01*
X16235586Y-14169912D02*
X16235586Y-14093722D01*
X16235586Y-14093722D02*
X16245110Y-14074674D01*
X16245110Y-14074674D02*
X16264158Y-14065150D01*
X16264158Y-14065150D02*
X16302253Y-14065150D01*
X16302253Y-14065150D02*
X16321301Y-14074674D01*
X16321301Y-14074674D02*
X16330825Y-14093722D01*
X16330825Y-14093722D02*
X16330825Y-14112770D01*
X16330825Y-14112770D02*
X16235586Y-14131817D01*
X16407015Y-14188960D02*
X16426063Y-14198484D01*
X16426063Y-14198484D02*
X16464158Y-14198484D01*
X16464158Y-14198484D02*
X16483206Y-14188960D01*
X16483206Y-14188960D02*
X16492729Y-14169912D01*
X16492729Y-14169912D02*
X16492729Y-14160389D01*
X16492729Y-14160389D02*
X16483206Y-14141341D01*
X16483206Y-14141341D02*
X16464158Y-14131817D01*
X16464158Y-14131817D02*
X16435586Y-14131817D01*
X16435586Y-14131817D02*
X16416539Y-14122293D01*
X16416539Y-14122293D02*
X16407015Y-14103246D01*
X16407015Y-14103246D02*
X16407015Y-14093722D01*
X16407015Y-14093722D02*
X16416539Y-14074674D01*
X16416539Y-14074674D02*
X16435586Y-14065150D01*
X16435586Y-14065150D02*
X16464158Y-14065150D01*
X16464158Y-14065150D02*
X16483206Y-14074674D01*
X16559396Y-14274674D02*
X16568920Y-14265150D01*
X16568920Y-14265150D02*
X16587967Y-14236579D01*
X16587967Y-14236579D02*
X16597491Y-14217531D01*
X16597491Y-14217531D02*
X16607015Y-14188960D01*
X16607015Y-14188960D02*
X16616539Y-14141341D01*
X16616539Y-14141341D02*
X16616539Y-14103246D01*
X16616539Y-14103246D02*
X16607015Y-14055627D01*
X16607015Y-14055627D02*
X16597491Y-14027055D01*
X16597491Y-14027055D02*
X16587967Y-14008008D01*
X16587967Y-14008008D02*
X16568920Y-13979436D01*
X16568920Y-13979436D02*
X16559396Y-13969912D01*
D10*
X11403381Y-14371000D02*
G75*
G02*
X11363381Y-14371000I-20000J0D01*
G01*
X11363381Y-14371000D02*
G75*
G02*
X11403381Y-14371000I20000J0D01*
G01*
D11*
X11702253Y-14262484D02*
X11721300Y-14262484D01*
X11721300Y-14262484D02*
X11740348Y-14272008D01*
X11740348Y-14272008D02*
X11749872Y-14281531D01*
X11749872Y-14281531D02*
X11759396Y-14300579D01*
X11759396Y-14300579D02*
X11768919Y-14338674D01*
X11768919Y-14338674D02*
X11768919Y-14386293D01*
X11768919Y-14386293D02*
X11759396Y-14424389D01*
X11759396Y-14424389D02*
X11749872Y-14443436D01*
X11749872Y-14443436D02*
X11740348Y-14452960D01*
X11740348Y-14452960D02*
X11721300Y-14462484D01*
X11721300Y-14462484D02*
X11702253Y-14462484D01*
X11702253Y-14462484D02*
X11683205Y-14452960D01*
X11683205Y-14452960D02*
X11673681Y-14443436D01*
X11673681Y-14443436D02*
X11664157Y-14424389D01*
X11664157Y-14424389D02*
X11654634Y-14386293D01*
X11654634Y-14386293D02*
X11654634Y-14338674D01*
X11654634Y-14338674D02*
X11664157Y-14300579D01*
X11664157Y-14300579D02*
X11673681Y-14281531D01*
X11673681Y-14281531D02*
X11683205Y-14272008D01*
X11683205Y-14272008D02*
X11702253Y-14262484D01*
X11854634Y-14443436D02*
X11864157Y-14452960D01*
X11864157Y-14452960D02*
X11854634Y-14462484D01*
X11854634Y-14462484D02*
X11845110Y-14452960D01*
X11845110Y-14452960D02*
X11854634Y-14443436D01*
X11854634Y-14443436D02*
X11854634Y-14462484D01*
X12035586Y-14329150D02*
X12035586Y-14462484D01*
X11987967Y-14252960D02*
X11940348Y-14395817D01*
X11940348Y-14395817D02*
X12064157Y-14395817D01*
X12178443Y-14262484D02*
X12197491Y-14262484D01*
X12197491Y-14262484D02*
X12216538Y-14272008D01*
X12216538Y-14272008D02*
X12226062Y-14281531D01*
X12226062Y-14281531D02*
X12235586Y-14300579D01*
X12235586Y-14300579D02*
X12245110Y-14338674D01*
X12245110Y-14338674D02*
X12245110Y-14386293D01*
X12245110Y-14386293D02*
X12235586Y-14424389D01*
X12235586Y-14424389D02*
X12226062Y-14443436D01*
X12226062Y-14443436D02*
X12216538Y-14452960D01*
X12216538Y-14452960D02*
X12197491Y-14462484D01*
X12197491Y-14462484D02*
X12178443Y-14462484D01*
X12178443Y-14462484D02*
X12159396Y-14452960D01*
X12159396Y-14452960D02*
X12149872Y-14443436D01*
X12149872Y-14443436D02*
X12140348Y-14424389D01*
X12140348Y-14424389D02*
X12130824Y-14386293D01*
X12130824Y-14386293D02*
X12130824Y-14338674D01*
X12130824Y-14338674D02*
X12140348Y-14300579D01*
X12140348Y-14300579D02*
X12149872Y-14281531D01*
X12149872Y-14281531D02*
X12159396Y-14272008D01*
X12159396Y-14272008D02*
X12178443Y-14262484D01*
X12368919Y-14262484D02*
X12387967Y-14262484D01*
X12387967Y-14262484D02*
X12407015Y-14272008D01*
X12407015Y-14272008D02*
X12416538Y-14281531D01*
X12416538Y-14281531D02*
X12426062Y-14300579D01*
X12426062Y-14300579D02*
X12435586Y-14338674D01*
X12435586Y-14338674D02*
X12435586Y-14386293D01*
X12435586Y-14386293D02*
X12426062Y-14424389D01*
X12426062Y-14424389D02*
X12416538Y-14443436D01*
X12416538Y-14443436D02*
X12407015Y-14452960D01*
X12407015Y-14452960D02*
X12387967Y-14462484D01*
X12387967Y-14462484D02*
X12368919Y-14462484D01*
X12368919Y-14462484D02*
X12349872Y-14452960D01*
X12349872Y-14452960D02*
X12340348Y-14443436D01*
X12340348Y-14443436D02*
X12330824Y-14424389D01*
X12330824Y-14424389D02*
X12321300Y-14386293D01*
X12321300Y-14386293D02*
X12321300Y-14338674D01*
X12321300Y-14338674D02*
X12330824Y-14300579D01*
X12330824Y-14300579D02*
X12340348Y-14281531D01*
X12340348Y-14281531D02*
X12349872Y-14272008D01*
X12349872Y-14272008D02*
X12368919Y-14262484D01*
X12521300Y-14462484D02*
X12521300Y-14329150D01*
X12521300Y-14348198D02*
X12530824Y-14338674D01*
X12530824Y-14338674D02*
X12549872Y-14329150D01*
X12549872Y-14329150D02*
X12578443Y-14329150D01*
X12578443Y-14329150D02*
X12597491Y-14338674D01*
X12597491Y-14338674D02*
X12607015Y-14357722D01*
X12607015Y-14357722D02*
X12607015Y-14462484D01*
X12607015Y-14357722D02*
X12616538Y-14338674D01*
X12616538Y-14338674D02*
X12635586Y-14329150D01*
X12635586Y-14329150D02*
X12664157Y-14329150D01*
X12664157Y-14329150D02*
X12683205Y-14338674D01*
X12683205Y-14338674D02*
X12692729Y-14357722D01*
X12692729Y-14357722D02*
X12692729Y-14462484D01*
X12787967Y-14462484D02*
X12787967Y-14329150D01*
X12787967Y-14348198D02*
X12797491Y-14338674D01*
X12797491Y-14338674D02*
X12816538Y-14329150D01*
X12816538Y-14329150D02*
X12845110Y-14329150D01*
X12845110Y-14329150D02*
X12864158Y-14338674D01*
X12864158Y-14338674D02*
X12873681Y-14357722D01*
X12873681Y-14357722D02*
X12873681Y-14462484D01*
X12873681Y-14357722D02*
X12883205Y-14338674D01*
X12883205Y-14338674D02*
X12902253Y-14329150D01*
X12902253Y-14329150D02*
X12930824Y-14329150D01*
X12930824Y-14329150D02*
X12949872Y-14338674D01*
X12949872Y-14338674D02*
X12959396Y-14357722D01*
X12959396Y-14357722D02*
X12959396Y-14462484D01*
X13349872Y-14252960D02*
X13178443Y-14510103D01*
X13607015Y-14262484D02*
X13626062Y-14262484D01*
X13626062Y-14262484D02*
X13645110Y-14272008D01*
X13645110Y-14272008D02*
X13654634Y-14281531D01*
X13654634Y-14281531D02*
X13664158Y-14300579D01*
X13664158Y-14300579D02*
X13673681Y-14338674D01*
X13673681Y-14338674D02*
X13673681Y-14386293D01*
X13673681Y-14386293D02*
X13664158Y-14424389D01*
X13664158Y-14424389D02*
X13654634Y-14443436D01*
X13654634Y-14443436D02*
X13645110Y-14452960D01*
X13645110Y-14452960D02*
X13626062Y-14462484D01*
X13626062Y-14462484D02*
X13607015Y-14462484D01*
X13607015Y-14462484D02*
X13587967Y-14452960D01*
X13587967Y-14452960D02*
X13578443Y-14443436D01*
X13578443Y-14443436D02*
X13568920Y-14424389D01*
X13568920Y-14424389D02*
X13559396Y-14386293D01*
X13559396Y-14386293D02*
X13559396Y-14338674D01*
X13559396Y-14338674D02*
X13568920Y-14300579D01*
X13568920Y-14300579D02*
X13578443Y-14281531D01*
X13578443Y-14281531D02*
X13587967Y-14272008D01*
X13587967Y-14272008D02*
X13607015Y-14262484D01*
X13759396Y-14443436D02*
X13768920Y-14452960D01*
X13768920Y-14452960D02*
X13759396Y-14462484D01*
X13759396Y-14462484D02*
X13749872Y-14452960D01*
X13749872Y-14452960D02*
X13759396Y-14443436D01*
X13759396Y-14443436D02*
X13759396Y-14462484D01*
X13892729Y-14262484D02*
X13911777Y-14262484D01*
X13911777Y-14262484D02*
X13930824Y-14272008D01*
X13930824Y-14272008D02*
X13940348Y-14281531D01*
X13940348Y-14281531D02*
X13949872Y-14300579D01*
X13949872Y-14300579D02*
X13959396Y-14338674D01*
X13959396Y-14338674D02*
X13959396Y-14386293D01*
X13959396Y-14386293D02*
X13949872Y-14424389D01*
X13949872Y-14424389D02*
X13940348Y-14443436D01*
X13940348Y-14443436D02*
X13930824Y-14452960D01*
X13930824Y-14452960D02*
X13911777Y-14462484D01*
X13911777Y-14462484D02*
X13892729Y-14462484D01*
X13892729Y-14462484D02*
X13873681Y-14452960D01*
X13873681Y-14452960D02*
X13864158Y-14443436D01*
X13864158Y-14443436D02*
X13854634Y-14424389D01*
X13854634Y-14424389D02*
X13845110Y-14386293D01*
X13845110Y-14386293D02*
X13845110Y-14338674D01*
X13845110Y-14338674D02*
X13854634Y-14300579D01*
X13854634Y-14300579D02*
X13864158Y-14281531D01*
X13864158Y-14281531D02*
X13873681Y-14272008D01*
X13873681Y-14272008D02*
X13892729Y-14262484D01*
X14149872Y-14462484D02*
X14035586Y-14462484D01*
X14092729Y-14462484D02*
X14092729Y-14262484D01*
X14092729Y-14262484D02*
X14073681Y-14291055D01*
X14073681Y-14291055D02*
X14054634Y-14310103D01*
X14054634Y-14310103D02*
X14035586Y-14319627D01*
X14330824Y-14262484D02*
X14235586Y-14262484D01*
X14235586Y-14262484D02*
X14226062Y-14357722D01*
X14226062Y-14357722D02*
X14235586Y-14348198D01*
X14235586Y-14348198D02*
X14254634Y-14338674D01*
X14254634Y-14338674D02*
X14302253Y-14338674D01*
X14302253Y-14338674D02*
X14321301Y-14348198D01*
X14321301Y-14348198D02*
X14330824Y-14357722D01*
X14330824Y-14357722D02*
X14340348Y-14376770D01*
X14340348Y-14376770D02*
X14340348Y-14424389D01*
X14340348Y-14424389D02*
X14330824Y-14443436D01*
X14330824Y-14443436D02*
X14321301Y-14452960D01*
X14321301Y-14452960D02*
X14302253Y-14462484D01*
X14302253Y-14462484D02*
X14254634Y-14462484D01*
X14254634Y-14462484D02*
X14235586Y-14452960D01*
X14235586Y-14452960D02*
X14226062Y-14443436D01*
X14407015Y-14262484D02*
X14540348Y-14262484D01*
X14540348Y-14262484D02*
X14454634Y-14462484D01*
X14607015Y-14262484D02*
X14607015Y-14300579D01*
X14683205Y-14262484D02*
X14683205Y-14300579D01*
X14978444Y-14538674D02*
X14968920Y-14529150D01*
X14968920Y-14529150D02*
X14949872Y-14500579D01*
X14949872Y-14500579D02*
X14940348Y-14481531D01*
X14940348Y-14481531D02*
X14930824Y-14452960D01*
X14930824Y-14452960D02*
X14921301Y-14405341D01*
X14921301Y-14405341D02*
X14921301Y-14367246D01*
X14921301Y-14367246D02*
X14930824Y-14319627D01*
X14930824Y-14319627D02*
X14940348Y-14291055D01*
X14940348Y-14291055D02*
X14949872Y-14272008D01*
X14949872Y-14272008D02*
X14968920Y-14243436D01*
X14968920Y-14243436D02*
X14978444Y-14233912D01*
X15159396Y-14462484D02*
X15045110Y-14462484D01*
X15102253Y-14462484D02*
X15102253Y-14262484D01*
X15102253Y-14262484D02*
X15083205Y-14291055D01*
X15083205Y-14291055D02*
X15064158Y-14310103D01*
X15064158Y-14310103D02*
X15045110Y-14319627D01*
X15235586Y-14281531D02*
X15245110Y-14272008D01*
X15245110Y-14272008D02*
X15264158Y-14262484D01*
X15264158Y-14262484D02*
X15311777Y-14262484D01*
X15311777Y-14262484D02*
X15330824Y-14272008D01*
X15330824Y-14272008D02*
X15340348Y-14281531D01*
X15340348Y-14281531D02*
X15349872Y-14300579D01*
X15349872Y-14300579D02*
X15349872Y-14319627D01*
X15349872Y-14319627D02*
X15340348Y-14348198D01*
X15340348Y-14348198D02*
X15226063Y-14462484D01*
X15226063Y-14462484D02*
X15349872Y-14462484D01*
X15587967Y-14462484D02*
X15587967Y-14262484D01*
X15673682Y-14462484D02*
X15673682Y-14357722D01*
X15673682Y-14357722D02*
X15664158Y-14338674D01*
X15664158Y-14338674D02*
X15645110Y-14329150D01*
X15645110Y-14329150D02*
X15616539Y-14329150D01*
X15616539Y-14329150D02*
X15597491Y-14338674D01*
X15597491Y-14338674D02*
X15587967Y-14348198D01*
X15797491Y-14462484D02*
X15778444Y-14452960D01*
X15778444Y-14452960D02*
X15768920Y-14443436D01*
X15768920Y-14443436D02*
X15759396Y-14424389D01*
X15759396Y-14424389D02*
X15759396Y-14367246D01*
X15759396Y-14367246D02*
X15768920Y-14348198D01*
X15768920Y-14348198D02*
X15778444Y-14338674D01*
X15778444Y-14338674D02*
X15797491Y-14329150D01*
X15797491Y-14329150D02*
X15826063Y-14329150D01*
X15826063Y-14329150D02*
X15845110Y-14338674D01*
X15845110Y-14338674D02*
X15854634Y-14348198D01*
X15854634Y-14348198D02*
X15864158Y-14367246D01*
X15864158Y-14367246D02*
X15864158Y-14424389D01*
X15864158Y-14424389D02*
X15854634Y-14443436D01*
X15854634Y-14443436D02*
X15845110Y-14452960D01*
X15845110Y-14452960D02*
X15826063Y-14462484D01*
X15826063Y-14462484D02*
X15797491Y-14462484D01*
X15978444Y-14462484D02*
X15959396Y-14452960D01*
X15959396Y-14452960D02*
X15949872Y-14433912D01*
X15949872Y-14433912D02*
X15949872Y-14262484D01*
X16130825Y-14452960D02*
X16111777Y-14462484D01*
X16111777Y-14462484D02*
X16073682Y-14462484D01*
X16073682Y-14462484D02*
X16054634Y-14452960D01*
X16054634Y-14452960D02*
X16045110Y-14433912D01*
X16045110Y-14433912D02*
X16045110Y-14357722D01*
X16045110Y-14357722D02*
X16054634Y-14338674D01*
X16054634Y-14338674D02*
X16073682Y-14329150D01*
X16073682Y-14329150D02*
X16111777Y-14329150D01*
X16111777Y-14329150D02*
X16130825Y-14338674D01*
X16130825Y-14338674D02*
X16140348Y-14357722D01*
X16140348Y-14357722D02*
X16140348Y-14376770D01*
X16140348Y-14376770D02*
X16045110Y-14395817D01*
X16216539Y-14452960D02*
X16235586Y-14462484D01*
X16235586Y-14462484D02*
X16273682Y-14462484D01*
X16273682Y-14462484D02*
X16292729Y-14452960D01*
X16292729Y-14452960D02*
X16302253Y-14433912D01*
X16302253Y-14433912D02*
X16302253Y-14424389D01*
X16302253Y-14424389D02*
X16292729Y-14405341D01*
X16292729Y-14405341D02*
X16273682Y-14395817D01*
X16273682Y-14395817D02*
X16245110Y-14395817D01*
X16245110Y-14395817D02*
X16226063Y-14386293D01*
X16226063Y-14386293D02*
X16216539Y-14367246D01*
X16216539Y-14367246D02*
X16216539Y-14357722D01*
X16216539Y-14357722D02*
X16226063Y-14338674D01*
X16226063Y-14338674D02*
X16245110Y-14329150D01*
X16245110Y-14329150D02*
X16273682Y-14329150D01*
X16273682Y-14329150D02*
X16292729Y-14338674D01*
X16368920Y-14538674D02*
X16378444Y-14529150D01*
X16378444Y-14529150D02*
X16397491Y-14500579D01*
X16397491Y-14500579D02*
X16407015Y-14481531D01*
X16407015Y-14481531D02*
X16416539Y-14452960D01*
X16416539Y-14452960D02*
X16426063Y-14405341D01*
X16426063Y-14405341D02*
X16426063Y-14367246D01*
X16426063Y-14367246D02*
X16416539Y-14319627D01*
X16416539Y-14319627D02*
X16407015Y-14291055D01*
X16407015Y-14291055D02*
X16397491Y-14272008D01*
X16397491Y-14272008D02*
X16378444Y-14243436D01*
X16378444Y-14243436D02*
X16368920Y-14233912D01*
D10*
X11373381Y-14605000D02*
X11373381Y-14665000D01*
X11343381Y-14635000D02*
X11403381Y-14635000D01*
D11*
X11702253Y-14526484D02*
X11721300Y-14526484D01*
X11721300Y-14526484D02*
X11740348Y-14536008D01*
X11740348Y-14536008D02*
X11749872Y-14545531D01*
X11749872Y-14545531D02*
X11759396Y-14564579D01*
X11759396Y-14564579D02*
X11768919Y-14602674D01*
X11768919Y-14602674D02*
X11768919Y-14650293D01*
X11768919Y-14650293D02*
X11759396Y-14688389D01*
X11759396Y-14688389D02*
X11749872Y-14707436D01*
X11749872Y-14707436D02*
X11740348Y-14716960D01*
X11740348Y-14716960D02*
X11721300Y-14726484D01*
X11721300Y-14726484D02*
X11702253Y-14726484D01*
X11702253Y-14726484D02*
X11683205Y-14716960D01*
X11683205Y-14716960D02*
X11673681Y-14707436D01*
X11673681Y-14707436D02*
X11664157Y-14688389D01*
X11664157Y-14688389D02*
X11654634Y-14650293D01*
X11654634Y-14650293D02*
X11654634Y-14602674D01*
X11654634Y-14602674D02*
X11664157Y-14564579D01*
X11664157Y-14564579D02*
X11673681Y-14545531D01*
X11673681Y-14545531D02*
X11683205Y-14536008D01*
X11683205Y-14536008D02*
X11702253Y-14526484D01*
X11854634Y-14707436D02*
X11864157Y-14716960D01*
X11864157Y-14716960D02*
X11854634Y-14726484D01*
X11854634Y-14726484D02*
X11845110Y-14716960D01*
X11845110Y-14716960D02*
X11854634Y-14707436D01*
X11854634Y-14707436D02*
X11854634Y-14726484D01*
X12035586Y-14526484D02*
X11997491Y-14526484D01*
X11997491Y-14526484D02*
X11978443Y-14536008D01*
X11978443Y-14536008D02*
X11968919Y-14545531D01*
X11968919Y-14545531D02*
X11949872Y-14574103D01*
X11949872Y-14574103D02*
X11940348Y-14612198D01*
X11940348Y-14612198D02*
X11940348Y-14688389D01*
X11940348Y-14688389D02*
X11949872Y-14707436D01*
X11949872Y-14707436D02*
X11959396Y-14716960D01*
X11959396Y-14716960D02*
X11978443Y-14726484D01*
X11978443Y-14726484D02*
X12016538Y-14726484D01*
X12016538Y-14726484D02*
X12035586Y-14716960D01*
X12035586Y-14716960D02*
X12045110Y-14707436D01*
X12045110Y-14707436D02*
X12054634Y-14688389D01*
X12054634Y-14688389D02*
X12054634Y-14640770D01*
X12054634Y-14640770D02*
X12045110Y-14621722D01*
X12045110Y-14621722D02*
X12035586Y-14612198D01*
X12035586Y-14612198D02*
X12016538Y-14602674D01*
X12016538Y-14602674D02*
X11978443Y-14602674D01*
X11978443Y-14602674D02*
X11959396Y-14612198D01*
X11959396Y-14612198D02*
X11949872Y-14621722D01*
X11949872Y-14621722D02*
X11940348Y-14640770D01*
X12178443Y-14526484D02*
X12197491Y-14526484D01*
X12197491Y-14526484D02*
X12216538Y-14536008D01*
X12216538Y-14536008D02*
X12226062Y-14545531D01*
X12226062Y-14545531D02*
X12235586Y-14564579D01*
X12235586Y-14564579D02*
X12245110Y-14602674D01*
X12245110Y-14602674D02*
X12245110Y-14650293D01*
X12245110Y-14650293D02*
X12235586Y-14688389D01*
X12235586Y-14688389D02*
X12226062Y-14707436D01*
X12226062Y-14707436D02*
X12216538Y-14716960D01*
X12216538Y-14716960D02*
X12197491Y-14726484D01*
X12197491Y-14726484D02*
X12178443Y-14726484D01*
X12178443Y-14726484D02*
X12159396Y-14716960D01*
X12159396Y-14716960D02*
X12149872Y-14707436D01*
X12149872Y-14707436D02*
X12140348Y-14688389D01*
X12140348Y-14688389D02*
X12130824Y-14650293D01*
X12130824Y-14650293D02*
X12130824Y-14602674D01*
X12130824Y-14602674D02*
X12140348Y-14564579D01*
X12140348Y-14564579D02*
X12149872Y-14545531D01*
X12149872Y-14545531D02*
X12159396Y-14536008D01*
X12159396Y-14536008D02*
X12178443Y-14526484D01*
X12368919Y-14526484D02*
X12387967Y-14526484D01*
X12387967Y-14526484D02*
X12407015Y-14536008D01*
X12407015Y-14536008D02*
X12416538Y-14545531D01*
X12416538Y-14545531D02*
X12426062Y-14564579D01*
X12426062Y-14564579D02*
X12435586Y-14602674D01*
X12435586Y-14602674D02*
X12435586Y-14650293D01*
X12435586Y-14650293D02*
X12426062Y-14688389D01*
X12426062Y-14688389D02*
X12416538Y-14707436D01*
X12416538Y-14707436D02*
X12407015Y-14716960D01*
X12407015Y-14716960D02*
X12387967Y-14726484D01*
X12387967Y-14726484D02*
X12368919Y-14726484D01*
X12368919Y-14726484D02*
X12349872Y-14716960D01*
X12349872Y-14716960D02*
X12340348Y-14707436D01*
X12340348Y-14707436D02*
X12330824Y-14688389D01*
X12330824Y-14688389D02*
X12321300Y-14650293D01*
X12321300Y-14650293D02*
X12321300Y-14602674D01*
X12321300Y-14602674D02*
X12330824Y-14564579D01*
X12330824Y-14564579D02*
X12340348Y-14545531D01*
X12340348Y-14545531D02*
X12349872Y-14536008D01*
X12349872Y-14536008D02*
X12368919Y-14526484D01*
X12521300Y-14726484D02*
X12521300Y-14593150D01*
X12521300Y-14612198D02*
X12530824Y-14602674D01*
X12530824Y-14602674D02*
X12549872Y-14593150D01*
X12549872Y-14593150D02*
X12578443Y-14593150D01*
X12578443Y-14593150D02*
X12597491Y-14602674D01*
X12597491Y-14602674D02*
X12607015Y-14621722D01*
X12607015Y-14621722D02*
X12607015Y-14726484D01*
X12607015Y-14621722D02*
X12616538Y-14602674D01*
X12616538Y-14602674D02*
X12635586Y-14593150D01*
X12635586Y-14593150D02*
X12664157Y-14593150D01*
X12664157Y-14593150D02*
X12683205Y-14602674D01*
X12683205Y-14602674D02*
X12692729Y-14621722D01*
X12692729Y-14621722D02*
X12692729Y-14726484D01*
X12787967Y-14726484D02*
X12787967Y-14593150D01*
X12787967Y-14612198D02*
X12797491Y-14602674D01*
X12797491Y-14602674D02*
X12816538Y-14593150D01*
X12816538Y-14593150D02*
X12845110Y-14593150D01*
X12845110Y-14593150D02*
X12864158Y-14602674D01*
X12864158Y-14602674D02*
X12873681Y-14621722D01*
X12873681Y-14621722D02*
X12873681Y-14726484D01*
X12873681Y-14621722D02*
X12883205Y-14602674D01*
X12883205Y-14602674D02*
X12902253Y-14593150D01*
X12902253Y-14593150D02*
X12930824Y-14593150D01*
X12930824Y-14593150D02*
X12949872Y-14602674D01*
X12949872Y-14602674D02*
X12959396Y-14621722D01*
X12959396Y-14621722D02*
X12959396Y-14726484D01*
X13349872Y-14516960D02*
X13178443Y-14774103D01*
X13607015Y-14526484D02*
X13626062Y-14526484D01*
X13626062Y-14526484D02*
X13645110Y-14536008D01*
X13645110Y-14536008D02*
X13654634Y-14545531D01*
X13654634Y-14545531D02*
X13664158Y-14564579D01*
X13664158Y-14564579D02*
X13673681Y-14602674D01*
X13673681Y-14602674D02*
X13673681Y-14650293D01*
X13673681Y-14650293D02*
X13664158Y-14688389D01*
X13664158Y-14688389D02*
X13654634Y-14707436D01*
X13654634Y-14707436D02*
X13645110Y-14716960D01*
X13645110Y-14716960D02*
X13626062Y-14726484D01*
X13626062Y-14726484D02*
X13607015Y-14726484D01*
X13607015Y-14726484D02*
X13587967Y-14716960D01*
X13587967Y-14716960D02*
X13578443Y-14707436D01*
X13578443Y-14707436D02*
X13568920Y-14688389D01*
X13568920Y-14688389D02*
X13559396Y-14650293D01*
X13559396Y-14650293D02*
X13559396Y-14602674D01*
X13559396Y-14602674D02*
X13568920Y-14564579D01*
X13568920Y-14564579D02*
X13578443Y-14545531D01*
X13578443Y-14545531D02*
X13587967Y-14536008D01*
X13587967Y-14536008D02*
X13607015Y-14526484D01*
X13759396Y-14707436D02*
X13768920Y-14716960D01*
X13768920Y-14716960D02*
X13759396Y-14726484D01*
X13759396Y-14726484D02*
X13749872Y-14716960D01*
X13749872Y-14716960D02*
X13759396Y-14707436D01*
X13759396Y-14707436D02*
X13759396Y-14726484D01*
X13892729Y-14526484D02*
X13911777Y-14526484D01*
X13911777Y-14526484D02*
X13930824Y-14536008D01*
X13930824Y-14536008D02*
X13940348Y-14545531D01*
X13940348Y-14545531D02*
X13949872Y-14564579D01*
X13949872Y-14564579D02*
X13959396Y-14602674D01*
X13959396Y-14602674D02*
X13959396Y-14650293D01*
X13959396Y-14650293D02*
X13949872Y-14688389D01*
X13949872Y-14688389D02*
X13940348Y-14707436D01*
X13940348Y-14707436D02*
X13930824Y-14716960D01*
X13930824Y-14716960D02*
X13911777Y-14726484D01*
X13911777Y-14726484D02*
X13892729Y-14726484D01*
X13892729Y-14726484D02*
X13873681Y-14716960D01*
X13873681Y-14716960D02*
X13864158Y-14707436D01*
X13864158Y-14707436D02*
X13854634Y-14688389D01*
X13854634Y-14688389D02*
X13845110Y-14650293D01*
X13845110Y-14650293D02*
X13845110Y-14602674D01*
X13845110Y-14602674D02*
X13854634Y-14564579D01*
X13854634Y-14564579D02*
X13864158Y-14545531D01*
X13864158Y-14545531D02*
X13873681Y-14536008D01*
X13873681Y-14536008D02*
X13892729Y-14526484D01*
X14035586Y-14545531D02*
X14045110Y-14536008D01*
X14045110Y-14536008D02*
X14064158Y-14526484D01*
X14064158Y-14526484D02*
X14111777Y-14526484D01*
X14111777Y-14526484D02*
X14130824Y-14536008D01*
X14130824Y-14536008D02*
X14140348Y-14545531D01*
X14140348Y-14545531D02*
X14149872Y-14564579D01*
X14149872Y-14564579D02*
X14149872Y-14583627D01*
X14149872Y-14583627D02*
X14140348Y-14612198D01*
X14140348Y-14612198D02*
X14026062Y-14726484D01*
X14026062Y-14726484D02*
X14149872Y-14726484D01*
X14216539Y-14526484D02*
X14340348Y-14526484D01*
X14340348Y-14526484D02*
X14273681Y-14602674D01*
X14273681Y-14602674D02*
X14302253Y-14602674D01*
X14302253Y-14602674D02*
X14321301Y-14612198D01*
X14321301Y-14612198D02*
X14330824Y-14621722D01*
X14330824Y-14621722D02*
X14340348Y-14640770D01*
X14340348Y-14640770D02*
X14340348Y-14688389D01*
X14340348Y-14688389D02*
X14330824Y-14707436D01*
X14330824Y-14707436D02*
X14321301Y-14716960D01*
X14321301Y-14716960D02*
X14302253Y-14726484D01*
X14302253Y-14726484D02*
X14245110Y-14726484D01*
X14245110Y-14726484D02*
X14226062Y-14716960D01*
X14226062Y-14716960D02*
X14216539Y-14707436D01*
X14511777Y-14526484D02*
X14473681Y-14526484D01*
X14473681Y-14526484D02*
X14454634Y-14536008D01*
X14454634Y-14536008D02*
X14445110Y-14545531D01*
X14445110Y-14545531D02*
X14426062Y-14574103D01*
X14426062Y-14574103D02*
X14416539Y-14612198D01*
X14416539Y-14612198D02*
X14416539Y-14688389D01*
X14416539Y-14688389D02*
X14426062Y-14707436D01*
X14426062Y-14707436D02*
X14435586Y-14716960D01*
X14435586Y-14716960D02*
X14454634Y-14726484D01*
X14454634Y-14726484D02*
X14492729Y-14726484D01*
X14492729Y-14726484D02*
X14511777Y-14716960D01*
X14511777Y-14716960D02*
X14521301Y-14707436D01*
X14521301Y-14707436D02*
X14530824Y-14688389D01*
X14530824Y-14688389D02*
X14530824Y-14640770D01*
X14530824Y-14640770D02*
X14521301Y-14621722D01*
X14521301Y-14621722D02*
X14511777Y-14612198D01*
X14511777Y-14612198D02*
X14492729Y-14602674D01*
X14492729Y-14602674D02*
X14454634Y-14602674D01*
X14454634Y-14602674D02*
X14435586Y-14612198D01*
X14435586Y-14612198D02*
X14426062Y-14621722D01*
X14426062Y-14621722D02*
X14416539Y-14640770D01*
X14607015Y-14526484D02*
X14607015Y-14564579D01*
X14683205Y-14526484D02*
X14683205Y-14564579D01*
X14978444Y-14802674D02*
X14968920Y-14793150D01*
X14968920Y-14793150D02*
X14949872Y-14764579D01*
X14949872Y-14764579D02*
X14940348Y-14745531D01*
X14940348Y-14745531D02*
X14930824Y-14716960D01*
X14930824Y-14716960D02*
X14921301Y-14669341D01*
X14921301Y-14669341D02*
X14921301Y-14631246D01*
X14921301Y-14631246D02*
X14930824Y-14583627D01*
X14930824Y-14583627D02*
X14940348Y-14555055D01*
X14940348Y-14555055D02*
X14949872Y-14536008D01*
X14949872Y-14536008D02*
X14968920Y-14507436D01*
X14968920Y-14507436D02*
X14978444Y-14497912D01*
X15092729Y-14526484D02*
X15111777Y-14526484D01*
X15111777Y-14526484D02*
X15130824Y-14536008D01*
X15130824Y-14536008D02*
X15140348Y-14545531D01*
X15140348Y-14545531D02*
X15149872Y-14564579D01*
X15149872Y-14564579D02*
X15159396Y-14602674D01*
X15159396Y-14602674D02*
X15159396Y-14650293D01*
X15159396Y-14650293D02*
X15149872Y-14688389D01*
X15149872Y-14688389D02*
X15140348Y-14707436D01*
X15140348Y-14707436D02*
X15130824Y-14716960D01*
X15130824Y-14716960D02*
X15111777Y-14726484D01*
X15111777Y-14726484D02*
X15092729Y-14726484D01*
X15092729Y-14726484D02*
X15073682Y-14716960D01*
X15073682Y-14716960D02*
X15064158Y-14707436D01*
X15064158Y-14707436D02*
X15054634Y-14688389D01*
X15054634Y-14688389D02*
X15045110Y-14650293D01*
X15045110Y-14650293D02*
X15045110Y-14602674D01*
X15045110Y-14602674D02*
X15054634Y-14564579D01*
X15054634Y-14564579D02*
X15064158Y-14545531D01*
X15064158Y-14545531D02*
X15073682Y-14536008D01*
X15073682Y-14536008D02*
X15092729Y-14526484D01*
X15397491Y-14726484D02*
X15397491Y-14526484D01*
X15483205Y-14726484D02*
X15483205Y-14621722D01*
X15483205Y-14621722D02*
X15473682Y-14602674D01*
X15473682Y-14602674D02*
X15454634Y-14593150D01*
X15454634Y-14593150D02*
X15426063Y-14593150D01*
X15426063Y-14593150D02*
X15407015Y-14602674D01*
X15407015Y-14602674D02*
X15397491Y-14612198D01*
X15607015Y-14726484D02*
X15587967Y-14716960D01*
X15587967Y-14716960D02*
X15578444Y-14707436D01*
X15578444Y-14707436D02*
X15568920Y-14688389D01*
X15568920Y-14688389D02*
X15568920Y-14631246D01*
X15568920Y-14631246D02*
X15578444Y-14612198D01*
X15578444Y-14612198D02*
X15587967Y-14602674D01*
X15587967Y-14602674D02*
X15607015Y-14593150D01*
X15607015Y-14593150D02*
X15635586Y-14593150D01*
X15635586Y-14593150D02*
X15654634Y-14602674D01*
X15654634Y-14602674D02*
X15664158Y-14612198D01*
X15664158Y-14612198D02*
X15673682Y-14631246D01*
X15673682Y-14631246D02*
X15673682Y-14688389D01*
X15673682Y-14688389D02*
X15664158Y-14707436D01*
X15664158Y-14707436D02*
X15654634Y-14716960D01*
X15654634Y-14716960D02*
X15635586Y-14726484D01*
X15635586Y-14726484D02*
X15607015Y-14726484D01*
X15787967Y-14726484D02*
X15768920Y-14716960D01*
X15768920Y-14716960D02*
X15759396Y-14697912D01*
X15759396Y-14697912D02*
X15759396Y-14526484D01*
X15940348Y-14716960D02*
X15921301Y-14726484D01*
X15921301Y-14726484D02*
X15883205Y-14726484D01*
X15883205Y-14726484D02*
X15864158Y-14716960D01*
X15864158Y-14716960D02*
X15854634Y-14697912D01*
X15854634Y-14697912D02*
X15854634Y-14621722D01*
X15854634Y-14621722D02*
X15864158Y-14602674D01*
X15864158Y-14602674D02*
X15883205Y-14593150D01*
X15883205Y-14593150D02*
X15921301Y-14593150D01*
X15921301Y-14593150D02*
X15940348Y-14602674D01*
X15940348Y-14602674D02*
X15949872Y-14621722D01*
X15949872Y-14621722D02*
X15949872Y-14640770D01*
X15949872Y-14640770D02*
X15854634Y-14659817D01*
X16026063Y-14716960D02*
X16045110Y-14726484D01*
X16045110Y-14726484D02*
X16083205Y-14726484D01*
X16083205Y-14726484D02*
X16102253Y-14716960D01*
X16102253Y-14716960D02*
X16111777Y-14697912D01*
X16111777Y-14697912D02*
X16111777Y-14688389D01*
X16111777Y-14688389D02*
X16102253Y-14669341D01*
X16102253Y-14669341D02*
X16083205Y-14659817D01*
X16083205Y-14659817D02*
X16054634Y-14659817D01*
X16054634Y-14659817D02*
X16035586Y-14650293D01*
X16035586Y-14650293D02*
X16026063Y-14631246D01*
X16026063Y-14631246D02*
X16026063Y-14621722D01*
X16026063Y-14621722D02*
X16035586Y-14602674D01*
X16035586Y-14602674D02*
X16054634Y-14593150D01*
X16054634Y-14593150D02*
X16083205Y-14593150D01*
X16083205Y-14593150D02*
X16102253Y-14602674D01*
X16349872Y-14650293D02*
X16502253Y-14650293D01*
X16426063Y-14726484D02*
X16426063Y-14574103D01*
X16835587Y-14593150D02*
X16835587Y-14726484D01*
X16787968Y-14516960D02*
X16740348Y-14659817D01*
X16740348Y-14659817D02*
X16864158Y-14659817D01*
X17083206Y-14716960D02*
X17102253Y-14726484D01*
X17102253Y-14726484D02*
X17140349Y-14726484D01*
X17140349Y-14726484D02*
X17159396Y-14716960D01*
X17159396Y-14716960D02*
X17168920Y-14697912D01*
X17168920Y-14697912D02*
X17168920Y-14688389D01*
X17168920Y-14688389D02*
X17159396Y-14669341D01*
X17159396Y-14669341D02*
X17140349Y-14659817D01*
X17140349Y-14659817D02*
X17111777Y-14659817D01*
X17111777Y-14659817D02*
X17092730Y-14650293D01*
X17092730Y-14650293D02*
X17083206Y-14631246D01*
X17083206Y-14631246D02*
X17083206Y-14621722D01*
X17083206Y-14621722D02*
X17092730Y-14602674D01*
X17092730Y-14602674D02*
X17111777Y-14593150D01*
X17111777Y-14593150D02*
X17140349Y-14593150D01*
X17140349Y-14593150D02*
X17159396Y-14602674D01*
X17283206Y-14726484D02*
X17264158Y-14716960D01*
X17264158Y-14716960D02*
X17254634Y-14697912D01*
X17254634Y-14697912D02*
X17254634Y-14526484D01*
X17387968Y-14726484D02*
X17368920Y-14716960D01*
X17368920Y-14716960D02*
X17359396Y-14707436D01*
X17359396Y-14707436D02*
X17349872Y-14688389D01*
X17349872Y-14688389D02*
X17349872Y-14631246D01*
X17349872Y-14631246D02*
X17359396Y-14612198D01*
X17359396Y-14612198D02*
X17368920Y-14602674D01*
X17368920Y-14602674D02*
X17387968Y-14593150D01*
X17387968Y-14593150D02*
X17416539Y-14593150D01*
X17416539Y-14593150D02*
X17435587Y-14602674D01*
X17435587Y-14602674D02*
X17445111Y-14612198D01*
X17445111Y-14612198D02*
X17454634Y-14631246D01*
X17454634Y-14631246D02*
X17454634Y-14688389D01*
X17454634Y-14688389D02*
X17445111Y-14707436D01*
X17445111Y-14707436D02*
X17435587Y-14716960D01*
X17435587Y-14716960D02*
X17416539Y-14726484D01*
X17416539Y-14726484D02*
X17387968Y-14726484D01*
X17511777Y-14593150D02*
X17587968Y-14593150D01*
X17540349Y-14526484D02*
X17540349Y-14697912D01*
X17540349Y-14697912D02*
X17549872Y-14716960D01*
X17549872Y-14716960D02*
X17568920Y-14726484D01*
X17568920Y-14726484D02*
X17587968Y-14726484D01*
X17645111Y-14716960D02*
X17664158Y-14726484D01*
X17664158Y-14726484D02*
X17702253Y-14726484D01*
X17702253Y-14726484D02*
X17721301Y-14716960D01*
X17721301Y-14716960D02*
X17730825Y-14697912D01*
X17730825Y-14697912D02*
X17730825Y-14688389D01*
X17730825Y-14688389D02*
X17721301Y-14669341D01*
X17721301Y-14669341D02*
X17702253Y-14659817D01*
X17702253Y-14659817D02*
X17673682Y-14659817D01*
X17673682Y-14659817D02*
X17654634Y-14650293D01*
X17654634Y-14650293D02*
X17645111Y-14631246D01*
X17645111Y-14631246D02*
X17645111Y-14621722D01*
X17645111Y-14621722D02*
X17654634Y-14602674D01*
X17654634Y-14602674D02*
X17673682Y-14593150D01*
X17673682Y-14593150D02*
X17702253Y-14593150D01*
X17702253Y-14593150D02*
X17721301Y-14602674D01*
X17797492Y-14802674D02*
X17807015Y-14793150D01*
X17807015Y-14793150D02*
X17826063Y-14764579D01*
X17826063Y-14764579D02*
X17835587Y-14745531D01*
X17835587Y-14745531D02*
X17845111Y-14716960D01*
X17845111Y-14716960D02*
X17854634Y-14669341D01*
X17854634Y-14669341D02*
X17854634Y-14631246D01*
X17854634Y-14631246D02*
X17845111Y-14583627D01*
X17845111Y-14583627D02*
X17835587Y-14555055D01*
X17835587Y-14555055D02*
X17826063Y-14536008D01*
X17826063Y-14536008D02*
X17807015Y-14507436D01*
X17807015Y-14507436D02*
X17797492Y-14497912D01*
D10*
X11388736Y-14934356D02*
X11388736Y-14863644D01*
X11318025Y-14863644D01*
X11318025Y-14934356D01*
X11388736Y-14934356D01*
D11*
X11768919Y-14990484D02*
X11654634Y-14990484D01*
X11711776Y-14990484D02*
X11711776Y-14790484D01*
X11711776Y-14790484D02*
X11692729Y-14819055D01*
X11692729Y-14819055D02*
X11673681Y-14838103D01*
X11673681Y-14838103D02*
X11654634Y-14847627D01*
X11854634Y-14971436D02*
X11864157Y-14980960D01*
X11864157Y-14980960D02*
X11854634Y-14990484D01*
X11854634Y-14990484D02*
X11845110Y-14980960D01*
X11845110Y-14980960D02*
X11854634Y-14971436D01*
X11854634Y-14971436D02*
X11854634Y-14990484D01*
X11987967Y-14790484D02*
X12007015Y-14790484D01*
X12007015Y-14790484D02*
X12026062Y-14800008D01*
X12026062Y-14800008D02*
X12035586Y-14809531D01*
X12035586Y-14809531D02*
X12045110Y-14828579D01*
X12045110Y-14828579D02*
X12054634Y-14866674D01*
X12054634Y-14866674D02*
X12054634Y-14914293D01*
X12054634Y-14914293D02*
X12045110Y-14952389D01*
X12045110Y-14952389D02*
X12035586Y-14971436D01*
X12035586Y-14971436D02*
X12026062Y-14980960D01*
X12026062Y-14980960D02*
X12007015Y-14990484D01*
X12007015Y-14990484D02*
X11987967Y-14990484D01*
X11987967Y-14990484D02*
X11968919Y-14980960D01*
X11968919Y-14980960D02*
X11959396Y-14971436D01*
X11959396Y-14971436D02*
X11949872Y-14952389D01*
X11949872Y-14952389D02*
X11940348Y-14914293D01*
X11940348Y-14914293D02*
X11940348Y-14866674D01*
X11940348Y-14866674D02*
X11949872Y-14828579D01*
X11949872Y-14828579D02*
X11959396Y-14809531D01*
X11959396Y-14809531D02*
X11968919Y-14800008D01*
X11968919Y-14800008D02*
X11987967Y-14790484D01*
X12178443Y-14790484D02*
X12197491Y-14790484D01*
X12197491Y-14790484D02*
X12216538Y-14800008D01*
X12216538Y-14800008D02*
X12226062Y-14809531D01*
X12226062Y-14809531D02*
X12235586Y-14828579D01*
X12235586Y-14828579D02*
X12245110Y-14866674D01*
X12245110Y-14866674D02*
X12245110Y-14914293D01*
X12245110Y-14914293D02*
X12235586Y-14952389D01*
X12235586Y-14952389D02*
X12226062Y-14971436D01*
X12226062Y-14971436D02*
X12216538Y-14980960D01*
X12216538Y-14980960D02*
X12197491Y-14990484D01*
X12197491Y-14990484D02*
X12178443Y-14990484D01*
X12178443Y-14990484D02*
X12159396Y-14980960D01*
X12159396Y-14980960D02*
X12149872Y-14971436D01*
X12149872Y-14971436D02*
X12140348Y-14952389D01*
X12140348Y-14952389D02*
X12130824Y-14914293D01*
X12130824Y-14914293D02*
X12130824Y-14866674D01*
X12130824Y-14866674D02*
X12140348Y-14828579D01*
X12140348Y-14828579D02*
X12149872Y-14809531D01*
X12149872Y-14809531D02*
X12159396Y-14800008D01*
X12159396Y-14800008D02*
X12178443Y-14790484D01*
X12368919Y-14790484D02*
X12387967Y-14790484D01*
X12387967Y-14790484D02*
X12407015Y-14800008D01*
X12407015Y-14800008D02*
X12416538Y-14809531D01*
X12416538Y-14809531D02*
X12426062Y-14828579D01*
X12426062Y-14828579D02*
X12435586Y-14866674D01*
X12435586Y-14866674D02*
X12435586Y-14914293D01*
X12435586Y-14914293D02*
X12426062Y-14952389D01*
X12426062Y-14952389D02*
X12416538Y-14971436D01*
X12416538Y-14971436D02*
X12407015Y-14980960D01*
X12407015Y-14980960D02*
X12387967Y-14990484D01*
X12387967Y-14990484D02*
X12368919Y-14990484D01*
X12368919Y-14990484D02*
X12349872Y-14980960D01*
X12349872Y-14980960D02*
X12340348Y-14971436D01*
X12340348Y-14971436D02*
X12330824Y-14952389D01*
X12330824Y-14952389D02*
X12321300Y-14914293D01*
X12321300Y-14914293D02*
X12321300Y-14866674D01*
X12321300Y-14866674D02*
X12330824Y-14828579D01*
X12330824Y-14828579D02*
X12340348Y-14809531D01*
X12340348Y-14809531D02*
X12349872Y-14800008D01*
X12349872Y-14800008D02*
X12368919Y-14790484D01*
X12521300Y-14990484D02*
X12521300Y-14857150D01*
X12521300Y-14876198D02*
X12530824Y-14866674D01*
X12530824Y-14866674D02*
X12549872Y-14857150D01*
X12549872Y-14857150D02*
X12578443Y-14857150D01*
X12578443Y-14857150D02*
X12597491Y-14866674D01*
X12597491Y-14866674D02*
X12607015Y-14885722D01*
X12607015Y-14885722D02*
X12607015Y-14990484D01*
X12607015Y-14885722D02*
X12616538Y-14866674D01*
X12616538Y-14866674D02*
X12635586Y-14857150D01*
X12635586Y-14857150D02*
X12664157Y-14857150D01*
X12664157Y-14857150D02*
X12683205Y-14866674D01*
X12683205Y-14866674D02*
X12692729Y-14885722D01*
X12692729Y-14885722D02*
X12692729Y-14990484D01*
X12787967Y-14990484D02*
X12787967Y-14857150D01*
X12787967Y-14876198D02*
X12797491Y-14866674D01*
X12797491Y-14866674D02*
X12816538Y-14857150D01*
X12816538Y-14857150D02*
X12845110Y-14857150D01*
X12845110Y-14857150D02*
X12864158Y-14866674D01*
X12864158Y-14866674D02*
X12873681Y-14885722D01*
X12873681Y-14885722D02*
X12873681Y-14990484D01*
X12873681Y-14885722D02*
X12883205Y-14866674D01*
X12883205Y-14866674D02*
X12902253Y-14857150D01*
X12902253Y-14857150D02*
X12930824Y-14857150D01*
X12930824Y-14857150D02*
X12949872Y-14866674D01*
X12949872Y-14866674D02*
X12959396Y-14885722D01*
X12959396Y-14885722D02*
X12959396Y-14990484D01*
X13349872Y-14780960D02*
X13178443Y-15038103D01*
X13607015Y-14790484D02*
X13626062Y-14790484D01*
X13626062Y-14790484D02*
X13645110Y-14800008D01*
X13645110Y-14800008D02*
X13654634Y-14809531D01*
X13654634Y-14809531D02*
X13664158Y-14828579D01*
X13664158Y-14828579D02*
X13673681Y-14866674D01*
X13673681Y-14866674D02*
X13673681Y-14914293D01*
X13673681Y-14914293D02*
X13664158Y-14952389D01*
X13664158Y-14952389D02*
X13654634Y-14971436D01*
X13654634Y-14971436D02*
X13645110Y-14980960D01*
X13645110Y-14980960D02*
X13626062Y-14990484D01*
X13626062Y-14990484D02*
X13607015Y-14990484D01*
X13607015Y-14990484D02*
X13587967Y-14980960D01*
X13587967Y-14980960D02*
X13578443Y-14971436D01*
X13578443Y-14971436D02*
X13568920Y-14952389D01*
X13568920Y-14952389D02*
X13559396Y-14914293D01*
X13559396Y-14914293D02*
X13559396Y-14866674D01*
X13559396Y-14866674D02*
X13568920Y-14828579D01*
X13568920Y-14828579D02*
X13578443Y-14809531D01*
X13578443Y-14809531D02*
X13587967Y-14800008D01*
X13587967Y-14800008D02*
X13607015Y-14790484D01*
X13759396Y-14971436D02*
X13768920Y-14980960D01*
X13768920Y-14980960D02*
X13759396Y-14990484D01*
X13759396Y-14990484D02*
X13749872Y-14980960D01*
X13749872Y-14980960D02*
X13759396Y-14971436D01*
X13759396Y-14971436D02*
X13759396Y-14990484D01*
X13892729Y-14790484D02*
X13911777Y-14790484D01*
X13911777Y-14790484D02*
X13930824Y-14800008D01*
X13930824Y-14800008D02*
X13940348Y-14809531D01*
X13940348Y-14809531D02*
X13949872Y-14828579D01*
X13949872Y-14828579D02*
X13959396Y-14866674D01*
X13959396Y-14866674D02*
X13959396Y-14914293D01*
X13959396Y-14914293D02*
X13949872Y-14952389D01*
X13949872Y-14952389D02*
X13940348Y-14971436D01*
X13940348Y-14971436D02*
X13930824Y-14980960D01*
X13930824Y-14980960D02*
X13911777Y-14990484D01*
X13911777Y-14990484D02*
X13892729Y-14990484D01*
X13892729Y-14990484D02*
X13873681Y-14980960D01*
X13873681Y-14980960D02*
X13864158Y-14971436D01*
X13864158Y-14971436D02*
X13854634Y-14952389D01*
X13854634Y-14952389D02*
X13845110Y-14914293D01*
X13845110Y-14914293D02*
X13845110Y-14866674D01*
X13845110Y-14866674D02*
X13854634Y-14828579D01*
X13854634Y-14828579D02*
X13864158Y-14809531D01*
X13864158Y-14809531D02*
X13873681Y-14800008D01*
X13873681Y-14800008D02*
X13892729Y-14790484D01*
X14026062Y-14790484D02*
X14149872Y-14790484D01*
X14149872Y-14790484D02*
X14083205Y-14866674D01*
X14083205Y-14866674D02*
X14111777Y-14866674D01*
X14111777Y-14866674D02*
X14130824Y-14876198D01*
X14130824Y-14876198D02*
X14140348Y-14885722D01*
X14140348Y-14885722D02*
X14149872Y-14904770D01*
X14149872Y-14904770D02*
X14149872Y-14952389D01*
X14149872Y-14952389D02*
X14140348Y-14971436D01*
X14140348Y-14971436D02*
X14130824Y-14980960D01*
X14130824Y-14980960D02*
X14111777Y-14990484D01*
X14111777Y-14990484D02*
X14054634Y-14990484D01*
X14054634Y-14990484D02*
X14035586Y-14980960D01*
X14035586Y-14980960D02*
X14026062Y-14971436D01*
X14245110Y-14990484D02*
X14283205Y-14990484D01*
X14283205Y-14990484D02*
X14302253Y-14980960D01*
X14302253Y-14980960D02*
X14311777Y-14971436D01*
X14311777Y-14971436D02*
X14330824Y-14942865D01*
X14330824Y-14942865D02*
X14340348Y-14904770D01*
X14340348Y-14904770D02*
X14340348Y-14828579D01*
X14340348Y-14828579D02*
X14330824Y-14809531D01*
X14330824Y-14809531D02*
X14321301Y-14800008D01*
X14321301Y-14800008D02*
X14302253Y-14790484D01*
X14302253Y-14790484D02*
X14264158Y-14790484D01*
X14264158Y-14790484D02*
X14245110Y-14800008D01*
X14245110Y-14800008D02*
X14235586Y-14809531D01*
X14235586Y-14809531D02*
X14226062Y-14828579D01*
X14226062Y-14828579D02*
X14226062Y-14876198D01*
X14226062Y-14876198D02*
X14235586Y-14895246D01*
X14235586Y-14895246D02*
X14245110Y-14904770D01*
X14245110Y-14904770D02*
X14264158Y-14914293D01*
X14264158Y-14914293D02*
X14302253Y-14914293D01*
X14302253Y-14914293D02*
X14321301Y-14904770D01*
X14321301Y-14904770D02*
X14330824Y-14895246D01*
X14330824Y-14895246D02*
X14340348Y-14876198D01*
X14511777Y-14857150D02*
X14511777Y-14990484D01*
X14464158Y-14780960D02*
X14416539Y-14923817D01*
X14416539Y-14923817D02*
X14540348Y-14923817D01*
X14607015Y-14790484D02*
X14607015Y-14828579D01*
X14683205Y-14790484D02*
X14683205Y-14828579D01*
X14978444Y-15066674D02*
X14968920Y-15057150D01*
X14968920Y-15057150D02*
X14949872Y-15028579D01*
X14949872Y-15028579D02*
X14940348Y-15009531D01*
X14940348Y-15009531D02*
X14930824Y-14980960D01*
X14930824Y-14980960D02*
X14921301Y-14933341D01*
X14921301Y-14933341D02*
X14921301Y-14895246D01*
X14921301Y-14895246D02*
X14930824Y-14847627D01*
X14930824Y-14847627D02*
X14940348Y-14819055D01*
X14940348Y-14819055D02*
X14949872Y-14800008D01*
X14949872Y-14800008D02*
X14968920Y-14771436D01*
X14968920Y-14771436D02*
X14978444Y-14761912D01*
X15064158Y-14990484D02*
X15102253Y-14990484D01*
X15102253Y-14990484D02*
X15121301Y-14980960D01*
X15121301Y-14980960D02*
X15130824Y-14971436D01*
X15130824Y-14971436D02*
X15149872Y-14942865D01*
X15149872Y-14942865D02*
X15159396Y-14904770D01*
X15159396Y-14904770D02*
X15159396Y-14828579D01*
X15159396Y-14828579D02*
X15149872Y-14809531D01*
X15149872Y-14809531D02*
X15140348Y-14800008D01*
X15140348Y-14800008D02*
X15121301Y-14790484D01*
X15121301Y-14790484D02*
X15083205Y-14790484D01*
X15083205Y-14790484D02*
X15064158Y-14800008D01*
X15064158Y-14800008D02*
X15054634Y-14809531D01*
X15054634Y-14809531D02*
X15045110Y-14828579D01*
X15045110Y-14828579D02*
X15045110Y-14876198D01*
X15045110Y-14876198D02*
X15054634Y-14895246D01*
X15054634Y-14895246D02*
X15064158Y-14904770D01*
X15064158Y-14904770D02*
X15083205Y-14914293D01*
X15083205Y-14914293D02*
X15121301Y-14914293D01*
X15121301Y-14914293D02*
X15140348Y-14904770D01*
X15140348Y-14904770D02*
X15149872Y-14895246D01*
X15149872Y-14895246D02*
X15159396Y-14876198D01*
X15397491Y-14990484D02*
X15397491Y-14790484D01*
X15483205Y-14990484D02*
X15483205Y-14885722D01*
X15483205Y-14885722D02*
X15473682Y-14866674D01*
X15473682Y-14866674D02*
X15454634Y-14857150D01*
X15454634Y-14857150D02*
X15426063Y-14857150D01*
X15426063Y-14857150D02*
X15407015Y-14866674D01*
X15407015Y-14866674D02*
X15397491Y-14876198D01*
X15607015Y-14990484D02*
X15587967Y-14980960D01*
X15587967Y-14980960D02*
X15578444Y-14971436D01*
X15578444Y-14971436D02*
X15568920Y-14952389D01*
X15568920Y-14952389D02*
X15568920Y-14895246D01*
X15568920Y-14895246D02*
X15578444Y-14876198D01*
X15578444Y-14876198D02*
X15587967Y-14866674D01*
X15587967Y-14866674D02*
X15607015Y-14857150D01*
X15607015Y-14857150D02*
X15635586Y-14857150D01*
X15635586Y-14857150D02*
X15654634Y-14866674D01*
X15654634Y-14866674D02*
X15664158Y-14876198D01*
X15664158Y-14876198D02*
X15673682Y-14895246D01*
X15673682Y-14895246D02*
X15673682Y-14952389D01*
X15673682Y-14952389D02*
X15664158Y-14971436D01*
X15664158Y-14971436D02*
X15654634Y-14980960D01*
X15654634Y-14980960D02*
X15635586Y-14990484D01*
X15635586Y-14990484D02*
X15607015Y-14990484D01*
X15787967Y-14990484D02*
X15768920Y-14980960D01*
X15768920Y-14980960D02*
X15759396Y-14961912D01*
X15759396Y-14961912D02*
X15759396Y-14790484D01*
X15940348Y-14980960D02*
X15921301Y-14990484D01*
X15921301Y-14990484D02*
X15883205Y-14990484D01*
X15883205Y-14990484D02*
X15864158Y-14980960D01*
X15864158Y-14980960D02*
X15854634Y-14961912D01*
X15854634Y-14961912D02*
X15854634Y-14885722D01*
X15854634Y-14885722D02*
X15864158Y-14866674D01*
X15864158Y-14866674D02*
X15883205Y-14857150D01*
X15883205Y-14857150D02*
X15921301Y-14857150D01*
X15921301Y-14857150D02*
X15940348Y-14866674D01*
X15940348Y-14866674D02*
X15949872Y-14885722D01*
X15949872Y-14885722D02*
X15949872Y-14904770D01*
X15949872Y-14904770D02*
X15854634Y-14923817D01*
X16026063Y-14980960D02*
X16045110Y-14990484D01*
X16045110Y-14990484D02*
X16083205Y-14990484D01*
X16083205Y-14990484D02*
X16102253Y-14980960D01*
X16102253Y-14980960D02*
X16111777Y-14961912D01*
X16111777Y-14961912D02*
X16111777Y-14952389D01*
X16111777Y-14952389D02*
X16102253Y-14933341D01*
X16102253Y-14933341D02*
X16083205Y-14923817D01*
X16083205Y-14923817D02*
X16054634Y-14923817D01*
X16054634Y-14923817D02*
X16035586Y-14914293D01*
X16035586Y-14914293D02*
X16026063Y-14895246D01*
X16026063Y-14895246D02*
X16026063Y-14885722D01*
X16026063Y-14885722D02*
X16035586Y-14866674D01*
X16035586Y-14866674D02*
X16054634Y-14857150D01*
X16054634Y-14857150D02*
X16083205Y-14857150D01*
X16083205Y-14857150D02*
X16102253Y-14866674D01*
X16178444Y-15066674D02*
X16187967Y-15057150D01*
X16187967Y-15057150D02*
X16207015Y-15028579D01*
X16207015Y-15028579D02*
X16216539Y-15009531D01*
X16216539Y-15009531D02*
X16226063Y-14980960D01*
X16226063Y-14980960D02*
X16235586Y-14933341D01*
X16235586Y-14933341D02*
X16235586Y-14895246D01*
X16235586Y-14895246D02*
X16226063Y-14847627D01*
X16226063Y-14847627D02*
X16216539Y-14819055D01*
X16216539Y-14819055D02*
X16207015Y-14800008D01*
X16207015Y-14800008D02*
X16187967Y-14771436D01*
X16187967Y-14771436D02*
X16178444Y-14761912D01*
M02*
