G04 #@! TF.GenerationSoftware,KiCad,Pcbnew,8.0.6*
G04 #@! TF.CreationDate,2025-05-06T14:40:44+02:00*
G04 #@! TF.ProjectId,capacitance,63617061-6369-4746-916e-63652e6b6963,rev?*
G04 #@! TF.SameCoordinates,Original*
G04 #@! TF.FileFunction,Soldermask,Top*
G04 #@! TF.FilePolarity,Negative*
%FSLAX46Y46*%
G04 Gerber Fmt 4.6, Leading zero omitted, Abs format (unit mm)*
G04 Created by KiCad (PCBNEW 8.0.6) date 2025-05-06 14:40:44*
%MOMM*%
%LPD*%
G01*
G04 APERTURE LIST*
G04 Aperture macros list*
%AMRoundRect*
0 Rectangle with rounded corners*
0 $1 Rounding radius*
0 $2 $3 $4 $5 $6 $7 $8 $9 X,Y pos of 4 corners*
0 Add a 4 corners polygon primitive as box body*
4,1,4,$2,$3,$4,$5,$6,$7,$8,$9,$2,$3,0*
0 Add four circle primitives for the rounded corners*
1,1,$1+$1,$2,$3*
1,1,$1+$1,$4,$5*
1,1,$1+$1,$6,$7*
1,1,$1+$1,$8,$9*
0 Add four rect primitives between the rounded corners*
20,1,$1+$1,$2,$3,$4,$5,0*
20,1,$1+$1,$4,$5,$6,$7,0*
20,1,$1+$1,$6,$7,$8,$9,0*
20,1,$1+$1,$8,$9,$2,$3,0*%
%AMHorizOval*
0 Thick line with rounded ends*
0 $1 width*
0 $2 $3 position (X,Y) of the first rounded end (center of the circle)*
0 $4 $5 position (X,Y) of the second rounded end (center of the circle)*
0 Add line between two ends*
20,1,$1,$2,$3,$4,$5,0*
0 Add two circle primitives to create the rounded ends*
1,1,$1,$2,$3*
1,1,$1,$4,$5*%
%AMRotRect*
0 Rectangle, with rotation*
0 The origin of the aperture is its center*
0 $1 length*
0 $2 width*
0 $3 Rotation angle, in degrees counterclockwise*
0 Add horizontal line*
21,1,$1,$2,0,0,$3*%
G04 Aperture macros list end*
%ADD10RoundRect,0.218750X0.218750X0.256250X-0.218750X0.256250X-0.218750X-0.256250X0.218750X-0.256250X0*%
%ADD11RoundRect,0.225000X0.225000X0.250000X-0.225000X0.250000X-0.225000X-0.250000X0.225000X-0.250000X0*%
%ADD12R,0.152400X0.533400*%
%ADD13R,0.990600X0.711200*%
%ADD14RoundRect,0.200000X0.200000X0.275000X-0.200000X0.275000X-0.200000X-0.275000X0.200000X-0.275000X0*%
%ADD15RoundRect,0.200000X0.275000X-0.200000X0.275000X0.200000X-0.275000X0.200000X-0.275000X-0.200000X0*%
%ADD16R,1.700000X1.700000*%
%ADD17O,1.700000X1.700000*%
%ADD18RoundRect,0.200000X-0.200000X-0.275000X0.200000X-0.275000X0.200000X0.275000X-0.200000X0.275000X0*%
%ADD19RotRect,0.533400X0.152400X150.000000*%
%ADD20R,1.805236X0.612132*%
%ADD21RoundRect,0.225000X0.250000X-0.225000X0.250000X0.225000X-0.250000X0.225000X-0.250000X-0.225000X0*%
%ADD22RoundRect,0.225000X-0.225000X-0.250000X0.225000X-0.250000X0.225000X0.250000X-0.225000X0.250000X0*%
%ADD23RoundRect,0.200000X-0.275000X0.200000X-0.275000X-0.200000X0.275000X-0.200000X0.275000X0.200000X0*%
%ADD24RoundRect,0.102000X-0.816213X-0.156273X-0.498261X-0.665102X0.816213X0.156273X0.498261X0.665102X0*%
%ADD25RoundRect,0.102000X-1.081195X0.031902X-0.445292X-0.985756X1.081195X-0.031902X0.445292X0.985756X0*%
%ADD26RoundRect,0.200000X0.029798X0.338729X-0.313069X0.132713X-0.029798X-0.338729X0.313069X-0.132713X0*%
%ADD27R,0.990600X0.736600*%
%ADD28R,1.000000X1.000000*%
%ADD29RoundRect,0.102000X-0.509793X0.656305X-0.818816X0.142004X0.509793X-0.656305X0.818816X-0.142004X0*%
%ADD30RoundRect,0.102000X-0.462428X0.977835X-1.080473X-0.050766X0.462428X-0.977835X1.080473X0.050766X0*%
%ADD31RoundRect,0.225000X-0.250000X0.225000X-0.250000X-0.225000X0.250000X-0.225000X0.250000X0.225000X0*%
%ADD32RoundRect,0.075000X-0.700000X-0.075000X0.700000X-0.075000X0.700000X0.075000X-0.700000X0.075000X0*%
%ADD33RoundRect,0.075000X-0.075000X-0.700000X0.075000X-0.700000X0.075000X0.700000X-0.075000X0.700000X0*%
%ADD34RotRect,1.000000X1.000000X61.000000*%
%ADD35RotRect,1.000000X1.000000X122.000000*%
%ADD36R,0.711200X0.990600*%
%ADD37R,1.200000X0.400000*%
%ADD38RoundRect,0.225000X0.064103X0.330175X-0.321622X0.098408X-0.064103X-0.330175X0.321622X-0.098408X0*%
%ADD39RotRect,0.533400X0.152400X329.000000*%
%ADD40RotRect,1.700000X1.700000X300.000000*%
%ADD41HorizOval,1.700000X0.000000X0.000000X0.000000X0.000000X0*%
%ADD42RoundRect,0.225000X-0.321622X-0.098408X0.064103X-0.330175X0.321622X0.098408X-0.064103X0.330175X0*%
%ADD43RotRect,1.000000X1.000000X211.000000*%
%ADD44RoundRect,0.102000X0.818816X0.142004X0.509793X0.656305X-0.818816X-0.142004X-0.509793X-0.656305X0*%
%ADD45RoundRect,0.102000X1.080473X-0.050766X0.462428X0.977835X-1.080473X0.050766X-0.462428X-0.977835X0*%
%ADD46RoundRect,0.218750X0.256250X-0.218750X0.256250X0.218750X-0.256250X0.218750X-0.256250X-0.218750X0*%
%ADD47RoundRect,0.225000X-0.058331X-0.331244X0.323291X-0.092780X0.058331X0.331244X-0.323291X0.092780X0*%
%ADD48RoundRect,0.225000X0.319856X0.104006X-0.069856X0.329006X-0.319856X-0.104006X0.069856X-0.329006X0*%
%ADD49RotRect,0.533400X0.152400X32.000000*%
%ADD50RotRect,0.533400X0.152400X211.000000*%
%ADD51R,1.397000X0.965200*%
%ADD52RoundRect,0.102000X-0.300000X-0.775000X0.300000X-0.775000X0.300000X0.775000X-0.300000X0.775000X0*%
%ADD53RoundRect,0.102000X-0.600000X-0.900000X0.600000X-0.900000X0.600000X0.900000X-0.600000X0.900000X0*%
%ADD54RotRect,1.000000X1.000000X59.000000*%
%ADD55RoundRect,0.102000X0.575000X-0.300000X0.575000X0.300000X-0.575000X0.300000X-0.575000X-0.300000X0*%
%ADD56RoundRect,0.102000X0.575000X-0.150000X0.575000X0.150000X-0.575000X0.150000X-0.575000X-0.150000X0*%
%ADD57O,2.004000X1.204000*%
%ADD58O,2.404000X1.204000*%
%ADD59RoundRect,0.102000X0.521170X-0.647308X0.821170X-0.127692X-0.521170X0.647308X-0.821170X0.127692X0*%
%ADD60RoundRect,0.102000X0.479423X-0.969615X1.079423X0.069615X-0.479423X0.969615X-1.079423X-0.069615X0*%
%ADD61R,0.711200X0.304800*%
%ADD62R,0.508000X1.092200*%
%ADD63RoundRect,0.200000X-0.313069X-0.132713X0.029798X-0.338729X0.313069X0.132713X-0.029798X0.338729X0*%
%ADD64RoundRect,0.102000X0.300000X0.775000X-0.300000X0.775000X-0.300000X-0.775000X0.300000X-0.775000X0*%
%ADD65RoundRect,0.102000X0.600000X0.900000X-0.600000X0.900000X-0.600000X-0.900000X0.600000X-0.900000X0*%
%ADD66RoundRect,0.150000X0.256326X0.468458X-0.468458X-0.256326X-0.256326X-0.468458X0.468458X0.256326X0*%
%ADD67RoundRect,0.200000X-0.023882X-0.339197X0.315337X-0.127229X0.023882X0.339197X-0.315337X0.127229X0*%
%ADD68RoundRect,0.200000X0.310705X0.138157X-0.035705X0.338157X-0.310705X-0.138157X0.035705X-0.338157X0*%
G04 APERTURE END LIST*
D10*
X148327502Y-97120001D03*
X146752498Y-97119999D03*
D11*
X136025003Y-117819999D03*
X134475001Y-117819999D03*
X130955001Y-112100000D03*
X129404999Y-112100000D03*
D12*
X143504452Y-84962436D03*
X143104452Y-84962436D03*
X143104452Y-85699036D03*
X143504452Y-85699036D03*
D13*
X131719999Y-82905001D03*
X136220001Y-82905001D03*
X131719999Y-85054999D03*
X136220001Y-85054999D03*
D12*
X143178348Y-125750000D03*
X143578348Y-125750000D03*
X143578348Y-125013400D03*
X143178348Y-125013400D03*
D14*
X167865004Y-98579998D03*
X166214996Y-98580002D03*
D15*
X152155659Y-127290311D03*
X152155659Y-125640311D03*
D11*
X131205001Y-101534000D03*
X129654999Y-101534000D03*
D16*
X156892499Y-111959990D03*
D17*
X159432497Y-111959976D03*
D18*
X146702500Y-98720000D03*
X148352500Y-98720000D03*
D19*
X160819261Y-115561161D03*
X161019227Y-115214749D03*
X160381299Y-114846419D03*
X160181333Y-115192831D03*
D20*
X158620485Y-104850003D03*
X158620483Y-103899999D03*
X158620480Y-102949998D03*
X156319515Y-102949997D03*
X156319520Y-104850002D03*
D21*
X137070000Y-102155000D03*
X137070000Y-100605000D03*
D22*
X144205000Y-120840000D03*
X145755000Y-120840000D03*
D23*
X152149513Y-122560311D03*
X152149513Y-124210311D03*
D22*
X144180000Y-119340000D03*
X145730000Y-119340000D03*
D24*
X123719144Y-115793611D03*
X124249040Y-116641664D03*
D25*
X119744069Y-116744599D03*
X121651763Y-119797583D03*
D22*
X147465003Y-116319999D03*
X149014997Y-116320001D03*
D26*
X160981678Y-93085785D03*
X159567384Y-93935583D03*
D27*
X129286399Y-108831099D03*
X129286400Y-110561099D03*
X131013601Y-110561099D03*
X131013600Y-108831099D03*
D28*
X146910000Y-83550000D03*
D21*
X149020000Y-104765001D03*
X149020000Y-103214999D03*
D11*
X152795001Y-106020000D03*
X151244999Y-106020000D03*
D29*
X124225183Y-93783409D03*
X123710136Y-94640574D03*
D30*
X121573204Y-90673322D03*
X119719058Y-93759120D03*
D31*
X127680000Y-108934999D03*
X127680000Y-110485001D03*
D32*
X135675000Y-106050000D03*
X135675000Y-106550000D03*
X135675000Y-107050000D03*
X135675000Y-107550000D03*
X135675000Y-108050000D03*
X135675000Y-108550000D03*
X135675000Y-109050000D03*
X135675000Y-109550000D03*
X135675000Y-110050000D03*
X135675000Y-110550000D03*
X135675000Y-111050000D03*
X135675000Y-111550000D03*
X135675000Y-112050000D03*
X135675000Y-112550000D03*
X135675000Y-113050000D03*
X135675000Y-113550000D03*
D33*
X137600000Y-115475000D03*
X138100000Y-115475000D03*
X138600000Y-115475000D03*
X139100000Y-115475000D03*
X139600000Y-115475000D03*
X140100000Y-115475000D03*
X140600000Y-115475000D03*
X141100000Y-115475000D03*
X141600000Y-115475000D03*
X142100000Y-115475000D03*
X142600000Y-115475000D03*
X143100000Y-115475000D03*
X143600000Y-115475000D03*
X144100000Y-115475000D03*
X144600000Y-115475000D03*
X145100000Y-115475000D03*
D32*
X147025000Y-113550000D03*
X147025000Y-113050000D03*
X147025000Y-112550000D03*
X147025000Y-112050000D03*
X147025000Y-111550000D03*
X147025000Y-111050000D03*
X147025000Y-110550000D03*
X147025000Y-110050000D03*
X147025000Y-109550000D03*
X147025000Y-109050000D03*
X147025000Y-108550000D03*
X147025000Y-108050000D03*
X147025000Y-107550000D03*
X147025000Y-107050000D03*
X147025000Y-106550000D03*
X147025000Y-106050000D03*
D33*
X145100000Y-104125000D03*
X144600000Y-104125000D03*
X144100000Y-104125000D03*
X143600000Y-104125000D03*
X143100000Y-104125000D03*
X142600000Y-104125000D03*
X142100000Y-104125000D03*
X141600000Y-104125000D03*
X141100000Y-104125000D03*
X140600000Y-104125000D03*
X140100000Y-104125000D03*
X139600000Y-104125000D03*
X139100000Y-104125000D03*
X138600000Y-104125000D03*
X138100000Y-104125000D03*
X137600000Y-104125000D03*
D34*
X159831812Y-118951195D03*
D31*
X154320026Y-106039994D03*
X154320000Y-107590000D03*
D35*
X122470000Y-112930000D03*
D36*
X116375001Y-106580001D03*
X116375001Y-102079998D03*
X118524999Y-106580002D03*
X118524999Y-102079999D03*
D37*
X154294996Y-104524943D03*
X154294997Y-103875005D03*
X154295014Y-103224969D03*
X152394998Y-103225025D03*
X152394997Y-103874963D03*
X152394980Y-104524999D03*
D14*
X136265000Y-86900000D03*
X134615000Y-86900000D03*
D38*
X163034775Y-96095495D03*
X161706171Y-96893815D03*
D39*
X125820436Y-95081291D03*
X125614420Y-95424156D03*
X126245810Y-95803533D03*
X126451826Y-95460668D03*
D31*
X145060003Y-83535003D03*
X145059999Y-85084997D03*
D40*
X155609114Y-84730000D03*
D41*
X153409409Y-86000000D03*
X151209705Y-87270000D03*
X149010000Y-88540000D03*
X146810296Y-89810000D03*
D42*
X125373056Y-92892338D03*
X126701656Y-93690648D03*
D14*
X153220000Y-114680001D03*
X151570000Y-114680001D03*
D43*
X163710149Y-97759481D03*
D11*
X118565000Y-108339999D03*
X117015000Y-108339999D03*
D16*
X151650022Y-99929998D03*
D17*
X151650000Y-97390000D03*
D44*
X162841126Y-94619877D03*
X162326125Y-93762698D03*
D45*
X166832219Y-93738386D03*
X164978111Y-90652563D03*
D46*
X142725000Y-120847500D03*
X142725000Y-119272500D03*
D47*
X123521867Y-114373273D03*
X124836353Y-113551901D03*
D48*
X161002625Y-117532074D03*
X159660281Y-116757074D03*
D15*
X145058349Y-126826700D03*
X145058345Y-125176702D03*
D49*
X125392706Y-115140959D03*
X125604695Y-115480158D03*
X126229386Y-115089819D03*
X126017397Y-114750620D03*
D18*
X167665006Y-110950024D03*
X169314994Y-110949976D03*
D50*
X161072866Y-95298299D03*
X160866872Y-94955503D03*
X160235428Y-95334895D03*
X160441422Y-95677691D03*
D21*
X141538347Y-126791701D03*
X141538349Y-125241709D03*
D51*
X131000000Y-103102000D03*
X131000000Y-106150000D03*
D52*
X142838347Y-127421701D03*
X143838344Y-127421704D03*
D53*
X141538346Y-131296700D03*
X145138348Y-131296703D03*
D54*
X126535181Y-91503412D03*
D15*
X154410000Y-101860000D03*
X154410000Y-100210000D03*
D22*
X147464999Y-117830000D03*
X149015001Y-117830000D03*
D11*
X136025001Y-116300000D03*
X134474999Y-116300000D03*
D31*
X139240000Y-118620000D03*
X139240000Y-120170000D03*
D55*
X165265000Y-108120000D03*
X165265000Y-107320000D03*
D56*
X165265000Y-106170000D03*
X165265000Y-105170000D03*
X165265000Y-104670000D03*
X165265000Y-103670000D03*
D55*
X165265000Y-102520000D03*
X165265000Y-101720000D03*
D56*
X165265000Y-103170000D03*
X165265000Y-104170000D03*
X165265000Y-105670000D03*
X165265000Y-106670000D03*
D57*
X165840000Y-109240000D03*
D58*
X169840000Y-109240000D03*
D57*
X165840000Y-100600000D03*
D58*
X169840000Y-100600000D03*
D59*
X162226758Y-116696445D03*
X162726793Y-115830427D03*
D60*
X164932631Y-119759769D03*
X166732636Y-116642093D03*
D61*
X153760699Y-124469951D03*
X153760699Y-125270049D03*
X155259301Y-125270049D03*
X155259301Y-124469951D03*
D62*
X154510000Y-124870000D03*
D22*
X147464999Y-114810000D03*
X149015001Y-114810000D03*
D11*
X129235001Y-106194000D03*
X127684999Y-106194000D03*
D46*
X153125000Y-117750001D03*
X153125000Y-116174999D03*
D63*
X123958011Y-96318508D03*
X125372351Y-97168316D03*
D64*
X143730001Y-82900003D03*
X142730004Y-82899999D03*
D65*
X145030003Y-79025005D03*
X141429999Y-79024997D03*
D66*
X162656093Y-106877405D03*
X161984331Y-106205675D03*
X161312573Y-105533909D03*
X159703907Y-107142595D03*
X160375669Y-107814325D03*
X161047427Y-108486091D03*
D28*
X139738347Y-126821701D03*
D21*
X135560000Y-102165000D03*
X135560000Y-100615000D03*
X147520000Y-104740002D03*
X147520000Y-103190000D03*
D23*
X141509996Y-83485000D03*
X141510006Y-85135000D03*
D11*
X157985003Y-106260013D03*
X156434997Y-106259987D03*
D67*
X125702875Y-117184500D03*
X127102129Y-116310118D03*
D68*
X162807087Y-114454576D03*
X161378155Y-113629588D03*
D14*
X120175000Y-100175000D03*
X118525000Y-100175000D03*
M02*
