G04 #@! TF.GenerationSoftware,KiCad,Pcbnew,8.0.6*
G04 #@! TF.CreationDate,2025-05-06T14:40:43+02:00*
G04 #@! TF.ProjectId,capacitance,63617061-6369-4746-916e-63652e6b6963,rev?*
G04 #@! TF.SameCoordinates,Original*
G04 #@! TF.FileFunction,Copper,L4,Bot*
G04 #@! TF.FilePolarity,Positive*
%FSLAX46Y46*%
G04 Gerber Fmt 4.6, Leading zero omitted, Abs format (unit mm)*
G04 Created by KiCad (PCBNEW 8.0.6) date 2025-05-06 14:40:43*
%MOMM*%
%LPD*%
G01*
G04 APERTURE LIST*
G04 Aperture macros list*
%AMHorizOval*
0 Thick line with rounded ends*
0 $1 width*
0 $2 $3 position (X,Y) of the first rounded end (center of the circle)*
0 $4 $5 position (X,Y) of the second rounded end (center of the circle)*
0 Add line between two ends*
20,1,$1,$2,$3,$4,$5,0*
0 Add two circle primitives to create the rounded ends*
1,1,$1,$2,$3*
1,1,$1,$4,$5*%
%AMRotRect*
0 Rectangle, with rotation*
0 The origin of the aperture is its center*
0 $1 length*
0 $2 width*
0 $3 Rotation angle, in degrees counterclockwise*
0 Add horizontal line*
21,1,$1,$2,0,0,$3*%
G04 Aperture macros list end*
%ADD10C,0.187500*%
G04 #@! TA.AperFunction,NonConductor*
%ADD11C,0.187500*%
G04 #@! TD*
G04 #@! TA.AperFunction,ComponentPad*
%ADD12R,1.700000X1.700000*%
G04 #@! TD*
G04 #@! TA.AperFunction,ComponentPad*
%ADD13O,1.700000X1.700000*%
G04 #@! TD*
G04 #@! TA.AperFunction,ComponentPad*
%ADD14RotRect,1.700000X1.700000X300.000000*%
G04 #@! TD*
G04 #@! TA.AperFunction,ComponentPad*
%ADD15HorizOval,1.700000X0.000000X0.000000X0.000000X0.000000X0*%
G04 #@! TD*
G04 #@! TA.AperFunction,ComponentPad*
%ADD16O,1.800000X1.000000*%
G04 #@! TD*
G04 #@! TA.AperFunction,ComponentPad*
%ADD17O,2.200000X1.000000*%
G04 #@! TD*
G04 #@! TA.AperFunction,ViaPad*
%ADD18C,0.700000*%
G04 #@! TD*
G04 #@! TA.AperFunction,ViaPad*
%ADD19C,0.800000*%
G04 #@! TD*
G04 #@! TA.AperFunction,ViaPad*
%ADD20C,0.450000*%
G04 #@! TD*
G04 #@! TA.AperFunction,ViaPad*
%ADD21C,0.500000*%
G04 #@! TD*
G04 #@! TA.AperFunction,Conductor*
%ADD22C,0.300000*%
G04 #@! TD*
G04 #@! TA.AperFunction,Conductor*
%ADD23C,0.284000*%
G04 #@! TD*
G04 APERTURE END LIST*
D10*
D11*
X131573806Y-127774875D02*
X131073806Y-128640901D01*
X132168815Y-127458575D02*
X131942396Y-128565031D01*
X131942396Y-128565031D02*
X131138229Y-128100745D01*
D12*
X156892499Y-111959990D03*
D13*
X159432497Y-111959976D03*
D14*
X155609114Y-84730000D03*
D15*
X153409409Y-86000000D03*
X151209705Y-87270000D03*
X149010000Y-88540000D03*
X146810296Y-89810000D03*
D12*
X151650022Y-99929998D03*
D13*
X151650000Y-97390000D03*
D16*
X165840000Y-109240000D03*
D17*
X169840000Y-109240000D03*
D16*
X165840000Y-100600000D03*
D17*
X169840000Y-100600000D03*
D18*
X146460000Y-104960000D03*
D19*
X152120000Y-128190000D03*
D18*
X139180000Y-117480000D03*
X136540000Y-104250000D03*
X135450000Y-104280000D03*
D19*
X156105659Y-125275311D03*
D18*
X137230000Y-82890000D03*
X136520000Y-103370000D03*
X138080000Y-118740000D03*
D19*
X146310000Y-114860000D03*
D18*
X138230000Y-117490000D03*
X130870000Y-82860000D03*
D19*
X146300000Y-116310000D03*
D20*
X126300039Y-114052667D03*
D18*
X137290000Y-117480000D03*
X135450000Y-105210000D03*
D19*
X151030000Y-104524999D03*
D18*
X149307500Y-98740000D03*
X136080000Y-118770000D03*
X121100000Y-100175000D03*
X149010000Y-105850000D03*
X136590000Y-105210000D03*
X135440000Y-103370000D03*
X137100000Y-118750000D03*
D20*
X160193112Y-96396091D03*
D19*
X152150000Y-121720000D03*
D20*
X127610428Y-95500686D03*
D18*
X143225000Y-113895000D03*
D20*
X144010001Y-86280000D03*
X142630000Y-124720000D03*
X159424599Y-115331786D03*
D18*
X167750000Y-109420000D03*
X166920000Y-106270000D03*
X167800000Y-99830000D03*
X166810000Y-103510000D03*
X145690000Y-102600000D03*
X144840000Y-107550000D03*
D19*
X140660000Y-112600000D03*
X149835000Y-124055000D03*
X149940000Y-125640000D03*
X139170000Y-110060000D03*
D18*
X134610000Y-88910000D03*
X139610000Y-100620000D03*
D20*
X130280000Y-113020000D03*
D18*
X145450000Y-106160000D03*
D20*
X132685000Y-107475000D03*
D21*
X134620000Y-129540000D03*
X135636000Y-89408000D03*
D20*
X126446617Y-108440000D03*
X133870000Y-105420000D03*
D18*
X122601938Y-93955109D03*
X149370001Y-97139999D03*
D20*
X128510000Y-103090000D03*
D21*
X129540000Y-124460000D03*
X149775000Y-122775000D03*
D20*
X131220000Y-107475000D03*
X129150000Y-107475000D03*
D21*
X134620000Y-93980000D03*
D20*
X131850000Y-100420000D03*
D18*
X146140001Y-85010000D03*
D21*
X162560000Y-91440000D03*
X137668000Y-91440000D03*
X162560000Y-111760000D03*
X134620000Y-124968000D03*
X147320000Y-81280000D03*
X124460000Y-99568000D03*
X124460000Y-104140000D03*
D20*
X128370000Y-107475000D03*
D18*
X150000000Y-116320001D03*
D21*
X137160000Y-96520000D03*
D18*
X149020000Y-102120000D03*
X169314994Y-111835006D03*
X142730001Y-81540000D03*
X117004999Y-109350000D03*
D21*
X129032000Y-83820000D03*
D18*
X127628027Y-94222867D03*
D21*
X159500000Y-84075000D03*
X155448000Y-119380000D03*
X161268004Y-114821428D03*
D20*
X133860000Y-106110000D03*
D21*
X132080000Y-81280000D03*
D20*
X132020000Y-112500000D03*
D21*
X134620000Y-78740000D03*
D20*
X130930000Y-113030000D03*
D21*
X139700000Y-129540000D03*
X132080000Y-91440000D03*
X138684000Y-100076000D03*
D20*
X128510000Y-102240000D03*
X128545000Y-100435000D03*
D21*
X170688000Y-104648000D03*
D18*
X145670000Y-117700000D03*
D21*
X121920000Y-96520000D03*
D20*
X132000000Y-107475000D03*
D21*
X139700000Y-88900000D03*
D18*
X140573346Y-125281704D03*
D21*
X154940000Y-129540000D03*
D20*
X128510000Y-103830000D03*
D18*
X116375000Y-101050000D03*
D20*
X126520000Y-111900000D03*
X133860000Y-101450000D03*
D21*
X143764000Y-108204000D03*
D18*
X166780000Y-101760000D03*
X158720298Y-116214157D03*
D21*
X168950000Y-99425000D03*
X132080000Y-121920000D03*
X124460000Y-124460000D03*
X127000000Y-86360000D03*
D18*
X150050000Y-117830000D03*
D21*
X157480000Y-127000000D03*
X157480000Y-96520000D03*
X116840000Y-111760000D03*
D20*
X129890000Y-107475000D03*
D21*
X157480000Y-91440000D03*
D18*
X163444570Y-93099618D03*
D20*
X126446617Y-107220585D03*
D19*
X160996639Y-97353147D03*
D20*
X133645000Y-100815000D03*
D21*
X116840000Y-96520000D03*
D20*
X133860000Y-102810000D03*
D21*
X157480000Y-116840000D03*
D20*
X128510000Y-101310000D03*
D18*
X137090000Y-99550000D03*
D20*
X126446617Y-111176617D03*
D18*
X145755000Y-121840000D03*
D20*
X133761944Y-110238056D03*
X126446617Y-105840000D03*
X133045000Y-111475000D03*
D21*
X125880000Y-115930000D03*
X151892000Y-131572000D03*
X167325000Y-104925000D03*
X149860000Y-78740000D03*
D20*
X132520000Y-100420000D03*
D21*
X155956000Y-88900000D03*
X129540000Y-88900000D03*
D18*
X152950000Y-102410000D03*
D20*
X126446617Y-110490000D03*
X133575000Y-110945000D03*
D21*
X147320000Y-91440000D03*
X148336000Y-121920000D03*
X129540000Y-93980000D03*
X124460000Y-88900000D03*
D20*
X127744997Y-107475000D03*
D21*
X150050000Y-126925000D03*
X130048000Y-129540000D03*
D20*
X126446617Y-106465003D03*
D21*
X137160000Y-81280000D03*
D18*
X138100000Y-114180000D03*
D21*
X149860000Y-83820000D03*
X155448000Y-114808000D03*
D18*
X163890000Y-116520000D03*
D21*
X155440000Y-103875005D03*
X160020000Y-99060000D03*
X121920000Y-106680000D03*
D18*
X134480000Y-115240000D03*
D20*
X127650000Y-113030000D03*
D21*
X123900000Y-86075000D03*
D20*
X128500000Y-105070000D03*
D21*
X162950000Y-105300000D03*
X147320000Y-127000000D03*
X151175000Y-91675000D03*
D18*
X143900000Y-117510000D03*
D20*
X133860000Y-102140000D03*
D18*
X155337494Y-107590000D03*
D21*
X157480000Y-121920000D03*
D18*
X166790000Y-108100000D03*
X137360000Y-86920000D03*
D21*
X167640000Y-113792000D03*
X140208000Y-110744000D03*
X137160000Y-127000000D03*
X142642437Y-84962436D03*
D18*
X130700000Y-85020000D03*
D21*
X121920000Y-121920000D03*
X162560000Y-86360000D03*
D20*
X128340000Y-113050000D03*
D21*
X149860000Y-129540000D03*
X121920000Y-101600000D03*
X157480000Y-81280000D03*
D19*
X156683965Y-124459488D03*
D20*
X129020000Y-113050000D03*
D18*
X154410000Y-99060000D03*
D21*
X156980002Y-103930002D03*
X119380000Y-114300000D03*
D20*
X129630000Y-113040000D03*
D18*
X150070000Y-114810000D03*
D20*
X126446617Y-107845588D03*
X133180000Y-100420000D03*
D21*
X147320000Y-86360000D03*
X147320000Y-132080000D03*
D18*
X137670000Y-105780000D03*
D21*
X147828000Y-100584000D03*
D18*
X134480000Y-118960000D03*
X138079998Y-120240001D03*
D20*
X130130000Y-100420000D03*
D18*
X156470000Y-107267494D03*
D21*
X166525000Y-110375000D03*
D20*
X127920000Y-105070000D03*
X127050000Y-107475000D03*
D21*
X160059998Y-103930002D03*
X157480000Y-86360000D03*
X144780000Y-93980000D03*
D20*
X127120000Y-112500000D03*
D18*
X137580000Y-111550000D03*
X137290000Y-85040000D03*
D20*
X129340000Y-100420000D03*
D18*
X124320000Y-112770000D03*
D20*
X131030000Y-100420000D03*
D21*
X129540000Y-119380000D03*
D20*
X131570000Y-112990000D03*
D21*
X137160000Y-132080000D03*
D20*
X127220000Y-105070000D03*
D21*
X127000000Y-121920000D03*
X146304000Y-101600000D03*
D20*
X130550000Y-107475000D03*
D21*
X144270249Y-125778597D03*
X132080000Y-96520000D03*
X141525000Y-107525000D03*
D18*
X166270000Y-97480000D03*
D20*
X133890000Y-104810000D03*
D18*
X135560000Y-99560000D03*
X152160000Y-117780001D03*
X143858346Y-128856702D03*
D21*
X153125000Y-89550000D03*
X162560000Y-121920000D03*
X160020000Y-124460000D03*
X167640000Y-96520000D03*
D20*
X126446617Y-109720000D03*
D18*
X147530000Y-102120000D03*
D21*
X157480000Y-101092000D03*
D20*
X133880000Y-103550000D03*
D18*
X123156742Y-117289722D03*
D20*
X133870000Y-104160000D03*
D21*
X125353784Y-95817913D03*
X149860000Y-119888000D03*
D20*
X126446617Y-109066617D03*
D21*
X152400000Y-81280000D03*
D20*
X126446617Y-105110000D03*
D21*
X141732000Y-112268000D03*
X127000000Y-101600000D03*
X154432000Y-92456000D03*
X139700000Y-93980000D03*
D20*
X128510000Y-104490000D03*
D21*
X137160000Y-121920000D03*
D20*
X133761944Y-109388056D03*
D21*
X160020000Y-88900000D03*
D18*
X150300000Y-106590000D03*
X132160000Y-108810000D03*
D21*
X160531544Y-94410271D03*
D20*
X132535000Y-111985000D03*
D22*
X167750000Y-107100000D02*
X167750000Y-109420000D01*
X166920000Y-106270000D02*
X167750000Y-107100000D01*
X166810000Y-103510000D02*
X167800000Y-102520000D01*
X167800000Y-102520000D02*
X167800000Y-99830000D01*
D23*
X154500000Y-87090591D02*
X154500000Y-90170000D01*
X153409409Y-86000000D02*
X154500000Y-87090591D01*
X145690000Y-98980000D02*
X145690000Y-102600000D01*
X154500000Y-90170000D02*
X145690000Y-98980000D01*
X143900000Y-97110000D02*
X152130000Y-88880000D01*
X152130000Y-88880000D02*
X152130000Y-88190295D01*
X144840000Y-107550000D02*
X144670000Y-107550000D01*
X144670000Y-107550000D02*
X143900000Y-106780000D01*
X143900000Y-106780000D02*
X143900000Y-97110000D01*
X152130000Y-88190295D02*
X151209705Y-87270000D01*
X147916000Y-123966000D02*
X146620000Y-122670000D01*
X146620000Y-122670000D02*
X142990000Y-122670000D01*
X141660000Y-121340000D02*
X141660000Y-113600000D01*
X149746000Y-123966000D02*
X147916000Y-123966000D01*
X142990000Y-122670000D02*
X141660000Y-121340000D01*
X141660000Y-113600000D02*
X140660000Y-112600000D01*
X149835000Y-124055000D02*
X149746000Y-123966000D01*
X139130000Y-113340000D02*
X140530000Y-114740000D01*
X145900000Y-123930000D02*
X147630000Y-125660000D01*
X147630000Y-125660000D02*
X149920000Y-125660000D01*
X139130000Y-110100000D02*
X139130000Y-113340000D01*
X142435000Y-123930000D02*
X145900000Y-123930000D01*
X139170000Y-110060000D02*
X139130000Y-110100000D01*
X149920000Y-125660000D02*
X149940000Y-125640000D01*
X140530000Y-114740000D02*
X140530000Y-122025000D01*
X140530000Y-122025000D02*
X142435000Y-123930000D01*
X139580000Y-100590000D02*
X139580000Y-95390000D01*
X139610000Y-100620000D02*
X139580000Y-100590000D01*
X139580000Y-95390000D02*
X134610000Y-90420000D01*
X134610000Y-90420000D02*
X134610000Y-88910000D01*
G04 #@! TA.AperFunction,Conductor*
G36*
X144041248Y-76043179D02*
G01*
X145113841Y-76082840D01*
X145118384Y-76083093D01*
X146188767Y-76162360D01*
X146193322Y-76162781D01*
X146905154Y-76242034D01*
X147260098Y-76281552D01*
X147264639Y-76282143D01*
X148326219Y-76440241D01*
X148330713Y-76440994D01*
X149385817Y-76638227D01*
X149390292Y-76639150D01*
X150437305Y-76875219D01*
X150441744Y-76876306D01*
X151479357Y-77150911D01*
X151483749Y-77152160D01*
X152510521Y-77464923D01*
X152514826Y-77466322D01*
X153477669Y-77798961D01*
X153529338Y-77816812D01*
X153533641Y-77818388D01*
X154534525Y-78206132D01*
X154538722Y-78207848D01*
X155524553Y-78632294D01*
X155528695Y-78634168D01*
X156051310Y-78882456D01*
X156498207Y-79094771D01*
X156502309Y-79096814D01*
X157454092Y-79592902D01*
X157458116Y-79595095D01*
X158390949Y-80126031D01*
X158394813Y-80128325D01*
X158926808Y-80457723D01*
X159307412Y-80693384D01*
X159311263Y-80695868D01*
X159435804Y-80779500D01*
X160202345Y-81294252D01*
X160206067Y-81296853D01*
X160957555Y-81842841D01*
X161074395Y-81927730D01*
X161078052Y-81930492D01*
X161922493Y-82593038D01*
X161926025Y-82595916D01*
X162426337Y-83019241D01*
X162745404Y-83289211D01*
X162748847Y-83292235D01*
X163542035Y-84015320D01*
X163545359Y-84018464D01*
X163989992Y-84454955D01*
X164311300Y-84770380D01*
X164314511Y-84773651D01*
X165052128Y-85553339D01*
X165055215Y-85556725D01*
X165763535Y-86363155D01*
X165766495Y-86366654D01*
X166028504Y-86688178D01*
X166364503Y-87100500D01*
X166444506Y-87198675D01*
X166447325Y-87202267D01*
X167079042Y-88038796D01*
X167094160Y-88058815D01*
X167096849Y-88062516D01*
X167312031Y-88370500D01*
X167711573Y-88942353D01*
X167714128Y-88946157D01*
X167826907Y-89120998D01*
X168271338Y-89809999D01*
X168295941Y-89848140D01*
X168298344Y-89852023D01*
X168393997Y-90013083D01*
X168846403Y-90774846D01*
X168848670Y-90778828D01*
X169188067Y-91401628D01*
X169357953Y-91713373D01*
X169362275Y-91721303D01*
X169364393Y-91725367D01*
X169842807Y-92686153D01*
X169844774Y-92690293D01*
X170287365Y-93668116D01*
X170289177Y-93672325D01*
X170695325Y-94665807D01*
X170696981Y-94670080D01*
X170971027Y-95418232D01*
X171020237Y-95552578D01*
X171066158Y-95677942D01*
X171067651Y-95682267D01*
X171335955Y-96508019D01*
X171399326Y-96703054D01*
X171400661Y-96707438D01*
X171694380Y-97739756D01*
X171695553Y-97744186D01*
X171824848Y-98271981D01*
X171950216Y-98783750D01*
X171950938Y-98786695D01*
X171951945Y-98791163D01*
X172021150Y-99126901D01*
X172168629Y-99842380D01*
X172169471Y-99846884D01*
X172347162Y-100905393D01*
X172347837Y-100909926D01*
X172486294Y-101974276D01*
X172486801Y-101978831D01*
X172585836Y-103047577D01*
X172586174Y-103052147D01*
X172645647Y-104123786D01*
X172645817Y-104128366D01*
X172665650Y-105201517D01*
X172665650Y-105206099D01*
X172645817Y-106279249D01*
X172645647Y-106283829D01*
X172586174Y-107355468D01*
X172585836Y-107360038D01*
X172486801Y-108428784D01*
X172486294Y-108433339D01*
X172347837Y-109497689D01*
X172347162Y-109502222D01*
X172169471Y-110560731D01*
X172168629Y-110565235D01*
X171951946Y-111616449D01*
X171950938Y-111620920D01*
X171695553Y-112663429D01*
X171694380Y-112667859D01*
X171400661Y-113700177D01*
X171399326Y-113704561D01*
X171067654Y-114725341D01*
X171066158Y-114729673D01*
X170696981Y-115737535D01*
X170695325Y-115741808D01*
X170289177Y-116735290D01*
X170287365Y-116739499D01*
X169844774Y-117717322D01*
X169842807Y-117721462D01*
X169364393Y-118682248D01*
X169362275Y-118686312D01*
X168848670Y-119628787D01*
X168846403Y-119632769D01*
X168298353Y-120555578D01*
X168295941Y-120559475D01*
X167714128Y-121461458D01*
X167711573Y-121465262D01*
X167096854Y-122345092D01*
X167094160Y-122348800D01*
X166447335Y-123205335D01*
X166444506Y-123208940D01*
X165766495Y-124040961D01*
X165763535Y-124044460D01*
X165055215Y-124850890D01*
X165052128Y-124854276D01*
X164314511Y-125633964D01*
X164311300Y-125637235D01*
X163545364Y-126389146D01*
X163542035Y-126392295D01*
X162748847Y-127115380D01*
X162745404Y-127118404D01*
X161926046Y-127811682D01*
X161922493Y-127814577D01*
X161078052Y-128477123D01*
X161074395Y-128479885D01*
X160206084Y-129110750D01*
X160202328Y-129113375D01*
X159311263Y-129711747D01*
X159307412Y-129714231D01*
X158394851Y-130279267D01*
X158390910Y-130281607D01*
X157458116Y-130812520D01*
X157454092Y-130814713D01*
X156502309Y-131310801D01*
X156498207Y-131312844D01*
X155528711Y-131773439D01*
X155524536Y-131775328D01*
X154538745Y-132199757D01*
X154534503Y-132201492D01*
X153533641Y-132589227D01*
X153529338Y-132590803D01*
X152514853Y-132941284D01*
X152510494Y-132942700D01*
X151483765Y-133255450D01*
X151479357Y-133256704D01*
X150441744Y-133531309D01*
X150437293Y-133532399D01*
X149390298Y-133768463D01*
X149385810Y-133769389D01*
X148330726Y-133966618D01*
X148326206Y-133967376D01*
X147264642Y-134125471D01*
X147260098Y-134126063D01*
X146193326Y-134244833D01*
X146188763Y-134245255D01*
X145118400Y-134324521D01*
X145113824Y-134324775D01*
X144041249Y-134364436D01*
X144036667Y-134364521D01*
X142963333Y-134364521D01*
X142958751Y-134364436D01*
X141886175Y-134324775D01*
X141881599Y-134324521D01*
X140811236Y-134245255D01*
X140806673Y-134244833D01*
X139739901Y-134126063D01*
X139735357Y-134125471D01*
X138673793Y-133967376D01*
X138669273Y-133966618D01*
X137614189Y-133769389D01*
X137609701Y-133768463D01*
X136562706Y-133532399D01*
X136558255Y-133531309D01*
X135520642Y-133256704D01*
X135516234Y-133255450D01*
X134489505Y-132942700D01*
X134485146Y-132941284D01*
X133470661Y-132590803D01*
X133466358Y-132589227D01*
X132465496Y-132201492D01*
X132461254Y-132199757D01*
X132183103Y-132080000D01*
X136654353Y-132080000D01*
X136674834Y-132222456D01*
X136734622Y-132353371D01*
X136734623Y-132353373D01*
X136828872Y-132462143D01*
X136949947Y-132539953D01*
X136949950Y-132539954D01*
X136949949Y-132539954D01*
X137088036Y-132580499D01*
X137088038Y-132580500D01*
X137088039Y-132580500D01*
X137231962Y-132580500D01*
X137231962Y-132580499D01*
X137370053Y-132539953D01*
X137491128Y-132462143D01*
X137585377Y-132353373D01*
X137645165Y-132222457D01*
X137665647Y-132080000D01*
X146814353Y-132080000D01*
X146834834Y-132222456D01*
X146894622Y-132353371D01*
X146894623Y-132353373D01*
X146988872Y-132462143D01*
X147109947Y-132539953D01*
X147109950Y-132539954D01*
X147109949Y-132539954D01*
X147248036Y-132580499D01*
X147248038Y-132580500D01*
X147248039Y-132580500D01*
X147391962Y-132580500D01*
X147391962Y-132580499D01*
X147530053Y-132539953D01*
X147651128Y-132462143D01*
X147745377Y-132353373D01*
X147805165Y-132222457D01*
X147825647Y-132080000D01*
X147805165Y-131937543D01*
X147745377Y-131806627D01*
X147651128Y-131697857D01*
X147530053Y-131620047D01*
X147530051Y-131620046D01*
X147530049Y-131620045D01*
X147530050Y-131620045D01*
X147391963Y-131579500D01*
X147391961Y-131579500D01*
X147248039Y-131579500D01*
X147248036Y-131579500D01*
X147109949Y-131620045D01*
X146988873Y-131697856D01*
X146894623Y-131806626D01*
X146894622Y-131806628D01*
X146834834Y-131937543D01*
X146814353Y-132080000D01*
X137665647Y-132080000D01*
X137645165Y-131937543D01*
X137585377Y-131806627D01*
X137491128Y-131697857D01*
X137370053Y-131620047D01*
X137370051Y-131620046D01*
X137370049Y-131620045D01*
X137370050Y-131620045D01*
X137231963Y-131579500D01*
X137231961Y-131579500D01*
X137088039Y-131579500D01*
X137088036Y-131579500D01*
X136949949Y-131620045D01*
X136828873Y-131697856D01*
X136734623Y-131806626D01*
X136734622Y-131806628D01*
X136674834Y-131937543D01*
X136654353Y-132080000D01*
X132183103Y-132080000D01*
X131475463Y-131775328D01*
X131471288Y-131773439D01*
X131047284Y-131572000D01*
X151386353Y-131572000D01*
X151406834Y-131714456D01*
X151466622Y-131845371D01*
X151466623Y-131845373D01*
X151560872Y-131954143D01*
X151681947Y-132031953D01*
X151681950Y-132031954D01*
X151681949Y-132031954D01*
X151820036Y-132072499D01*
X151820038Y-132072500D01*
X151820039Y-132072500D01*
X151963962Y-132072500D01*
X151963962Y-132072499D01*
X152102053Y-132031953D01*
X152223128Y-131954143D01*
X152317377Y-131845373D01*
X152377165Y-131714457D01*
X152397647Y-131572000D01*
X152377165Y-131429543D01*
X152317377Y-131298627D01*
X152223128Y-131189857D01*
X152102053Y-131112047D01*
X152102051Y-131112046D01*
X152102049Y-131112045D01*
X152102050Y-131112045D01*
X151963963Y-131071500D01*
X151963961Y-131071500D01*
X151820039Y-131071500D01*
X151820036Y-131071500D01*
X151681949Y-131112045D01*
X151560873Y-131189856D01*
X151466623Y-131298626D01*
X151466622Y-131298628D01*
X151406834Y-131429543D01*
X151386353Y-131572000D01*
X131047284Y-131572000D01*
X130501792Y-131312844D01*
X130497690Y-131310801D01*
X129545907Y-130814713D01*
X129541883Y-130812520D01*
X129047820Y-130531317D01*
X128609067Y-130281594D01*
X128605170Y-130279280D01*
X128154042Y-129999953D01*
X127692587Y-129714231D01*
X127688736Y-129711747D01*
X127432979Y-129540000D01*
X129542353Y-129540000D01*
X129562834Y-129682456D01*
X129622622Y-129813371D01*
X129622623Y-129813373D01*
X129716872Y-129922143D01*
X129837947Y-129999953D01*
X129837950Y-129999954D01*
X129837949Y-129999954D01*
X129976036Y-130040499D01*
X129976038Y-130040500D01*
X129976039Y-130040500D01*
X130119962Y-130040500D01*
X130119962Y-130040499D01*
X130258053Y-129999953D01*
X130379128Y-129922143D01*
X130473377Y-129813373D01*
X130533165Y-129682457D01*
X130553647Y-129540000D01*
X134114353Y-129540000D01*
X134134834Y-129682456D01*
X134194622Y-129813371D01*
X134194623Y-129813373D01*
X134288872Y-129922143D01*
X134409947Y-129999953D01*
X134409950Y-129999954D01*
X134409949Y-129999954D01*
X134548036Y-130040499D01*
X134548038Y-130040500D01*
X134548039Y-130040500D01*
X134691962Y-130040500D01*
X134691962Y-130040499D01*
X134830053Y-129999953D01*
X134951128Y-129922143D01*
X135045377Y-129813373D01*
X135105165Y-129682457D01*
X135125647Y-129540000D01*
X139194353Y-129540000D01*
X139214834Y-129682456D01*
X139274622Y-129813371D01*
X139274623Y-129813373D01*
X139368872Y-129922143D01*
X139489947Y-129999953D01*
X139489950Y-129999954D01*
X139489949Y-129999954D01*
X139628036Y-130040499D01*
X139628038Y-130040500D01*
X139628039Y-130040500D01*
X139771962Y-130040500D01*
X139771962Y-130040499D01*
X139910053Y-129999953D01*
X140031128Y-129922143D01*
X140125377Y-129813373D01*
X140185165Y-129682457D01*
X140205647Y-129540000D01*
X149354353Y-129540000D01*
X149374834Y-129682456D01*
X149434622Y-129813371D01*
X149434623Y-129813373D01*
X149528872Y-129922143D01*
X149649947Y-129999953D01*
X149649950Y-129999954D01*
X149649949Y-129999954D01*
X149788036Y-130040499D01*
X149788038Y-130040500D01*
X149788039Y-130040500D01*
X149931962Y-130040500D01*
X149931962Y-130040499D01*
X150070053Y-129999953D01*
X150191128Y-129922143D01*
X150285377Y-129813373D01*
X150345165Y-129682457D01*
X150365647Y-129540000D01*
X154434353Y-129540000D01*
X154454834Y-129682456D01*
X154514622Y-129813371D01*
X154514623Y-129813373D01*
X154608872Y-129922143D01*
X154729947Y-129999953D01*
X154729950Y-129999954D01*
X154729949Y-129999954D01*
X154868036Y-130040499D01*
X154868038Y-130040500D01*
X154868039Y-130040500D01*
X155011962Y-130040500D01*
X155011962Y-130040499D01*
X155150053Y-129999953D01*
X155271128Y-129922143D01*
X155365377Y-129813373D01*
X155425165Y-129682457D01*
X155445647Y-129540000D01*
X155425165Y-129397543D01*
X155365377Y-129266627D01*
X155271128Y-129157857D01*
X155150053Y-129080047D01*
X155150051Y-129080046D01*
X155150049Y-129080045D01*
X155150050Y-129080045D01*
X155011963Y-129039500D01*
X155011961Y-129039500D01*
X154868039Y-129039500D01*
X154868036Y-129039500D01*
X154729949Y-129080045D01*
X154608873Y-129157856D01*
X154514623Y-129266626D01*
X154514622Y-129266628D01*
X154454834Y-129397543D01*
X154434353Y-129540000D01*
X150365647Y-129540000D01*
X150345165Y-129397543D01*
X150285377Y-129266627D01*
X150191128Y-129157857D01*
X150070053Y-129080047D01*
X150070051Y-129080046D01*
X150070049Y-129080045D01*
X150070050Y-129080045D01*
X149931963Y-129039500D01*
X149931961Y-129039500D01*
X149788039Y-129039500D01*
X149788036Y-129039500D01*
X149649949Y-129080045D01*
X149528873Y-129157856D01*
X149434623Y-129266626D01*
X149434622Y-129266628D01*
X149374834Y-129397543D01*
X149354353Y-129540000D01*
X140205647Y-129540000D01*
X140185165Y-129397543D01*
X140125377Y-129266627D01*
X140031128Y-129157857D01*
X139910053Y-129080047D01*
X139910051Y-129080046D01*
X139910049Y-129080045D01*
X139910050Y-129080045D01*
X139771963Y-129039500D01*
X139771961Y-129039500D01*
X139628039Y-129039500D01*
X139628036Y-129039500D01*
X139489949Y-129080045D01*
X139368873Y-129157856D01*
X139274623Y-129266626D01*
X139274622Y-129266628D01*
X139214834Y-129397543D01*
X139194353Y-129540000D01*
X135125647Y-129540000D01*
X135105165Y-129397543D01*
X135045377Y-129266627D01*
X134951128Y-129157857D01*
X134830053Y-129080047D01*
X134830051Y-129080046D01*
X134830049Y-129080045D01*
X134830050Y-129080045D01*
X134691963Y-129039500D01*
X134691961Y-129039500D01*
X134548039Y-129039500D01*
X134548036Y-129039500D01*
X134409949Y-129080045D01*
X134288873Y-129157856D01*
X134194623Y-129266626D01*
X134194622Y-129266628D01*
X134134834Y-129397543D01*
X134114353Y-129540000D01*
X130553647Y-129540000D01*
X130533165Y-129397543D01*
X130473377Y-129266627D01*
X130379128Y-129157857D01*
X130258053Y-129080047D01*
X130258051Y-129080046D01*
X130258049Y-129080045D01*
X130258050Y-129080045D01*
X130119963Y-129039500D01*
X130119961Y-129039500D01*
X129976039Y-129039500D01*
X129976036Y-129039500D01*
X129837949Y-129080045D01*
X129716873Y-129157856D01*
X129622623Y-129266626D01*
X129622622Y-129266628D01*
X129562834Y-129397543D01*
X129542353Y-129540000D01*
X127432979Y-129540000D01*
X126797671Y-129113375D01*
X126793915Y-129110750D01*
X126660012Y-129013464D01*
X126175701Y-128661591D01*
X130411144Y-128661591D01*
X130411144Y-128661592D01*
X131821160Y-129475665D01*
X132178520Y-128856700D01*
X143252664Y-128856700D01*
X143252664Y-128856703D01*
X143273301Y-129013462D01*
X143273302Y-129013464D01*
X143333111Y-129157857D01*
X143333810Y-129159543D01*
X143430064Y-129284984D01*
X143555505Y-129381238D01*
X143701584Y-129441746D01*
X143779965Y-129452065D01*
X143858345Y-129462384D01*
X143858346Y-129462384D01*
X143858347Y-129462384D01*
X143910600Y-129455504D01*
X144015108Y-129441746D01*
X144161187Y-129381238D01*
X144286628Y-129284984D01*
X144382882Y-129159543D01*
X144443390Y-129013464D01*
X144464028Y-128856702D01*
X144443390Y-128699940D01*
X144382882Y-128553861D01*
X144286628Y-128428420D01*
X144161187Y-128332166D01*
X144015108Y-128271658D01*
X144015106Y-128271657D01*
X143858347Y-128251020D01*
X143858345Y-128251020D01*
X143701585Y-128271657D01*
X143701583Y-128271658D01*
X143555506Y-128332165D01*
X143430064Y-128428420D01*
X143333809Y-128553862D01*
X143273302Y-128699939D01*
X143273301Y-128699941D01*
X143252664Y-128856700D01*
X132178520Y-128856700D01*
X132956661Y-127508920D01*
X132956660Y-127508919D01*
X132075186Y-127000000D01*
X136654353Y-127000000D01*
X136674834Y-127142456D01*
X136700370Y-127198371D01*
X136734623Y-127273373D01*
X136828872Y-127382143D01*
X136949947Y-127459953D01*
X136949950Y-127459954D01*
X136949949Y-127459954D01*
X137088036Y-127500499D01*
X137088038Y-127500500D01*
X137088039Y-127500500D01*
X137231962Y-127500500D01*
X137231962Y-127500499D01*
X137370053Y-127459953D01*
X137491128Y-127382143D01*
X137585377Y-127273373D01*
X137645165Y-127142457D01*
X137665647Y-127000000D01*
X146814353Y-127000000D01*
X146834834Y-127142456D01*
X146860370Y-127198371D01*
X146894623Y-127273373D01*
X146988872Y-127382143D01*
X147109947Y-127459953D01*
X147109950Y-127459954D01*
X147109949Y-127459954D01*
X147248036Y-127500499D01*
X147248038Y-127500500D01*
X147248039Y-127500500D01*
X147391962Y-127500500D01*
X147391962Y-127500499D01*
X147530053Y-127459953D01*
X147651128Y-127382143D01*
X147745377Y-127273373D01*
X147805165Y-127142457D01*
X147825647Y-127000000D01*
X147805165Y-126857543D01*
X147745377Y-126726627D01*
X147651128Y-126617857D01*
X147530053Y-126540047D01*
X147530051Y-126540046D01*
X147530049Y-126540045D01*
X147530050Y-126540045D01*
X147391963Y-126499500D01*
X147391961Y-126499500D01*
X147248039Y-126499500D01*
X147248036Y-126499500D01*
X147109949Y-126540045D01*
X146988873Y-126617856D01*
X146894623Y-126726626D01*
X146894622Y-126726628D01*
X146834834Y-126857543D01*
X146814353Y-127000000D01*
X137665647Y-127000000D01*
X137645165Y-126857543D01*
X137585377Y-126726627D01*
X137491128Y-126617857D01*
X137370053Y-126540047D01*
X137370051Y-126540046D01*
X137370049Y-126540045D01*
X137370050Y-126540045D01*
X137231963Y-126499500D01*
X137231961Y-126499500D01*
X137088039Y-126499500D01*
X137088036Y-126499500D01*
X136949949Y-126540045D01*
X136828873Y-126617856D01*
X136734623Y-126726626D01*
X136734622Y-126726628D01*
X136674834Y-126857543D01*
X136654353Y-127000000D01*
X132075186Y-127000000D01*
X131546645Y-126694847D01*
X131546644Y-126694847D01*
X130411144Y-128661591D01*
X126175701Y-128661591D01*
X125925604Y-128479885D01*
X125921947Y-128477123D01*
X125077506Y-127814577D01*
X125073968Y-127811694D01*
X124694586Y-127490690D01*
X124254595Y-127118404D01*
X124251152Y-127115380D01*
X123457964Y-126392295D01*
X123454635Y-126389146D01*
X123329379Y-126266184D01*
X122762806Y-125709985D01*
X122688699Y-125637235D01*
X122685488Y-125633964D01*
X122055459Y-124968000D01*
X134114353Y-124968000D01*
X134134834Y-125110456D01*
X134178226Y-125205470D01*
X134194623Y-125241373D01*
X134288872Y-125350143D01*
X134409947Y-125427953D01*
X134409950Y-125427954D01*
X134409949Y-125427954D01*
X134548036Y-125468499D01*
X134548038Y-125468500D01*
X134548039Y-125468500D01*
X134691962Y-125468500D01*
X134691962Y-125468499D01*
X134830053Y-125427953D01*
X134951128Y-125350143D01*
X135010432Y-125281702D01*
X139967664Y-125281702D01*
X139967664Y-125281705D01*
X139988301Y-125438464D01*
X139988302Y-125438466D01*
X140015954Y-125505225D01*
X140048810Y-125584545D01*
X140145064Y-125709986D01*
X140270505Y-125806240D01*
X140416584Y-125866748D01*
X140494965Y-125877067D01*
X140573345Y-125887386D01*
X140573346Y-125887386D01*
X140573347Y-125887386D01*
X140625600Y-125880506D01*
X140730108Y-125866748D01*
X140876187Y-125806240D01*
X140912212Y-125778597D01*
X143764602Y-125778597D01*
X143785083Y-125921053D01*
X143844871Y-126051968D01*
X143844872Y-126051970D01*
X143939121Y-126160740D01*
X144060196Y-126238550D01*
X144060199Y-126238551D01*
X144060198Y-126238551D01*
X144198285Y-126279096D01*
X144198287Y-126279097D01*
X144198288Y-126279097D01*
X144342211Y-126279097D01*
X144342211Y-126279096D01*
X144480302Y-126238550D01*
X144601377Y-126160740D01*
X144695626Y-126051970D01*
X144755414Y-125921054D01*
X144775896Y-125778597D01*
X144755414Y-125636140D01*
X144695626Y-125505224D01*
X144601377Y-125396454D01*
X144480302Y-125318644D01*
X144480300Y-125318643D01*
X144480298Y-125318642D01*
X144480299Y-125318642D01*
X144342212Y-125278097D01*
X144342210Y-125278097D01*
X144198288Y-125278097D01*
X144198285Y-125278097D01*
X144060198Y-125318642D01*
X143939122Y-125396453D01*
X143844872Y-125505223D01*
X143844871Y-125505225D01*
X143785083Y-125636140D01*
X143764602Y-125778597D01*
X140912212Y-125778597D01*
X141001628Y-125709986D01*
X141097882Y-125584545D01*
X141158390Y-125438466D01*
X141179028Y-125281704D01*
X141174566Y-125247815D01*
X141158390Y-125124943D01*
X141158390Y-125124942D01*
X141097882Y-124978863D01*
X141001628Y-124853422D01*
X140876187Y-124757168D01*
X140730108Y-124696660D01*
X140730106Y-124696659D01*
X140573347Y-124676022D01*
X140573345Y-124676022D01*
X140416585Y-124696659D01*
X140416583Y-124696660D01*
X140270506Y-124757167D01*
X140145064Y-124853422D01*
X140048809Y-124978864D01*
X139988302Y-125124941D01*
X139988301Y-125124943D01*
X139967664Y-125281702D01*
X135010432Y-125281702D01*
X135045377Y-125241373D01*
X135105165Y-125110457D01*
X135125647Y-124968000D01*
X135105165Y-124825543D01*
X135045377Y-124694627D01*
X134951128Y-124585857D01*
X134830053Y-124508047D01*
X134830051Y-124508046D01*
X134830049Y-124508045D01*
X134830050Y-124508045D01*
X134691963Y-124467500D01*
X134691961Y-124467500D01*
X134548039Y-124467500D01*
X134548036Y-124467500D01*
X134409949Y-124508045D01*
X134288873Y-124585856D01*
X134194623Y-124694626D01*
X134194622Y-124694628D01*
X134134834Y-124825543D01*
X134114353Y-124968000D01*
X122055459Y-124968000D01*
X121947871Y-124854276D01*
X121944784Y-124850890D01*
X121601450Y-124460000D01*
X123954353Y-124460000D01*
X123974834Y-124602456D01*
X124021894Y-124705500D01*
X124034623Y-124733373D01*
X124128872Y-124842143D01*
X124249947Y-124919953D01*
X124249950Y-124919954D01*
X124249949Y-124919954D01*
X124388036Y-124960499D01*
X124388038Y-124960500D01*
X124388039Y-124960500D01*
X124531962Y-124960500D01*
X124531962Y-124960499D01*
X124670053Y-124919953D01*
X124791128Y-124842143D01*
X124885377Y-124733373D01*
X124945165Y-124602457D01*
X124965647Y-124460000D01*
X129034353Y-124460000D01*
X129054834Y-124602456D01*
X129101894Y-124705500D01*
X129114623Y-124733373D01*
X129208872Y-124842143D01*
X129329947Y-124919953D01*
X129329950Y-124919954D01*
X129329949Y-124919954D01*
X129468036Y-124960499D01*
X129468038Y-124960500D01*
X129468039Y-124960500D01*
X129611962Y-124960500D01*
X129611962Y-124960499D01*
X129750053Y-124919953D01*
X129871128Y-124842143D01*
X129965377Y-124733373D01*
X130025165Y-124602457D01*
X130045647Y-124460000D01*
X130025165Y-124317543D01*
X129965377Y-124186627D01*
X129871128Y-124077857D01*
X129750053Y-124000047D01*
X129750051Y-124000046D01*
X129750049Y-124000045D01*
X129750050Y-124000045D01*
X129611963Y-123959500D01*
X129611961Y-123959500D01*
X129468039Y-123959500D01*
X129468036Y-123959500D01*
X129329949Y-124000045D01*
X129208873Y-124077856D01*
X129114623Y-124186626D01*
X129114622Y-124186628D01*
X129054834Y-124317543D01*
X129034353Y-124460000D01*
X124965647Y-124460000D01*
X124945165Y-124317543D01*
X124885377Y-124186627D01*
X124791128Y-124077857D01*
X124670053Y-124000047D01*
X124670051Y-124000046D01*
X124670049Y-124000045D01*
X124670050Y-124000045D01*
X124531963Y-123959500D01*
X124531961Y-123959500D01*
X124388039Y-123959500D01*
X124388036Y-123959500D01*
X124249949Y-124000045D01*
X124128873Y-124077856D01*
X124034623Y-124186626D01*
X124034622Y-124186628D01*
X123974834Y-124317543D01*
X123954353Y-124460000D01*
X121601450Y-124460000D01*
X121236464Y-124044460D01*
X121233504Y-124040961D01*
X120946693Y-123689001D01*
X120555477Y-123208920D01*
X120552679Y-123205355D01*
X119905827Y-122348784D01*
X119903145Y-122345092D01*
X119898943Y-122339078D01*
X119606142Y-121920000D01*
X121414353Y-121920000D01*
X121434834Y-122062456D01*
X121486468Y-122175516D01*
X121494623Y-122193373D01*
X121588872Y-122302143D01*
X121709947Y-122379953D01*
X121709950Y-122379954D01*
X121709949Y-122379954D01*
X121848036Y-122420499D01*
X121848038Y-122420500D01*
X121848039Y-122420500D01*
X121991962Y-122420500D01*
X121991962Y-122420499D01*
X122130053Y-122379953D01*
X122251128Y-122302143D01*
X122345377Y-122193373D01*
X122405165Y-122062457D01*
X122425647Y-121920000D01*
X126494353Y-121920000D01*
X126514834Y-122062456D01*
X126566468Y-122175516D01*
X126574623Y-122193373D01*
X126668872Y-122302143D01*
X126789947Y-122379953D01*
X126789950Y-122379954D01*
X126789949Y-122379954D01*
X126928036Y-122420499D01*
X126928038Y-122420500D01*
X126928039Y-122420500D01*
X127071962Y-122420500D01*
X127071962Y-122420499D01*
X127210053Y-122379953D01*
X127331128Y-122302143D01*
X127425377Y-122193373D01*
X127485165Y-122062457D01*
X127505647Y-121920000D01*
X131574353Y-121920000D01*
X131594834Y-122062456D01*
X131646468Y-122175516D01*
X131654623Y-122193373D01*
X131748872Y-122302143D01*
X131869947Y-122379953D01*
X131869950Y-122379954D01*
X131869949Y-122379954D01*
X132008036Y-122420499D01*
X132008038Y-122420500D01*
X132008039Y-122420500D01*
X132151962Y-122420500D01*
X132151962Y-122420499D01*
X132290053Y-122379953D01*
X132411128Y-122302143D01*
X132505377Y-122193373D01*
X132565165Y-122062457D01*
X132585647Y-121920000D01*
X136654353Y-121920000D01*
X136674834Y-122062456D01*
X136726468Y-122175516D01*
X136734623Y-122193373D01*
X136828872Y-122302143D01*
X136949947Y-122379953D01*
X136949950Y-122379954D01*
X136949949Y-122379954D01*
X137088036Y-122420499D01*
X137088038Y-122420500D01*
X137088039Y-122420500D01*
X137231962Y-122420500D01*
X137231962Y-122420499D01*
X137370053Y-122379953D01*
X137491128Y-122302143D01*
X137585377Y-122193373D01*
X137645165Y-122062457D01*
X137665647Y-121920000D01*
X137645165Y-121777543D01*
X137585377Y-121646627D01*
X137491128Y-121537857D01*
X137370053Y-121460047D01*
X137370051Y-121460046D01*
X137370049Y-121460045D01*
X137370050Y-121460045D01*
X137231963Y-121419500D01*
X137231961Y-121419500D01*
X137088039Y-121419500D01*
X137088036Y-121419500D01*
X136949949Y-121460045D01*
X136828873Y-121537856D01*
X136734623Y-121646626D01*
X136734622Y-121646628D01*
X136674834Y-121777543D01*
X136654353Y-121920000D01*
X132585647Y-121920000D01*
X132565165Y-121777543D01*
X132505377Y-121646627D01*
X132411128Y-121537857D01*
X132290053Y-121460047D01*
X132290051Y-121460046D01*
X132290049Y-121460045D01*
X132290050Y-121460045D01*
X132151963Y-121419500D01*
X132151961Y-121419500D01*
X132008039Y-121419500D01*
X132008036Y-121419500D01*
X131869949Y-121460045D01*
X131748873Y-121537856D01*
X131654623Y-121646626D01*
X131654622Y-121646628D01*
X131594834Y-121777543D01*
X131574353Y-121920000D01*
X127505647Y-121920000D01*
X127485165Y-121777543D01*
X127425377Y-121646627D01*
X127331128Y-121537857D01*
X127210053Y-121460047D01*
X127210051Y-121460046D01*
X127210049Y-121460045D01*
X127210050Y-121460045D01*
X127071963Y-121419500D01*
X127071961Y-121419500D01*
X126928039Y-121419500D01*
X126928036Y-121419500D01*
X126789949Y-121460045D01*
X126668873Y-121537856D01*
X126574623Y-121646626D01*
X126574622Y-121646628D01*
X126514834Y-121777543D01*
X126494353Y-121920000D01*
X122425647Y-121920000D01*
X122405165Y-121777543D01*
X122345377Y-121646627D01*
X122251128Y-121537857D01*
X122130053Y-121460047D01*
X122130051Y-121460046D01*
X122130049Y-121460045D01*
X122130050Y-121460045D01*
X121991963Y-121419500D01*
X121991961Y-121419500D01*
X121848039Y-121419500D01*
X121848036Y-121419500D01*
X121709949Y-121460045D01*
X121588873Y-121537856D01*
X121494623Y-121646626D01*
X121494622Y-121646628D01*
X121434834Y-121777543D01*
X121414353Y-121920000D01*
X119606142Y-121920000D01*
X119288423Y-121465258D01*
X119285871Y-121461458D01*
X119240857Y-121391673D01*
X118704040Y-120559447D01*
X118701664Y-120555607D01*
X118514226Y-120239999D01*
X137474316Y-120239999D01*
X137474316Y-120240002D01*
X137494953Y-120396761D01*
X137494954Y-120396763D01*
X137555462Y-120542842D01*
X137651716Y-120668283D01*
X137777157Y-120764537D01*
X137923236Y-120825045D01*
X138001617Y-120835364D01*
X138079997Y-120845683D01*
X138079998Y-120845683D01*
X138079999Y-120845683D01*
X138132252Y-120838803D01*
X138236760Y-120825045D01*
X138382839Y-120764537D01*
X138508280Y-120668283D01*
X138604534Y-120542842D01*
X138665042Y-120396763D01*
X138685680Y-120240001D01*
X138675328Y-120161373D01*
X138665042Y-120083240D01*
X138665042Y-120083239D01*
X138604534Y-119937160D01*
X138508280Y-119811719D01*
X138382839Y-119715465D01*
X138236760Y-119654957D01*
X138236758Y-119654956D01*
X138079999Y-119634319D01*
X138079997Y-119634319D01*
X137923237Y-119654956D01*
X137923235Y-119654957D01*
X137777158Y-119715464D01*
X137651716Y-119811719D01*
X137555461Y-119937161D01*
X137494954Y-120083238D01*
X137494953Y-120083240D01*
X137474316Y-120239999D01*
X118514226Y-120239999D01*
X118230430Y-119762143D01*
X118153596Y-119632769D01*
X118151329Y-119628787D01*
X118015752Y-119380000D01*
X129034353Y-119380000D01*
X129054834Y-119522456D01*
X129105213Y-119632769D01*
X129114623Y-119653373D01*
X129208872Y-119762143D01*
X129329947Y-119839953D01*
X129329950Y-119839954D01*
X129329949Y-119839954D01*
X129468036Y-119880499D01*
X129468038Y-119880500D01*
X129468039Y-119880500D01*
X129611962Y-119880500D01*
X129611962Y-119880499D01*
X129750053Y-119839953D01*
X129871128Y-119762143D01*
X129965377Y-119653373D01*
X130025165Y-119522457D01*
X130045647Y-119380000D01*
X130025165Y-119237543D01*
X129965377Y-119106627D01*
X129871128Y-118997857D01*
X129812218Y-118959998D01*
X133874318Y-118959998D01*
X133874318Y-118960001D01*
X133894955Y-119116760D01*
X133894956Y-119116762D01*
X133955464Y-119262841D01*
X134051718Y-119388282D01*
X134177159Y-119484536D01*
X134323238Y-119545044D01*
X134401619Y-119555363D01*
X134479999Y-119565682D01*
X134480000Y-119565682D01*
X134480001Y-119565682D01*
X134532254Y-119558802D01*
X134636762Y-119545044D01*
X134782841Y-119484536D01*
X134908282Y-119388282D01*
X135004536Y-119262841D01*
X135065044Y-119116762D01*
X135085682Y-118960000D01*
X135065044Y-118803238D01*
X135004536Y-118657159D01*
X134908282Y-118531718D01*
X134782841Y-118435464D01*
X134733540Y-118415043D01*
X134636762Y-118374956D01*
X134636760Y-118374955D01*
X134480001Y-118354318D01*
X134479999Y-118354318D01*
X134323239Y-118374955D01*
X134323237Y-118374956D01*
X134177160Y-118435463D01*
X134051718Y-118531718D01*
X133955463Y-118657160D01*
X133894956Y-118803237D01*
X133894955Y-118803239D01*
X133874318Y-118959998D01*
X129812218Y-118959998D01*
X129750053Y-118920047D01*
X129750051Y-118920046D01*
X129750049Y-118920045D01*
X129750050Y-118920045D01*
X129611963Y-118879500D01*
X129611961Y-118879500D01*
X129468039Y-118879500D01*
X129468036Y-118879500D01*
X129329949Y-118920045D01*
X129208873Y-118997856D01*
X129114623Y-119106626D01*
X129114622Y-119106628D01*
X129054834Y-119237543D01*
X129034353Y-119380000D01*
X118015752Y-119380000D01*
X117786872Y-118960001D01*
X117637708Y-118686281D01*
X117635622Y-118682279D01*
X117202692Y-117812839D01*
X117157192Y-117721462D01*
X117155225Y-117717322D01*
X116961680Y-117289720D01*
X122551060Y-117289720D01*
X122551060Y-117289723D01*
X122571697Y-117446482D01*
X122571698Y-117446484D01*
X122632206Y-117592563D01*
X122728460Y-117718004D01*
X122853901Y-117814258D01*
X122999980Y-117874766D01*
X123078361Y-117885085D01*
X123156741Y-117895404D01*
X123156742Y-117895404D01*
X123156743Y-117895404D01*
X123208996Y-117888524D01*
X123313504Y-117874766D01*
X123459583Y-117814258D01*
X123585024Y-117718004D01*
X123681278Y-117592563D01*
X123741786Y-117446484D01*
X123762424Y-117289722D01*
X123756530Y-117244956D01*
X123741786Y-117132961D01*
X123741786Y-117132960D01*
X123681278Y-116986881D01*
X123585024Y-116861440D01*
X123459583Y-116765186D01*
X123395623Y-116738693D01*
X123313504Y-116704678D01*
X123313502Y-116704677D01*
X123156743Y-116684040D01*
X123156741Y-116684040D01*
X122999981Y-116704677D01*
X122999979Y-116704678D01*
X122853902Y-116765185D01*
X122728460Y-116861440D01*
X122632205Y-116986882D01*
X122571698Y-117132959D01*
X122571697Y-117132961D01*
X122551060Y-117289720D01*
X116961680Y-117289720D01*
X116712634Y-116739499D01*
X116710822Y-116735290D01*
X116499004Y-116217160D01*
X116381609Y-115930000D01*
X125374353Y-115930000D01*
X125394834Y-116072456D01*
X125454622Y-116203371D01*
X125454623Y-116203373D01*
X125548872Y-116312143D01*
X125669947Y-116389953D01*
X125669950Y-116389954D01*
X125669949Y-116389954D01*
X125808036Y-116430499D01*
X125808038Y-116430500D01*
X125808039Y-116430500D01*
X125951962Y-116430500D01*
X125951962Y-116430499D01*
X126090053Y-116389953D01*
X126211128Y-116312143D01*
X126305377Y-116203373D01*
X126365165Y-116072457D01*
X126385647Y-115930000D01*
X126365165Y-115787543D01*
X126305377Y-115656627D01*
X126211128Y-115547857D01*
X126090053Y-115470047D01*
X126090051Y-115470046D01*
X126090049Y-115470045D01*
X126090050Y-115470045D01*
X125951963Y-115429500D01*
X125951961Y-115429500D01*
X125808039Y-115429500D01*
X125808036Y-115429500D01*
X125669949Y-115470045D01*
X125548873Y-115547856D01*
X125454623Y-115656626D01*
X125454622Y-115656628D01*
X125394834Y-115787543D01*
X125374353Y-115930000D01*
X116381609Y-115930000D01*
X116304669Y-115741797D01*
X116303018Y-115737535D01*
X116302074Y-115734957D01*
X116120772Y-115239998D01*
X133874318Y-115239998D01*
X133874318Y-115240001D01*
X133894955Y-115396760D01*
X133894956Y-115396762D01*
X133955464Y-115542841D01*
X134051718Y-115668282D01*
X134177159Y-115764536D01*
X134323238Y-115825044D01*
X134401619Y-115835363D01*
X134479999Y-115845682D01*
X134480000Y-115845682D01*
X134480001Y-115845682D01*
X134532254Y-115838802D01*
X134636762Y-115825044D01*
X134782841Y-115764536D01*
X134908282Y-115668282D01*
X135004536Y-115542841D01*
X135065044Y-115396762D01*
X135085682Y-115240000D01*
X135065044Y-115083238D01*
X135004536Y-114937159D01*
X134908282Y-114811718D01*
X134782841Y-114715464D01*
X134636762Y-114654956D01*
X134636760Y-114654955D01*
X134480001Y-114634318D01*
X134479999Y-114634318D01*
X134323239Y-114654955D01*
X134323237Y-114654956D01*
X134177160Y-114715463D01*
X134051718Y-114811718D01*
X133955463Y-114937160D01*
X133894956Y-115083237D01*
X133894955Y-115083239D01*
X133874318Y-115239998D01*
X116120772Y-115239998D01*
X115933828Y-114729635D01*
X115932358Y-114725380D01*
X115794143Y-114300000D01*
X118874353Y-114300000D01*
X118894834Y-114442456D01*
X118943061Y-114548056D01*
X118954623Y-114573373D01*
X119048872Y-114682143D01*
X119169947Y-114759953D01*
X119169950Y-114759954D01*
X119169949Y-114759954D01*
X119308036Y-114800499D01*
X119308038Y-114800500D01*
X119308039Y-114800500D01*
X119451962Y-114800500D01*
X119451962Y-114800499D01*
X119559121Y-114769035D01*
X119590050Y-114759954D01*
X119590050Y-114759953D01*
X119590053Y-114759953D01*
X119711128Y-114682143D01*
X119805377Y-114573373D01*
X119865165Y-114442457D01*
X119885647Y-114300000D01*
X119868394Y-114179998D01*
X137494318Y-114179998D01*
X137494318Y-114180001D01*
X137514955Y-114336760D01*
X137514956Y-114336762D01*
X137551886Y-114425920D01*
X137575464Y-114482841D01*
X137671718Y-114608282D01*
X137797159Y-114704536D01*
X137943238Y-114765044D01*
X138021619Y-114775363D01*
X138099999Y-114785682D01*
X138100000Y-114785682D01*
X138100001Y-114785682D01*
X138152254Y-114778802D01*
X138256762Y-114765044D01*
X138402841Y-114704536D01*
X138528282Y-114608282D01*
X138624536Y-114482841D01*
X138685044Y-114336762D01*
X138699764Y-114224955D01*
X138705682Y-114180001D01*
X138705682Y-114179998D01*
X138685044Y-114023239D01*
X138685044Y-114023238D01*
X138624536Y-113877159D01*
X138528282Y-113751718D01*
X138402841Y-113655464D01*
X138399497Y-113654079D01*
X138256762Y-113594956D01*
X138256760Y-113594955D01*
X138100001Y-113574318D01*
X138099999Y-113574318D01*
X137943239Y-113594955D01*
X137943237Y-113594956D01*
X137797160Y-113655463D01*
X137671718Y-113751718D01*
X137575463Y-113877160D01*
X137514956Y-114023237D01*
X137514955Y-114023239D01*
X137494318Y-114179998D01*
X119868394Y-114179998D01*
X119865165Y-114157543D01*
X119805377Y-114026627D01*
X119711128Y-113917857D01*
X119590053Y-113840047D01*
X119590051Y-113840046D01*
X119590049Y-113840045D01*
X119590050Y-113840045D01*
X119451963Y-113799500D01*
X119451961Y-113799500D01*
X119308039Y-113799500D01*
X119308036Y-113799500D01*
X119169949Y-113840045D01*
X119048873Y-113917856D01*
X118954623Y-114026626D01*
X118954622Y-114026628D01*
X118894834Y-114157543D01*
X118874353Y-114300000D01*
X115794143Y-114300000D01*
X115600661Y-113704524D01*
X115599349Y-113700215D01*
X115334680Y-112769998D01*
X123714318Y-112769998D01*
X123714318Y-112770001D01*
X123734955Y-112926760D01*
X123734956Y-112926762D01*
X123790347Y-113060489D01*
X123795464Y-113072841D01*
X123891718Y-113198282D01*
X124017159Y-113294536D01*
X124163238Y-113355044D01*
X124194366Y-113359142D01*
X124319999Y-113375682D01*
X124320000Y-113375682D01*
X124320001Y-113375682D01*
X124372254Y-113368802D01*
X124476762Y-113355044D01*
X124622841Y-113294536D01*
X124748282Y-113198282D01*
X124844536Y-113072841D01*
X124905044Y-112926762D01*
X124925682Y-112770000D01*
X124925484Y-112768499D01*
X124905044Y-112613239D01*
X124905044Y-112613238D01*
X124844536Y-112467159D01*
X124748282Y-112341718D01*
X124622841Y-112245464D01*
X124476762Y-112184956D01*
X124476760Y-112184955D01*
X124320001Y-112164318D01*
X124319999Y-112164318D01*
X124163239Y-112184955D01*
X124163237Y-112184956D01*
X124017160Y-112245463D01*
X123891718Y-112341718D01*
X123795463Y-112467160D01*
X123734956Y-112613237D01*
X123734955Y-112613239D01*
X123714318Y-112769998D01*
X115334680Y-112769998D01*
X115305614Y-112667840D01*
X115304446Y-112663429D01*
X115083132Y-111760000D01*
X116334353Y-111760000D01*
X116354834Y-111902456D01*
X116414622Y-112033371D01*
X116414623Y-112033373D01*
X116508872Y-112142143D01*
X116629947Y-112219953D01*
X116629950Y-112219954D01*
X116629949Y-112219954D01*
X116768036Y-112260499D01*
X116768038Y-112260500D01*
X116768039Y-112260500D01*
X116911962Y-112260500D01*
X116911962Y-112260499D01*
X117050053Y-112219953D01*
X117171128Y-112142143D01*
X117265377Y-112033373D01*
X117303454Y-111949998D01*
X125879999Y-111949998D01*
X125880000Y-111949999D01*
X125880000Y-111950000D01*
X127550000Y-113700000D01*
X131469998Y-113760000D01*
X131469998Y-113759999D01*
X131470000Y-113760000D01*
X131870328Y-113365368D01*
X131878114Y-113359142D01*
X131877878Y-113358870D01*
X131884584Y-113353059D01*
X131884585Y-113353057D01*
X131884589Y-113353055D01*
X131891767Y-113344770D01*
X131898395Y-113337701D01*
X133711915Y-111549998D01*
X136974318Y-111549998D01*
X136974318Y-111550001D01*
X136994955Y-111706760D01*
X136994956Y-111706762D01*
X137020114Y-111767500D01*
X137055464Y-111852841D01*
X137151718Y-111978282D01*
X137277159Y-112074536D01*
X137423238Y-112135044D01*
X137477161Y-112142143D01*
X137579999Y-112155682D01*
X137580000Y-112155682D01*
X137580001Y-112155682D01*
X137632254Y-112148802D01*
X137736762Y-112135044D01*
X137882841Y-112074536D01*
X138008282Y-111978282D01*
X138104536Y-111852841D01*
X138165044Y-111706762D01*
X138185682Y-111550000D01*
X138165044Y-111393238D01*
X138104536Y-111247159D01*
X138008282Y-111121718D01*
X137882841Y-111025464D01*
X137864343Y-111017802D01*
X137736762Y-110964956D01*
X137736760Y-110964955D01*
X137580001Y-110944318D01*
X137579999Y-110944318D01*
X137423239Y-110964955D01*
X137423237Y-110964956D01*
X137277160Y-111025463D01*
X137151718Y-111121718D01*
X137055463Y-111247160D01*
X136994956Y-111393237D01*
X136994955Y-111393239D01*
X136974318Y-111549998D01*
X133711915Y-111549998D01*
X134280000Y-110990000D01*
X134286370Y-110059999D01*
X138514722Y-110059999D01*
X138514722Y-110060000D01*
X138533762Y-110216818D01*
X138588769Y-110361856D01*
X138589780Y-110364523D01*
X138679517Y-110494530D01*
X138695725Y-110508888D01*
X138732852Y-110568075D01*
X138737500Y-110601705D01*
X138737500Y-113391674D01*
X138746603Y-113425646D01*
X138764249Y-113491503D01*
X138772330Y-113505500D01*
X138772331Y-113505500D01*
X138815922Y-113581001D01*
X138815924Y-113581003D01*
X138896064Y-113661143D01*
X138896070Y-113661148D01*
X140101181Y-114866259D01*
X140134666Y-114927582D01*
X140137500Y-114953940D01*
X140137500Y-121973327D01*
X140137500Y-122076673D01*
X140163984Y-122175516D01*
X140164249Y-122176502D01*
X140173990Y-122193374D01*
X140173991Y-122193375D01*
X140215922Y-122266001D01*
X140215924Y-122266003D01*
X140296064Y-122346143D01*
X140296069Y-122346147D01*
X142194000Y-124244079D01*
X142283500Y-124295752D01*
X142300712Y-124300364D01*
X142309318Y-124302670D01*
X142309319Y-124302670D01*
X142383326Y-124322500D01*
X142383327Y-124322500D01*
X142486673Y-124322500D01*
X145686060Y-124322500D01*
X145753099Y-124342185D01*
X145773740Y-124358818D01*
X147315921Y-125901000D01*
X147315922Y-125901001D01*
X147388999Y-125974078D01*
X147478501Y-126025752D01*
X147578326Y-126052500D01*
X149377623Y-126052500D01*
X149444662Y-126072185D01*
X149459848Y-126083683D01*
X149567760Y-126179283D01*
X149567762Y-126179284D01*
X149707634Y-126252696D01*
X149762358Y-126266184D01*
X149822739Y-126301340D01*
X149854528Y-126363559D01*
X149847632Y-126433088D01*
X149804241Y-126487851D01*
X149799724Y-126490896D01*
X149718874Y-126542855D01*
X149624623Y-126651626D01*
X149624622Y-126651628D01*
X149564834Y-126782543D01*
X149544353Y-126925000D01*
X149564834Y-127067456D01*
X149624622Y-127198371D01*
X149624623Y-127198373D01*
X149718872Y-127307143D01*
X149839947Y-127384953D01*
X149839950Y-127384954D01*
X149839949Y-127384954D01*
X149978036Y-127425499D01*
X149978038Y-127425500D01*
X149978039Y-127425500D01*
X150121962Y-127425500D01*
X150121962Y-127425499D01*
X150260053Y-127384953D01*
X150381128Y-127307143D01*
X150475377Y-127198373D01*
X150535165Y-127067457D01*
X150544864Y-127000000D01*
X156974353Y-127000000D01*
X156994834Y-127142456D01*
X157020370Y-127198371D01*
X157054623Y-127273373D01*
X157148872Y-127382143D01*
X157269947Y-127459953D01*
X157269950Y-127459954D01*
X157269949Y-127459954D01*
X157408036Y-127500499D01*
X157408038Y-127500500D01*
X157408039Y-127500500D01*
X157551962Y-127500500D01*
X157551962Y-127500499D01*
X157690053Y-127459953D01*
X157811128Y-127382143D01*
X157905377Y-127273373D01*
X157965165Y-127142457D01*
X157985647Y-127000000D01*
X157965165Y-126857543D01*
X157905377Y-126726627D01*
X157811128Y-126617857D01*
X157690053Y-126540047D01*
X157690051Y-126540046D01*
X157690049Y-126540045D01*
X157690050Y-126540045D01*
X157551963Y-126499500D01*
X157551961Y-126499500D01*
X157408039Y-126499500D01*
X157408036Y-126499500D01*
X157269949Y-126540045D01*
X157148873Y-126617856D01*
X157054623Y-126726626D01*
X157054622Y-126726628D01*
X156994834Y-126857543D01*
X156974353Y-127000000D01*
X150544864Y-127000000D01*
X150555647Y-126925000D01*
X150535165Y-126782543D01*
X150475377Y-126651627D01*
X150381128Y-126542857D01*
X150260053Y-126465047D01*
X150260051Y-126465046D01*
X150260049Y-126465045D01*
X150260050Y-126465045D01*
X150238439Y-126458700D01*
X150179661Y-126420926D01*
X150150635Y-126357371D01*
X150160578Y-126288212D01*
X150206333Y-126235408D01*
X150215728Y-126229936D01*
X150312240Y-126179283D01*
X150430483Y-126074530D01*
X150520220Y-125944523D01*
X150576237Y-125796818D01*
X150595278Y-125640000D01*
X150578914Y-125505225D01*
X150576237Y-125483181D01*
X150525782Y-125350143D01*
X150520220Y-125335477D01*
X150430483Y-125205470D01*
X150312240Y-125100717D01*
X150312238Y-125100716D01*
X150312237Y-125100715D01*
X150172365Y-125027303D01*
X150018986Y-124989500D01*
X150018985Y-124989500D01*
X149861015Y-124989500D01*
X149861014Y-124989500D01*
X149707634Y-125027303D01*
X149567762Y-125100715D01*
X149449515Y-125205471D01*
X149443672Y-125213938D01*
X149389390Y-125257930D01*
X149341621Y-125267500D01*
X147843941Y-125267500D01*
X147776902Y-125247815D01*
X147756260Y-125231181D01*
X146221148Y-123696070D01*
X146221146Y-123696067D01*
X146141003Y-123615924D01*
X146141001Y-123615922D01*
X146096250Y-123590085D01*
X146051500Y-123564248D01*
X146001586Y-123550874D01*
X146001584Y-123550873D01*
X145951675Y-123537500D01*
X145951674Y-123537500D01*
X142648941Y-123537500D01*
X142581902Y-123517815D01*
X142561260Y-123501181D01*
X140958819Y-121898740D01*
X140925334Y-121837417D01*
X140922500Y-121811059D01*
X140922500Y-114688328D01*
X140922500Y-114688326D01*
X140895752Y-114588501D01*
X140895752Y-114588500D01*
X140880200Y-114561563D01*
X140864649Y-114534628D01*
X140864647Y-114534626D01*
X140844078Y-114498999D01*
X140771001Y-114425922D01*
X140771000Y-114425921D01*
X140766670Y-114421591D01*
X140766659Y-114421581D01*
X139558819Y-113213741D01*
X139525334Y-113152418D01*
X139522500Y-113126060D01*
X139522500Y-112599999D01*
X140004722Y-112599999D01*
X140004722Y-112600000D01*
X140023762Y-112756818D01*
X140056052Y-112841958D01*
X140079780Y-112904523D01*
X140169517Y-113034530D01*
X140287760Y-113139283D01*
X140287762Y-113139284D01*
X140427634Y-113212696D01*
X140581014Y-113250500D01*
X140704060Y-113250500D01*
X140771099Y-113270185D01*
X140791741Y-113286819D01*
X141231181Y-113726259D01*
X141264666Y-113787582D01*
X141267500Y-113813940D01*
X141267500Y-121391672D01*
X141294248Y-121491501D01*
X141306055Y-121511950D01*
X141345919Y-121580997D01*
X141345924Y-121581003D01*
X141426064Y-121661143D01*
X141426070Y-121661148D01*
X142671581Y-122906659D01*
X142671591Y-122906670D01*
X142675921Y-122911000D01*
X142675922Y-122911001D01*
X142748999Y-122984078D01*
X142793750Y-123009915D01*
X142838500Y-123035752D01*
X142885603Y-123048373D01*
X142938326Y-123062500D01*
X142938327Y-123062500D01*
X143041673Y-123062500D01*
X146406060Y-123062500D01*
X146473099Y-123082185D01*
X146493740Y-123098818D01*
X147675000Y-124280079D01*
X147764500Y-124331752D01*
X147814413Y-124345126D01*
X147864326Y-124358500D01*
X147864327Y-124358500D01*
X147967673Y-124358500D01*
X149188993Y-124358500D01*
X149256032Y-124378185D01*
X149291043Y-124412060D01*
X149322174Y-124457160D01*
X149344517Y-124489530D01*
X149462760Y-124594283D01*
X149462762Y-124594284D01*
X149602634Y-124667696D01*
X149756014Y-124705500D01*
X149756015Y-124705500D01*
X149913985Y-124705500D01*
X150067365Y-124667696D01*
X150207240Y-124594283D01*
X150325483Y-124489530D01*
X150346220Y-124459487D01*
X156028687Y-124459487D01*
X156028687Y-124459488D01*
X156047727Y-124616306D01*
X156101149Y-124757167D01*
X156103745Y-124764011D01*
X156193482Y-124894018D01*
X156311725Y-124998771D01*
X156311727Y-124998772D01*
X156451599Y-125072184D01*
X156604979Y-125109988D01*
X156604980Y-125109988D01*
X156762950Y-125109988D01*
X156916330Y-125072184D01*
X157056205Y-124998771D01*
X157174448Y-124894018D01*
X157264185Y-124764011D01*
X157320202Y-124616306D01*
X157339181Y-124460000D01*
X159514353Y-124460000D01*
X159534834Y-124602456D01*
X159581894Y-124705500D01*
X159594623Y-124733373D01*
X159688872Y-124842143D01*
X159809947Y-124919953D01*
X159809950Y-124919954D01*
X159809949Y-124919954D01*
X159948036Y-124960499D01*
X159948038Y-124960500D01*
X159948039Y-124960500D01*
X160091962Y-124960500D01*
X160091962Y-124960499D01*
X160230053Y-124919953D01*
X160351128Y-124842143D01*
X160445377Y-124733373D01*
X160505165Y-124602457D01*
X160525647Y-124460000D01*
X160505165Y-124317543D01*
X160445377Y-124186627D01*
X160351128Y-124077857D01*
X160230053Y-124000047D01*
X160230051Y-124000046D01*
X160230049Y-124000045D01*
X160230050Y-124000045D01*
X160091963Y-123959500D01*
X160091961Y-123959500D01*
X159948039Y-123959500D01*
X159948036Y-123959500D01*
X159809949Y-124000045D01*
X159688873Y-124077856D01*
X159594623Y-124186626D01*
X159594622Y-124186628D01*
X159534834Y-124317543D01*
X159514353Y-124460000D01*
X157339181Y-124460000D01*
X157339243Y-124459488D01*
X157320202Y-124302670D01*
X157317578Y-124295752D01*
X157276193Y-124186628D01*
X157264185Y-124154965D01*
X157174448Y-124024958D01*
X157056205Y-123920205D01*
X157056203Y-123920204D01*
X157056202Y-123920203D01*
X156916330Y-123846791D01*
X156762951Y-123808988D01*
X156762950Y-123808988D01*
X156604980Y-123808988D01*
X156604979Y-123808988D01*
X156451599Y-123846791D01*
X156311727Y-123920203D01*
X156193481Y-124024959D01*
X156103746Y-124154963D01*
X156103745Y-124154964D01*
X156047727Y-124302669D01*
X156028687Y-124459487D01*
X150346220Y-124459487D01*
X150415220Y-124359523D01*
X150471237Y-124211818D01*
X150490278Y-124055000D01*
X150486631Y-124024959D01*
X150471237Y-123898181D01*
X150437410Y-123808988D01*
X150415220Y-123750477D01*
X150325483Y-123620470D01*
X150207240Y-123515717D01*
X150207238Y-123515716D01*
X150207237Y-123515715D01*
X150067366Y-123442304D01*
X150054403Y-123439109D01*
X149994022Y-123403952D01*
X149962234Y-123341733D01*
X149969130Y-123272204D01*
X150012522Y-123217442D01*
X150017010Y-123214415D01*
X150106128Y-123157143D01*
X150200377Y-123048373D01*
X150260165Y-122917457D01*
X150280647Y-122775000D01*
X150260165Y-122632543D01*
X150200377Y-122501627D01*
X150106128Y-122392857D01*
X149985053Y-122315047D01*
X149985051Y-122315046D01*
X149985049Y-122315045D01*
X149985050Y-122315045D01*
X149846963Y-122274500D01*
X149846961Y-122274500D01*
X149703039Y-122274500D01*
X149703036Y-122274500D01*
X149564949Y-122315045D01*
X149443873Y-122392856D01*
X149349623Y-122501626D01*
X149349622Y-122501628D01*
X149289834Y-122632543D01*
X149269353Y-122775000D01*
X149289834Y-122917456D01*
X149343858Y-123035750D01*
X149349623Y-123048373D01*
X149443872Y-123157143D01*
X149564947Y-123234953D01*
X149564950Y-123234953D01*
X149566299Y-123235570D01*
X149567423Y-123236544D01*
X149572407Y-123239747D01*
X149571946Y-123240463D01*
X149619104Y-123281323D01*
X149638791Y-123348362D01*
X149619108Y-123415402D01*
X149572418Y-123458162D01*
X149462759Y-123515717D01*
X149432735Y-123542316D01*
X149369502Y-123572037D01*
X149350509Y-123573500D01*
X148129941Y-123573500D01*
X148062902Y-123553815D01*
X148042260Y-123537181D01*
X146941148Y-122436070D01*
X146941146Y-122436067D01*
X146861003Y-122355924D01*
X146861001Y-122355922D01*
X146808295Y-122325492D01*
X146771500Y-122304248D01*
X146721586Y-122290874D01*
X146721584Y-122290873D01*
X146671675Y-122277500D01*
X146671674Y-122277500D01*
X146409337Y-122277500D01*
X146342298Y-122257815D01*
X146296543Y-122205011D01*
X146286599Y-122135853D01*
X146294774Y-122106051D01*
X146340044Y-121996762D01*
X146350150Y-121920000D01*
X147830353Y-121920000D01*
X147850834Y-122062456D01*
X147902468Y-122175516D01*
X147910623Y-122193373D01*
X148004872Y-122302143D01*
X148125947Y-122379953D01*
X148125950Y-122379954D01*
X148125949Y-122379954D01*
X148264036Y-122420499D01*
X148264038Y-122420500D01*
X148264039Y-122420500D01*
X148407962Y-122420500D01*
X148407962Y-122420499D01*
X148546053Y-122379953D01*
X148667128Y-122302143D01*
X148761377Y-122193373D01*
X148821165Y-122062457D01*
X148841647Y-121920000D01*
X156974353Y-121920000D01*
X156994834Y-122062456D01*
X157046468Y-122175516D01*
X157054623Y-122193373D01*
X157148872Y-122302143D01*
X157269947Y-122379953D01*
X157269950Y-122379954D01*
X157269949Y-122379954D01*
X157408036Y-122420499D01*
X157408038Y-122420500D01*
X157408039Y-122420500D01*
X157551962Y-122420500D01*
X157551962Y-122420499D01*
X157690053Y-122379953D01*
X157811128Y-122302143D01*
X157905377Y-122193373D01*
X157965165Y-122062457D01*
X157985647Y-121920000D01*
X162054353Y-121920000D01*
X162074834Y-122062456D01*
X162126468Y-122175516D01*
X162134623Y-122193373D01*
X162228872Y-122302143D01*
X162349947Y-122379953D01*
X162349950Y-122379954D01*
X162349949Y-122379954D01*
X162488036Y-122420499D01*
X162488038Y-122420500D01*
X162488039Y-122420500D01*
X162631962Y-122420500D01*
X162631962Y-122420499D01*
X162770053Y-122379953D01*
X162891128Y-122302143D01*
X162985377Y-122193373D01*
X163045165Y-122062457D01*
X163065647Y-121920000D01*
X163045165Y-121777543D01*
X162985377Y-121646627D01*
X162891128Y-121537857D01*
X162770053Y-121460047D01*
X162770051Y-121460046D01*
X162770049Y-121460045D01*
X162770050Y-121460045D01*
X162631963Y-121419500D01*
X162631961Y-121419500D01*
X162488039Y-121419500D01*
X162488036Y-121419500D01*
X162349949Y-121460045D01*
X162228873Y-121537856D01*
X162134623Y-121646626D01*
X162134622Y-121646628D01*
X162074834Y-121777543D01*
X162054353Y-121920000D01*
X157985647Y-121920000D01*
X157965165Y-121777543D01*
X157905377Y-121646627D01*
X157811128Y-121537857D01*
X157690053Y-121460047D01*
X157690051Y-121460046D01*
X157690049Y-121460045D01*
X157690050Y-121460045D01*
X157551963Y-121419500D01*
X157551961Y-121419500D01*
X157408039Y-121419500D01*
X157408036Y-121419500D01*
X157269949Y-121460045D01*
X157148873Y-121537856D01*
X157054623Y-121646626D01*
X157054622Y-121646628D01*
X156994834Y-121777543D01*
X156974353Y-121920000D01*
X148841647Y-121920000D01*
X148821165Y-121777543D01*
X148761377Y-121646627D01*
X148667128Y-121537857D01*
X148546053Y-121460047D01*
X148546051Y-121460046D01*
X148546049Y-121460045D01*
X148546050Y-121460045D01*
X148407963Y-121419500D01*
X148407961Y-121419500D01*
X148264039Y-121419500D01*
X148264036Y-121419500D01*
X148125949Y-121460045D01*
X148004873Y-121537856D01*
X147910623Y-121646626D01*
X147910622Y-121646628D01*
X147850834Y-121777543D01*
X147830353Y-121920000D01*
X146350150Y-121920000D01*
X146360682Y-121840000D01*
X146352459Y-121777543D01*
X146340044Y-121683239D01*
X146340044Y-121683238D01*
X146279536Y-121537159D01*
X146183282Y-121411718D01*
X146057841Y-121315464D01*
X145911762Y-121254956D01*
X145911760Y-121254955D01*
X145755001Y-121234318D01*
X145754999Y-121234318D01*
X145598239Y-121254955D01*
X145598237Y-121254956D01*
X145452160Y-121315463D01*
X145326718Y-121411718D01*
X145230463Y-121537160D01*
X145169956Y-121683237D01*
X145169955Y-121683239D01*
X145149318Y-121839998D01*
X145149318Y-121840001D01*
X145169955Y-121996760D01*
X145169956Y-121996762D01*
X145215224Y-122106048D01*
X145222693Y-122175516D01*
X145191418Y-122237996D01*
X145131329Y-122273648D01*
X145100663Y-122277500D01*
X143203940Y-122277500D01*
X143136901Y-122257815D01*
X143116259Y-122241181D01*
X142088819Y-121213741D01*
X142055334Y-121152418D01*
X142052500Y-121126060D01*
X142052500Y-119888000D01*
X149354353Y-119888000D01*
X149374834Y-120030456D01*
X149398940Y-120083239D01*
X149434623Y-120161373D01*
X149528872Y-120270143D01*
X149649947Y-120347953D01*
X149649950Y-120347954D01*
X149649949Y-120347954D01*
X149788036Y-120388499D01*
X149788038Y-120388500D01*
X149788039Y-120388500D01*
X149931962Y-120388500D01*
X149931962Y-120388499D01*
X150070053Y-120347953D01*
X150191128Y-120270143D01*
X150285377Y-120161373D01*
X150345165Y-120030457D01*
X150365647Y-119888000D01*
X150345165Y-119745543D01*
X150285377Y-119614627D01*
X150191128Y-119505857D01*
X150070053Y-119428047D01*
X150070051Y-119428046D01*
X150070049Y-119428045D01*
X150070050Y-119428045D01*
X149931963Y-119387500D01*
X149931961Y-119387500D01*
X149788039Y-119387500D01*
X149788036Y-119387500D01*
X149649949Y-119428045D01*
X149528873Y-119505856D01*
X149434623Y-119614626D01*
X149434622Y-119614628D01*
X149374834Y-119745543D01*
X149354353Y-119888000D01*
X142052500Y-119888000D01*
X142052500Y-119380000D01*
X154942353Y-119380000D01*
X154962834Y-119522456D01*
X155013213Y-119632769D01*
X155022623Y-119653373D01*
X155116872Y-119762143D01*
X155237947Y-119839953D01*
X155237950Y-119839954D01*
X155237949Y-119839954D01*
X155376036Y-119880499D01*
X155376038Y-119880500D01*
X155376039Y-119880500D01*
X155519962Y-119880500D01*
X155519962Y-119880499D01*
X155658053Y-119839953D01*
X155779128Y-119762143D01*
X155873377Y-119653373D01*
X155933165Y-119522457D01*
X155953647Y-119380000D01*
X155933165Y-119237543D01*
X155873377Y-119106627D01*
X155779128Y-118997857D01*
X155658053Y-118920047D01*
X155658051Y-118920046D01*
X155658049Y-118920045D01*
X155658050Y-118920045D01*
X155519963Y-118879500D01*
X155519961Y-118879500D01*
X155376039Y-118879500D01*
X155376036Y-118879500D01*
X155237949Y-118920045D01*
X155116873Y-118997856D01*
X155022623Y-119106626D01*
X155022622Y-119106628D01*
X154962834Y-119237543D01*
X154942353Y-119380000D01*
X142052500Y-119380000D01*
X142052500Y-117509998D01*
X143294318Y-117509998D01*
X143294318Y-117510001D01*
X143314955Y-117666760D01*
X143314956Y-117666762D01*
X143369372Y-117798135D01*
X143375464Y-117812841D01*
X143471718Y-117938282D01*
X143597159Y-118034536D01*
X143743238Y-118095044D01*
X143821619Y-118105363D01*
X143899999Y-118115682D01*
X143900000Y-118115682D01*
X143900001Y-118115682D01*
X143952254Y-118108802D01*
X144056762Y-118095044D01*
X144202841Y-118034536D01*
X144328282Y-117938282D01*
X144424536Y-117812841D01*
X144471277Y-117699998D01*
X145064318Y-117699998D01*
X145064318Y-117700001D01*
X145084955Y-117856760D01*
X145084956Y-117856762D01*
X145118093Y-117936763D01*
X145145464Y-118002841D01*
X145241718Y-118128282D01*
X145367159Y-118224536D01*
X145513238Y-118285044D01*
X145591619Y-118295363D01*
X145669999Y-118305682D01*
X145670000Y-118305682D01*
X145670001Y-118305682D01*
X145722254Y-118298802D01*
X145826762Y-118285044D01*
X145972841Y-118224536D01*
X146098282Y-118128282D01*
X146194536Y-118002841D01*
X146255044Y-117856762D01*
X146258567Y-117829998D01*
X149444318Y-117829998D01*
X149444318Y-117830001D01*
X149464955Y-117986760D01*
X149464956Y-117986762D01*
X149523575Y-118128282D01*
X149525464Y-118132841D01*
X149621718Y-118258282D01*
X149747159Y-118354536D01*
X149893238Y-118415044D01*
X149971619Y-118425363D01*
X150049999Y-118435682D01*
X150050000Y-118435682D01*
X150050001Y-118435682D01*
X150102254Y-118428802D01*
X150206762Y-118415044D01*
X150352841Y-118354536D01*
X150478282Y-118258282D01*
X150574536Y-118132841D01*
X150635044Y-117986762D01*
X150655682Y-117830000D01*
X150649099Y-117779999D01*
X151554318Y-117779999D01*
X151554318Y-117780002D01*
X151574955Y-117936761D01*
X151574956Y-117936763D01*
X151635464Y-118082842D01*
X151731718Y-118208283D01*
X151857159Y-118304537D01*
X152003238Y-118365045D01*
X152078512Y-118374955D01*
X152159999Y-118385683D01*
X152160000Y-118385683D01*
X152160001Y-118385683D01*
X152241480Y-118374956D01*
X152316762Y-118365045D01*
X152462841Y-118304537D01*
X152588282Y-118208283D01*
X152684536Y-118082842D01*
X152745044Y-117936763D01*
X152765682Y-117780001D01*
X152755149Y-117699998D01*
X152745044Y-117623240D01*
X152745044Y-117623239D01*
X152684536Y-117477160D01*
X152588282Y-117351719D01*
X152462841Y-117255465D01*
X152316762Y-117194957D01*
X152316760Y-117194956D01*
X152160001Y-117174319D01*
X152159999Y-117174319D01*
X152003239Y-117194956D01*
X152003237Y-117194957D01*
X151857160Y-117255464D01*
X151731718Y-117351719D01*
X151635463Y-117477161D01*
X151574956Y-117623238D01*
X151574955Y-117623240D01*
X151554318Y-117779999D01*
X150649099Y-117779999D01*
X150635044Y-117673238D01*
X150574536Y-117527159D01*
X150478282Y-117401718D01*
X150352841Y-117305464D01*
X150339536Y-117299953D01*
X150206762Y-117244956D01*
X150206760Y-117244955D01*
X150050001Y-117224318D01*
X150049999Y-117224318D01*
X149893239Y-117244955D01*
X149893237Y-117244956D01*
X149747160Y-117305463D01*
X149621718Y-117401718D01*
X149525463Y-117527160D01*
X149464956Y-117673237D01*
X149464955Y-117673239D01*
X149444318Y-117829998D01*
X146258567Y-117829998D01*
X146268802Y-117752254D01*
X146275682Y-117700001D01*
X146275682Y-117699998D01*
X146255044Y-117543239D01*
X146255044Y-117543238D01*
X146194536Y-117397159D01*
X146098282Y-117271718D01*
X145972841Y-117175464D01*
X145870227Y-117132960D01*
X145826762Y-117114956D01*
X145826760Y-117114955D01*
X145670001Y-117094318D01*
X145669999Y-117094318D01*
X145513239Y-117114955D01*
X145513237Y-117114956D01*
X145367160Y-117175463D01*
X145241718Y-117271718D01*
X145145463Y-117397160D01*
X145084956Y-117543237D01*
X145084955Y-117543239D01*
X145064318Y-117699998D01*
X144471277Y-117699998D01*
X144485044Y-117666762D01*
X144505682Y-117510000D01*
X144485044Y-117353238D01*
X144424536Y-117207159D01*
X144328282Y-117081718D01*
X144202841Y-116985464D01*
X144195581Y-116982457D01*
X144056762Y-116924956D01*
X144056760Y-116924955D01*
X143900001Y-116904318D01*
X143899999Y-116904318D01*
X143743239Y-116924955D01*
X143743237Y-116924956D01*
X143597160Y-116985463D01*
X143471718Y-117081718D01*
X143375463Y-117207160D01*
X143314956Y-117353237D01*
X143314955Y-117353239D01*
X143294318Y-117509998D01*
X142052500Y-117509998D01*
X142052500Y-116319999D01*
X149394318Y-116319999D01*
X149394318Y-116320002D01*
X149414955Y-116476761D01*
X149414956Y-116476763D01*
X149452178Y-116566626D01*
X149475464Y-116622842D01*
X149571718Y-116748283D01*
X149697159Y-116844537D01*
X149843238Y-116905045D01*
X149921619Y-116915364D01*
X149999999Y-116925683D01*
X150000000Y-116925683D01*
X150000001Y-116925683D01*
X150052254Y-116918803D01*
X150156762Y-116905045D01*
X150302841Y-116844537D01*
X150308754Y-116840000D01*
X156974353Y-116840000D01*
X156994834Y-116982456D01*
X157023186Y-117044536D01*
X157054623Y-117113373D01*
X157148872Y-117222143D01*
X157269947Y-117299953D01*
X157269950Y-117299954D01*
X157269949Y-117299954D01*
X157408036Y-117340499D01*
X157408038Y-117340500D01*
X157408039Y-117340500D01*
X157551962Y-117340500D01*
X157551962Y-117340499D01*
X157671284Y-117305464D01*
X157690050Y-117299954D01*
X157690050Y-117299953D01*
X157690053Y-117299953D01*
X157811128Y-117222143D01*
X157905377Y-117113373D01*
X157965165Y-116982457D01*
X157985647Y-116840000D01*
X157965165Y-116697543D01*
X157905377Y-116566627D01*
X157811128Y-116457857D01*
X157690053Y-116380047D01*
X157690051Y-116380046D01*
X157690049Y-116380045D01*
X157690050Y-116380045D01*
X157551963Y-116339500D01*
X157551961Y-116339500D01*
X157408039Y-116339500D01*
X157408036Y-116339500D01*
X157269949Y-116380045D01*
X157148873Y-116457856D01*
X157054623Y-116566626D01*
X157054622Y-116566628D01*
X156994834Y-116697543D01*
X156974353Y-116840000D01*
X150308754Y-116840000D01*
X150428282Y-116748283D01*
X150524536Y-116622842D01*
X150585044Y-116476763D01*
X150605682Y-116320001D01*
X150604647Y-116312143D01*
X150591747Y-116214155D01*
X158114616Y-116214155D01*
X158114616Y-116214158D01*
X158135253Y-116370917D01*
X158135254Y-116370919D01*
X158171264Y-116457856D01*
X158195762Y-116516998D01*
X158292016Y-116642439D01*
X158417457Y-116738693D01*
X158563536Y-116799201D01*
X158634374Y-116808527D01*
X158720297Y-116819839D01*
X158720298Y-116819839D01*
X158720299Y-116819839D01*
X158772552Y-116812959D01*
X158877060Y-116799201D01*
X159023139Y-116738693D01*
X159148580Y-116642439D01*
X159242532Y-116519998D01*
X163284318Y-116519998D01*
X163284318Y-116520001D01*
X163304955Y-116676760D01*
X163304956Y-116676762D01*
X163364220Y-116819839D01*
X163365464Y-116822841D01*
X163461718Y-116948282D01*
X163587159Y-117044536D01*
X163733238Y-117105044D01*
X163808520Y-117114955D01*
X163889999Y-117125682D01*
X163890000Y-117125682D01*
X163890001Y-117125682D01*
X163971480Y-117114955D01*
X164046762Y-117105044D01*
X164192841Y-117044536D01*
X164318282Y-116948282D01*
X164414536Y-116822841D01*
X164475044Y-116676762D01*
X164495682Y-116520000D01*
X164475044Y-116363238D01*
X164414536Y-116217159D01*
X164318282Y-116091718D01*
X164192841Y-115995464D01*
X164046762Y-115934956D01*
X164046760Y-115934955D01*
X163890001Y-115914318D01*
X163889999Y-115914318D01*
X163733239Y-115934955D01*
X163733237Y-115934956D01*
X163587160Y-115995463D01*
X163461718Y-116091718D01*
X163365463Y-116217160D01*
X163304956Y-116363237D01*
X163304955Y-116363239D01*
X163284318Y-116519998D01*
X159242532Y-116519998D01*
X159244834Y-116516998D01*
X159305342Y-116370919D01*
X159325980Y-116214157D01*
X159324560Y-116203373D01*
X159305342Y-116057396D01*
X159305342Y-116057395D01*
X159244834Y-115911316D01*
X159148580Y-115785875D01*
X159023139Y-115689621D01*
X158877060Y-115629113D01*
X158877058Y-115629112D01*
X158720299Y-115608475D01*
X158720297Y-115608475D01*
X158563537Y-115629112D01*
X158563535Y-115629113D01*
X158417458Y-115689620D01*
X158292016Y-115785875D01*
X158195761Y-115911317D01*
X158135254Y-116057394D01*
X158135253Y-116057396D01*
X158114616Y-116214155D01*
X150591747Y-116214155D01*
X150585044Y-116163240D01*
X150585044Y-116163239D01*
X150524536Y-116017160D01*
X150428282Y-115891719D01*
X150302841Y-115795465D01*
X150156762Y-115734957D01*
X150156760Y-115734956D01*
X150000001Y-115714319D01*
X149999999Y-115714319D01*
X149843239Y-115734956D01*
X149843237Y-115734957D01*
X149697160Y-115795464D01*
X149571718Y-115891719D01*
X149475463Y-116017161D01*
X149414956Y-116163238D01*
X149414955Y-116163240D01*
X149394318Y-116319999D01*
X142052500Y-116319999D01*
X142052500Y-114809998D01*
X149464318Y-114809998D01*
X149464318Y-114810001D01*
X149484955Y-114966760D01*
X149484956Y-114966762D01*
X149537991Y-115094801D01*
X149545464Y-115112841D01*
X149641718Y-115238282D01*
X149767159Y-115334536D01*
X149913238Y-115395044D01*
X149926288Y-115396762D01*
X150069999Y-115415682D01*
X150070000Y-115415682D01*
X150070001Y-115415682D01*
X150122254Y-115408802D01*
X150226762Y-115395044D01*
X150372841Y-115334536D01*
X150498282Y-115238282D01*
X150594536Y-115112841D01*
X150655044Y-114966762D01*
X150668802Y-114862254D01*
X150675682Y-114810001D01*
X150675682Y-114809998D01*
X150675419Y-114808000D01*
X154942353Y-114808000D01*
X154962834Y-114950456D01*
X154968967Y-114963885D01*
X155022623Y-115081373D01*
X155116872Y-115190143D01*
X155237947Y-115267953D01*
X155237950Y-115267954D01*
X155237949Y-115267954D01*
X155376036Y-115308499D01*
X155376038Y-115308500D01*
X155376039Y-115308500D01*
X155519962Y-115308500D01*
X155519962Y-115308499D01*
X155658053Y-115267953D01*
X155779128Y-115190143D01*
X155873377Y-115081373D01*
X155933165Y-114950457D01*
X155951716Y-114821428D01*
X160762357Y-114821428D01*
X160782838Y-114963884D01*
X160837346Y-115083237D01*
X160842627Y-115094801D01*
X160936876Y-115203571D01*
X161057951Y-115281381D01*
X161057954Y-115281382D01*
X161057953Y-115281382D01*
X161196040Y-115321927D01*
X161196042Y-115321928D01*
X161196043Y-115321928D01*
X161339966Y-115321928D01*
X161339966Y-115321927D01*
X161478057Y-115281381D01*
X161599132Y-115203571D01*
X161693381Y-115094801D01*
X161753169Y-114963885D01*
X161773651Y-114821428D01*
X161753169Y-114678971D01*
X161693381Y-114548055D01*
X161599132Y-114439285D01*
X161478057Y-114361475D01*
X161478055Y-114361474D01*
X161478053Y-114361473D01*
X161478054Y-114361473D01*
X161339967Y-114320928D01*
X161339965Y-114320928D01*
X161196043Y-114320928D01*
X161196040Y-114320928D01*
X161057953Y-114361473D01*
X160936877Y-114439284D01*
X160936876Y-114439284D01*
X160936876Y-114439285D01*
X160924294Y-114453805D01*
X160842627Y-114548054D01*
X160842626Y-114548056D01*
X160782838Y-114678971D01*
X160762357Y-114821428D01*
X155951716Y-114821428D01*
X155953647Y-114808000D01*
X155933165Y-114665543D01*
X155873377Y-114534627D01*
X155779128Y-114425857D01*
X155658053Y-114348047D01*
X155658051Y-114348046D01*
X155658049Y-114348045D01*
X155658050Y-114348045D01*
X155519963Y-114307500D01*
X155519961Y-114307500D01*
X155376039Y-114307500D01*
X155376036Y-114307500D01*
X155237949Y-114348045D01*
X155116873Y-114425856D01*
X155116872Y-114425856D01*
X155116872Y-114425857D01*
X155116816Y-114425922D01*
X155022623Y-114534626D01*
X155022622Y-114534628D01*
X154962834Y-114665543D01*
X154942353Y-114808000D01*
X150675419Y-114808000D01*
X150655044Y-114653239D01*
X150655044Y-114653238D01*
X150594536Y-114507159D01*
X150498282Y-114381718D01*
X150372841Y-114285464D01*
X150291938Y-114251953D01*
X150226762Y-114224956D01*
X150226760Y-114224955D01*
X150070001Y-114204318D01*
X150069999Y-114204318D01*
X149913239Y-114224955D01*
X149913237Y-114224956D01*
X149767160Y-114285463D01*
X149641718Y-114381718D01*
X149545463Y-114507160D01*
X149484956Y-114653237D01*
X149484955Y-114653239D01*
X149464318Y-114809998D01*
X142052500Y-114809998D01*
X142052500Y-113792000D01*
X167134353Y-113792000D01*
X167154834Y-113934456D01*
X167214622Y-114065371D01*
X167214623Y-114065373D01*
X167308872Y-114174143D01*
X167429947Y-114251953D01*
X167429950Y-114251954D01*
X167429949Y-114251954D01*
X167568036Y-114292499D01*
X167568038Y-114292500D01*
X167568039Y-114292500D01*
X167711962Y-114292500D01*
X167711962Y-114292499D01*
X167850053Y-114251953D01*
X167971128Y-114174143D01*
X168065377Y-114065373D01*
X168125165Y-113934457D01*
X168145647Y-113792000D01*
X168125165Y-113649543D01*
X168065377Y-113518627D01*
X167971128Y-113409857D01*
X167850053Y-113332047D01*
X167850051Y-113332046D01*
X167850049Y-113332045D01*
X167850050Y-113332045D01*
X167711963Y-113291500D01*
X167711961Y-113291500D01*
X167568039Y-113291500D01*
X167568036Y-113291500D01*
X167429949Y-113332045D01*
X167308873Y-113409856D01*
X167214623Y-113518626D01*
X167214622Y-113518628D01*
X167154834Y-113649543D01*
X167134353Y-113792000D01*
X142052500Y-113792000D01*
X142052500Y-113548328D01*
X142052500Y-113548326D01*
X142025752Y-113448501D01*
X142003441Y-113409857D01*
X141974079Y-113359000D01*
X141595258Y-112980180D01*
X141561774Y-112918858D01*
X141566758Y-112849167D01*
X141608629Y-112793233D01*
X141674094Y-112768816D01*
X141682940Y-112768500D01*
X141803962Y-112768500D01*
X141803962Y-112768499D01*
X141942053Y-112727953D01*
X142063128Y-112650143D01*
X142157377Y-112541373D01*
X142217165Y-112410457D01*
X142237647Y-112268000D01*
X142217165Y-112125543D01*
X142157377Y-111994627D01*
X142063128Y-111885857D01*
X141942053Y-111808047D01*
X141942051Y-111808046D01*
X141942049Y-111808045D01*
X141942050Y-111808045D01*
X141803963Y-111767500D01*
X141803961Y-111767500D01*
X141660039Y-111767500D01*
X141660036Y-111767500D01*
X141521949Y-111808045D01*
X141400873Y-111885856D01*
X141306623Y-111994626D01*
X141275703Y-112062330D01*
X141229947Y-112115134D01*
X141162907Y-112134817D01*
X141095868Y-112115131D01*
X141080686Y-112103636D01*
X141032240Y-112060717D01*
X141032237Y-112060714D01*
X140892365Y-111987303D01*
X140738986Y-111949500D01*
X140738985Y-111949500D01*
X140581015Y-111949500D01*
X140581014Y-111949500D01*
X140427634Y-111987303D01*
X140287762Y-112060715D01*
X140287760Y-112060717D01*
X140172239Y-112163059D01*
X140169516Y-112165471D01*
X140079781Y-112295475D01*
X140079780Y-112295476D01*
X140023762Y-112443181D01*
X140004722Y-112599999D01*
X139522500Y-112599999D01*
X139522500Y-111017802D01*
X139542185Y-110950763D01*
X139594989Y-110905008D01*
X139664147Y-110895064D01*
X139727703Y-110924089D01*
X139759293Y-110966289D01*
X139782623Y-111017373D01*
X139876872Y-111126143D01*
X139997947Y-111203953D01*
X139997950Y-111203954D01*
X139997949Y-111203954D01*
X140136036Y-111244499D01*
X140136038Y-111244500D01*
X140136039Y-111244500D01*
X140279962Y-111244500D01*
X140279962Y-111244499D01*
X140418053Y-111203953D01*
X140539128Y-111126143D01*
X140574509Y-111085311D01*
X155791999Y-111085311D01*
X155791999Y-112834668D01*
X155806531Y-112907725D01*
X155806532Y-112907729D01*
X155824904Y-112935225D01*
X155861898Y-112990591D01*
X155944759Y-113045956D01*
X155944763Y-113045957D01*
X156017820Y-113060489D01*
X156017823Y-113060490D01*
X156017825Y-113060490D01*
X157767175Y-113060490D01*
X157767176Y-113060489D01*
X157840239Y-113045956D01*
X157923100Y-112990591D01*
X157978465Y-112907730D01*
X157992999Y-112834664D01*
X157992999Y-111959975D01*
X158327282Y-111959975D01*
X158327282Y-111959976D01*
X158346099Y-112163058D01*
X158401914Y-112359223D01*
X158401919Y-112359236D01*
X158492824Y-112541797D01*
X158615734Y-112704557D01*
X158766455Y-112841956D01*
X158766457Y-112841958D01*
X158865638Y-112903368D01*
X158939860Y-112949324D01*
X159130041Y-113023000D01*
X159330521Y-113060476D01*
X159330523Y-113060476D01*
X159534471Y-113060476D01*
X159534473Y-113060476D01*
X159734953Y-113023000D01*
X159925134Y-112949324D01*
X160098538Y-112841957D01*
X160249261Y-112704555D01*
X160372170Y-112541797D01*
X160463079Y-112359226D01*
X160518894Y-112163059D01*
X160537712Y-111959976D01*
X160536787Y-111949998D01*
X160519182Y-111760000D01*
X162054353Y-111760000D01*
X162074834Y-111902456D01*
X162134622Y-112033371D01*
X162134623Y-112033373D01*
X162228872Y-112142143D01*
X162349947Y-112219953D01*
X162349950Y-112219954D01*
X162349949Y-112219954D01*
X162488036Y-112260499D01*
X162488038Y-112260500D01*
X162488039Y-112260500D01*
X162631962Y-112260500D01*
X162631962Y-112260499D01*
X162770053Y-112219953D01*
X162891128Y-112142143D01*
X162985377Y-112033373D01*
X163045165Y-111902457D01*
X163054863Y-111835004D01*
X168709312Y-111835004D01*
X168709312Y-111835007D01*
X168729949Y-111991766D01*
X168729950Y-111991768D01*
X168789296Y-112135043D01*
X168790458Y-112137847D01*
X168886712Y-112263288D01*
X169012153Y-112359542D01*
X169158232Y-112420050D01*
X169236613Y-112430369D01*
X169314993Y-112440688D01*
X169314994Y-112440688D01*
X169314995Y-112440688D01*
X169367248Y-112433808D01*
X169471756Y-112420050D01*
X169617835Y-112359542D01*
X169743276Y-112263288D01*
X169839530Y-112137847D01*
X169900038Y-111991768D01*
X169920676Y-111835006D01*
X169900038Y-111678244D01*
X169839530Y-111532165D01*
X169743276Y-111406724D01*
X169617835Y-111310470D01*
X169471756Y-111249962D01*
X169471754Y-111249961D01*
X169314995Y-111229324D01*
X169314993Y-111229324D01*
X169158233Y-111249961D01*
X169158231Y-111249962D01*
X169012154Y-111310469D01*
X168886712Y-111406724D01*
X168790457Y-111532166D01*
X168729950Y-111678243D01*
X168729949Y-111678245D01*
X168709312Y-111835004D01*
X163054863Y-111835004D01*
X163065647Y-111760000D01*
X163045165Y-111617543D01*
X162985377Y-111486627D01*
X162891128Y-111377857D01*
X162770053Y-111300047D01*
X162770051Y-111300046D01*
X162770049Y-111300045D01*
X162770050Y-111300045D01*
X162631963Y-111259500D01*
X162631961Y-111259500D01*
X162488039Y-111259500D01*
X162488036Y-111259500D01*
X162349949Y-111300045D01*
X162228873Y-111377856D01*
X162134623Y-111486626D01*
X162134622Y-111486628D01*
X162074834Y-111617543D01*
X162054353Y-111760000D01*
X160519182Y-111760000D01*
X160518894Y-111756893D01*
X160489993Y-111655318D01*
X160463079Y-111560726D01*
X160457738Y-111550000D01*
X160418769Y-111471740D01*
X160372170Y-111378155D01*
X160275363Y-111249962D01*
X160249259Y-111215394D01*
X160098538Y-111077995D01*
X160098536Y-111077993D01*
X159925139Y-110970631D01*
X159925132Y-110970627D01*
X159755748Y-110905008D01*
X159734953Y-110896952D01*
X159534473Y-110859476D01*
X159330521Y-110859476D01*
X159130041Y-110896952D01*
X159130038Y-110896952D01*
X159130038Y-110896953D01*
X158939861Y-110970627D01*
X158939854Y-110970631D01*
X158766457Y-111077993D01*
X158766455Y-111077995D01*
X158615734Y-111215394D01*
X158492824Y-111378154D01*
X158401919Y-111560715D01*
X158401914Y-111560728D01*
X158346099Y-111756893D01*
X158327282Y-111959975D01*
X157992999Y-111959975D01*
X157992999Y-111085316D01*
X157992999Y-111085313D01*
X157992998Y-111085311D01*
X157978466Y-111012254D01*
X157978465Y-111012250D01*
X157963597Y-110989998D01*
X157923100Y-110929389D01*
X157840239Y-110874024D01*
X157840238Y-110874023D01*
X157840234Y-110874022D01*
X157767176Y-110859490D01*
X157767173Y-110859490D01*
X156017825Y-110859490D01*
X156017822Y-110859490D01*
X155944763Y-110874022D01*
X155944759Y-110874023D01*
X155861898Y-110929389D01*
X155806532Y-111012250D01*
X155806531Y-111012254D01*
X155791999Y-111085311D01*
X140574509Y-111085311D01*
X140633377Y-111017373D01*
X140693165Y-110886457D01*
X140713647Y-110744000D01*
X140693165Y-110601543D01*
X140633377Y-110470627D01*
X140539128Y-110361857D01*
X140418053Y-110284047D01*
X140418051Y-110284046D01*
X140418049Y-110284045D01*
X140418050Y-110284045D01*
X140279963Y-110243500D01*
X140279961Y-110243500D01*
X140136039Y-110243500D01*
X140136036Y-110243500D01*
X139997949Y-110284045D01*
X139989882Y-110287730D01*
X139988630Y-110284989D01*
X139936037Y-110300425D01*
X139869000Y-110280732D01*
X139823251Y-110227923D01*
X139812956Y-110161478D01*
X139825278Y-110060000D01*
X139806468Y-109905084D01*
X139806237Y-109903181D01*
X139775808Y-109822948D01*
X139750220Y-109755477D01*
X139660483Y-109625470D01*
X139542240Y-109520717D01*
X139542238Y-109520716D01*
X139542237Y-109520715D01*
X139402365Y-109447303D01*
X139248986Y-109409500D01*
X139248985Y-109409500D01*
X139091015Y-109409500D01*
X139091014Y-109409500D01*
X138937634Y-109447303D01*
X138797762Y-109520715D01*
X138679516Y-109625471D01*
X138589781Y-109755475D01*
X138589780Y-109755476D01*
X138533762Y-109903181D01*
X138514722Y-110059999D01*
X134286370Y-110059999D01*
X134291480Y-109313920D01*
X164689499Y-109313920D01*
X164718340Y-109458907D01*
X164718343Y-109458917D01*
X164774912Y-109595488D01*
X164774919Y-109595501D01*
X164857048Y-109718415D01*
X164857051Y-109718419D01*
X164961580Y-109822948D01*
X164961584Y-109822951D01*
X165084498Y-109905080D01*
X165084511Y-109905087D01*
X165206696Y-109955697D01*
X165221087Y-109961658D01*
X165221091Y-109961658D01*
X165221092Y-109961659D01*
X165366079Y-109990500D01*
X165366082Y-109990500D01*
X165957425Y-109990500D01*
X166024464Y-110010185D01*
X166070219Y-110062989D01*
X166080163Y-110132147D01*
X166070219Y-110166012D01*
X166039834Y-110232543D01*
X166019353Y-110375000D01*
X166039834Y-110517456D01*
X166074459Y-110593272D01*
X166099623Y-110648373D01*
X166193872Y-110757143D01*
X166314947Y-110834953D01*
X166314950Y-110834954D01*
X166314949Y-110834954D01*
X166398513Y-110859490D01*
X166448005Y-110874022D01*
X166453036Y-110875499D01*
X166453038Y-110875500D01*
X166453039Y-110875500D01*
X166596962Y-110875500D01*
X166596962Y-110875499D01*
X166735053Y-110834953D01*
X166856128Y-110757143D01*
X166950377Y-110648373D01*
X167010165Y-110517457D01*
X167030647Y-110375000D01*
X167010165Y-110232543D01*
X166950377Y-110101627D01*
X166856128Y-109992857D01*
X166856125Y-109992855D01*
X166798307Y-109955697D01*
X166752552Y-109902893D01*
X166742609Y-109833734D01*
X166771634Y-109770179D01*
X166777667Y-109763700D01*
X166822948Y-109718419D01*
X166822951Y-109718416D01*
X166905084Y-109595495D01*
X166927056Y-109542449D01*
X166970895Y-109488049D01*
X167037189Y-109465983D01*
X167104888Y-109483262D01*
X167152499Y-109534398D01*
X167164554Y-109573713D01*
X167164954Y-109576756D01*
X167164956Y-109576762D01*
X167185131Y-109625470D01*
X167225464Y-109722841D01*
X167321718Y-109848282D01*
X167447159Y-109944536D01*
X167593238Y-110005044D01*
X167632288Y-110010185D01*
X167749999Y-110025682D01*
X167750000Y-110025682D01*
X167750001Y-110025682D01*
X167802254Y-110018802D01*
X167906762Y-110005044D01*
X168052841Y-109944536D01*
X168178282Y-109848282D01*
X168274536Y-109722841D01*
X168335044Y-109576762D01*
X168335044Y-109576760D01*
X168336539Y-109573152D01*
X168380380Y-109518748D01*
X168446674Y-109496683D01*
X168514373Y-109513962D01*
X168561984Y-109565099D01*
X168565658Y-109573144D01*
X168565661Y-109573152D01*
X168565662Y-109573153D01*
X168574915Y-109595494D01*
X168574919Y-109595501D01*
X168657048Y-109718415D01*
X168657051Y-109718419D01*
X168761580Y-109822948D01*
X168761584Y-109822951D01*
X168884498Y-109905080D01*
X168884511Y-109905087D01*
X169006696Y-109955697D01*
X169021087Y-109961658D01*
X169021091Y-109961658D01*
X169021092Y-109961659D01*
X169166079Y-109990500D01*
X169166082Y-109990500D01*
X170513920Y-109990500D01*
X170611462Y-109971096D01*
X170658913Y-109961658D01*
X170795495Y-109905084D01*
X170918416Y-109822951D01*
X171022951Y-109718416D01*
X171105084Y-109595495D01*
X171161658Y-109458913D01*
X171171487Y-109409500D01*
X171190500Y-109313920D01*
X171190500Y-109166079D01*
X171161659Y-109021092D01*
X171161658Y-109021089D01*
X171161658Y-109021087D01*
X171117061Y-108913419D01*
X171105087Y-108884511D01*
X171105080Y-108884498D01*
X171022951Y-108761584D01*
X171022948Y-108761580D01*
X170918419Y-108657051D01*
X170918415Y-108657048D01*
X170795501Y-108574919D01*
X170795488Y-108574912D01*
X170658917Y-108518343D01*
X170658907Y-108518340D01*
X170513920Y-108489500D01*
X170513918Y-108489500D01*
X169166082Y-108489500D01*
X169166080Y-108489500D01*
X169021092Y-108518340D01*
X169021082Y-108518343D01*
X168884511Y-108574912D01*
X168884498Y-108574919D01*
X168761584Y-108657048D01*
X168761580Y-108657051D01*
X168657051Y-108761580D01*
X168657048Y-108761584D01*
X168574919Y-108884498D01*
X168574912Y-108884511D01*
X168518343Y-109021082D01*
X168518341Y-109021089D01*
X168505928Y-109083490D01*
X168473542Y-109145400D01*
X168412825Y-109179973D01*
X168343056Y-109176232D01*
X168286385Y-109135365D01*
X168276920Y-109121290D01*
X168274537Y-109117162D01*
X168274536Y-109117159D01*
X168274533Y-109117156D01*
X168274532Y-109117153D01*
X168176124Y-108988905D01*
X168150930Y-108923736D01*
X168150500Y-108913419D01*
X168150500Y-107047275D01*
X168150500Y-107047273D01*
X168139161Y-107004956D01*
X168123207Y-106945412D01*
X168070480Y-106854087D01*
X167561402Y-106345009D01*
X167527917Y-106283686D01*
X167526144Y-106273513D01*
X167525681Y-106269998D01*
X167505044Y-106113238D01*
X167444536Y-105967159D01*
X167348282Y-105841718D01*
X167222841Y-105745464D01*
X167189655Y-105731718D01*
X167076762Y-105684956D01*
X167076760Y-105684955D01*
X166920001Y-105664318D01*
X166919999Y-105664318D01*
X166763239Y-105684955D01*
X166763237Y-105684956D01*
X166617160Y-105745463D01*
X166491718Y-105841718D01*
X166395463Y-105967160D01*
X166334956Y-106113237D01*
X166334955Y-106113239D01*
X166314318Y-106269998D01*
X166314318Y-106270001D01*
X166334955Y-106426760D01*
X166334956Y-106426762D01*
X166395464Y-106572841D01*
X166491718Y-106698282D01*
X166617159Y-106794536D01*
X166763238Y-106855044D01*
X166920000Y-106875682D01*
X166920001Y-106875681D01*
X166923513Y-106876144D01*
X166987410Y-106904410D01*
X166995009Y-106911402D01*
X167313181Y-107229574D01*
X167346666Y-107290897D01*
X167349500Y-107317255D01*
X167349500Y-107520958D01*
X167329815Y-107587997D01*
X167277011Y-107633752D01*
X167207853Y-107643696D01*
X167150014Y-107619334D01*
X167092842Y-107575464D01*
X166946762Y-107514956D01*
X166946760Y-107514955D01*
X166790001Y-107494318D01*
X166789999Y-107494318D01*
X166633239Y-107514955D01*
X166633237Y-107514956D01*
X166487160Y-107575463D01*
X166361718Y-107671718D01*
X166265463Y-107797160D01*
X166204956Y-107943237D01*
X166204955Y-107943239D01*
X166184318Y-108099998D01*
X166184318Y-108100001D01*
X166204955Y-108256760D01*
X166204957Y-108256765D01*
X166230341Y-108318048D01*
X166237810Y-108387517D01*
X166206534Y-108449996D01*
X166146445Y-108485648D01*
X166115780Y-108489500D01*
X165366080Y-108489500D01*
X165221092Y-108518340D01*
X165221082Y-108518343D01*
X165084511Y-108574912D01*
X165084498Y-108574919D01*
X164961584Y-108657048D01*
X164961580Y-108657051D01*
X164857051Y-108761580D01*
X164857048Y-108761584D01*
X164774919Y-108884498D01*
X164774912Y-108884511D01*
X164718343Y-109021082D01*
X164718340Y-109021092D01*
X164689500Y-109166079D01*
X164689500Y-109166082D01*
X164689500Y-109313918D01*
X164689500Y-109313920D01*
X164689499Y-109313920D01*
X134291480Y-109313920D01*
X134299082Y-108204000D01*
X143258353Y-108204000D01*
X143278834Y-108346456D01*
X143304585Y-108402841D01*
X143338623Y-108477373D01*
X143432872Y-108586143D01*
X143553947Y-108663953D01*
X143553950Y-108663954D01*
X143553949Y-108663954D01*
X143692036Y-108704499D01*
X143692038Y-108704500D01*
X143692039Y-108704500D01*
X143835962Y-108704500D01*
X143835962Y-108704499D01*
X143974053Y-108663953D01*
X144095128Y-108586143D01*
X144189377Y-108477373D01*
X144249165Y-108346457D01*
X144269647Y-108204000D01*
X144258882Y-108129129D01*
X144268825Y-108059974D01*
X144314580Y-108007170D01*
X144381619Y-107987485D01*
X144448659Y-108007169D01*
X144457089Y-108013096D01*
X144537159Y-108074536D01*
X144683238Y-108135044D01*
X144761619Y-108145363D01*
X144839999Y-108155682D01*
X144840000Y-108155682D01*
X144840001Y-108155682D01*
X144892254Y-108148802D01*
X144996762Y-108135044D01*
X145142841Y-108074536D01*
X145268282Y-107978282D01*
X145364536Y-107852841D01*
X145425044Y-107706762D01*
X145440416Y-107589998D01*
X154731812Y-107589998D01*
X154731812Y-107590001D01*
X154752449Y-107746760D01*
X154752450Y-107746762D01*
X154796388Y-107852839D01*
X154812958Y-107892841D01*
X154909212Y-108018282D01*
X155034653Y-108114536D01*
X155180732Y-108175044D01*
X155259113Y-108185363D01*
X155337493Y-108195682D01*
X155337494Y-108195682D01*
X155337495Y-108195682D01*
X155389748Y-108188802D01*
X155494256Y-108175044D01*
X155640335Y-108114536D01*
X155765776Y-108018282D01*
X155862030Y-107892841D01*
X155905466Y-107787976D01*
X155949305Y-107733574D01*
X156015599Y-107711509D01*
X156083299Y-107728788D01*
X156095512Y-107737054D01*
X156167157Y-107792029D01*
X156167158Y-107792029D01*
X156167159Y-107792030D01*
X156313238Y-107852538D01*
X156315540Y-107852841D01*
X156469999Y-107873176D01*
X156470000Y-107873176D01*
X156470001Y-107873176D01*
X156522254Y-107866296D01*
X156626762Y-107852538D01*
X156772841Y-107792030D01*
X156898282Y-107695776D01*
X156994536Y-107570335D01*
X157055044Y-107424256D01*
X157075682Y-107267494D01*
X157055044Y-107110732D01*
X156994536Y-106964653D01*
X156898282Y-106839212D01*
X156772841Y-106742958D01*
X156626762Y-106682450D01*
X156626760Y-106682449D01*
X156470001Y-106661812D01*
X156469999Y-106661812D01*
X156313239Y-106682449D01*
X156313237Y-106682450D01*
X156167160Y-106742957D01*
X156041718Y-106839212D01*
X155945463Y-106964654D01*
X155902028Y-107069516D01*
X155858187Y-107123919D01*
X155791892Y-107145984D01*
X155724193Y-107128705D01*
X155711981Y-107120439D01*
X155640336Y-107065464D01*
X155494256Y-107004956D01*
X155494254Y-107004955D01*
X155337495Y-106984318D01*
X155337493Y-106984318D01*
X155180733Y-107004955D01*
X155180731Y-107004956D01*
X155034654Y-107065463D01*
X154909212Y-107161718D01*
X154812957Y-107287160D01*
X154752450Y-107433237D01*
X154752449Y-107433239D01*
X154731812Y-107589998D01*
X145440416Y-107589998D01*
X145445682Y-107550000D01*
X145444330Y-107539733D01*
X145425044Y-107393239D01*
X145425044Y-107393238D01*
X145364536Y-107247159D01*
X145268282Y-107121718D01*
X145142841Y-107025464D01*
X145132071Y-107021003D01*
X144996762Y-106964956D01*
X144996760Y-106964955D01*
X144840001Y-106944318D01*
X144839999Y-106944318D01*
X144705687Y-106962000D01*
X144636652Y-106951234D01*
X144601821Y-106926742D01*
X144328819Y-106653740D01*
X144295334Y-106592417D01*
X144292500Y-106566059D01*
X144292500Y-106159998D01*
X144844318Y-106159998D01*
X144844318Y-106160001D01*
X144864955Y-106316760D01*
X144864956Y-106316762D01*
X144913201Y-106433237D01*
X144925464Y-106462841D01*
X145021718Y-106588282D01*
X145147159Y-106684536D01*
X145293238Y-106745044D01*
X145306288Y-106746762D01*
X145449999Y-106765682D01*
X145450000Y-106765682D01*
X145450001Y-106765682D01*
X145502254Y-106758802D01*
X145606762Y-106745044D01*
X145752841Y-106684536D01*
X145876046Y-106589998D01*
X149694318Y-106589998D01*
X149694318Y-106590001D01*
X149714955Y-106746760D01*
X149714956Y-106746762D01*
X149759807Y-106855043D01*
X149775464Y-106892841D01*
X149871718Y-107018282D01*
X149997159Y-107114536D01*
X150143238Y-107175044D01*
X150184681Y-107180500D01*
X150299999Y-107195682D01*
X150300000Y-107195682D01*
X150300001Y-107195682D01*
X150352254Y-107188802D01*
X150456762Y-107175044D01*
X150602841Y-107114536D01*
X150728282Y-107018282D01*
X150824536Y-106892841D01*
X150885044Y-106746762D01*
X150905682Y-106590000D01*
X150885044Y-106433238D01*
X150824536Y-106287159D01*
X150728282Y-106161718D01*
X150602841Y-106065464D01*
X150456762Y-106004956D01*
X150456760Y-106004955D01*
X150300001Y-105984318D01*
X150299999Y-105984318D01*
X150143239Y-106004955D01*
X150143237Y-106004956D01*
X149997160Y-106065463D01*
X149871718Y-106161718D01*
X149775463Y-106287160D01*
X149714956Y-106433237D01*
X149714955Y-106433239D01*
X149694318Y-106589998D01*
X145876046Y-106589998D01*
X145878282Y-106588282D01*
X145974536Y-106462841D01*
X146035044Y-106316762D01*
X146055682Y-106160000D01*
X146049099Y-106110000D01*
X146035044Y-106003239D01*
X146035044Y-106003238D01*
X145974536Y-105857159D01*
X145878282Y-105731718D01*
X145752841Y-105635464D01*
X145723327Y-105623239D01*
X145606762Y-105574956D01*
X145606760Y-105574955D01*
X145450001Y-105554318D01*
X145449999Y-105554318D01*
X145293239Y-105574955D01*
X145293237Y-105574956D01*
X145147160Y-105635463D01*
X145021718Y-105731718D01*
X144925463Y-105857160D01*
X144864956Y-106003237D01*
X144864955Y-106003239D01*
X144844318Y-106159998D01*
X144292500Y-106159998D01*
X144292500Y-105300000D01*
X162444353Y-105300000D01*
X162464834Y-105442456D01*
X162516388Y-105555342D01*
X162524623Y-105573373D01*
X162618872Y-105682143D01*
X162739947Y-105759953D01*
X162739950Y-105759954D01*
X162739949Y-105759954D01*
X162878036Y-105800499D01*
X162878038Y-105800500D01*
X162878039Y-105800500D01*
X163021962Y-105800500D01*
X163021962Y-105800499D01*
X163160053Y-105759953D01*
X163281128Y-105682143D01*
X163375377Y-105573373D01*
X163435165Y-105442457D01*
X163455647Y-105300000D01*
X163435165Y-105157543D01*
X163375377Y-105026627D01*
X163287317Y-104925000D01*
X166819353Y-104925000D01*
X166839834Y-105067456D01*
X166880976Y-105157543D01*
X166899623Y-105198373D01*
X166993872Y-105307143D01*
X167114947Y-105384953D01*
X167114950Y-105384954D01*
X167114949Y-105384954D01*
X167253036Y-105425499D01*
X167253038Y-105425500D01*
X167253039Y-105425500D01*
X167396962Y-105425500D01*
X167396962Y-105425499D01*
X167535053Y-105384953D01*
X167656128Y-105307143D01*
X167750377Y-105198373D01*
X167810165Y-105067457D01*
X167830647Y-104925000D01*
X167810165Y-104782543D01*
X167750377Y-104651627D01*
X167747234Y-104648000D01*
X170182353Y-104648000D01*
X170202834Y-104790456D01*
X170211760Y-104810000D01*
X170262623Y-104921373D01*
X170356872Y-105030143D01*
X170477947Y-105107953D01*
X170477950Y-105107954D01*
X170477949Y-105107954D01*
X170616036Y-105148499D01*
X170616038Y-105148500D01*
X170616039Y-105148500D01*
X170759962Y-105148500D01*
X170759962Y-105148499D01*
X170867121Y-105117035D01*
X170898050Y-105107954D01*
X170898050Y-105107953D01*
X170898053Y-105107953D01*
X171019128Y-105030143D01*
X171113377Y-104921373D01*
X171173165Y-104790457D01*
X171193647Y-104648000D01*
X171173165Y-104505543D01*
X171113377Y-104374627D01*
X171019128Y-104265857D01*
X170898053Y-104188047D01*
X170898051Y-104188046D01*
X170898049Y-104188045D01*
X170898050Y-104188045D01*
X170759963Y-104147500D01*
X170759961Y-104147500D01*
X170616039Y-104147500D01*
X170616036Y-104147500D01*
X170477949Y-104188045D01*
X170356873Y-104265856D01*
X170262623Y-104374626D01*
X170262622Y-104374628D01*
X170202834Y-104505543D01*
X170182353Y-104648000D01*
X167747234Y-104648000D01*
X167656128Y-104542857D01*
X167535053Y-104465047D01*
X167535051Y-104465046D01*
X167535049Y-104465045D01*
X167535050Y-104465045D01*
X167396963Y-104424500D01*
X167396961Y-104424500D01*
X167253039Y-104424500D01*
X167253036Y-104424500D01*
X167114949Y-104465045D01*
X166993873Y-104542856D01*
X166899623Y-104651626D01*
X166899622Y-104651628D01*
X166839834Y-104782543D01*
X166819353Y-104925000D01*
X163287317Y-104925000D01*
X163281128Y-104917857D01*
X163160053Y-104840047D01*
X163160051Y-104840046D01*
X163160049Y-104840045D01*
X163160050Y-104840045D01*
X163021963Y-104799500D01*
X163021961Y-104799500D01*
X162878039Y-104799500D01*
X162878036Y-104799500D01*
X162739949Y-104840045D01*
X162618873Y-104917856D01*
X162524623Y-105026626D01*
X162524622Y-105026628D01*
X162464834Y-105157543D01*
X162444353Y-105300000D01*
X144292500Y-105300000D01*
X144292500Y-103875005D01*
X154934353Y-103875005D01*
X154954834Y-104017461D01*
X154990265Y-104095043D01*
X155014623Y-104148378D01*
X155108872Y-104257148D01*
X155229947Y-104334958D01*
X155229950Y-104334959D01*
X155229949Y-104334959D01*
X155337107Y-104366422D01*
X155365052Y-104374628D01*
X155368036Y-104375504D01*
X155368038Y-104375505D01*
X155368039Y-104375505D01*
X155511962Y-104375505D01*
X155511962Y-104375504D01*
X155650053Y-104334958D01*
X155771128Y-104257148D01*
X155865377Y-104148378D01*
X155925165Y-104017462D01*
X155937740Y-103930002D01*
X156474355Y-103930002D01*
X156494836Y-104072458D01*
X156534816Y-104160000D01*
X156554625Y-104203375D01*
X156648874Y-104312145D01*
X156769949Y-104389955D01*
X156769952Y-104389956D01*
X156769951Y-104389956D01*
X156908038Y-104430501D01*
X156908040Y-104430502D01*
X156908041Y-104430502D01*
X157051964Y-104430502D01*
X157051964Y-104430501D01*
X157190055Y-104389955D01*
X157311130Y-104312145D01*
X157405379Y-104203375D01*
X157465167Y-104072459D01*
X157485649Y-103930002D01*
X159554351Y-103930002D01*
X159574832Y-104072458D01*
X159614812Y-104160000D01*
X159634621Y-104203375D01*
X159728870Y-104312145D01*
X159849945Y-104389955D01*
X159849948Y-104389956D01*
X159849947Y-104389956D01*
X159988034Y-104430501D01*
X159988036Y-104430502D01*
X159988037Y-104430502D01*
X160131960Y-104430502D01*
X160131960Y-104430501D01*
X160270051Y-104389955D01*
X160391126Y-104312145D01*
X160485375Y-104203375D01*
X160545163Y-104072459D01*
X160565645Y-103930002D01*
X160545163Y-103787545D01*
X160485375Y-103656629D01*
X160391126Y-103547859D01*
X160270051Y-103470049D01*
X160270049Y-103470048D01*
X160270047Y-103470047D01*
X160270048Y-103470047D01*
X160131961Y-103429502D01*
X160131959Y-103429502D01*
X159988037Y-103429502D01*
X159988034Y-103429502D01*
X159849947Y-103470047D01*
X159728871Y-103547858D01*
X159634621Y-103656628D01*
X159634620Y-103656630D01*
X159574832Y-103787545D01*
X159554351Y-103930002D01*
X157485649Y-103930002D01*
X157465167Y-103787545D01*
X157405379Y-103656629D01*
X157311130Y-103547859D01*
X157190055Y-103470049D01*
X157190053Y-103470048D01*
X157190051Y-103470047D01*
X157190052Y-103470047D01*
X157051965Y-103429502D01*
X157051963Y-103429502D01*
X156908041Y-103429502D01*
X156908038Y-103429502D01*
X156769951Y-103470047D01*
X156648875Y-103547858D01*
X156554625Y-103656628D01*
X156554624Y-103656630D01*
X156494836Y-103787545D01*
X156474355Y-103930002D01*
X155937740Y-103930002D01*
X155945647Y-103875005D01*
X155925165Y-103732548D01*
X155865377Y-103601632D01*
X155771128Y-103492862D01*
X155650053Y-103415052D01*
X155650051Y-103415051D01*
X155650049Y-103415050D01*
X155650050Y-103415050D01*
X155511963Y-103374505D01*
X155511961Y-103374505D01*
X155368039Y-103374505D01*
X155368036Y-103374505D01*
X155229949Y-103415050D01*
X155108873Y-103492861D01*
X155014623Y-103601631D01*
X155014622Y-103601633D01*
X154954834Y-103732548D01*
X154934353Y-103875005D01*
X144292500Y-103875005D01*
X144292500Y-102599998D01*
X145084318Y-102599998D01*
X145084318Y-102600001D01*
X145104955Y-102756760D01*
X145104956Y-102756762D01*
X145165149Y-102902082D01*
X145165464Y-102902841D01*
X145261718Y-103028282D01*
X145387159Y-103124536D01*
X145533238Y-103185044D01*
X145611619Y-103195363D01*
X145689999Y-103205682D01*
X145690000Y-103205682D01*
X145690001Y-103205682D01*
X145742254Y-103198802D01*
X145846762Y-103185044D01*
X145992841Y-103124536D01*
X146118282Y-103028282D01*
X146214536Y-102902841D01*
X146275044Y-102756762D01*
X146295682Y-102600000D01*
X146292091Y-102572727D01*
X146275044Y-102443239D01*
X146275044Y-102443238D01*
X146214536Y-102297159D01*
X146214534Y-102297156D01*
X146210472Y-102290119D01*
X146212448Y-102288977D01*
X146191511Y-102234807D01*
X146205555Y-102166363D01*
X146254373Y-102116377D01*
X146315082Y-102100500D01*
X146375962Y-102100500D01*
X146375962Y-102100499D01*
X146483121Y-102069035D01*
X146514050Y-102059954D01*
X146514050Y-102059953D01*
X146514053Y-102059953D01*
X146635128Y-101982143D01*
X146726944Y-101876181D01*
X146785722Y-101838406D01*
X146855591Y-101838406D01*
X146914370Y-101876180D01*
X146943395Y-101939735D01*
X146943596Y-101973568D01*
X146924318Y-102119998D01*
X146924318Y-102120001D01*
X146944955Y-102276760D01*
X146944956Y-102276762D01*
X147005464Y-102422841D01*
X147101718Y-102548282D01*
X147227159Y-102644536D01*
X147373238Y-102705044D01*
X147451619Y-102715363D01*
X147529999Y-102725682D01*
X147530000Y-102725682D01*
X147530001Y-102725682D01*
X147582254Y-102718802D01*
X147686762Y-102705044D01*
X147832841Y-102644536D01*
X147958282Y-102548282D01*
X148054536Y-102422841D01*
X148115044Y-102276762D01*
X148135682Y-102120000D01*
X148135682Y-102119998D01*
X148414318Y-102119998D01*
X148414318Y-102120001D01*
X148434955Y-102276760D01*
X148434956Y-102276762D01*
X148495464Y-102422841D01*
X148591718Y-102548282D01*
X148717159Y-102644536D01*
X148863238Y-102705044D01*
X148941619Y-102715363D01*
X149019999Y-102725682D01*
X149020000Y-102725682D01*
X149020001Y-102725682D01*
X149072254Y-102718802D01*
X149176762Y-102705044D01*
X149322841Y-102644536D01*
X149448282Y-102548282D01*
X149544536Y-102422841D01*
X149549856Y-102409998D01*
X152344318Y-102409998D01*
X152344318Y-102410001D01*
X152364955Y-102566760D01*
X152364956Y-102566762D01*
X152425464Y-102712841D01*
X152521718Y-102838282D01*
X152647159Y-102934536D01*
X152793238Y-102995044D01*
X152871619Y-103005363D01*
X152949999Y-103015682D01*
X152950000Y-103015682D01*
X152950001Y-103015682D01*
X153002254Y-103008802D01*
X153106762Y-102995044D01*
X153252841Y-102934536D01*
X153378282Y-102838282D01*
X153474536Y-102712841D01*
X153535044Y-102566762D01*
X153551306Y-102443237D01*
X153555682Y-102410001D01*
X153555682Y-102409998D01*
X153535044Y-102253239D01*
X153535044Y-102253238D01*
X153474536Y-102107159D01*
X153378282Y-101981718D01*
X153252841Y-101885464D01*
X153230427Y-101876180D01*
X153106762Y-101824956D01*
X153106760Y-101824955D01*
X152950001Y-101804318D01*
X152949999Y-101804318D01*
X152793239Y-101824955D01*
X152793237Y-101824956D01*
X152647160Y-101885463D01*
X152521718Y-101981718D01*
X152425463Y-102107160D01*
X152364956Y-102253237D01*
X152364955Y-102253239D01*
X152344318Y-102409998D01*
X149549856Y-102409998D01*
X149605044Y-102276762D01*
X149625682Y-102120000D01*
X149623991Y-102107159D01*
X149605044Y-101963239D01*
X149605044Y-101963238D01*
X149544536Y-101817159D01*
X149448282Y-101691718D01*
X149322841Y-101595464D01*
X149315685Y-101592500D01*
X149176762Y-101534956D01*
X149176760Y-101534955D01*
X149020001Y-101514318D01*
X149019999Y-101514318D01*
X148863239Y-101534955D01*
X148863237Y-101534956D01*
X148717160Y-101595463D01*
X148591718Y-101691718D01*
X148495463Y-101817160D01*
X148434956Y-101963237D01*
X148434955Y-101963239D01*
X148414318Y-102119998D01*
X148135682Y-102119998D01*
X148133991Y-102107159D01*
X148115044Y-101963239D01*
X148115044Y-101963238D01*
X148054536Y-101817159D01*
X147958282Y-101691718D01*
X147832841Y-101595464D01*
X147825685Y-101592500D01*
X147686762Y-101534956D01*
X147686760Y-101534955D01*
X147530001Y-101514318D01*
X147529999Y-101514318D01*
X147373239Y-101534955D01*
X147373237Y-101534956D01*
X147227160Y-101595463D01*
X147217026Y-101603239D01*
X147101718Y-101691718D01*
X147101717Y-101691719D01*
X147101716Y-101691720D01*
X147014649Y-101805187D01*
X146958221Y-101846389D01*
X146888475Y-101850544D01*
X146827555Y-101816331D01*
X146794803Y-101754614D01*
X146793536Y-101712053D01*
X146809647Y-101600000D01*
X146789165Y-101457543D01*
X146729377Y-101326627D01*
X146635128Y-101217857D01*
X146514053Y-101140047D01*
X146514051Y-101140046D01*
X146514049Y-101140045D01*
X146514050Y-101140045D01*
X146375963Y-101099500D01*
X146375961Y-101099500D01*
X146232039Y-101099500D01*
X146232038Y-101099500D01*
X146224141Y-101100635D01*
X146164105Y-101092000D01*
X156974353Y-101092000D01*
X156994834Y-101234456D01*
X157039253Y-101331718D01*
X157054623Y-101365373D01*
X157148872Y-101474143D01*
X157269947Y-101551953D01*
X157269950Y-101551954D01*
X157269949Y-101551954D01*
X157408036Y-101592499D01*
X157408038Y-101592500D01*
X157408039Y-101592500D01*
X157551962Y-101592500D01*
X157551962Y-101592499D01*
X157690053Y-101551953D01*
X157811128Y-101474143D01*
X157905377Y-101365373D01*
X157965165Y-101234457D01*
X157985647Y-101092000D01*
X157965165Y-100949543D01*
X157905377Y-100818627D01*
X157811128Y-100709857D01*
X157755209Y-100673920D01*
X164689499Y-100673920D01*
X164718340Y-100818907D01*
X164718343Y-100818917D01*
X164774912Y-100955488D01*
X164774919Y-100955501D01*
X164857048Y-101078415D01*
X164857051Y-101078419D01*
X164961580Y-101182948D01*
X164961584Y-101182951D01*
X165084498Y-101265080D01*
X165084511Y-101265087D01*
X165154401Y-101294036D01*
X165221087Y-101321658D01*
X165221091Y-101321658D01*
X165221092Y-101321659D01*
X165366079Y-101350500D01*
X166114065Y-101350500D01*
X166181104Y-101370185D01*
X166226859Y-101422989D01*
X166236803Y-101492147D01*
X166228627Y-101521948D01*
X166216199Y-101551953D01*
X166194956Y-101603237D01*
X166194955Y-101603239D01*
X166174318Y-101759998D01*
X166174318Y-101760001D01*
X166194955Y-101916760D01*
X166194956Y-101916762D01*
X166255464Y-102062841D01*
X166351718Y-102188282D01*
X166477159Y-102284536D01*
X166623238Y-102345044D01*
X166692079Y-102354107D01*
X166779999Y-102365682D01*
X166780000Y-102365682D01*
X166780001Y-102365682D01*
X166867921Y-102354107D01*
X166936762Y-102345044D01*
X167082841Y-102284536D01*
X167200015Y-102194624D01*
X167265183Y-102169432D01*
X167333627Y-102183470D01*
X167383617Y-102232284D01*
X167399500Y-102293002D01*
X167399500Y-102302744D01*
X167379815Y-102369783D01*
X167363181Y-102390425D01*
X166885008Y-102868597D01*
X166823685Y-102902082D01*
X166813513Y-102903855D01*
X166653238Y-102924956D01*
X166653237Y-102924956D01*
X166507160Y-102985463D01*
X166381718Y-103081718D01*
X166285463Y-103207160D01*
X166224956Y-103353237D01*
X166224955Y-103353239D01*
X166204318Y-103509998D01*
X166204318Y-103510001D01*
X166224955Y-103666760D01*
X166224956Y-103666762D01*
X166285464Y-103812841D01*
X166381718Y-103938282D01*
X166507159Y-104034536D01*
X166653238Y-104095044D01*
X166731619Y-104105363D01*
X166809999Y-104115682D01*
X166810000Y-104115682D01*
X166810001Y-104115682D01*
X166862254Y-104108802D01*
X166966762Y-104095044D01*
X167112841Y-104034536D01*
X167238282Y-103938282D01*
X167334536Y-103812841D01*
X167395044Y-103666762D01*
X167415682Y-103510000D01*
X167415681Y-103509997D01*
X167416144Y-103506485D01*
X167444410Y-103442589D01*
X167451389Y-103435002D01*
X168120480Y-102765913D01*
X168125763Y-102756762D01*
X168143695Y-102725704D01*
X168143698Y-102725696D01*
X168143707Y-102725682D01*
X168173207Y-102674587D01*
X168200500Y-102572727D01*
X168200500Y-100336580D01*
X168220185Y-100269541D01*
X168226124Y-100261093D01*
X168228279Y-100258283D01*
X168228282Y-100258282D01*
X168324536Y-100132841D01*
X168385044Y-99986762D01*
X168400407Y-99870066D01*
X168428673Y-99806170D01*
X168486998Y-99767699D01*
X168556863Y-99766868D01*
X168612086Y-99801436D01*
X168612172Y-99801337D01*
X168612807Y-99801887D01*
X168616086Y-99803940D01*
X168616970Y-99804948D01*
X168618029Y-99806170D01*
X168618873Y-99807144D01*
X168630077Y-99814344D01*
X168704087Y-99861907D01*
X168749841Y-99914710D01*
X168759785Y-99983868D01*
X168730760Y-100047424D01*
X168724729Y-100053903D01*
X168657048Y-100121584D01*
X168574919Y-100244498D01*
X168574912Y-100244511D01*
X168518343Y-100381082D01*
X168518340Y-100381092D01*
X168489500Y-100526079D01*
X168489500Y-100526082D01*
X168489500Y-100673918D01*
X168489500Y-100673920D01*
X168489499Y-100673920D01*
X168518340Y-100818907D01*
X168518343Y-100818917D01*
X168574912Y-100955488D01*
X168574919Y-100955501D01*
X168657048Y-101078415D01*
X168657051Y-101078419D01*
X168761580Y-101182948D01*
X168761584Y-101182951D01*
X168884498Y-101265080D01*
X168884511Y-101265087D01*
X168954401Y-101294036D01*
X169021087Y-101321658D01*
X169021091Y-101321658D01*
X169021092Y-101321659D01*
X169166079Y-101350500D01*
X169166082Y-101350500D01*
X170513920Y-101350500D01*
X170611462Y-101331096D01*
X170658913Y-101321658D01*
X170795495Y-101265084D01*
X170918416Y-101182951D01*
X171022951Y-101078416D01*
X171105084Y-100955495D01*
X171161658Y-100818913D01*
X171183351Y-100709857D01*
X171190500Y-100673920D01*
X171190500Y-100526079D01*
X171161659Y-100381092D01*
X171161658Y-100381091D01*
X171161658Y-100381087D01*
X171132472Y-100310626D01*
X171105087Y-100244511D01*
X171105080Y-100244498D01*
X171022951Y-100121584D01*
X171022948Y-100121580D01*
X170918419Y-100017051D01*
X170918415Y-100017048D01*
X170795501Y-99934919D01*
X170795488Y-99934912D01*
X170658917Y-99878343D01*
X170658907Y-99878340D01*
X170513920Y-99849500D01*
X170513918Y-99849500D01*
X169499307Y-99849500D01*
X169432268Y-99829815D01*
X169386513Y-99777011D01*
X169376569Y-99707853D01*
X169386513Y-99673988D01*
X169386856Y-99673237D01*
X169435165Y-99567457D01*
X169455647Y-99425000D01*
X169435165Y-99282543D01*
X169375377Y-99151627D01*
X169281128Y-99042857D01*
X169160053Y-98965047D01*
X169160051Y-98965046D01*
X169160049Y-98965045D01*
X169160050Y-98965045D01*
X169021963Y-98924500D01*
X169021961Y-98924500D01*
X168878039Y-98924500D01*
X168878036Y-98924500D01*
X168739949Y-98965045D01*
X168618873Y-99042856D01*
X168524623Y-99151626D01*
X168524622Y-99151628D01*
X168464834Y-99282543D01*
X168454971Y-99351146D01*
X168425945Y-99414701D01*
X168367167Y-99452475D01*
X168297298Y-99452475D01*
X168238520Y-99414700D01*
X168233857Y-99408984D01*
X168228283Y-99401719D01*
X168217232Y-99393239D01*
X168102841Y-99305464D01*
X168076678Y-99294627D01*
X167956762Y-99244956D01*
X167956760Y-99244955D01*
X167800001Y-99224318D01*
X167799999Y-99224318D01*
X167643239Y-99244955D01*
X167643237Y-99244956D01*
X167497160Y-99305463D01*
X167371718Y-99401718D01*
X167275463Y-99527160D01*
X167214956Y-99673237D01*
X167214955Y-99673239D01*
X167194318Y-99829998D01*
X167194318Y-99830001D01*
X167214955Y-99986760D01*
X167214956Y-99986762D01*
X167271820Y-100124045D01*
X167275464Y-100132841D01*
X167371718Y-100258282D01*
X167371720Y-100258283D01*
X167373876Y-100261093D01*
X167399070Y-100326263D01*
X167399500Y-100336580D01*
X167399500Y-101226997D01*
X167379815Y-101294036D01*
X167327011Y-101339791D01*
X167257853Y-101349735D01*
X167200014Y-101325373D01*
X167082842Y-101235464D01*
X166936692Y-101174927D01*
X166882289Y-101131086D01*
X166860224Y-101064792D01*
X166877503Y-100997092D01*
X166881032Y-100991491D01*
X166905084Y-100955495D01*
X166961658Y-100818913D01*
X166983351Y-100709857D01*
X166990500Y-100673920D01*
X166990500Y-100526079D01*
X166961659Y-100381092D01*
X166961658Y-100381091D01*
X166961658Y-100381087D01*
X166932472Y-100310626D01*
X166905087Y-100244511D01*
X166905080Y-100244498D01*
X166822951Y-100121584D01*
X166822948Y-100121580D01*
X166718419Y-100017051D01*
X166718415Y-100017048D01*
X166595501Y-99934919D01*
X166595488Y-99934912D01*
X166458917Y-99878343D01*
X166458907Y-99878340D01*
X166313920Y-99849500D01*
X166313918Y-99849500D01*
X165366082Y-99849500D01*
X165366080Y-99849500D01*
X165221092Y-99878340D01*
X165221082Y-99878343D01*
X165084511Y-99934912D01*
X165084498Y-99934919D01*
X164961584Y-100017048D01*
X164961580Y-100017051D01*
X164857051Y-100121580D01*
X164857048Y-100121584D01*
X164774919Y-100244498D01*
X164774912Y-100244511D01*
X164718343Y-100381082D01*
X164718340Y-100381092D01*
X164689500Y-100526079D01*
X164689500Y-100526082D01*
X164689500Y-100673918D01*
X164689500Y-100673920D01*
X164689499Y-100673920D01*
X157755209Y-100673920D01*
X157690053Y-100632047D01*
X157690051Y-100632046D01*
X157690049Y-100632045D01*
X157690050Y-100632045D01*
X157551963Y-100591500D01*
X157551961Y-100591500D01*
X157408039Y-100591500D01*
X157408036Y-100591500D01*
X157269949Y-100632045D01*
X157148873Y-100709856D01*
X157054623Y-100818626D01*
X157054622Y-100818628D01*
X156994834Y-100949543D01*
X156974353Y-101092000D01*
X146164105Y-101092000D01*
X146154983Y-101090688D01*
X146102181Y-101044931D01*
X146082500Y-100977896D01*
X146082500Y-100584000D01*
X147322353Y-100584000D01*
X147342834Y-100726456D01*
X147402622Y-100857371D01*
X147402623Y-100857373D01*
X147496872Y-100966143D01*
X147617947Y-101043953D01*
X147617950Y-101043954D01*
X147617949Y-101043954D01*
X147756036Y-101084499D01*
X147756038Y-101084500D01*
X147756039Y-101084500D01*
X147899962Y-101084500D01*
X147899962Y-101084499D01*
X148017459Y-101050000D01*
X148038050Y-101043954D01*
X148038050Y-101043953D01*
X148038053Y-101043953D01*
X148159128Y-100966143D01*
X148253377Y-100857373D01*
X148313165Y-100726457D01*
X148333647Y-100584000D01*
X148313165Y-100441543D01*
X148253377Y-100310627D01*
X148159128Y-100201857D01*
X148038053Y-100124047D01*
X148038051Y-100124046D01*
X148038049Y-100124045D01*
X148038050Y-100124045D01*
X147899963Y-100083500D01*
X147899961Y-100083500D01*
X147756039Y-100083500D01*
X147756036Y-100083500D01*
X147617949Y-100124045D01*
X147496873Y-100201856D01*
X147402623Y-100310626D01*
X147402622Y-100310628D01*
X147342834Y-100441543D01*
X147322353Y-100584000D01*
X146082500Y-100584000D01*
X146082500Y-99193940D01*
X146102185Y-99126901D01*
X146118819Y-99106259D01*
X146165080Y-99059998D01*
X153804318Y-99059998D01*
X153804318Y-99060001D01*
X153824955Y-99216760D01*
X153824956Y-99216762D01*
X153885464Y-99362841D01*
X153981718Y-99488282D01*
X154107159Y-99584536D01*
X154253238Y-99645044D01*
X154331619Y-99655363D01*
X154409999Y-99665682D01*
X154410000Y-99665682D01*
X154410001Y-99665682D01*
X154462254Y-99658802D01*
X154566762Y-99645044D01*
X154712841Y-99584536D01*
X154838282Y-99488282D01*
X154934536Y-99362841D01*
X154995044Y-99216762D01*
X155015682Y-99060000D01*
X159514353Y-99060000D01*
X159534834Y-99202456D01*
X159581877Y-99305463D01*
X159594623Y-99333373D01*
X159688872Y-99442143D01*
X159809947Y-99519953D01*
X159809950Y-99519954D01*
X159809949Y-99519954D01*
X159912272Y-99549998D01*
X159946336Y-99560000D01*
X159948036Y-99560499D01*
X159948038Y-99560500D01*
X159948039Y-99560500D01*
X160091962Y-99560500D01*
X160091962Y-99560499D01*
X160230053Y-99519953D01*
X160351128Y-99442143D01*
X160445377Y-99333373D01*
X160505165Y-99202457D01*
X160525647Y-99060000D01*
X160505165Y-98917543D01*
X160445377Y-98786627D01*
X160351128Y-98677857D01*
X160230053Y-98600047D01*
X160230051Y-98600046D01*
X160230049Y-98600045D01*
X160230050Y-98600045D01*
X160091963Y-98559500D01*
X160091961Y-98559500D01*
X159948039Y-98559500D01*
X159948036Y-98559500D01*
X159809949Y-98600045D01*
X159688873Y-98677856D01*
X159594623Y-98786626D01*
X159594622Y-98786628D01*
X159534834Y-98917543D01*
X159514353Y-99060000D01*
X155015682Y-99060000D01*
X154995044Y-98903238D01*
X154934536Y-98757159D01*
X154838282Y-98631718D01*
X154712841Y-98535464D01*
X154604288Y-98490500D01*
X154566762Y-98474956D01*
X154566760Y-98474955D01*
X154410001Y-98454318D01*
X154409999Y-98454318D01*
X154253239Y-98474955D01*
X154253237Y-98474956D01*
X154107160Y-98535463D01*
X153981718Y-98631718D01*
X153885463Y-98757160D01*
X153824956Y-98903237D01*
X153824955Y-98903239D01*
X153804318Y-99059998D01*
X146165080Y-99059998D01*
X148085081Y-97139997D01*
X148764319Y-97139997D01*
X148764319Y-97140000D01*
X148784956Y-97296759D01*
X148784957Y-97296761D01*
X148823577Y-97389999D01*
X148845465Y-97442840D01*
X148941719Y-97568281D01*
X149067160Y-97664535D01*
X149213239Y-97725043D01*
X149291620Y-97735362D01*
X149370000Y-97745681D01*
X149370001Y-97745681D01*
X149370002Y-97745681D01*
X149422255Y-97738801D01*
X149526763Y-97725043D01*
X149672842Y-97664535D01*
X149798283Y-97568281D01*
X149894537Y-97442840D01*
X149916424Y-97389999D01*
X150544785Y-97389999D01*
X150544785Y-97390000D01*
X150563602Y-97593082D01*
X150619417Y-97789247D01*
X150619422Y-97789260D01*
X150710327Y-97971821D01*
X150833237Y-98134581D01*
X150983958Y-98271980D01*
X150983960Y-98271982D01*
X151083141Y-98333392D01*
X151157363Y-98379348D01*
X151347544Y-98453024D01*
X151548024Y-98490500D01*
X151548026Y-98490500D01*
X151751974Y-98490500D01*
X151751976Y-98490500D01*
X151952456Y-98453024D01*
X152142637Y-98379348D01*
X152316041Y-98271981D01*
X152466764Y-98134579D01*
X152589673Y-97971821D01*
X152680582Y-97789250D01*
X152736397Y-97593083D01*
X152755215Y-97390000D01*
X152751800Y-97353146D01*
X160341361Y-97353146D01*
X160341361Y-97353147D01*
X160360401Y-97509965D01*
X160382518Y-97568281D01*
X160416419Y-97657670D01*
X160506156Y-97787677D01*
X160624399Y-97892430D01*
X160624401Y-97892431D01*
X160764273Y-97965843D01*
X160917653Y-98003647D01*
X160917654Y-98003647D01*
X161075624Y-98003647D01*
X161229004Y-97965843D01*
X161368879Y-97892430D01*
X161487122Y-97787677D01*
X161576859Y-97657670D01*
X161632876Y-97509965D01*
X161636515Y-97479998D01*
X165664318Y-97479998D01*
X165664318Y-97480001D01*
X165684955Y-97636760D01*
X165684956Y-97636762D01*
X165729452Y-97744186D01*
X165745464Y-97782841D01*
X165841718Y-97908282D01*
X165967159Y-98004536D01*
X166113238Y-98065044D01*
X166191619Y-98075363D01*
X166269999Y-98085682D01*
X166270000Y-98085682D01*
X166270001Y-98085682D01*
X166322254Y-98078802D01*
X166426762Y-98065044D01*
X166572841Y-98004536D01*
X166698282Y-97908282D01*
X166794536Y-97782841D01*
X166855044Y-97636762D01*
X166875682Y-97480000D01*
X166855044Y-97323238D01*
X166794536Y-97177159D01*
X166698282Y-97051718D01*
X166572841Y-96955464D01*
X166426762Y-96894956D01*
X166426760Y-96894955D01*
X166270001Y-96874318D01*
X166269999Y-96874318D01*
X166113239Y-96894955D01*
X166113237Y-96894956D01*
X165967160Y-96955463D01*
X165841718Y-97051718D01*
X165745463Y-97177160D01*
X165684956Y-97323237D01*
X165684955Y-97323239D01*
X165664318Y-97479998D01*
X161636515Y-97479998D01*
X161651917Y-97353147D01*
X161648286Y-97323238D01*
X161632876Y-97196328D01*
X161578032Y-97051718D01*
X161576859Y-97048624D01*
X161487122Y-96918617D01*
X161368879Y-96813864D01*
X161368877Y-96813863D01*
X161368876Y-96813862D01*
X161229004Y-96740450D01*
X161075625Y-96702647D01*
X161075624Y-96702647D01*
X160917654Y-96702647D01*
X160917653Y-96702647D01*
X160764273Y-96740450D01*
X160624401Y-96813862D01*
X160506155Y-96918618D01*
X160416420Y-97048622D01*
X160416419Y-97048623D01*
X160360401Y-97196328D01*
X160341361Y-97353146D01*
X152751800Y-97353146D01*
X152744334Y-97272578D01*
X152736397Y-97186917D01*
X152723048Y-97140000D01*
X152680582Y-96990750D01*
X152676841Y-96983238D01*
X152619959Y-96869002D01*
X152589673Y-96808179D01*
X152466764Y-96645421D01*
X152466762Y-96645418D01*
X152329184Y-96520000D01*
X156974353Y-96520000D01*
X156994834Y-96662456D01*
X157030454Y-96740451D01*
X157054623Y-96793373D01*
X157148872Y-96902143D01*
X157269947Y-96979953D01*
X157269950Y-96979954D01*
X157269949Y-96979954D01*
X157408036Y-97020499D01*
X157408038Y-97020500D01*
X157408039Y-97020500D01*
X157551962Y-97020500D01*
X157551962Y-97020499D01*
X157690053Y-96979953D01*
X157811128Y-96902143D01*
X157905377Y-96793373D01*
X157965165Y-96662457D01*
X157985647Y-96520000D01*
X167134353Y-96520000D01*
X167154834Y-96662456D01*
X167190454Y-96740451D01*
X167214623Y-96793373D01*
X167308872Y-96902143D01*
X167429947Y-96979953D01*
X167429950Y-96979954D01*
X167429949Y-96979954D01*
X167568036Y-97020499D01*
X167568038Y-97020500D01*
X167568039Y-97020500D01*
X167711962Y-97020500D01*
X167711962Y-97020499D01*
X167850053Y-96979953D01*
X167971128Y-96902143D01*
X168065377Y-96793373D01*
X168125165Y-96662457D01*
X168145647Y-96520000D01*
X168125165Y-96377543D01*
X168065377Y-96246627D01*
X167971128Y-96137857D01*
X167850053Y-96060047D01*
X167850051Y-96060046D01*
X167850049Y-96060045D01*
X167850050Y-96060045D01*
X167711963Y-96019500D01*
X167711961Y-96019500D01*
X167568039Y-96019500D01*
X167568036Y-96019500D01*
X167429949Y-96060045D01*
X167308873Y-96137856D01*
X167214623Y-96246626D01*
X167214622Y-96246628D01*
X167154834Y-96377543D01*
X167134353Y-96520000D01*
X157985647Y-96520000D01*
X157965165Y-96377543D01*
X157905377Y-96246627D01*
X157811128Y-96137857D01*
X157690053Y-96060047D01*
X157690051Y-96060046D01*
X157690049Y-96060045D01*
X157690050Y-96060045D01*
X157551963Y-96019500D01*
X157551961Y-96019500D01*
X157408039Y-96019500D01*
X157408036Y-96019500D01*
X157269949Y-96060045D01*
X157148873Y-96137856D01*
X157054623Y-96246626D01*
X157054622Y-96246628D01*
X156994834Y-96377543D01*
X156974353Y-96520000D01*
X152329184Y-96520000D01*
X152316041Y-96508019D01*
X152316039Y-96508017D01*
X152142642Y-96400655D01*
X152142635Y-96400651D01*
X152047546Y-96363814D01*
X151952456Y-96326976D01*
X151751976Y-96289500D01*
X151548024Y-96289500D01*
X151347544Y-96326976D01*
X151347541Y-96326976D01*
X151347541Y-96326977D01*
X151157364Y-96400651D01*
X151157357Y-96400655D01*
X150983960Y-96508017D01*
X150983958Y-96508019D01*
X150833237Y-96645418D01*
X150710327Y-96808178D01*
X150619422Y-96990739D01*
X150619420Y-96990745D01*
X150619418Y-96990750D01*
X150602071Y-97051718D01*
X150563602Y-97186917D01*
X150544785Y-97389999D01*
X149916424Y-97389999D01*
X149955045Y-97296761D01*
X149975683Y-97139999D01*
X149955045Y-96983237D01*
X149894537Y-96837158D01*
X149798283Y-96711717D01*
X149672842Y-96615463D01*
X149526763Y-96554955D01*
X149526761Y-96554954D01*
X149370002Y-96534317D01*
X149370000Y-96534317D01*
X149213240Y-96554954D01*
X149213238Y-96554955D01*
X149067161Y-96615462D01*
X148941719Y-96711717D01*
X148845464Y-96837159D01*
X148784957Y-96983236D01*
X148784956Y-96983238D01*
X148764319Y-97139997D01*
X148085081Y-97139997D01*
X150432664Y-94792414D01*
X150814807Y-94410271D01*
X160025897Y-94410271D01*
X160046378Y-94552727D01*
X160069877Y-94604181D01*
X160106167Y-94683644D01*
X160200416Y-94792414D01*
X160321491Y-94870224D01*
X160321494Y-94870225D01*
X160321493Y-94870225D01*
X160459580Y-94910770D01*
X160459582Y-94910771D01*
X160459583Y-94910771D01*
X160603506Y-94910771D01*
X160603506Y-94910770D01*
X160741597Y-94870224D01*
X160862672Y-94792414D01*
X160956921Y-94683644D01*
X161016709Y-94552728D01*
X161037191Y-94410271D01*
X161016709Y-94267814D01*
X160956921Y-94136898D01*
X160862672Y-94028128D01*
X160741597Y-93950318D01*
X160741595Y-93950317D01*
X160741593Y-93950316D01*
X160741594Y-93950316D01*
X160603507Y-93909771D01*
X160603505Y-93909771D01*
X160459583Y-93909771D01*
X160459580Y-93909771D01*
X160321493Y-93950316D01*
X160200417Y-94028127D01*
X160106167Y-94136897D01*
X160106166Y-94136899D01*
X160046378Y-94267814D01*
X160025897Y-94410271D01*
X150814807Y-94410271D01*
X152125463Y-93099616D01*
X162838888Y-93099616D01*
X162838888Y-93099619D01*
X162859525Y-93256378D01*
X162859526Y-93256380D01*
X162906615Y-93370064D01*
X162920034Y-93402459D01*
X163016288Y-93527900D01*
X163141729Y-93624154D01*
X163287808Y-93684662D01*
X163366189Y-93694981D01*
X163444569Y-93705300D01*
X163444570Y-93705300D01*
X163444571Y-93705300D01*
X163497513Y-93698330D01*
X163601332Y-93684662D01*
X163747411Y-93624154D01*
X163872852Y-93527900D01*
X163969106Y-93402459D01*
X164029614Y-93256380D01*
X164050252Y-93099618D01*
X164029614Y-92942856D01*
X163969106Y-92796777D01*
X163872852Y-92671336D01*
X163747411Y-92575082D01*
X163601332Y-92514574D01*
X163601330Y-92514573D01*
X163444571Y-92493936D01*
X163444569Y-92493936D01*
X163287809Y-92514573D01*
X163287807Y-92514574D01*
X163141730Y-92575081D01*
X163016288Y-92671336D01*
X162920033Y-92796778D01*
X162859526Y-92942855D01*
X162859525Y-92942857D01*
X162838888Y-93099616D01*
X152125463Y-93099616D01*
X152769079Y-92456000D01*
X153926353Y-92456000D01*
X153946834Y-92598456D01*
X154006622Y-92729371D01*
X154006623Y-92729373D01*
X154100872Y-92838143D01*
X154221947Y-92915953D01*
X154221950Y-92915954D01*
X154221949Y-92915954D01*
X154360036Y-92956499D01*
X154360038Y-92956500D01*
X154360039Y-92956500D01*
X154503962Y-92956500D01*
X154503962Y-92956499D01*
X154642053Y-92915953D01*
X154763128Y-92838143D01*
X154857377Y-92729373D01*
X154917165Y-92598457D01*
X154937647Y-92456000D01*
X154917165Y-92313543D01*
X154857377Y-92182627D01*
X154763128Y-92073857D01*
X154642053Y-91996047D01*
X154642051Y-91996046D01*
X154642049Y-91996045D01*
X154642050Y-91996045D01*
X154503963Y-91955500D01*
X154503961Y-91955500D01*
X154360039Y-91955500D01*
X154360036Y-91955500D01*
X154221949Y-91996045D01*
X154100873Y-92073856D01*
X154006623Y-92182626D01*
X154006622Y-92182628D01*
X153946834Y-92313543D01*
X153926353Y-92456000D01*
X152769079Y-92456000D01*
X153785079Y-91440000D01*
X156974353Y-91440000D01*
X156994834Y-91582456D01*
X157037098Y-91675000D01*
X157054623Y-91713373D01*
X157148872Y-91822143D01*
X157269947Y-91899953D01*
X157269950Y-91899954D01*
X157269949Y-91899954D01*
X157408036Y-91940499D01*
X157408038Y-91940500D01*
X157408039Y-91940500D01*
X157551962Y-91940500D01*
X157551962Y-91940499D01*
X157690053Y-91899953D01*
X157811128Y-91822143D01*
X157905377Y-91713373D01*
X157965165Y-91582457D01*
X157985647Y-91440000D01*
X162054353Y-91440000D01*
X162074834Y-91582456D01*
X162117098Y-91675000D01*
X162134623Y-91713373D01*
X162228872Y-91822143D01*
X162349947Y-91899953D01*
X162349950Y-91899954D01*
X162349949Y-91899954D01*
X162488036Y-91940499D01*
X162488038Y-91940500D01*
X162488039Y-91940500D01*
X162631962Y-91940500D01*
X162631962Y-91940499D01*
X162770053Y-91899953D01*
X162891128Y-91822143D01*
X162985377Y-91713373D01*
X163045165Y-91582457D01*
X163065647Y-91440000D01*
X163045165Y-91297543D01*
X162985377Y-91166627D01*
X162891128Y-91057857D01*
X162770053Y-90980047D01*
X162770051Y-90980046D01*
X162770049Y-90980045D01*
X162770050Y-90980045D01*
X162631963Y-90939500D01*
X162631961Y-90939500D01*
X162488039Y-90939500D01*
X162488036Y-90939500D01*
X162349949Y-90980045D01*
X162228873Y-91057856D01*
X162134623Y-91166626D01*
X162134622Y-91166628D01*
X162074834Y-91297543D01*
X162054353Y-91440000D01*
X157985647Y-91440000D01*
X157965165Y-91297543D01*
X157905377Y-91166627D01*
X157811128Y-91057857D01*
X157690053Y-90980047D01*
X157690051Y-90980046D01*
X157690049Y-90980045D01*
X157690050Y-90980045D01*
X157551963Y-90939500D01*
X157551961Y-90939500D01*
X157408039Y-90939500D01*
X157408036Y-90939500D01*
X157269949Y-90980045D01*
X157148873Y-91057856D01*
X157054623Y-91166626D01*
X157054622Y-91166628D01*
X156994834Y-91297543D01*
X156974353Y-91440000D01*
X153785079Y-91440000D01*
X154814078Y-90411001D01*
X154824499Y-90392951D01*
X154865752Y-90321499D01*
X154892500Y-90221674D01*
X154892500Y-88900000D01*
X155450353Y-88900000D01*
X155470834Y-89042456D01*
X155528103Y-89167856D01*
X155530623Y-89173373D01*
X155624872Y-89282143D01*
X155745947Y-89359953D01*
X155745950Y-89359954D01*
X155745949Y-89359954D01*
X155884036Y-89400499D01*
X155884038Y-89400500D01*
X155884039Y-89400500D01*
X156027962Y-89400500D01*
X156027962Y-89400499D01*
X156166053Y-89359953D01*
X156287128Y-89282143D01*
X156381377Y-89173373D01*
X156441165Y-89042457D01*
X156461647Y-88900000D01*
X159514353Y-88900000D01*
X159534834Y-89042456D01*
X159592103Y-89167856D01*
X159594623Y-89173373D01*
X159688872Y-89282143D01*
X159809947Y-89359953D01*
X159809950Y-89359954D01*
X159809949Y-89359954D01*
X159948036Y-89400499D01*
X159948038Y-89400500D01*
X159948039Y-89400500D01*
X160091962Y-89400500D01*
X160091962Y-89400499D01*
X160230053Y-89359953D01*
X160351128Y-89282143D01*
X160445377Y-89173373D01*
X160505165Y-89042457D01*
X160525647Y-88900000D01*
X160505165Y-88757543D01*
X160445377Y-88626627D01*
X160351128Y-88517857D01*
X160230053Y-88440047D01*
X160230051Y-88440046D01*
X160230049Y-88440045D01*
X160230050Y-88440045D01*
X160091963Y-88399500D01*
X160091961Y-88399500D01*
X159948039Y-88399500D01*
X159948036Y-88399500D01*
X159809949Y-88440045D01*
X159688873Y-88517856D01*
X159594623Y-88626626D01*
X159594622Y-88626628D01*
X159534834Y-88757543D01*
X159514353Y-88900000D01*
X156461647Y-88900000D01*
X156441165Y-88757543D01*
X156381377Y-88626627D01*
X156287128Y-88517857D01*
X156166053Y-88440047D01*
X156166051Y-88440046D01*
X156166049Y-88440045D01*
X156166050Y-88440045D01*
X156027963Y-88399500D01*
X156027961Y-88399500D01*
X155884039Y-88399500D01*
X155884036Y-88399500D01*
X155745949Y-88440045D01*
X155624873Y-88517856D01*
X155530623Y-88626626D01*
X155530622Y-88626628D01*
X155470834Y-88757543D01*
X155450353Y-88900000D01*
X154892500Y-88900000D01*
X154892500Y-87038917D01*
X154865752Y-86939092D01*
X154814078Y-86849590D01*
X154741001Y-86776513D01*
X154741000Y-86776512D01*
X154474627Y-86510139D01*
X154441142Y-86448816D01*
X154443041Y-86388527D01*
X154451158Y-86360000D01*
X156974353Y-86360000D01*
X156994834Y-86502456D01*
X157047218Y-86617159D01*
X157054623Y-86633373D01*
X157148872Y-86742143D01*
X157269947Y-86819953D01*
X157269950Y-86819954D01*
X157269949Y-86819954D01*
X157408036Y-86860499D01*
X157408038Y-86860500D01*
X157408039Y-86860500D01*
X157551962Y-86860500D01*
X157551962Y-86860499D01*
X157690053Y-86819953D01*
X157811128Y-86742143D01*
X157905377Y-86633373D01*
X157965165Y-86502457D01*
X157985647Y-86360000D01*
X162054353Y-86360000D01*
X162074834Y-86502456D01*
X162127218Y-86617159D01*
X162134623Y-86633373D01*
X162228872Y-86742143D01*
X162349947Y-86819953D01*
X162349950Y-86819954D01*
X162349949Y-86819954D01*
X162488036Y-86860499D01*
X162488038Y-86860500D01*
X162488039Y-86860500D01*
X162631962Y-86860500D01*
X162631962Y-86860499D01*
X162770053Y-86819953D01*
X162891128Y-86742143D01*
X162985377Y-86633373D01*
X163045165Y-86502457D01*
X163065647Y-86360000D01*
X163045165Y-86217543D01*
X162985377Y-86086627D01*
X162891128Y-85977857D01*
X162770053Y-85900047D01*
X162770051Y-85900046D01*
X162770049Y-85900045D01*
X162770050Y-85900045D01*
X162631963Y-85859500D01*
X162631961Y-85859500D01*
X162488039Y-85859500D01*
X162488036Y-85859500D01*
X162349949Y-85900045D01*
X162228873Y-85977856D01*
X162134623Y-86086626D01*
X162134622Y-86086628D01*
X162074834Y-86217543D01*
X162054353Y-86360000D01*
X157985647Y-86360000D01*
X157965165Y-86217543D01*
X157905377Y-86086627D01*
X157811128Y-85977857D01*
X157690053Y-85900047D01*
X157690051Y-85900046D01*
X157690049Y-85900045D01*
X157690050Y-85900045D01*
X157551963Y-85859500D01*
X157551961Y-85859500D01*
X157408039Y-85859500D01*
X157408036Y-85859500D01*
X157269949Y-85900045D01*
X157148873Y-85977856D01*
X157054623Y-86086626D01*
X157054622Y-86086628D01*
X156994834Y-86217543D01*
X156974353Y-86360000D01*
X154451158Y-86360000D01*
X154495806Y-86203083D01*
X154514624Y-86000000D01*
X154495806Y-85796917D01*
X154439991Y-85600750D01*
X154437149Y-85595043D01*
X154374030Y-85468282D01*
X154349082Y-85418179D01*
X154226173Y-85255421D01*
X154226171Y-85255418D01*
X154075450Y-85118019D01*
X154075448Y-85118017D01*
X153902051Y-85010655D01*
X153902044Y-85010651D01*
X153777585Y-84962436D01*
X153711865Y-84936976D01*
X153511385Y-84899500D01*
X153307433Y-84899500D01*
X153106953Y-84936976D01*
X153106950Y-84936976D01*
X153106950Y-84936977D01*
X152916773Y-85010651D01*
X152916766Y-85010655D01*
X152743369Y-85118017D01*
X152743367Y-85118019D01*
X152592646Y-85255418D01*
X152469736Y-85418178D01*
X152378831Y-85600739D01*
X152378826Y-85600752D01*
X152323011Y-85796917D01*
X152304194Y-85999999D01*
X152304194Y-86000000D01*
X152323011Y-86203082D01*
X152378826Y-86399247D01*
X152378831Y-86399260D01*
X152469736Y-86581821D01*
X152592646Y-86744581D01*
X152743367Y-86881980D01*
X152743369Y-86881982D01*
X152835601Y-86939089D01*
X152916772Y-86989348D01*
X153106953Y-87063024D01*
X153307433Y-87100500D01*
X153307435Y-87100500D01*
X153511383Y-87100500D01*
X153511385Y-87100500D01*
X153711865Y-87063024D01*
X153784637Y-87034831D01*
X153854254Y-87028969D01*
X153915995Y-87061678D01*
X153917108Y-87062777D01*
X154071181Y-87216850D01*
X154104666Y-87278173D01*
X154107500Y-87304531D01*
X154107500Y-89956059D01*
X154087815Y-90023098D01*
X154071181Y-90043740D01*
X145375924Y-98738996D01*
X145375922Y-98738999D01*
X145350085Y-98783750D01*
X145350084Y-98783749D01*
X145324248Y-98828499D01*
X145324247Y-98828504D01*
X145297500Y-98928326D01*
X145297500Y-102084573D01*
X145277815Y-102151612D01*
X145263790Y-102169018D01*
X145261718Y-102171717D01*
X145261718Y-102171718D01*
X145249009Y-102188281D01*
X145165463Y-102297160D01*
X145104956Y-102443237D01*
X145104955Y-102443239D01*
X145084318Y-102599998D01*
X144292500Y-102599998D01*
X144292500Y-97323940D01*
X144312185Y-97256901D01*
X144328819Y-97236259D01*
X148308700Y-93256378D01*
X149890078Y-91675000D01*
X150669353Y-91675000D01*
X150689834Y-91817456D01*
X150746027Y-91940499D01*
X150749623Y-91948373D01*
X150843872Y-92057143D01*
X150964947Y-92134953D01*
X150964950Y-92134954D01*
X150964949Y-92134954D01*
X151103036Y-92175499D01*
X151103038Y-92175500D01*
X151103039Y-92175500D01*
X151246962Y-92175500D01*
X151246962Y-92175499D01*
X151385053Y-92134953D01*
X151506128Y-92057143D01*
X151600377Y-91948373D01*
X151660165Y-91817457D01*
X151680647Y-91675000D01*
X151660165Y-91532543D01*
X151600377Y-91401627D01*
X151506128Y-91292857D01*
X151385053Y-91215047D01*
X151385051Y-91215046D01*
X151385049Y-91215045D01*
X151385050Y-91215045D01*
X151246963Y-91174500D01*
X151246961Y-91174500D01*
X151103039Y-91174500D01*
X151103036Y-91174500D01*
X150964949Y-91215045D01*
X150843873Y-91292856D01*
X150749623Y-91401626D01*
X150749622Y-91401628D01*
X150689834Y-91532543D01*
X150669353Y-91675000D01*
X149890078Y-91675000D01*
X152015079Y-89550000D01*
X152619353Y-89550000D01*
X152639834Y-89692456D01*
X152676912Y-89773643D01*
X152699623Y-89823373D01*
X152793872Y-89932143D01*
X152914947Y-90009953D01*
X152914950Y-90009954D01*
X152914949Y-90009954D01*
X153053036Y-90050499D01*
X153053038Y-90050500D01*
X153053039Y-90050500D01*
X153196962Y-90050500D01*
X153196962Y-90050499D01*
X153324393Y-90013083D01*
X153335050Y-90009954D01*
X153335050Y-90009953D01*
X153335053Y-90009953D01*
X153456128Y-89932143D01*
X153550377Y-89823373D01*
X153610165Y-89692457D01*
X153630647Y-89550000D01*
X153610165Y-89407543D01*
X153550377Y-89276627D01*
X153456128Y-89167857D01*
X153335053Y-89090047D01*
X153335051Y-89090046D01*
X153335049Y-89090045D01*
X153335050Y-89090045D01*
X153196963Y-89049500D01*
X153196961Y-89049500D01*
X153053039Y-89049500D01*
X153053036Y-89049500D01*
X152914949Y-89090045D01*
X152793873Y-89167856D01*
X152699623Y-89276626D01*
X152699622Y-89276628D01*
X152639834Y-89407543D01*
X152619353Y-89550000D01*
X152015079Y-89550000D01*
X152444079Y-89121000D01*
X152495752Y-89031499D01*
X152522500Y-88931673D01*
X152522500Y-88828326D01*
X152522500Y-88138621D01*
X152495752Y-88038796D01*
X152495752Y-88038795D01*
X152495752Y-88038794D01*
X152444081Y-87949298D01*
X152444076Y-87949292D01*
X152274923Y-87780139D01*
X152241438Y-87718816D01*
X152243337Y-87658527D01*
X152296102Y-87473083D01*
X152314920Y-87270000D01*
X152296102Y-87066917D01*
X152240287Y-86870750D01*
X152235183Y-86860500D01*
X152186752Y-86763237D01*
X152149378Y-86688179D01*
X152026469Y-86525421D01*
X152026467Y-86525418D01*
X151875746Y-86388019D01*
X151875744Y-86388017D01*
X151702347Y-86280655D01*
X151702340Y-86280651D01*
X151555225Y-86223659D01*
X151512161Y-86206976D01*
X151311681Y-86169500D01*
X151107729Y-86169500D01*
X150907249Y-86206976D01*
X150907246Y-86206976D01*
X150907246Y-86206977D01*
X150717069Y-86280651D01*
X150717062Y-86280655D01*
X150543665Y-86388017D01*
X150543663Y-86388019D01*
X150392942Y-86525418D01*
X150270032Y-86688178D01*
X150179127Y-86870739D01*
X150179122Y-86870752D01*
X150123307Y-87066917D01*
X150104490Y-87269999D01*
X150104490Y-87270000D01*
X150123307Y-87473082D01*
X150179122Y-87669247D01*
X150179127Y-87669260D01*
X150270032Y-87851821D01*
X150392942Y-88014581D01*
X150543663Y-88151980D01*
X150543665Y-88151982D01*
X150642846Y-88213392D01*
X150717068Y-88259348D01*
X150907249Y-88333024D01*
X151107729Y-88370500D01*
X151107731Y-88370500D01*
X151311679Y-88370500D01*
X151311681Y-88370500D01*
X151512161Y-88333024D01*
X151568706Y-88311117D01*
X151638329Y-88305255D01*
X151700069Y-88337965D01*
X151734324Y-88398861D01*
X151737500Y-88426744D01*
X151737500Y-88666059D01*
X151717815Y-88733098D01*
X151701181Y-88753740D01*
X143585923Y-96868997D01*
X143585919Y-96869002D01*
X143570936Y-96894955D01*
X143534248Y-96958499D01*
X143534248Y-96958500D01*
X143534248Y-96958501D01*
X143507500Y-97058326D01*
X143507500Y-106728327D01*
X143507500Y-106831673D01*
X143528863Y-106911402D01*
X143534249Y-106931503D01*
X143534250Y-106931505D01*
X143553388Y-106964652D01*
X143553389Y-106964653D01*
X143585922Y-107021001D01*
X143585924Y-107021003D01*
X143666064Y-107101143D01*
X143666070Y-107101148D01*
X144104654Y-107539733D01*
X144138139Y-107601056D01*
X144133155Y-107670748D01*
X144091283Y-107726681D01*
X144025819Y-107751098D01*
X143982039Y-107746391D01*
X143835963Y-107703500D01*
X143835961Y-107703500D01*
X143692039Y-107703500D01*
X143692036Y-107703500D01*
X143553949Y-107744045D01*
X143432873Y-107821856D01*
X143338623Y-107930626D01*
X143338622Y-107930628D01*
X143278834Y-108061543D01*
X143258353Y-108204000D01*
X134299082Y-108204000D01*
X134303733Y-107525000D01*
X141019353Y-107525000D01*
X141039834Y-107667456D01*
X141099069Y-107797160D01*
X141099623Y-107798373D01*
X141193872Y-107907143D01*
X141314947Y-107984953D01*
X141314950Y-107984954D01*
X141314949Y-107984954D01*
X141422107Y-108016417D01*
X141428456Y-108018282D01*
X141453036Y-108025499D01*
X141453038Y-108025500D01*
X141453039Y-108025500D01*
X141596962Y-108025500D01*
X141596962Y-108025499D01*
X141735053Y-107984953D01*
X141856128Y-107907143D01*
X141950377Y-107798373D01*
X142010165Y-107667457D01*
X142030647Y-107525000D01*
X142010165Y-107382543D01*
X141950377Y-107251627D01*
X141856128Y-107142857D01*
X141735053Y-107065047D01*
X141735051Y-107065046D01*
X141735049Y-107065045D01*
X141735050Y-107065045D01*
X141596963Y-107024500D01*
X141596961Y-107024500D01*
X141453039Y-107024500D01*
X141453036Y-107024500D01*
X141314949Y-107065045D01*
X141193873Y-107142856D01*
X141193872Y-107142856D01*
X141193872Y-107142857D01*
X141181290Y-107157377D01*
X141099623Y-107251626D01*
X141099622Y-107251628D01*
X141039834Y-107382543D01*
X141019353Y-107525000D01*
X134303733Y-107525000D01*
X134312187Y-106290618D01*
X134320206Y-106254370D01*
X134318433Y-106253850D01*
X134320929Y-106245346D01*
X134320931Y-106245342D01*
X134340390Y-106110000D01*
X134325287Y-106004955D01*
X134320932Y-105974663D01*
X134319649Y-105970295D01*
X134314625Y-105934502D01*
X134315683Y-105779998D01*
X137064318Y-105779998D01*
X137064318Y-105780001D01*
X137084955Y-105936760D01*
X137084956Y-105936762D01*
X137113202Y-106004955D01*
X137145464Y-106082841D01*
X137241718Y-106208282D01*
X137367159Y-106304536D01*
X137513238Y-106365044D01*
X137591619Y-106375363D01*
X137669999Y-106385682D01*
X137670000Y-106385682D01*
X137670001Y-106385682D01*
X137722254Y-106378802D01*
X137826762Y-106365044D01*
X137972841Y-106304536D01*
X138098282Y-106208282D01*
X138194536Y-106082841D01*
X138255044Y-105936762D01*
X138275682Y-105780000D01*
X138255044Y-105623238D01*
X138194536Y-105477159D01*
X138098282Y-105351718D01*
X137972841Y-105255464D01*
X137826762Y-105194956D01*
X137826760Y-105194955D01*
X137670001Y-105174318D01*
X137669999Y-105174318D01*
X137513239Y-105194955D01*
X137513237Y-105194956D01*
X137367160Y-105255463D01*
X137241718Y-105351718D01*
X137145463Y-105477160D01*
X137084956Y-105623237D01*
X137084955Y-105623239D01*
X137064318Y-105779998D01*
X134315683Y-105779998D01*
X134316832Y-105612342D01*
X134328035Y-105561680D01*
X134330931Y-105555342D01*
X134350390Y-105420000D01*
X134330931Y-105284658D01*
X134330644Y-105284029D01*
X134330367Y-105282739D01*
X134328433Y-105276150D01*
X134328926Y-105276004D01*
X134319439Y-105231668D01*
X134320770Y-105037513D01*
X134331973Y-104986853D01*
X134350931Y-104945341D01*
X134370390Y-104810000D01*
X134350931Y-104674658D01*
X134335053Y-104639891D01*
X134323851Y-104587536D01*
X134325612Y-104330436D01*
X134330635Y-104296348D01*
X134330928Y-104295348D01*
X134330931Y-104295342D01*
X134350390Y-104160000D01*
X134330931Y-104024658D01*
X134329669Y-104015879D01*
X134330724Y-104015727D01*
X134327905Y-103995672D01*
X134329683Y-103736101D01*
X134338992Y-103694014D01*
X134338433Y-103693850D01*
X134340845Y-103685636D01*
X134340891Y-103685429D01*
X134340931Y-103685342D01*
X134360390Y-103550000D01*
X134340931Y-103414658D01*
X134340928Y-103414652D01*
X134338433Y-103406153D01*
X134340311Y-103405601D01*
X134332206Y-103367726D01*
X134335751Y-102850300D01*
X134337010Y-102833505D01*
X134340390Y-102810000D01*
X134337547Y-102790229D01*
X134336288Y-102771749D01*
X134350000Y-100770000D01*
X134299949Y-100726456D01*
X133350000Y-99900000D01*
X128000000Y-99860000D01*
X127990264Y-104435644D01*
X127970437Y-104502641D01*
X127917535Y-104548284D01*
X127865644Y-104559378D01*
X125990000Y-104550000D01*
X125989999Y-104550000D01*
X125983575Y-104982214D01*
X125982327Y-104998017D01*
X125966227Y-105110000D01*
X125978834Y-105197688D01*
X125980082Y-105217177D01*
X125971472Y-105796394D01*
X125970224Y-105812196D01*
X125966227Y-105839998D01*
X125966227Y-105840003D01*
X125968999Y-105859287D01*
X125970247Y-105878773D01*
X125879999Y-111949998D01*
X117303454Y-111949998D01*
X117325165Y-111902457D01*
X117345647Y-111760000D01*
X117325165Y-111617543D01*
X117265377Y-111486627D01*
X117171128Y-111377857D01*
X117050053Y-111300047D01*
X117050051Y-111300046D01*
X117050049Y-111300045D01*
X117050050Y-111300045D01*
X116911963Y-111259500D01*
X116911961Y-111259500D01*
X116768039Y-111259500D01*
X116768036Y-111259500D01*
X116629949Y-111300045D01*
X116508873Y-111377856D01*
X116414623Y-111486626D01*
X116414622Y-111486628D01*
X116354834Y-111617543D01*
X116334353Y-111760000D01*
X115083132Y-111760000D01*
X115049051Y-111620878D01*
X115048062Y-111616492D01*
X114831362Y-110565195D01*
X114830535Y-110560771D01*
X114652836Y-109502219D01*
X114652162Y-109497689D01*
X114650285Y-109483262D01*
X114632949Y-109349998D01*
X116399317Y-109349998D01*
X116399317Y-109350001D01*
X116419954Y-109506760D01*
X116419955Y-109506762D01*
X116469125Y-109625470D01*
X116480463Y-109652841D01*
X116576717Y-109778282D01*
X116702158Y-109874536D01*
X116848237Y-109935044D01*
X116920336Y-109944536D01*
X117004998Y-109955682D01*
X117004999Y-109955682D01*
X117005000Y-109955682D01*
X117057253Y-109948802D01*
X117161761Y-109935044D01*
X117307840Y-109874536D01*
X117433281Y-109778282D01*
X117529535Y-109652841D01*
X117590043Y-109506762D01*
X117610681Y-109350000D01*
X117590043Y-109193238D01*
X117529535Y-109047159D01*
X117433281Y-108921718D01*
X117307840Y-108825464D01*
X117161761Y-108764956D01*
X117161759Y-108764955D01*
X117005000Y-108744318D01*
X117004998Y-108744318D01*
X116848238Y-108764955D01*
X116848236Y-108764956D01*
X116702159Y-108825463D01*
X116576717Y-108921718D01*
X116480462Y-109047160D01*
X116419955Y-109193237D01*
X116419954Y-109193239D01*
X116399317Y-109349998D01*
X114632949Y-109349998D01*
X114513704Y-108433330D01*
X114513198Y-108428784D01*
X114497258Y-108256762D01*
X114414161Y-107360019D01*
X114413825Y-107355468D01*
X114376339Y-106680000D01*
X121414353Y-106680000D01*
X121434834Y-106822456D01*
X121472262Y-106904410D01*
X121494623Y-106953373D01*
X121588872Y-107062143D01*
X121709947Y-107139953D01*
X121709950Y-107139954D01*
X121709949Y-107139954D01*
X121817107Y-107171417D01*
X121829457Y-107175044D01*
X121848036Y-107180499D01*
X121848038Y-107180500D01*
X121848039Y-107180500D01*
X121991962Y-107180500D01*
X121991962Y-107180499D01*
X122130053Y-107139953D01*
X122251128Y-107062143D01*
X122345377Y-106953373D01*
X122405165Y-106822457D01*
X122425647Y-106680000D01*
X122405165Y-106537543D01*
X122345377Y-106406627D01*
X122251128Y-106297857D01*
X122130053Y-106220047D01*
X122130051Y-106220046D01*
X122130049Y-106220045D01*
X122130050Y-106220045D01*
X121991963Y-106179500D01*
X121991961Y-106179500D01*
X121848039Y-106179500D01*
X121848036Y-106179500D01*
X121709949Y-106220045D01*
X121588873Y-106297856D01*
X121494623Y-106406626D01*
X121494622Y-106406628D01*
X121434834Y-106537543D01*
X121414353Y-106680000D01*
X114376339Y-106680000D01*
X114354350Y-106283778D01*
X114354183Y-106279300D01*
X114334349Y-105206080D01*
X114334349Y-105201517D01*
X114334420Y-105197688D01*
X114353967Y-104140000D01*
X123954353Y-104140000D01*
X123974834Y-104282456D01*
X124017329Y-104375505D01*
X124034623Y-104413373D01*
X124128872Y-104522143D01*
X124249947Y-104599953D01*
X124249950Y-104599954D01*
X124249949Y-104599954D01*
X124388036Y-104640499D01*
X124388038Y-104640500D01*
X124388039Y-104640500D01*
X124531962Y-104640500D01*
X124531962Y-104640499D01*
X124670053Y-104599953D01*
X124791128Y-104522143D01*
X124885377Y-104413373D01*
X124945165Y-104282457D01*
X124965647Y-104140000D01*
X124945165Y-103997543D01*
X124885377Y-103866627D01*
X124791128Y-103757857D01*
X124670053Y-103680047D01*
X124670051Y-103680046D01*
X124670049Y-103680045D01*
X124670050Y-103680045D01*
X124531963Y-103639500D01*
X124531961Y-103639500D01*
X124388039Y-103639500D01*
X124388036Y-103639500D01*
X124249949Y-103680045D01*
X124128873Y-103757856D01*
X124034623Y-103866626D01*
X124034622Y-103866628D01*
X123974834Y-103997543D01*
X123954353Y-104140000D01*
X114353967Y-104140000D01*
X114354183Y-104128313D01*
X114354350Y-104123839D01*
X114413826Y-103052124D01*
X114414163Y-103047577D01*
X114415059Y-103037917D01*
X114513199Y-101978816D01*
X114513705Y-101974276D01*
X114518199Y-101939735D01*
X114633940Y-101049998D01*
X115769318Y-101049998D01*
X115769318Y-101050001D01*
X115789955Y-101206760D01*
X115789956Y-101206762D01*
X115845058Y-101339791D01*
X115850464Y-101352841D01*
X115946718Y-101478282D01*
X116072159Y-101574536D01*
X116218238Y-101635044D01*
X116296619Y-101645363D01*
X116374999Y-101655682D01*
X116375000Y-101655682D01*
X116375001Y-101655682D01*
X116427254Y-101648802D01*
X116531762Y-101635044D01*
X116616366Y-101600000D01*
X121414353Y-101600000D01*
X121434834Y-101742456D01*
X121468951Y-101817160D01*
X121494623Y-101873373D01*
X121588872Y-101982143D01*
X121709947Y-102059953D01*
X121709950Y-102059954D01*
X121709949Y-102059954D01*
X121848036Y-102100499D01*
X121848038Y-102100500D01*
X121848039Y-102100500D01*
X121991962Y-102100500D01*
X121991962Y-102100499D01*
X122099121Y-102069035D01*
X122130050Y-102059954D01*
X122130050Y-102059953D01*
X122130053Y-102059953D01*
X122251128Y-101982143D01*
X122345377Y-101873373D01*
X122405165Y-101742457D01*
X122425647Y-101600000D01*
X126494353Y-101600000D01*
X126514834Y-101742456D01*
X126548951Y-101817160D01*
X126574623Y-101873373D01*
X126668872Y-101982143D01*
X126789947Y-102059953D01*
X126789950Y-102059954D01*
X126789949Y-102059954D01*
X126928036Y-102100499D01*
X126928038Y-102100500D01*
X126928039Y-102100500D01*
X127071962Y-102100500D01*
X127071962Y-102100499D01*
X127179121Y-102069035D01*
X127210050Y-102059954D01*
X127210050Y-102059953D01*
X127210053Y-102059953D01*
X127331128Y-101982143D01*
X127425377Y-101873373D01*
X127485165Y-101742457D01*
X127505647Y-101600000D01*
X127485165Y-101457543D01*
X127425377Y-101326627D01*
X127331128Y-101217857D01*
X127210053Y-101140047D01*
X127210051Y-101140046D01*
X127210049Y-101140045D01*
X127210050Y-101140045D01*
X127071963Y-101099500D01*
X127071961Y-101099500D01*
X126928039Y-101099500D01*
X126928036Y-101099500D01*
X126789949Y-101140045D01*
X126668873Y-101217856D01*
X126574623Y-101326626D01*
X126574622Y-101326628D01*
X126514834Y-101457543D01*
X126494353Y-101600000D01*
X122425647Y-101600000D01*
X122405165Y-101457543D01*
X122345377Y-101326627D01*
X122251128Y-101217857D01*
X122130053Y-101140047D01*
X122130051Y-101140046D01*
X122130049Y-101140045D01*
X122130050Y-101140045D01*
X121991963Y-101099500D01*
X121991961Y-101099500D01*
X121848039Y-101099500D01*
X121848036Y-101099500D01*
X121709949Y-101140045D01*
X121588873Y-101217856D01*
X121494623Y-101326626D01*
X121494622Y-101326628D01*
X121434834Y-101457543D01*
X121414353Y-101600000D01*
X116616366Y-101600000D01*
X116677841Y-101574536D01*
X116803282Y-101478282D01*
X116899536Y-101352841D01*
X116960044Y-101206762D01*
X116980682Y-101050000D01*
X116960044Y-100893238D01*
X116899536Y-100747159D01*
X116803282Y-100621718D01*
X116677841Y-100525464D01*
X116531762Y-100464956D01*
X116531760Y-100464955D01*
X116375001Y-100444318D01*
X116374999Y-100444318D01*
X116218239Y-100464955D01*
X116218237Y-100464956D01*
X116072160Y-100525463D01*
X115946718Y-100621718D01*
X115850463Y-100747160D01*
X115789956Y-100893237D01*
X115789955Y-100893239D01*
X115769318Y-101049998D01*
X114633940Y-101049998D01*
X114652163Y-100909916D01*
X114652837Y-100905393D01*
X114830537Y-99846834D01*
X114831360Y-99842430D01*
X114887927Y-99568000D01*
X123954353Y-99568000D01*
X123974834Y-99710456D01*
X124034622Y-99841371D01*
X124034623Y-99841373D01*
X124128872Y-99950143D01*
X124249947Y-100027953D01*
X124249950Y-100027954D01*
X124249949Y-100027954D01*
X124388036Y-100068499D01*
X124388038Y-100068500D01*
X124388039Y-100068500D01*
X124531962Y-100068500D01*
X124531962Y-100068499D01*
X124670053Y-100027953D01*
X124791128Y-99950143D01*
X124885377Y-99841373D01*
X124945165Y-99710457D01*
X124965647Y-99568000D01*
X124964496Y-99559998D01*
X134954318Y-99559998D01*
X134954318Y-99560001D01*
X134974955Y-99716760D01*
X134974956Y-99716762D01*
X135012393Y-99807144D01*
X135035464Y-99862841D01*
X135131718Y-99988282D01*
X135257159Y-100084536D01*
X135403238Y-100145044D01*
X135481619Y-100155363D01*
X135559999Y-100165682D01*
X135560000Y-100165682D01*
X135560001Y-100165682D01*
X135612254Y-100158802D01*
X135716762Y-100145044D01*
X135862841Y-100084536D01*
X135988282Y-99988282D01*
X136084536Y-99862841D01*
X136145044Y-99716762D01*
X136164700Y-99567457D01*
X136165682Y-99560001D01*
X136165682Y-99559998D01*
X136164365Y-99549998D01*
X136484318Y-99549998D01*
X136484318Y-99550001D01*
X136504955Y-99706760D01*
X136504956Y-99706762D01*
X136562996Y-99846884D01*
X136565464Y-99852841D01*
X136661718Y-99978282D01*
X136787159Y-100074536D01*
X136933238Y-100135044D01*
X137009188Y-100145043D01*
X137089999Y-100155682D01*
X137090000Y-100155682D01*
X137090001Y-100155682D01*
X137170804Y-100145044D01*
X137246762Y-100135044D01*
X137392841Y-100074536D01*
X137518282Y-99978282D01*
X137614536Y-99852841D01*
X137675044Y-99706762D01*
X137694365Y-99560001D01*
X137695682Y-99550001D01*
X137695682Y-99549998D01*
X137679297Y-99425543D01*
X137675044Y-99393238D01*
X137614536Y-99247159D01*
X137518282Y-99121718D01*
X137392841Y-99025464D01*
X137246762Y-98964956D01*
X137246760Y-98964955D01*
X137090001Y-98944318D01*
X137089999Y-98944318D01*
X136933239Y-98964955D01*
X136933237Y-98964956D01*
X136787160Y-99025463D01*
X136661718Y-99121718D01*
X136565463Y-99247160D01*
X136504956Y-99393237D01*
X136504955Y-99393239D01*
X136484318Y-99549998D01*
X136164365Y-99549998D01*
X136145044Y-99403239D01*
X136145044Y-99403238D01*
X136084536Y-99257159D01*
X135988282Y-99131718D01*
X135862841Y-99035464D01*
X135838696Y-99025463D01*
X135716762Y-98974956D01*
X135716760Y-98974955D01*
X135560001Y-98954318D01*
X135559999Y-98954318D01*
X135403239Y-98974955D01*
X135403237Y-98974956D01*
X135257160Y-99035463D01*
X135131718Y-99131718D01*
X135035463Y-99257160D01*
X134974956Y-99403237D01*
X134974955Y-99403239D01*
X134954318Y-99559998D01*
X124964496Y-99559998D01*
X124945165Y-99425543D01*
X124885377Y-99294627D01*
X124791128Y-99185857D01*
X124670053Y-99108047D01*
X124670051Y-99108046D01*
X124670049Y-99108045D01*
X124670050Y-99108045D01*
X124531963Y-99067500D01*
X124531961Y-99067500D01*
X124388039Y-99067500D01*
X124388036Y-99067500D01*
X124249949Y-99108045D01*
X124128873Y-99185856D01*
X124034623Y-99294626D01*
X124034622Y-99294628D01*
X123974834Y-99425543D01*
X123954353Y-99568000D01*
X114887927Y-99568000D01*
X115048065Y-98791112D01*
X115049048Y-98786749D01*
X115304454Y-97744155D01*
X115305610Y-97739788D01*
X115599354Y-96707384D01*
X115600656Y-96703106D01*
X115660151Y-96520000D01*
X116334353Y-96520000D01*
X116354834Y-96662456D01*
X116390454Y-96740451D01*
X116414623Y-96793373D01*
X116508872Y-96902143D01*
X116629947Y-96979953D01*
X116629950Y-96979954D01*
X116629949Y-96979954D01*
X116768036Y-97020499D01*
X116768038Y-97020500D01*
X116768039Y-97020500D01*
X116911962Y-97020500D01*
X116911962Y-97020499D01*
X117050053Y-96979953D01*
X117171128Y-96902143D01*
X117265377Y-96793373D01*
X117325165Y-96662457D01*
X117345647Y-96520000D01*
X121414353Y-96520000D01*
X121434834Y-96662456D01*
X121470454Y-96740451D01*
X121494623Y-96793373D01*
X121588872Y-96902143D01*
X121709947Y-96979953D01*
X121709950Y-96979954D01*
X121709949Y-96979954D01*
X121848036Y-97020499D01*
X121848038Y-97020500D01*
X121848039Y-97020500D01*
X121991962Y-97020500D01*
X121991962Y-97020499D01*
X122130053Y-96979953D01*
X122251128Y-96902143D01*
X122345377Y-96793373D01*
X122405165Y-96662457D01*
X122425647Y-96520000D01*
X131574353Y-96520000D01*
X131594834Y-96662456D01*
X131630454Y-96740451D01*
X131654623Y-96793373D01*
X131748872Y-96902143D01*
X131869947Y-96979953D01*
X131869950Y-96979954D01*
X131869949Y-96979954D01*
X132008036Y-97020499D01*
X132008038Y-97020500D01*
X132008039Y-97020500D01*
X132151962Y-97020500D01*
X132151962Y-97020499D01*
X132290053Y-96979953D01*
X132411128Y-96902143D01*
X132505377Y-96793373D01*
X132565165Y-96662457D01*
X132585647Y-96520000D01*
X136654353Y-96520000D01*
X136674834Y-96662456D01*
X136710454Y-96740451D01*
X136734623Y-96793373D01*
X136828872Y-96902143D01*
X136949947Y-96979953D01*
X136949950Y-96979954D01*
X136949949Y-96979954D01*
X137088036Y-97020499D01*
X137088038Y-97020500D01*
X137088039Y-97020500D01*
X137231962Y-97020500D01*
X137231962Y-97020499D01*
X137370053Y-96979953D01*
X137491128Y-96902143D01*
X137585377Y-96793373D01*
X137645165Y-96662457D01*
X137665647Y-96520000D01*
X137645165Y-96377543D01*
X137585377Y-96246627D01*
X137491128Y-96137857D01*
X137370053Y-96060047D01*
X137370051Y-96060046D01*
X137370049Y-96060045D01*
X137370050Y-96060045D01*
X137231963Y-96019500D01*
X137231961Y-96019500D01*
X137088039Y-96019500D01*
X137088036Y-96019500D01*
X136949949Y-96060045D01*
X136828873Y-96137856D01*
X136734623Y-96246626D01*
X136734622Y-96246628D01*
X136674834Y-96377543D01*
X136654353Y-96520000D01*
X132585647Y-96520000D01*
X132565165Y-96377543D01*
X132505377Y-96246627D01*
X132411128Y-96137857D01*
X132290053Y-96060047D01*
X132290051Y-96060046D01*
X132290049Y-96060045D01*
X132290050Y-96060045D01*
X132151963Y-96019500D01*
X132151961Y-96019500D01*
X132008039Y-96019500D01*
X132008036Y-96019500D01*
X131869949Y-96060045D01*
X131748873Y-96137856D01*
X131654623Y-96246626D01*
X131654622Y-96246628D01*
X131594834Y-96377543D01*
X131574353Y-96520000D01*
X122425647Y-96520000D01*
X122405165Y-96377543D01*
X122345377Y-96246627D01*
X122251128Y-96137857D01*
X122130053Y-96060047D01*
X122130051Y-96060046D01*
X122130049Y-96060045D01*
X122130050Y-96060045D01*
X121991963Y-96019500D01*
X121991961Y-96019500D01*
X121848039Y-96019500D01*
X121848036Y-96019500D01*
X121709949Y-96060045D01*
X121588873Y-96137856D01*
X121494623Y-96246626D01*
X121494622Y-96246628D01*
X121434834Y-96377543D01*
X121414353Y-96520000D01*
X117345647Y-96520000D01*
X117325165Y-96377543D01*
X117265377Y-96246627D01*
X117171128Y-96137857D01*
X117050053Y-96060047D01*
X117050051Y-96060046D01*
X117050049Y-96060045D01*
X117050050Y-96060045D01*
X116911963Y-96019500D01*
X116911961Y-96019500D01*
X116768039Y-96019500D01*
X116768036Y-96019500D01*
X116629949Y-96060045D01*
X116508873Y-96137856D01*
X116414623Y-96246626D01*
X116414622Y-96246628D01*
X116354834Y-96377543D01*
X116334353Y-96520000D01*
X115660151Y-96520000D01*
X115888274Y-95817913D01*
X124848137Y-95817913D01*
X124868618Y-95960369D01*
X124914140Y-96060047D01*
X124928407Y-96091286D01*
X125022656Y-96200056D01*
X125143731Y-96277866D01*
X125143734Y-96277867D01*
X125143733Y-96277867D01*
X125281820Y-96318412D01*
X125281822Y-96318413D01*
X125281823Y-96318413D01*
X125425746Y-96318413D01*
X125425746Y-96318412D01*
X125563837Y-96277866D01*
X125684912Y-96200056D01*
X125779161Y-96091286D01*
X125838949Y-95960370D01*
X125859431Y-95817913D01*
X125838949Y-95675456D01*
X125779161Y-95544540D01*
X125684912Y-95435770D01*
X125563837Y-95357960D01*
X125563835Y-95357959D01*
X125563833Y-95357958D01*
X125563834Y-95357958D01*
X125425747Y-95317413D01*
X125425745Y-95317413D01*
X125281823Y-95317413D01*
X125281820Y-95317413D01*
X125143733Y-95357958D01*
X125022657Y-95435769D01*
X124928407Y-95544539D01*
X124928406Y-95544541D01*
X124868618Y-95675456D01*
X124848137Y-95817913D01*
X115888274Y-95817913D01*
X115932364Y-95682218D01*
X115933822Y-95677996D01*
X116303028Y-94670052D01*
X116304662Y-94665836D01*
X116595217Y-93955107D01*
X121996256Y-93955107D01*
X121996256Y-93955110D01*
X122016893Y-94111869D01*
X122016894Y-94111871D01*
X122062870Y-94222868D01*
X122077402Y-94257950D01*
X122173656Y-94383391D01*
X122299097Y-94479645D01*
X122445176Y-94540153D01*
X122523557Y-94550472D01*
X122601937Y-94560791D01*
X122601938Y-94560791D01*
X122601939Y-94560791D01*
X122663190Y-94552727D01*
X122758700Y-94540153D01*
X122904779Y-94479645D01*
X123030220Y-94383391D01*
X123126474Y-94257950D01*
X123141007Y-94222865D01*
X127022345Y-94222865D01*
X127022345Y-94222868D01*
X127042982Y-94379627D01*
X127042983Y-94379629D01*
X127103491Y-94525708D01*
X127199745Y-94651149D01*
X127325186Y-94747403D01*
X127471265Y-94807911D01*
X127549646Y-94818230D01*
X127628026Y-94828549D01*
X127628027Y-94828549D01*
X127628028Y-94828549D01*
X127680281Y-94821669D01*
X127784789Y-94807911D01*
X127930868Y-94747403D01*
X128056309Y-94651149D01*
X128152563Y-94525708D01*
X128213071Y-94379629D01*
X128233709Y-94222867D01*
X128213071Y-94066105D01*
X128177405Y-93980000D01*
X129034353Y-93980000D01*
X129054834Y-94122456D01*
X129114622Y-94253371D01*
X129114623Y-94253373D01*
X129208872Y-94362143D01*
X129329947Y-94439953D01*
X129329950Y-94439954D01*
X129329949Y-94439954D01*
X129468036Y-94480499D01*
X129468038Y-94480500D01*
X129468039Y-94480500D01*
X129611962Y-94480500D01*
X129611962Y-94480499D01*
X129750053Y-94439953D01*
X129871128Y-94362143D01*
X129965377Y-94253373D01*
X130025165Y-94122457D01*
X130045647Y-93980000D01*
X134114353Y-93980000D01*
X134134834Y-94122456D01*
X134194622Y-94253371D01*
X134194623Y-94253373D01*
X134288872Y-94362143D01*
X134409947Y-94439953D01*
X134409950Y-94439954D01*
X134409949Y-94439954D01*
X134548036Y-94480499D01*
X134548038Y-94480500D01*
X134548039Y-94480500D01*
X134691962Y-94480500D01*
X134691962Y-94480499D01*
X134830053Y-94439953D01*
X134951128Y-94362143D01*
X135045377Y-94253373D01*
X135105165Y-94122457D01*
X135125647Y-93980000D01*
X135105165Y-93837543D01*
X135045377Y-93706627D01*
X134951128Y-93597857D01*
X134830053Y-93520047D01*
X134830051Y-93520046D01*
X134830049Y-93520045D01*
X134830050Y-93520045D01*
X134691963Y-93479500D01*
X134691961Y-93479500D01*
X134548039Y-93479500D01*
X134548036Y-93479500D01*
X134409949Y-93520045D01*
X134288873Y-93597856D01*
X134288872Y-93597856D01*
X134288872Y-93597857D01*
X134276290Y-93612377D01*
X134194623Y-93706626D01*
X134194622Y-93706628D01*
X134134834Y-93837543D01*
X134114353Y-93980000D01*
X130045647Y-93980000D01*
X130025165Y-93837543D01*
X129965377Y-93706627D01*
X129871128Y-93597857D01*
X129750053Y-93520047D01*
X129750051Y-93520046D01*
X129750049Y-93520045D01*
X129750050Y-93520045D01*
X129611963Y-93479500D01*
X129611961Y-93479500D01*
X129468039Y-93479500D01*
X129468036Y-93479500D01*
X129329949Y-93520045D01*
X129208873Y-93597856D01*
X129208872Y-93597856D01*
X129208872Y-93597857D01*
X129196290Y-93612377D01*
X129114623Y-93706626D01*
X129114622Y-93706628D01*
X129054834Y-93837543D01*
X129034353Y-93980000D01*
X128177405Y-93980000D01*
X128152563Y-93920026D01*
X128056309Y-93794585D01*
X127930868Y-93698331D01*
X127784789Y-93637823D01*
X127784787Y-93637822D01*
X127628028Y-93617185D01*
X127628026Y-93617185D01*
X127471266Y-93637822D01*
X127471264Y-93637823D01*
X127325187Y-93698330D01*
X127199745Y-93794585D01*
X127103490Y-93920027D01*
X127042983Y-94066104D01*
X127042982Y-94066106D01*
X127022345Y-94222865D01*
X123141007Y-94222865D01*
X123186982Y-94111871D01*
X123207620Y-93955109D01*
X123206989Y-93950318D01*
X123186982Y-93798348D01*
X123186982Y-93798347D01*
X123126474Y-93652268D01*
X123030220Y-93526827D01*
X122904779Y-93430573D01*
X122758700Y-93370065D01*
X122758698Y-93370064D01*
X122601939Y-93349427D01*
X122601937Y-93349427D01*
X122445177Y-93370064D01*
X122445175Y-93370065D01*
X122299098Y-93430572D01*
X122173656Y-93526827D01*
X122077401Y-93652269D01*
X122016894Y-93798346D01*
X122016893Y-93798348D01*
X121996256Y-93955107D01*
X116595217Y-93955107D01*
X116710827Y-93672312D01*
X116712634Y-93668116D01*
X116719808Y-93652268D01*
X117155230Y-92690281D01*
X117157192Y-92686153D01*
X117195370Y-92609481D01*
X117635633Y-91725313D01*
X117637696Y-91721356D01*
X117791022Y-91440000D01*
X131574353Y-91440000D01*
X131594834Y-91582456D01*
X131637098Y-91675000D01*
X131654623Y-91713373D01*
X131748872Y-91822143D01*
X131869947Y-91899953D01*
X131869950Y-91899954D01*
X131869949Y-91899954D01*
X132008036Y-91940499D01*
X132008038Y-91940500D01*
X132008039Y-91940500D01*
X132151962Y-91940500D01*
X132151962Y-91940499D01*
X132290053Y-91899953D01*
X132411128Y-91822143D01*
X132505377Y-91713373D01*
X132565165Y-91582457D01*
X132585647Y-91440000D01*
X132565165Y-91297543D01*
X132505377Y-91166627D01*
X132411128Y-91057857D01*
X132290053Y-90980047D01*
X132290051Y-90980046D01*
X132290049Y-90980045D01*
X132290050Y-90980045D01*
X132151963Y-90939500D01*
X132151961Y-90939500D01*
X132008039Y-90939500D01*
X132008036Y-90939500D01*
X131869949Y-90980045D01*
X131748873Y-91057856D01*
X131654623Y-91166626D01*
X131654622Y-91166628D01*
X131594834Y-91297543D01*
X131574353Y-91440000D01*
X117791022Y-91440000D01*
X118151331Y-90778824D01*
X118153596Y-90774846D01*
X118179929Y-90730507D01*
X118701679Y-89851983D01*
X118704025Y-89848192D01*
X119285890Y-88946128D01*
X119288405Y-88942382D01*
X119318016Y-88900000D01*
X123954353Y-88900000D01*
X123974834Y-89042456D01*
X124032103Y-89167856D01*
X124034623Y-89173373D01*
X124128872Y-89282143D01*
X124249947Y-89359953D01*
X124249950Y-89359954D01*
X124249949Y-89359954D01*
X124388036Y-89400499D01*
X124388038Y-89400500D01*
X124388039Y-89400500D01*
X124531962Y-89400500D01*
X124531962Y-89400499D01*
X124670053Y-89359953D01*
X124791128Y-89282143D01*
X124885377Y-89173373D01*
X124945165Y-89042457D01*
X124965647Y-88900000D01*
X129034353Y-88900000D01*
X129054834Y-89042456D01*
X129112103Y-89167856D01*
X129114623Y-89173373D01*
X129208872Y-89282143D01*
X129329947Y-89359953D01*
X129329950Y-89359954D01*
X129329949Y-89359954D01*
X129468036Y-89400499D01*
X129468038Y-89400500D01*
X129468039Y-89400500D01*
X129611962Y-89400500D01*
X129611962Y-89400499D01*
X129750053Y-89359953D01*
X129871128Y-89282143D01*
X129965377Y-89173373D01*
X130025165Y-89042457D01*
X130044210Y-88909998D01*
X134004318Y-88909998D01*
X134004318Y-88910001D01*
X134024955Y-89066760D01*
X134024956Y-89066762D01*
X134066830Y-89167856D01*
X134085464Y-89212841D01*
X134181718Y-89338282D01*
X134181720Y-89338283D01*
X134186666Y-89344729D01*
X134185488Y-89345632D01*
X134214666Y-89399068D01*
X134217500Y-89425426D01*
X134217500Y-90471672D01*
X134244248Y-90571501D01*
X134270085Y-90616250D01*
X134295922Y-90661001D01*
X134295924Y-90661003D01*
X134376064Y-90741143D01*
X134376070Y-90741148D01*
X139151181Y-95516259D01*
X139184666Y-95577582D01*
X139187500Y-95603940D01*
X139187500Y-99577544D01*
X139167815Y-99644583D01*
X139115011Y-99690338D01*
X139045853Y-99700282D01*
X138996461Y-99681860D01*
X138894050Y-99616045D01*
X138755963Y-99575500D01*
X138755961Y-99575500D01*
X138612039Y-99575500D01*
X138612036Y-99575500D01*
X138473949Y-99616045D01*
X138352873Y-99693856D01*
X138258623Y-99802626D01*
X138258622Y-99802628D01*
X138198834Y-99933543D01*
X138178353Y-100076000D01*
X138198834Y-100218456D01*
X138258622Y-100349371D01*
X138258623Y-100349373D01*
X138352872Y-100458143D01*
X138473947Y-100535953D01*
X138473950Y-100535954D01*
X138473949Y-100535954D01*
X138612036Y-100576499D01*
X138612038Y-100576500D01*
X138612039Y-100576500D01*
X138755961Y-100576500D01*
X138850593Y-100548714D01*
X138920460Y-100548714D01*
X138979239Y-100586488D01*
X139008264Y-100650044D01*
X139008465Y-100651505D01*
X139024956Y-100776760D01*
X139024956Y-100776762D01*
X139079172Y-100907652D01*
X139085464Y-100922841D01*
X139181718Y-101048282D01*
X139307159Y-101144536D01*
X139453238Y-101205044D01*
X139466288Y-101206762D01*
X139609999Y-101225682D01*
X139610000Y-101225682D01*
X139610001Y-101225682D01*
X139669445Y-101217856D01*
X139766762Y-101205044D01*
X139912841Y-101144536D01*
X140038282Y-101048282D01*
X140134536Y-100922841D01*
X140195044Y-100776762D01*
X140215682Y-100620000D01*
X140195044Y-100463238D01*
X140134536Y-100317159D01*
X140038282Y-100191718D01*
X140032500Y-100187281D01*
X140021013Y-100178466D01*
X139979810Y-100122038D01*
X139972500Y-100080091D01*
X139972500Y-95338328D01*
X139972500Y-95338326D01*
X139945752Y-95238501D01*
X139894078Y-95148999D01*
X139821001Y-95075922D01*
X139821000Y-95075921D01*
X139401815Y-94656736D01*
X139368330Y-94595413D01*
X139373314Y-94525721D01*
X139415186Y-94469788D01*
X139480650Y-94445371D01*
X139524429Y-94450077D01*
X139576678Y-94465419D01*
X139628038Y-94480500D01*
X139628039Y-94480500D01*
X139771962Y-94480500D01*
X139771962Y-94480499D01*
X139910053Y-94439953D01*
X140031128Y-94362143D01*
X140125377Y-94253373D01*
X140185165Y-94122457D01*
X140205647Y-93980000D01*
X144274353Y-93980000D01*
X144294834Y-94122456D01*
X144354622Y-94253371D01*
X144354623Y-94253373D01*
X144448872Y-94362143D01*
X144569947Y-94439953D01*
X144569950Y-94439954D01*
X144569949Y-94439954D01*
X144708036Y-94480499D01*
X144708038Y-94480500D01*
X144708039Y-94480500D01*
X144851962Y-94480500D01*
X144851962Y-94480499D01*
X144990053Y-94439953D01*
X145111128Y-94362143D01*
X145205377Y-94253373D01*
X145265165Y-94122457D01*
X145285647Y-93980000D01*
X145265165Y-93837543D01*
X145205377Y-93706627D01*
X145111128Y-93597857D01*
X144990053Y-93520047D01*
X144990051Y-93520046D01*
X144990049Y-93520045D01*
X144990050Y-93520045D01*
X144851963Y-93479500D01*
X144851961Y-93479500D01*
X144708039Y-93479500D01*
X144708036Y-93479500D01*
X144569949Y-93520045D01*
X144448873Y-93597856D01*
X144448872Y-93597856D01*
X144448872Y-93597857D01*
X144436290Y-93612377D01*
X144354623Y-93706626D01*
X144354622Y-93706628D01*
X144294834Y-93837543D01*
X144274353Y-93980000D01*
X140205647Y-93980000D01*
X140185165Y-93837543D01*
X140125377Y-93706627D01*
X140031128Y-93597857D01*
X139910053Y-93520047D01*
X139910051Y-93520046D01*
X139910049Y-93520045D01*
X139910050Y-93520045D01*
X139771963Y-93479500D01*
X139771961Y-93479500D01*
X139628039Y-93479500D01*
X139628036Y-93479500D01*
X139489949Y-93520045D01*
X139368873Y-93597856D01*
X139368872Y-93597856D01*
X139368872Y-93597857D01*
X139356290Y-93612377D01*
X139274623Y-93706626D01*
X139274622Y-93706628D01*
X139214834Y-93837543D01*
X139194353Y-93980000D01*
X139214834Y-94122455D01*
X139221250Y-94136503D01*
X139231193Y-94205662D01*
X139202167Y-94269217D01*
X139143389Y-94306991D01*
X139073519Y-94306991D01*
X139020774Y-94275695D01*
X136185079Y-91440000D01*
X137162353Y-91440000D01*
X137182834Y-91582456D01*
X137225098Y-91675000D01*
X137242623Y-91713373D01*
X137336872Y-91822143D01*
X137457947Y-91899953D01*
X137457950Y-91899954D01*
X137457949Y-91899954D01*
X137596036Y-91940499D01*
X137596038Y-91940500D01*
X137596039Y-91940500D01*
X137739962Y-91940500D01*
X137739962Y-91940499D01*
X137878053Y-91899953D01*
X137999128Y-91822143D01*
X138093377Y-91713373D01*
X138153165Y-91582457D01*
X138173647Y-91440000D01*
X138153165Y-91297543D01*
X138093377Y-91166627D01*
X137999128Y-91057857D01*
X137878053Y-90980047D01*
X137878051Y-90980046D01*
X137878049Y-90980045D01*
X137878050Y-90980045D01*
X137739963Y-90939500D01*
X137739961Y-90939500D01*
X137596039Y-90939500D01*
X137596036Y-90939500D01*
X137457949Y-90980045D01*
X137336873Y-91057856D01*
X137242623Y-91166626D01*
X137242622Y-91166628D01*
X137182834Y-91297543D01*
X137162353Y-91440000D01*
X136185079Y-91440000D01*
X135038819Y-90293740D01*
X135005334Y-90232417D01*
X135002500Y-90206059D01*
X135002500Y-89773643D01*
X135022185Y-89706604D01*
X135074989Y-89660849D01*
X135144147Y-89650905D01*
X135207703Y-89679930D01*
X135220209Y-89692436D01*
X135304872Y-89790143D01*
X135425947Y-89867953D01*
X135425950Y-89867954D01*
X135425949Y-89867954D01*
X135564036Y-89908499D01*
X135564038Y-89908500D01*
X135564039Y-89908500D01*
X135707962Y-89908500D01*
X135707962Y-89908499D01*
X135846053Y-89867953D01*
X135936231Y-89809999D01*
X145705081Y-89809999D01*
X145705081Y-89810000D01*
X145723898Y-90013082D01*
X145779713Y-90209247D01*
X145779718Y-90209260D01*
X145870623Y-90391821D01*
X145993533Y-90554581D01*
X146144254Y-90691980D01*
X146144256Y-90691982D01*
X146243437Y-90753392D01*
X146317659Y-90799348D01*
X146507840Y-90873024D01*
X146708320Y-90910500D01*
X146708322Y-90910500D01*
X146845036Y-90910500D01*
X146912075Y-90930185D01*
X146957830Y-90982989D01*
X146967774Y-91052147D01*
X146938749Y-91115703D01*
X146894623Y-91166626D01*
X146894622Y-91166628D01*
X146834834Y-91297543D01*
X146814353Y-91440000D01*
X146834834Y-91582456D01*
X146877098Y-91675000D01*
X146894623Y-91713373D01*
X146988872Y-91822143D01*
X147109947Y-91899953D01*
X147109950Y-91899954D01*
X147109949Y-91899954D01*
X147248036Y-91940499D01*
X147248038Y-91940500D01*
X147248039Y-91940500D01*
X147391962Y-91940500D01*
X147391962Y-91940499D01*
X147530053Y-91899953D01*
X147651128Y-91822143D01*
X147745377Y-91713373D01*
X147805165Y-91582457D01*
X147825647Y-91440000D01*
X147805165Y-91297543D01*
X147745377Y-91166627D01*
X147651128Y-91057857D01*
X147530053Y-90980047D01*
X147530050Y-90980045D01*
X147444454Y-90954912D01*
X147385676Y-90917137D01*
X147356651Y-90853582D01*
X147366595Y-90784423D01*
X147412350Y-90731619D01*
X147413992Y-90730582D01*
X147476337Y-90691981D01*
X147559410Y-90616250D01*
X147627058Y-90554581D01*
X147627060Y-90554579D01*
X147749969Y-90391821D01*
X147840878Y-90209250D01*
X147896693Y-90013083D01*
X147915511Y-89810000D01*
X147896693Y-89606917D01*
X147840878Y-89410750D01*
X147839281Y-89407543D01*
X147796568Y-89321764D01*
X147749969Y-89228179D01*
X147627060Y-89065421D01*
X147627058Y-89065418D01*
X147476337Y-88928019D01*
X147476335Y-88928017D01*
X147302938Y-88820655D01*
X147302931Y-88820651D01*
X147207842Y-88783814D01*
X147112752Y-88746976D01*
X146912272Y-88709500D01*
X146708320Y-88709500D01*
X146507840Y-88746976D01*
X146507837Y-88746976D01*
X146507837Y-88746977D01*
X146317660Y-88820651D01*
X146317653Y-88820655D01*
X146144256Y-88928017D01*
X146144254Y-88928019D01*
X145993533Y-89065418D01*
X145870623Y-89228178D01*
X145779718Y-89410739D01*
X145779713Y-89410752D01*
X145723898Y-89606917D01*
X145705081Y-89809999D01*
X135936231Y-89809999D01*
X135967128Y-89790143D01*
X136061377Y-89681373D01*
X136121165Y-89550457D01*
X136141647Y-89408000D01*
X136121165Y-89265543D01*
X136061377Y-89134627D01*
X135967128Y-89025857D01*
X135846053Y-88948047D01*
X135846051Y-88948046D01*
X135846049Y-88948045D01*
X135846050Y-88948045D01*
X135707963Y-88907500D01*
X135707961Y-88907500D01*
X135564039Y-88907500D01*
X135564036Y-88907500D01*
X135425949Y-88948045D01*
X135425947Y-88948046D01*
X135401161Y-88963975D01*
X135334121Y-88983658D01*
X135267082Y-88963972D01*
X135221329Y-88911167D01*
X135218122Y-88900000D01*
X139194353Y-88900000D01*
X139214834Y-89042456D01*
X139272103Y-89167856D01*
X139274623Y-89173373D01*
X139368872Y-89282143D01*
X139489947Y-89359953D01*
X139489950Y-89359954D01*
X139489949Y-89359954D01*
X139628036Y-89400499D01*
X139628038Y-89400500D01*
X139628039Y-89400500D01*
X139771962Y-89400500D01*
X139771962Y-89400499D01*
X139910053Y-89359953D01*
X140031128Y-89282143D01*
X140125377Y-89173373D01*
X140185165Y-89042457D01*
X140205647Y-88900000D01*
X140185165Y-88757543D01*
X140125377Y-88626627D01*
X140050314Y-88539999D01*
X147904785Y-88539999D01*
X147904785Y-88540000D01*
X147923602Y-88743082D01*
X147979417Y-88939247D01*
X147979422Y-88939260D01*
X148070327Y-89121821D01*
X148193237Y-89284581D01*
X148343958Y-89421980D01*
X148343960Y-89421982D01*
X148443141Y-89483392D01*
X148517363Y-89529348D01*
X148707544Y-89603024D01*
X148908024Y-89640500D01*
X148908026Y-89640500D01*
X149111974Y-89640500D01*
X149111976Y-89640500D01*
X149312456Y-89603024D01*
X149502637Y-89529348D01*
X149676041Y-89421981D01*
X149826764Y-89284579D01*
X149949673Y-89121821D01*
X150040582Y-88939250D01*
X150096397Y-88743083D01*
X150115215Y-88540000D01*
X150109814Y-88481718D01*
X150096397Y-88336917D01*
X150074325Y-88259344D01*
X150040582Y-88140750D01*
X149999783Y-88058815D01*
X149989814Y-88038794D01*
X149949673Y-87958179D01*
X149826764Y-87795421D01*
X149826762Y-87795418D01*
X149676041Y-87658019D01*
X149676039Y-87658017D01*
X149502642Y-87550655D01*
X149502635Y-87550651D01*
X149384906Y-87505043D01*
X149312456Y-87476976D01*
X149111976Y-87439500D01*
X148908024Y-87439500D01*
X148707544Y-87476976D01*
X148707541Y-87476976D01*
X148707541Y-87476977D01*
X148517364Y-87550651D01*
X148517357Y-87550655D01*
X148343960Y-87658017D01*
X148343958Y-87658019D01*
X148193237Y-87795418D01*
X148070327Y-87958178D01*
X147979422Y-88140739D01*
X147979417Y-88140752D01*
X147923602Y-88336917D01*
X147904785Y-88539999D01*
X140050314Y-88539999D01*
X140031128Y-88517857D01*
X139910053Y-88440047D01*
X139910051Y-88440046D01*
X139910049Y-88440045D01*
X139910050Y-88440045D01*
X139771963Y-88399500D01*
X139771961Y-88399500D01*
X139628039Y-88399500D01*
X139628036Y-88399500D01*
X139489949Y-88440045D01*
X139368873Y-88517856D01*
X139274623Y-88626626D01*
X139274622Y-88626628D01*
X139214834Y-88757543D01*
X139194353Y-88900000D01*
X135218122Y-88900000D01*
X135211185Y-88875843D01*
X135203919Y-88820655D01*
X135195044Y-88753238D01*
X135134536Y-88607159D01*
X135038282Y-88481718D01*
X134912841Y-88385464D01*
X134834159Y-88352873D01*
X134766762Y-88324956D01*
X134766760Y-88324955D01*
X134610001Y-88304318D01*
X134609999Y-88304318D01*
X134453239Y-88324955D01*
X134453237Y-88324956D01*
X134307160Y-88385463D01*
X134181718Y-88481718D01*
X134085463Y-88607160D01*
X134024956Y-88753237D01*
X134024955Y-88753239D01*
X134004318Y-88909998D01*
X130044210Y-88909998D01*
X130045647Y-88900000D01*
X130025165Y-88757543D01*
X129965377Y-88626627D01*
X129871128Y-88517857D01*
X129750053Y-88440047D01*
X129750051Y-88440046D01*
X129750049Y-88440045D01*
X129750050Y-88440045D01*
X129611963Y-88399500D01*
X129611961Y-88399500D01*
X129468039Y-88399500D01*
X129468036Y-88399500D01*
X129329949Y-88440045D01*
X129208873Y-88517856D01*
X129114623Y-88626626D01*
X129114622Y-88626628D01*
X129054834Y-88757543D01*
X129034353Y-88900000D01*
X124965647Y-88900000D01*
X124945165Y-88757543D01*
X124885377Y-88626627D01*
X124791128Y-88517857D01*
X124670053Y-88440047D01*
X124670051Y-88440046D01*
X124670049Y-88440045D01*
X124670050Y-88440045D01*
X124531963Y-88399500D01*
X124531961Y-88399500D01*
X124388039Y-88399500D01*
X124388036Y-88399500D01*
X124249949Y-88440045D01*
X124128873Y-88517856D01*
X124034623Y-88626626D01*
X124034622Y-88626628D01*
X123974834Y-88757543D01*
X123954353Y-88900000D01*
X119318016Y-88900000D01*
X119903175Y-88062480D01*
X119905808Y-88058856D01*
X120552699Y-87202234D01*
X120555456Y-87198721D01*
X120782586Y-86919998D01*
X136754318Y-86919998D01*
X136754318Y-86920001D01*
X136774955Y-87076760D01*
X136774956Y-87076762D01*
X136835464Y-87222841D01*
X136931718Y-87348282D01*
X137057159Y-87444536D01*
X137203238Y-87505044D01*
X137281619Y-87515363D01*
X137359999Y-87525682D01*
X137360000Y-87525682D01*
X137360001Y-87525682D01*
X137412254Y-87518802D01*
X137516762Y-87505044D01*
X137662841Y-87444536D01*
X137788282Y-87348282D01*
X137884536Y-87222841D01*
X137945044Y-87076762D01*
X137965682Y-86920000D01*
X137959198Y-86870752D01*
X137946792Y-86776513D01*
X137945044Y-86763238D01*
X137884536Y-86617159D01*
X137788282Y-86491718D01*
X137662841Y-86395464D01*
X137644867Y-86388019D01*
X137577223Y-86360000D01*
X146814353Y-86360000D01*
X146834834Y-86502456D01*
X146887218Y-86617159D01*
X146894623Y-86633373D01*
X146988872Y-86742143D01*
X147109947Y-86819953D01*
X147109950Y-86819954D01*
X147109949Y-86819954D01*
X147248036Y-86860499D01*
X147248038Y-86860500D01*
X147248039Y-86860500D01*
X147391962Y-86860500D01*
X147391962Y-86860499D01*
X147530053Y-86819953D01*
X147651128Y-86742143D01*
X147745377Y-86633373D01*
X147805165Y-86502457D01*
X147825647Y-86360000D01*
X147805165Y-86217543D01*
X147745377Y-86086627D01*
X147651128Y-85977857D01*
X147530053Y-85900047D01*
X147530051Y-85900046D01*
X147530049Y-85900045D01*
X147530050Y-85900045D01*
X147391963Y-85859500D01*
X147391961Y-85859500D01*
X147248039Y-85859500D01*
X147248036Y-85859500D01*
X147109949Y-85900045D01*
X146988873Y-85977856D01*
X146894623Y-86086626D01*
X146894622Y-86086628D01*
X146834834Y-86217543D01*
X146814353Y-86360000D01*
X137577223Y-86360000D01*
X137516762Y-86334956D01*
X137516760Y-86334955D01*
X137360001Y-86314318D01*
X137359999Y-86314318D01*
X137203239Y-86334955D01*
X137203237Y-86334956D01*
X137057160Y-86395463D01*
X136931718Y-86491718D01*
X136835463Y-86617160D01*
X136774956Y-86763237D01*
X136774955Y-86763239D01*
X136754318Y-86919998D01*
X120782586Y-86919998D01*
X121233520Y-86366634D01*
X121236448Y-86363173D01*
X121489562Y-86075000D01*
X123394353Y-86075000D01*
X123414834Y-86217456D01*
X123474622Y-86348371D01*
X123474623Y-86348373D01*
X123568872Y-86457143D01*
X123689947Y-86534953D01*
X123689950Y-86534954D01*
X123689949Y-86534954D01*
X123828036Y-86575499D01*
X123828038Y-86575500D01*
X123828039Y-86575500D01*
X123971962Y-86575500D01*
X123971962Y-86575499D01*
X124110053Y-86534953D01*
X124231128Y-86457143D01*
X124315302Y-86360000D01*
X126494353Y-86360000D01*
X126514834Y-86502456D01*
X126567218Y-86617159D01*
X126574623Y-86633373D01*
X126668872Y-86742143D01*
X126789947Y-86819953D01*
X126789950Y-86819954D01*
X126789949Y-86819954D01*
X126928036Y-86860499D01*
X126928038Y-86860500D01*
X126928039Y-86860500D01*
X127071962Y-86860500D01*
X127071962Y-86860499D01*
X127210053Y-86819953D01*
X127331128Y-86742143D01*
X127425377Y-86633373D01*
X127485165Y-86502457D01*
X127505647Y-86360000D01*
X127485165Y-86217543D01*
X127425377Y-86086627D01*
X127331128Y-85977857D01*
X127210053Y-85900047D01*
X127210051Y-85900046D01*
X127210049Y-85900045D01*
X127210050Y-85900045D01*
X127071963Y-85859500D01*
X127071961Y-85859500D01*
X126928039Y-85859500D01*
X126928036Y-85859500D01*
X126789949Y-85900045D01*
X126668873Y-85977856D01*
X126574623Y-86086626D01*
X126574622Y-86086628D01*
X126514834Y-86217543D01*
X126494353Y-86360000D01*
X124315302Y-86360000D01*
X124325377Y-86348373D01*
X124385165Y-86217457D01*
X124405647Y-86075000D01*
X124385165Y-85932543D01*
X124325377Y-85801627D01*
X124231128Y-85692857D01*
X124110053Y-85615047D01*
X124110051Y-85615046D01*
X124110049Y-85615045D01*
X124110050Y-85615045D01*
X123971963Y-85574500D01*
X123971961Y-85574500D01*
X123828039Y-85574500D01*
X123828036Y-85574500D01*
X123689949Y-85615045D01*
X123568873Y-85692856D01*
X123474623Y-85801626D01*
X123474622Y-85801628D01*
X123414834Y-85932543D01*
X123394353Y-86075000D01*
X121489562Y-86075000D01*
X121944808Y-85556698D01*
X121947845Y-85553366D01*
X122452433Y-85019998D01*
X130094318Y-85019998D01*
X130094318Y-85020001D01*
X130114955Y-85176760D01*
X130114956Y-85176762D01*
X130175464Y-85322841D01*
X130271718Y-85448282D01*
X130397159Y-85544536D01*
X130543238Y-85605044D01*
X130619204Y-85615045D01*
X130699999Y-85625682D01*
X130700000Y-85625682D01*
X130700001Y-85625682D01*
X130752254Y-85618802D01*
X130856762Y-85605044D01*
X131002841Y-85544536D01*
X131128282Y-85448282D01*
X131224536Y-85322841D01*
X131285044Y-85176762D01*
X131303049Y-85039998D01*
X136684318Y-85039998D01*
X136684318Y-85040001D01*
X136704955Y-85196760D01*
X136704956Y-85196762D01*
X136753037Y-85312841D01*
X136765464Y-85342841D01*
X136861718Y-85468282D01*
X136987159Y-85564536D01*
X137133238Y-85625044D01*
X137211619Y-85635363D01*
X137289999Y-85645682D01*
X137290000Y-85645682D01*
X137290001Y-85645682D01*
X137342254Y-85638802D01*
X137446762Y-85625044D01*
X137592841Y-85564536D01*
X137718282Y-85468282D01*
X137814536Y-85342841D01*
X137875044Y-85196762D01*
X137895682Y-85040000D01*
X137891732Y-85010000D01*
X137885470Y-84962436D01*
X142136790Y-84962436D01*
X142157271Y-85104892D01*
X142217059Y-85235807D01*
X142217060Y-85235809D01*
X142311309Y-85344579D01*
X142432384Y-85422389D01*
X142432387Y-85422390D01*
X142432386Y-85422390D01*
X142570473Y-85462935D01*
X142570475Y-85462936D01*
X142570476Y-85462936D01*
X142714399Y-85462936D01*
X142714399Y-85462935D01*
X142852490Y-85422389D01*
X142973565Y-85344579D01*
X143067814Y-85235809D01*
X143127602Y-85104893D01*
X143141246Y-85009998D01*
X145534319Y-85009998D01*
X145534319Y-85010001D01*
X145554956Y-85166760D01*
X145554957Y-85166762D01*
X145591679Y-85255418D01*
X145615465Y-85312841D01*
X145711719Y-85438282D01*
X145837160Y-85534536D01*
X145983239Y-85595044D01*
X146026497Y-85600739D01*
X146140000Y-85615682D01*
X146140001Y-85615682D01*
X146140002Y-85615682D01*
X146220805Y-85605044D01*
X146296763Y-85595044D01*
X146442842Y-85534536D01*
X146568283Y-85438282D01*
X146664537Y-85312841D01*
X146725045Y-85166762D01*
X146741733Y-85040001D01*
X146745683Y-85010001D01*
X146745683Y-85009998D01*
X146728995Y-84883239D01*
X146725045Y-84853238D01*
X146664537Y-84707159D01*
X146568283Y-84581718D01*
X146442842Y-84485464D01*
X146386040Y-84461936D01*
X146296763Y-84424956D01*
X146296761Y-84424955D01*
X146140002Y-84404318D01*
X146140000Y-84404318D01*
X145983240Y-84424955D01*
X145983238Y-84424956D01*
X145837161Y-84485463D01*
X145711719Y-84581718D01*
X145615464Y-84707160D01*
X145554957Y-84853237D01*
X145554956Y-84853239D01*
X145534319Y-85009998D01*
X143141246Y-85009998D01*
X143148084Y-84962436D01*
X143127602Y-84819979D01*
X143067814Y-84689063D01*
X142973565Y-84580293D01*
X142852490Y-84502483D01*
X142852488Y-84502482D01*
X142852486Y-84502481D01*
X142852487Y-84502481D01*
X142714400Y-84461936D01*
X142714398Y-84461936D01*
X142570476Y-84461936D01*
X142570473Y-84461936D01*
X142432386Y-84502481D01*
X142311310Y-84580292D01*
X142217060Y-84689062D01*
X142217059Y-84689064D01*
X142157271Y-84819979D01*
X142136790Y-84962436D01*
X137885470Y-84962436D01*
X137875044Y-84883239D01*
X137875044Y-84883238D01*
X137814536Y-84737159D01*
X137718282Y-84611718D01*
X137592841Y-84515464D01*
X137561497Y-84502481D01*
X137446762Y-84454956D01*
X137446760Y-84454955D01*
X137290001Y-84434318D01*
X137289999Y-84434318D01*
X137133239Y-84454955D01*
X137133237Y-84454956D01*
X136987160Y-84515463D01*
X136861718Y-84611718D01*
X136765463Y-84737160D01*
X136704956Y-84883237D01*
X136704955Y-84883239D01*
X136684318Y-85039998D01*
X131303049Y-85039998D01*
X131305682Y-85020000D01*
X131304451Y-85010652D01*
X131285044Y-84863239D01*
X131285044Y-84863238D01*
X131224536Y-84717159D01*
X131128282Y-84591718D01*
X131002841Y-84495464D01*
X130978696Y-84485463D01*
X130856762Y-84434956D01*
X130856760Y-84434955D01*
X130700001Y-84414318D01*
X130699999Y-84414318D01*
X130543239Y-84434955D01*
X130543237Y-84434956D01*
X130397160Y-84495463D01*
X130271718Y-84591718D01*
X130175463Y-84717160D01*
X130114956Y-84863237D01*
X130114955Y-84863239D01*
X130094318Y-85019998D01*
X122452433Y-85019998D01*
X122685512Y-84773625D01*
X122688674Y-84770405D01*
X123454666Y-84018438D01*
X123457932Y-84015349D01*
X123672220Y-83820000D01*
X128526353Y-83820000D01*
X128546834Y-83962456D01*
X128570977Y-84015320D01*
X128606623Y-84093373D01*
X128700872Y-84202143D01*
X128821947Y-84279953D01*
X128821950Y-84279954D01*
X128821949Y-84279954D01*
X128960036Y-84320499D01*
X128960038Y-84320500D01*
X128960039Y-84320500D01*
X129103962Y-84320500D01*
X129103962Y-84320499D01*
X129242053Y-84279953D01*
X129363128Y-84202143D01*
X129457377Y-84093373D01*
X129517165Y-83962457D01*
X129537647Y-83820000D01*
X149354353Y-83820000D01*
X149374834Y-83962456D01*
X149398977Y-84015320D01*
X149434623Y-84093373D01*
X149528872Y-84202143D01*
X149649947Y-84279953D01*
X149649950Y-84279954D01*
X149649949Y-84279954D01*
X149788036Y-84320499D01*
X149788038Y-84320500D01*
X149788039Y-84320500D01*
X149931962Y-84320500D01*
X149931962Y-84320499D01*
X150070053Y-84279953D01*
X150191128Y-84202143D01*
X150285377Y-84093373D01*
X150293768Y-84075000D01*
X158994353Y-84075000D01*
X159014834Y-84217456D01*
X159061893Y-84320499D01*
X159074623Y-84348373D01*
X159168872Y-84457143D01*
X159289947Y-84534953D01*
X159289950Y-84534954D01*
X159289949Y-84534954D01*
X159428036Y-84575499D01*
X159428038Y-84575500D01*
X159428039Y-84575500D01*
X159571962Y-84575500D01*
X159571962Y-84575499D01*
X159710053Y-84534953D01*
X159831128Y-84457143D01*
X159925377Y-84348373D01*
X159985165Y-84217457D01*
X160005647Y-84075000D01*
X159985165Y-83932543D01*
X159925377Y-83801627D01*
X159831128Y-83692857D01*
X159710053Y-83615047D01*
X159710051Y-83615046D01*
X159710049Y-83615045D01*
X159710050Y-83615045D01*
X159571963Y-83574500D01*
X159571961Y-83574500D01*
X159428039Y-83574500D01*
X159428036Y-83574500D01*
X159289949Y-83615045D01*
X159168873Y-83692856D01*
X159074623Y-83801626D01*
X159074622Y-83801628D01*
X159014834Y-83932543D01*
X158994353Y-84075000D01*
X150293768Y-84075000D01*
X150345165Y-83962457D01*
X150365647Y-83820000D01*
X150345165Y-83677543D01*
X150285377Y-83546627D01*
X150191128Y-83437857D01*
X150070053Y-83360047D01*
X150070051Y-83360046D01*
X150070049Y-83360045D01*
X150070050Y-83360045D01*
X149931963Y-83319500D01*
X149931961Y-83319500D01*
X149788039Y-83319500D01*
X149788036Y-83319500D01*
X149649949Y-83360045D01*
X149528873Y-83437856D01*
X149434623Y-83546626D01*
X149434622Y-83546628D01*
X149374834Y-83677543D01*
X149354353Y-83820000D01*
X129537647Y-83820000D01*
X129517165Y-83677543D01*
X129457377Y-83546627D01*
X129363128Y-83437857D01*
X129242053Y-83360047D01*
X129242051Y-83360046D01*
X129242049Y-83360045D01*
X129242050Y-83360045D01*
X129103963Y-83319500D01*
X129103961Y-83319500D01*
X128960039Y-83319500D01*
X128960036Y-83319500D01*
X128821949Y-83360045D01*
X128700873Y-83437856D01*
X128606623Y-83546626D01*
X128606622Y-83546628D01*
X128546834Y-83677543D01*
X128526353Y-83820000D01*
X123672220Y-83820000D01*
X124251165Y-83292222D01*
X124254581Y-83289223D01*
X125074000Y-82595894D01*
X125077484Y-82593055D01*
X125921951Y-81930488D01*
X125925572Y-81927753D01*
X126793957Y-81296835D01*
X126797628Y-81294269D01*
X126818877Y-81280000D01*
X131574353Y-81280000D01*
X131594834Y-81422456D01*
X131648515Y-81539998D01*
X131654623Y-81553373D01*
X131748872Y-81662143D01*
X131869947Y-81739953D01*
X131869950Y-81739954D01*
X131869949Y-81739954D01*
X132008036Y-81780499D01*
X132008038Y-81780500D01*
X132008039Y-81780500D01*
X132151962Y-81780500D01*
X132151962Y-81780499D01*
X132290053Y-81739953D01*
X132411128Y-81662143D01*
X132505377Y-81553373D01*
X132565165Y-81422457D01*
X132585647Y-81280000D01*
X136654353Y-81280000D01*
X136674834Y-81422456D01*
X136728515Y-81539998D01*
X136734623Y-81553373D01*
X136828872Y-81662143D01*
X136949947Y-81739953D01*
X136949950Y-81739954D01*
X136949949Y-81739954D01*
X137088036Y-81780499D01*
X137088038Y-81780500D01*
X137088039Y-81780500D01*
X137231962Y-81780500D01*
X137231962Y-81780499D01*
X137370053Y-81739953D01*
X137491128Y-81662143D01*
X137585377Y-81553373D01*
X137591485Y-81539998D01*
X142124319Y-81539998D01*
X142124319Y-81540001D01*
X142144956Y-81696760D01*
X142144957Y-81696762D01*
X142205465Y-81842841D01*
X142301719Y-81968282D01*
X142427160Y-82064536D01*
X142573239Y-82125044D01*
X142651620Y-82135363D01*
X142730000Y-82145682D01*
X142730001Y-82145682D01*
X142730002Y-82145682D01*
X142782255Y-82138802D01*
X142886763Y-82125044D01*
X143032842Y-82064536D01*
X143158283Y-81968282D01*
X143254537Y-81842841D01*
X143315045Y-81696762D01*
X143328803Y-81592254D01*
X143335683Y-81540001D01*
X143335683Y-81539998D01*
X143315045Y-81383239D01*
X143315045Y-81383238D01*
X143272282Y-81280000D01*
X146814353Y-81280000D01*
X146834834Y-81422456D01*
X146888515Y-81539998D01*
X146894623Y-81553373D01*
X146988872Y-81662143D01*
X147109947Y-81739953D01*
X147109950Y-81739954D01*
X147109949Y-81739954D01*
X147248036Y-81780499D01*
X147248038Y-81780500D01*
X147248039Y-81780500D01*
X147391962Y-81780500D01*
X147391962Y-81780499D01*
X147530053Y-81739953D01*
X147651128Y-81662143D01*
X147745377Y-81553373D01*
X147805165Y-81422457D01*
X147825647Y-81280000D01*
X151894353Y-81280000D01*
X151914834Y-81422456D01*
X151968515Y-81539998D01*
X151974623Y-81553373D01*
X152068872Y-81662143D01*
X152189947Y-81739953D01*
X152189950Y-81739954D01*
X152189949Y-81739954D01*
X152328036Y-81780499D01*
X152328038Y-81780500D01*
X152328039Y-81780500D01*
X152471962Y-81780500D01*
X152471962Y-81780499D01*
X152610053Y-81739953D01*
X152731128Y-81662143D01*
X152825377Y-81553373D01*
X152885165Y-81422457D01*
X152905647Y-81280000D01*
X156974353Y-81280000D01*
X156994834Y-81422456D01*
X157048515Y-81539998D01*
X157054623Y-81553373D01*
X157148872Y-81662143D01*
X157269947Y-81739953D01*
X157269950Y-81739954D01*
X157269949Y-81739954D01*
X157408036Y-81780499D01*
X157408038Y-81780500D01*
X157408039Y-81780500D01*
X157551962Y-81780500D01*
X157551962Y-81780499D01*
X157690053Y-81739953D01*
X157811128Y-81662143D01*
X157905377Y-81553373D01*
X157965165Y-81422457D01*
X157985647Y-81280000D01*
X157965165Y-81137543D01*
X157905377Y-81006627D01*
X157811128Y-80897857D01*
X157690053Y-80820047D01*
X157690051Y-80820046D01*
X157690049Y-80820045D01*
X157690050Y-80820045D01*
X157551963Y-80779500D01*
X157551961Y-80779500D01*
X157408039Y-80779500D01*
X157408036Y-80779500D01*
X157269949Y-80820045D01*
X157148873Y-80897856D01*
X157054623Y-81006626D01*
X157054622Y-81006628D01*
X156994834Y-81137543D01*
X156974353Y-81280000D01*
X152905647Y-81280000D01*
X152885165Y-81137543D01*
X152825377Y-81006627D01*
X152731128Y-80897857D01*
X152610053Y-80820047D01*
X152610051Y-80820046D01*
X152610049Y-80820045D01*
X152610050Y-80820045D01*
X152471963Y-80779500D01*
X152471961Y-80779500D01*
X152328039Y-80779500D01*
X152328036Y-80779500D01*
X152189949Y-80820045D01*
X152068873Y-80897856D01*
X151974623Y-81006626D01*
X151974622Y-81006628D01*
X151914834Y-81137543D01*
X151894353Y-81280000D01*
X147825647Y-81280000D01*
X147805165Y-81137543D01*
X147745377Y-81006627D01*
X147651128Y-80897857D01*
X147530053Y-80820047D01*
X147530051Y-80820046D01*
X147530049Y-80820045D01*
X147530050Y-80820045D01*
X147391963Y-80779500D01*
X147391961Y-80779500D01*
X147248039Y-80779500D01*
X147248036Y-80779500D01*
X147109949Y-80820045D01*
X146988873Y-80897856D01*
X146894623Y-81006626D01*
X146894622Y-81006628D01*
X146834834Y-81137543D01*
X146814353Y-81280000D01*
X143272282Y-81280000D01*
X143254537Y-81237159D01*
X143158283Y-81111718D01*
X143032842Y-81015464D01*
X143011505Y-81006626D01*
X142886763Y-80954956D01*
X142886761Y-80954955D01*
X142730002Y-80934318D01*
X142730000Y-80934318D01*
X142573240Y-80954955D01*
X142573238Y-80954956D01*
X142427161Y-81015463D01*
X142301719Y-81111718D01*
X142205464Y-81237160D01*
X142144957Y-81383237D01*
X142144956Y-81383239D01*
X142124319Y-81539998D01*
X137591485Y-81539998D01*
X137645165Y-81422457D01*
X137665647Y-81280000D01*
X137645165Y-81137543D01*
X137585377Y-81006627D01*
X137491128Y-80897857D01*
X137370053Y-80820047D01*
X137370051Y-80820046D01*
X137370049Y-80820045D01*
X137370050Y-80820045D01*
X137231963Y-80779500D01*
X137231961Y-80779500D01*
X137088039Y-80779500D01*
X137088036Y-80779500D01*
X136949949Y-80820045D01*
X136828873Y-80897856D01*
X136734623Y-81006626D01*
X136734622Y-81006628D01*
X136674834Y-81137543D01*
X136654353Y-81280000D01*
X132585647Y-81280000D01*
X132565165Y-81137543D01*
X132505377Y-81006627D01*
X132411128Y-80897857D01*
X132290053Y-80820047D01*
X132290051Y-80820046D01*
X132290049Y-80820045D01*
X132290050Y-80820045D01*
X132151963Y-80779500D01*
X132151961Y-80779500D01*
X132008039Y-80779500D01*
X132008036Y-80779500D01*
X131869949Y-80820045D01*
X131748873Y-80897856D01*
X131654623Y-81006626D01*
X131654622Y-81006628D01*
X131594834Y-81137543D01*
X131574353Y-81280000D01*
X126818877Y-81280000D01*
X127688745Y-80695862D01*
X127692587Y-80693384D01*
X128605210Y-80128311D01*
X128609026Y-80126044D01*
X129541903Y-79595084D01*
X129545888Y-79592912D01*
X130497704Y-79096806D01*
X130501777Y-79094777D01*
X131248541Y-78740000D01*
X134114353Y-78740000D01*
X134134834Y-78882456D01*
X134194622Y-79013371D01*
X134194623Y-79013373D01*
X134288872Y-79122143D01*
X134409947Y-79199953D01*
X134409950Y-79199954D01*
X134409949Y-79199954D01*
X134548036Y-79240499D01*
X134548038Y-79240500D01*
X134548039Y-79240500D01*
X134691962Y-79240500D01*
X134691962Y-79240499D01*
X134830053Y-79199953D01*
X134951128Y-79122143D01*
X135045377Y-79013373D01*
X135105165Y-78882457D01*
X135125647Y-78740000D01*
X149354353Y-78740000D01*
X149374834Y-78882456D01*
X149434622Y-79013371D01*
X149434623Y-79013373D01*
X149528872Y-79122143D01*
X149649947Y-79199953D01*
X149649950Y-79199954D01*
X149649949Y-79199954D01*
X149788036Y-79240499D01*
X149788038Y-79240500D01*
X149788039Y-79240500D01*
X149931962Y-79240500D01*
X149931962Y-79240499D01*
X150070053Y-79199953D01*
X150191128Y-79122143D01*
X150285377Y-79013373D01*
X150345165Y-78882457D01*
X150365647Y-78740000D01*
X150345165Y-78597543D01*
X150285377Y-78466627D01*
X150191128Y-78357857D01*
X150070053Y-78280047D01*
X150070051Y-78280046D01*
X150070049Y-78280045D01*
X150070050Y-78280045D01*
X149931963Y-78239500D01*
X149931961Y-78239500D01*
X149788039Y-78239500D01*
X149788036Y-78239500D01*
X149649949Y-78280045D01*
X149528873Y-78357856D01*
X149434623Y-78466626D01*
X149434622Y-78466628D01*
X149374834Y-78597543D01*
X149354353Y-78740000D01*
X135125647Y-78740000D01*
X135105165Y-78597543D01*
X135045377Y-78466627D01*
X134951128Y-78357857D01*
X134830053Y-78280047D01*
X134830051Y-78280046D01*
X134830049Y-78280045D01*
X134830050Y-78280045D01*
X134691963Y-78239500D01*
X134691961Y-78239500D01*
X134548039Y-78239500D01*
X134548036Y-78239500D01*
X134409949Y-78280045D01*
X134288873Y-78357856D01*
X134194623Y-78466626D01*
X134194622Y-78466628D01*
X134134834Y-78597543D01*
X134114353Y-78740000D01*
X131248541Y-78740000D01*
X131471324Y-78634159D01*
X131475425Y-78632303D01*
X132461296Y-78207840D01*
X132465455Y-78206139D01*
X133466373Y-77818382D01*
X133470645Y-77816817D01*
X134485188Y-77466317D01*
X134489462Y-77464928D01*
X135516264Y-77152156D01*
X135520625Y-77150915D01*
X136558266Y-76876303D01*
X136562681Y-76875221D01*
X137609718Y-76639148D01*
X137614172Y-76638229D01*
X138669294Y-76440993D01*
X138673771Y-76440242D01*
X139735367Y-76282142D01*
X139739892Y-76281553D01*
X140806682Y-76162781D01*
X140811227Y-76162360D01*
X141881618Y-76083092D01*
X141886155Y-76082841D01*
X142958751Y-76043179D01*
X142963333Y-76043095D01*
X144036667Y-76043095D01*
X144041248Y-76043179D01*
G37*
G04 #@! TD.AperFunction*
M02*
