G04 #@! TF.GenerationSoftware,KiCad,Pcbnew,8.0.6*
G04 #@! TF.CreationDate,2025-05-06T14:47:19+02:00*
G04 #@! TF.ProjectId,nRF5340,6e524635-3334-4302-9e6b-696361645f70,rev?*
G04 #@! TF.SameCoordinates,Original*
G04 #@! TF.FileFunction,Copper,L1,Top*
G04 #@! TF.FilePolarity,Positive*
%FSLAX46Y46*%
G04 Gerber Fmt 4.6, Leading zero omitted, Abs format (unit mm)*
G04 Created by KiCad (PCBNEW 8.0.6) date 2025-05-06 14:47:19*
%MOMM*%
%LPD*%
G01*
G04 APERTURE LIST*
G04 Aperture macros list*
%AMRoundRect*
0 Rectangle with rounded corners*
0 $1 Rounding radius*
0 $2 $3 $4 $5 $6 $7 $8 $9 X,Y pos of 4 corners*
0 Add a 4 corners polygon primitive as box body*
4,1,4,$2,$3,$4,$5,$6,$7,$8,$9,$2,$3,0*
0 Add four circle primitives for the rounded corners*
1,1,$1+$1,$2,$3*
1,1,$1+$1,$4,$5*
1,1,$1+$1,$6,$7*
1,1,$1+$1,$8,$9*
0 Add four rect primitives between the rounded corners*
20,1,$1+$1,$2,$3,$4,$5,0*
20,1,$1+$1,$4,$5,$6,$7,0*
20,1,$1+$1,$6,$7,$8,$9,0*
20,1,$1+$1,$8,$9,$2,$3,0*%
G04 Aperture macros list end*
G04 #@! TA.AperFunction,SMDPad,CuDef*
%ADD10RoundRect,0.225000X0.225000X0.250000X-0.225000X0.250000X-0.225000X-0.250000X0.225000X-0.250000X0*%
G04 #@! TD*
G04 #@! TA.AperFunction,SMDPad,CuDef*
%ADD11RoundRect,0.200000X-0.200000X-0.275000X0.200000X-0.275000X0.200000X0.275000X-0.200000X0.275000X0*%
G04 #@! TD*
G04 #@! TA.AperFunction,SMDPad,CuDef*
%ADD12RoundRect,0.225000X-0.250000X0.225000X-0.250000X-0.225000X0.250000X-0.225000X0.250000X0.225000X0*%
G04 #@! TD*
G04 #@! TA.AperFunction,SMDPad,CuDef*
%ADD13RoundRect,0.225000X-0.225000X-0.250000X0.225000X-0.250000X0.225000X0.250000X-0.225000X0.250000X0*%
G04 #@! TD*
G04 #@! TA.AperFunction,SMDPad,CuDef*
%ADD14R,0.254000X0.762000*%
G04 #@! TD*
G04 #@! TA.AperFunction,SMDPad,CuDef*
%ADD15R,0.762000X0.254000*%
G04 #@! TD*
G04 #@! TA.AperFunction,SMDPad,CuDef*
%ADD16R,3.606800X3.606800*%
G04 #@! TD*
G04 #@! TA.AperFunction,SMDPad,CuDef*
%ADD17RoundRect,0.218750X0.218750X0.256250X-0.218750X0.256250X-0.218750X-0.256250X0.218750X-0.256250X0*%
G04 #@! TD*
G04 #@! TA.AperFunction,SMDPad,CuDef*
%ADD18R,0.990600X0.711200*%
G04 #@! TD*
G04 #@! TA.AperFunction,SMDPad,CuDef*
%ADD19R,0.600000X0.600000*%
G04 #@! TD*
G04 #@! TA.AperFunction,SMDPad,CuDef*
%ADD20RoundRect,0.200000X0.200000X0.275000X-0.200000X0.275000X-0.200000X-0.275000X0.200000X-0.275000X0*%
G04 #@! TD*
G04 #@! TA.AperFunction,SMDPad,CuDef*
%ADD21RoundRect,0.200000X0.275000X-0.200000X0.275000X0.200000X-0.275000X0.200000X-0.275000X-0.200000X0*%
G04 #@! TD*
G04 #@! TA.AperFunction,SMDPad,CuDef*
%ADD22RoundRect,0.218750X-0.218750X-0.256250X0.218750X-0.256250X0.218750X0.256250X-0.218750X0.256250X0*%
G04 #@! TD*
G04 #@! TA.AperFunction,SMDPad,CuDef*
%ADD23R,1.150000X0.600000*%
G04 #@! TD*
G04 #@! TA.AperFunction,SMDPad,CuDef*
%ADD24R,1.150000X0.300000*%
G04 #@! TD*
G04 #@! TA.AperFunction,ComponentPad*
%ADD25O,1.800000X1.000000*%
G04 #@! TD*
G04 #@! TA.AperFunction,ComponentPad*
%ADD26O,2.200000X1.000000*%
G04 #@! TD*
G04 #@! TA.AperFunction,SMDPad,CuDef*
%ADD27R,0.304800X0.711200*%
G04 #@! TD*
G04 #@! TA.AperFunction,SMDPad,CuDef*
%ADD28R,1.092200X0.508000*%
G04 #@! TD*
G04 #@! TA.AperFunction,SMDPad,CuDef*
%ADD29R,0.254000X0.279400*%
G04 #@! TD*
G04 #@! TA.AperFunction,SMDPad,CuDef*
%ADD30R,0.279400X0.254000*%
G04 #@! TD*
G04 #@! TA.AperFunction,SMDPad,CuDef*
%ADD31RoundRect,0.150000X-0.512500X-0.150000X0.512500X-0.150000X0.512500X0.150000X-0.512500X0.150000X0*%
G04 #@! TD*
G04 #@! TA.AperFunction,ViaPad*
%ADD32C,0.500000*%
G04 #@! TD*
G04 #@! TA.AperFunction,ViaPad*
%ADD33C,0.450000*%
G04 #@! TD*
G04 #@! TA.AperFunction,Conductor*
%ADD34C,0.500000*%
G04 #@! TD*
G04 #@! TA.AperFunction,Conductor*
%ADD35C,0.200000*%
G04 #@! TD*
G04 #@! TA.AperFunction,Conductor*
%ADD36C,0.300000*%
G04 #@! TD*
G04 #@! TA.AperFunction,Conductor*
%ADD37C,0.150000*%
G04 #@! TD*
G04 #@! TA.AperFunction,Conductor*
%ADD38C,0.250000*%
G04 #@! TD*
G04 APERTURE END LIST*
D10*
X172800001Y-69900000D03*
X171249999Y-69900000D03*
D11*
X170775000Y-51750000D03*
X172425000Y-51750000D03*
D12*
X186730000Y-71534999D03*
X186730000Y-73085001D03*
D13*
X173774999Y-51750000D03*
X175325001Y-51750000D03*
D14*
X178390000Y-72971400D03*
X178890000Y-72971404D03*
X179389998Y-72971399D03*
X179889999Y-72971401D03*
X180390002Y-72971399D03*
X180890000Y-72971400D03*
X181389998Y-72971400D03*
X181889998Y-72971400D03*
D15*
X182565699Y-72295699D03*
X182565703Y-71795699D03*
X182565698Y-71295701D03*
X182565700Y-70795700D03*
X182565698Y-70295697D03*
X182565699Y-69795699D03*
X182565699Y-69295701D03*
X182565699Y-68795701D03*
D14*
X181889998Y-68120000D03*
X181389998Y-68119996D03*
X180890000Y-68120001D03*
X180389999Y-68119999D03*
X179889996Y-68120001D03*
X179389998Y-68120000D03*
X178890000Y-68120000D03*
X178390000Y-68120000D03*
D15*
X177714299Y-68795701D03*
X177714295Y-69295701D03*
X177714300Y-69795699D03*
X177714298Y-70295700D03*
X177714300Y-70795703D03*
X177714299Y-71295701D03*
X177714299Y-71795699D03*
X177714299Y-72295699D03*
D16*
X180139999Y-70545700D03*
D17*
X182717502Y-74939999D03*
X181142498Y-74940001D03*
D18*
X174550001Y-55599999D03*
X170049998Y-55599999D03*
X174550002Y-53450001D03*
X170049999Y-53450001D03*
D12*
X185230000Y-71514999D03*
X185230000Y-73065001D03*
D11*
X190700000Y-66400000D03*
X192350000Y-66400000D03*
X190700000Y-65075000D03*
X192350000Y-65075000D03*
D19*
X188975006Y-64224999D03*
X187875005Y-64225000D03*
X186775003Y-64224997D03*
X185675004Y-64225000D03*
X184575005Y-64225003D03*
X183475004Y-64225000D03*
X182375002Y-64225001D03*
X181275004Y-64225001D03*
X180175004Y-64224998D03*
X188975004Y-63125000D03*
X187875004Y-63125004D03*
X186775004Y-63125000D03*
X185675004Y-63125002D03*
X184575004Y-63125000D03*
X183475006Y-63125002D03*
X182375004Y-63125000D03*
X181275003Y-63124999D03*
X180175004Y-63125000D03*
X188975003Y-62025001D03*
X187875004Y-62025001D03*
X185675004Y-62025000D03*
X184575000Y-62025000D03*
X183475004Y-62025000D03*
X181275003Y-62025000D03*
X180175000Y-62025000D03*
X188975004Y-60925000D03*
X187875004Y-60925000D03*
X186775004Y-60925000D03*
X182375004Y-60925000D03*
X181275009Y-60924998D03*
X180175004Y-60925000D03*
X188975006Y-59824998D03*
X187875004Y-59825000D03*
X186775004Y-59825001D03*
X185125004Y-59825000D03*
X184025004Y-59825000D03*
X182375004Y-59825000D03*
X181275004Y-59825000D03*
X180175002Y-59825000D03*
X188975004Y-58725000D03*
X187875004Y-58725004D03*
X186775004Y-58725000D03*
X185125002Y-58725001D03*
X184025006Y-58724999D03*
X182375004Y-58725000D03*
X181275004Y-58724996D03*
X180175004Y-58725000D03*
X188975006Y-57625000D03*
X187875004Y-57625000D03*
X186775004Y-57625000D03*
X185125004Y-57625000D03*
X184025004Y-57625000D03*
X182375004Y-57624999D03*
X181275004Y-57625000D03*
X180175002Y-57625002D03*
X188975004Y-56525000D03*
X187874999Y-56525002D03*
X186775004Y-56525000D03*
X182375004Y-56525000D03*
X181275004Y-56525000D03*
X180175004Y-56525000D03*
X188975008Y-55425000D03*
X187875005Y-55425000D03*
X186775004Y-55425000D03*
X185125004Y-55425000D03*
X184025004Y-55425000D03*
X182375006Y-55425005D03*
X181275004Y-55424999D03*
X180175005Y-55424999D03*
X188975004Y-54325000D03*
X187875005Y-54325001D03*
X186775004Y-54325000D03*
X184575004Y-54325000D03*
X182375004Y-54325000D03*
X181275004Y-54324996D03*
X180175004Y-54325000D03*
X188975004Y-52825000D03*
X180175002Y-52824999D03*
X188975004Y-51325000D03*
X187875004Y-51325000D03*
X181275004Y-51325000D03*
X180175004Y-51325000D03*
D17*
X172822499Y-71405000D03*
X171247495Y-71404998D03*
D10*
X179695001Y-74930000D03*
X178144999Y-74930000D03*
D20*
X191075000Y-68225000D03*
X189425000Y-68225000D03*
D13*
X181524999Y-66100000D03*
X183075001Y-66100000D03*
D21*
X184975000Y-69765002D03*
X184975000Y-68115002D03*
D22*
X189462501Y-69649998D03*
X191037505Y-69650000D03*
D23*
X173112500Y-58490747D03*
X173112500Y-59290750D03*
D24*
X173112499Y-60440751D03*
X173112502Y-61440747D03*
X173112500Y-61940747D03*
X173112502Y-62940751D03*
D23*
X173112500Y-64090750D03*
X173112503Y-64890753D03*
D24*
X173112500Y-63440750D03*
X173112498Y-62440752D03*
X173112499Y-60940750D03*
X173112500Y-59940750D03*
D25*
X172537501Y-57370748D03*
D26*
X168537500Y-57370747D03*
D25*
X172537502Y-66010752D03*
D26*
X168537500Y-66010753D03*
D27*
X192125000Y-61149999D03*
X191324900Y-61149997D03*
X191324902Y-62648601D03*
X192125002Y-62648603D03*
D28*
X191724951Y-61899300D03*
D10*
X172799999Y-68524999D03*
X171249997Y-68524999D03*
D29*
X191086899Y-58412000D03*
X191586901Y-58412000D03*
X192086900Y-58412001D03*
X192586900Y-58412000D03*
D30*
X192598900Y-57899999D03*
X192598901Y-57400000D03*
D29*
X192586901Y-56888000D03*
X192086899Y-56888000D03*
X191586900Y-56887999D03*
X191086900Y-56888000D03*
D30*
X191074900Y-57400001D03*
X191074899Y-57900000D03*
D31*
X175702500Y-60500000D03*
X175702500Y-61450000D03*
X175702500Y-62400000D03*
X177977500Y-62400000D03*
X177977500Y-61450000D03*
X177977500Y-60500000D03*
D32*
X178980000Y-55170000D03*
X174620000Y-54530000D03*
D33*
X194000000Y-59000000D03*
D32*
X170374997Y-68524999D03*
D33*
X178500000Y-59500000D03*
D32*
X183900000Y-66100000D03*
D33*
X178500000Y-50500000D03*
X184000000Y-74500000D03*
X168500000Y-61500000D03*
D32*
X188733749Y-69647501D03*
X189700000Y-64225000D03*
D33*
X179000000Y-58500000D03*
D32*
X178575000Y-51325000D03*
X180175000Y-65050000D03*
D33*
X184000000Y-73000000D03*
X171500000Y-50500000D03*
X176000000Y-74500000D03*
X184000000Y-72000000D03*
X175000000Y-70500000D03*
D32*
X170394997Y-69894999D03*
D33*
X168000000Y-55500000D03*
X174500000Y-50500000D03*
X173500000Y-50500000D03*
D32*
X192575000Y-56375000D03*
D33*
X190500000Y-54500000D03*
X190000000Y-71500000D03*
X172000000Y-67500000D03*
D32*
X185230000Y-74030000D03*
D33*
X190005995Y-63021052D03*
X177000000Y-73000000D03*
X174500000Y-57500000D03*
X177000000Y-66000000D03*
D32*
X177200000Y-74930000D03*
D33*
X191500000Y-54500000D03*
X192500000Y-54500000D03*
D32*
X169150000Y-55590000D03*
D33*
X178000000Y-63500000D03*
X183000000Y-67500000D03*
X183500000Y-71500000D03*
X183500000Y-61000000D03*
X194000000Y-64500000D03*
X176500000Y-50500000D03*
X169000000Y-54500000D03*
X178500000Y-64500000D03*
X168500000Y-59000000D03*
D32*
X170150000Y-64900000D03*
D33*
X171500000Y-52500000D03*
D32*
X176190000Y-51740000D03*
X186730000Y-74030000D03*
D33*
X170500000Y-58000000D03*
D32*
X184025000Y-60500000D03*
D33*
X168500000Y-64000000D03*
D32*
X182460000Y-68120000D03*
D33*
X177500000Y-50500000D03*
X175500000Y-50500000D03*
X180500000Y-66000000D03*
X175500000Y-58000000D03*
D32*
X174125000Y-71500000D03*
X183325000Y-58725000D03*
X184980000Y-67410000D03*
D33*
X194000000Y-62500000D03*
X167500000Y-62500000D03*
X176500000Y-72000000D03*
X175000000Y-66000000D03*
X167500000Y-60000000D03*
X172500000Y-50500000D03*
X183500000Y-73500000D03*
X192500000Y-68000000D03*
X176500000Y-70500000D03*
X169000000Y-68000000D03*
D32*
X192125002Y-63290000D03*
D33*
X174500000Y-69000000D03*
D32*
X175710000Y-54230000D03*
X171840000Y-58510000D03*
X174540000Y-56330000D03*
D33*
X194000000Y-61000000D03*
D32*
X181160000Y-75770000D03*
X193110000Y-66410000D03*
X193140000Y-65080000D03*
X170725000Y-52600000D03*
X191575000Y-56400000D03*
X178910000Y-74270000D03*
X182375000Y-64975000D03*
X181275000Y-64950000D03*
X177710000Y-72970000D03*
X175750000Y-57000000D03*
X191325000Y-63300000D03*
X179695001Y-75804999D03*
X184450000Y-71514999D03*
X182150000Y-67000000D03*
X180400000Y-67270000D03*
X172900000Y-67500000D03*
X179900000Y-66690000D03*
X176689250Y-64090750D03*
X188360000Y-65770000D03*
X183500000Y-69800000D03*
X185625000Y-65225000D03*
X183960000Y-69300000D03*
X171780000Y-60430000D03*
X178870000Y-66840000D03*
X184900000Y-61100000D03*
X182500000Y-73550000D03*
X178400000Y-66280000D03*
X171870000Y-63440000D03*
X184350000Y-56200000D03*
X185850000Y-60975000D03*
X185290000Y-56780000D03*
X187225000Y-69650000D03*
X186225000Y-69650000D03*
X189900000Y-62025000D03*
X189025000Y-67300000D03*
D34*
X172425000Y-51750000D02*
X173774999Y-51750000D01*
X172425000Y-53400001D02*
X172375000Y-53450001D01*
D35*
X174540000Y-53460003D02*
X174550002Y-53450001D01*
X178980000Y-55170000D02*
X179260000Y-54890000D01*
D34*
X172425000Y-51750000D02*
X172425000Y-53400001D01*
D35*
X179260000Y-54890000D02*
X186240004Y-54890000D01*
X174620000Y-54530000D02*
X174620000Y-53519999D01*
X174620000Y-53519999D02*
X174550002Y-53450001D01*
D34*
X170049999Y-53450001D02*
X172375000Y-53450001D01*
D35*
X186240004Y-54890000D02*
X186775004Y-55425000D01*
D34*
X172375000Y-53450001D02*
X174550002Y-53450001D01*
D36*
X184975000Y-67415000D02*
X184980000Y-67410000D01*
X189613749Y-69650001D02*
X188736250Y-69649999D01*
X180175004Y-51325000D02*
X178575000Y-51325000D01*
X178144999Y-74930000D02*
X177200000Y-74930000D01*
X180175004Y-65049996D02*
X180175000Y-65050000D01*
D35*
X178890001Y-71795697D02*
X180139999Y-70545700D01*
D36*
X187875004Y-54325000D02*
X187875005Y-54325001D01*
D34*
X185230000Y-73065001D02*
X186710000Y-73065001D01*
D36*
X175907852Y-59340000D02*
X175058599Y-58490747D01*
X175702500Y-61450000D02*
X176364999Y-61450000D01*
D35*
X192125002Y-63290000D02*
X192125002Y-62648603D01*
D36*
X173112503Y-65435751D02*
X172537502Y-66010752D01*
X173112503Y-64890753D02*
X170159247Y-64890753D01*
X184025004Y-59825000D02*
X184025004Y-60499996D01*
X186775004Y-54325000D02*
X187875004Y-54325000D01*
X185125002Y-58725001D02*
X185125002Y-59824998D01*
D37*
X192598901Y-56900000D02*
X192586901Y-56888000D01*
D35*
X180890001Y-72971399D02*
X180890001Y-71295700D01*
D36*
X170399998Y-69900000D02*
X170394997Y-69894999D01*
D35*
X192586901Y-56386901D02*
X192575000Y-56375000D01*
D36*
X184025004Y-59825000D02*
X184025004Y-58725001D01*
D35*
X192586901Y-56888000D02*
X192586901Y-56386901D01*
D36*
X180175002Y-52824999D02*
X180175002Y-51325002D01*
X184025004Y-60499996D02*
X184025000Y-60500000D01*
X173112500Y-58490747D02*
X173112500Y-57945747D01*
D35*
X177714297Y-70295698D02*
X177714299Y-71795698D01*
D36*
X180175002Y-51325002D02*
X180175004Y-51325000D01*
X174550001Y-56319999D02*
X174540000Y-56330000D01*
X183075001Y-66100000D02*
X183900000Y-66100000D01*
X185230000Y-73065001D02*
X185230000Y-74030000D01*
D35*
X181390001Y-68119999D02*
X181389996Y-68119994D01*
D36*
X171249999Y-69900000D02*
X170399998Y-69900000D01*
X170159247Y-64890753D02*
X170150000Y-64900000D01*
X180175004Y-64224998D02*
X181275003Y-63124999D01*
X184575004Y-54325000D02*
X186775004Y-54325000D01*
X173112503Y-64890753D02*
X173112503Y-65435751D01*
X171249997Y-68524999D02*
X170374997Y-68524999D01*
X173112500Y-58490747D02*
X171859253Y-58490747D01*
X184025006Y-58724999D02*
X183325001Y-58724999D01*
D35*
X178890000Y-72971405D02*
X178890001Y-71795697D01*
D38*
X188425004Y-54875000D02*
X187875005Y-54325001D01*
X189525004Y-54875000D02*
X188425004Y-54875000D01*
D34*
X184970002Y-68120000D02*
X184975000Y-68115002D01*
D35*
X181889998Y-68120000D02*
X182460000Y-68120000D01*
D36*
X187875004Y-51325000D02*
X188975004Y-51325000D01*
D34*
X170049998Y-55599999D02*
X174550001Y-55599999D01*
D38*
X189525004Y-53375000D02*
X189525004Y-54490000D01*
D34*
X171249997Y-68525002D02*
X171249996Y-69899999D01*
D36*
X188975006Y-64224999D02*
X189699999Y-64224999D01*
X176820000Y-59340000D02*
X175907852Y-59340000D01*
X175058599Y-58490747D02*
X173112500Y-58490747D01*
X172537500Y-57370747D02*
X172537501Y-57370748D01*
X189699999Y-64224999D02*
X189700000Y-64225000D01*
D37*
X192086899Y-56888000D02*
X192586901Y-56888000D01*
D35*
X181889997Y-68119998D02*
X181390001Y-68119999D01*
D36*
X185125002Y-59824998D02*
X185125004Y-59825000D01*
X171859253Y-58490747D02*
X171840000Y-58510000D01*
D37*
X192598901Y-57400000D02*
X192598901Y-56900000D01*
D36*
X176364999Y-61450000D02*
X176820000Y-60994999D01*
X187875011Y-63125004D02*
X188975006Y-64224999D01*
X176180000Y-51750000D02*
X176190000Y-51740000D01*
D35*
X181389996Y-68119994D02*
X181389996Y-69295701D01*
D36*
X180175004Y-51325000D02*
X181275004Y-51325000D01*
D35*
X180890001Y-71295700D02*
X180139999Y-70545700D01*
D36*
X185125004Y-59825000D02*
X184025004Y-59825000D01*
X185125000Y-58724999D02*
X185125002Y-58725001D01*
X182375004Y-54325000D02*
X181275008Y-54325000D01*
X170049998Y-55599999D02*
X169159999Y-55599999D01*
X184975000Y-68115002D02*
X184975000Y-67415000D01*
X182375004Y-54325000D02*
X184575004Y-54325000D01*
X188975004Y-51325000D02*
X188975004Y-52825000D01*
D38*
X189525004Y-54490000D02*
X189525004Y-54875000D01*
D36*
X184025006Y-58724999D02*
X185125000Y-58724999D01*
D35*
X181389996Y-69295701D02*
X180139999Y-70545700D01*
D36*
X187875004Y-63125004D02*
X187875011Y-63125004D01*
X184025004Y-58725001D02*
X184025006Y-58724999D01*
X190490000Y-54490000D02*
X190500000Y-54500000D01*
D34*
X186710000Y-73065001D02*
X186730000Y-73085001D01*
D36*
X176820000Y-60994999D02*
X176820000Y-59340000D01*
X183325001Y-58724999D02*
X183325000Y-58725000D01*
X173112500Y-57945747D02*
X172537501Y-57370748D01*
X186730000Y-73085001D02*
X186730000Y-74030000D01*
X181275008Y-54325000D02*
X181275004Y-54324996D01*
D35*
X177714299Y-71795698D02*
X177714298Y-71795699D01*
D36*
X180175004Y-64224998D02*
X180175004Y-65049996D01*
X175325001Y-51750000D02*
X176180000Y-51750000D01*
D38*
X189525004Y-54490000D02*
X190490000Y-54490000D01*
D36*
X169159999Y-55599999D02*
X169150000Y-55590000D01*
X174550001Y-55599999D02*
X174550001Y-56319999D01*
D38*
X188975004Y-52825000D02*
X189525004Y-53375000D01*
D35*
X179610000Y-63240000D02*
X180060004Y-63240000D01*
X180060004Y-63240000D02*
X180175004Y-63125000D01*
X179389998Y-68120000D02*
X179389998Y-63460002D01*
X179389998Y-63460002D02*
X179610000Y-63240000D01*
D34*
X179705002Y-74940001D02*
X179695001Y-74930000D01*
D37*
X191586900Y-56887999D02*
X191586900Y-58411999D01*
D36*
X184450000Y-71514999D02*
X185230000Y-71514999D01*
X181142498Y-75752498D02*
X181160000Y-75770000D01*
D34*
X182375002Y-64225001D02*
X182375002Y-64974998D01*
D35*
X177714299Y-72965701D02*
X177710000Y-72970000D01*
X191586900Y-56887999D02*
X191586900Y-56411900D01*
X185230000Y-70950000D02*
X185230000Y-71514999D01*
D34*
X192350000Y-65075000D02*
X193135000Y-65075000D01*
D37*
X192086899Y-58412000D02*
X192086900Y-58412001D01*
D34*
X186730000Y-71534999D02*
X185250000Y-71534999D01*
D35*
X191586900Y-56411900D02*
X191575000Y-56400000D01*
D34*
X193135000Y-65075000D02*
X193140000Y-65080000D01*
X182375002Y-64974998D02*
X182375000Y-64975000D01*
D35*
X182565700Y-70795700D02*
X185075700Y-70795700D01*
D36*
X182375002Y-64225001D02*
X182375002Y-63125002D01*
D37*
X191586900Y-58411999D02*
X191586901Y-58412000D01*
D34*
X181275004Y-64949996D02*
X181275000Y-64950000D01*
D35*
X185075700Y-70795700D02*
X185230000Y-70950000D01*
D36*
X170775000Y-52550000D02*
X170775000Y-51750000D01*
D35*
X191325000Y-63300000D02*
X191324902Y-63299902D01*
D36*
X182375002Y-63125002D02*
X182375004Y-63125000D01*
X170725000Y-52600000D02*
X170775000Y-52550000D01*
D34*
X181275004Y-64225001D02*
X181275004Y-64949996D01*
D35*
X177714299Y-72295699D02*
X177714299Y-72965701D01*
X179035001Y-74270000D02*
X179695001Y-74930000D01*
D37*
X191586899Y-56888000D02*
X191586900Y-56887999D01*
D36*
X179695001Y-75804999D02*
X179695001Y-74930000D01*
D34*
X181142498Y-74940001D02*
X179705002Y-74940001D01*
D37*
X191586901Y-58412000D02*
X192086899Y-58412000D01*
X191086900Y-56888000D02*
X191586899Y-56888000D01*
D34*
X192350000Y-66400000D02*
X193100000Y-66400000D01*
D35*
X191324902Y-63299902D02*
X191324902Y-62648601D01*
D34*
X193100000Y-66400000D02*
X193110000Y-66410000D01*
D35*
X178910000Y-74270000D02*
X179035001Y-74270000D01*
D34*
X192350000Y-65075000D02*
X192350000Y-66400000D01*
D36*
X181142498Y-74940001D02*
X181142498Y-75752498D01*
X181275004Y-64225001D02*
X182375002Y-64225001D01*
D34*
X185250000Y-71534999D02*
X185230000Y-71514999D01*
D35*
X180890000Y-67480000D02*
X181530000Y-66840000D01*
X181925000Y-66100000D02*
X182150000Y-66325000D01*
X181530000Y-66840000D02*
X181530000Y-66105001D01*
X182150000Y-66325000D02*
X182150000Y-67000000D01*
X180890000Y-68120001D02*
X180890000Y-67480000D01*
X181524999Y-66100000D02*
X181514999Y-66100000D01*
X181530000Y-66105001D02*
X181524999Y-66100000D01*
X181524999Y-66100000D02*
X181925000Y-66100000D01*
X172900000Y-68424998D02*
X172799999Y-68524999D01*
X172900000Y-67500000D02*
X172900000Y-68424998D01*
D34*
X171295003Y-71404998D02*
X172800001Y-69900000D01*
X171247495Y-71404998D02*
X171295003Y-71404998D01*
D35*
X180389999Y-68119999D02*
X180389999Y-67280001D01*
X179752400Y-73690000D02*
X179889999Y-73552401D01*
X178390000Y-73680000D02*
X178380000Y-73690000D01*
X178390000Y-72971400D02*
X178390000Y-73680000D01*
X171247495Y-71404998D02*
X171247495Y-71422495D01*
X179889999Y-73552401D02*
X179889999Y-72971401D01*
D34*
X172799999Y-68525002D02*
X172800000Y-69899996D01*
D35*
X173515000Y-73690000D02*
X178380000Y-73690000D01*
X178380000Y-73690000D02*
X179752400Y-73690000D01*
X180389999Y-67280001D02*
X180400000Y-67270000D01*
X171247495Y-71422495D02*
X173515000Y-73690000D01*
D36*
X176689250Y-64090750D02*
X176690000Y-64090000D01*
D35*
X179889996Y-68120001D02*
X179889996Y-66700004D01*
X179889996Y-66700004D02*
X179900000Y-66690000D01*
D36*
X176690000Y-64090000D02*
X176690000Y-61810000D01*
X173112500Y-64090750D02*
X176689250Y-64090750D01*
D34*
X169670000Y-63640000D02*
X170120750Y-64090750D01*
X173112500Y-59290750D02*
X170099250Y-59290750D01*
X169670000Y-59720000D02*
X169670000Y-63640000D01*
X170099250Y-59290750D02*
X169670000Y-59720000D01*
D36*
X176950000Y-61550000D02*
X177975000Y-61550000D01*
X176690000Y-61810000D02*
X176950000Y-61550000D01*
D34*
X170120750Y-64090750D02*
X173112500Y-64090750D01*
X191075000Y-69612505D02*
X191037505Y-69650000D01*
X191075000Y-68225000D02*
X191075000Y-69612505D01*
D35*
X172822499Y-71377501D02*
X172822499Y-71405000D01*
X174404301Y-69795699D02*
X172822499Y-71377501D01*
X177714300Y-69795699D02*
X174404301Y-69795699D01*
X182565699Y-68795701D02*
X184755701Y-68795701D01*
X184975000Y-69015000D02*
X184975000Y-69765002D01*
X184755701Y-68795701D02*
X184975000Y-69015000D01*
X183500000Y-69800000D02*
X183495699Y-69795699D01*
X187640006Y-65090000D02*
X188345000Y-65090000D01*
D37*
X190825003Y-61149997D02*
X191324900Y-61149997D01*
D35*
X186775003Y-64224997D02*
X187640006Y-65090000D01*
X183495699Y-69795699D02*
X182565699Y-69795699D01*
X190685000Y-65090000D02*
X190700000Y-65075000D01*
X188360000Y-65770000D02*
X188360000Y-65095000D01*
D37*
X190700000Y-65075000D02*
X190700000Y-61275000D01*
X191324900Y-61149997D02*
X191324900Y-59299900D01*
X191086899Y-59061899D02*
X191086899Y-58412000D01*
D35*
X188355000Y-65090000D02*
X190685000Y-65090000D01*
X188360000Y-65095000D02*
X188355000Y-65090000D01*
X188360000Y-65770000D02*
X188350000Y-65760000D01*
D37*
X191324900Y-59299900D02*
X191086899Y-59061899D01*
X190700000Y-61275000D02*
X190825003Y-61149997D01*
D35*
X183960000Y-69300000D02*
X183955701Y-69295701D01*
X183955701Y-69295701D02*
X182565699Y-69295701D01*
X185625000Y-64275004D02*
X185675004Y-64225000D01*
X185625000Y-65225000D02*
X185625000Y-64275004D01*
X178890000Y-66860000D02*
X178870000Y-66840000D01*
X171790751Y-60440751D02*
X171780000Y-60430000D01*
X178890000Y-68120000D02*
X178890000Y-66860000D01*
X173112499Y-60440751D02*
X171790751Y-60440751D01*
X182497600Y-73552400D02*
X181562998Y-73552400D01*
X184900000Y-61100000D02*
X185075000Y-61100000D01*
X185075000Y-61100000D02*
X185675004Y-61700004D01*
X181562998Y-73552400D02*
X181389998Y-73379400D01*
X182500000Y-73550000D02*
X182497600Y-73552400D01*
X185675004Y-61700004D02*
X185675004Y-62025000D01*
X181389998Y-73379400D02*
X181389998Y-72971400D01*
X180390003Y-72971399D02*
X180380000Y-72981401D01*
X180390002Y-72971399D02*
X180390002Y-73730002D01*
X182690000Y-74090000D02*
X182717502Y-74117502D01*
X180390002Y-73730002D02*
X180750000Y-74090000D01*
X180750000Y-74090000D02*
X182690000Y-74090000D01*
X182717502Y-74117502D02*
X182717502Y-74939999D01*
X178370000Y-66310000D02*
X178400000Y-66280000D01*
X178390000Y-68120000D02*
X178370000Y-68100000D01*
X173112500Y-63440750D02*
X171870750Y-63440750D01*
X171870750Y-63440750D02*
X171870000Y-63440000D01*
X178370000Y-68100000D02*
X178370000Y-66310000D01*
D37*
X191525000Y-64825000D02*
X192700000Y-63650000D01*
D35*
X187930000Y-69850000D02*
X187340000Y-70440000D01*
X186200000Y-65700000D02*
X186900000Y-66400000D01*
X183312893Y-70440000D02*
X183168590Y-70295697D01*
D37*
X192700000Y-61199998D02*
X192650001Y-61149999D01*
X192700000Y-63650000D02*
X192700000Y-61199998D01*
X185675004Y-63125002D02*
X186200000Y-63649998D01*
D35*
X187930000Y-66400000D02*
X187930000Y-69850000D01*
D37*
X191525000Y-65575000D02*
X191525000Y-64825000D01*
D35*
X190700000Y-66400000D02*
X186900000Y-66400000D01*
D37*
X192125000Y-59375000D02*
X192586900Y-58913100D01*
D35*
X187340000Y-70440000D02*
X183312893Y-70440000D01*
D37*
X186200000Y-63649998D02*
X186200000Y-65700000D01*
X190700000Y-66400000D02*
X191525000Y-65575000D01*
X192125000Y-61149999D02*
X192125000Y-59375000D01*
X192586900Y-58913100D02*
X192586900Y-58412000D01*
X192650001Y-61149999D02*
X192125000Y-61149999D01*
D35*
X183168590Y-70295697D02*
X182565698Y-70295697D01*
X185020000Y-56200000D02*
X185250000Y-55970000D01*
X184350000Y-56200000D02*
X185020000Y-56200000D01*
X187330005Y-55970000D02*
X187875005Y-55425000D01*
X185250000Y-55970000D02*
X187330005Y-55970000D01*
X186775004Y-61900004D02*
X186775004Y-63125000D01*
X185850000Y-60975000D02*
X186775004Y-61900004D01*
X187320001Y-57080000D02*
X187874999Y-56525002D01*
X185590000Y-57080000D02*
X187320001Y-57080000D01*
X185290000Y-56780000D02*
X185590000Y-57080000D01*
D36*
X173121746Y-62450000D02*
X173112498Y-62440752D01*
X174170000Y-62400000D02*
X174129248Y-62440752D01*
X175702500Y-62400000D02*
X175652500Y-62450000D01*
X175652500Y-62450000D02*
X173121746Y-62450000D01*
X174010747Y-61440747D02*
X174170000Y-61600000D01*
X173112502Y-61440747D02*
X174010747Y-61440747D01*
X174170000Y-61600000D02*
X174170000Y-62400000D01*
X174129248Y-62440752D02*
X173112498Y-62440752D01*
X174690000Y-60500000D02*
X175600000Y-60500000D01*
X172309250Y-60940750D02*
X172150000Y-61100000D01*
X172260747Y-61940747D02*
X173112500Y-61940747D01*
X174249250Y-60940750D02*
X174690000Y-60500000D01*
X172150000Y-61830000D02*
X172260747Y-61940747D01*
X175600000Y-60500000D02*
X175700000Y-60600000D01*
X173112499Y-60940750D02*
X172309250Y-60940750D01*
X172150000Y-61100000D02*
X172150000Y-61830000D01*
X173112499Y-60940750D02*
X174249250Y-60940750D01*
D35*
X187225000Y-67750736D02*
X184575005Y-65100741D01*
X187225000Y-69650000D02*
X187225000Y-67750736D01*
X184575005Y-65100741D02*
X184575005Y-64225003D01*
X186225000Y-67350000D02*
X184125000Y-65250000D01*
X182900000Y-62550000D02*
X182375000Y-62025000D01*
X182900000Y-64550000D02*
X182900000Y-62550000D01*
X186225000Y-69650000D02*
X186225000Y-67350000D01*
X183600000Y-65250000D02*
X182900000Y-64550000D01*
X184125000Y-65250000D02*
X183600000Y-65250000D01*
X182375000Y-62025000D02*
X181275003Y-62025000D01*
X189899999Y-62025001D02*
X188975003Y-62025001D01*
X189425000Y-68225000D02*
X189425000Y-67700000D01*
X189425000Y-67700000D02*
X189025000Y-67300000D01*
X189900000Y-62025000D02*
X189899999Y-62025001D01*
D36*
X178910000Y-62400000D02*
X179285000Y-62025000D01*
X177977500Y-62400000D02*
X178910000Y-62400000D01*
X179285000Y-62025000D02*
X180175000Y-62025000D01*
X177977500Y-60500000D02*
X178940000Y-60500000D01*
X179365000Y-60925000D02*
X180175004Y-60925000D01*
X178940000Y-60500000D02*
X179365000Y-60925000D01*
G04 #@! TA.AperFunction,Conductor*
G36*
X179075644Y-50124721D02*
G01*
X179133780Y-50143792D01*
X179169605Y-50193392D01*
X179174363Y-50224356D01*
X179149999Y-54024999D01*
X179150000Y-54025000D01*
X179575171Y-54023570D01*
X179633425Y-54042281D01*
X179669555Y-54091660D01*
X179674504Y-54122569D01*
X179674504Y-54490500D01*
X179655597Y-54548691D01*
X179606097Y-54584655D01*
X179575504Y-54589500D01*
X179220435Y-54589500D01*
X179144014Y-54609977D01*
X179144010Y-54609979D01*
X179083788Y-54644748D01*
X179075489Y-54649539D01*
X179034524Y-54690504D01*
X178980007Y-54718281D01*
X178964521Y-54719500D01*
X178915225Y-54719500D01*
X178790933Y-54755995D01*
X178790926Y-54755998D01*
X178681952Y-54826031D01*
X178597117Y-54923938D01*
X178543302Y-55041774D01*
X178524867Y-55169997D01*
X178524867Y-55170002D01*
X178543302Y-55298225D01*
X178566706Y-55349471D01*
X178597118Y-55416063D01*
X178668522Y-55498469D01*
X178681952Y-55513968D01*
X178769918Y-55570500D01*
X178790931Y-55584004D01*
X178915228Y-55620500D01*
X178915230Y-55620500D01*
X179044770Y-55620500D01*
X179044772Y-55620500D01*
X179169069Y-55584004D01*
X179278049Y-55513967D01*
X179362882Y-55416063D01*
X179416697Y-55298226D01*
X179417952Y-55289500D01*
X179419978Y-55275411D01*
X179446974Y-55220503D01*
X179501088Y-55191950D01*
X179517970Y-55190500D01*
X179575505Y-55190500D01*
X179633696Y-55209407D01*
X179669660Y-55258907D01*
X179674505Y-55289500D01*
X179674505Y-55744745D01*
X179674506Y-55744757D01*
X179682710Y-55785996D01*
X179686138Y-55803230D01*
X179730453Y-55869551D01*
X179730456Y-55869553D01*
X179765073Y-55892684D01*
X179802952Y-55940735D01*
X179805354Y-56001873D01*
X179771360Y-56052746D01*
X179765074Y-56057314D01*
X179730453Y-56080447D01*
X179730449Y-56080451D01*
X179686138Y-56146766D01*
X179686136Y-56146772D01*
X179674505Y-56205241D01*
X179674504Y-56205253D01*
X179674504Y-56844746D01*
X179674505Y-56844758D01*
X179686136Y-56903227D01*
X179686138Y-56903233D01*
X179716653Y-56948901D01*
X179730452Y-56969552D01*
X179730455Y-56969554D01*
X179765072Y-56992685D01*
X179802951Y-57040736D01*
X179805353Y-57101874D01*
X179771359Y-57152747D01*
X179765073Y-57157314D01*
X179730454Y-57180446D01*
X179730447Y-57180453D01*
X179686136Y-57246768D01*
X179686134Y-57246774D01*
X179674503Y-57305243D01*
X179674502Y-57305255D01*
X179674502Y-57944748D01*
X179674503Y-57944760D01*
X179686134Y-58003229D01*
X179686136Y-58003235D01*
X179715211Y-58046748D01*
X179730450Y-58069554D01*
X179765067Y-58092685D01*
X179765069Y-58092686D01*
X179802948Y-58140736D01*
X179805350Y-58201874D01*
X179771357Y-58252748D01*
X179765071Y-58257315D01*
X179730454Y-58280446D01*
X179730449Y-58280451D01*
X179686138Y-58346766D01*
X179686136Y-58346772D01*
X179674505Y-58405241D01*
X179674504Y-58405253D01*
X179674504Y-59044746D01*
X179674505Y-59044758D01*
X179686136Y-59103227D01*
X179686138Y-59103233D01*
X179730213Y-59169195D01*
X179730452Y-59169552D01*
X179765069Y-59192683D01*
X179765071Y-59192684D01*
X179802950Y-59240734D01*
X179805352Y-59301872D01*
X179771359Y-59352746D01*
X179765075Y-59357312D01*
X179759841Y-59360808D01*
X179730451Y-59380447D01*
X179730447Y-59380451D01*
X179686136Y-59446766D01*
X179686134Y-59446772D01*
X179674503Y-59505241D01*
X179674502Y-59505253D01*
X179674502Y-60144746D01*
X179674503Y-60144758D01*
X179686134Y-60203227D01*
X179686136Y-60203233D01*
X179730207Y-60269189D01*
X179730450Y-60269552D01*
X179765071Y-60292685D01*
X179802950Y-60340735D01*
X179805352Y-60401873D01*
X179771359Y-60452746D01*
X179765072Y-60457314D01*
X179730456Y-60480444D01*
X179730449Y-60480451D01*
X179697006Y-60530502D01*
X179648955Y-60568381D01*
X179614691Y-60574500D01*
X179551190Y-60574500D01*
X179492999Y-60555593D01*
X179481187Y-60545504D01*
X179155214Y-60219532D01*
X179155212Y-60219530D01*
X179075288Y-60173386D01*
X178986144Y-60149500D01*
X178986142Y-60149500D01*
X178826188Y-60149500D01*
X178767997Y-60130593D01*
X178756190Y-60120509D01*
X178696483Y-60060802D01*
X178656491Y-60041251D01*
X178591395Y-60009427D01*
X178554742Y-60004087D01*
X178523260Y-59999500D01*
X177431740Y-59999500D01*
X177400258Y-60004087D01*
X177363604Y-60009427D01*
X177258518Y-60060801D01*
X177175801Y-60143518D01*
X177124427Y-60248604D01*
X177121375Y-60269552D01*
X177114500Y-60316740D01*
X177114500Y-60683260D01*
X177119295Y-60716168D01*
X177124427Y-60751395D01*
X177172877Y-60850500D01*
X177175802Y-60856483D01*
X177224317Y-60904998D01*
X177252093Y-60959513D01*
X177242522Y-61019945D01*
X177224318Y-61045000D01*
X177175802Y-61093517D01*
X177151132Y-61143981D01*
X177108588Y-61187955D01*
X177062191Y-61199500D01*
X176903856Y-61199500D01*
X176881587Y-61205467D01*
X176852196Y-61213342D01*
X176852195Y-61213341D01*
X176814715Y-61223384D01*
X176777715Y-61244746D01*
X176739616Y-61266743D01*
X176734785Y-61269532D01*
X176726459Y-61277858D01*
X176671941Y-61305634D01*
X176611510Y-61296060D01*
X176568247Y-61252794D01*
X176558492Y-61222122D01*
X176555087Y-61198750D01*
X176503785Y-61093811D01*
X176455331Y-61045357D01*
X176427554Y-60990840D01*
X176437125Y-60930408D01*
X176455328Y-60905352D01*
X176504198Y-60856483D01*
X176555573Y-60751393D01*
X176565500Y-60683260D01*
X176565500Y-60316740D01*
X176555573Y-60248607D01*
X176548448Y-60234033D01*
X176517847Y-60171437D01*
X176504198Y-60143517D01*
X176421483Y-60060802D01*
X176381491Y-60041251D01*
X176316395Y-60009427D01*
X176279742Y-60004087D01*
X176248260Y-59999500D01*
X175156740Y-59999500D01*
X175125258Y-60004087D01*
X175088604Y-60009427D01*
X174983518Y-60060801D01*
X174983517Y-60060801D01*
X174983517Y-60060802D01*
X174923813Y-60120505D01*
X174869299Y-60148281D01*
X174853812Y-60149500D01*
X174643856Y-60149500D01*
X174554712Y-60173386D01*
X174503016Y-60203233D01*
X174474785Y-60219532D01*
X174133063Y-60561254D01*
X174078547Y-60589031D01*
X174063060Y-60590250D01*
X173986999Y-60590250D01*
X173928808Y-60571343D01*
X173892844Y-60521843D01*
X173887999Y-60491250D01*
X173887999Y-60271004D01*
X173887998Y-60270994D01*
X173875878Y-60210069D01*
X173875878Y-60171437D01*
X173887999Y-60110506D01*
X173888000Y-60110496D01*
X173888000Y-59771003D01*
X173887998Y-59770991D01*
X173875879Y-59710065D01*
X173875879Y-59671435D01*
X173887998Y-59610508D01*
X173888000Y-59610496D01*
X173888000Y-58971003D01*
X173887999Y-58970994D01*
X173879895Y-58930257D01*
X173876367Y-58912519D01*
X173876365Y-58912517D01*
X173875623Y-58908783D01*
X173875623Y-58870151D01*
X173887499Y-58810452D01*
X173887500Y-58810444D01*
X173887500Y-58590748D01*
X173887499Y-58590747D01*
X172337501Y-58590747D01*
X172337500Y-58590748D01*
X172337500Y-58741250D01*
X172318593Y-58799441D01*
X172269093Y-58835405D01*
X172238500Y-58840250D01*
X170039941Y-58840250D01*
X170017743Y-58846198D01*
X169949575Y-58864463D01*
X169949574Y-58864462D01*
X169925362Y-58870951D01*
X169925359Y-58870952D01*
X169822640Y-58930257D01*
X169309507Y-59443390D01*
X169250200Y-59546112D01*
X169250200Y-59546113D01*
X169250201Y-59546114D01*
X169219500Y-59660691D01*
X169219500Y-63699309D01*
X169225325Y-63721049D01*
X169241240Y-63780447D01*
X169250200Y-63813886D01*
X169250202Y-63813890D01*
X169309507Y-63916609D01*
X169309508Y-63916610D01*
X169309509Y-63916611D01*
X169309511Y-63916614D01*
X169844136Y-64451240D01*
X169946863Y-64510549D01*
X169965203Y-64515463D01*
X169965206Y-64515465D01*
X169965207Y-64515464D01*
X170061441Y-64541250D01*
X172238503Y-64541250D01*
X172296694Y-64560157D01*
X172332658Y-64609657D01*
X172337503Y-64640250D01*
X172337503Y-64790752D01*
X172337504Y-64790753D01*
X173887502Y-64790753D01*
X173887503Y-64790752D01*
X173887503Y-64571055D01*
X173887501Y-64571045D01*
X173885218Y-64559561D01*
X173892411Y-64498800D01*
X173933945Y-64453871D01*
X173982316Y-64441250D01*
X176372298Y-64441250D01*
X176425821Y-64456966D01*
X176449137Y-64471950D01*
X176500181Y-64504754D01*
X176624478Y-64541250D01*
X176624480Y-64541250D01*
X176754020Y-64541250D01*
X176754022Y-64541250D01*
X176878319Y-64504754D01*
X176987299Y-64434717D01*
X177072132Y-64336813D01*
X177125947Y-64218976D01*
X177144383Y-64090750D01*
X177125947Y-63962524D01*
X177072132Y-63844687D01*
X177070625Y-63842947D01*
X177064679Y-63836085D01*
X177040863Y-63779725D01*
X177040500Y-63771256D01*
X177040500Y-62860188D01*
X177059407Y-62801997D01*
X177108907Y-62766033D01*
X177170093Y-62766033D01*
X177209501Y-62790182D01*
X177258517Y-62839198D01*
X177301453Y-62860188D01*
X177363604Y-62890572D01*
X177363605Y-62890572D01*
X177363607Y-62890573D01*
X177431740Y-62900500D01*
X177431743Y-62900500D01*
X178523257Y-62900500D01*
X178523260Y-62900500D01*
X178591393Y-62890573D01*
X178696483Y-62839198D01*
X178756186Y-62779494D01*
X178810701Y-62751719D01*
X178826188Y-62750500D01*
X178956142Y-62750500D01*
X178956144Y-62750500D01*
X179045288Y-62726614D01*
X179045291Y-62726612D01*
X179054628Y-62721222D01*
X179075597Y-62709114D01*
X179125212Y-62680470D01*
X179330183Y-62475499D01*
X179401187Y-62404496D01*
X179455703Y-62376719D01*
X179471190Y-62375500D01*
X179614687Y-62375500D01*
X179672878Y-62394407D01*
X179697002Y-62419498D01*
X179730448Y-62469552D01*
X179730451Y-62469554D01*
X179765070Y-62492686D01*
X179802949Y-62540736D01*
X179805351Y-62601874D01*
X179771358Y-62652748D01*
X179765071Y-62657316D01*
X179730453Y-62680447D01*
X179730449Y-62680451D01*
X179686138Y-62746766D01*
X179686136Y-62746772D01*
X179674505Y-62805241D01*
X179674504Y-62805253D01*
X179674504Y-62840500D01*
X179655597Y-62898691D01*
X179606097Y-62934655D01*
X179575504Y-62939500D01*
X179570435Y-62939500D01*
X179494013Y-62959978D01*
X179494011Y-62959978D01*
X179494011Y-62959979D01*
X179473277Y-62971950D01*
X179425489Y-62999540D01*
X179425486Y-62999542D01*
X179149537Y-63275491D01*
X179109978Y-63344009D01*
X179109976Y-63344013D01*
X179089498Y-63420437D01*
X179089498Y-66302682D01*
X179070591Y-66360873D01*
X179021091Y-66396837D01*
X178962609Y-66397673D01*
X178927980Y-66387506D01*
X178928729Y-66384951D01*
X178884397Y-66363148D01*
X178855850Y-66309030D01*
X178855540Y-66287081D01*
X178855133Y-66287081D01*
X178855133Y-66279998D01*
X178836697Y-66151774D01*
X178831543Y-66140489D01*
X178782882Y-66033937D01*
X178698049Y-65936033D01*
X178698048Y-65936032D01*
X178698047Y-65936031D01*
X178589073Y-65865998D01*
X178589070Y-65865996D01*
X178589069Y-65865996D01*
X178589066Y-65865995D01*
X178464774Y-65829500D01*
X178464772Y-65829500D01*
X178335228Y-65829500D01*
X178335225Y-65829500D01*
X178210933Y-65865995D01*
X178210926Y-65865998D01*
X178101952Y-65936031D01*
X178017117Y-66033938D01*
X177963302Y-66151774D01*
X177944867Y-66279997D01*
X177944867Y-66280002D01*
X177963302Y-66408225D01*
X178005519Y-66500665D01*
X178017118Y-66526063D01*
X178041742Y-66554481D01*
X178045318Y-66558607D01*
X178069137Y-66614966D01*
X178069500Y-66623439D01*
X178069500Y-67674307D01*
X178067598Y-67693621D01*
X178062500Y-67719249D01*
X178062500Y-68369201D01*
X178043593Y-68427392D01*
X177994093Y-68463356D01*
X177963500Y-68468201D01*
X177313551Y-68468201D01*
X177313550Y-68468201D01*
X177313540Y-68468202D01*
X177255071Y-68479833D01*
X177255065Y-68479835D01*
X177188750Y-68524146D01*
X177188744Y-68524152D01*
X177144433Y-68590467D01*
X177144431Y-68590473D01*
X177132800Y-68648942D01*
X177132799Y-68648954D01*
X177132799Y-68942447D01*
X177132800Y-68942459D01*
X177144431Y-69000930D01*
X177147281Y-69007810D01*
X177152081Y-69068807D01*
X177147283Y-69083575D01*
X177144428Y-69090468D01*
X177132796Y-69148942D01*
X177132795Y-69148954D01*
X177132795Y-69396199D01*
X177113888Y-69454390D01*
X177064388Y-69490354D01*
X177033795Y-69495199D01*
X174364736Y-69495199D01*
X174288315Y-69515676D01*
X174286240Y-69516874D01*
X174229730Y-69549500D01*
X174223822Y-69552910D01*
X174219789Y-69555239D01*
X173619504Y-70155523D01*
X173564988Y-70183300D01*
X173504556Y-70173729D01*
X173461291Y-70130464D01*
X173450501Y-70085519D01*
X173450501Y-69616510D01*
X173439966Y-69549997D01*
X173434720Y-69516874D01*
X173434717Y-69516869D01*
X173434717Y-69516867D01*
X173373530Y-69396782D01*
X173373529Y-69396780D01*
X173279493Y-69302744D01*
X173251718Y-69248230D01*
X173250499Y-69232743D01*
X173250499Y-69192254D01*
X173269406Y-69134063D01*
X173279489Y-69122256D01*
X173373527Y-69028219D01*
X173434718Y-68908125D01*
X173450499Y-68808487D01*
X173450499Y-68241511D01*
X173434718Y-68141873D01*
X173434715Y-68141868D01*
X173434715Y-68141866D01*
X173373528Y-68021781D01*
X173373527Y-68021779D01*
X173278219Y-67926471D01*
X173278216Y-67926469D01*
X173278214Y-67926467D01*
X173272419Y-67922257D01*
X173236453Y-67872758D01*
X173236452Y-67811573D01*
X173255785Y-67777333D01*
X173282882Y-67746063D01*
X173336697Y-67628226D01*
X173346746Y-67558332D01*
X173355133Y-67500002D01*
X173355133Y-67499997D01*
X173336697Y-67371774D01*
X173303919Y-67300002D01*
X173282882Y-67253937D01*
X173198049Y-67156033D01*
X173198048Y-67156032D01*
X173198047Y-67156031D01*
X173089073Y-67085998D01*
X173089070Y-67085996D01*
X173089069Y-67085996D01*
X173089066Y-67085995D01*
X172964774Y-67049500D01*
X172964772Y-67049500D01*
X172835228Y-67049500D01*
X172835225Y-67049500D01*
X172710933Y-67085995D01*
X172710926Y-67085998D01*
X172601952Y-67156031D01*
X172517117Y-67253938D01*
X172463302Y-67371774D01*
X172444867Y-67499997D01*
X172444867Y-67500002D01*
X172463302Y-67628225D01*
X172463302Y-67628227D01*
X172508689Y-67727609D01*
X172515664Y-67788395D01*
X172485577Y-67841672D01*
X172449230Y-67862889D01*
X172441870Y-67865280D01*
X172321781Y-67926469D01*
X172226469Y-68021781D01*
X172165282Y-68141866D01*
X172165280Y-68141873D01*
X172149499Y-68241509D01*
X172149499Y-68808488D01*
X172165280Y-68908124D01*
X172165282Y-68908131D01*
X172226469Y-69028216D01*
X172226471Y-69028219D01*
X172320504Y-69122252D01*
X172348280Y-69176767D01*
X172349499Y-69192254D01*
X172349499Y-69232747D01*
X172330592Y-69290938D01*
X172320508Y-69302744D01*
X172262502Y-69360751D01*
X172226471Y-69396782D01*
X172165284Y-69516867D01*
X172165282Y-69516874D01*
X172149501Y-69616510D01*
X172149501Y-69872388D01*
X172130594Y-69930579D01*
X172120504Y-69942392D01*
X172051450Y-70011445D01*
X171996933Y-70039222D01*
X171936501Y-70029650D01*
X171911443Y-70011445D01*
X171899998Y-70000000D01*
X170600001Y-70000000D01*
X170600000Y-70000001D01*
X170600000Y-70183453D01*
X170599999Y-70183453D01*
X170615759Y-70282965D01*
X170615761Y-70282969D01*
X170676880Y-70402921D01*
X170772077Y-70498118D01*
X170898973Y-70562776D01*
X170898251Y-70564191D01*
X170940452Y-70594848D01*
X170959362Y-70653038D01*
X170940458Y-70711230D01*
X170902972Y-70738476D01*
X170904518Y-70741509D01*
X170779245Y-70805339D01*
X170685336Y-70899248D01*
X170625045Y-71017574D01*
X170625044Y-71017578D01*
X170609495Y-71115749D01*
X170609495Y-71694246D01*
X170619861Y-71759693D01*
X170620784Y-71765524D01*
X170625044Y-71792417D01*
X170625045Y-71792421D01*
X170675200Y-71890854D01*
X170685337Y-71910749D01*
X170779244Y-72004656D01*
X170897575Y-72064949D01*
X170964125Y-72075489D01*
X170995746Y-72080498D01*
X170995749Y-72080498D01*
X171439519Y-72080498D01*
X171497710Y-72099405D01*
X171509523Y-72109494D01*
X173274540Y-73874511D01*
X173274539Y-73874511D01*
X173330489Y-73930460D01*
X173399007Y-73970019D01*
X173399011Y-73970021D01*
X173475435Y-73990499D01*
X173475437Y-73990500D01*
X173475438Y-73990500D01*
X173554562Y-73990500D01*
X178340438Y-73990500D01*
X178388340Y-73990500D01*
X178446531Y-74009407D01*
X178482495Y-74058907D01*
X178482495Y-74120093D01*
X178478394Y-74130625D01*
X178473302Y-74141774D01*
X178469231Y-74170090D01*
X178442235Y-74224997D01*
X178388120Y-74253550D01*
X178371239Y-74255000D01*
X178245000Y-74255000D01*
X178244999Y-74255001D01*
X178244999Y-74829999D01*
X178245000Y-74830000D01*
X178794997Y-74830000D01*
X178794998Y-74829999D01*
X178794998Y-74819500D01*
X178813905Y-74761309D01*
X178863405Y-74725345D01*
X178893998Y-74720500D01*
X178945501Y-74720500D01*
X179003692Y-74739407D01*
X179039656Y-74788907D01*
X179044501Y-74819500D01*
X179044501Y-75213489D01*
X179060282Y-75313125D01*
X179060284Y-75313132D01*
X179121471Y-75433217D01*
X179121473Y-75433220D01*
X179216781Y-75528528D01*
X179220877Y-75530615D01*
X179264141Y-75573878D01*
X179273713Y-75634310D01*
X179265987Y-75659946D01*
X179258305Y-75676768D01*
X179258302Y-75676777D01*
X179239868Y-75804996D01*
X179239868Y-75805003D01*
X179254376Y-75905915D01*
X179243942Y-75966204D01*
X179200064Y-76008846D01*
X179148617Y-76018698D01*
X178879245Y-75997498D01*
X178874090Y-75996956D01*
X178124024Y-75898208D01*
X178118905Y-75897397D01*
X177375052Y-75759532D01*
X177369982Y-75758455D01*
X176634328Y-75581840D01*
X176629321Y-75580498D01*
X175903936Y-75365629D01*
X175899007Y-75364027D01*
X175473800Y-75213453D01*
X177494999Y-75213453D01*
X177510759Y-75312965D01*
X177510761Y-75312969D01*
X177571880Y-75432921D01*
X177667077Y-75528118D01*
X177787029Y-75589237D01*
X177787028Y-75589237D01*
X177886544Y-75604999D01*
X178044999Y-75604999D01*
X178044999Y-75030001D01*
X178244999Y-75030001D01*
X178244999Y-75604998D01*
X178245000Y-75604999D01*
X178403452Y-75604999D01*
X178502964Y-75589239D01*
X178502968Y-75589237D01*
X178622920Y-75528118D01*
X178718117Y-75432921D01*
X178779236Y-75312969D01*
X178794999Y-75213453D01*
X178794999Y-75030001D01*
X178794998Y-75030000D01*
X178245000Y-75030000D01*
X178244999Y-75030001D01*
X178044999Y-75030001D01*
X178044998Y-75030000D01*
X177495001Y-75030000D01*
X177495000Y-75030001D01*
X177495000Y-75213453D01*
X177494999Y-75213453D01*
X175473800Y-75213453D01*
X175185880Y-75111495D01*
X175181042Y-75109638D01*
X174482085Y-74820122D01*
X174477349Y-74818014D01*
X174474514Y-74816662D01*
X174283065Y-74725345D01*
X174117860Y-74646546D01*
X177494999Y-74646546D01*
X177494999Y-74829999D01*
X177495000Y-74830000D01*
X178044998Y-74830000D01*
X178044999Y-74829999D01*
X178044999Y-74255001D01*
X178044998Y-74255000D01*
X177886546Y-74255000D01*
X177886545Y-74255001D01*
X177787033Y-74270760D01*
X177787029Y-74270762D01*
X177667077Y-74331881D01*
X177571880Y-74427078D01*
X177510761Y-74547030D01*
X177494999Y-74646546D01*
X174117860Y-74646546D01*
X173794506Y-74492313D01*
X173789888Y-74489960D01*
X173220495Y-74180806D01*
X173125010Y-74128962D01*
X173120529Y-74126374D01*
X173110279Y-74120093D01*
X172570802Y-73789500D01*
X172475499Y-73731098D01*
X172471152Y-73728276D01*
X172201459Y-73542922D01*
X171847636Y-73299746D01*
X171843468Y-73296717D01*
X171243259Y-72836160D01*
X171239231Y-72832898D01*
X170663961Y-72341571D01*
X170660109Y-72338103D01*
X170111332Y-71817333D01*
X170107667Y-71813668D01*
X169586897Y-71264891D01*
X169583429Y-71261039D01*
X169113848Y-70711230D01*
X169092100Y-70685766D01*
X169088840Y-70681741D01*
X169087857Y-70680460D01*
X168628278Y-70081526D01*
X168625259Y-70077371D01*
X168196722Y-69453845D01*
X168193902Y-69449501D01*
X167801066Y-68808452D01*
X170599997Y-68808452D01*
X170615757Y-68907964D01*
X170615759Y-68907968D01*
X170676878Y-69027920D01*
X170772075Y-69123117D01*
X170774380Y-69124292D01*
X170776207Y-69126119D01*
X170778376Y-69127695D01*
X170778126Y-69128038D01*
X170817643Y-69167558D01*
X170827213Y-69227991D01*
X170799433Y-69282506D01*
X170774381Y-69300708D01*
X170772076Y-69301882D01*
X170676880Y-69397078D01*
X170615761Y-69517030D01*
X170599999Y-69616546D01*
X170599999Y-69799999D01*
X170600000Y-69800000D01*
X171149998Y-69800000D01*
X171149999Y-69799999D01*
X171149999Y-69202015D01*
X171149997Y-69201990D01*
X171149997Y-68625000D01*
X171349997Y-68625000D01*
X171349997Y-69222983D01*
X171349999Y-69223009D01*
X171349999Y-69799999D01*
X171350000Y-69800000D01*
X171899997Y-69800000D01*
X171899998Y-69799999D01*
X171899998Y-69616546D01*
X171884238Y-69517034D01*
X171884236Y-69517030D01*
X171823117Y-69397078D01*
X171727919Y-69301880D01*
X171725611Y-69300704D01*
X171723781Y-69298874D01*
X171721620Y-69297304D01*
X171721868Y-69296961D01*
X171682350Y-69257436D01*
X171672783Y-69197003D01*
X171700565Y-69142489D01*
X171725626Y-69124284D01*
X171727921Y-69123114D01*
X171823115Y-69027920D01*
X171884234Y-68907968D01*
X171899997Y-68808452D01*
X171899997Y-68625000D01*
X171899996Y-68624999D01*
X171349998Y-68624999D01*
X171349997Y-68625000D01*
X171149997Y-68625000D01*
X171149996Y-68624999D01*
X170599999Y-68624999D01*
X170599998Y-68625000D01*
X170599998Y-68808452D01*
X170599997Y-68808452D01*
X167801066Y-68808452D01*
X167798615Y-68804452D01*
X167796045Y-68800002D01*
X167492828Y-68241545D01*
X170599997Y-68241545D01*
X170599997Y-68424998D01*
X170599998Y-68424999D01*
X171149996Y-68424999D01*
X171149997Y-68424998D01*
X171149997Y-67850000D01*
X171349997Y-67850000D01*
X171349997Y-68424998D01*
X171349998Y-68424999D01*
X171899995Y-68424999D01*
X171899996Y-68424998D01*
X171899996Y-68241545D01*
X171884236Y-68142033D01*
X171884234Y-68142029D01*
X171823115Y-68022077D01*
X171727918Y-67926880D01*
X171607966Y-67865761D01*
X171607967Y-67865761D01*
X171508451Y-67849999D01*
X171349998Y-67849999D01*
X171349997Y-67850000D01*
X171149997Y-67850000D01*
X171149996Y-67849999D01*
X170991544Y-67849999D01*
X170991543Y-67850000D01*
X170892031Y-67865759D01*
X170892027Y-67865761D01*
X170772075Y-67926880D01*
X170676878Y-68022077D01*
X170615759Y-68142029D01*
X170599997Y-68241545D01*
X167492828Y-68241545D01*
X167478417Y-68215003D01*
X167435040Y-68135112D01*
X167432687Y-68130494D01*
X167331562Y-67918482D01*
X167106976Y-67447629D01*
X167104878Y-67442915D01*
X167098793Y-67428225D01*
X166846125Y-66818226D01*
X166815362Y-66743958D01*
X166813505Y-66739120D01*
X166806675Y-66719834D01*
X166594318Y-66120156D01*
X166560973Y-66025993D01*
X166559371Y-66021064D01*
X166526695Y-65910753D01*
X167243677Y-65910753D01*
X167653712Y-65910753D01*
X167637500Y-65971257D01*
X167637500Y-66050249D01*
X167653712Y-66110753D01*
X167243678Y-66110753D01*
X167264401Y-66214934D01*
X167264401Y-66214936D01*
X167317166Y-66342324D01*
X167393771Y-66456973D01*
X167491279Y-66554481D01*
X167605928Y-66631086D01*
X167733316Y-66683851D01*
X167868555Y-66710752D01*
X167868557Y-66710753D01*
X168437499Y-66710753D01*
X168437500Y-66710752D01*
X168437500Y-66310753D01*
X168637500Y-66310753D01*
X168637500Y-66710752D01*
X168637501Y-66710753D01*
X169206443Y-66710753D01*
X169206444Y-66710752D01*
X169341683Y-66683851D01*
X169469071Y-66631086D01*
X169583720Y-66554481D01*
X169681228Y-66456973D01*
X169757833Y-66342324D01*
X169810598Y-66214936D01*
X169810598Y-66214934D01*
X169831322Y-66110753D01*
X169421288Y-66110753D01*
X169437500Y-66050249D01*
X169437500Y-65971257D01*
X169421288Y-65910753D01*
X169831322Y-65910753D01*
X169831322Y-65910752D01*
X171443679Y-65910752D01*
X171853714Y-65910752D01*
X171837502Y-65971256D01*
X171837502Y-66050248D01*
X171853714Y-66110752D01*
X171443680Y-66110752D01*
X171464403Y-66214933D01*
X171464403Y-66214935D01*
X171517168Y-66342323D01*
X171593773Y-66456972D01*
X171691281Y-66554480D01*
X171805930Y-66631085D01*
X171933318Y-66683850D01*
X172068557Y-66710751D01*
X172068559Y-66710752D01*
X172437501Y-66710752D01*
X172437502Y-66710751D01*
X172437502Y-66310752D01*
X172637502Y-66310752D01*
X172637502Y-66710751D01*
X172637503Y-66710752D01*
X173006445Y-66710752D01*
X173006446Y-66710751D01*
X173141685Y-66683850D01*
X173269073Y-66631085D01*
X173383722Y-66554480D01*
X173481230Y-66456972D01*
X173557835Y-66342323D01*
X173610600Y-66214935D01*
X173610600Y-66214933D01*
X173631324Y-66110752D01*
X173221290Y-66110752D01*
X173237502Y-66050248D01*
X173237502Y-65971256D01*
X173221290Y-65910752D01*
X173631324Y-65910752D01*
X173610600Y-65806570D01*
X173610600Y-65806568D01*
X173557835Y-65679180D01*
X173481230Y-65564531D01*
X173476456Y-65559757D01*
X173448679Y-65505240D01*
X173458250Y-65444808D01*
X173501515Y-65401543D01*
X173546460Y-65390753D01*
X173707200Y-65390753D01*
X173707203Y-65390752D01*
X173765539Y-65379149D01*
X173831692Y-65334946D01*
X173831696Y-65334942D01*
X173875899Y-65268789D01*
X173887502Y-65210453D01*
X173887503Y-65210450D01*
X173887503Y-64990754D01*
X173887502Y-64990753D01*
X172337504Y-64990753D01*
X172337503Y-64990754D01*
X172337503Y-65211752D01*
X172318596Y-65269943D01*
X172269096Y-65305907D01*
X172238503Y-65310752D01*
X172068557Y-65310752D01*
X171933318Y-65337653D01*
X171805930Y-65390418D01*
X171691281Y-65467023D01*
X171593773Y-65564531D01*
X171517168Y-65679180D01*
X171464403Y-65806568D01*
X171464403Y-65806570D01*
X171443679Y-65910752D01*
X169831322Y-65910752D01*
X169810598Y-65806571D01*
X169810598Y-65806569D01*
X169757833Y-65679181D01*
X169681228Y-65564532D01*
X169583720Y-65467024D01*
X169469071Y-65390419D01*
X169341683Y-65337654D01*
X169206444Y-65310753D01*
X168637501Y-65310753D01*
X168637500Y-65310754D01*
X168637500Y-65710753D01*
X168437500Y-65710753D01*
X168437500Y-65310754D01*
X168437499Y-65310753D01*
X167868555Y-65310753D01*
X167733316Y-65337654D01*
X167605928Y-65390419D01*
X167491279Y-65467024D01*
X167393771Y-65564532D01*
X167317166Y-65679181D01*
X167264401Y-65806569D01*
X167264401Y-65806571D01*
X167243677Y-65910753D01*
X166526695Y-65910753D01*
X166513437Y-65865995D01*
X166344500Y-65295673D01*
X166343160Y-65290672D01*
X166340188Y-65278294D01*
X166166544Y-64555013D01*
X166165468Y-64549948D01*
X166164505Y-64544751D01*
X166027601Y-63806088D01*
X166026792Y-63800976D01*
X165928040Y-63050877D01*
X165927505Y-63045787D01*
X165868145Y-62291540D01*
X165867874Y-62286365D01*
X165865600Y-62199533D01*
X165848069Y-61530057D01*
X165848069Y-61524940D01*
X165867874Y-60768630D01*
X165868145Y-60763457D01*
X165869094Y-60751395D01*
X165927505Y-60009206D01*
X165928040Y-60004124D01*
X166026793Y-59254009D01*
X166027603Y-59248902D01*
X166027748Y-59248124D01*
X166165470Y-58505036D01*
X166166545Y-58499979D01*
X166169530Y-58487546D01*
X166343164Y-57764309D01*
X166344502Y-57759318D01*
X166346300Y-57753251D01*
X166489224Y-57270747D01*
X167243677Y-57270747D01*
X167653712Y-57270747D01*
X167637500Y-57331251D01*
X167637500Y-57410243D01*
X167653712Y-57470747D01*
X167243678Y-57470747D01*
X167264401Y-57574928D01*
X167264401Y-57574930D01*
X167317166Y-57702318D01*
X167393771Y-57816967D01*
X167491279Y-57914475D01*
X167605928Y-57991080D01*
X167733316Y-58043845D01*
X167868555Y-58070746D01*
X167868557Y-58070747D01*
X168437499Y-58070747D01*
X168437500Y-58070746D01*
X168437500Y-57670747D01*
X168637500Y-57670747D01*
X168637500Y-58070746D01*
X168637501Y-58070747D01*
X169206443Y-58070747D01*
X169206444Y-58070746D01*
X169341683Y-58043845D01*
X169469071Y-57991080D01*
X169583720Y-57914475D01*
X169681228Y-57816967D01*
X169757833Y-57702318D01*
X169810598Y-57574930D01*
X169810598Y-57574928D01*
X169831322Y-57470747D01*
X169421288Y-57470747D01*
X169437500Y-57410243D01*
X169437500Y-57331251D01*
X169421288Y-57270748D01*
X171443678Y-57270748D01*
X171853713Y-57270748D01*
X171837501Y-57331252D01*
X171837501Y-57410244D01*
X171853713Y-57470748D01*
X171443679Y-57470748D01*
X171464402Y-57574929D01*
X171464402Y-57574931D01*
X171517167Y-57702319D01*
X171593772Y-57816968D01*
X171691280Y-57914476D01*
X171805929Y-57991081D01*
X171933317Y-58043846D01*
X172068556Y-58070747D01*
X172068558Y-58070748D01*
X172238500Y-58070748D01*
X172296691Y-58089655D01*
X172332655Y-58139155D01*
X172337500Y-58169748D01*
X172337500Y-58390746D01*
X172337501Y-58390747D01*
X173887499Y-58390747D01*
X173887500Y-58390746D01*
X173887500Y-58196546D01*
X176419201Y-58196546D01*
X176419201Y-58343461D01*
X176447861Y-58487545D01*
X176447861Y-58487547D01*
X176504079Y-58623270D01*
X176504079Y-58623271D01*
X176532210Y-58665371D01*
X176585700Y-58745424D01*
X176689581Y-58849305D01*
X176811732Y-58930924D01*
X176947459Y-58987144D01*
X177091546Y-59015804D01*
X177091548Y-59015804D01*
X177238454Y-59015804D01*
X177238456Y-59015804D01*
X177382543Y-58987144D01*
X177518270Y-58930924D01*
X177640421Y-58849305D01*
X177744302Y-58745424D01*
X177825921Y-58623273D01*
X177882141Y-58487546D01*
X177910801Y-58343459D01*
X177910801Y-58196549D01*
X177882141Y-58052462D01*
X177825922Y-57916737D01*
X177825922Y-57916736D01*
X177788783Y-57861154D01*
X177744302Y-57794584D01*
X177640421Y-57690703D01*
X177518270Y-57609084D01*
X177518269Y-57609083D01*
X177518267Y-57609082D01*
X177382543Y-57552864D01*
X177238458Y-57524204D01*
X177238456Y-57524204D01*
X177091546Y-57524204D01*
X177091543Y-57524204D01*
X176947459Y-57552864D01*
X176947457Y-57552864D01*
X176811734Y-57609082D01*
X176811733Y-57609082D01*
X176689581Y-57690703D01*
X176689577Y-57690706D01*
X176585703Y-57794580D01*
X176585700Y-57794584D01*
X176504079Y-57916736D01*
X176504079Y-57916737D01*
X176447861Y-58052460D01*
X176447861Y-58052462D01*
X176419201Y-58196546D01*
X173887500Y-58196546D01*
X173887500Y-58171049D01*
X173887499Y-58171046D01*
X173875896Y-58112710D01*
X173831693Y-58046557D01*
X173831689Y-58046553D01*
X173765536Y-58002350D01*
X173707200Y-57990747D01*
X173546459Y-57990747D01*
X173488268Y-57971840D01*
X173452304Y-57922340D01*
X173452304Y-57861154D01*
X173476455Y-57821743D01*
X173481229Y-57816968D01*
X173557834Y-57702319D01*
X173610599Y-57574931D01*
X173610599Y-57574929D01*
X173631323Y-57470748D01*
X173221289Y-57470748D01*
X173237501Y-57410244D01*
X173237501Y-57331252D01*
X173221289Y-57270748D01*
X173631323Y-57270748D01*
X173610599Y-57166566D01*
X173610599Y-57166564D01*
X173557834Y-57039176D01*
X173531656Y-56999997D01*
X175294867Y-56999997D01*
X175294867Y-57000002D01*
X175313302Y-57128225D01*
X175352963Y-57215068D01*
X175367118Y-57246063D01*
X175440933Y-57331251D01*
X175451952Y-57343968D01*
X175555080Y-57410244D01*
X175560931Y-57414004D01*
X175685228Y-57450500D01*
X175685230Y-57450500D01*
X175814770Y-57450500D01*
X175814772Y-57450500D01*
X175939069Y-57414004D01*
X176048049Y-57343967D01*
X176132882Y-57246063D01*
X176186697Y-57128226D01*
X176198317Y-57047405D01*
X176205133Y-57000002D01*
X176205133Y-56999997D01*
X176186697Y-56871774D01*
X176174354Y-56844748D01*
X176132882Y-56753937D01*
X176048049Y-56656033D01*
X176048048Y-56656032D01*
X176048047Y-56656031D01*
X175939073Y-56585998D01*
X175939070Y-56585996D01*
X175939069Y-56585996D01*
X175939066Y-56585995D01*
X175814774Y-56549500D01*
X175814772Y-56549500D01*
X175685228Y-56549500D01*
X175685225Y-56549500D01*
X175560933Y-56585995D01*
X175560926Y-56585998D01*
X175451952Y-56656031D01*
X175367117Y-56753938D01*
X175313302Y-56871774D01*
X175294867Y-56999997D01*
X173531656Y-56999997D01*
X173481229Y-56924527D01*
X173383721Y-56827019D01*
X173269072Y-56750414D01*
X173141684Y-56697649D01*
X173006445Y-56670748D01*
X172637502Y-56670748D01*
X172637501Y-56670749D01*
X172637501Y-57070748D01*
X172437501Y-57070748D01*
X172437501Y-56670749D01*
X172437500Y-56670748D01*
X172068556Y-56670748D01*
X171933317Y-56697649D01*
X171805929Y-56750414D01*
X171691280Y-56827019D01*
X171593772Y-56924527D01*
X171517167Y-57039176D01*
X171464402Y-57166564D01*
X171464402Y-57166566D01*
X171443678Y-57270748D01*
X169421288Y-57270748D01*
X169421288Y-57270747D01*
X169831322Y-57270747D01*
X169810598Y-57166565D01*
X169810598Y-57166563D01*
X169757833Y-57039175D01*
X169681228Y-56924526D01*
X169583720Y-56827018D01*
X169469071Y-56750413D01*
X169341683Y-56697648D01*
X169206444Y-56670747D01*
X168637501Y-56670747D01*
X168637500Y-56670748D01*
X168637500Y-57070747D01*
X168437500Y-57070747D01*
X168437500Y-56670748D01*
X168437499Y-56670747D01*
X167868555Y-56670747D01*
X167733316Y-56697648D01*
X167605928Y-56750413D01*
X167491279Y-56827018D01*
X167393771Y-56924526D01*
X167317166Y-57039175D01*
X167264401Y-57166563D01*
X167264401Y-57166565D01*
X167243677Y-57270747D01*
X166489224Y-57270747D01*
X166559374Y-57033923D01*
X166560973Y-57029004D01*
X166813514Y-56315853D01*
X166815362Y-56311039D01*
X167068461Y-55700000D01*
X169354698Y-55700000D01*
X169354698Y-55975299D01*
X169366301Y-56033635D01*
X169410504Y-56099788D01*
X169410508Y-56099792D01*
X169476661Y-56143995D01*
X169534997Y-56155598D01*
X169535001Y-56155599D01*
X169949997Y-56155599D01*
X169949998Y-56155598D01*
X169949998Y-55700000D01*
X170149998Y-55700000D01*
X170149998Y-56155598D01*
X170149999Y-56155599D01*
X170564995Y-56155599D01*
X170564998Y-56155598D01*
X170623334Y-56143995D01*
X170689487Y-56099792D01*
X170689491Y-56099788D01*
X170733694Y-56033635D01*
X170745297Y-55975299D01*
X170745298Y-55975296D01*
X170745298Y-55700000D01*
X173854701Y-55700000D01*
X173854701Y-55975299D01*
X173866304Y-56033635D01*
X173910507Y-56099788D01*
X173910511Y-56099792D01*
X173976664Y-56143995D01*
X174035000Y-56155598D01*
X174035004Y-56155599D01*
X174450000Y-56155599D01*
X174450001Y-56155598D01*
X174450001Y-55700000D01*
X174650001Y-55700000D01*
X174650001Y-56155598D01*
X174650002Y-56155599D01*
X175064998Y-56155599D01*
X175065001Y-56155598D01*
X175123337Y-56143995D01*
X175189490Y-56099792D01*
X175189494Y-56099788D01*
X175233697Y-56033635D01*
X175245300Y-55975299D01*
X175245301Y-55975296D01*
X175245301Y-55700000D01*
X175245300Y-55699999D01*
X174650002Y-55699999D01*
X174650001Y-55700000D01*
X174450001Y-55700000D01*
X174450000Y-55699999D01*
X173854702Y-55699999D01*
X173854701Y-55700000D01*
X170745298Y-55700000D01*
X170745297Y-55699999D01*
X170149999Y-55699999D01*
X170149998Y-55700000D01*
X169949998Y-55700000D01*
X169949997Y-55699999D01*
X169354699Y-55699999D01*
X169354698Y-55700000D01*
X167068461Y-55700000D01*
X167104888Y-55612058D01*
X167106969Y-55607382D01*
X167289501Y-55224698D01*
X169354698Y-55224698D01*
X169354698Y-55499998D01*
X169354699Y-55499999D01*
X169949997Y-55499999D01*
X169949998Y-55499998D01*
X169949998Y-55044400D01*
X170149998Y-55044400D01*
X170149998Y-55499998D01*
X170149999Y-55499999D01*
X170745297Y-55499999D01*
X170745298Y-55499998D01*
X170745298Y-55224701D01*
X170745297Y-55224698D01*
X170733694Y-55166362D01*
X170689491Y-55100209D01*
X170689487Y-55100205D01*
X170623334Y-55056002D01*
X170564998Y-55044399D01*
X170149999Y-55044399D01*
X170149998Y-55044400D01*
X169949998Y-55044400D01*
X169949997Y-55044399D01*
X169534997Y-55044399D01*
X169476661Y-55056002D01*
X169410508Y-55100205D01*
X169410504Y-55100209D01*
X169366301Y-55166362D01*
X169354698Y-55224698D01*
X167289501Y-55224698D01*
X167432692Y-54924492D01*
X167435040Y-54919885D01*
X167457066Y-54879318D01*
X167796054Y-54254979D01*
X167798605Y-54250561D01*
X168193915Y-53605475D01*
X168196710Y-53601169D01*
X168625272Y-52977607D01*
X168628264Y-52973489D01*
X169088857Y-52373234D01*
X169092084Y-52369249D01*
X169583432Y-51793953D01*
X169586897Y-51790106D01*
X169719854Y-51649999D01*
X170006852Y-51347566D01*
X170060622Y-51318372D01*
X170121284Y-51326358D01*
X170165666Y-51368475D01*
X170176816Y-51428636D01*
X170176445Y-51431198D01*
X170174500Y-51443480D01*
X170174500Y-52056520D01*
X170174501Y-52056523D01*
X170189352Y-52150299D01*
X170189354Y-52150304D01*
X170246950Y-52263342D01*
X170292080Y-52308472D01*
X170319856Y-52362987D01*
X170312129Y-52419598D01*
X170288304Y-52471770D01*
X170288301Y-52471778D01*
X170269867Y-52599997D01*
X170269867Y-52600002D01*
X170288302Y-52728225D01*
X170288302Y-52728227D01*
X170299970Y-52753775D01*
X170306945Y-52814561D01*
X170276859Y-52867838D01*
X170221202Y-52893256D01*
X170209917Y-52893901D01*
X169534951Y-52893901D01*
X169534950Y-52893901D01*
X169534940Y-52893902D01*
X169476471Y-52905533D01*
X169476465Y-52905535D01*
X169410150Y-52949846D01*
X169410144Y-52949852D01*
X169365833Y-53016167D01*
X169365831Y-53016173D01*
X169354200Y-53074642D01*
X169354199Y-53074654D01*
X169354199Y-53825347D01*
X169354200Y-53825359D01*
X169365831Y-53883828D01*
X169365833Y-53883834D01*
X169400556Y-53935800D01*
X169410147Y-53950153D01*
X169476468Y-53994468D01*
X169520930Y-54003312D01*
X169534940Y-54006099D01*
X169534945Y-54006099D01*
X169534951Y-54006101D01*
X169534952Y-54006101D01*
X170565046Y-54006101D01*
X170565047Y-54006101D01*
X170623530Y-53994468D01*
X170689851Y-53950153D01*
X170693629Y-53944499D01*
X170741679Y-53906620D01*
X170775944Y-53900501D01*
X172315691Y-53900501D01*
X173824057Y-53900501D01*
X173882248Y-53919408D01*
X173906372Y-53944499D01*
X173910150Y-53950153D01*
X173976471Y-53994468D01*
X174020933Y-54003312D01*
X174034943Y-54006099D01*
X174034948Y-54006099D01*
X174034954Y-54006101D01*
X174220500Y-54006101D01*
X174278691Y-54025008D01*
X174314655Y-54074508D01*
X174319500Y-54105101D01*
X174319500Y-54151937D01*
X174300593Y-54210128D01*
X174295320Y-54216767D01*
X174237118Y-54283936D01*
X174237116Y-54283940D01*
X174183302Y-54401774D01*
X174164867Y-54529997D01*
X174164867Y-54530002D01*
X174183302Y-54658225D01*
X174234143Y-54769548D01*
X174237118Y-54776063D01*
X174321951Y-54873967D01*
X174326588Y-54879318D01*
X174324433Y-54881184D01*
X174349635Y-54922962D01*
X174344408Y-54983924D01*
X174304347Y-55030170D01*
X174253211Y-55044399D01*
X174035000Y-55044399D01*
X173976664Y-55056002D01*
X173910511Y-55100205D01*
X173910507Y-55100209D01*
X173866304Y-55166362D01*
X173854701Y-55224698D01*
X173854701Y-55499998D01*
X173854702Y-55499999D01*
X175245300Y-55499999D01*
X175245301Y-55499998D01*
X175245301Y-55224701D01*
X175245300Y-55224698D01*
X175233697Y-55166362D01*
X175189494Y-55100209D01*
X175189490Y-55100205D01*
X175123337Y-55056002D01*
X175065001Y-55044399D01*
X174986789Y-55044399D01*
X174928598Y-55025492D01*
X174892634Y-54975992D01*
X174892634Y-54914806D01*
X174915162Y-54880834D01*
X174913412Y-54879318D01*
X174918049Y-54873967D01*
X175002882Y-54776063D01*
X175056697Y-54658226D01*
X175075133Y-54530000D01*
X175073852Y-54521093D01*
X175056697Y-54401774D01*
X175002883Y-54283940D01*
X175002882Y-54283937D01*
X174944679Y-54216766D01*
X174920863Y-54160408D01*
X174920500Y-54151937D01*
X174920500Y-54105101D01*
X174939407Y-54046910D01*
X174988907Y-54010946D01*
X175019500Y-54006101D01*
X175065049Y-54006101D01*
X175065050Y-54006101D01*
X175123533Y-53994468D01*
X175189854Y-53950153D01*
X175234169Y-53883832D01*
X175245802Y-53825349D01*
X175245802Y-53456065D01*
X175264709Y-53397874D01*
X175314209Y-53361910D01*
X175375395Y-53361910D01*
X175424895Y-53397874D01*
X175436266Y-53418180D01*
X175488078Y-53543267D01*
X175488078Y-53543268D01*
X175526754Y-53601149D01*
X175569699Y-53665421D01*
X175673580Y-53769302D01*
X175795731Y-53850921D01*
X175931458Y-53907141D01*
X176075545Y-53935801D01*
X176075547Y-53935801D01*
X176222453Y-53935801D01*
X176222455Y-53935801D01*
X176366542Y-53907141D01*
X176502269Y-53850921D01*
X176624420Y-53769302D01*
X176728301Y-53665421D01*
X176809920Y-53543270D01*
X176866140Y-53407543D01*
X176894800Y-53263456D01*
X176894800Y-53116546D01*
X176894799Y-53116543D01*
X177435202Y-53116543D01*
X177435202Y-53263458D01*
X177463862Y-53407542D01*
X177463862Y-53407544D01*
X177520080Y-53543267D01*
X177520080Y-53543268D01*
X177558756Y-53601149D01*
X177601701Y-53665421D01*
X177705582Y-53769302D01*
X177827733Y-53850921D01*
X177963460Y-53907141D01*
X178107547Y-53935801D01*
X178107549Y-53935801D01*
X178254455Y-53935801D01*
X178254457Y-53935801D01*
X178398544Y-53907141D01*
X178534271Y-53850921D01*
X178656422Y-53769302D01*
X178760303Y-53665421D01*
X178841922Y-53543270D01*
X178898142Y-53407543D01*
X178926802Y-53263456D01*
X178926802Y-53116546D01*
X178898142Y-52972459D01*
X178841923Y-52836734D01*
X178841923Y-52836733D01*
X178820071Y-52804030D01*
X178760303Y-52714581D01*
X178656422Y-52610700D01*
X178534271Y-52529081D01*
X178534270Y-52529080D01*
X178534268Y-52529079D01*
X178398544Y-52472861D01*
X178254459Y-52444201D01*
X178254457Y-52444201D01*
X178107547Y-52444201D01*
X178107544Y-52444201D01*
X177963460Y-52472861D01*
X177963458Y-52472861D01*
X177827735Y-52529079D01*
X177827734Y-52529079D01*
X177705582Y-52610700D01*
X177705578Y-52610703D01*
X177601704Y-52714577D01*
X177601701Y-52714581D01*
X177520080Y-52836733D01*
X177520080Y-52836734D01*
X177463862Y-52972457D01*
X177463862Y-52972459D01*
X177435202Y-53116543D01*
X176894799Y-53116543D01*
X176866140Y-52972459D01*
X176809921Y-52836734D01*
X176809921Y-52836733D01*
X176788069Y-52804030D01*
X176728301Y-52714581D01*
X176624420Y-52610700D01*
X176502269Y-52529081D01*
X176502268Y-52529080D01*
X176502266Y-52529079D01*
X176366542Y-52472861D01*
X176222457Y-52444201D01*
X176222455Y-52444201D01*
X176075545Y-52444201D01*
X176075540Y-52444201D01*
X175935378Y-52472081D01*
X175874617Y-52464889D01*
X175829688Y-52423356D01*
X175817751Y-52363346D01*
X175843367Y-52307781D01*
X175846062Y-52304979D01*
X175898117Y-52252924D01*
X175898118Y-52252922D01*
X175959238Y-52132969D01*
X175975001Y-52033453D01*
X175975001Y-51850001D01*
X175975000Y-51850000D01*
X175425002Y-51850000D01*
X175425001Y-51850001D01*
X175425001Y-52424998D01*
X175425002Y-52424999D01*
X175583453Y-52424999D01*
X175620186Y-52419181D01*
X175680618Y-52428752D01*
X175723883Y-52472017D01*
X175733454Y-52532449D01*
X175705677Y-52586965D01*
X175690677Y-52599276D01*
X175673579Y-52610701D01*
X175673576Y-52610703D01*
X175569702Y-52714577D01*
X175569699Y-52714581D01*
X175488078Y-52836733D01*
X175488078Y-52836734D01*
X175431860Y-52972457D01*
X175431860Y-52972459D01*
X175425520Y-53004333D01*
X175395623Y-53057717D01*
X175340058Y-53083333D01*
X175280048Y-53071396D01*
X175238516Y-53026466D01*
X175236957Y-53022903D01*
X175234169Y-53016173D01*
X175234169Y-53016170D01*
X175189854Y-52949849D01*
X175189850Y-52949846D01*
X175123535Y-52905535D01*
X175123533Y-52905534D01*
X175123530Y-52905533D01*
X175123529Y-52905533D01*
X175065060Y-52893902D01*
X175065050Y-52893901D01*
X174034954Y-52893901D01*
X174034953Y-52893901D01*
X174034943Y-52893902D01*
X173976474Y-52905533D01*
X173976468Y-52905535D01*
X173910153Y-52949846D01*
X173910147Y-52949852D01*
X173906372Y-52955503D01*
X173858322Y-52993382D01*
X173824057Y-52999501D01*
X172974500Y-52999501D01*
X172916309Y-52980594D01*
X172880345Y-52931094D01*
X172875500Y-52900501D01*
X172875500Y-52381899D01*
X172894407Y-52323708D01*
X172904490Y-52311901D01*
X172953050Y-52263342D01*
X172957528Y-52254554D01*
X173000793Y-52211290D01*
X173045737Y-52200500D01*
X173113941Y-52200500D01*
X173172132Y-52219407D01*
X173196108Y-52247480D01*
X173196889Y-52246914D01*
X173201467Y-52253215D01*
X173201469Y-52253217D01*
X173201471Y-52253220D01*
X173296779Y-52348528D01*
X173296781Y-52348529D01*
X173416866Y-52409716D01*
X173416868Y-52409716D01*
X173416873Y-52409719D01*
X173492540Y-52421703D01*
X173516509Y-52425500D01*
X173516511Y-52425500D01*
X174033489Y-52425500D01*
X174054884Y-52422111D01*
X174133125Y-52409719D01*
X174253219Y-52348528D01*
X174348527Y-52253220D01*
X174409718Y-52133126D01*
X174425499Y-52033488D01*
X174425499Y-52033453D01*
X174675001Y-52033453D01*
X174690761Y-52132965D01*
X174690763Y-52132969D01*
X174751882Y-52252921D01*
X174847079Y-52348118D01*
X174967031Y-52409237D01*
X174967030Y-52409237D01*
X175066546Y-52424999D01*
X175225001Y-52424999D01*
X175225001Y-51850001D01*
X175225000Y-51850000D01*
X174675003Y-51850000D01*
X174675002Y-51850001D01*
X174675002Y-52033453D01*
X174675001Y-52033453D01*
X174425499Y-52033453D01*
X174425499Y-51466546D01*
X174675001Y-51466546D01*
X174675001Y-51649999D01*
X174675002Y-51650000D01*
X175225000Y-51650000D01*
X175225001Y-51649999D01*
X175225001Y-51075001D01*
X175425001Y-51075001D01*
X175425001Y-51649999D01*
X175425002Y-51650000D01*
X175974999Y-51650000D01*
X175975000Y-51649999D01*
X175975000Y-51466546D01*
X175959240Y-51367034D01*
X175959238Y-51367030D01*
X175898119Y-51247078D01*
X175802922Y-51151881D01*
X175682970Y-51090762D01*
X175682971Y-51090762D01*
X175583455Y-51075000D01*
X175425002Y-51075000D01*
X175425001Y-51075001D01*
X175225001Y-51075001D01*
X175225000Y-51075000D01*
X175066548Y-51075000D01*
X175066547Y-51075001D01*
X174967035Y-51090760D01*
X174967031Y-51090762D01*
X174847079Y-51151881D01*
X174751882Y-51247078D01*
X174690763Y-51367030D01*
X174675001Y-51466546D01*
X174425499Y-51466546D01*
X174425499Y-51466512D01*
X174409718Y-51366874D01*
X174409715Y-51366869D01*
X174409715Y-51366867D01*
X174348528Y-51246782D01*
X174348527Y-51246780D01*
X174253219Y-51151472D01*
X174253216Y-51151470D01*
X174133131Y-51090283D01*
X174133126Y-51090281D01*
X174133125Y-51090281D01*
X174099912Y-51085020D01*
X174033489Y-51074500D01*
X174033487Y-51074500D01*
X173516511Y-51074500D01*
X173516509Y-51074500D01*
X173416873Y-51090281D01*
X173416866Y-51090283D01*
X173296781Y-51151470D01*
X173201467Y-51246784D01*
X173196889Y-51253086D01*
X173195511Y-51252084D01*
X173158885Y-51288710D01*
X173113941Y-51299500D01*
X173045737Y-51299500D01*
X172987546Y-51280593D01*
X172957528Y-51245446D01*
X172953051Y-51236660D01*
X172953050Y-51236658D01*
X172863342Y-51146950D01*
X172750304Y-51089354D01*
X172750305Y-51089354D01*
X172656522Y-51074500D01*
X172193479Y-51074500D01*
X172193476Y-51074501D01*
X172099700Y-51089352D01*
X172099695Y-51089354D01*
X171986659Y-51146949D01*
X171896949Y-51236659D01*
X171839354Y-51349695D01*
X171824500Y-51443477D01*
X171824500Y-52056520D01*
X171824501Y-52056523D01*
X171839352Y-52150299D01*
X171839354Y-52150304D01*
X171896950Y-52263342D01*
X171945505Y-52311897D01*
X171973281Y-52366412D01*
X171974500Y-52381899D01*
X171974500Y-52900501D01*
X171955593Y-52958692D01*
X171906093Y-52994656D01*
X171875500Y-52999501D01*
X171190578Y-52999501D01*
X171132387Y-52980594D01*
X171096423Y-52931094D01*
X171096423Y-52869908D01*
X171107295Y-52846975D01*
X171107874Y-52846071D01*
X171107882Y-52846063D01*
X171161697Y-52728226D01*
X171178594Y-52610703D01*
X171180133Y-52600002D01*
X171180133Y-52599997D01*
X171161698Y-52471777D01*
X171161237Y-52470207D01*
X171161275Y-52468840D01*
X171160690Y-52464765D01*
X171161395Y-52464663D01*
X171162981Y-52409046D01*
X171200340Y-52360591D01*
X171211279Y-52354101D01*
X171213342Y-52353050D01*
X171303050Y-52263342D01*
X171360646Y-52150304D01*
X171375500Y-52056519D01*
X171375499Y-51443482D01*
X171363367Y-51366874D01*
X171360647Y-51349700D01*
X171360646Y-51349698D01*
X171360646Y-51349696D01*
X171303050Y-51236658D01*
X171213342Y-51146950D01*
X171100304Y-51089354D01*
X171100305Y-51089354D01*
X171006522Y-51074500D01*
X170543479Y-51074500D01*
X170539602Y-51074806D01*
X170539464Y-51073062D01*
X170485575Y-51064503D01*
X170442330Y-51021219D01*
X170432785Y-50960783D01*
X170460586Y-50906279D01*
X170462373Y-50904538D01*
X170660113Y-50716890D01*
X170663961Y-50713426D01*
X171239259Y-50222075D01*
X171243231Y-50218859D01*
X171367171Y-50123755D01*
X171424846Y-50103332D01*
X171427676Y-50103298D01*
X179075644Y-50124721D01*
G37*
G04 #@! TD.AperFunction*
G04 #@! TA.AperFunction,Conductor*
G36*
X192832588Y-53997914D02*
G01*
X192859077Y-54026474D01*
X192983703Y-54229845D01*
X192996377Y-54250526D01*
X192998965Y-54255007D01*
X193036425Y-54324000D01*
X193359963Y-54919885D01*
X193362316Y-54924503D01*
X193688017Y-55607346D01*
X193690125Y-55612082D01*
X193979641Y-56311039D01*
X193981498Y-56315877D01*
X194234030Y-57029004D01*
X194235632Y-57033933D01*
X194450501Y-57759318D01*
X194451843Y-57764325D01*
X194628458Y-58499979D01*
X194629535Y-58505049D01*
X194767400Y-59248902D01*
X194768211Y-59254021D01*
X194866959Y-60004087D01*
X194867501Y-60009242D01*
X194926858Y-60763457D01*
X194927129Y-60768632D01*
X194946934Y-61524907D01*
X194946934Y-61530091D01*
X194927129Y-62286365D01*
X194926858Y-62291540D01*
X194867501Y-63045755D01*
X194866959Y-63050910D01*
X194768211Y-63800976D01*
X194767400Y-63806095D01*
X194629535Y-64549948D01*
X194628458Y-64555018D01*
X194451843Y-65290672D01*
X194450501Y-65295679D01*
X194235632Y-66021064D01*
X194234030Y-66025993D01*
X193981498Y-66739120D01*
X193979641Y-66743958D01*
X193690125Y-67442915D01*
X193688017Y-67447651D01*
X193362316Y-68130494D01*
X193359963Y-68135112D01*
X192998969Y-68799983D01*
X192996377Y-68804471D01*
X192601101Y-69449501D01*
X192598279Y-69453848D01*
X192169758Y-70077352D01*
X192166711Y-70081545D01*
X191706163Y-70681741D01*
X191702901Y-70685769D01*
X191211574Y-71261039D01*
X191208106Y-71264891D01*
X190687336Y-71813668D01*
X190683671Y-71817333D01*
X190134894Y-72338103D01*
X190131042Y-72341571D01*
X189555772Y-72832898D01*
X189551744Y-72836160D01*
X188951548Y-73296708D01*
X188947355Y-73299755D01*
X188323851Y-73728276D01*
X188319504Y-73731098D01*
X187674474Y-74126374D01*
X187669986Y-74128966D01*
X187005115Y-74489960D01*
X187000497Y-74492313D01*
X186317654Y-74818014D01*
X186312918Y-74820122D01*
X185613961Y-75109638D01*
X185609123Y-75111495D01*
X184895996Y-75364027D01*
X184891067Y-75365629D01*
X184165682Y-75580498D01*
X184160675Y-75581840D01*
X183425021Y-75758455D01*
X183419951Y-75759532D01*
X182676098Y-75897397D01*
X182670979Y-75898208D01*
X181920913Y-75996956D01*
X181915758Y-75997498D01*
X181701980Y-76014322D01*
X181642485Y-76000038D01*
X181602749Y-75953512D01*
X181596221Y-75901538D01*
X181615133Y-75770002D01*
X181615133Y-75769997D01*
X181596697Y-75641774D01*
X181594703Y-75634981D01*
X181596564Y-75634434D01*
X181590667Y-75583063D01*
X181617691Y-75532716D01*
X181704656Y-75445752D01*
X181764949Y-75327421D01*
X181780498Y-75229247D01*
X181780498Y-74650755D01*
X181780497Y-74650750D01*
X181774671Y-74613967D01*
X181764949Y-74552581D01*
X181764946Y-74552575D01*
X181764946Y-74552574D01*
X181755709Y-74534445D01*
X181746137Y-74474013D01*
X181773914Y-74419497D01*
X181828431Y-74391719D01*
X181843918Y-74390500D01*
X182016081Y-74390500D01*
X182074272Y-74409407D01*
X182110236Y-74458907D01*
X182110236Y-74520093D01*
X182104290Y-74534445D01*
X182095053Y-74552572D01*
X182095051Y-74552579D01*
X182079502Y-74650750D01*
X182079502Y-75229247D01*
X182095051Y-75327418D01*
X182095052Y-75327422D01*
X182114520Y-75365629D01*
X182155344Y-75445750D01*
X182249251Y-75539657D01*
X182367582Y-75599950D01*
X182434132Y-75610490D01*
X182465753Y-75615499D01*
X182465756Y-75615499D01*
X182969251Y-75615499D01*
X182997805Y-75610975D01*
X183067422Y-75599950D01*
X183185753Y-75539657D01*
X183279660Y-75445750D01*
X183339953Y-75327419D01*
X183352162Y-75250327D01*
X183355502Y-75229247D01*
X183355502Y-74650750D01*
X183349676Y-74613967D01*
X183339953Y-74552579D01*
X183279660Y-74434248D01*
X183185753Y-74340341D01*
X183183904Y-74339399D01*
X183072056Y-74282408D01*
X183028792Y-74239143D01*
X183018002Y-74194199D01*
X183018002Y-74077941D01*
X183012902Y-74058907D01*
X183002127Y-74018694D01*
X182997524Y-74001514D01*
X182957962Y-73932991D01*
X182912094Y-73887123D01*
X182884319Y-73832609D01*
X182892047Y-73775995D01*
X182917967Y-73719238D01*
X182936697Y-73678226D01*
X182947149Y-73605531D01*
X182955133Y-73550002D01*
X182955133Y-73549997D01*
X182936697Y-73421774D01*
X182919448Y-73384004D01*
X182891795Y-73323454D01*
X184555000Y-73323454D01*
X184570760Y-73422966D01*
X184570762Y-73422970D01*
X184631881Y-73542922D01*
X184727078Y-73638119D01*
X184847030Y-73699238D01*
X184847029Y-73699238D01*
X184946545Y-73715000D01*
X185130000Y-73715000D01*
X185130000Y-73165002D01*
X185129999Y-73165001D01*
X184555002Y-73165001D01*
X184555001Y-73165002D01*
X184555001Y-73323454D01*
X184555000Y-73323454D01*
X182891795Y-73323454D01*
X182882882Y-73303937D01*
X182798049Y-73206033D01*
X182798048Y-73206032D01*
X182798047Y-73206031D01*
X182689073Y-73135998D01*
X182689070Y-73135996D01*
X182689069Y-73135996D01*
X182689066Y-73135995D01*
X182564774Y-73099500D01*
X182564772Y-73099500D01*
X182435228Y-73099500D01*
X182435225Y-73099500D01*
X182344389Y-73126172D01*
X182283229Y-73124424D01*
X182234776Y-73087061D01*
X182217498Y-73031182D01*
X182217498Y-72806547D01*
X184555000Y-72806547D01*
X184555000Y-72965000D01*
X184555001Y-72965001D01*
X185129999Y-72965001D01*
X185130000Y-72965000D01*
X185130000Y-72415002D01*
X185330000Y-72415002D01*
X185330000Y-73714999D01*
X185330001Y-73715000D01*
X185513453Y-73715000D01*
X185612965Y-73699240D01*
X185612969Y-73699238D01*
X185732921Y-73638119D01*
X185828117Y-73542923D01*
X185887603Y-73426176D01*
X185930868Y-73382911D01*
X185991300Y-73373340D01*
X186045816Y-73401117D01*
X186067213Y-73436032D01*
X186067224Y-73436027D01*
X186067288Y-73436154D01*
X186069965Y-73440521D01*
X186070759Y-73442965D01*
X186131881Y-73562922D01*
X186227078Y-73658119D01*
X186347030Y-73719238D01*
X186347029Y-73719238D01*
X186446545Y-73735000D01*
X186630000Y-73735000D01*
X186630000Y-73185002D01*
X186830000Y-73185002D01*
X186830000Y-73734999D01*
X186830001Y-73735000D01*
X187013453Y-73735000D01*
X187112965Y-73719240D01*
X187112969Y-73719238D01*
X187232921Y-73658119D01*
X187328118Y-73562922D01*
X187389237Y-73442970D01*
X187405000Y-73343454D01*
X187405000Y-73185002D01*
X187404999Y-73185001D01*
X186830001Y-73185001D01*
X186830000Y-73185002D01*
X186630000Y-73185002D01*
X186630000Y-72435002D01*
X186830000Y-72435002D01*
X186830000Y-72985000D01*
X186830001Y-72985001D01*
X187404998Y-72985001D01*
X187404999Y-72985000D01*
X187404999Y-72826547D01*
X187389239Y-72727035D01*
X187389237Y-72727031D01*
X187328118Y-72607079D01*
X187232921Y-72511882D01*
X187112969Y-72450763D01*
X187112970Y-72450763D01*
X187013454Y-72435001D01*
X186830001Y-72435001D01*
X186830000Y-72435002D01*
X186630000Y-72435002D01*
X186629999Y-72435001D01*
X186446547Y-72435001D01*
X186446546Y-72435002D01*
X186347034Y-72450761D01*
X186347030Y-72450763D01*
X186227078Y-72511882D01*
X186131881Y-72607079D01*
X186072395Y-72723826D01*
X186029130Y-72767090D01*
X185968698Y-72776661D01*
X185914182Y-72748883D01*
X185892786Y-72713969D01*
X185892776Y-72713975D01*
X185892708Y-72713842D01*
X185890032Y-72709475D01*
X185889237Y-72707031D01*
X185828118Y-72587079D01*
X185732921Y-72491882D01*
X185612969Y-72430763D01*
X185612970Y-72430763D01*
X185513454Y-72415001D01*
X185330001Y-72415001D01*
X185330000Y-72415002D01*
X185130000Y-72415002D01*
X185129999Y-72415001D01*
X184946547Y-72415001D01*
X184946546Y-72415002D01*
X184847034Y-72430761D01*
X184847030Y-72430763D01*
X184727078Y-72491882D01*
X184631881Y-72587079D01*
X184570762Y-72707031D01*
X184555000Y-72806547D01*
X182217498Y-72806547D01*
X182217498Y-72722199D01*
X182236405Y-72664008D01*
X182285905Y-72628044D01*
X182316498Y-72623199D01*
X182966446Y-72623199D01*
X182966447Y-72623199D01*
X183024930Y-72611566D01*
X183091251Y-72567251D01*
X183135566Y-72500930D01*
X183147199Y-72442447D01*
X183147199Y-72148951D01*
X183135566Y-72090468D01*
X183135562Y-72090463D01*
X183132717Y-72083592D01*
X183127915Y-72022595D01*
X183132717Y-72007815D01*
X183135566Y-72000935D01*
X183135570Y-72000930D01*
X183147203Y-71942447D01*
X183147203Y-71648951D01*
X183135570Y-71590468D01*
X183135567Y-71590464D01*
X183132717Y-71583583D01*
X183127915Y-71522586D01*
X183132717Y-71507805D01*
X183135561Y-71500937D01*
X183135565Y-71500932D01*
X183147198Y-71442449D01*
X183147198Y-71195200D01*
X183166105Y-71137009D01*
X183215605Y-71101045D01*
X183246198Y-71096200D01*
X184000015Y-71096200D01*
X184058206Y-71115107D01*
X184094170Y-71164607D01*
X184094170Y-71225793D01*
X184074835Y-71260029D01*
X184070623Y-71264891D01*
X184067117Y-71268937D01*
X184013302Y-71386773D01*
X183994867Y-71514996D01*
X183994867Y-71515001D01*
X184013302Y-71643224D01*
X184037267Y-71695698D01*
X184067118Y-71761062D01*
X184148419Y-71854890D01*
X184151952Y-71858967D01*
X184209110Y-71895700D01*
X184260931Y-71929003D01*
X184385228Y-71965499D01*
X184385230Y-71965499D01*
X184514771Y-71965499D01*
X184514772Y-71965499D01*
X184527389Y-71961794D01*
X184588548Y-71963539D01*
X184623772Y-71989899D01*
X184625963Y-71987709D01*
X184631470Y-71993216D01*
X184631472Y-71993219D01*
X184726780Y-72088527D01*
X184726782Y-72088528D01*
X184846867Y-72149715D01*
X184846869Y-72149715D01*
X184846874Y-72149718D01*
X184922541Y-72161702D01*
X184946510Y-72165499D01*
X184946512Y-72165499D01*
X185513490Y-72165499D01*
X185534885Y-72162110D01*
X185613126Y-72149718D01*
X185733220Y-72088527D01*
X185807253Y-72014493D01*
X185861768Y-71986718D01*
X185877255Y-71985499D01*
X186062745Y-71985499D01*
X186120936Y-72004406D01*
X186132742Y-72014489D01*
X186226780Y-72108527D01*
X186226782Y-72108528D01*
X186346867Y-72169715D01*
X186346869Y-72169715D01*
X186346874Y-72169718D01*
X186422541Y-72181702D01*
X186446510Y-72185499D01*
X186446512Y-72185499D01*
X187013490Y-72185499D01*
X187034885Y-72182110D01*
X187113126Y-72169718D01*
X187233220Y-72108527D01*
X187328528Y-72013219D01*
X187388407Y-71895700D01*
X187389716Y-71893131D01*
X187389716Y-71893130D01*
X187389719Y-71893125D01*
X187405500Y-71793487D01*
X187405500Y-71276511D01*
X187404300Y-71268937D01*
X187397467Y-71225793D01*
X187389719Y-71176873D01*
X187389716Y-71176868D01*
X187389716Y-71176866D01*
X187328529Y-71056781D01*
X187328528Y-71056779D01*
X187233220Y-70961471D01*
X187166957Y-70927708D01*
X187123694Y-70884445D01*
X187114123Y-70824013D01*
X187141901Y-70769496D01*
X187196417Y-70741719D01*
X187211904Y-70740500D01*
X187379563Y-70740500D01*
X187379563Y-70740499D01*
X187455989Y-70720021D01*
X187524511Y-70680460D01*
X187580460Y-70624511D01*
X188170460Y-70034511D01*
X188199326Y-69984512D01*
X188199327Y-69984512D01*
X188204871Y-69974907D01*
X188210021Y-69965989D01*
X188230500Y-69889562D01*
X188230500Y-69749999D01*
X188825002Y-69749999D01*
X188825002Y-69939207D01*
X188840532Y-70037260D01*
X188900752Y-70155450D01*
X188994548Y-70249246D01*
X189112736Y-70309466D01*
X189210791Y-70324997D01*
X189362501Y-70324997D01*
X189362501Y-69749999D01*
X189562501Y-69749999D01*
X189562501Y-70324996D01*
X189562502Y-70324997D01*
X189714210Y-70324997D01*
X189812263Y-70309466D01*
X189930453Y-70249246D01*
X190024249Y-70155450D01*
X190084469Y-70037262D01*
X190100001Y-69939206D01*
X190100001Y-69749999D01*
X190100000Y-69749998D01*
X189562502Y-69749998D01*
X189562501Y-69749999D01*
X189362501Y-69749999D01*
X189362500Y-69749998D01*
X188825003Y-69749998D01*
X188825002Y-69749999D01*
X188230500Y-69749999D01*
X188230500Y-66799500D01*
X188249407Y-66741309D01*
X188298907Y-66705345D01*
X188329500Y-66700500D01*
X188787405Y-66700500D01*
X188845596Y-66719407D01*
X188881560Y-66768907D01*
X188881560Y-66830093D01*
X188845596Y-66879593D01*
X188840928Y-66882784D01*
X188726952Y-66956031D01*
X188642117Y-67053938D01*
X188588302Y-67171774D01*
X188569867Y-67299997D01*
X188569867Y-67300002D01*
X188588302Y-67428225D01*
X188638892Y-67539000D01*
X188642118Y-67546063D01*
X188718962Y-67634747D01*
X188726952Y-67643968D01*
X188805647Y-67694542D01*
X188844378Y-67741908D01*
X188847872Y-67802993D01*
X188840338Y-67822763D01*
X188839356Y-67824690D01*
X188839354Y-67824696D01*
X188824500Y-67918479D01*
X188824500Y-68531520D01*
X188824501Y-68531523D01*
X188839352Y-68625299D01*
X188839354Y-68625304D01*
X188896950Y-68738342D01*
X188986658Y-68828050D01*
X189036020Y-68853201D01*
X189079282Y-68896464D01*
X189088854Y-68956896D01*
X189061077Y-69011412D01*
X189036019Y-69029618D01*
X188994549Y-69050748D01*
X188900752Y-69144545D01*
X188840532Y-69262733D01*
X188825001Y-69360789D01*
X188825001Y-69549997D01*
X188825002Y-69549998D01*
X190099999Y-69549998D01*
X190100000Y-69549997D01*
X190100000Y-69360788D01*
X190099994Y-69360751D01*
X190399505Y-69360751D01*
X190399505Y-69939248D01*
X190415054Y-70037419D01*
X190415055Y-70037423D01*
X190463088Y-70131692D01*
X190475347Y-70155751D01*
X190569254Y-70249658D01*
X190687585Y-70309951D01*
X190754135Y-70320491D01*
X190785756Y-70325500D01*
X190785759Y-70325500D01*
X191289254Y-70325500D01*
X191317808Y-70320976D01*
X191387425Y-70309951D01*
X191505756Y-70249658D01*
X191599663Y-70155751D01*
X191659956Y-70037420D01*
X191675505Y-69939246D01*
X191675505Y-69360754D01*
X191659956Y-69262580D01*
X191599663Y-69144249D01*
X191577664Y-69122250D01*
X191554496Y-69099081D01*
X191526719Y-69044564D01*
X191525500Y-69029078D01*
X191525500Y-68856899D01*
X191544407Y-68798708D01*
X191554490Y-68786901D01*
X191603050Y-68738342D01*
X191660646Y-68625304D01*
X191675500Y-68531519D01*
X191675499Y-67918482D01*
X191669961Y-67883516D01*
X191660647Y-67824700D01*
X191660646Y-67824698D01*
X191660646Y-67824696D01*
X191603050Y-67711658D01*
X191513342Y-67621950D01*
X191400304Y-67564354D01*
X191400305Y-67564354D01*
X191306522Y-67549500D01*
X190843479Y-67549500D01*
X190843476Y-67549501D01*
X190749700Y-67564352D01*
X190749695Y-67564354D01*
X190636659Y-67621949D01*
X190546949Y-67711659D01*
X190489354Y-67824695D01*
X190474500Y-67918477D01*
X190474500Y-68531520D01*
X190474501Y-68531523D01*
X190489352Y-68625299D01*
X190489354Y-68625304D01*
X190546950Y-68738342D01*
X190595505Y-68786897D01*
X190623281Y-68841412D01*
X190624500Y-68856899D01*
X190624500Y-68961525D01*
X190605593Y-69019716D01*
X190575381Y-69045519D01*
X190575558Y-69045762D01*
X190572478Y-69047999D01*
X190570450Y-69049732D01*
X190569257Y-69050339D01*
X190475346Y-69144250D01*
X190415055Y-69262576D01*
X190415054Y-69262580D01*
X190399505Y-69360751D01*
X190099994Y-69360751D01*
X190084469Y-69262735D01*
X190024249Y-69144545D01*
X189930452Y-69050748D01*
X189851481Y-69010510D01*
X189808217Y-68967246D01*
X189798646Y-68906813D01*
X189826424Y-68852297D01*
X189851476Y-68834095D01*
X189863342Y-68828050D01*
X189953050Y-68738342D01*
X190010646Y-68625304D01*
X190025500Y-68531519D01*
X190025499Y-67918482D01*
X190019961Y-67883516D01*
X190010647Y-67824700D01*
X190010646Y-67824698D01*
X190010646Y-67824696D01*
X189953050Y-67711658D01*
X189863342Y-67621950D01*
X189750304Y-67564354D01*
X189750306Y-67564354D01*
X189734609Y-67561868D01*
X189680093Y-67534089D01*
X189669635Y-67520461D01*
X189669409Y-67520635D01*
X189665462Y-67515490D01*
X189609511Y-67459539D01*
X189609511Y-67459540D01*
X189508496Y-67358525D01*
X189480719Y-67304008D01*
X189480508Y-67302609D01*
X189480132Y-67299997D01*
X189478277Y-67287091D01*
X189461698Y-67171775D01*
X189422523Y-67085996D01*
X189407882Y-67053937D01*
X189323049Y-66956033D01*
X189323048Y-66956032D01*
X189323047Y-66956031D01*
X189209072Y-66882784D01*
X189170340Y-66835418D01*
X189166847Y-66774332D01*
X189199927Y-66722860D01*
X189256943Y-66700661D01*
X189262595Y-66700500D01*
X190013992Y-66700500D01*
X190072183Y-66719407D01*
X190108147Y-66768907D01*
X190111773Y-66784013D01*
X190114352Y-66800300D01*
X190114354Y-66800304D01*
X190171950Y-66913342D01*
X190261658Y-67003050D01*
X190374696Y-67060646D01*
X190468481Y-67075500D01*
X190931518Y-67075499D01*
X190931520Y-67075499D01*
X190931521Y-67075498D01*
X190978411Y-67068072D01*
X191025299Y-67060647D01*
X191025299Y-67060646D01*
X191025304Y-67060646D01*
X191138342Y-67003050D01*
X191228050Y-66913342D01*
X191285646Y-66800304D01*
X191300500Y-66706519D01*
X191300499Y-66230121D01*
X191319406Y-66171931D01*
X191329489Y-66160125D01*
X191607464Y-65882151D01*
X191661979Y-65854375D01*
X191722411Y-65863946D01*
X191765676Y-65907211D01*
X191775247Y-65967643D01*
X191765677Y-65997099D01*
X191764354Y-65999695D01*
X191749500Y-66093477D01*
X191749500Y-66706520D01*
X191749501Y-66706523D01*
X191764352Y-66800299D01*
X191764354Y-66800304D01*
X191821950Y-66913342D01*
X191911658Y-67003050D01*
X192024696Y-67060646D01*
X192118481Y-67075500D01*
X192581518Y-67075499D01*
X192581520Y-67075499D01*
X192581521Y-67075498D01*
X192628411Y-67068072D01*
X192675299Y-67060647D01*
X192675299Y-67060646D01*
X192675304Y-67060646D01*
X192788342Y-67003050D01*
X192878050Y-66913342D01*
X192882528Y-66904554D01*
X192925793Y-66861290D01*
X192970737Y-66850500D01*
X192996936Y-66850500D01*
X193024827Y-66854510D01*
X193045228Y-66860500D01*
X193045230Y-66860500D01*
X193174771Y-66860500D01*
X193174772Y-66860500D01*
X193230729Y-66844069D01*
X193232949Y-66843447D01*
X193283887Y-66829799D01*
X193283889Y-66829797D01*
X193289878Y-66827317D01*
X193290145Y-66827962D01*
X193294491Y-66826094D01*
X193299060Y-66824006D01*
X193299069Y-66824004D01*
X193342610Y-66796020D01*
X193346563Y-66793611D01*
X193386614Y-66770489D01*
X193386765Y-66770337D01*
X193403257Y-66757045D01*
X193408049Y-66753967D01*
X193437625Y-66719831D01*
X193442429Y-66714672D01*
X193470489Y-66686614D01*
X193473907Y-66680691D01*
X193484822Y-66665363D01*
X193492882Y-66656063D01*
X193508925Y-66620931D01*
X193513223Y-66612594D01*
X193529799Y-66583887D01*
X193533271Y-66570924D01*
X193538848Y-66555412D01*
X193546695Y-66538231D01*
X193546695Y-66538229D01*
X193546697Y-66538226D01*
X193551259Y-66506492D01*
X193553622Y-66494973D01*
X193560499Y-66469309D01*
X193560499Y-66449308D01*
X193561507Y-66435217D01*
X193565133Y-66410000D01*
X193565133Y-66409998D01*
X193561507Y-66384779D01*
X193560499Y-66370690D01*
X193560499Y-66350692D01*
X193560498Y-66350688D01*
X193553622Y-66325026D01*
X193551259Y-66313509D01*
X193546697Y-66281774D01*
X193538846Y-66264584D01*
X193533275Y-66249089D01*
X193529799Y-66236113D01*
X193513224Y-66207405D01*
X193508914Y-66199043D01*
X193492882Y-66163937D01*
X193484827Y-66154641D01*
X193473906Y-66139305D01*
X193470488Y-66133385D01*
X193442433Y-66105329D01*
X193437619Y-66100158D01*
X193408050Y-66066034D01*
X193408047Y-66066031D01*
X193403250Y-66062948D01*
X193386777Y-66049673D01*
X193376615Y-66039512D01*
X193376609Y-66039507D01*
X193273890Y-65980202D01*
X193273886Y-65980200D01*
X193249673Y-65973712D01*
X193249673Y-65973713D01*
X193159309Y-65949500D01*
X193159307Y-65949500D01*
X192970737Y-65949500D01*
X192912546Y-65930593D01*
X192882528Y-65895446D01*
X192878051Y-65886659D01*
X192878048Y-65886656D01*
X192829496Y-65838103D01*
X192801719Y-65783586D01*
X192800500Y-65768100D01*
X192800500Y-65706899D01*
X192819407Y-65648708D01*
X192829490Y-65636901D01*
X192878050Y-65588342D01*
X192882528Y-65579554D01*
X192925793Y-65536290D01*
X192970737Y-65525500D01*
X193043965Y-65525500D01*
X193071856Y-65529510D01*
X193075228Y-65530500D01*
X193075230Y-65530500D01*
X193204771Y-65530500D01*
X193204772Y-65530500D01*
X193260729Y-65514069D01*
X193262949Y-65513447D01*
X193277602Y-65509521D01*
X193313887Y-65499799D01*
X193313889Y-65499797D01*
X193319878Y-65497317D01*
X193320145Y-65497962D01*
X193324491Y-65496094D01*
X193329060Y-65494006D01*
X193329069Y-65494004D01*
X193372610Y-65466020D01*
X193376563Y-65463611D01*
X193416614Y-65440489D01*
X193416765Y-65440337D01*
X193433257Y-65427045D01*
X193438049Y-65423967D01*
X193467625Y-65389831D01*
X193472429Y-65384672D01*
X193500489Y-65356614D01*
X193503907Y-65350691D01*
X193514822Y-65335363D01*
X193522882Y-65326063D01*
X193538925Y-65290931D01*
X193543223Y-65282594D01*
X193559799Y-65253887D01*
X193563271Y-65240924D01*
X193568848Y-65225412D01*
X193576695Y-65208231D01*
X193576695Y-65208229D01*
X193576697Y-65208226D01*
X193581259Y-65176492D01*
X193583622Y-65164973D01*
X193584699Y-65160956D01*
X193590499Y-65139309D01*
X193590499Y-65119308D01*
X193591507Y-65105217D01*
X193591794Y-65103226D01*
X193595133Y-65080000D01*
X193594878Y-65078229D01*
X193591507Y-65054779D01*
X193590499Y-65040690D01*
X193590499Y-65020692D01*
X193590498Y-65020688D01*
X193587449Y-65009310D01*
X193583621Y-64995023D01*
X193581259Y-64983509D01*
X193576697Y-64951774D01*
X193568846Y-64934584D01*
X193563275Y-64919089D01*
X193559799Y-64906113D01*
X193543224Y-64877405D01*
X193538914Y-64869043D01*
X193522882Y-64833937D01*
X193514827Y-64824641D01*
X193503906Y-64809305D01*
X193500488Y-64803385D01*
X193472433Y-64775329D01*
X193467619Y-64770158D01*
X193438050Y-64736034D01*
X193438047Y-64736031D01*
X193433250Y-64732948D01*
X193416778Y-64719674D01*
X193411616Y-64714513D01*
X193411611Y-64714509D01*
X193344238Y-64675610D01*
X193340220Y-64673161D01*
X193329073Y-64665998D01*
X193326240Y-64664704D01*
X193317875Y-64660390D01*
X193308890Y-64655203D01*
X193308887Y-64655201D01*
X193308884Y-64655200D01*
X193308882Y-64655199D01*
X193278093Y-64646949D01*
X193278093Y-64646950D01*
X193194309Y-64624500D01*
X193194308Y-64624500D01*
X192970737Y-64624500D01*
X192912546Y-64605593D01*
X192882528Y-64570446D01*
X192878051Y-64561660D01*
X192878050Y-64561658D01*
X192788342Y-64471950D01*
X192675304Y-64414354D01*
X192675305Y-64414354D01*
X192581522Y-64399500D01*
X192581519Y-64399500D01*
X192579122Y-64399500D01*
X192578354Y-64399250D01*
X192577646Y-64399195D01*
X192577659Y-64399024D01*
X192520931Y-64380593D01*
X192484967Y-64331093D01*
X192484967Y-64269907D01*
X192509118Y-64230496D01*
X192614616Y-64124998D01*
X192933557Y-63806058D01*
X192939691Y-63791250D01*
X192975500Y-63704800D01*
X192975500Y-61145198D01*
X192956779Y-61100002D01*
X192940329Y-61060287D01*
X192933558Y-61043940D01*
X192806057Y-60916440D01*
X192803757Y-60915487D01*
X192803753Y-60915487D01*
X192704801Y-60874499D01*
X192704800Y-60874499D01*
X192576900Y-60874499D01*
X192518709Y-60855592D01*
X192482745Y-60806092D01*
X192478529Y-60779471D01*
X192478376Y-60779487D01*
X192478120Y-60776890D01*
X192477900Y-60775499D01*
X192477900Y-60774652D01*
X192477898Y-60774640D01*
X192468807Y-60728938D01*
X192466267Y-60716168D01*
X192446108Y-60685998D01*
X192417185Y-60642712D01*
X192400500Y-60587710D01*
X192400500Y-59530122D01*
X192419407Y-59471931D01*
X192429497Y-59460118D01*
X192587745Y-59301870D01*
X192820457Y-59069159D01*
X192832741Y-59039500D01*
X192862400Y-58967900D01*
X192862400Y-58720374D01*
X192879086Y-58665371D01*
X192902767Y-58629931D01*
X192914400Y-58571448D01*
X192914400Y-58252552D01*
X192914399Y-58252550D01*
X192914399Y-58252543D01*
X192904379Y-58202173D01*
X192902816Y-58194315D01*
X192910006Y-58133555D01*
X192917599Y-58119998D01*
X192921694Y-58113869D01*
X192927467Y-58105230D01*
X192939100Y-58046747D01*
X192939100Y-57753251D01*
X192927467Y-57694768D01*
X192927465Y-57694765D01*
X192924339Y-57687216D01*
X192919540Y-57626219D01*
X192924342Y-57611443D01*
X192926996Y-57605036D01*
X192938600Y-57546697D01*
X192938601Y-57546697D01*
X192938601Y-57500001D01*
X192938600Y-57500000D01*
X192259202Y-57500000D01*
X192259201Y-57500001D01*
X192259201Y-57546700D01*
X192270804Y-57605033D01*
X192273459Y-57611442D01*
X192278261Y-57672439D01*
X192273461Y-57687215D01*
X192270332Y-57694767D01*
X192258700Y-57753248D01*
X192258700Y-57972801D01*
X192239793Y-58030992D01*
X192190293Y-58066956D01*
X192159700Y-58071801D01*
X191961400Y-58071801D01*
X191903209Y-58052894D01*
X191867245Y-58003394D01*
X191862400Y-57972801D01*
X191862400Y-57326700D01*
X191881307Y-57268509D01*
X191930807Y-57232545D01*
X191961400Y-57227700D01*
X191986898Y-57227700D01*
X191986899Y-57227699D01*
X191986899Y-56988001D01*
X192186899Y-56988001D01*
X192186899Y-57227699D01*
X192199749Y-57240549D01*
X192218392Y-57246607D01*
X192251823Y-57292621D01*
X192259202Y-57300000D01*
X192498900Y-57300000D01*
X192498901Y-57299999D01*
X192498901Y-57254339D01*
X192488120Y-57233180D01*
X192486901Y-57217693D01*
X192486901Y-56988001D01*
X192686901Y-56988001D01*
X192686901Y-57046360D01*
X192697682Y-57067520D01*
X192698901Y-57083007D01*
X192698901Y-57299999D01*
X192698902Y-57300000D01*
X192938600Y-57300000D01*
X192938601Y-57299999D01*
X192938601Y-57253302D01*
X192938600Y-57253299D01*
X192926997Y-57194964D01*
X192917069Y-57180107D01*
X192900459Y-57121219D01*
X192902286Y-57105787D01*
X192913900Y-57047405D01*
X192913901Y-57047397D01*
X192913901Y-56988001D01*
X192913900Y-56988000D01*
X192686902Y-56988000D01*
X192686901Y-56988001D01*
X192486901Y-56988001D01*
X192486900Y-56988000D01*
X192186900Y-56988000D01*
X192186899Y-56988001D01*
X191986899Y-56988001D01*
X191986899Y-56604061D01*
X191995847Y-56562932D01*
X191997847Y-56558553D01*
X192000853Y-56555278D01*
X192170954Y-56555278D01*
X192184928Y-56580025D01*
X192186899Y-56599682D01*
X192186899Y-56787999D01*
X192186900Y-56788000D01*
X192486900Y-56788000D01*
X192486901Y-56787999D01*
X192486901Y-56548301D01*
X192686901Y-56548301D01*
X192686901Y-56787999D01*
X192686902Y-56788000D01*
X192913900Y-56788000D01*
X192913901Y-56787999D01*
X192913901Y-56728602D01*
X192913900Y-56728599D01*
X192902297Y-56670263D01*
X192858094Y-56604110D01*
X192858090Y-56604106D01*
X192791937Y-56559903D01*
X192733601Y-56548300D01*
X192686902Y-56548300D01*
X192686901Y-56548301D01*
X192486901Y-56548301D01*
X192486900Y-56548300D01*
X192440200Y-56548300D01*
X192381864Y-56559903D01*
X192374786Y-56562836D01*
X192313790Y-56567637D01*
X192299014Y-56562836D01*
X192291935Y-56559903D01*
X192233599Y-56548300D01*
X192184652Y-56548300D01*
X192170954Y-56555278D01*
X192000853Y-56555278D01*
X192031740Y-56521626D01*
X192031019Y-56520905D01*
X192021237Y-56461872D01*
X192030133Y-56400001D01*
X192030133Y-56399997D01*
X192011697Y-56271774D01*
X191981318Y-56205254D01*
X191957882Y-56153937D01*
X191873049Y-56056033D01*
X191873048Y-56056032D01*
X191873047Y-56056031D01*
X191764073Y-55985998D01*
X191764070Y-55985996D01*
X191764069Y-55985996D01*
X191764066Y-55985995D01*
X191639774Y-55949500D01*
X191639772Y-55949500D01*
X191510228Y-55949500D01*
X191510225Y-55949500D01*
X191385933Y-55985995D01*
X191385926Y-55985998D01*
X191276952Y-56056031D01*
X191192117Y-56153938D01*
X191138302Y-56271774D01*
X191119867Y-56399997D01*
X191119867Y-56400003D01*
X191124857Y-56434711D01*
X191114424Y-56495001D01*
X191070545Y-56537643D01*
X191026865Y-56547800D01*
X190940152Y-56547800D01*
X190940151Y-56547800D01*
X190940141Y-56547801D01*
X190881672Y-56559432D01*
X190881666Y-56559434D01*
X190815351Y-56603745D01*
X190815345Y-56603751D01*
X190771034Y-56670066D01*
X190771032Y-56670072D01*
X190759401Y-56728541D01*
X190759400Y-56728551D01*
X190759400Y-56728552D01*
X190759400Y-57047448D01*
X190770983Y-57105683D01*
X190763793Y-57166444D01*
X190756204Y-57179995D01*
X190746333Y-57194769D01*
X190746332Y-57194769D01*
X190734700Y-57253250D01*
X190734700Y-57546747D01*
X190734701Y-57546759D01*
X190746293Y-57605033D01*
X190746333Y-57605232D01*
X190746334Y-57605234D01*
X190749184Y-57612114D01*
X190753983Y-57673111D01*
X190749184Y-57687881D01*
X190746332Y-57694765D01*
X190734699Y-57753249D01*
X190734699Y-58046746D01*
X190734700Y-58046758D01*
X190746331Y-58105227D01*
X190746333Y-58105233D01*
X190756199Y-58119998D01*
X190772808Y-58178886D01*
X190770982Y-58194312D01*
X190759399Y-58252544D01*
X190759399Y-58252552D01*
X190759399Y-58571448D01*
X190771032Y-58629931D01*
X190771033Y-58629932D01*
X190794713Y-58665371D01*
X190811399Y-58720374D01*
X190811399Y-59116699D01*
X190822642Y-59143841D01*
X190841182Y-59188600D01*
X190841182Y-59188601D01*
X190853340Y-59217954D01*
X190853341Y-59217955D01*
X190853342Y-59217957D01*
X191020405Y-59385020D01*
X191048181Y-59439535D01*
X191049400Y-59455022D01*
X191049400Y-60587708D01*
X191032715Y-60642710D01*
X190983634Y-60716163D01*
X190983632Y-60716169D01*
X190972001Y-60774638D01*
X190972000Y-60774650D01*
X190972000Y-60775497D01*
X190971880Y-60775865D01*
X190971524Y-60779485D01*
X190970729Y-60779406D01*
X190953093Y-60833688D01*
X190903593Y-60869652D01*
X190873000Y-60874497D01*
X190770203Y-60874497D01*
X190745359Y-60884788D01*
X190671243Y-60915488D01*
X190668945Y-60916439D01*
X190543942Y-61041443D01*
X190543941Y-61041442D01*
X190466446Y-61118938D01*
X190466444Y-61118940D01*
X190466443Y-61118942D01*
X190427341Y-61213341D01*
X190424500Y-61220200D01*
X190424500Y-61676942D01*
X190405593Y-61735133D01*
X190356093Y-61771097D01*
X190294907Y-61771097D01*
X190250681Y-61741773D01*
X190198050Y-61681034D01*
X190198048Y-61681032D01*
X190089073Y-61610998D01*
X190089070Y-61610996D01*
X190089069Y-61610996D01*
X190089066Y-61610995D01*
X189964774Y-61574500D01*
X189964772Y-61574500D01*
X189835228Y-61574500D01*
X189835225Y-61574500D01*
X189710933Y-61610995D01*
X189710926Y-61610998D01*
X189603177Y-61680244D01*
X189544002Y-61695799D01*
X189486985Y-61673600D01*
X189467339Y-61651962D01*
X189459599Y-61640378D01*
X189419555Y-61580449D01*
X189384932Y-61557314D01*
X189347054Y-61509264D01*
X189344653Y-61448126D01*
X189378647Y-61397253D01*
X189384911Y-61392701D01*
X189419556Y-61369552D01*
X189463871Y-61303231D01*
X189475504Y-61244748D01*
X189475504Y-60605252D01*
X189463871Y-60546769D01*
X189419556Y-60480448D01*
X189384933Y-60457313D01*
X189347055Y-60409263D01*
X189344654Y-60348125D01*
X189378648Y-60297252D01*
X189384917Y-60292696D01*
X189419558Y-60269550D01*
X189463873Y-60203229D01*
X189475506Y-60144746D01*
X189475506Y-59505250D01*
X189463873Y-59446767D01*
X189419558Y-59380446D01*
X189384938Y-59357313D01*
X189347059Y-59309262D01*
X189344657Y-59248124D01*
X189378651Y-59197251D01*
X189384931Y-59192687D01*
X189419556Y-59169552D01*
X189463871Y-59103231D01*
X189475504Y-59044748D01*
X189475504Y-58405252D01*
X189463871Y-58346769D01*
X189419556Y-58280448D01*
X189419550Y-58280444D01*
X189384936Y-58257315D01*
X189347057Y-58209264D01*
X189344655Y-58148126D01*
X189378649Y-58097253D01*
X189384913Y-58092701D01*
X189419558Y-58069552D01*
X189463873Y-58003231D01*
X189475506Y-57944748D01*
X189475506Y-57305252D01*
X189463873Y-57246769D01*
X189419558Y-57180448D01*
X189419552Y-57180444D01*
X189384936Y-57157314D01*
X189347057Y-57109264D01*
X189344655Y-57048126D01*
X189378648Y-56997252D01*
X189384918Y-56992696D01*
X189419556Y-56969552D01*
X189463871Y-56903231D01*
X189475504Y-56844748D01*
X189475504Y-56205252D01*
X189463871Y-56146769D01*
X189419556Y-56080448D01*
X189384936Y-56057315D01*
X189347058Y-56009266D01*
X189344656Y-55948128D01*
X189378649Y-55897254D01*
X189384919Y-55892698D01*
X189419560Y-55869552D01*
X189463875Y-55803231D01*
X189475508Y-55744748D01*
X189475508Y-55105252D01*
X189463875Y-55046769D01*
X189419560Y-54980448D01*
X189412891Y-54975992D01*
X189384937Y-54957313D01*
X189347058Y-54909262D01*
X189344656Y-54848124D01*
X189378650Y-54797251D01*
X189384914Y-54792699D01*
X189419556Y-54769552D01*
X189463871Y-54703231D01*
X189475504Y-54644748D01*
X189475504Y-54088959D01*
X189494411Y-54030768D01*
X189543911Y-53994804D01*
X189574168Y-53989960D01*
X192774334Y-53979203D01*
X192832588Y-53997914D01*
G37*
G04 #@! TD.AperFunction*
G04 #@! TA.AperFunction,Conductor*
G36*
X177092489Y-70115106D02*
G01*
X177128453Y-70164606D01*
X177133298Y-70195199D01*
X177133298Y-70195699D01*
X177133299Y-70195700D01*
X177715298Y-70195700D01*
X177773489Y-70214607D01*
X177809453Y-70264107D01*
X177814298Y-70294700D01*
X177814298Y-70466686D01*
X177814300Y-70466712D01*
X177814300Y-71124695D01*
X177814299Y-71124698D01*
X177814299Y-71796699D01*
X177795392Y-71854890D01*
X177745892Y-71890854D01*
X177715299Y-71895699D01*
X177133300Y-71895699D01*
X177133299Y-71895700D01*
X177133299Y-71942399D01*
X177144903Y-72000738D01*
X177147558Y-72007147D01*
X177152358Y-72068144D01*
X177147560Y-72082913D01*
X177144432Y-72090464D01*
X177132799Y-72148948D01*
X177132799Y-72442445D01*
X177132800Y-72442457D01*
X177144431Y-72500926D01*
X177144433Y-72500932D01*
X177188744Y-72567247D01*
X177188747Y-72567251D01*
X177188750Y-72567253D01*
X177255066Y-72611565D01*
X177264019Y-72615273D01*
X177310546Y-72655009D01*
X177324831Y-72714503D01*
X177316190Y-72747864D01*
X177273301Y-72841776D01*
X177254867Y-72969997D01*
X177254867Y-72970002D01*
X177273302Y-73098225D01*
X177327118Y-73216063D01*
X177335442Y-73225670D01*
X177359259Y-73282029D01*
X177345400Y-73341624D01*
X177299159Y-73381692D01*
X177260622Y-73389500D01*
X173680479Y-73389500D01*
X173622288Y-73370593D01*
X173610475Y-73360504D01*
X172499475Y-72249504D01*
X172471698Y-72194987D01*
X172481269Y-72134555D01*
X172524534Y-72091290D01*
X172569479Y-72080500D01*
X173074248Y-72080500D01*
X173102802Y-72075976D01*
X173172419Y-72064951D01*
X173290750Y-72004658D01*
X173384657Y-71910751D01*
X173444950Y-71792420D01*
X173460269Y-71695698D01*
X173460499Y-71694248D01*
X173460499Y-71395702D01*
X177133299Y-71395702D01*
X177133299Y-71442401D01*
X177144903Y-71500739D01*
X177147834Y-71507815D01*
X177152635Y-71568811D01*
X177147834Y-71583585D01*
X177144903Y-71590660D01*
X177133299Y-71648998D01*
X177133299Y-71695698D01*
X177133300Y-71695699D01*
X177614298Y-71695699D01*
X177614299Y-71695698D01*
X177614299Y-71395702D01*
X177614298Y-71395701D01*
X177133300Y-71395701D01*
X177133299Y-71395702D01*
X173460499Y-71395702D01*
X173460499Y-71205480D01*
X173478850Y-71149000D01*
X177133299Y-71149000D01*
X177133299Y-71195700D01*
X177133300Y-71195701D01*
X177614298Y-71195701D01*
X177614299Y-71195700D01*
X177614299Y-70966709D01*
X177614300Y-70966705D01*
X177614300Y-70895704D01*
X177614299Y-70895703D01*
X177133301Y-70895703D01*
X177133300Y-70895704D01*
X177133300Y-70942403D01*
X177144904Y-71000741D01*
X177147833Y-71007811D01*
X177152637Y-71068807D01*
X177147835Y-71083586D01*
X177144902Y-71090664D01*
X177133299Y-71149000D01*
X173478850Y-71149000D01*
X173479406Y-71147289D01*
X173489495Y-71135476D01*
X174229270Y-70395701D01*
X177133298Y-70395701D01*
X177133298Y-70442400D01*
X177144902Y-70500738D01*
X177147834Y-70507816D01*
X177152636Y-70568813D01*
X177147837Y-70583584D01*
X177144904Y-70590664D01*
X177133300Y-70649002D01*
X177133300Y-70695702D01*
X177133301Y-70695703D01*
X177614299Y-70695703D01*
X177614300Y-70695702D01*
X177614300Y-70624716D01*
X177614298Y-70624691D01*
X177614298Y-70395701D01*
X177614297Y-70395700D01*
X177133299Y-70395700D01*
X177133298Y-70395701D01*
X174229270Y-70395701D01*
X174499776Y-70125195D01*
X174554293Y-70097418D01*
X174569780Y-70096199D01*
X177034298Y-70096199D01*
X177092489Y-70115106D01*
G37*
G04 #@! TD.AperFunction*
G04 #@! TA.AperFunction,Conductor*
G36*
X184017712Y-65569407D02*
G01*
X184029525Y-65579496D01*
X185895504Y-67445475D01*
X185923281Y-67499992D01*
X185924500Y-67515479D01*
X185924500Y-69271937D01*
X185905593Y-69330128D01*
X185900320Y-69336767D01*
X185842118Y-69403936D01*
X185842116Y-69403940D01*
X185820320Y-69451666D01*
X185778947Y-69496743D01*
X185718981Y-69508894D01*
X185663325Y-69483476D01*
X185639536Y-69446461D01*
X185639184Y-69446641D01*
X185637393Y-69443126D01*
X185636114Y-69441136D01*
X185635647Y-69439700D01*
X185613482Y-69396199D01*
X185578050Y-69326660D01*
X185488342Y-69236952D01*
X185375304Y-69179356D01*
X185375306Y-69179356D01*
X185359010Y-69176775D01*
X185304494Y-69148995D01*
X185276718Y-69094478D01*
X185275500Y-69078994D01*
X185275500Y-68975440D01*
X185275500Y-68975438D01*
X185273561Y-68968201D01*
X185255022Y-68899012D01*
X185231923Y-68859004D01*
X185219202Y-68799158D01*
X185244088Y-68743262D01*
X185297075Y-68712669D01*
X185302175Y-68711724D01*
X185375141Y-68700168D01*
X185375151Y-68700165D01*
X185488043Y-68642643D01*
X185577641Y-68553045D01*
X185635163Y-68440153D01*
X185635164Y-68440149D01*
X185650000Y-68346486D01*
X185650000Y-68215003D01*
X185649999Y-68215002D01*
X184300002Y-68215002D01*
X184300001Y-68215003D01*
X184300001Y-68346485D01*
X184300000Y-68346485D01*
X184305422Y-68380715D01*
X184295850Y-68441147D01*
X184252585Y-68484411D01*
X184207641Y-68495201D01*
X183077959Y-68495201D01*
X183034573Y-68482039D01*
X183033941Y-68483567D01*
X183024932Y-68479835D01*
X183024930Y-68479834D01*
X183024926Y-68479833D01*
X182966457Y-68468202D01*
X182966447Y-68468201D01*
X182315998Y-68468201D01*
X182257807Y-68449294D01*
X182221843Y-68399794D01*
X182216998Y-68369201D01*
X182216998Y-68220001D01*
X182216997Y-68220000D01*
X181561009Y-68220000D01*
X181560997Y-68219996D01*
X181388998Y-68219996D01*
X181330807Y-68201089D01*
X181294843Y-68151589D01*
X181289998Y-68120996D01*
X181289998Y-68118996D01*
X181308905Y-68060805D01*
X181358405Y-68024841D01*
X181388998Y-68019996D01*
X181718987Y-68019996D01*
X181718999Y-68020000D01*
X181789997Y-68020000D01*
X181789998Y-68019999D01*
X181789998Y-67539001D01*
X181789997Y-67539000D01*
X181743297Y-67539000D01*
X181684961Y-67550604D01*
X181677882Y-67553536D01*
X181616885Y-67558332D01*
X181602117Y-67553533D01*
X181595037Y-67550600D01*
X181536698Y-67538996D01*
X181494982Y-67538996D01*
X181436791Y-67520089D01*
X181400827Y-67470589D01*
X181400827Y-67409403D01*
X181424978Y-67369993D01*
X181548910Y-67246060D01*
X181597883Y-67197086D01*
X181652397Y-67169310D01*
X181712830Y-67178881D01*
X181756094Y-67222145D01*
X181757937Y-67225962D01*
X181767116Y-67246060D01*
X181767117Y-67246061D01*
X181767118Y-67246063D01*
X181813854Y-67300000D01*
X181851951Y-67343967D01*
X181871789Y-67356716D01*
X181882863Y-67370260D01*
X181907437Y-67379625D01*
X181951370Y-67407859D01*
X181990101Y-67455224D01*
X181993595Y-67516309D01*
X181989998Y-67522574D01*
X181989998Y-68019999D01*
X181989999Y-68020000D01*
X182216997Y-68020000D01*
X182216998Y-68019999D01*
X182216998Y-67883517D01*
X184300000Y-67883517D01*
X184300000Y-68015001D01*
X184300001Y-68015002D01*
X184874999Y-68015002D01*
X184875000Y-68015001D01*
X184875000Y-67515003D01*
X185075000Y-67515003D01*
X185075000Y-68015001D01*
X185075001Y-68015002D01*
X185649998Y-68015002D01*
X185649999Y-68015001D01*
X185649999Y-67883518D01*
X185649998Y-67883516D01*
X185635166Y-67789860D01*
X185635163Y-67789850D01*
X185577641Y-67676958D01*
X185488043Y-67587360D01*
X185375151Y-67529838D01*
X185375147Y-67529837D01*
X185281484Y-67515002D01*
X185075001Y-67515002D01*
X185075000Y-67515003D01*
X184875000Y-67515003D01*
X184874999Y-67515002D01*
X184668517Y-67515002D01*
X184668514Y-67515003D01*
X184574858Y-67529835D01*
X184574848Y-67529838D01*
X184461956Y-67587360D01*
X184372358Y-67676958D01*
X184314836Y-67789850D01*
X184314835Y-67789854D01*
X184300000Y-67883517D01*
X182216998Y-67883517D01*
X182216998Y-67719302D01*
X182216997Y-67719299D01*
X182205394Y-67660963D01*
X182164226Y-67599353D01*
X182147617Y-67540466D01*
X182168794Y-67483062D01*
X182218649Y-67449361D01*
X182339069Y-67414004D01*
X182448049Y-67343967D01*
X182532882Y-67246063D01*
X182586697Y-67128226D01*
X182596413Y-67060647D01*
X182605133Y-67000002D01*
X182605133Y-66999997D01*
X182585964Y-66866674D01*
X182596397Y-66806385D01*
X182640275Y-66763743D01*
X182700838Y-66755035D01*
X182714554Y-66758432D01*
X182717035Y-66759238D01*
X182816546Y-66774999D01*
X182975001Y-66774999D01*
X182975001Y-66200001D01*
X183175001Y-66200001D01*
X183175001Y-66774998D01*
X183175002Y-66774999D01*
X183333454Y-66774999D01*
X183432966Y-66759239D01*
X183432970Y-66759237D01*
X183552922Y-66698118D01*
X183648119Y-66602921D01*
X183709238Y-66482969D01*
X183725001Y-66383453D01*
X183725001Y-66200001D01*
X183725000Y-66200000D01*
X183175002Y-66200000D01*
X183175001Y-66200001D01*
X182975001Y-66200001D01*
X182975001Y-66099000D01*
X182993908Y-66040809D01*
X183043408Y-66004845D01*
X183074001Y-66000000D01*
X183724999Y-66000000D01*
X183725000Y-65999999D01*
X183725000Y-65816546D01*
X183709240Y-65717034D01*
X183709240Y-65717033D01*
X183697731Y-65694447D01*
X183688159Y-65634015D01*
X183715935Y-65579498D01*
X183770451Y-65551719D01*
X183785940Y-65550500D01*
X183959521Y-65550500D01*
X184017712Y-65569407D01*
G37*
G04 #@! TD.AperFunction*
G04 #@! TA.AperFunction,Conductor*
G36*
X180234195Y-64143905D02*
G01*
X180270159Y-64193405D01*
X180275004Y-64223998D01*
X180275004Y-64724997D01*
X180275005Y-64724998D01*
X180494701Y-64724998D01*
X180494704Y-64724997D01*
X180553040Y-64713394D01*
X180619193Y-64669191D01*
X180619198Y-64669186D01*
X180642386Y-64634483D01*
X180690435Y-64596602D01*
X180751573Y-64594200D01*
X180802448Y-64628192D01*
X180806990Y-64634441D01*
X180807792Y-64635640D01*
X180824504Y-64690682D01*
X180824504Y-64884595D01*
X180824501Y-64884645D01*
X180824501Y-64910690D01*
X180823493Y-64924779D01*
X180820904Y-64942790D01*
X180819867Y-64950000D01*
X180823461Y-64975000D01*
X180823493Y-64975217D01*
X180824501Y-64989308D01*
X180824501Y-65009310D01*
X180831376Y-65034972D01*
X180833740Y-65046496D01*
X180838303Y-65078227D01*
X180838304Y-65078229D01*
X180846153Y-65095417D01*
X180851724Y-65110913D01*
X180855201Y-65123888D01*
X180855201Y-65123889D01*
X180871768Y-65152584D01*
X180876084Y-65160956D01*
X180892116Y-65196060D01*
X180892118Y-65196064D01*
X180900172Y-65205358D01*
X180911090Y-65220690D01*
X180914507Y-65226609D01*
X180914512Y-65226615D01*
X180942566Y-65254670D01*
X180947379Y-65259840D01*
X180976951Y-65293967D01*
X180981745Y-65297048D01*
X180998217Y-65310321D01*
X180998382Y-65310486D01*
X180998384Y-65310487D01*
X180998386Y-65310489D01*
X181017747Y-65321667D01*
X181038406Y-65333595D01*
X181042408Y-65336034D01*
X181043736Y-65336887D01*
X181082479Y-65384244D01*
X181085987Y-65445328D01*
X181052920Y-65496809D01*
X181048427Y-65500275D01*
X181046781Y-65501470D01*
X180951469Y-65596782D01*
X180890282Y-65716867D01*
X180890280Y-65716874D01*
X180874499Y-65816510D01*
X180874499Y-66383489D01*
X180890280Y-66483125D01*
X180890282Y-66483132D01*
X180951469Y-66603217D01*
X180951471Y-66603220D01*
X181046779Y-66698528D01*
X181046781Y-66698529D01*
X181057675Y-66704080D01*
X181100940Y-66747344D01*
X181110511Y-66807776D01*
X181082734Y-66862293D01*
X180922233Y-67022794D01*
X180867716Y-67050571D01*
X180807284Y-67041000D01*
X180777409Y-67017621D01*
X180698049Y-66926033D01*
X180698048Y-66926032D01*
X180698047Y-66926031D01*
X180589073Y-66855998D01*
X180589070Y-66855996D01*
X180589069Y-66855996D01*
X180584008Y-66854510D01*
X180464774Y-66819500D01*
X180464772Y-66819500D01*
X180450766Y-66819500D01*
X180392575Y-66800593D01*
X180356611Y-66751093D01*
X180352774Y-66706411D01*
X180355133Y-66690003D01*
X180355133Y-66689997D01*
X180336697Y-66561774D01*
X180308789Y-66500665D01*
X180282882Y-66443937D01*
X180198049Y-66346033D01*
X180198048Y-66346032D01*
X180198047Y-66346031D01*
X180089073Y-66275998D01*
X180089070Y-66275996D01*
X180089069Y-66275996D01*
X180089066Y-66275995D01*
X179964774Y-66239500D01*
X179964772Y-66239500D01*
X179835228Y-66239500D01*
X179835224Y-66239500D01*
X179817386Y-66244738D01*
X179756226Y-66242988D01*
X179707774Y-66205624D01*
X179690498Y-66149747D01*
X179690498Y-64812848D01*
X179709405Y-64754657D01*
X179758905Y-64718693D01*
X179808812Y-64715750D01*
X179855303Y-64724997D01*
X179855307Y-64724998D01*
X180075003Y-64724998D01*
X180075004Y-64724997D01*
X180075004Y-64223998D01*
X180093911Y-64165807D01*
X180143411Y-64129843D01*
X180174004Y-64124998D01*
X180176004Y-64124998D01*
X180234195Y-64143905D01*
G37*
G04 #@! TD.AperFunction*
G04 #@! TA.AperFunction,Conductor*
G36*
X190364037Y-62281865D02*
G01*
X190410278Y-62321933D01*
X190424500Y-62373057D01*
X190424500Y-64328310D01*
X190405593Y-64386501D01*
X190370446Y-64416519D01*
X190261659Y-64471949D01*
X190171949Y-64561659D01*
X190114354Y-64674694D01*
X190109398Y-64705987D01*
X190081620Y-64760504D01*
X190027104Y-64788281D01*
X190011617Y-64789500D01*
X189524026Y-64789500D01*
X189465835Y-64770593D01*
X189429871Y-64721093D01*
X189429871Y-64659907D01*
X189441711Y-64635498D01*
X189463402Y-64603035D01*
X189475005Y-64544699D01*
X189475006Y-64544696D01*
X189475006Y-64325000D01*
X189475005Y-64324999D01*
X188974006Y-64324999D01*
X188915815Y-64306092D01*
X188879851Y-64256592D01*
X188875006Y-64225999D01*
X188875006Y-64223999D01*
X188893913Y-64165808D01*
X188943413Y-64129844D01*
X188974006Y-64124999D01*
X189475005Y-64124999D01*
X189475006Y-64124998D01*
X189475006Y-63905301D01*
X189475005Y-63905298D01*
X189463402Y-63846962D01*
X189419199Y-63780809D01*
X189419196Y-63780806D01*
X189384488Y-63757615D01*
X189346608Y-63709565D01*
X189344206Y-63648427D01*
X189378199Y-63597553D01*
X189384469Y-63592996D01*
X189419556Y-63569552D01*
X189463871Y-63503231D01*
X189475504Y-63444748D01*
X189475504Y-62805252D01*
X189463871Y-62746769D01*
X189419556Y-62680448D01*
X189384934Y-62657314D01*
X189347056Y-62609265D01*
X189344654Y-62548127D01*
X189378647Y-62497254D01*
X189384917Y-62492697D01*
X189419555Y-62469553D01*
X189463870Y-62403232D01*
X189463870Y-62403230D01*
X189467340Y-62398038D01*
X189515390Y-62360159D01*
X189576528Y-62357757D01*
X189603178Y-62369756D01*
X189657235Y-62404496D01*
X189710931Y-62439004D01*
X189835228Y-62475500D01*
X189835230Y-62475500D01*
X189964770Y-62475500D01*
X189964772Y-62475500D01*
X190089069Y-62439004D01*
X190198049Y-62368967D01*
X190250681Y-62308225D01*
X190303076Y-62276630D01*
X190364037Y-62281865D01*
G37*
G04 #@! TD.AperFunction*
G04 #@! TA.AperFunction,Conductor*
G36*
X192184193Y-62567510D02*
G01*
X192220157Y-62617010D01*
X192225002Y-62647603D01*
X192225002Y-63204202D01*
X192225003Y-63204203D01*
X192297098Y-63204203D01*
X192306180Y-63202396D01*
X192366942Y-63209584D01*
X192411874Y-63251114D01*
X192424500Y-63299493D01*
X192424500Y-63494877D01*
X192405593Y-63553068D01*
X192395504Y-63564881D01*
X191381835Y-64578549D01*
X191327318Y-64606326D01*
X191266886Y-64596755D01*
X191231736Y-64566732D01*
X191228052Y-64561661D01*
X191228051Y-64561660D01*
X191228050Y-64561658D01*
X191138342Y-64471950D01*
X191132515Y-64468981D01*
X191029554Y-64416519D01*
X190986290Y-64373254D01*
X190975500Y-64328310D01*
X190975500Y-63792206D01*
X190994407Y-63734015D01*
X191043907Y-63698051D01*
X191105093Y-63698051D01*
X191128021Y-63708920D01*
X191135931Y-63714004D01*
X191260228Y-63750500D01*
X191260230Y-63750500D01*
X191389770Y-63750500D01*
X191389772Y-63750500D01*
X191514069Y-63714004D01*
X191623049Y-63643967D01*
X191707882Y-63546063D01*
X191761697Y-63428226D01*
X191780133Y-63300000D01*
X191780133Y-63292919D01*
X191782782Y-63292919D01*
X191791204Y-63244210D01*
X191835076Y-63201561D01*
X191895637Y-63192844D01*
X191898084Y-63193299D01*
X191952901Y-63204202D01*
X191952905Y-63204203D01*
X192025001Y-63204203D01*
X192025002Y-63204202D01*
X192025002Y-62647603D01*
X192043909Y-62589412D01*
X192093409Y-62553448D01*
X192124002Y-62548603D01*
X192126002Y-62548603D01*
X192184193Y-62567510D01*
G37*
G04 #@! TD.AperFunction*
G04 #@! TA.AperFunction,Conductor*
G36*
X183483695Y-55209407D02*
G01*
X183519659Y-55258907D01*
X183524504Y-55289500D01*
X183524504Y-55744746D01*
X183524505Y-55744758D01*
X183536136Y-55803227D01*
X183536138Y-55803233D01*
X183580449Y-55869548D01*
X183580452Y-55869552D01*
X183646773Y-55913867D01*
X183691235Y-55922711D01*
X183705245Y-55925498D01*
X183705250Y-55925498D01*
X183705256Y-55925500D01*
X183826057Y-55925500D01*
X183884248Y-55944407D01*
X183920212Y-55993907D01*
X183920212Y-56055093D01*
X183916110Y-56065628D01*
X183913301Y-56071776D01*
X183894867Y-56199997D01*
X183894867Y-56200002D01*
X183913302Y-56328225D01*
X183930552Y-56365996D01*
X183967118Y-56446063D01*
X184016517Y-56503073D01*
X184051952Y-56543968D01*
X184160926Y-56614001D01*
X184160931Y-56614004D01*
X184285228Y-56650500D01*
X184285230Y-56650500D01*
X184414770Y-56650500D01*
X184414772Y-56650500D01*
X184539069Y-56614004D01*
X184648049Y-56543967D01*
X184656105Y-56534670D01*
X184708500Y-56503073D01*
X184730925Y-56500500D01*
X184768340Y-56500500D01*
X184826531Y-56519407D01*
X184862495Y-56568907D01*
X184862495Y-56630093D01*
X184858394Y-56640625D01*
X184853302Y-56651774D01*
X184834867Y-56779997D01*
X184834867Y-56780002D01*
X184853302Y-56908225D01*
X184888180Y-56984595D01*
X184895155Y-57045382D01*
X184865069Y-57098659D01*
X184809413Y-57124077D01*
X184807840Y-57124244D01*
X184805259Y-57124498D01*
X184746776Y-57136132D01*
X184746770Y-57136134D01*
X184680455Y-57180445D01*
X184680449Y-57180451D01*
X184657319Y-57215068D01*
X184609268Y-57252947D01*
X184548130Y-57255349D01*
X184497257Y-57221355D01*
X184492689Y-57215068D01*
X184469558Y-57180451D01*
X184469557Y-57180450D01*
X184469556Y-57180448D01*
X184469552Y-57180445D01*
X184403237Y-57136134D01*
X184403235Y-57136133D01*
X184403232Y-57136132D01*
X184403231Y-57136132D01*
X184344762Y-57124501D01*
X184344752Y-57124500D01*
X183705256Y-57124500D01*
X183705255Y-57124500D01*
X183705245Y-57124501D01*
X183646776Y-57136132D01*
X183646770Y-57136134D01*
X183580455Y-57180445D01*
X183580449Y-57180451D01*
X183536138Y-57246766D01*
X183536136Y-57246772D01*
X183524505Y-57305241D01*
X183524504Y-57305253D01*
X183524504Y-57944746D01*
X183524505Y-57944758D01*
X183536136Y-58003227D01*
X183536138Y-58003233D01*
X183580449Y-58069548D01*
X183580452Y-58069552D01*
X183615522Y-58092985D01*
X183653401Y-58141034D01*
X183655803Y-58202173D01*
X183621810Y-58253046D01*
X183615523Y-58257615D01*
X183580815Y-58280806D01*
X183580812Y-58280809D01*
X183536609Y-58346962D01*
X183525006Y-58405298D01*
X183525006Y-58624998D01*
X183525007Y-58624999D01*
X184026006Y-58624999D01*
X184084197Y-58643906D01*
X184120161Y-58693406D01*
X184125006Y-58723999D01*
X184125006Y-58725999D01*
X184106099Y-58784190D01*
X184056599Y-58820154D01*
X184026006Y-58824999D01*
X183525007Y-58824999D01*
X183525006Y-58825000D01*
X183525006Y-59044699D01*
X183536609Y-59103035D01*
X183580812Y-59169188D01*
X183580815Y-59169191D01*
X183615972Y-59192682D01*
X183653852Y-59240732D01*
X183656254Y-59301870D01*
X183622262Y-59352744D01*
X183615974Y-59357312D01*
X183580816Y-59380804D01*
X183580810Y-59380810D01*
X183536607Y-59446963D01*
X183525004Y-59505299D01*
X183525004Y-59724999D01*
X183525005Y-59725000D01*
X184026004Y-59725000D01*
X184084195Y-59743907D01*
X184120159Y-59793407D01*
X184125004Y-59824000D01*
X184125004Y-60324999D01*
X184125005Y-60325000D01*
X184344701Y-60325000D01*
X184344704Y-60324999D01*
X184403040Y-60313396D01*
X184469193Y-60269193D01*
X184469196Y-60269190D01*
X184492688Y-60234033D01*
X184540738Y-60196153D01*
X184601876Y-60193751D01*
X184652750Y-60227744D01*
X184657320Y-60234033D01*
X184680811Y-60269190D01*
X184680814Y-60269193D01*
X184746967Y-60313396D01*
X184805303Y-60324999D01*
X184805307Y-60325000D01*
X185025003Y-60325000D01*
X185025004Y-60324999D01*
X185025004Y-59925001D01*
X185225004Y-59925001D01*
X185225004Y-60324999D01*
X185225005Y-60325000D01*
X185444701Y-60325000D01*
X185444704Y-60324999D01*
X185503040Y-60313396D01*
X185569193Y-60269193D01*
X185569197Y-60269189D01*
X185613400Y-60203036D01*
X185625003Y-60144700D01*
X185625004Y-60144697D01*
X185625004Y-59925001D01*
X185625003Y-59925000D01*
X185225005Y-59925000D01*
X185225004Y-59925001D01*
X185025004Y-59925001D01*
X185025004Y-59824000D01*
X185043911Y-59765809D01*
X185093411Y-59729845D01*
X185124004Y-59725000D01*
X185625003Y-59725000D01*
X185625004Y-59724999D01*
X185625004Y-59505302D01*
X185625003Y-59505299D01*
X185613400Y-59446963D01*
X185569197Y-59380810D01*
X185569194Y-59380807D01*
X185534035Y-59357314D01*
X185496157Y-59309263D01*
X185493755Y-59248125D01*
X185527749Y-59197252D01*
X185534038Y-59192683D01*
X185569190Y-59169195D01*
X185569195Y-59169190D01*
X185613398Y-59103037D01*
X185625001Y-59044701D01*
X185625002Y-59044698D01*
X185625002Y-58825002D01*
X185625001Y-58825001D01*
X185124002Y-58825001D01*
X185065811Y-58806094D01*
X185029847Y-58756594D01*
X185025002Y-58726001D01*
X185025002Y-58724001D01*
X185043909Y-58665810D01*
X185093409Y-58629846D01*
X185124002Y-58625001D01*
X185625001Y-58625001D01*
X185625002Y-58625000D01*
X185625002Y-58405303D01*
X185625001Y-58405300D01*
X185613398Y-58346964D01*
X185569195Y-58280811D01*
X185569190Y-58280806D01*
X185534484Y-58257616D01*
X185496605Y-58209566D01*
X185494203Y-58148427D01*
X185528196Y-58097554D01*
X185534466Y-58092998D01*
X185569556Y-58069552D01*
X185613871Y-58003231D01*
X185625504Y-57944748D01*
X185625504Y-57479500D01*
X185644411Y-57421309D01*
X185693911Y-57385345D01*
X185724504Y-57380500D01*
X186175504Y-57380500D01*
X186233695Y-57399407D01*
X186269659Y-57448907D01*
X186274504Y-57479500D01*
X186274504Y-57944746D01*
X186274505Y-57944758D01*
X186286136Y-58003227D01*
X186286138Y-58003233D01*
X186330449Y-58069548D01*
X186330452Y-58069552D01*
X186330455Y-58069554D01*
X186365072Y-58092685D01*
X186402951Y-58140736D01*
X186405353Y-58201874D01*
X186371359Y-58252747D01*
X186365072Y-58257315D01*
X186330455Y-58280445D01*
X186330449Y-58280451D01*
X186286138Y-58346766D01*
X186286136Y-58346772D01*
X186274505Y-58405241D01*
X186274504Y-58405253D01*
X186274504Y-59044746D01*
X186274505Y-59044758D01*
X186286136Y-59103227D01*
X186286138Y-59103233D01*
X186330213Y-59169195D01*
X186330452Y-59169552D01*
X186365073Y-59192685D01*
X186402952Y-59240735D01*
X186405354Y-59301873D01*
X186371361Y-59352746D01*
X186365074Y-59357315D01*
X186330453Y-59380448D01*
X186330449Y-59380452D01*
X186286138Y-59446767D01*
X186286136Y-59446773D01*
X186274505Y-59505242D01*
X186274504Y-59505254D01*
X186274504Y-60144747D01*
X186274505Y-60144759D01*
X186286136Y-60203228D01*
X186286138Y-60203234D01*
X186330449Y-60269549D01*
X186330452Y-60269553D01*
X186330455Y-60269555D01*
X186365071Y-60292685D01*
X186402950Y-60340735D01*
X186405352Y-60401873D01*
X186371359Y-60452747D01*
X186365072Y-60457314D01*
X186330456Y-60480444D01*
X186330449Y-60480451D01*
X186286138Y-60546766D01*
X186286136Y-60546771D01*
X186283977Y-60557626D01*
X186254077Y-60611009D01*
X186198511Y-60636621D01*
X186138502Y-60624681D01*
X186133357Y-60621591D01*
X186039073Y-60560998D01*
X186039070Y-60560996D01*
X186039069Y-60560996D01*
X186039066Y-60560995D01*
X185914774Y-60524500D01*
X185914772Y-60524500D01*
X185785228Y-60524500D01*
X185785225Y-60524500D01*
X185660933Y-60560995D01*
X185660926Y-60560998D01*
X185551952Y-60631031D01*
X185467116Y-60728938D01*
X185430140Y-60809904D01*
X185388767Y-60854982D01*
X185328800Y-60867132D01*
X185273145Y-60841713D01*
X185265267Y-60833608D01*
X185241425Y-60806092D01*
X185198049Y-60756033D01*
X185198048Y-60756032D01*
X185198047Y-60756031D01*
X185089073Y-60685998D01*
X185089070Y-60685996D01*
X185089069Y-60685996D01*
X185079751Y-60683260D01*
X184964774Y-60649500D01*
X184964772Y-60649500D01*
X184835228Y-60649500D01*
X184835225Y-60649500D01*
X184710933Y-60685995D01*
X184710926Y-60685998D01*
X184601952Y-60756031D01*
X184517117Y-60853938D01*
X184463302Y-60971774D01*
X184444867Y-61099997D01*
X184444867Y-61100002D01*
X184463302Y-61228225D01*
X184504986Y-61319498D01*
X184517118Y-61346063D01*
X184529774Y-61360670D01*
X184553592Y-61417028D01*
X184539734Y-61476623D01*
X184493493Y-61516691D01*
X184454955Y-61524500D01*
X184255252Y-61524500D01*
X184255251Y-61524500D01*
X184255241Y-61524501D01*
X184196772Y-61536132D01*
X184196766Y-61536134D01*
X184130451Y-61580445D01*
X184130445Y-61580451D01*
X184107317Y-61615065D01*
X184059266Y-61652944D01*
X183998128Y-61655346D01*
X183947255Y-61621352D01*
X183942687Y-61615065D01*
X183919558Y-61580451D01*
X183919556Y-61580448D01*
X183919552Y-61580445D01*
X183853237Y-61536134D01*
X183853235Y-61536133D01*
X183853232Y-61536132D01*
X183853231Y-61536132D01*
X183794762Y-61524501D01*
X183794752Y-61524500D01*
X183155256Y-61524500D01*
X183155255Y-61524500D01*
X183155245Y-61524501D01*
X183096776Y-61536132D01*
X183096770Y-61536134D01*
X183030455Y-61580445D01*
X183030449Y-61580451D01*
X182986138Y-61646766D01*
X182986136Y-61646772D01*
X182974505Y-61705241D01*
X182974504Y-61705253D01*
X182974504Y-61960525D01*
X182955597Y-62018716D01*
X182906097Y-62054680D01*
X182844911Y-62054680D01*
X182805501Y-62030529D01*
X182559511Y-61784540D01*
X182529755Y-61767360D01*
X182529755Y-61767359D01*
X182490990Y-61744979D01*
X182490985Y-61744977D01*
X182414564Y-61724500D01*
X182414562Y-61724500D01*
X181860578Y-61724500D01*
X181802387Y-61705593D01*
X181766423Y-61656093D01*
X181764195Y-61647557D01*
X181763870Y-61646772D01*
X181763870Y-61646769D01*
X181719555Y-61580448D01*
X181719549Y-61580444D01*
X181684936Y-61557316D01*
X181647057Y-61509266D01*
X181644655Y-61448128D01*
X181678648Y-61397254D01*
X181684936Y-61392686D01*
X181719561Y-61369550D01*
X181742691Y-61334932D01*
X181790739Y-61297055D01*
X181851877Y-61294653D01*
X181902751Y-61328645D01*
X181907319Y-61334931D01*
X181930452Y-61369552D01*
X181996773Y-61413867D01*
X182041235Y-61422711D01*
X182055245Y-61425498D01*
X182055250Y-61425498D01*
X182055256Y-61425500D01*
X182055257Y-61425500D01*
X182694751Y-61425500D01*
X182694752Y-61425500D01*
X182753235Y-61413867D01*
X182819556Y-61369552D01*
X182863871Y-61303231D01*
X182875504Y-61244748D01*
X182875504Y-60605252D01*
X182863871Y-60546769D01*
X182819556Y-60480448D01*
X182784934Y-60457314D01*
X182747056Y-60409265D01*
X182744654Y-60348127D01*
X182778647Y-60297254D01*
X182784928Y-60292689D01*
X182819556Y-60269552D01*
X182863871Y-60203231D01*
X182875504Y-60144748D01*
X182875504Y-59925001D01*
X183525004Y-59925001D01*
X183525004Y-60144700D01*
X183536607Y-60203036D01*
X183580810Y-60269189D01*
X183580814Y-60269193D01*
X183646967Y-60313396D01*
X183705303Y-60324999D01*
X183705307Y-60325000D01*
X183925003Y-60325000D01*
X183925004Y-60324999D01*
X183925004Y-59925001D01*
X183925003Y-59925000D01*
X183525005Y-59925000D01*
X183525004Y-59925001D01*
X182875504Y-59925001D01*
X182875504Y-59505252D01*
X182875501Y-59505239D01*
X182866526Y-59460118D01*
X182863871Y-59446769D01*
X182819556Y-59380448D01*
X182784933Y-59357313D01*
X182747056Y-59309265D01*
X182744654Y-59248127D01*
X182778647Y-59197254D01*
X182784928Y-59192689D01*
X182819556Y-59169552D01*
X182863871Y-59103231D01*
X182875504Y-59044748D01*
X182875504Y-58405252D01*
X182863871Y-58346769D01*
X182819556Y-58280448D01*
X182819550Y-58280444D01*
X182785386Y-58257616D01*
X182784933Y-58257313D01*
X182747055Y-58209264D01*
X182744653Y-58148126D01*
X182778646Y-58097252D01*
X182784911Y-58092700D01*
X182819556Y-58069551D01*
X182863871Y-58003230D01*
X182875504Y-57944747D01*
X182875504Y-57305251D01*
X182863871Y-57246768D01*
X182819556Y-57180447D01*
X182819047Y-57180107D01*
X182784936Y-57157314D01*
X182747057Y-57109263D01*
X182744655Y-57048125D01*
X182778649Y-56997252D01*
X182784918Y-56992696D01*
X182819556Y-56969552D01*
X182863871Y-56903231D01*
X182875504Y-56844748D01*
X182875504Y-56205252D01*
X182863871Y-56146769D01*
X182819556Y-56080448D01*
X182784939Y-56057317D01*
X182747061Y-56009268D01*
X182744659Y-55948130D01*
X182778652Y-55897256D01*
X182784933Y-55892692D01*
X182819558Y-55869557D01*
X182863873Y-55803236D01*
X182875506Y-55744753D01*
X182875506Y-55289500D01*
X182894413Y-55231309D01*
X182943913Y-55195345D01*
X182974506Y-55190500D01*
X183425504Y-55190500D01*
X183483695Y-55209407D01*
G37*
G04 #@! TD.AperFunction*
G04 #@! TA.AperFunction,Conductor*
G36*
X184034195Y-54043907D02*
G01*
X184070159Y-54093407D01*
X184075004Y-54124000D01*
X184075004Y-54224999D01*
X184075005Y-54225000D01*
X185075003Y-54225000D01*
X185075004Y-54224999D01*
X185075004Y-54124000D01*
X185093911Y-54065809D01*
X185143411Y-54029845D01*
X185174004Y-54025000D01*
X186176004Y-54025000D01*
X186234195Y-54043907D01*
X186270159Y-54093407D01*
X186275004Y-54124000D01*
X186275004Y-54224999D01*
X186275005Y-54225000D01*
X186776004Y-54225000D01*
X186834195Y-54243907D01*
X186870159Y-54293407D01*
X186875004Y-54324000D01*
X186875004Y-54326000D01*
X186856097Y-54384191D01*
X186806597Y-54420155D01*
X186776004Y-54425000D01*
X186275005Y-54425000D01*
X186275004Y-54425001D01*
X186275004Y-54490500D01*
X186256097Y-54548691D01*
X186206597Y-54584655D01*
X186176004Y-54589500D01*
X185174004Y-54589500D01*
X185115813Y-54570593D01*
X185079849Y-54521093D01*
X185075004Y-54490500D01*
X185075004Y-54425001D01*
X185075003Y-54425000D01*
X184075005Y-54425000D01*
X184075004Y-54425001D01*
X184075004Y-54490500D01*
X184056097Y-54548691D01*
X184006597Y-54584655D01*
X183976004Y-54589500D01*
X182974004Y-54589500D01*
X182915813Y-54570593D01*
X182879849Y-54521093D01*
X182875004Y-54490500D01*
X182875004Y-54425001D01*
X182875003Y-54425000D01*
X182374004Y-54425000D01*
X182315813Y-54406093D01*
X182279849Y-54356593D01*
X182275004Y-54326000D01*
X182275004Y-54324000D01*
X182293911Y-54265809D01*
X182343411Y-54229845D01*
X182374004Y-54225000D01*
X182875003Y-54225000D01*
X182875004Y-54224999D01*
X182875004Y-54124000D01*
X182893911Y-54065809D01*
X182943411Y-54029845D01*
X182974004Y-54025000D01*
X183976004Y-54025000D01*
X184034195Y-54043907D01*
G37*
G04 #@! TD.AperFunction*
M02*
