G04 #@! TF.GenerationSoftware,KiCad,Pcbnew,8.0.6*
G04 #@! TF.CreationDate,2025-05-06T14:47:19+02:00*
G04 #@! TF.ProjectId,nRF5340,6e524635-3334-4302-9e6b-696361645f70,rev?*
G04 #@! TF.SameCoordinates,Original*
G04 #@! TF.FileFunction,Soldermask,Top*
G04 #@! TF.FilePolarity,Negative*
%FSLAX46Y46*%
G04 Gerber Fmt 4.6, Leading zero omitted, Abs format (unit mm)*
G04 Created by KiCad (PCBNEW 8.0.6) date 2025-05-06 14:47:19*
%MOMM*%
%LPD*%
G01*
G04 APERTURE LIST*
G04 Aperture macros list*
%AMRoundRect*
0 Rectangle with rounded corners*
0 $1 Rounding radius*
0 $2 $3 $4 $5 $6 $7 $8 $9 X,Y pos of 4 corners*
0 Add a 4 corners polygon primitive as box body*
4,1,4,$2,$3,$4,$5,$6,$7,$8,$9,$2,$3,0*
0 Add four circle primitives for the rounded corners*
1,1,$1+$1,$2,$3*
1,1,$1+$1,$4,$5*
1,1,$1+$1,$6,$7*
1,1,$1+$1,$8,$9*
0 Add four rect primitives between the rounded corners*
20,1,$1+$1,$2,$3,$4,$5,0*
20,1,$1+$1,$4,$5,$6,$7,0*
20,1,$1+$1,$6,$7,$8,$9,0*
20,1,$1+$1,$8,$9,$2,$3,0*%
G04 Aperture macros list end*
%ADD10RoundRect,0.225000X0.225000X0.250000X-0.225000X0.250000X-0.225000X-0.250000X0.225000X-0.250000X0*%
%ADD11RoundRect,0.200000X-0.200000X-0.275000X0.200000X-0.275000X0.200000X0.275000X-0.200000X0.275000X0*%
%ADD12RoundRect,0.225000X-0.250000X0.225000X-0.250000X-0.225000X0.250000X-0.225000X0.250000X0.225000X0*%
%ADD13RoundRect,0.225000X-0.225000X-0.250000X0.225000X-0.250000X0.225000X0.250000X-0.225000X0.250000X0*%
%ADD14R,0.254000X0.762000*%
%ADD15R,0.762000X0.254000*%
%ADD16R,3.606800X3.606800*%
%ADD17RoundRect,0.218750X0.218750X0.256250X-0.218750X0.256250X-0.218750X-0.256250X0.218750X-0.256250X0*%
%ADD18R,0.990600X0.711200*%
%ADD19RoundRect,0.102000X0.300000X-0.300000X0.300000X0.300000X-0.300000X0.300000X-0.300000X-0.300000X0*%
%ADD20RoundRect,0.200000X0.200000X0.275000X-0.200000X0.275000X-0.200000X-0.275000X0.200000X-0.275000X0*%
%ADD21RoundRect,0.200000X0.275000X-0.200000X0.275000X0.200000X-0.275000X0.200000X-0.275000X-0.200000X0*%
%ADD22RoundRect,0.218750X-0.218750X-0.256250X0.218750X-0.256250X0.218750X0.256250X-0.218750X0.256250X0*%
%ADD23RoundRect,0.102000X-0.575000X0.300000X-0.575000X-0.300000X0.575000X-0.300000X0.575000X0.300000X0*%
%ADD24RoundRect,0.102000X-0.575000X0.150000X-0.575000X-0.150000X0.575000X-0.150000X0.575000X0.150000X0*%
%ADD25O,2.004000X1.204000*%
%ADD26O,2.404000X1.204000*%
%ADD27R,0.304800X0.711200*%
%ADD28R,1.092200X0.508000*%
%ADD29R,0.254000X0.279400*%
%ADD30R,0.279400X0.254000*%
%ADD31RoundRect,0.150000X-0.512500X-0.150000X0.512500X-0.150000X0.512500X0.150000X-0.512500X0.150000X0*%
%ADD32C,0.990600*%
G04 APERTURE END LIST*
D10*
X172800001Y-69900000D03*
X171249999Y-69900000D03*
D11*
X170775000Y-51750000D03*
X172425000Y-51750000D03*
D12*
X186730000Y-71534999D03*
X186730000Y-73085001D03*
D13*
X173774999Y-51750000D03*
X175325001Y-51750000D03*
D14*
X178390000Y-72971400D03*
X178890000Y-72971404D03*
X179389998Y-72971399D03*
X179889999Y-72971401D03*
X180390002Y-72971399D03*
X180890000Y-72971400D03*
X181389998Y-72971400D03*
X181889998Y-72971400D03*
D15*
X182565699Y-72295699D03*
X182565703Y-71795699D03*
X182565698Y-71295701D03*
X182565700Y-70795700D03*
X182565698Y-70295697D03*
X182565699Y-69795699D03*
X182565699Y-69295701D03*
X182565699Y-68795701D03*
D14*
X181889998Y-68120000D03*
X181389998Y-68119996D03*
X180890000Y-68120001D03*
X180389999Y-68119999D03*
X179889996Y-68120001D03*
X179389998Y-68120000D03*
X178890000Y-68120000D03*
X178390000Y-68120000D03*
D15*
X177714299Y-68795701D03*
X177714295Y-69295701D03*
X177714300Y-69795699D03*
X177714298Y-70295700D03*
X177714300Y-70795703D03*
X177714299Y-71295701D03*
X177714299Y-71795699D03*
X177714299Y-72295699D03*
D16*
X180139999Y-70545700D03*
D17*
X182717502Y-74939999D03*
X181142498Y-74940001D03*
D18*
X174550001Y-55599999D03*
X170049998Y-55599999D03*
X174550002Y-53450001D03*
X170049999Y-53450001D03*
D12*
X185230000Y-71514999D03*
X185230000Y-73065001D03*
D11*
X190700000Y-66400000D03*
X192350000Y-66400000D03*
X190700000Y-65075000D03*
X192350000Y-65075000D03*
D19*
X188975006Y-64224999D03*
X187875005Y-64225000D03*
X186775003Y-64224997D03*
X185675004Y-64225000D03*
X184575005Y-64225003D03*
X183475004Y-64225000D03*
X182375002Y-64225001D03*
X181275004Y-64225001D03*
X180175004Y-64224998D03*
X188975004Y-63125000D03*
X187875004Y-63125004D03*
X186775004Y-63125000D03*
X185675004Y-63125002D03*
X184575004Y-63125000D03*
X183475006Y-63125002D03*
X182375004Y-63125000D03*
X181275003Y-63124999D03*
X180175004Y-63125000D03*
X188975003Y-62025001D03*
X187875004Y-62025001D03*
X185675004Y-62025000D03*
X184575000Y-62025000D03*
X183475004Y-62025000D03*
X181275003Y-62025000D03*
X180175000Y-62025000D03*
X188975004Y-60925000D03*
X187875004Y-60925000D03*
X186775004Y-60925000D03*
X182375004Y-60925000D03*
X181275009Y-60924998D03*
X180175004Y-60925000D03*
X188975006Y-59824998D03*
X187875004Y-59825000D03*
X186775004Y-59825001D03*
X185125004Y-59825000D03*
X184025004Y-59825000D03*
X182375004Y-59825000D03*
X181275004Y-59825000D03*
X180175002Y-59825000D03*
X188975004Y-58725000D03*
X187875004Y-58725004D03*
X186775004Y-58725000D03*
X185125002Y-58725001D03*
X184025006Y-58724999D03*
X182375004Y-58725000D03*
X181275004Y-58724996D03*
X180175004Y-58725000D03*
X188975006Y-57625000D03*
X187875004Y-57625000D03*
X186775004Y-57625000D03*
X185125004Y-57625000D03*
X184025004Y-57625000D03*
X182375004Y-57624999D03*
X181275004Y-57625000D03*
X180175002Y-57625002D03*
X188975004Y-56525000D03*
X187874999Y-56525002D03*
X186775004Y-56525000D03*
X182375004Y-56525000D03*
X181275004Y-56525000D03*
X180175004Y-56525000D03*
X188975008Y-55425000D03*
X187875005Y-55425000D03*
X186775004Y-55425000D03*
X185125004Y-55425000D03*
X184025004Y-55425000D03*
X182375006Y-55425005D03*
X181275004Y-55424999D03*
X180175005Y-55424999D03*
X188975004Y-54325000D03*
X187875005Y-54325001D03*
X186775004Y-54325000D03*
X184575004Y-54325000D03*
X182375004Y-54325000D03*
X181275004Y-54324996D03*
X180175004Y-54325000D03*
X188975004Y-52825000D03*
X180175002Y-52824999D03*
X188975004Y-51325000D03*
X187875004Y-51325000D03*
X181275004Y-51325000D03*
X180175004Y-51325000D03*
D17*
X172822499Y-71405000D03*
X171247495Y-71404998D03*
D10*
X179695001Y-74930000D03*
X178144999Y-74930000D03*
D20*
X191075000Y-68225000D03*
X189425000Y-68225000D03*
D13*
X181524999Y-66100000D03*
X183075001Y-66100000D03*
D21*
X184975000Y-69765002D03*
X184975000Y-68115002D03*
D22*
X189462501Y-69649998D03*
X191037505Y-69650000D03*
D23*
X173112500Y-58490747D03*
X173112500Y-59290750D03*
D24*
X173112499Y-60440751D03*
X173112502Y-61440747D03*
X173112500Y-61940747D03*
X173112502Y-62940751D03*
D23*
X173112500Y-64090750D03*
X173112503Y-64890753D03*
D24*
X173112500Y-63440750D03*
X173112498Y-62440752D03*
X173112499Y-60940750D03*
X173112500Y-59940750D03*
D25*
X172537501Y-57370748D03*
D26*
X168537500Y-57370747D03*
D25*
X172537502Y-66010752D03*
D26*
X168537500Y-66010753D03*
D27*
X192125000Y-61149999D03*
X191324900Y-61149997D03*
X191324902Y-62648601D03*
X192125002Y-62648603D03*
D28*
X191724951Y-61899300D03*
D10*
X172799999Y-68524999D03*
X171249997Y-68524999D03*
D29*
X191086899Y-58412000D03*
X191586901Y-58412000D03*
X192086900Y-58412001D03*
X192586900Y-58412000D03*
D30*
X192598900Y-57899999D03*
X192598901Y-57400000D03*
D29*
X192586901Y-56888000D03*
X192086899Y-56888000D03*
X191586900Y-56887999D03*
X191086900Y-56888000D03*
D30*
X191074900Y-57400001D03*
X191074899Y-57900000D03*
D31*
X175702500Y-60500000D03*
X175702500Y-61450000D03*
X175702500Y-62400000D03*
X177977500Y-62400000D03*
X177977500Y-61450000D03*
X177977500Y-60500000D03*
D32*
X177165001Y-58270004D03*
X176149000Y-53190001D03*
X178181002Y-53190001D03*
M02*
