G04 #@! TF.GenerationSoftware,KiCad,Pcbnew,8.0.6*
G04 #@! TF.CreationDate,2025-05-06T14:47:19+02:00*
G04 #@! TF.ProjectId,nRF5340,6e524635-3334-4302-9e6b-696361645f70,rev?*
G04 #@! TF.SameCoordinates,Original*
G04 #@! TF.FileFunction,Legend,Bot*
G04 #@! TF.FilePolarity,Positive*
%FSLAX46Y46*%
G04 Gerber Fmt 4.6, Leading zero omitted, Abs format (unit mm)*
G04 Created by KiCad (PCBNEW 8.0.6) date 2025-05-06 14:47:19*
%MOMM*%
%LPD*%
G01*
G04 APERTURE LIST*
G04 Aperture macros list*
%AMRoundRect*
0 Rectangle with rounded corners*
0 $1 Rounding radius*
0 $2 $3 $4 $5 $6 $7 $8 $9 X,Y pos of 4 corners*
0 Add a 4 corners polygon primitive as box body*
4,1,4,$2,$3,$4,$5,$6,$7,$8,$9,$2,$3,0*
0 Add four circle primitives for the rounded corners*
1,1,$1+$1,$2,$3*
1,1,$1+$1,$4,$5*
1,1,$1+$1,$6,$7*
1,1,$1+$1,$8,$9*
0 Add four rect primitives between the rounded corners*
20,1,$1+$1,$2,$3,$4,$5,0*
20,1,$1+$1,$4,$5,$6,$7,0*
20,1,$1+$1,$6,$7,$8,$9,0*
20,1,$1+$1,$8,$9,$2,$3,0*%
G04 Aperture macros list end*
%ADD10C,0.100000*%
%ADD11C,0.125000*%
%ADD12C,0.254000*%
%ADD13C,0.000000*%
%ADD14C,0.120000*%
%ADD15O,2.004000X1.204000*%
%ADD16O,2.404000X1.204000*%
%ADD17RoundRect,0.102000X-0.300000X-0.775000X0.300000X-0.775000X0.300000X0.775000X-0.300000X0.775000X0*%
%ADD18RoundRect,0.102000X-0.600000X-0.900000X0.600000X-0.900000X0.600000X0.900000X-0.600000X0.900000X0*%
%ADD19C,0.990600*%
%ADD20C,0.787400*%
G04 APERTURE END LIST*
D10*
G36*
X188774363Y-66036704D02*
G01*
X188436915Y-66036704D01*
X188605639Y-65530532D01*
X188774363Y-66036704D01*
G37*
G36*
X187888972Y-65846228D02*
G01*
X187569824Y-65846228D01*
X187492400Y-65807516D01*
X187456255Y-65771372D01*
X187417544Y-65693949D01*
X187417544Y-65574698D01*
X187456255Y-65497274D01*
X187492400Y-65461130D01*
X187569824Y-65422419D01*
X187888972Y-65422419D01*
X187888972Y-65846228D01*
G37*
G36*
X190957226Y-66533530D02*
G01*
X186353096Y-66533530D01*
X186353096Y-65353285D01*
X186464207Y-65353285D01*
X186464207Y-65391553D01*
X186491267Y-65418613D01*
X186510401Y-65422419D01*
X186746115Y-65422419D01*
X186746115Y-66372419D01*
X186749921Y-66391553D01*
X186776981Y-66418613D01*
X186815249Y-66418613D01*
X186842309Y-66391553D01*
X186846115Y-66372419D01*
X186846115Y-65562895D01*
X187317544Y-65562895D01*
X187317544Y-65705752D01*
X187318032Y-65708208D01*
X187317670Y-65709297D01*
X187319786Y-65717024D01*
X187321350Y-65724886D01*
X187322161Y-65725697D01*
X187322823Y-65728113D01*
X187370441Y-65823350D01*
X187375356Y-65829683D01*
X187379808Y-65836345D01*
X187427426Y-65883964D01*
X187434092Y-65888418D01*
X187440421Y-65893330D01*
X187535659Y-65940949D01*
X187538074Y-65941610D01*
X187538886Y-65942422D01*
X187546747Y-65943985D01*
X187554475Y-65946102D01*
X187555563Y-65945739D01*
X187558020Y-65946228D01*
X187604844Y-65946228D01*
X187326582Y-66343746D01*
X187318728Y-66361604D01*
X187325378Y-66399290D01*
X187356729Y-66421235D01*
X187394415Y-66414585D01*
X187408506Y-66401092D01*
X187726910Y-65946228D01*
X187888972Y-65946228D01*
X187888972Y-66372419D01*
X187892778Y-66391553D01*
X187919838Y-66418613D01*
X187958106Y-66418613D01*
X187985166Y-66391553D01*
X187988267Y-66375963D01*
X188222432Y-66375963D01*
X188239546Y-66410192D01*
X188275850Y-66422293D01*
X188310079Y-66405179D01*
X188319740Y-66388230D01*
X188403582Y-66136704D01*
X188807696Y-66136704D01*
X188891538Y-66388230D01*
X188901199Y-66405178D01*
X188935428Y-66422293D01*
X188971732Y-66410191D01*
X188988846Y-66375963D01*
X188986406Y-66356607D01*
X188896438Y-66086704D01*
X189174687Y-66086704D01*
X189174687Y-66181942D01*
X189175175Y-66184398D01*
X189174813Y-66185487D01*
X189176929Y-66193214D01*
X189178493Y-66201076D01*
X189179304Y-66201887D01*
X189179966Y-66204303D01*
X189227584Y-66299540D01*
X189232495Y-66305868D01*
X189236950Y-66312535D01*
X189284569Y-66360155D01*
X189291235Y-66364609D01*
X189297564Y-66369521D01*
X189392802Y-66417140D01*
X189395217Y-66417801D01*
X189396029Y-66418613D01*
X189403890Y-66420176D01*
X189411618Y-66422293D01*
X189412706Y-66421930D01*
X189415163Y-66422419D01*
X189653258Y-66422419D01*
X189661120Y-66420855D01*
X189669069Y-66419853D01*
X189811926Y-66372234D01*
X189828874Y-66362573D01*
X189845989Y-66328344D01*
X189833887Y-66292040D01*
X189799659Y-66274926D01*
X189780303Y-66277366D01*
X189645145Y-66322419D01*
X189426967Y-66322419D01*
X189349544Y-66283708D01*
X189313398Y-66247561D01*
X189274687Y-66170139D01*
X189274687Y-66098507D01*
X189313398Y-66021083D01*
X189349543Y-65984939D01*
X189432615Y-65943403D01*
X189617766Y-65897116D01*
X189622718Y-65894776D01*
X189628000Y-65893330D01*
X189723237Y-65845712D01*
X189729570Y-65840796D01*
X189736232Y-65836345D01*
X189783851Y-65788727D01*
X189788305Y-65782060D01*
X189793217Y-65775732D01*
X189840836Y-65680494D01*
X189841497Y-65678078D01*
X189842309Y-65677267D01*
X189843872Y-65669405D01*
X189845989Y-65661678D01*
X189845626Y-65660589D01*
X189846115Y-65658133D01*
X189846115Y-65562895D01*
X189845626Y-65560438D01*
X189845989Y-65559350D01*
X189843872Y-65551622D01*
X189842309Y-65543761D01*
X189841497Y-65542949D01*
X189840836Y-65540534D01*
X189793217Y-65445296D01*
X189788305Y-65438967D01*
X189783851Y-65432301D01*
X189736232Y-65384683D01*
X189729570Y-65380231D01*
X189723237Y-65375316D01*
X189717443Y-65372419D01*
X190174687Y-65372419D01*
X190174687Y-66181942D01*
X190175175Y-66184398D01*
X190174813Y-66185487D01*
X190176929Y-66193214D01*
X190178493Y-66201076D01*
X190179304Y-66201887D01*
X190179966Y-66204303D01*
X190227584Y-66299540D01*
X190232495Y-66305868D01*
X190236950Y-66312535D01*
X190284569Y-66360155D01*
X190291235Y-66364609D01*
X190297564Y-66369521D01*
X190392802Y-66417140D01*
X190395217Y-66417801D01*
X190396029Y-66418613D01*
X190403890Y-66420176D01*
X190411618Y-66422293D01*
X190412706Y-66421930D01*
X190415163Y-66422419D01*
X190605639Y-66422419D01*
X190608095Y-66421930D01*
X190609184Y-66422293D01*
X190616911Y-66420176D01*
X190624773Y-66418613D01*
X190625584Y-66417801D01*
X190628000Y-66417140D01*
X190723237Y-66369522D01*
X190729564Y-66364611D01*
X190736233Y-66360155D01*
X190783852Y-66312535D01*
X190788305Y-66305869D01*
X190793217Y-66299541D01*
X190840836Y-66204303D01*
X190841497Y-66201887D01*
X190842309Y-66201076D01*
X190843872Y-66193214D01*
X190845989Y-66185487D01*
X190845626Y-66184398D01*
X190846115Y-66181942D01*
X190846115Y-65372419D01*
X190842309Y-65353285D01*
X190815249Y-65326225D01*
X190776981Y-65326225D01*
X190749921Y-65353285D01*
X190746115Y-65372419D01*
X190746115Y-66170138D01*
X190707403Y-66247561D01*
X190671257Y-66283708D01*
X190593836Y-66322419D01*
X190426967Y-66322419D01*
X190349544Y-66283708D01*
X190313398Y-66247561D01*
X190274687Y-66170139D01*
X190274687Y-65372419D01*
X190270881Y-65353285D01*
X190243821Y-65326225D01*
X190205553Y-65326225D01*
X190178493Y-65353285D01*
X190174687Y-65372419D01*
X189717443Y-65372419D01*
X189628000Y-65327698D01*
X189625584Y-65327036D01*
X189624773Y-65326225D01*
X189616911Y-65324661D01*
X189609184Y-65322545D01*
X189608095Y-65322907D01*
X189605639Y-65322419D01*
X189367544Y-65322419D01*
X189359682Y-65323982D01*
X189351732Y-65324985D01*
X189208876Y-65372604D01*
X189191927Y-65382265D01*
X189174813Y-65416494D01*
X189186914Y-65452798D01*
X189221143Y-65469912D01*
X189240498Y-65467472D01*
X189375657Y-65422419D01*
X189593836Y-65422419D01*
X189671259Y-65461130D01*
X189707403Y-65497275D01*
X189746115Y-65574698D01*
X189746115Y-65646329D01*
X189707403Y-65723752D01*
X189671259Y-65759897D01*
X189588188Y-65801433D01*
X189403036Y-65847721D01*
X189398083Y-65850060D01*
X189392802Y-65851507D01*
X189297564Y-65899126D01*
X189291235Y-65904037D01*
X189284569Y-65908492D01*
X189236951Y-65956111D01*
X189232499Y-65962772D01*
X189227584Y-65969106D01*
X189179966Y-66064343D01*
X189179304Y-66066758D01*
X189178493Y-66067570D01*
X189176929Y-66075431D01*
X189174813Y-66083159D01*
X189175175Y-66084247D01*
X189174687Y-66086704D01*
X188896438Y-66086704D01*
X188653073Y-65356608D01*
X188643412Y-65339659D01*
X188640069Y-65337987D01*
X188638399Y-65334647D01*
X188623362Y-65329634D01*
X188609183Y-65322545D01*
X188605638Y-65323726D01*
X188602095Y-65322545D01*
X188587921Y-65329632D01*
X188572879Y-65334646D01*
X188571207Y-65337989D01*
X188567866Y-65339660D01*
X188558205Y-65356608D01*
X188224872Y-66356608D01*
X188222432Y-66375963D01*
X187988267Y-66375963D01*
X187988972Y-66372419D01*
X187988972Y-65372419D01*
X187985166Y-65353285D01*
X187958106Y-65326225D01*
X187938972Y-65322419D01*
X187558020Y-65322419D01*
X187555563Y-65322907D01*
X187554475Y-65322545D01*
X187546747Y-65324661D01*
X187538886Y-65326225D01*
X187538074Y-65327036D01*
X187535659Y-65327698D01*
X187440421Y-65375317D01*
X187434092Y-65380228D01*
X187427426Y-65384683D01*
X187379808Y-65432302D01*
X187375356Y-65438963D01*
X187370441Y-65445297D01*
X187322823Y-65540534D01*
X187322161Y-65542949D01*
X187321350Y-65543761D01*
X187319786Y-65551622D01*
X187317670Y-65559350D01*
X187318032Y-65560438D01*
X187317544Y-65562895D01*
X186846115Y-65562895D01*
X186846115Y-65422419D01*
X187081829Y-65422419D01*
X187100963Y-65418613D01*
X187128023Y-65391553D01*
X187128023Y-65353285D01*
X187100963Y-65326225D01*
X187081829Y-65322419D01*
X186510401Y-65322419D01*
X186491267Y-65326225D01*
X186464207Y-65353285D01*
X186353096Y-65353285D01*
X186353096Y-65211308D01*
X190957226Y-65211308D01*
X190957226Y-66533530D01*
G37*
G36*
X179572419Y-56779104D02*
G01*
X179531099Y-56903063D01*
X179449942Y-56984219D01*
X179366872Y-57025755D01*
X179187692Y-57070550D01*
X179057145Y-57070550D01*
X178877966Y-57025755D01*
X178794892Y-56984218D01*
X178713739Y-56903065D01*
X178672419Y-56779103D01*
X178672419Y-56599122D01*
X179572419Y-56599122D01*
X179572419Y-56779104D01*
G37*
G36*
X179783530Y-57281661D02*
G01*
X178461308Y-57281661D01*
X178461308Y-56549122D01*
X178572419Y-56549122D01*
X178572419Y-56787217D01*
X178573982Y-56795079D01*
X178574985Y-56803028D01*
X178622604Y-56945885D01*
X178623844Y-56948060D01*
X178623844Y-56949208D01*
X178628297Y-56955872D01*
X178632265Y-56962833D01*
X178633291Y-56963346D01*
X178634683Y-56965429D01*
X178729921Y-57060667D01*
X178736580Y-57065117D01*
X178742915Y-57070033D01*
X178838153Y-57117652D01*
X178843434Y-57119098D01*
X178848387Y-57121438D01*
X179038863Y-57169057D01*
X179044980Y-57169354D01*
X179050990Y-57170550D01*
X179193847Y-57170550D01*
X179199856Y-57169354D01*
X179205974Y-57169057D01*
X179396450Y-57121438D01*
X179401402Y-57119098D01*
X179406684Y-57117652D01*
X179501921Y-57070034D01*
X179508249Y-57065122D01*
X179514916Y-57060668D01*
X179610155Y-56965429D01*
X179611545Y-56963347D01*
X179612573Y-56962834D01*
X179616543Y-56955868D01*
X179620994Y-56949208D01*
X179620994Y-56948060D01*
X179622234Y-56945885D01*
X179669853Y-56803029D01*
X179670855Y-56795078D01*
X179672419Y-56787217D01*
X179672419Y-56549122D01*
X179668613Y-56529988D01*
X179641553Y-56502928D01*
X179622419Y-56499122D01*
X178622419Y-56499122D01*
X178603285Y-56502928D01*
X178576225Y-56529988D01*
X178572419Y-56549122D01*
X178461308Y-56549122D01*
X178461308Y-55318941D01*
X178573049Y-55318941D01*
X178593106Y-55351533D01*
X178610838Y-55359667D01*
X179418075Y-55551866D01*
X178895250Y-55691286D01*
X178877743Y-55699894D01*
X178874327Y-55705792D01*
X178868429Y-55709208D01*
X178865080Y-55721766D01*
X178858569Y-55733013D01*
X178860325Y-55739598D01*
X178858569Y-55746183D01*
X178865080Y-55757429D01*
X178868429Y-55769988D01*
X178874327Y-55773403D01*
X178877743Y-55779302D01*
X178895250Y-55787910D01*
X179418075Y-55927329D01*
X178610838Y-56119530D01*
X178593106Y-56127664D01*
X178573049Y-56160256D01*
X178581913Y-56197483D01*
X178614505Y-56217540D01*
X178634000Y-56216810D01*
X179634000Y-55978714D01*
X179651732Y-55970580D01*
X179655651Y-55964210D01*
X179662123Y-55960464D01*
X179665308Y-55948517D01*
X179671789Y-55937988D01*
X179670057Y-55930714D01*
X179671984Y-55923489D01*
X179665788Y-55912787D01*
X179662925Y-55900761D01*
X179656557Y-55896842D01*
X179652810Y-55890370D01*
X179635302Y-55881762D01*
X179102186Y-55739598D01*
X179635302Y-55597434D01*
X179652810Y-55588826D01*
X179656557Y-55582353D01*
X179662925Y-55578435D01*
X179665788Y-55566408D01*
X179671984Y-55555707D01*
X179670057Y-55548481D01*
X179671789Y-55541208D01*
X179665308Y-55530678D01*
X179662123Y-55518732D01*
X179655651Y-55514985D01*
X179651732Y-55508616D01*
X179634000Y-55500482D01*
X178634000Y-55262387D01*
X178614505Y-55261657D01*
X178581913Y-55281714D01*
X178573049Y-55318941D01*
X178461308Y-55318941D01*
X178461308Y-54596741D01*
X178572419Y-54596741D01*
X178572419Y-54834836D01*
X178573982Y-54842698D01*
X178574985Y-54850647D01*
X178622604Y-54993504D01*
X178632265Y-55010452D01*
X178666494Y-55027567D01*
X178702798Y-55015465D01*
X178719912Y-54981237D01*
X178717472Y-54961881D01*
X178672419Y-54826722D01*
X178672419Y-54608544D01*
X178711130Y-54531120D01*
X178747275Y-54494976D01*
X178824699Y-54456265D01*
X178896330Y-54456265D01*
X178973753Y-54494976D01*
X179009897Y-54531121D01*
X179051433Y-54614193D01*
X179097721Y-54799344D01*
X179100060Y-54804296D01*
X179101507Y-54809578D01*
X179149125Y-54904815D01*
X179154040Y-54911148D01*
X179158492Y-54917810D01*
X179206110Y-54965429D01*
X179212776Y-54969883D01*
X179219105Y-54974795D01*
X179314343Y-55022414D01*
X179316758Y-55023075D01*
X179317570Y-55023887D01*
X179325431Y-55025450D01*
X179333159Y-55027567D01*
X179334247Y-55027204D01*
X179336704Y-55027693D01*
X179431942Y-55027693D01*
X179434398Y-55027204D01*
X179435487Y-55027567D01*
X179443214Y-55025450D01*
X179451076Y-55023887D01*
X179451887Y-55023075D01*
X179454303Y-55022414D01*
X179549540Y-54974796D01*
X179555868Y-54969884D01*
X179562535Y-54965430D01*
X179610155Y-54917811D01*
X179614609Y-54911144D01*
X179619521Y-54904816D01*
X179667140Y-54809578D01*
X179667801Y-54807162D01*
X179668613Y-54806351D01*
X179670176Y-54798489D01*
X179672293Y-54790762D01*
X179671930Y-54789673D01*
X179672419Y-54787217D01*
X179672419Y-54549122D01*
X179670855Y-54541260D01*
X179669853Y-54533310D01*
X179622234Y-54390454D01*
X179612573Y-54373505D01*
X179578344Y-54356391D01*
X179542040Y-54368492D01*
X179524926Y-54402721D01*
X179527366Y-54422076D01*
X179572419Y-54557235D01*
X179572419Y-54775413D01*
X179533708Y-54852835D01*
X179497561Y-54888981D01*
X179420139Y-54927693D01*
X179348508Y-54927693D01*
X179271084Y-54888981D01*
X179234939Y-54852837D01*
X179193404Y-54769766D01*
X179147116Y-54584614D01*
X179144776Y-54579661D01*
X179143330Y-54574380D01*
X179095711Y-54479142D01*
X179090799Y-54472813D01*
X179086345Y-54466147D01*
X179038726Y-54418529D01*
X179032064Y-54414077D01*
X179025731Y-54409162D01*
X178930494Y-54361544D01*
X178928078Y-54360882D01*
X178927267Y-54360071D01*
X178919405Y-54358507D01*
X178911678Y-54356391D01*
X178910589Y-54356753D01*
X178908133Y-54356265D01*
X178812895Y-54356265D01*
X178810438Y-54356753D01*
X178809350Y-54356391D01*
X178801622Y-54358507D01*
X178793761Y-54360071D01*
X178792949Y-54360882D01*
X178790534Y-54361544D01*
X178695296Y-54409163D01*
X178688967Y-54414074D01*
X178682301Y-54418529D01*
X178634683Y-54466148D01*
X178630231Y-54472809D01*
X178625316Y-54479143D01*
X178577698Y-54574380D01*
X178577036Y-54576795D01*
X178576225Y-54577607D01*
X178574661Y-54585468D01*
X178572545Y-54593196D01*
X178572907Y-54594284D01*
X178572419Y-54596741D01*
X178461308Y-54596741D01*
X178461308Y-54245154D01*
X179783530Y-54245154D01*
X179783530Y-57281661D01*
G37*
D11*
G36*
X176867168Y-67683619D02*
G01*
X176563471Y-67683619D01*
X176490501Y-67647134D01*
X176457225Y-67613857D01*
X176420740Y-67540887D01*
X176420740Y-67427540D01*
X176457226Y-67354568D01*
X176487238Y-67324555D01*
X176606478Y-67284809D01*
X176867168Y-67284809D01*
X176867168Y-67683619D01*
G37*
G36*
X176867168Y-67159809D02*
G01*
X176611090Y-67159809D01*
X176538118Y-67123323D01*
X176504845Y-67090050D01*
X176468359Y-67017078D01*
X176468359Y-66951350D01*
X176504845Y-66878378D01*
X176538118Y-66845105D01*
X176611090Y-66808619D01*
X176867168Y-66808619D01*
X176867168Y-67159809D01*
G37*
G36*
X175890572Y-67397904D02*
G01*
X175587812Y-67397904D01*
X175739192Y-66943762D01*
X175890572Y-67397904D01*
G37*
G36*
X177103279Y-67919730D02*
G01*
X173713196Y-67919730D01*
X173713196Y-66722201D01*
X173824307Y-66722201D01*
X173824307Y-66770037D01*
X173858131Y-66803861D01*
X173882049Y-66808619D01*
X174105263Y-66808619D01*
X174105263Y-67746119D01*
X174110021Y-67770037D01*
X174143845Y-67803861D01*
X174191681Y-67803861D01*
X174225505Y-67770037D01*
X174230263Y-67746119D01*
X174230263Y-66808619D01*
X174453477Y-66808619D01*
X174477395Y-66803861D01*
X174511219Y-66770037D01*
X174511219Y-66722201D01*
X174586212Y-66722201D01*
X174586212Y-66770037D01*
X174620036Y-66803861D01*
X174643954Y-66808619D01*
X174867168Y-66808619D01*
X174867168Y-67746119D01*
X174871926Y-67770037D01*
X174905750Y-67803861D01*
X174953586Y-67803861D01*
X174987410Y-67770037D01*
X174991287Y-67750550D01*
X175343517Y-67750550D01*
X175364909Y-67793334D01*
X175410290Y-67808461D01*
X175453074Y-67787069D01*
X175465152Y-67765883D01*
X175546145Y-67522904D01*
X175932239Y-67522904D01*
X176013232Y-67765883D01*
X176025310Y-67787069D01*
X176068094Y-67808461D01*
X176113475Y-67793334D01*
X176134867Y-67750550D01*
X176131818Y-67726354D01*
X176027295Y-67412785D01*
X176295740Y-67412785D01*
X176295740Y-67555642D01*
X176296350Y-67558713D01*
X176295898Y-67560072D01*
X176298543Y-67569732D01*
X176300498Y-67579560D01*
X176301511Y-67580573D01*
X176302338Y-67583593D01*
X176349957Y-67678831D01*
X176356097Y-67686742D01*
X176361664Y-67695074D01*
X176409283Y-67742694D01*
X176417611Y-67748258D01*
X176425527Y-67754402D01*
X176520765Y-67802021D01*
X176523784Y-67802847D01*
X176524798Y-67803861D01*
X176534625Y-67805815D01*
X176544286Y-67808461D01*
X176545644Y-67808008D01*
X176548716Y-67808619D01*
X176929668Y-67808619D01*
X176953586Y-67803861D01*
X176987410Y-67770037D01*
X176992168Y-67746119D01*
X176992168Y-66746119D01*
X176987410Y-66722201D01*
X176953586Y-66688377D01*
X176929668Y-66683619D01*
X176596335Y-66683619D01*
X176593263Y-66684229D01*
X176591905Y-66683777D01*
X176582244Y-66686422D01*
X176572417Y-66688377D01*
X176571403Y-66689390D01*
X176568384Y-66690217D01*
X176473146Y-66737836D01*
X176465224Y-66743983D01*
X176456903Y-66749544D01*
X176409284Y-66797163D01*
X176403723Y-66805484D01*
X176397576Y-66813406D01*
X176349957Y-66908644D01*
X176349130Y-66911663D01*
X176348117Y-66912677D01*
X176346162Y-66922504D01*
X176343517Y-66932165D01*
X176343969Y-66933523D01*
X176343359Y-66936595D01*
X176343359Y-67031833D01*
X176343969Y-67034904D01*
X176343517Y-67036263D01*
X176346162Y-67045923D01*
X176348117Y-67055751D01*
X176349130Y-67056764D01*
X176349957Y-67059784D01*
X176397576Y-67155022D01*
X176403723Y-67162943D01*
X176409284Y-67171265D01*
X176444918Y-67206899D01*
X176433714Y-67210635D01*
X176430993Y-67212186D01*
X176429561Y-67212186D01*
X176421232Y-67217750D01*
X176412528Y-67222713D01*
X176411887Y-67223994D01*
X176409284Y-67225734D01*
X176361665Y-67273353D01*
X176356104Y-67281674D01*
X176349957Y-67289596D01*
X176302338Y-67384834D01*
X176301511Y-67387853D01*
X176300498Y-67388867D01*
X176298543Y-67398694D01*
X176295898Y-67408355D01*
X176296350Y-67409713D01*
X176295740Y-67412785D01*
X176027295Y-67412785D01*
X175798485Y-66726355D01*
X175786407Y-66705169D01*
X175782230Y-66703080D01*
X175780142Y-66698904D01*
X175761347Y-66692639D01*
X175743623Y-66683777D01*
X175739192Y-66685254D01*
X175734761Y-66683777D01*
X175717037Y-66692639D01*
X175698242Y-66698904D01*
X175696153Y-66703080D01*
X175691977Y-66705169D01*
X175679899Y-66726355D01*
X175346566Y-67726355D01*
X175343517Y-67750550D01*
X174991287Y-67750550D01*
X174992168Y-67746119D01*
X174992168Y-66808619D01*
X175215382Y-66808619D01*
X175239300Y-66803861D01*
X175273124Y-66770037D01*
X175273124Y-66722201D01*
X175239300Y-66688377D01*
X175215382Y-66683619D01*
X174643954Y-66683619D01*
X174620036Y-66688377D01*
X174586212Y-66722201D01*
X174511219Y-66722201D01*
X174477395Y-66688377D01*
X174453477Y-66683619D01*
X173882049Y-66683619D01*
X173858131Y-66688377D01*
X173824307Y-66722201D01*
X173713196Y-66722201D01*
X173713196Y-66572508D01*
X177103279Y-66572508D01*
X177103279Y-67919730D01*
G37*
D12*
X186425000Y-68912000D02*
X186424999Y-71125000D01*
X187279997Y-71124999D02*
X186424999Y-71125000D01*
X189147002Y-66874999D02*
X187658001Y-66874998D01*
X189525000Y-71125000D02*
X190425000Y-71125000D01*
X190424999Y-68778003D02*
X190425000Y-71125000D01*
X172625000Y-70311998D02*
X172624999Y-72525000D01*
X173480001Y-72525000D02*
X172624999Y-72525000D01*
X175346997Y-68275000D02*
X173857998Y-68275002D01*
X175725000Y-72525000D02*
X176625001Y-72525003D01*
X176625002Y-70178005D02*
X176625001Y-72525003D01*
D13*
G36*
X177872814Y-60818555D02*
G01*
X177872814Y-61332214D01*
X177765117Y-61332214D01*
X177657420Y-61332214D01*
X177663851Y-60825881D01*
X177670281Y-60319549D01*
X177771548Y-60312223D01*
X177872814Y-60304896D01*
X177872814Y-60818555D01*
G37*
G36*
X180612964Y-62201913D02*
G01*
X180612964Y-62714202D01*
X180517655Y-62714202D01*
X180422345Y-62714202D01*
X180422345Y-62201913D01*
X180422345Y-61689624D01*
X180517655Y-61689624D01*
X180612964Y-61689624D01*
X180612964Y-62201913D01*
G37*
G36*
X174679944Y-61773020D02*
G01*
X174679944Y-61856416D01*
X174548893Y-61856416D01*
X174417842Y-61856416D01*
X174417842Y-62285309D01*
X174417842Y-62714202D01*
X174322533Y-62714202D01*
X174227223Y-62714202D01*
X174227223Y-62285309D01*
X174227223Y-61856416D01*
X174096173Y-61856416D01*
X173965122Y-61856416D01*
X173965122Y-61773020D01*
X173965122Y-61689624D01*
X174322533Y-61689624D01*
X174679944Y-61689624D01*
X174679944Y-61773020D01*
G37*
G36*
X174864997Y-61499016D02*
G01*
X174917546Y-61503584D01*
X174938356Y-61526507D01*
X174942045Y-61582401D01*
X174942035Y-61588749D01*
X174937466Y-61641298D01*
X174914544Y-61662109D01*
X174858649Y-61665797D01*
X174852301Y-61665787D01*
X174799752Y-61661219D01*
X174778942Y-61638296D01*
X174775253Y-61582401D01*
X174775264Y-61576054D01*
X174779832Y-61523504D01*
X174802755Y-61502694D01*
X174858649Y-61499005D01*
X174864997Y-61499016D01*
G37*
G36*
X175421543Y-61503280D02*
G01*
X175439571Y-61525421D01*
X175442420Y-61580963D01*
X175442303Y-61600986D01*
X175436201Y-61645709D01*
X175410549Y-61662954D01*
X175351303Y-61665797D01*
X175332003Y-61665707D01*
X175283015Y-61660522D01*
X175264724Y-61638702D01*
X175263678Y-61588358D01*
X175263801Y-61585722D01*
X175271164Y-61535341D01*
X175296558Y-61512539D01*
X175354796Y-61503524D01*
X175374110Y-61501969D01*
X175421543Y-61503280D01*
G37*
G36*
X182638293Y-60402945D02*
G01*
X182638293Y-60498255D01*
X182507242Y-60498255D01*
X182376191Y-60498255D01*
X182376191Y-60915234D01*
X182376191Y-61332214D01*
X182268968Y-61332214D01*
X182161745Y-61332214D01*
X182161745Y-60915234D01*
X182161745Y-60498255D01*
X182030694Y-60498255D01*
X181899644Y-60498255D01*
X181899644Y-60402945D01*
X181899644Y-60307636D01*
X182268968Y-60307636D01*
X182638293Y-60307636D01*
X182638293Y-60402945D01*
G37*
G36*
X176276379Y-61773020D02*
G01*
X176276379Y-61856416D01*
X176145328Y-61856416D01*
X176014278Y-61856416D01*
X176014278Y-62269424D01*
X176013688Y-62381296D01*
X176011525Y-62503822D01*
X176008056Y-62602875D01*
X176003579Y-62670393D01*
X175998393Y-62698317D01*
X175994442Y-62700978D01*
X175954136Y-62710396D01*
X175891169Y-62714202D01*
X175799831Y-62714202D01*
X175799831Y-62285309D01*
X175799831Y-61856416D01*
X175668780Y-61856416D01*
X175537730Y-61856416D01*
X175537730Y-61773020D01*
X175537730Y-61689624D01*
X175907054Y-61689624D01*
X176276379Y-61689624D01*
X176276379Y-61773020D01*
G37*
G36*
X176593100Y-61692289D02*
G01*
X176625880Y-61706067D01*
X176634344Y-61737279D01*
X176634345Y-61737358D01*
X176634519Y-61775716D01*
X176634671Y-61853306D01*
X176634791Y-61961747D01*
X176634870Y-62092656D01*
X176634898Y-62237654D01*
X176634898Y-62245002D01*
X176634868Y-62386305D01*
X176634788Y-62510262D01*
X176634668Y-62609297D01*
X176634517Y-62675831D01*
X176634344Y-62702289D01*
X176631826Y-62704940D01*
X176598347Y-62711554D01*
X176538480Y-62714202D01*
X176443171Y-62714202D01*
X176443171Y-62201913D01*
X176443171Y-61689624D01*
X176538480Y-61689624D01*
X176593100Y-61692289D01*
G37*
G36*
X174632289Y-60819925D02*
G01*
X174632289Y-61332214D01*
X174286792Y-61332214D01*
X173941295Y-61332214D01*
X173941295Y-61248818D01*
X173941295Y-61165422D01*
X174179568Y-61165422D01*
X174417842Y-61165422D01*
X174417842Y-61034371D01*
X174417842Y-60903321D01*
X174215310Y-60903321D01*
X174012777Y-60903321D01*
X174012777Y-60819925D01*
X174012777Y-60736529D01*
X174215310Y-60736529D01*
X174417842Y-60736529D01*
X174417842Y-60618255D01*
X174417842Y-60499981D01*
X174185525Y-60493161D01*
X173953208Y-60486341D01*
X173945813Y-60396988D01*
X173938418Y-60307636D01*
X174285353Y-60307636D01*
X174632289Y-60307636D01*
X174632289Y-60819925D01*
G37*
G36*
X175633039Y-60818555D02*
G01*
X175633039Y-61332214D01*
X175525816Y-61332214D01*
X175418593Y-61332214D01*
X175418593Y-61117767D01*
X175418593Y-60903321D01*
X175251801Y-60903321D01*
X175085009Y-60903321D01*
X175085009Y-61117767D01*
X175085009Y-61332214D01*
X174977312Y-61332214D01*
X174869615Y-61332214D01*
X174876046Y-60825881D01*
X174882477Y-60319549D01*
X174983743Y-60312223D01*
X175085009Y-60304896D01*
X175085009Y-60520712D01*
X175085009Y-60736529D01*
X175250873Y-60736529D01*
X175416738Y-60736529D01*
X175423622Y-60528039D01*
X175430507Y-60319549D01*
X175531773Y-60312223D01*
X175633039Y-60304896D01*
X175633039Y-60818555D01*
G37*
G36*
X178039606Y-63560075D02*
G01*
X178039606Y-64072364D01*
X177706022Y-64072364D01*
X177372439Y-64072364D01*
X177372439Y-63989831D01*
X177372439Y-63907298D01*
X177604756Y-63900478D01*
X177837073Y-63893658D01*
X177837073Y-63774521D01*
X177837073Y-63655384D01*
X177631124Y-63648537D01*
X177425175Y-63641689D01*
X177428591Y-63565141D01*
X177432007Y-63488593D01*
X177634540Y-63476679D01*
X177837073Y-63464765D01*
X177844336Y-63351585D01*
X177851598Y-63238405D01*
X177612018Y-63238405D01*
X177372439Y-63238405D01*
X177372439Y-63143095D01*
X177372439Y-63047786D01*
X177706022Y-63047786D01*
X178039606Y-63047786D01*
X178039606Y-63560075D01*
G37*
G36*
X179326285Y-62201913D02*
G01*
X179326285Y-62714202D01*
X178992702Y-62714202D01*
X178659118Y-62714202D01*
X178659118Y-62618893D01*
X178659118Y-62523583D01*
X178897392Y-62523583D01*
X179135666Y-62523583D01*
X179135666Y-62404446D01*
X179135666Y-62285309D01*
X178933133Y-62285309D01*
X178730600Y-62285309D01*
X178730600Y-62190000D01*
X178730600Y-62094690D01*
X178933133Y-62094690D01*
X179135666Y-62094690D01*
X179135666Y-61975553D01*
X179135666Y-61856416D01*
X178897392Y-61856416D01*
X178659118Y-61856416D01*
X178659118Y-61773020D01*
X178659118Y-61689624D01*
X178992702Y-61689624D01*
X179326285Y-61689624D01*
X179326285Y-62201913D01*
G37*
G36*
X179921970Y-60818555D02*
G01*
X179921970Y-61332214D01*
X179814747Y-61332214D01*
X179707523Y-61332214D01*
X179707523Y-61117767D01*
X179707523Y-60903321D01*
X179540732Y-60903321D01*
X179373940Y-60903321D01*
X179373940Y-61117767D01*
X179373940Y-61332214D01*
X179266243Y-61332214D01*
X179158546Y-61332214D01*
X179164976Y-60825881D01*
X179171407Y-60319549D01*
X179272674Y-60312223D01*
X179373940Y-60304896D01*
X179373940Y-60520712D01*
X179373940Y-60736529D01*
X179539804Y-60736529D01*
X179705668Y-60736529D01*
X179712553Y-60528039D01*
X179719437Y-60319549D01*
X179820704Y-60312223D01*
X179921970Y-60304896D01*
X179921970Y-60818555D01*
G37*
G36*
X180732101Y-63560075D02*
G01*
X180732101Y-64072364D01*
X180398518Y-64072364D01*
X180064934Y-64072364D01*
X180064934Y-63989831D01*
X180064934Y-63907298D01*
X180297251Y-63900478D01*
X180529568Y-63893658D01*
X180536771Y-63768564D01*
X180543973Y-63643471D01*
X180328281Y-63643471D01*
X180112589Y-63643471D01*
X180112589Y-63561002D01*
X180112589Y-63478534D01*
X180321079Y-63471650D01*
X180529568Y-63464765D01*
X180536831Y-63351585D01*
X180544093Y-63238405D01*
X180304514Y-63238405D01*
X180064934Y-63238405D01*
X180064934Y-63143095D01*
X180064934Y-63047786D01*
X180398518Y-63047786D01*
X180732101Y-63047786D01*
X180732101Y-63560075D01*
G37*
G36*
X181377276Y-60312938D02*
G01*
X181712694Y-60319549D01*
X181716816Y-60825887D01*
X181720938Y-61332224D01*
X181381398Y-61332219D01*
X181041857Y-61332214D01*
X181041857Y-61248818D01*
X181041857Y-61165422D01*
X181280131Y-61165422D01*
X181518405Y-61165422D01*
X181518405Y-61034371D01*
X181518405Y-60903321D01*
X181315872Y-60903321D01*
X181113340Y-60903321D01*
X181113340Y-60819925D01*
X181113340Y-60736529D01*
X181315872Y-60736529D01*
X181518405Y-60736529D01*
X181518405Y-60617392D01*
X181518405Y-60498255D01*
X181280131Y-60498255D01*
X181041857Y-60498255D01*
X181041857Y-60402291D01*
X181041857Y-60306327D01*
X181377276Y-60312938D01*
G37*
G36*
X178823110Y-60312342D02*
G01*
X178909306Y-60319549D01*
X178915737Y-60825881D01*
X178922167Y-61332214D01*
X178815182Y-61332214D01*
X178708197Y-61332214D01*
X178701528Y-61030557D01*
X178694859Y-60728900D01*
X178504240Y-61029546D01*
X178457266Y-61103487D01*
X178396088Y-61197884D01*
X178351331Y-61261641D01*
X178317383Y-61300805D01*
X178288631Y-61321422D01*
X178259464Y-61329539D01*
X178224268Y-61331203D01*
X178134916Y-61332214D01*
X178134916Y-60819925D01*
X178134916Y-60307636D01*
X178230225Y-60307636D01*
X178325535Y-60307636D01*
X178325921Y-60623349D01*
X178326307Y-60939062D01*
X178531611Y-60622099D01*
X178736914Y-60305135D01*
X178823110Y-60312342D01*
G37*
G36*
X181070930Y-61992994D02*
G01*
X181077598Y-62296364D01*
X181273824Y-61992994D01*
X181470049Y-61689624D01*
X181565709Y-61689624D01*
X181661370Y-61689624D01*
X181661370Y-62186028D01*
X181661308Y-62229724D01*
X181660182Y-62375010D01*
X181657811Y-62501802D01*
X181654420Y-62602811D01*
X181650236Y-62670746D01*
X181645485Y-62698317D01*
X181641718Y-62700889D01*
X181601687Y-62710368D01*
X181538953Y-62714202D01*
X181448306Y-62714202D01*
X181441658Y-62407637D01*
X181435009Y-62101072D01*
X181241627Y-62401680D01*
X181211484Y-62448458D01*
X181144217Y-62551206D01*
X181094677Y-62622046D01*
X181057257Y-62667146D01*
X181026350Y-62692674D01*
X180996352Y-62704798D01*
X180961655Y-62709684D01*
X180875066Y-62717079D01*
X180875066Y-62203352D01*
X180875066Y-61689624D01*
X180969663Y-61689624D01*
X181064261Y-61689624D01*
X181070930Y-61992994D01*
G37*
G36*
X186998705Y-62199881D02*
G01*
X186998705Y-62940198D01*
X186432991Y-63506281D01*
X185867277Y-64072364D01*
X185115869Y-64072364D01*
X184364461Y-64072364D01*
X183799219Y-63505324D01*
X183233977Y-62938285D01*
X183233977Y-62200361D01*
X183233977Y-61486694D01*
X183353114Y-61486694D01*
X183353114Y-62190000D01*
X183353114Y-62893305D01*
X183883468Y-63423266D01*
X184413822Y-63953227D01*
X185116734Y-63953227D01*
X185819647Y-63953227D01*
X186349608Y-63422873D01*
X186879568Y-62892519D01*
X186879568Y-62189607D01*
X186879568Y-61486694D01*
X186349215Y-60956734D01*
X185818861Y-60426773D01*
X185116341Y-60426773D01*
X184413822Y-60426773D01*
X183883468Y-60956734D01*
X183353114Y-61486694D01*
X183233977Y-61486694D01*
X183233977Y-61462437D01*
X183811591Y-60885037D01*
X184389205Y-60307636D01*
X185116869Y-60307636D01*
X185844533Y-60307636D01*
X186421619Y-60883600D01*
X186998705Y-61459564D01*
X186998705Y-61486694D01*
X186998705Y-62199881D01*
G37*
G36*
X176562308Y-63345628D02*
G01*
X176562324Y-63358501D01*
X176563940Y-63469641D01*
X176567815Y-63560191D01*
X176573409Y-63621132D01*
X176580178Y-63643442D01*
X176585841Y-63639256D01*
X176614307Y-63603980D01*
X176660888Y-63538618D01*
X176720651Y-63450211D01*
X176788668Y-63345796D01*
X176834501Y-63274369D01*
X176896160Y-63180128D01*
X176941202Y-63116536D01*
X176975298Y-63077559D01*
X177004121Y-63057164D01*
X177033345Y-63049316D01*
X177068640Y-63047982D01*
X177157992Y-63047786D01*
X177157992Y-63560075D01*
X177157992Y-64072364D01*
X177062683Y-64072364D01*
X176967373Y-64072364D01*
X176967373Y-63774521D01*
X176967357Y-63761576D01*
X176965739Y-63650499D01*
X176961864Y-63560062D01*
X176956271Y-63499268D01*
X176949503Y-63477120D01*
X176944129Y-63481134D01*
X176916277Y-63516240D01*
X176870542Y-63581658D01*
X176811811Y-63670270D01*
X176744969Y-63774963D01*
X176558306Y-64072364D01*
X176464997Y-64072364D01*
X176371689Y-64072364D01*
X176371689Y-63560075D01*
X176371689Y-63047786D01*
X176466998Y-63047786D01*
X176562308Y-63047786D01*
X176562308Y-63345628D01*
G37*
G36*
X182090263Y-62067170D02*
G01*
X182090728Y-62199897D01*
X182092781Y-62308169D01*
X182097179Y-62383029D01*
X182104674Y-62431957D01*
X182116017Y-62462433D01*
X182131961Y-62481934D01*
X182148150Y-62494857D01*
X182225896Y-62527177D01*
X182306855Y-62524413D01*
X182376790Y-62489373D01*
X182421465Y-62424862D01*
X182423637Y-62417502D01*
X182433049Y-62357429D01*
X182440683Y-62263513D01*
X182445803Y-62147130D01*
X182447674Y-62019652D01*
X182447674Y-61689624D01*
X182544552Y-61689624D01*
X182641431Y-61689624D01*
X182633905Y-62093031D01*
X182633357Y-62121326D01*
X182628765Y-62281160D01*
X182620735Y-62401773D01*
X182606893Y-62490477D01*
X182584868Y-62554586D01*
X182552288Y-62601412D01*
X182506783Y-62638269D01*
X182445980Y-62672467D01*
X182338204Y-62708407D01*
X182213667Y-62710848D01*
X182095690Y-62676613D01*
X181995287Y-62609092D01*
X181923473Y-62511674D01*
X181910987Y-62483785D01*
X181895770Y-62437066D01*
X181885603Y-62379724D01*
X181879527Y-62302507D01*
X181876584Y-62196159D01*
X181875816Y-62051426D01*
X181875816Y-61689624D01*
X181983039Y-61689624D01*
X182090263Y-61689624D01*
X182090263Y-62067170D01*
G37*
G36*
X182638293Y-63557967D02*
G01*
X182638293Y-64072364D01*
X182397663Y-64072364D01*
X182273388Y-64069815D01*
X182140271Y-64055227D01*
X182043784Y-64022565D01*
X181977961Y-63966059D01*
X181936840Y-63879944D01*
X181914457Y-63758452D01*
X181904847Y-63595816D01*
X181903301Y-63527562D01*
X182093727Y-63527562D01*
X182093817Y-63664901D01*
X182110271Y-63767655D01*
X182145133Y-63836911D01*
X182200218Y-63878654D01*
X182254883Y-63895312D01*
X182327186Y-63904495D01*
X182392679Y-63902931D01*
X182431789Y-63889687D01*
X182433136Y-63887198D01*
X182438830Y-63849518D01*
X182443447Y-63775557D01*
X182446543Y-63674644D01*
X182447674Y-63556104D01*
X182447674Y-63238405D01*
X182320316Y-63238405D01*
X182316481Y-63238412D01*
X182226323Y-63245416D01*
X182164691Y-63270530D01*
X182125863Y-63321058D01*
X182104115Y-63404301D01*
X182093727Y-63527562D01*
X181903301Y-63527562D01*
X181902981Y-63513426D01*
X181903380Y-63410794D01*
X181908982Y-63338242D01*
X181920860Y-63284950D01*
X181940086Y-63240099D01*
X181955170Y-63212691D01*
X182001144Y-63147985D01*
X182057000Y-63103573D01*
X182132138Y-63075408D01*
X182235956Y-63059444D01*
X182377853Y-63051635D01*
X182638293Y-63043570D01*
X182638293Y-63556104D01*
X182638293Y-63557967D01*
G37*
G36*
X179768002Y-61999381D02*
G01*
X179777713Y-62031686D01*
X179811682Y-62140569D01*
X179841072Y-62228661D01*
X179863014Y-62287629D01*
X179874637Y-62309137D01*
X179876350Y-62307850D01*
X179891084Y-62276747D01*
X179915805Y-62210378D01*
X179947519Y-62117117D01*
X179983233Y-62005337D01*
X180077563Y-61701538D01*
X180178472Y-61694211D01*
X180205172Y-61692985D01*
X180258271Y-61696183D01*
X180279381Y-61706812D01*
X180277385Y-61715157D01*
X180263433Y-61761339D01*
X180238407Y-61840391D01*
X180204963Y-61944214D01*
X180165762Y-62064713D01*
X180123459Y-62193788D01*
X180080715Y-62323344D01*
X180040185Y-62445282D01*
X180004530Y-62551505D01*
X179976406Y-62633917D01*
X179958472Y-62684418D01*
X179930746Y-62705155D01*
X179877044Y-62714202D01*
X179853665Y-62713258D01*
X179834015Y-62706655D01*
X179815549Y-62688743D01*
X179795565Y-62653868D01*
X179771363Y-62596379D01*
X179740241Y-62510622D01*
X179699496Y-62390946D01*
X179646428Y-62231698D01*
X179630189Y-62182854D01*
X179583409Y-62042337D01*
X179542134Y-61918628D01*
X179508742Y-61818834D01*
X179485607Y-61750059D01*
X179475107Y-61719409D01*
X179474491Y-61709165D01*
X179501021Y-61694275D01*
X179569892Y-61689624D01*
X179675632Y-61689624D01*
X179768002Y-61999381D01*
G37*
G36*
X186762890Y-62400838D02*
G01*
X186763118Y-62861864D01*
X186257673Y-63359891D01*
X185752228Y-63857917D01*
X185118775Y-63857917D01*
X184485322Y-63857917D01*
X183978787Y-63351793D01*
X183472251Y-62845669D01*
X183472251Y-62314827D01*
X183472251Y-61904071D01*
X183567561Y-61904071D01*
X183567561Y-62350173D01*
X183567561Y-62796274D01*
X184038814Y-63267527D01*
X184510067Y-63738780D01*
X185115645Y-63738780D01*
X185721224Y-63738780D01*
X186193173Y-63268974D01*
X186665122Y-62799167D01*
X186665122Y-62351619D01*
X186665122Y-61904071D01*
X186260056Y-61904071D01*
X185854991Y-61904071D01*
X185854991Y-62499756D01*
X185854991Y-63095441D01*
X185116341Y-63095441D01*
X184377692Y-63095441D01*
X184377692Y-62499756D01*
X184377692Y-61904071D01*
X183972627Y-61904071D01*
X183567561Y-61904071D01*
X183472251Y-61904071D01*
X183472251Y-61783986D01*
X183978583Y-61790417D01*
X184484916Y-61796848D01*
X184491282Y-62398489D01*
X184497648Y-63000131D01*
X185116341Y-63000131D01*
X185735035Y-63000131D01*
X185741401Y-62398489D01*
X185747767Y-61796848D01*
X186254099Y-61790417D01*
X186760432Y-61783986D01*
X186761546Y-61861899D01*
X186761552Y-61862261D01*
X186761914Y-61910833D01*
X186762251Y-61997955D01*
X186762541Y-62114649D01*
X186762761Y-62251937D01*
X186762847Y-62351619D01*
X186762890Y-62400838D01*
G37*
G36*
X181685197Y-63560075D02*
G01*
X181685197Y-64072364D01*
X181577974Y-64072364D01*
X181470750Y-64072364D01*
X181470750Y-63869831D01*
X181470750Y-63667298D01*
X181404578Y-63667298D01*
X181380307Y-63669200D01*
X181351156Y-63682270D01*
X181322107Y-63714727D01*
X181286571Y-63774578D01*
X181237960Y-63869831D01*
X181137514Y-64072364D01*
X181030117Y-64072364D01*
X180997977Y-64071832D01*
X180944038Y-64067694D01*
X180922720Y-64060800D01*
X180926040Y-64051168D01*
X180946049Y-64006387D01*
X180980135Y-63934607D01*
X181023634Y-63845761D01*
X181124548Y-63642284D01*
X181061620Y-63589266D01*
X181000805Y-63523851D01*
X180953284Y-63420733D01*
X180952242Y-63388714D01*
X181142682Y-63388714D01*
X181168918Y-63438192D01*
X181182012Y-63456746D01*
X181213947Y-63484939D01*
X181261356Y-63497585D01*
X181340249Y-63500506D01*
X181470750Y-63500506D01*
X181470750Y-63368267D01*
X181470750Y-63236027D01*
X181334536Y-63243173D01*
X181289911Y-63246081D01*
X181227148Y-63256004D01*
X181189867Y-63276321D01*
X181163205Y-63313098D01*
X181145843Y-63348093D01*
X181142682Y-63388714D01*
X180952242Y-63388714D01*
X180949691Y-63310355D01*
X180991479Y-63200757D01*
X181025339Y-63154532D01*
X181088090Y-63103792D01*
X181173561Y-63070882D01*
X181289729Y-63053111D01*
X181444567Y-63047786D01*
X181685197Y-63047786D01*
X181685197Y-63368267D01*
X181685197Y-63560075D01*
G37*
G36*
X178992702Y-63562125D02*
G01*
X178992702Y-64076465D01*
X178720184Y-64068457D01*
X178637135Y-64065836D01*
X178544874Y-64061215D01*
X178482886Y-64053685D01*
X178440731Y-64040878D01*
X178407968Y-64020425D01*
X178374155Y-63989957D01*
X178331080Y-63941857D01*
X178290959Y-63870395D01*
X178266853Y-63780326D01*
X178256498Y-63662266D01*
X178257315Y-63550253D01*
X178444672Y-63550253D01*
X178444719Y-63565221D01*
X178451066Y-63693172D01*
X178469924Y-63782970D01*
X178503912Y-63842367D01*
X178555644Y-63879117D01*
X178609887Y-63895544D01*
X178681890Y-63904528D01*
X178747214Y-63902877D01*
X178786198Y-63889687D01*
X178787545Y-63887198D01*
X178793239Y-63849518D01*
X178797856Y-63775557D01*
X178800952Y-63674644D01*
X178802083Y-63556104D01*
X178802083Y-63238405D01*
X178672761Y-63238405D01*
X178643845Y-63238661D01*
X178574827Y-63244762D01*
X178530651Y-63263583D01*
X178494056Y-63301187D01*
X178474784Y-63329670D01*
X178456252Y-63378442D01*
X178447116Y-63447423D01*
X178444672Y-63550253D01*
X178257315Y-63550253D01*
X178257631Y-63506835D01*
X178258827Y-63474676D01*
X178265193Y-63366233D01*
X178275330Y-63291521D01*
X178291338Y-63239314D01*
X178315315Y-63198385D01*
X178345926Y-63161068D01*
X178412381Y-63106794D01*
X178497370Y-63071940D01*
X178610251Y-63053338D01*
X178760385Y-63047823D01*
X178992702Y-63047786D01*
X178992702Y-63556104D01*
X178992702Y-63562125D01*
G37*
G36*
X176271324Y-60313955D02*
G01*
X176387021Y-60353633D01*
X176486898Y-60434162D01*
X176523574Y-60496401D01*
X176552472Y-60597264D01*
X176569437Y-60720352D01*
X176574080Y-60853097D01*
X176566009Y-60982931D01*
X176544835Y-61097286D01*
X176510168Y-61183594D01*
X176470392Y-61238099D01*
X176401449Y-61293035D01*
X176301598Y-61334490D01*
X176272839Y-61341438D01*
X176174379Y-61344537D01*
X176072060Y-61325379D01*
X175990450Y-61287662D01*
X175986354Y-61284615D01*
X175931784Y-61232919D01*
X175879096Y-61167051D01*
X175839363Y-61102481D01*
X175823659Y-61054675D01*
X175845094Y-61030795D01*
X175909408Y-61022457D01*
X175926003Y-61022889D01*
X175997325Y-61041149D01*
X176061932Y-61093940D01*
X176100877Y-61128955D01*
X176179670Y-61164367D01*
X176255851Y-61155674D01*
X176322304Y-61102640D01*
X176345493Y-61066777D01*
X176361691Y-61017726D01*
X176369600Y-60947169D01*
X176371689Y-60842090D01*
X176371531Y-60818418D01*
X176367671Y-60719502D01*
X176359692Y-60636251D01*
X176349002Y-60584651D01*
X176313794Y-60528908D01*
X176249158Y-60489070D01*
X176174289Y-60482712D01*
X176102855Y-60510380D01*
X176048526Y-60572623D01*
X176019384Y-60617521D01*
X175981582Y-60636533D01*
X175916497Y-60637380D01*
X175896500Y-60636099D01*
X175846661Y-60628618D01*
X175830196Y-60610006D01*
X175835793Y-60570953D01*
X175872274Y-60478992D01*
X175950353Y-60387097D01*
X176057794Y-60328417D01*
X176188210Y-60307725D01*
X176271324Y-60313955D01*
G37*
G36*
X180566465Y-60314953D02*
G01*
X180679596Y-60355921D01*
X180779756Y-60438271D01*
X180794431Y-60454679D01*
X180815325Y-60485322D01*
X180829153Y-60524107D01*
X180837824Y-60580909D01*
X180843245Y-60665608D01*
X180847324Y-60788080D01*
X180848026Y-60815712D01*
X180847704Y-60971590D01*
X180836561Y-61088941D01*
X180811433Y-61175216D01*
X180769156Y-61237863D01*
X180706566Y-61284332D01*
X180620498Y-61322071D01*
X180499387Y-61346393D01*
X180373939Y-61328962D01*
X180260798Y-61268004D01*
X180166201Y-61165664D01*
X180128344Y-61103562D01*
X180114964Y-61054906D01*
X180137892Y-61029670D01*
X180198339Y-61022457D01*
X180214934Y-61022889D01*
X180286256Y-61041149D01*
X180350863Y-61093940D01*
X180389808Y-61128955D01*
X180468600Y-61164367D01*
X180544781Y-61155674D01*
X180611235Y-61102640D01*
X180615251Y-61097420D01*
X180638404Y-61058164D01*
X180652215Y-61008215D01*
X180658885Y-60935278D01*
X180660619Y-60827059D01*
X180660198Y-60786896D01*
X180655678Y-60689756D01*
X180647256Y-60612384D01*
X180636246Y-60568717D01*
X180609963Y-60532340D01*
X180543109Y-60490301D01*
X180465873Y-60482948D01*
X180392671Y-60510136D01*
X180337923Y-60571721D01*
X180312968Y-60611087D01*
X180273679Y-60635448D01*
X180207287Y-60641219D01*
X180145831Y-60634495D01*
X180114394Y-60608624D01*
X180119622Y-60558771D01*
X180160115Y-60480167D01*
X180235924Y-60391180D01*
X180345476Y-60329116D01*
X180477140Y-60307725D01*
X180566465Y-60314953D01*
G37*
G36*
X175440271Y-62363691D02*
G01*
X175484501Y-62486626D01*
X175520172Y-62585728D01*
X175544766Y-62653993D01*
X175555760Y-62684418D01*
X175556843Y-62692971D01*
X175533196Y-62709117D01*
X175466880Y-62714202D01*
X175439896Y-62713936D01*
X175387601Y-62706417D01*
X175356939Y-62678960D01*
X175329666Y-62618893D01*
X175292227Y-62523583D01*
X175108994Y-62523583D01*
X174925761Y-62523583D01*
X174897205Y-62618893D01*
X174889753Y-62643044D01*
X174868120Y-62691321D01*
X174835273Y-62710668D01*
X174774297Y-62714202D01*
X174764611Y-62714102D01*
X174702170Y-62705505D01*
X174680065Y-62684418D01*
X174680960Y-62679009D01*
X174693802Y-62635457D01*
X174720001Y-62556562D01*
X174757133Y-62449351D01*
X174800593Y-62327007D01*
X174995490Y-62327007D01*
X174997258Y-62340699D01*
X175030861Y-62353006D01*
X175106287Y-62356791D01*
X175151509Y-62355506D01*
X175206606Y-62349027D01*
X175228215Y-62338921D01*
X175228199Y-62337713D01*
X175219783Y-62299580D01*
X175199618Y-62237185D01*
X175173016Y-62164438D01*
X175145287Y-62095251D01*
X175121742Y-62043537D01*
X175107692Y-62023208D01*
X175095722Y-62038169D01*
X175073909Y-62087825D01*
X175048956Y-62160215D01*
X175029502Y-62222298D01*
X175008095Y-62289276D01*
X174995490Y-62327007D01*
X174800593Y-62327007D01*
X174802780Y-62320850D01*
X174854519Y-62178086D01*
X175028852Y-61701538D01*
X175112934Y-61694356D01*
X175197015Y-61687173D01*
X175370940Y-62170903D01*
X175390006Y-62223929D01*
X175431363Y-62338921D01*
X175440271Y-62363691D01*
G37*
G36*
X178444672Y-62201913D02*
G01*
X178444672Y-62714202D01*
X178350290Y-62714202D01*
X178255908Y-62714202D01*
X178249023Y-62505713D01*
X178248591Y-62492643D01*
X178244757Y-62397424D01*
X178238865Y-62339150D01*
X178227682Y-62308188D01*
X178207976Y-62294907D01*
X178176513Y-62289674D01*
X178176254Y-62289644D01*
X178144602Y-62289309D01*
X178118425Y-62301746D01*
X178091419Y-62334607D01*
X178057285Y-62395543D01*
X178009721Y-62492207D01*
X177908555Y-62702289D01*
X177795375Y-62709551D01*
X177757621Y-62710870D01*
X177703630Y-62707429D01*
X177682593Y-62697637D01*
X177686211Y-62686237D01*
X177707745Y-62639044D01*
X177744324Y-62566033D01*
X177790930Y-62477405D01*
X177898869Y-62276348D01*
X177827996Y-62220881D01*
X177756231Y-62139691D01*
X177719959Y-62036542D01*
X177722873Y-61972843D01*
X177925028Y-61972843D01*
X177926127Y-62042246D01*
X177957001Y-62095346D01*
X177995471Y-62113535D01*
X178061841Y-62129317D01*
X178136005Y-62138541D01*
X178200079Y-62139069D01*
X178236182Y-62128760D01*
X178242933Y-62112421D01*
X178250933Y-62058185D01*
X178254053Y-61983496D01*
X178254053Y-61856416D01*
X178126695Y-61856416D01*
X178076277Y-61857895D01*
X178004226Y-61870898D01*
X177959903Y-61899990D01*
X177953397Y-61907795D01*
X177925028Y-61972843D01*
X177722873Y-61972843D01*
X177725080Y-61924600D01*
X177772899Y-61813500D01*
X177808961Y-61768595D01*
X177864227Y-61730257D01*
X177940993Y-61706000D01*
X178047827Y-61693297D01*
X178193301Y-61689624D01*
X178444672Y-61689624D01*
X178444672Y-61983496D01*
X178444672Y-62201913D01*
G37*
G36*
X177318782Y-61688008D02*
G01*
X177391376Y-61717199D01*
X177478977Y-61788227D01*
X177534913Y-61882600D01*
X177554017Y-61990265D01*
X177531123Y-62101169D01*
X177518144Y-62128178D01*
X177459676Y-62197516D01*
X177369672Y-62244766D01*
X177241074Y-62274135D01*
X177201521Y-62280678D01*
X177128157Y-62296927D01*
X177080553Y-62313021D01*
X177058555Y-62333663D01*
X177040504Y-62388636D01*
X177045339Y-62451037D01*
X177073844Y-62499131D01*
X177106513Y-62514306D01*
X177178838Y-62525271D01*
X177265420Y-62524668D01*
X177347731Y-62512970D01*
X177407243Y-62490647D01*
X177413971Y-62486294D01*
X177450153Y-62469617D01*
X177481202Y-62479736D01*
X177525181Y-62521354D01*
X177536437Y-62533394D01*
X177565774Y-62574807D01*
X177562711Y-62607176D01*
X177522971Y-62638522D01*
X177442281Y-62676864D01*
X177411688Y-62687621D01*
X177325720Y-62705704D01*
X177234666Y-62713270D01*
X177151868Y-62709041D01*
X177023510Y-62676875D01*
X176928127Y-62615087D01*
X176868707Y-62526007D01*
X176848236Y-62411963D01*
X176851975Y-62342379D01*
X176878213Y-62247872D01*
X176934267Y-62180512D01*
X177025680Y-62134813D01*
X177157992Y-62105290D01*
X177185589Y-62100658D01*
X177258081Y-62084259D01*
X177306914Y-62067257D01*
X177324979Y-62051557D01*
X177345827Y-61998596D01*
X177344709Y-61935635D01*
X177320019Y-61885009D01*
X177307433Y-61876419D01*
X177250158Y-61861411D01*
X177172824Y-61857348D01*
X177094513Y-61864385D01*
X177034308Y-61882678D01*
X177009620Y-61893054D01*
X176972522Y-61888302D01*
X176926436Y-61850136D01*
X176867633Y-61791334D01*
X176935847Y-61742762D01*
X176968138Y-61723208D01*
X177076449Y-61685904D01*
X177200051Y-61673210D01*
X177318782Y-61688008D01*
G37*
G36*
X179657457Y-63058654D02*
G01*
X179720619Y-63072856D01*
X179768709Y-63101613D01*
X179820932Y-63153454D01*
X179855831Y-63193074D01*
X179886626Y-63241226D01*
X179896648Y-63293614D01*
X179892988Y-63371718D01*
X179888723Y-63412240D01*
X179869820Y-63492961D01*
X179832996Y-63551504D01*
X179770825Y-63593812D01*
X179675879Y-63625824D01*
X179540732Y-63653480D01*
X179527948Y-63655779D01*
X179453904Y-63675511D01*
X179411828Y-63705645D01*
X179387846Y-63755432D01*
X179386684Y-63807025D01*
X179420425Y-63856093D01*
X179482590Y-63890036D01*
X179563301Y-63905669D01*
X179652678Y-63899806D01*
X179740845Y-63869262D01*
X179780939Y-63850596D01*
X179821244Y-63846965D01*
X179865939Y-63869958D01*
X179891596Y-63889459D01*
X179920777Y-63936770D01*
X179903844Y-63982671D01*
X179841883Y-64025544D01*
X179735978Y-64063769D01*
X179724858Y-64066701D01*
X179592810Y-64083075D01*
X179458500Y-64071336D01*
X179343416Y-64033160D01*
X179265057Y-63972140D01*
X179207999Y-63878522D01*
X179186629Y-63769924D01*
X179205689Y-63659224D01*
X179220196Y-63626909D01*
X179276205Y-63557527D01*
X179363252Y-63509216D01*
X179488972Y-63477067D01*
X179516255Y-63472170D01*
X179612225Y-63450305D01*
X179670631Y-63424990D01*
X179699666Y-63391238D01*
X179707523Y-63344062D01*
X179694776Y-63294021D01*
X179646985Y-63246421D01*
X179574345Y-63220776D01*
X179488167Y-63220569D01*
X179399766Y-63249285D01*
X179353634Y-63269290D01*
X179319300Y-63263944D01*
X179278315Y-63226156D01*
X179256718Y-63201494D01*
X179239076Y-63164796D01*
X179253212Y-63133099D01*
X179277423Y-63111070D01*
X179357797Y-63074151D01*
X179467278Y-63053837D01*
X179594365Y-63052832D01*
X179657457Y-63058654D01*
G37*
G36*
X177169429Y-60312332D02*
G01*
X177287955Y-60341387D01*
X177321063Y-60357944D01*
X177401496Y-60429848D01*
X177449617Y-60525843D01*
X177461305Y-60634443D01*
X177432442Y-60744162D01*
X177408362Y-60783488D01*
X177341842Y-60841176D01*
X177240554Y-60884254D01*
X177098424Y-60915843D01*
X177080937Y-60919017D01*
X177015008Y-60936507D01*
X176973330Y-60956025D01*
X176951509Y-60991187D01*
X176945522Y-61053975D01*
X176964791Y-61114405D01*
X176979310Y-61128905D01*
X177037441Y-61151213D01*
X177118770Y-61159622D01*
X177207661Y-61153309D01*
X177288482Y-61131451D01*
X177323569Y-61117124D01*
X177369195Y-61105021D01*
X177402058Y-61116248D01*
X177442641Y-61153771D01*
X177503490Y-61215078D01*
X177443921Y-61261055D01*
X177435698Y-61266995D01*
X177367311Y-61302796D01*
X177289043Y-61328985D01*
X177231022Y-61341544D01*
X177155268Y-61351760D01*
X177088498Y-61348062D01*
X177007709Y-61330581D01*
X176926210Y-61302890D01*
X176829265Y-61238281D01*
X176771888Y-61147626D01*
X176753278Y-61029981D01*
X176753398Y-61022630D01*
X176763073Y-60944341D01*
X176783394Y-60879493D01*
X176803335Y-60849699D01*
X176873824Y-60792272D01*
X176968026Y-60751862D01*
X177069723Y-60736566D01*
X177146242Y-60725255D01*
X177218404Y-60678283D01*
X177244101Y-60646584D01*
X177261867Y-60587633D01*
X177243513Y-60536406D01*
X177196656Y-60497915D01*
X177128911Y-60477176D01*
X177047896Y-60479200D01*
X176961226Y-60509001D01*
X176916572Y-60528400D01*
X176880644Y-60523905D01*
X176836132Y-60488251D01*
X176830960Y-60483403D01*
X176792510Y-60443085D01*
X176776754Y-60418568D01*
X176780605Y-60412467D01*
X176814200Y-60387796D01*
X176871115Y-60355775D01*
X176912440Y-60338129D01*
X177036746Y-60311505D01*
X177169429Y-60312332D01*
G37*
G36*
X186770097Y-61595155D02*
G01*
X186773914Y-61618142D01*
X186768419Y-61677711D01*
X186198525Y-61684063D01*
X185628630Y-61690415D01*
X185634498Y-62264296D01*
X185635374Y-62375019D01*
X185635681Y-62526324D01*
X185634893Y-62657314D01*
X185633100Y-62761154D01*
X185630388Y-62831012D01*
X185626845Y-62860055D01*
X185625075Y-62861439D01*
X185589290Y-62867697D01*
X185513431Y-62872421D01*
X185403826Y-62875423D01*
X185266803Y-62876514D01*
X185108689Y-62875506D01*
X184604053Y-62869080D01*
X184604053Y-62279342D01*
X184604053Y-61689603D01*
X184038152Y-61689614D01*
X183472251Y-61689624D01*
X183472251Y-61612393D01*
X183472395Y-61606463D01*
X183477062Y-61580517D01*
X183484926Y-61563221D01*
X183615216Y-61563221D01*
X183622811Y-61564426D01*
X183669808Y-61566373D01*
X183754002Y-61568041D01*
X183868741Y-61569341D01*
X184007372Y-61570186D01*
X184163246Y-61570487D01*
X184711276Y-61570487D01*
X184711276Y-62166172D01*
X184711276Y-62761857D01*
X185116341Y-62761857D01*
X185521407Y-62761857D01*
X185521407Y-62166172D01*
X185521407Y-61570487D01*
X186069437Y-61570487D01*
X186160361Y-61570387D01*
X186307181Y-61569764D01*
X186432954Y-61568647D01*
X186531027Y-61567126D01*
X186594748Y-61565287D01*
X186617467Y-61563221D01*
X186602145Y-61546066D01*
X186557305Y-61499628D01*
X186487338Y-61428409D01*
X186396646Y-61336870D01*
X186289634Y-61229471D01*
X186170704Y-61110673D01*
X185723940Y-60665393D01*
X185116341Y-60665393D01*
X184508743Y-60665393D01*
X184061979Y-61110673D01*
X183946156Y-61226362D01*
X183838759Y-61334131D01*
X183747564Y-61426161D01*
X183676973Y-61497993D01*
X183631389Y-61545167D01*
X183615216Y-61563221D01*
X183484926Y-61563221D01*
X183490943Y-61549987D01*
X183517586Y-61510764D01*
X183560540Y-61458743D01*
X183623355Y-61389817D01*
X183709580Y-61299878D01*
X183822765Y-61184820D01*
X183966457Y-61040536D01*
X184460663Y-60545910D01*
X185116336Y-60545910D01*
X185772010Y-60545910D01*
X186275709Y-61052242D01*
X186354169Y-61131279D01*
X186486327Y-61265624D01*
X186589072Y-61372295D01*
X186665611Y-61454937D01*
X186719156Y-61517198D01*
X186752914Y-61562722D01*
X186753178Y-61563221D01*
X186770097Y-61595155D01*
G37*
D14*
X175894999Y-57635002D02*
X175895002Y-57000002D01*
X176530001Y-57635001D02*
X175894999Y-57635002D01*
%LPC*%
D15*
X172537501Y-57370748D03*
D16*
X168537500Y-57370747D03*
D15*
X172537502Y-66010752D03*
D16*
X168537500Y-66010753D03*
D17*
X187925001Y-71450002D03*
X188925001Y-71450002D03*
D18*
X186625000Y-67575000D03*
X190225000Y-67575000D03*
D17*
X174124999Y-72850001D03*
X175125001Y-72850002D03*
D18*
X172825000Y-68975000D03*
X176425000Y-68975000D03*
D19*
X177165001Y-58270004D03*
X176149000Y-53190001D03*
X178181002Y-53190001D03*
D20*
X176530001Y-57000002D03*
X177800000Y-57000000D03*
X176530000Y-55730002D03*
X177800000Y-55730002D03*
X176530000Y-54460004D03*
X177799999Y-54460002D03*
%LPD*%
M02*
