G04 #@! TF.GenerationSoftware,KiCad,Pcbnew,8.0.6*
G04 #@! TF.CreationDate,2025-05-06T14:47:19+02:00*
G04 #@! TF.ProjectId,nRF5340,6e524635-3334-4302-9e6b-696361645f70,rev?*
G04 #@! TF.SameCoordinates,Original*
G04 #@! TF.FileFunction,Copper,L2,Inr*
G04 #@! TF.FilePolarity,Positive*
%FSLAX46Y46*%
G04 Gerber Fmt 4.6, Leading zero omitted, Abs format (unit mm)*
G04 Created by KiCad (PCBNEW 8.0.6) date 2025-05-06 14:47:19*
%MOMM*%
%LPD*%
G01*
G04 APERTURE LIST*
G04 #@! TA.AperFunction,ComponentPad*
%ADD10O,1.800000X1.000000*%
G04 #@! TD*
G04 #@! TA.AperFunction,ComponentPad*
%ADD11O,2.200000X1.000000*%
G04 #@! TD*
G04 #@! TA.AperFunction,ViaPad*
%ADD12C,0.500000*%
G04 #@! TD*
G04 #@! TA.AperFunction,ViaPad*
%ADD13C,0.450000*%
G04 #@! TD*
G04 APERTURE END LIST*
D10*
X172537501Y-57370748D03*
D11*
X168537500Y-57370747D03*
D10*
X172537502Y-66010752D03*
D11*
X168537500Y-66010753D03*
D12*
X178980000Y-55170000D03*
X174620000Y-54530000D03*
D13*
X194000000Y-59000000D03*
D12*
X170374997Y-68524999D03*
D13*
X178500000Y-59500000D03*
D12*
X183900000Y-66100000D03*
D13*
X178500000Y-50500000D03*
X184000000Y-74500000D03*
X168500000Y-61500000D03*
D12*
X188733749Y-69647501D03*
X189700000Y-64225000D03*
D13*
X179000000Y-58500000D03*
D12*
X178575000Y-51325000D03*
X180175000Y-65050000D03*
D13*
X184000000Y-73000000D03*
X171500000Y-50500000D03*
X176000000Y-74500000D03*
X184000000Y-72000000D03*
X175000000Y-70500000D03*
D12*
X170394997Y-69894999D03*
D13*
X168000000Y-55500000D03*
X174500000Y-50500000D03*
X173500000Y-50500000D03*
D12*
X192575000Y-56375000D03*
D13*
X190500000Y-54500000D03*
X190000000Y-71500000D03*
X172000000Y-67500000D03*
D12*
X185230000Y-74030000D03*
D13*
X190005995Y-63021052D03*
X177000000Y-73000000D03*
X174500000Y-57500000D03*
X177000000Y-66000000D03*
D12*
X177200000Y-74930000D03*
D13*
X191500000Y-54500000D03*
X192500000Y-54500000D03*
D12*
X169150000Y-55590000D03*
D13*
X178000000Y-63500000D03*
X183000000Y-67500000D03*
X183500000Y-71500000D03*
X183500000Y-61000000D03*
X194000000Y-64500000D03*
X176500000Y-50500000D03*
X169000000Y-54500000D03*
X178500000Y-64500000D03*
X168500000Y-59000000D03*
D12*
X170150000Y-64900000D03*
D13*
X171500000Y-52500000D03*
D12*
X176190000Y-51740000D03*
X186730000Y-74030000D03*
D13*
X170500000Y-58000000D03*
D12*
X184025000Y-60500000D03*
D13*
X168500000Y-64000000D03*
D12*
X182460000Y-68120000D03*
D13*
X177500000Y-50500000D03*
X175500000Y-50500000D03*
X180500000Y-66000000D03*
X175500000Y-58000000D03*
D12*
X174125000Y-71500000D03*
X183325000Y-58725000D03*
X184980000Y-67410000D03*
D13*
X194000000Y-62500000D03*
X167500000Y-62500000D03*
X176500000Y-72000000D03*
X175000000Y-66000000D03*
X167500000Y-60000000D03*
X172500000Y-50500000D03*
X183500000Y-73500000D03*
X192500000Y-68000000D03*
X176500000Y-70500000D03*
X169000000Y-68000000D03*
D12*
X192125002Y-63290000D03*
D13*
X174500000Y-69000000D03*
D12*
X175710000Y-54230000D03*
X171840000Y-58510000D03*
X174540000Y-56330000D03*
D13*
X194000000Y-61000000D03*
D12*
X181160000Y-75770000D03*
X193110000Y-66410000D03*
X193140000Y-65080000D03*
X170725000Y-52600000D03*
X191575000Y-56400000D03*
X178910000Y-74270000D03*
X182375000Y-64975000D03*
X181275000Y-64950000D03*
X177710000Y-72970000D03*
X175750000Y-57000000D03*
X191325000Y-63300000D03*
X179695001Y-75804999D03*
X184450000Y-71514999D03*
X182150000Y-67000000D03*
X180400000Y-67270000D03*
X172900000Y-67500000D03*
X179900000Y-66690000D03*
X176689250Y-64090750D03*
X188360000Y-65770000D03*
X183500000Y-69800000D03*
X185625000Y-65225000D03*
X183960000Y-69300000D03*
X171780000Y-60430000D03*
X178870000Y-66840000D03*
X184900000Y-61100000D03*
X182500000Y-73550000D03*
X178400000Y-66280000D03*
X171870000Y-63440000D03*
X184350000Y-56200000D03*
X185850000Y-60975000D03*
X185290000Y-56780000D03*
X187225000Y-69650000D03*
X186225000Y-69650000D03*
X189900000Y-62025000D03*
X189025000Y-67300000D03*
G04 #@! TA.AperFunction,Conductor*
G36*
X179060588Y-50124679D02*
G01*
X179122169Y-50142949D01*
X179164098Y-50191612D01*
X179174266Y-50239410D01*
X179150000Y-54025000D01*
X192765901Y-53979231D01*
X192827593Y-53997120D01*
X192863484Y-54033665D01*
X192996181Y-54250208D01*
X192999165Y-54255377D01*
X193359773Y-54919535D01*
X193362483Y-54924853D01*
X193687849Y-55606995D01*
X193690276Y-55612447D01*
X193979486Y-56310665D01*
X193981625Y-56316237D01*
X194233904Y-57028646D01*
X194235748Y-57034322D01*
X194450390Y-57758943D01*
X194451935Y-57764708D01*
X194628363Y-58499583D01*
X194629604Y-58505421D01*
X194767328Y-59248514D01*
X194768262Y-59254409D01*
X194866908Y-60003700D01*
X194867532Y-60009636D01*
X194926828Y-60763067D01*
X194927140Y-60769027D01*
X194946923Y-61524515D01*
X194946923Y-61530483D01*
X194927140Y-62285970D01*
X194926828Y-62291930D01*
X194867532Y-63045361D01*
X194866908Y-63051297D01*
X194768262Y-63800588D01*
X194767328Y-63806483D01*
X194629604Y-64549576D01*
X194628363Y-64555414D01*
X194451935Y-65290289D01*
X194450390Y-65296054D01*
X194235748Y-66020675D01*
X194233904Y-66026351D01*
X193981625Y-66738760D01*
X193979486Y-66744332D01*
X193690276Y-67442550D01*
X193687849Y-67448002D01*
X193362483Y-68130144D01*
X193359773Y-68135462D01*
X192999165Y-68799620D01*
X192996181Y-68804789D01*
X192601292Y-69449189D01*
X192598041Y-69454194D01*
X192169990Y-70077014D01*
X192166482Y-70081843D01*
X191706402Y-70681430D01*
X191702646Y-70686068D01*
X191211829Y-71260742D01*
X191207836Y-71265177D01*
X190687607Y-71813383D01*
X190683386Y-71817604D01*
X190135180Y-72337833D01*
X190130745Y-72341826D01*
X189556071Y-72832643D01*
X189551433Y-72836399D01*
X188951846Y-73296479D01*
X188947017Y-73299987D01*
X188324197Y-73728038D01*
X188319192Y-73731289D01*
X187674792Y-74126178D01*
X187669623Y-74129162D01*
X187005465Y-74489770D01*
X187000147Y-74492480D01*
X186318005Y-74817846D01*
X186312553Y-74820273D01*
X185614335Y-75109483D01*
X185608763Y-75111622D01*
X184896354Y-75363901D01*
X184890678Y-75365745D01*
X184166057Y-75580387D01*
X184160292Y-75581932D01*
X183425417Y-75758360D01*
X183419579Y-75759601D01*
X182676486Y-75897325D01*
X182670591Y-75898259D01*
X181921300Y-75996905D01*
X181915363Y-75997529D01*
X181823228Y-76004779D01*
X181760365Y-75991572D01*
X181714622Y-75946476D01*
X181700520Y-75883808D01*
X181701254Y-75876305D01*
X181715250Y-75770000D01*
X181696330Y-75626291D01*
X181677956Y-75581932D01*
X181640863Y-75492379D01*
X181640860Y-75492373D01*
X181552621Y-75377378D01*
X181437626Y-75289139D01*
X181437620Y-75289136D01*
X181303716Y-75233672D01*
X181303711Y-75233671D01*
X181303709Y-75233670D01*
X181160000Y-75214750D01*
X181016291Y-75233670D01*
X181016288Y-75233670D01*
X181016288Y-75233671D01*
X181016283Y-75233672D01*
X180882379Y-75289136D01*
X180882373Y-75289139D01*
X180767378Y-75377378D01*
X180679139Y-75492373D01*
X180679136Y-75492379D01*
X180623672Y-75626283D01*
X180623671Y-75626288D01*
X180623670Y-75626291D01*
X180604750Y-75770000D01*
X180623670Y-75913709D01*
X180623671Y-75913711D01*
X180623672Y-75913716D01*
X180624679Y-75916147D01*
X180624917Y-75918362D01*
X180625605Y-75920930D01*
X180625204Y-75921037D01*
X180631543Y-75980014D01*
X180602787Y-76037454D01*
X180547543Y-76070228D01*
X180522339Y-76073729D01*
X180400486Y-76076920D01*
X180394517Y-76076920D01*
X180341635Y-76075535D01*
X180280497Y-76055830D01*
X180239718Y-76006200D01*
X180231595Y-75946697D01*
X180250251Y-75804999D01*
X180231331Y-75661290D01*
X180216831Y-75626283D01*
X180175864Y-75527378D01*
X180175861Y-75527372D01*
X180087622Y-75412377D01*
X179972627Y-75324138D01*
X179972621Y-75324135D01*
X179838717Y-75268671D01*
X179838712Y-75268670D01*
X179838710Y-75268669D01*
X179695001Y-75249749D01*
X179551292Y-75268669D01*
X179551289Y-75268669D01*
X179551289Y-75268670D01*
X179551284Y-75268671D01*
X179417380Y-75324135D01*
X179417374Y-75324138D01*
X179302379Y-75412377D01*
X179214140Y-75527372D01*
X179214137Y-75527378D01*
X179158673Y-75661282D01*
X179158672Y-75661287D01*
X179158671Y-75661290D01*
X179139751Y-75804999D01*
X179149711Y-75880656D01*
X179139814Y-75944122D01*
X179097175Y-75992164D01*
X179035331Y-76009527D01*
X179027743Y-76009184D01*
X178879639Y-75997529D01*
X178873703Y-75996905D01*
X178124412Y-75898259D01*
X178118517Y-75897325D01*
X177375424Y-75759601D01*
X177369586Y-75758360D01*
X176634711Y-75581932D01*
X176628946Y-75580387D01*
X175943601Y-75377379D01*
X175904323Y-75365744D01*
X175898649Y-75363901D01*
X175186240Y-75111622D01*
X175180668Y-75109483D01*
X174482450Y-74820273D01*
X174476998Y-74817846D01*
X173794856Y-74492480D01*
X173789538Y-74489770D01*
X173384772Y-74270000D01*
X178354750Y-74270000D01*
X178373670Y-74413709D01*
X178373671Y-74413711D01*
X178373672Y-74413716D01*
X178429136Y-74547620D01*
X178429139Y-74547626D01*
X178517378Y-74662621D01*
X178632373Y-74750860D01*
X178632379Y-74750863D01*
X178766283Y-74806327D01*
X178766284Y-74806327D01*
X178766291Y-74806330D01*
X178910000Y-74825250D01*
X179053709Y-74806330D01*
X179187625Y-74750861D01*
X179302621Y-74662621D01*
X179390861Y-74547625D01*
X179446330Y-74413709D01*
X179465250Y-74270000D01*
X179446330Y-74126291D01*
X179446327Y-74126283D01*
X179390863Y-73992379D01*
X179390860Y-73992373D01*
X179302621Y-73877378D01*
X179187626Y-73789139D01*
X179187620Y-73789136D01*
X179053716Y-73733672D01*
X179053711Y-73733671D01*
X179053709Y-73733670D01*
X178910000Y-73714750D01*
X178766291Y-73733670D01*
X178766288Y-73733670D01*
X178766288Y-73733671D01*
X178766283Y-73733672D01*
X178632379Y-73789136D01*
X178632373Y-73789139D01*
X178517378Y-73877378D01*
X178429139Y-73992373D01*
X178429136Y-73992379D01*
X178373672Y-74126283D01*
X178373671Y-74126288D01*
X178373670Y-74126291D01*
X178354750Y-74270000D01*
X173384772Y-74270000D01*
X173125380Y-74129162D01*
X173120211Y-74126178D01*
X172475811Y-73731289D01*
X172470806Y-73728038D01*
X172211758Y-73550000D01*
X181944750Y-73550000D01*
X181963670Y-73693709D01*
X181963671Y-73693711D01*
X181963672Y-73693716D01*
X182019136Y-73827620D01*
X182019139Y-73827626D01*
X182107378Y-73942621D01*
X182222373Y-74030860D01*
X182222379Y-74030863D01*
X182356283Y-74086327D01*
X182356284Y-74086327D01*
X182356291Y-74086330D01*
X182500000Y-74105250D01*
X182643709Y-74086330D01*
X182777625Y-74030861D01*
X182892621Y-73942621D01*
X182980861Y-73827625D01*
X183036330Y-73693709D01*
X183055250Y-73550000D01*
X183036330Y-73406291D01*
X182980861Y-73272375D01*
X182980860Y-73272373D01*
X182892621Y-73157378D01*
X182777626Y-73069139D01*
X182777620Y-73069136D01*
X182643716Y-73013672D01*
X182643711Y-73013671D01*
X182643709Y-73013670D01*
X182500000Y-72994750D01*
X182356291Y-73013670D01*
X182356288Y-73013670D01*
X182356288Y-73013671D01*
X182356283Y-73013672D01*
X182222379Y-73069136D01*
X182222373Y-73069139D01*
X182107378Y-73157378D01*
X182019139Y-73272373D01*
X182019136Y-73272379D01*
X181963672Y-73406283D01*
X181963671Y-73406288D01*
X181963670Y-73406291D01*
X181944750Y-73550000D01*
X172211758Y-73550000D01*
X171847986Y-73299987D01*
X171843157Y-73296479D01*
X171417683Y-72970000D01*
X177154750Y-72970000D01*
X177173670Y-73113709D01*
X177173671Y-73113711D01*
X177173672Y-73113716D01*
X177229136Y-73247620D01*
X177229139Y-73247626D01*
X177317378Y-73362621D01*
X177432373Y-73450860D01*
X177432379Y-73450863D01*
X177566283Y-73506327D01*
X177566284Y-73506327D01*
X177566291Y-73506330D01*
X177710000Y-73525250D01*
X177853709Y-73506330D01*
X177987625Y-73450861D01*
X178102621Y-73362621D01*
X178190861Y-73247625D01*
X178246330Y-73113709D01*
X178265250Y-72970000D01*
X178246330Y-72826291D01*
X178190861Y-72692375D01*
X178190860Y-72692373D01*
X178102621Y-72577378D01*
X177987626Y-72489139D01*
X177987620Y-72489136D01*
X177853716Y-72433672D01*
X177853711Y-72433671D01*
X177853709Y-72433670D01*
X177710000Y-72414750D01*
X177566291Y-72433670D01*
X177566288Y-72433670D01*
X177566288Y-72433671D01*
X177566283Y-72433672D01*
X177432379Y-72489136D01*
X177432373Y-72489139D01*
X177317378Y-72577378D01*
X177229139Y-72692373D01*
X177229136Y-72692379D01*
X177173672Y-72826283D01*
X177173671Y-72826288D01*
X177173670Y-72826291D01*
X177154750Y-72970000D01*
X171417683Y-72970000D01*
X171243563Y-72836393D01*
X171238932Y-72832643D01*
X171231495Y-72826291D01*
X170664246Y-72341815D01*
X170659835Y-72337844D01*
X170111607Y-71817594D01*
X170107406Y-71813393D01*
X169824240Y-71514999D01*
X183894750Y-71514999D01*
X183913670Y-71658708D01*
X183913671Y-71658710D01*
X183913672Y-71658715D01*
X183969136Y-71792619D01*
X183969139Y-71792625D01*
X184057378Y-71907620D01*
X184172373Y-71995859D01*
X184172379Y-71995862D01*
X184306283Y-72051326D01*
X184306284Y-72051326D01*
X184306291Y-72051329D01*
X184450000Y-72070249D01*
X184593709Y-72051329D01*
X184727625Y-71995860D01*
X184842621Y-71907620D01*
X184930861Y-71792624D01*
X184986330Y-71658708D01*
X185005250Y-71514999D01*
X184986330Y-71371290D01*
X184986327Y-71371282D01*
X184930863Y-71237378D01*
X184930860Y-71237372D01*
X184842621Y-71122377D01*
X184727626Y-71034138D01*
X184727620Y-71034135D01*
X184593716Y-70978671D01*
X184593711Y-70978670D01*
X184593709Y-70978669D01*
X184450000Y-70959749D01*
X184306291Y-70978669D01*
X184306288Y-70978669D01*
X184306288Y-70978670D01*
X184306283Y-70978671D01*
X184172379Y-71034135D01*
X184172373Y-71034138D01*
X184057378Y-71122377D01*
X183969139Y-71237372D01*
X183969136Y-71237378D01*
X183913672Y-71371282D01*
X183913671Y-71371287D01*
X183913670Y-71371290D01*
X183894750Y-71514999D01*
X169824240Y-71514999D01*
X169587154Y-71265163D01*
X169583187Y-71260756D01*
X169092348Y-70686057D01*
X169088610Y-70681441D01*
X168628513Y-70081832D01*
X168625013Y-70077014D01*
X168601375Y-70042621D01*
X168434627Y-69800000D01*
X182944750Y-69800000D01*
X182963670Y-69943709D01*
X182963671Y-69943711D01*
X182963672Y-69943716D01*
X183019136Y-70077620D01*
X183019139Y-70077626D01*
X183107378Y-70192621D01*
X183222373Y-70280860D01*
X183222379Y-70280863D01*
X183356283Y-70336327D01*
X183356284Y-70336327D01*
X183356291Y-70336330D01*
X183500000Y-70355250D01*
X183643709Y-70336330D01*
X183777625Y-70280861D01*
X183892621Y-70192621D01*
X183980861Y-70077625D01*
X184036330Y-69943709D01*
X184038804Y-69924914D01*
X184064788Y-69866170D01*
X184108200Y-69834469D01*
X184237625Y-69780861D01*
X184352621Y-69692621D01*
X184385325Y-69650000D01*
X185669750Y-69650000D01*
X185688670Y-69793709D01*
X185688671Y-69793711D01*
X185688672Y-69793716D01*
X185744136Y-69927620D01*
X185744139Y-69927626D01*
X185832378Y-70042621D01*
X185947373Y-70130860D01*
X185947379Y-70130863D01*
X186081283Y-70186327D01*
X186081284Y-70186327D01*
X186081291Y-70186330D01*
X186225000Y-70205250D01*
X186368709Y-70186330D01*
X186502625Y-70130861D01*
X186617621Y-70042621D01*
X186634557Y-70020550D01*
X186686435Y-69982669D01*
X186750556Y-69978849D01*
X186806563Y-70010302D01*
X186815443Y-70020550D01*
X186832379Y-70042621D01*
X186947373Y-70130860D01*
X186947379Y-70130863D01*
X187081283Y-70186327D01*
X187081284Y-70186327D01*
X187081291Y-70186330D01*
X187225000Y-70205250D01*
X187368709Y-70186330D01*
X187502625Y-70130861D01*
X187617621Y-70042621D01*
X187705861Y-69927625D01*
X187761330Y-69793709D01*
X187780250Y-69650000D01*
X187761330Y-69506291D01*
X187739751Y-69454194D01*
X187705863Y-69372379D01*
X187705860Y-69372373D01*
X187617621Y-69257378D01*
X187502626Y-69169139D01*
X187502620Y-69169136D01*
X187368716Y-69113672D01*
X187368711Y-69113671D01*
X187368709Y-69113670D01*
X187225000Y-69094750D01*
X187081291Y-69113670D01*
X187081288Y-69113670D01*
X187081288Y-69113671D01*
X187081283Y-69113672D01*
X186947379Y-69169136D01*
X186947373Y-69169139D01*
X186832377Y-69257379D01*
X186815441Y-69279451D01*
X186763564Y-69317330D01*
X186699442Y-69321149D01*
X186643435Y-69289695D01*
X186634559Y-69279451D01*
X186617622Y-69257379D01*
X186502626Y-69169139D01*
X186502620Y-69169136D01*
X186368716Y-69113672D01*
X186368711Y-69113671D01*
X186368709Y-69113670D01*
X186225000Y-69094750D01*
X186081291Y-69113670D01*
X186081288Y-69113670D01*
X186081288Y-69113671D01*
X186081283Y-69113672D01*
X185947379Y-69169136D01*
X185947373Y-69169139D01*
X185832378Y-69257378D01*
X185744139Y-69372373D01*
X185744136Y-69372379D01*
X185688672Y-69506283D01*
X185688671Y-69506288D01*
X185688670Y-69506291D01*
X185669750Y-69650000D01*
X184385325Y-69650000D01*
X184440861Y-69577625D01*
X184496330Y-69443709D01*
X184515250Y-69300000D01*
X184496330Y-69156291D01*
X184478677Y-69113672D01*
X184440863Y-69022379D01*
X184440860Y-69022373D01*
X184352621Y-68907378D01*
X184237626Y-68819139D01*
X184237620Y-68819136D01*
X184103716Y-68763672D01*
X184103711Y-68763671D01*
X184103709Y-68763670D01*
X183960000Y-68744750D01*
X183816291Y-68763670D01*
X183816288Y-68763670D01*
X183816288Y-68763671D01*
X183816283Y-68763672D01*
X183682379Y-68819136D01*
X183682373Y-68819139D01*
X183567378Y-68907378D01*
X183479139Y-69022373D01*
X183479136Y-69022379D01*
X183423672Y-69156283D01*
X183423669Y-69156294D01*
X183421194Y-69175092D01*
X183395205Y-69233835D01*
X183351796Y-69265530D01*
X183222377Y-69319137D01*
X183222373Y-69319139D01*
X183107378Y-69407378D01*
X183019139Y-69522373D01*
X183019136Y-69522379D01*
X182963672Y-69656283D01*
X182963671Y-69656288D01*
X182963670Y-69656291D01*
X182944750Y-69800000D01*
X168434627Y-69800000D01*
X168196962Y-69454194D01*
X168193711Y-69449189D01*
X167798822Y-68804789D01*
X167795838Y-68799620D01*
X167435230Y-68135462D01*
X167432520Y-68130144D01*
X167301401Y-67855249D01*
X167131956Y-67500000D01*
X172344750Y-67500000D01*
X172363670Y-67643709D01*
X172363671Y-67643711D01*
X172363672Y-67643716D01*
X172419136Y-67777620D01*
X172419139Y-67777626D01*
X172507378Y-67892621D01*
X172622373Y-67980860D01*
X172622379Y-67980863D01*
X172756283Y-68036327D01*
X172756284Y-68036327D01*
X172756291Y-68036330D01*
X172900000Y-68055250D01*
X173043709Y-68036330D01*
X173177625Y-67980861D01*
X173292621Y-67892621D01*
X173380861Y-67777625D01*
X173436330Y-67643709D01*
X173455250Y-67500000D01*
X173436330Y-67356291D01*
X173423012Y-67324137D01*
X173380863Y-67222379D01*
X173380860Y-67222373D01*
X173292621Y-67107378D01*
X173177626Y-67019139D01*
X173177620Y-67019136D01*
X173043716Y-66963672D01*
X173043711Y-66963671D01*
X173043709Y-66963670D01*
X172900000Y-66944750D01*
X172756291Y-66963670D01*
X172756288Y-66963670D01*
X172756288Y-66963671D01*
X172756283Y-66963672D01*
X172622379Y-67019136D01*
X172622373Y-67019139D01*
X172507378Y-67107378D01*
X172419139Y-67222373D01*
X172419136Y-67222379D01*
X172363672Y-67356283D01*
X172363671Y-67356288D01*
X172363670Y-67356291D01*
X172344750Y-67500000D01*
X167131956Y-67500000D01*
X167107152Y-67447998D01*
X167104727Y-67442550D01*
X166815517Y-66744332D01*
X166813378Y-66738760D01*
X166715963Y-66463670D01*
X166650921Y-66280000D01*
X177844750Y-66280000D01*
X177863670Y-66423709D01*
X177863671Y-66423711D01*
X177863672Y-66423716D01*
X177919136Y-66557620D01*
X177919139Y-66557626D01*
X178007378Y-66672621D01*
X178078961Y-66727548D01*
X178122375Y-66760861D01*
X178254019Y-66815389D01*
X178304033Y-66855692D01*
X178323416Y-66905827D01*
X178333670Y-66983709D01*
X178333671Y-66983711D01*
X178333672Y-66983716D01*
X178389136Y-67117620D01*
X178389139Y-67117626D01*
X178477378Y-67232621D01*
X178592373Y-67320860D01*
X178592379Y-67320863D01*
X178726283Y-67376327D01*
X178726284Y-67376327D01*
X178726291Y-67376330D01*
X178870000Y-67395250D01*
X179013709Y-67376330D01*
X179147625Y-67320861D01*
X179262621Y-67232621D01*
X179264554Y-67230102D01*
X179355410Y-67111697D01*
X179357673Y-67113434D01*
X179394337Y-67078425D01*
X179457403Y-67066223D01*
X179516047Y-67089273D01*
X179622373Y-67170860D01*
X179622379Y-67170863D01*
X179756290Y-67226330D01*
X179763510Y-67228265D01*
X179763017Y-67230102D01*
X179812470Y-67251975D01*
X179847843Y-67305593D01*
X179851876Y-67324130D01*
X179863670Y-67413709D01*
X179863671Y-67413711D01*
X179863672Y-67413716D01*
X179919136Y-67547620D01*
X179919139Y-67547626D01*
X180007378Y-67662621D01*
X180122373Y-67750860D01*
X180122379Y-67750863D01*
X180256283Y-67806327D01*
X180256284Y-67806327D01*
X180256291Y-67806330D01*
X180400000Y-67825250D01*
X180543709Y-67806330D01*
X180677625Y-67750861D01*
X180792621Y-67662621D01*
X180880861Y-67547625D01*
X180936330Y-67413709D01*
X180955250Y-67270000D01*
X180936330Y-67126291D01*
X180932741Y-67117626D01*
X180884020Y-67000000D01*
X181594750Y-67000000D01*
X181613670Y-67143709D01*
X181613671Y-67143711D01*
X181613672Y-67143716D01*
X181669136Y-67277620D01*
X181669139Y-67277626D01*
X181757378Y-67392621D01*
X181872373Y-67480860D01*
X181872379Y-67480863D01*
X182006283Y-67536327D01*
X182006284Y-67536327D01*
X182006291Y-67536330D01*
X182150000Y-67555250D01*
X182293709Y-67536330D01*
X182427625Y-67480861D01*
X182542621Y-67392621D01*
X182613692Y-67300000D01*
X188469750Y-67300000D01*
X188488670Y-67443709D01*
X188488671Y-67443711D01*
X188488672Y-67443716D01*
X188544136Y-67577620D01*
X188544139Y-67577626D01*
X188632378Y-67692621D01*
X188747373Y-67780860D01*
X188747379Y-67780863D01*
X188881283Y-67836327D01*
X188881284Y-67836327D01*
X188881291Y-67836330D01*
X189025000Y-67855250D01*
X189168709Y-67836330D01*
X189302625Y-67780861D01*
X189417621Y-67692621D01*
X189505861Y-67577625D01*
X189561330Y-67443709D01*
X189580250Y-67300000D01*
X189561330Y-67156291D01*
X189561327Y-67156283D01*
X189505863Y-67022379D01*
X189505860Y-67022373D01*
X189417621Y-66907378D01*
X189302626Y-66819139D01*
X189302620Y-66819136D01*
X189168716Y-66763672D01*
X189168711Y-66763671D01*
X189168709Y-66763670D01*
X189025000Y-66744750D01*
X188881291Y-66763670D01*
X188881288Y-66763670D01*
X188881288Y-66763671D01*
X188881283Y-66763672D01*
X188747379Y-66819136D01*
X188747373Y-66819139D01*
X188632378Y-66907378D01*
X188544139Y-67022373D01*
X188544136Y-67022379D01*
X188488672Y-67156283D01*
X188488671Y-67156288D01*
X188488670Y-67156291D01*
X188469750Y-67300000D01*
X182613692Y-67300000D01*
X182630861Y-67277625D01*
X182686330Y-67143709D01*
X182705250Y-67000000D01*
X182686330Y-66856291D01*
X182678901Y-66838355D01*
X182630863Y-66722379D01*
X182630860Y-66722373D01*
X182542621Y-66607378D01*
X182427626Y-66519139D01*
X182427620Y-66519136D01*
X182293716Y-66463672D01*
X182293711Y-66463671D01*
X182293709Y-66463670D01*
X182150000Y-66444750D01*
X182006291Y-66463670D01*
X182006288Y-66463670D01*
X182006288Y-66463671D01*
X182006283Y-66463672D01*
X181872379Y-66519136D01*
X181872373Y-66519139D01*
X181757378Y-66607378D01*
X181669139Y-66722373D01*
X181669136Y-66722379D01*
X181613672Y-66856283D01*
X181613671Y-66856288D01*
X181613670Y-66856291D01*
X181594750Y-67000000D01*
X180884020Y-67000000D01*
X180880863Y-66992379D01*
X180880860Y-66992373D01*
X180792621Y-66877378D01*
X180677626Y-66789139D01*
X180677620Y-66789136D01*
X180543716Y-66733672D01*
X180536496Y-66731738D01*
X180536987Y-66729903D01*
X180487516Y-66708014D01*
X180452151Y-66654391D01*
X180448124Y-66635876D01*
X180436330Y-66546291D01*
X180436327Y-66546283D01*
X180380863Y-66412379D01*
X180380860Y-66412373D01*
X180379039Y-66410000D01*
X192554750Y-66410000D01*
X192573670Y-66553709D01*
X192573671Y-66553711D01*
X192573672Y-66553716D01*
X192629136Y-66687620D01*
X192629139Y-66687626D01*
X192717378Y-66802621D01*
X192832373Y-66890860D01*
X192832379Y-66890863D01*
X192966283Y-66946327D01*
X192966284Y-66946327D01*
X192966291Y-66946330D01*
X193110000Y-66965250D01*
X193253709Y-66946330D01*
X193387625Y-66890861D01*
X193502621Y-66802621D01*
X193590861Y-66687625D01*
X193646330Y-66553709D01*
X193665250Y-66410000D01*
X193646330Y-66266291D01*
X193646327Y-66266283D01*
X193590863Y-66132379D01*
X193590860Y-66132373D01*
X193502621Y-66017378D01*
X193387626Y-65929139D01*
X193387620Y-65929136D01*
X193253716Y-65873672D01*
X193253711Y-65873671D01*
X193253709Y-65873670D01*
X193173260Y-65863078D01*
X193149871Y-65859999D01*
X193120855Y-65847162D01*
X193102812Y-65855664D01*
X193100152Y-65856046D01*
X192966291Y-65873670D01*
X192966288Y-65873670D01*
X192966288Y-65873671D01*
X192966283Y-65873672D01*
X192832379Y-65929136D01*
X192832373Y-65929139D01*
X192717378Y-66017378D01*
X192629139Y-66132373D01*
X192629136Y-66132379D01*
X192573672Y-66266283D01*
X192573671Y-66266288D01*
X192573670Y-66266291D01*
X192554750Y-66410000D01*
X180379039Y-66410000D01*
X180292621Y-66297378D01*
X180177626Y-66209139D01*
X180177620Y-66209136D01*
X180043716Y-66153672D01*
X180043711Y-66153671D01*
X180043709Y-66153670D01*
X179900000Y-66134750D01*
X179756291Y-66153670D01*
X179756288Y-66153670D01*
X179756288Y-66153671D01*
X179756283Y-66153672D01*
X179622379Y-66209136D01*
X179622373Y-66209139D01*
X179507378Y-66297378D01*
X179414590Y-66418303D01*
X179412337Y-66416574D01*
X179375575Y-66451619D01*
X179312499Y-66463766D01*
X179253952Y-66440726D01*
X179147626Y-66359139D01*
X179147623Y-66359137D01*
X179015981Y-66304610D01*
X178965965Y-66264305D01*
X178946583Y-66214171D01*
X178936330Y-66136291D01*
X178934707Y-66132373D01*
X178880863Y-66002379D01*
X178880860Y-66002373D01*
X178792621Y-65887378D01*
X178677626Y-65799139D01*
X178677620Y-65799136D01*
X178543716Y-65743672D01*
X178543711Y-65743671D01*
X178543709Y-65743670D01*
X178400000Y-65724750D01*
X178256291Y-65743670D01*
X178256288Y-65743670D01*
X178256288Y-65743671D01*
X178256283Y-65743672D01*
X178122379Y-65799136D01*
X178122373Y-65799139D01*
X178007378Y-65887378D01*
X177919139Y-66002373D01*
X177919136Y-66002379D01*
X177863672Y-66136283D01*
X177863671Y-66136288D01*
X177863670Y-66136291D01*
X177844750Y-66280000D01*
X166650921Y-66280000D01*
X166561090Y-66026326D01*
X166559263Y-66020701D01*
X166344610Y-65296045D01*
X166343068Y-65290289D01*
X166334024Y-65252620D01*
X166261371Y-64950000D01*
X180719750Y-64950000D01*
X180738670Y-65093709D01*
X180738671Y-65093711D01*
X180738672Y-65093716D01*
X180794136Y-65227620D01*
X180794139Y-65227626D01*
X180882378Y-65342621D01*
X180997373Y-65430860D01*
X180997379Y-65430863D01*
X181131283Y-65486327D01*
X181131284Y-65486327D01*
X181131291Y-65486330D01*
X181275000Y-65505250D01*
X181418709Y-65486330D01*
X181552625Y-65430861D01*
X181667621Y-65342621D01*
X181724967Y-65267886D01*
X181776842Y-65230008D01*
X181840963Y-65226187D01*
X181896971Y-65257640D01*
X181905850Y-65267887D01*
X181982378Y-65367621D01*
X182097373Y-65455860D01*
X182097379Y-65455863D01*
X182231283Y-65511327D01*
X182231284Y-65511327D01*
X182231291Y-65511330D01*
X182375000Y-65530250D01*
X182518709Y-65511330D01*
X182652625Y-65455861D01*
X182767621Y-65367621D01*
X182855861Y-65252625D01*
X182867303Y-65225000D01*
X185069750Y-65225000D01*
X185088670Y-65368709D01*
X185088671Y-65368711D01*
X185088672Y-65368716D01*
X185144136Y-65502620D01*
X185144139Y-65502626D01*
X185232378Y-65617621D01*
X185347373Y-65705860D01*
X185347379Y-65705863D01*
X185481283Y-65761327D01*
X185481284Y-65761327D01*
X185481291Y-65761330D01*
X185625000Y-65780250D01*
X185702855Y-65770000D01*
X187804750Y-65770000D01*
X187823670Y-65913709D01*
X187823671Y-65913711D01*
X187823672Y-65913716D01*
X187879136Y-66047620D01*
X187879139Y-66047626D01*
X187967378Y-66162621D01*
X188082373Y-66250860D01*
X188082379Y-66250863D01*
X188216283Y-66306327D01*
X188216284Y-66306327D01*
X188216291Y-66306330D01*
X188360000Y-66325250D01*
X188503709Y-66306330D01*
X188637625Y-66250861D01*
X188752621Y-66162621D01*
X188840861Y-66047625D01*
X188896330Y-65913709D01*
X188915250Y-65770000D01*
X188896330Y-65626291D01*
X188892204Y-65616329D01*
X188840863Y-65492379D01*
X188840860Y-65492373D01*
X188752621Y-65377378D01*
X188637626Y-65289139D01*
X188637620Y-65289136D01*
X188503716Y-65233672D01*
X188503711Y-65233671D01*
X188503709Y-65233670D01*
X188360000Y-65214750D01*
X188216291Y-65233670D01*
X188216288Y-65233670D01*
X188216288Y-65233671D01*
X188216283Y-65233672D01*
X188082379Y-65289136D01*
X188082373Y-65289139D01*
X187967378Y-65377378D01*
X187879139Y-65492373D01*
X187879136Y-65492379D01*
X187823672Y-65626283D01*
X187823671Y-65626288D01*
X187823670Y-65626291D01*
X187804750Y-65770000D01*
X185702855Y-65770000D01*
X185768709Y-65761330D01*
X185902625Y-65705861D01*
X186017621Y-65617621D01*
X186105861Y-65502625D01*
X186161330Y-65368709D01*
X186180250Y-65225000D01*
X186161330Y-65081291D01*
X186161327Y-65081283D01*
X186160796Y-65080000D01*
X192584750Y-65080000D01*
X192603670Y-65223709D01*
X192603671Y-65223711D01*
X192603672Y-65223716D01*
X192659136Y-65357620D01*
X192659139Y-65357626D01*
X192747378Y-65472621D01*
X192862373Y-65560860D01*
X192862379Y-65560863D01*
X192996283Y-65616327D01*
X192996286Y-65616328D01*
X192996291Y-65616330D01*
X193100128Y-65630000D01*
X193129143Y-65642836D01*
X193147188Y-65634335D01*
X193149764Y-65633964D01*
X193283709Y-65616330D01*
X193417625Y-65560861D01*
X193532621Y-65472621D01*
X193620861Y-65357625D01*
X193676330Y-65223709D01*
X193695250Y-65080000D01*
X193676330Y-64936291D01*
X193633289Y-64832379D01*
X193620863Y-64802379D01*
X193620860Y-64802373D01*
X193532621Y-64687378D01*
X193417626Y-64599139D01*
X193417620Y-64599136D01*
X193283716Y-64543672D01*
X193283711Y-64543671D01*
X193283709Y-64543670D01*
X193140000Y-64524750D01*
X192996291Y-64543670D01*
X192996288Y-64543670D01*
X192996288Y-64543671D01*
X192996283Y-64543672D01*
X192862379Y-64599136D01*
X192862373Y-64599139D01*
X192747378Y-64687378D01*
X192659139Y-64802373D01*
X192659136Y-64802379D01*
X192603672Y-64936283D01*
X192603671Y-64936288D01*
X192603670Y-64936291D01*
X192584750Y-65080000D01*
X186160796Y-65080000D01*
X186105863Y-64947379D01*
X186105860Y-64947373D01*
X186017621Y-64832378D01*
X185902626Y-64744139D01*
X185902620Y-64744136D01*
X185768716Y-64688672D01*
X185768711Y-64688671D01*
X185768709Y-64688670D01*
X185625000Y-64669750D01*
X185481291Y-64688670D01*
X185481288Y-64688670D01*
X185481288Y-64688671D01*
X185481283Y-64688672D01*
X185347379Y-64744136D01*
X185347373Y-64744139D01*
X185232378Y-64832378D01*
X185144139Y-64947373D01*
X185144136Y-64947379D01*
X185088672Y-65081283D01*
X185088671Y-65081288D01*
X185088670Y-65081291D01*
X185069750Y-65225000D01*
X182867303Y-65225000D01*
X182911330Y-65118709D01*
X182930250Y-64975000D01*
X182911330Y-64831291D01*
X182900972Y-64806283D01*
X182855863Y-64697379D01*
X182855860Y-64697373D01*
X182767621Y-64582378D01*
X182652626Y-64494139D01*
X182652620Y-64494136D01*
X182518716Y-64438672D01*
X182518711Y-64438671D01*
X182518709Y-64438670D01*
X182375000Y-64419750D01*
X182231291Y-64438670D01*
X182231288Y-64438670D01*
X182231288Y-64438671D01*
X182231283Y-64438672D01*
X182097379Y-64494136D01*
X182097373Y-64494139D01*
X181982378Y-64582378D01*
X181925033Y-64657112D01*
X181873156Y-64694992D01*
X181809034Y-64698811D01*
X181753027Y-64667358D01*
X181744158Y-64657124D01*
X181667621Y-64557379D01*
X181667619Y-64557377D01*
X181667618Y-64557376D01*
X181552626Y-64469139D01*
X181552620Y-64469136D01*
X181418716Y-64413672D01*
X181418711Y-64413671D01*
X181418709Y-64413670D01*
X181275000Y-64394750D01*
X181131291Y-64413670D01*
X181131288Y-64413670D01*
X181131288Y-64413671D01*
X181131283Y-64413672D01*
X180997379Y-64469136D01*
X180997373Y-64469139D01*
X180882378Y-64557378D01*
X180794139Y-64672373D01*
X180794136Y-64672379D01*
X180738672Y-64806283D01*
X180738671Y-64806288D01*
X180738670Y-64806291D01*
X180719750Y-64950000D01*
X166261371Y-64950000D01*
X166166638Y-64555407D01*
X166165399Y-64549576D01*
X166164304Y-64543670D01*
X166080360Y-64090750D01*
X176134000Y-64090750D01*
X176152920Y-64234459D01*
X176152921Y-64234461D01*
X176152922Y-64234466D01*
X176208386Y-64368370D01*
X176208389Y-64368376D01*
X176296628Y-64483371D01*
X176411623Y-64571610D01*
X176411629Y-64571613D01*
X176545533Y-64627077D01*
X176545534Y-64627077D01*
X176545541Y-64627080D01*
X176689250Y-64646000D01*
X176832959Y-64627080D01*
X176966875Y-64571611D01*
X177081871Y-64483371D01*
X177170111Y-64368375D01*
X177225580Y-64234459D01*
X177244500Y-64090750D01*
X177225580Y-63947041D01*
X177214736Y-63920860D01*
X177170113Y-63813129D01*
X177170110Y-63813123D01*
X177081871Y-63698128D01*
X176966876Y-63609889D01*
X176966870Y-63609886D01*
X176832966Y-63554422D01*
X176832961Y-63554421D01*
X176832959Y-63554420D01*
X176689250Y-63535500D01*
X176545541Y-63554420D01*
X176545538Y-63554420D01*
X176545538Y-63554421D01*
X176545533Y-63554422D01*
X176411629Y-63609886D01*
X176411623Y-63609889D01*
X176296628Y-63698128D01*
X176208389Y-63813123D01*
X176208386Y-63813129D01*
X176152922Y-63947033D01*
X176152921Y-63947038D01*
X176152920Y-63947041D01*
X176134000Y-64090750D01*
X166080360Y-64090750D01*
X166027674Y-63806479D01*
X166026741Y-63800588D01*
X166001635Y-63609886D01*
X165979269Y-63440000D01*
X171314750Y-63440000D01*
X171333670Y-63583709D01*
X171333671Y-63583711D01*
X171333672Y-63583716D01*
X171389136Y-63717620D01*
X171389139Y-63717626D01*
X171477378Y-63832621D01*
X171592373Y-63920860D01*
X171592379Y-63920863D01*
X171726283Y-63976327D01*
X171726284Y-63976327D01*
X171726291Y-63976330D01*
X171870000Y-63995250D01*
X172013709Y-63976330D01*
X172147625Y-63920861D01*
X172262621Y-63832621D01*
X172350861Y-63717625D01*
X172406330Y-63583709D01*
X172425250Y-63440000D01*
X172406818Y-63300000D01*
X190769750Y-63300000D01*
X190788670Y-63443709D01*
X190788671Y-63443711D01*
X190788672Y-63443716D01*
X190844136Y-63577620D01*
X190844139Y-63577626D01*
X190932378Y-63692621D01*
X191047373Y-63780860D01*
X191047379Y-63780863D01*
X191181283Y-63836327D01*
X191181284Y-63836327D01*
X191181291Y-63836330D01*
X191325000Y-63855250D01*
X191468709Y-63836330D01*
X191602625Y-63780861D01*
X191717621Y-63692621D01*
X191805861Y-63577625D01*
X191861330Y-63443709D01*
X191880250Y-63300000D01*
X191861330Y-63156291D01*
X191817841Y-63051297D01*
X191805863Y-63022379D01*
X191805860Y-63022373D01*
X191717621Y-62907378D01*
X191602626Y-62819139D01*
X191602620Y-62819136D01*
X191468716Y-62763672D01*
X191468711Y-62763671D01*
X191468709Y-62763670D01*
X191325000Y-62744750D01*
X191181291Y-62763670D01*
X191181288Y-62763670D01*
X191181288Y-62763671D01*
X191181283Y-62763672D01*
X191047379Y-62819136D01*
X191047373Y-62819139D01*
X190932378Y-62907378D01*
X190844139Y-63022373D01*
X190844136Y-63022379D01*
X190788672Y-63156283D01*
X190788671Y-63156288D01*
X190788670Y-63156291D01*
X190769750Y-63300000D01*
X172406818Y-63300000D01*
X172406330Y-63296291D01*
X172350861Y-63162375D01*
X172350860Y-63162373D01*
X172262621Y-63047378D01*
X172147626Y-62959139D01*
X172147620Y-62959136D01*
X172013716Y-62903672D01*
X172013711Y-62903671D01*
X172013709Y-62903670D01*
X171870000Y-62884750D01*
X171726291Y-62903670D01*
X171726288Y-62903670D01*
X171726288Y-62903671D01*
X171726283Y-62903672D01*
X171592379Y-62959136D01*
X171592373Y-62959139D01*
X171477378Y-63047378D01*
X171389139Y-63162373D01*
X171389136Y-63162379D01*
X171333672Y-63296283D01*
X171333671Y-63296288D01*
X171333670Y-63296291D01*
X171314750Y-63440000D01*
X165979269Y-63440000D01*
X165928091Y-63051266D01*
X165927474Y-63045393D01*
X165868173Y-62291904D01*
X165867864Y-62285995D01*
X165861030Y-62025000D01*
X189344750Y-62025000D01*
X189363670Y-62168709D01*
X189363671Y-62168711D01*
X189363672Y-62168716D01*
X189419136Y-62302620D01*
X189419139Y-62302626D01*
X189507378Y-62417621D01*
X189622373Y-62505860D01*
X189622379Y-62505863D01*
X189756283Y-62561327D01*
X189756284Y-62561327D01*
X189756291Y-62561330D01*
X189900000Y-62580250D01*
X190043709Y-62561330D01*
X190177625Y-62505861D01*
X190292621Y-62417621D01*
X190380861Y-62302625D01*
X190436330Y-62168709D01*
X190455250Y-62025000D01*
X190436330Y-61881291D01*
X190380861Y-61747375D01*
X190380860Y-61747373D01*
X190292621Y-61632378D01*
X190177626Y-61544139D01*
X190177620Y-61544136D01*
X190043716Y-61488672D01*
X190043711Y-61488671D01*
X190043709Y-61488670D01*
X189900000Y-61469750D01*
X189756291Y-61488670D01*
X189756288Y-61488670D01*
X189756288Y-61488671D01*
X189756283Y-61488672D01*
X189622379Y-61544136D01*
X189622373Y-61544139D01*
X189507378Y-61632378D01*
X189419139Y-61747373D01*
X189419136Y-61747379D01*
X189363672Y-61881283D01*
X189363671Y-61881288D01*
X189363670Y-61881291D01*
X189344750Y-62025000D01*
X165861030Y-62025000D01*
X165848080Y-61530477D01*
X165848080Y-61524515D01*
X165851783Y-61383115D01*
X165859197Y-61100000D01*
X184344750Y-61100000D01*
X184363670Y-61243709D01*
X184363671Y-61243711D01*
X184363672Y-61243716D01*
X184419136Y-61377620D01*
X184419139Y-61377626D01*
X184507378Y-61492621D01*
X184622373Y-61580860D01*
X184622379Y-61580863D01*
X184756283Y-61636327D01*
X184756284Y-61636327D01*
X184756291Y-61636330D01*
X184900000Y-61655250D01*
X185043709Y-61636330D01*
X185177625Y-61580861D01*
X185243582Y-61530250D01*
X185292620Y-61492622D01*
X185295652Y-61488671D01*
X185344651Y-61424814D01*
X185396526Y-61386936D01*
X185460647Y-61383115D01*
X185504491Y-61403772D01*
X185572373Y-61455860D01*
X185572379Y-61455863D01*
X185706283Y-61511327D01*
X185706284Y-61511327D01*
X185706291Y-61511330D01*
X185850000Y-61530250D01*
X185993709Y-61511330D01*
X186127625Y-61455861D01*
X186242621Y-61367621D01*
X186330861Y-61252625D01*
X186386330Y-61118709D01*
X186405250Y-60975000D01*
X186386330Y-60831291D01*
X186360377Y-60768633D01*
X186330863Y-60697379D01*
X186330860Y-60697373D01*
X186242621Y-60582378D01*
X186127626Y-60494139D01*
X186127620Y-60494136D01*
X185993716Y-60438672D01*
X185993711Y-60438671D01*
X185993709Y-60438670D01*
X185850000Y-60419750D01*
X185706291Y-60438670D01*
X185706288Y-60438670D01*
X185706288Y-60438671D01*
X185706283Y-60438672D01*
X185572379Y-60494136D01*
X185572373Y-60494139D01*
X185457378Y-60582378D01*
X185405349Y-60650184D01*
X185353471Y-60688064D01*
X185289350Y-60691883D01*
X185245508Y-60671227D01*
X185177626Y-60619139D01*
X185177620Y-60619136D01*
X185043716Y-60563672D01*
X185043711Y-60563671D01*
X185043709Y-60563670D01*
X184900000Y-60544750D01*
X184756291Y-60563670D01*
X184756288Y-60563670D01*
X184756288Y-60563671D01*
X184756283Y-60563672D01*
X184622379Y-60619136D01*
X184622373Y-60619139D01*
X184507378Y-60707378D01*
X184419139Y-60822373D01*
X184419136Y-60822379D01*
X184363672Y-60956283D01*
X184363671Y-60956288D01*
X184363670Y-60956291D01*
X184344750Y-61100000D01*
X165859197Y-61100000D01*
X165867864Y-60769000D01*
X165868173Y-60763095D01*
X165894388Y-60430000D01*
X171224750Y-60430000D01*
X171243670Y-60573709D01*
X171243671Y-60573711D01*
X171243672Y-60573716D01*
X171299136Y-60707620D01*
X171299139Y-60707626D01*
X171387378Y-60822621D01*
X171502373Y-60910860D01*
X171502379Y-60910863D01*
X171636283Y-60966327D01*
X171636284Y-60966327D01*
X171636291Y-60966330D01*
X171780000Y-60985250D01*
X171923709Y-60966330D01*
X172057625Y-60910861D01*
X172172621Y-60822621D01*
X172260861Y-60707625D01*
X172316330Y-60573709D01*
X172335250Y-60430000D01*
X172316330Y-60286291D01*
X172260861Y-60152375D01*
X172260860Y-60152373D01*
X172172621Y-60037378D01*
X172057626Y-59949139D01*
X172057620Y-59949136D01*
X171923716Y-59893672D01*
X171923711Y-59893671D01*
X171923709Y-59893670D01*
X171780000Y-59874750D01*
X171636291Y-59893670D01*
X171636288Y-59893670D01*
X171636288Y-59893671D01*
X171636283Y-59893672D01*
X171502379Y-59949136D01*
X171502373Y-59949139D01*
X171387378Y-60037378D01*
X171299139Y-60152373D01*
X171299136Y-60152379D01*
X171243672Y-60286283D01*
X171243671Y-60286288D01*
X171243670Y-60286291D01*
X171224750Y-60430000D01*
X165894388Y-60430000D01*
X165927474Y-60009600D01*
X165928091Y-60003735D01*
X166026742Y-59254400D01*
X166027675Y-59248514D01*
X166034702Y-59210601D01*
X166165402Y-58505406D01*
X166166640Y-58499583D01*
X166179056Y-58447867D01*
X166239392Y-58196549D01*
X176419201Y-58196549D01*
X176419201Y-58343459D01*
X176439969Y-58447867D01*
X176447862Y-58487551D01*
X176504079Y-58623270D01*
X176504085Y-58623280D01*
X176585697Y-58745421D01*
X176689583Y-58849307D01*
X176811724Y-58930919D01*
X176811734Y-58930925D01*
X176947453Y-58987142D01*
X176947455Y-58987142D01*
X176947459Y-58987144D01*
X177091546Y-59015804D01*
X177091549Y-59015804D01*
X177238453Y-59015804D01*
X177238456Y-59015804D01*
X177382543Y-58987144D01*
X177518270Y-58930924D01*
X177640421Y-58849305D01*
X177744302Y-58745424D01*
X177825921Y-58623273D01*
X177882141Y-58487546D01*
X177910801Y-58343459D01*
X177910801Y-58196549D01*
X177882141Y-58052462D01*
X177825921Y-57916735D01*
X177825916Y-57916727D01*
X177744304Y-57794586D01*
X177640418Y-57690700D01*
X177518277Y-57609088D01*
X177518267Y-57609082D01*
X177382548Y-57552865D01*
X177382543Y-57552864D01*
X177238456Y-57524204D01*
X177091546Y-57524204D01*
X176982729Y-57545848D01*
X176947453Y-57552865D01*
X176811734Y-57609082D01*
X176811724Y-57609088D01*
X176689583Y-57690700D01*
X176585697Y-57794586D01*
X176504085Y-57916727D01*
X176504079Y-57916737D01*
X176447862Y-58052456D01*
X176447861Y-58052462D01*
X176419201Y-58196549D01*
X166239392Y-58196549D01*
X166343072Y-57764690D01*
X166344607Y-57758962D01*
X166559266Y-57034285D01*
X166561087Y-57028682D01*
X166571244Y-57000000D01*
X175194750Y-57000000D01*
X175213670Y-57143709D01*
X175213671Y-57143711D01*
X175213672Y-57143716D01*
X175269136Y-57277620D01*
X175269139Y-57277626D01*
X175357378Y-57392621D01*
X175472373Y-57480860D01*
X175472379Y-57480863D01*
X175606283Y-57536327D01*
X175606284Y-57536327D01*
X175606291Y-57536330D01*
X175750000Y-57555250D01*
X175893709Y-57536330D01*
X176027625Y-57480861D01*
X176142621Y-57392621D01*
X176230861Y-57277625D01*
X176286330Y-57143709D01*
X176305250Y-57000000D01*
X176286330Y-56856291D01*
X176286327Y-56856283D01*
X176230863Y-56722379D01*
X176230860Y-56722373D01*
X176142621Y-56607378D01*
X176027626Y-56519139D01*
X176027620Y-56519136D01*
X175893716Y-56463672D01*
X175893711Y-56463671D01*
X175893709Y-56463670D01*
X175750000Y-56444750D01*
X175606291Y-56463670D01*
X175606288Y-56463670D01*
X175606288Y-56463671D01*
X175606283Y-56463672D01*
X175472379Y-56519136D01*
X175472373Y-56519139D01*
X175357378Y-56607378D01*
X175269139Y-56722373D01*
X175269136Y-56722379D01*
X175213672Y-56856283D01*
X175213671Y-56856288D01*
X175213670Y-56856291D01*
X175194750Y-57000000D01*
X166571244Y-57000000D01*
X166813380Y-56316229D01*
X166815517Y-56310665D01*
X166820291Y-56299139D01*
X166861355Y-56200000D01*
X183794750Y-56200000D01*
X183813670Y-56343709D01*
X183813671Y-56343711D01*
X183813672Y-56343716D01*
X183869136Y-56477620D01*
X183869139Y-56477626D01*
X183957378Y-56592621D01*
X184072373Y-56680860D01*
X184072379Y-56680863D01*
X184206283Y-56736327D01*
X184206284Y-56736327D01*
X184206291Y-56736330D01*
X184350000Y-56755250D01*
X184493709Y-56736330D01*
X184579574Y-56700763D01*
X184643441Y-56693897D01*
X184700882Y-56722650D01*
X184733659Y-56777893D01*
X184736225Y-56791205D01*
X184739855Y-56818782D01*
X184753670Y-56923709D01*
X184753671Y-56923711D01*
X184753672Y-56923716D01*
X184809136Y-57057620D01*
X184809139Y-57057626D01*
X184897378Y-57172621D01*
X185012373Y-57260860D01*
X185012379Y-57260863D01*
X185146283Y-57316327D01*
X185146284Y-57316327D01*
X185146291Y-57316330D01*
X185290000Y-57335250D01*
X185433709Y-57316330D01*
X185567625Y-57260861D01*
X185682621Y-57172621D01*
X185770861Y-57057625D01*
X185826330Y-56923709D01*
X185845250Y-56780000D01*
X185826330Y-56636291D01*
X185826327Y-56636283D01*
X185770863Y-56502379D01*
X185770860Y-56502373D01*
X185692306Y-56400000D01*
X191019750Y-56400000D01*
X191038670Y-56543709D01*
X191038671Y-56543711D01*
X191038672Y-56543716D01*
X191094136Y-56677620D01*
X191094139Y-56677626D01*
X191182378Y-56792621D01*
X191297373Y-56880860D01*
X191297379Y-56880863D01*
X191431283Y-56936327D01*
X191431284Y-56936327D01*
X191431291Y-56936330D01*
X191575000Y-56955250D01*
X191718709Y-56936330D01*
X191852625Y-56880861D01*
X191967621Y-56792621D01*
X192055861Y-56677625D01*
X192111330Y-56543709D01*
X192130250Y-56400000D01*
X192111330Y-56256291D01*
X192106103Y-56243671D01*
X192055863Y-56122379D01*
X192055860Y-56122373D01*
X191967621Y-56007378D01*
X191852626Y-55919139D01*
X191852620Y-55919136D01*
X191718716Y-55863672D01*
X191718711Y-55863671D01*
X191718709Y-55863670D01*
X191575000Y-55844750D01*
X191431291Y-55863670D01*
X191431288Y-55863670D01*
X191431288Y-55863671D01*
X191431283Y-55863672D01*
X191297379Y-55919136D01*
X191297373Y-55919139D01*
X191182378Y-56007378D01*
X191094139Y-56122373D01*
X191094136Y-56122379D01*
X191038672Y-56256283D01*
X191038671Y-56256288D01*
X191038670Y-56256291D01*
X191019750Y-56400000D01*
X185692306Y-56400000D01*
X185682621Y-56387378D01*
X185567626Y-56299139D01*
X185567620Y-56299136D01*
X185433716Y-56243672D01*
X185433711Y-56243671D01*
X185433709Y-56243670D01*
X185290000Y-56224750D01*
X185146291Y-56243670D01*
X185146288Y-56243670D01*
X185146288Y-56243671D01*
X185146286Y-56243671D01*
X185060423Y-56279236D01*
X184996556Y-56286101D01*
X184939116Y-56257348D01*
X184906340Y-56202104D01*
X184903775Y-56188801D01*
X184886330Y-56056291D01*
X184886327Y-56056283D01*
X184830863Y-55922379D01*
X184830860Y-55922373D01*
X184742621Y-55807378D01*
X184627626Y-55719139D01*
X184627620Y-55719136D01*
X184493716Y-55663672D01*
X184493711Y-55663671D01*
X184493709Y-55663670D01*
X184350000Y-55644750D01*
X184206291Y-55663670D01*
X184206288Y-55663670D01*
X184206288Y-55663671D01*
X184206283Y-55663672D01*
X184072379Y-55719136D01*
X184072373Y-55719139D01*
X183957378Y-55807378D01*
X183869139Y-55922373D01*
X183869136Y-55922379D01*
X183813672Y-56056283D01*
X183813671Y-56056288D01*
X183813670Y-56056291D01*
X183794750Y-56200000D01*
X166861355Y-56200000D01*
X167104734Y-55612429D01*
X167107145Y-55607013D01*
X167315590Y-55170000D01*
X178424750Y-55170000D01*
X178443670Y-55313709D01*
X178443671Y-55313711D01*
X178443672Y-55313716D01*
X178499136Y-55447620D01*
X178499139Y-55447626D01*
X178587378Y-55562621D01*
X178702373Y-55650860D01*
X178702379Y-55650863D01*
X178836283Y-55706327D01*
X178836284Y-55706327D01*
X178836291Y-55706330D01*
X178980000Y-55725250D01*
X179123709Y-55706330D01*
X179257625Y-55650861D01*
X179372621Y-55562621D01*
X179460861Y-55447625D01*
X179516330Y-55313709D01*
X179535250Y-55170000D01*
X179516330Y-55026291D01*
X179509939Y-55010861D01*
X179460863Y-54892379D01*
X179460860Y-54892373D01*
X179372621Y-54777378D01*
X179257626Y-54689139D01*
X179257620Y-54689136D01*
X179123716Y-54633672D01*
X179123711Y-54633671D01*
X179123709Y-54633670D01*
X178980000Y-54614750D01*
X178836291Y-54633670D01*
X178836288Y-54633670D01*
X178836288Y-54633671D01*
X178836283Y-54633672D01*
X178702379Y-54689136D01*
X178702373Y-54689139D01*
X178587378Y-54777378D01*
X178499139Y-54892373D01*
X178499136Y-54892379D01*
X178443672Y-55026283D01*
X178443671Y-55026288D01*
X178443670Y-55026291D01*
X178424750Y-55170000D01*
X167315590Y-55170000D01*
X167432526Y-54924840D01*
X167435230Y-54919535D01*
X167449975Y-54892379D01*
X167646730Y-54530000D01*
X174064750Y-54530000D01*
X174083670Y-54673709D01*
X174083671Y-54673711D01*
X174083672Y-54673716D01*
X174139136Y-54807620D01*
X174139139Y-54807626D01*
X174227378Y-54922621D01*
X174342373Y-55010860D01*
X174342379Y-55010863D01*
X174476283Y-55066327D01*
X174476284Y-55066327D01*
X174476291Y-55066330D01*
X174620000Y-55085250D01*
X174763709Y-55066330D01*
X174897625Y-55010861D01*
X175012621Y-54922621D01*
X175100861Y-54807625D01*
X175156330Y-54673709D01*
X175175250Y-54530000D01*
X175156330Y-54386291D01*
X175156327Y-54386283D01*
X175100863Y-54252379D01*
X175100860Y-54252373D01*
X175012621Y-54137378D01*
X174897626Y-54049139D01*
X174897620Y-54049136D01*
X174763716Y-53993672D01*
X174763711Y-53993671D01*
X174763709Y-53993670D01*
X174620000Y-53974750D01*
X174476291Y-53993670D01*
X174476288Y-53993670D01*
X174476288Y-53993671D01*
X174476283Y-53993672D01*
X174342379Y-54049136D01*
X174342373Y-54049139D01*
X174227378Y-54137378D01*
X174139139Y-54252373D01*
X174139136Y-54252379D01*
X174083672Y-54386283D01*
X174083671Y-54386288D01*
X174083670Y-54386291D01*
X174064750Y-54530000D01*
X167646730Y-54530000D01*
X167795839Y-54255373D01*
X167798822Y-54250208D01*
X167867964Y-54137379D01*
X168193720Y-53605793D01*
X168196951Y-53600818D01*
X168625034Y-52977953D01*
X168628499Y-52973183D01*
X168914853Y-52600000D01*
X170169750Y-52600000D01*
X170188670Y-52743709D01*
X170188671Y-52743711D01*
X170188672Y-52743716D01*
X170244136Y-52877620D01*
X170244139Y-52877626D01*
X170332378Y-52992621D01*
X170447373Y-53080860D01*
X170447379Y-53080863D01*
X170581283Y-53136327D01*
X170581284Y-53136327D01*
X170581291Y-53136330D01*
X170725000Y-53155250D01*
X170868709Y-53136330D01*
X170916473Y-53116546D01*
X175403200Y-53116546D01*
X175403200Y-53263456D01*
X175431860Y-53407543D01*
X175431861Y-53407548D01*
X175488078Y-53543267D01*
X175488084Y-53543277D01*
X175569696Y-53665418D01*
X175673582Y-53769304D01*
X175795723Y-53850916D01*
X175795733Y-53850922D01*
X175931452Y-53907139D01*
X175931454Y-53907139D01*
X175931458Y-53907141D01*
X176075545Y-53935801D01*
X176075548Y-53935801D01*
X176222452Y-53935801D01*
X176222455Y-53935801D01*
X176366542Y-53907141D01*
X176502269Y-53850921D01*
X176624420Y-53769302D01*
X176728301Y-53665421D01*
X176809920Y-53543270D01*
X176866140Y-53407543D01*
X176894800Y-53263456D01*
X176894800Y-53116546D01*
X177435202Y-53116546D01*
X177435202Y-53263456D01*
X177463862Y-53407543D01*
X177463863Y-53407548D01*
X177520080Y-53543267D01*
X177520086Y-53543277D01*
X177601698Y-53665418D01*
X177705584Y-53769304D01*
X177827725Y-53850916D01*
X177827735Y-53850922D01*
X177963454Y-53907139D01*
X177963456Y-53907139D01*
X177963460Y-53907141D01*
X178107547Y-53935801D01*
X178107550Y-53935801D01*
X178254454Y-53935801D01*
X178254457Y-53935801D01*
X178398544Y-53907141D01*
X178534271Y-53850921D01*
X178656422Y-53769302D01*
X178760303Y-53665421D01*
X178841922Y-53543270D01*
X178898142Y-53407543D01*
X178926802Y-53263456D01*
X178926802Y-53116546D01*
X178898142Y-52972459D01*
X178858860Y-52877625D01*
X178841923Y-52836734D01*
X178841917Y-52836724D01*
X178760305Y-52714583D01*
X178656419Y-52610697D01*
X178534278Y-52529085D01*
X178534268Y-52529079D01*
X178398549Y-52472862D01*
X178398544Y-52472861D01*
X178254457Y-52444201D01*
X178107547Y-52444201D01*
X177998730Y-52465845D01*
X177963454Y-52472862D01*
X177827735Y-52529079D01*
X177827725Y-52529085D01*
X177705584Y-52610697D01*
X177601698Y-52714583D01*
X177520086Y-52836724D01*
X177520080Y-52836734D01*
X177463863Y-52972453D01*
X177463862Y-52972459D01*
X177435202Y-53116546D01*
X176894800Y-53116546D01*
X176866140Y-52972459D01*
X176826858Y-52877625D01*
X176809921Y-52836734D01*
X176809915Y-52836724D01*
X176728303Y-52714583D01*
X176624417Y-52610697D01*
X176502276Y-52529085D01*
X176502266Y-52529079D01*
X176366547Y-52472862D01*
X176366542Y-52472861D01*
X176222455Y-52444201D01*
X176075545Y-52444201D01*
X175966728Y-52465845D01*
X175931452Y-52472862D01*
X175795733Y-52529079D01*
X175795723Y-52529085D01*
X175673582Y-52610697D01*
X175569696Y-52714583D01*
X175488084Y-52836724D01*
X175488078Y-52836734D01*
X175431861Y-52972453D01*
X175431860Y-52972459D01*
X175403200Y-53116546D01*
X170916473Y-53116546D01*
X171002625Y-53080861D01*
X171117621Y-52992621D01*
X171205861Y-52877625D01*
X171261330Y-52743709D01*
X171280250Y-52600000D01*
X171261330Y-52456291D01*
X171261327Y-52456283D01*
X171205863Y-52322379D01*
X171205860Y-52322373D01*
X171117621Y-52207378D01*
X171002626Y-52119139D01*
X171002620Y-52119136D01*
X170868716Y-52063672D01*
X170868711Y-52063671D01*
X170868709Y-52063670D01*
X170725000Y-52044750D01*
X170581291Y-52063670D01*
X170581288Y-52063670D01*
X170581288Y-52063671D01*
X170581283Y-52063672D01*
X170447379Y-52119136D01*
X170447373Y-52119139D01*
X170332378Y-52207378D01*
X170244139Y-52322373D01*
X170244136Y-52322379D01*
X170188672Y-52456283D01*
X170188671Y-52456288D01*
X170188670Y-52456291D01*
X170169750Y-52600000D01*
X168914853Y-52600000D01*
X169088625Y-52373537D01*
X169092332Y-52368958D01*
X169583203Y-51794221D01*
X169587137Y-51789853D01*
X170107425Y-51241584D01*
X170111587Y-51237422D01*
X170659856Y-50717134D01*
X170664224Y-50713200D01*
X171238961Y-50222329D01*
X171243540Y-50218621D01*
X171363115Y-50126868D01*
X171423024Y-50103707D01*
X171432808Y-50103312D01*
X179060588Y-50124679D01*
G37*
G04 #@! TD.AperFunction*
M02*
