G04 #@! TF.GenerationSoftware,KiCad,Pcbnew,8.0.6*
G04 #@! TF.CreationDate,2025-05-06T14:47:19+02:00*
G04 #@! TF.ProjectId,nRF5340,6e524635-3334-4302-9e6b-696361645f70,rev?*
G04 #@! TF.SameCoordinates,Original*
G04 #@! TF.FileFunction,Copper,L4,Bot*
G04 #@! TF.FilePolarity,Positive*
%FSLAX46Y46*%
G04 Gerber Fmt 4.6, Leading zero omitted, Abs format (unit mm)*
G04 Created by KiCad (PCBNEW 8.0.6) date 2025-05-06 14:47:19*
%MOMM*%
%LPD*%
G01*
G04 APERTURE LIST*
G04 #@! TA.AperFunction,ComponentPad*
%ADD10O,1.800000X1.000000*%
G04 #@! TD*
G04 #@! TA.AperFunction,ComponentPad*
%ADD11O,2.200000X1.000000*%
G04 #@! TD*
G04 #@! TA.AperFunction,SMDPad,CuDef*
%ADD12R,0.600000X1.550000*%
G04 #@! TD*
G04 #@! TA.AperFunction,SMDPad,CuDef*
%ADD13R,1.200000X1.800000*%
G04 #@! TD*
G04 #@! TA.AperFunction,ConnectorPad*
%ADD14C,0.787400*%
G04 #@! TD*
G04 #@! TA.AperFunction,ViaPad*
%ADD15C,0.500000*%
G04 #@! TD*
G04 #@! TA.AperFunction,ViaPad*
%ADD16C,0.450000*%
G04 #@! TD*
G04 #@! TA.AperFunction,Conductor*
%ADD17C,0.200000*%
G04 #@! TD*
G04 #@! TA.AperFunction,Conductor*
%ADD18C,0.300000*%
G04 #@! TD*
G04 APERTURE END LIST*
D10*
X172537501Y-57370748D03*
D11*
X168537500Y-57370747D03*
D10*
X172537502Y-66010752D03*
D11*
X168537500Y-66010753D03*
D12*
X187925001Y-71450002D03*
X188925001Y-71450002D03*
D13*
X186625000Y-67575000D03*
X190225000Y-67575000D03*
D12*
X174124999Y-72850001D03*
X175125001Y-72850002D03*
D13*
X172825000Y-68975000D03*
X176425000Y-68975000D03*
D14*
X176530001Y-57000002D03*
X177800000Y-57000000D03*
X176530000Y-55730002D03*
X177800000Y-55730002D03*
X176530000Y-54460004D03*
X177799999Y-54460002D03*
D15*
X178980000Y-55170000D03*
X174620000Y-54530000D03*
D16*
X194000000Y-59000000D03*
D15*
X170374997Y-68524999D03*
D16*
X178500000Y-59500000D03*
D15*
X183900000Y-66100000D03*
D16*
X178500000Y-50500000D03*
X184000000Y-74500000D03*
X168500000Y-61500000D03*
D15*
X188733749Y-69647501D03*
X189700000Y-64225000D03*
D16*
X179000000Y-58500000D03*
D15*
X178575000Y-51325000D03*
X180175000Y-65050000D03*
D16*
X184000000Y-73000000D03*
X171500000Y-50500000D03*
X176000000Y-74500000D03*
X184000000Y-72000000D03*
X175000000Y-70500000D03*
D15*
X170394997Y-69894999D03*
D16*
X168000000Y-55500000D03*
X174500000Y-50500000D03*
X173500000Y-50500000D03*
D15*
X192575000Y-56375000D03*
D16*
X190500000Y-54500000D03*
X190000000Y-71500000D03*
X172000000Y-67500000D03*
D15*
X185230000Y-74030000D03*
D16*
X190005995Y-63021052D03*
X177000000Y-73000000D03*
X174500000Y-57500000D03*
X177000000Y-66000000D03*
D15*
X177200000Y-74930000D03*
D16*
X191500000Y-54500000D03*
X192500000Y-54500000D03*
D15*
X169150000Y-55590000D03*
D16*
X178000000Y-63500000D03*
X183000000Y-67500000D03*
X183500000Y-71500000D03*
X183500000Y-61000000D03*
X194000000Y-64500000D03*
X176500000Y-50500000D03*
X169000000Y-54500000D03*
X178500000Y-64500000D03*
X168500000Y-59000000D03*
D15*
X170150000Y-64900000D03*
D16*
X171500000Y-52500000D03*
D15*
X176190000Y-51740000D03*
X186730000Y-74030000D03*
D16*
X170500000Y-58000000D03*
D15*
X184025000Y-60500000D03*
D16*
X168500000Y-64000000D03*
D15*
X182460000Y-68120000D03*
D16*
X177500000Y-50500000D03*
X175500000Y-50500000D03*
X180500000Y-66000000D03*
X175500000Y-58000000D03*
D15*
X174125000Y-71500000D03*
X183325000Y-58725000D03*
X184980000Y-67410000D03*
D16*
X194000000Y-62500000D03*
X167500000Y-62500000D03*
X176500000Y-72000000D03*
X175000000Y-66000000D03*
X167500000Y-60000000D03*
X172500000Y-50500000D03*
X183500000Y-73500000D03*
X192500000Y-68000000D03*
X176500000Y-70500000D03*
X169000000Y-68000000D03*
D15*
X192125002Y-63290000D03*
D16*
X174500000Y-69000000D03*
D15*
X175710000Y-54230000D03*
X171840000Y-58510000D03*
X174540000Y-56330000D03*
D16*
X194000000Y-61000000D03*
D15*
X181160000Y-75770000D03*
X193110000Y-66410000D03*
X193140000Y-65080000D03*
X170725000Y-52600000D03*
X191575000Y-56400000D03*
X178910000Y-74270000D03*
X182375000Y-64975000D03*
X181275000Y-64950000D03*
X177710000Y-72970000D03*
X175750000Y-57000000D03*
X191325000Y-63300000D03*
X179695001Y-75804999D03*
X184450000Y-71514999D03*
X182150000Y-67000000D03*
X180400000Y-67270000D03*
X172900000Y-67500000D03*
X179900000Y-66690000D03*
X176689250Y-64090750D03*
X188360000Y-65770000D03*
X183500000Y-69800000D03*
X185625000Y-65225000D03*
X183960000Y-69300000D03*
X171780000Y-60430000D03*
X178870000Y-66840000D03*
X184900000Y-61100000D03*
X182500000Y-73550000D03*
X178400000Y-66280000D03*
X171870000Y-63440000D03*
X184350000Y-56200000D03*
X185850000Y-60975000D03*
X185290000Y-56780000D03*
X187225000Y-69650000D03*
X186225000Y-69650000D03*
X189900000Y-62025000D03*
X189025000Y-67300000D03*
D17*
X175180000Y-54530000D02*
X174620000Y-54530000D01*
X176530000Y-55730002D02*
X176380002Y-55730002D01*
X176380002Y-55730002D02*
X175180000Y-54530000D01*
X177123700Y-55136302D02*
X178946302Y-55136302D01*
X178946302Y-55136302D02*
X178980000Y-55170000D01*
X176530000Y-55730002D02*
X177123700Y-55136302D01*
D18*
X174124999Y-72850001D02*
X174124999Y-71500001D01*
X174124999Y-71500001D02*
X174125000Y-71500000D01*
D17*
X176530000Y-54460004D02*
X175940004Y-54460004D01*
X175940004Y-54460004D02*
X175710000Y-54230000D01*
X176530001Y-57000002D02*
X175750002Y-57000002D01*
X175750002Y-57000002D02*
X175750000Y-57000000D01*
X177710000Y-72970000D02*
X177710000Y-73980000D01*
X177710000Y-73980000D02*
X178620000Y-73980000D01*
X178620000Y-73980000D02*
X178910000Y-74270000D01*
X175150000Y-71150000D02*
X175125001Y-71174999D01*
X175125001Y-71174999D02*
X175125001Y-72850002D01*
X178000000Y-71150000D02*
X175150000Y-71150000D01*
X182150000Y-67000000D02*
X178000000Y-71150000D01*
X180400000Y-67270000D02*
X180295000Y-67375000D01*
X180330000Y-67340000D02*
X174685000Y-67340000D01*
X174685000Y-67340000D02*
X174525000Y-67500000D01*
X180400000Y-67270000D02*
X180330000Y-67340000D01*
X174525000Y-67500000D02*
X172900000Y-67500000D01*
D18*
X176689250Y-64090750D02*
X177300750Y-64090750D01*
X177300750Y-64090750D02*
X179900000Y-66690000D01*
D17*
X183500000Y-69800000D02*
X184197893Y-69800000D01*
X184197893Y-69800000D02*
X185147893Y-68850000D01*
X188360000Y-68340000D02*
X188360000Y-65770000D01*
X185147893Y-68850000D02*
X187850000Y-68850000D01*
X187850000Y-68850000D02*
X188360000Y-68340000D01*
X185625000Y-67635000D02*
X185625000Y-65225000D01*
X183960000Y-69300000D02*
X185625000Y-67635000D01*
D18*
X171340000Y-66830000D02*
X170960000Y-66450000D01*
X178870000Y-66840000D02*
X178860000Y-66830000D01*
X178860000Y-66830000D02*
X171340000Y-66830000D01*
X170960000Y-61250000D02*
X171780000Y-60430000D01*
X170960000Y-66450000D02*
X170960000Y-61250000D01*
D17*
X182500000Y-68825000D02*
X183850000Y-67475000D01*
X184525000Y-66200000D02*
X184525000Y-61475000D01*
X184525000Y-61475000D02*
X184900000Y-61100000D01*
X183850000Y-66875000D02*
X184525000Y-66200000D01*
X183850000Y-67475000D02*
X183850000Y-66875000D01*
X182500000Y-73550000D02*
X182500000Y-68825000D01*
D18*
X171870000Y-64460000D02*
X171870000Y-63440000D01*
X176970000Y-64850000D02*
X172260000Y-64850000D01*
X172260000Y-64850000D02*
X171870000Y-64460000D01*
X178400000Y-66280000D02*
X176970000Y-64850000D01*
D17*
X179100000Y-56190000D02*
X184340000Y-56190000D01*
X178640002Y-55730002D02*
X179100000Y-56190000D01*
X184340000Y-56190000D02*
X184350000Y-56200000D01*
X177800000Y-55730002D02*
X178640002Y-55730002D01*
X184350000Y-56200000D02*
X184410000Y-56260000D01*
X185790000Y-60915000D02*
X185790000Y-56572893D01*
X183677109Y-54460002D02*
X177799999Y-54460002D01*
X185790000Y-56572893D02*
X183677109Y-54460002D01*
X185850000Y-60975000D02*
X185790000Y-60915000D01*
X177800000Y-57000000D02*
X178830000Y-57000000D01*
X185250000Y-56740000D02*
X185290000Y-56780000D01*
X179090000Y-56740000D02*
X185250000Y-56740000D01*
X178830000Y-57000000D02*
X179090000Y-56740000D01*
X187225000Y-69650000D02*
X187925001Y-70350001D01*
X187925001Y-70350001D02*
X187925001Y-71450002D01*
X186700000Y-72900000D02*
X188475000Y-72900000D01*
X186225000Y-72425000D02*
X186700000Y-72900000D01*
X188475000Y-72900000D02*
X188925001Y-72449999D01*
X188925001Y-72449999D02*
X188925001Y-71450002D01*
X186225000Y-69650000D02*
X186225000Y-72425000D01*
X189025000Y-63025000D02*
X189025000Y-67300000D01*
X189900000Y-62150000D02*
X189025000Y-63025000D01*
X189900000Y-62025000D02*
X189900000Y-62150000D01*
M02*
