M48
; DRILL file {KiCad 8.0.6} date 2025-05-06T14:47:23+0200
; FORMAT={-:-/ absolute / metric / decimal}
; #@! TF.CreationDate,2025-05-06T14:47:23+02:00
; #@! TF.GenerationSoftware,Kicad,Pcbnew,8.0.6
; #@! TF.FileFunction,Plated,1,4,PTH
FMAT,2
METRIC
; #@! TA.AperFunction,Plated,PTH,ViaDrill
T1C0.300
; #@! TA.AperFunction,Plated,PTH,ComponentDrill
T2C0.600
%
G90
G05
T1
X167.5Y-60.0
X167.5Y-62.5
X168.0Y-55.5
X168.5Y-59.0
X168.5Y-61.5
X168.5Y-64.0
X169.0Y-54.5
X169.0Y-68.0
X169.15Y-55.59
X170.15Y-64.9
X170.375Y-68.525
X170.395Y-69.895
X170.5Y-58.0
X170.725Y-52.6
X171.5Y-50.5
X171.5Y-52.5
X171.78Y-60.43
X171.84Y-58.51
X171.87Y-63.44
X172.0Y-67.5
X172.5Y-50.5
X172.9Y-67.5
X173.5Y-50.5
X174.125Y-71.5
X174.5Y-50.5
X174.5Y-57.5
X174.5Y-69.0
X174.54Y-56.33
X174.62Y-54.53
X175.0Y-66.0
X175.0Y-70.5
X175.5Y-50.5
X175.5Y-58.0
X175.71Y-54.23
X175.75Y-57.0
X176.0Y-74.5
X176.19Y-51.74
X176.5Y-50.5
X176.5Y-70.5
X176.5Y-72.0
X176.689Y-64.091
X177.0Y-66.0
X177.0Y-73.0
X177.2Y-74.93
X177.5Y-50.5
X177.71Y-72.97
X178.0Y-63.5
X178.4Y-66.28
X178.5Y-50.5
X178.5Y-59.5
X178.5Y-64.5
X178.575Y-51.325
X178.87Y-66.84
X178.91Y-74.27
X178.98Y-55.17
X179.0Y-58.5
X179.695Y-75.805
X179.9Y-66.69
X180.175Y-65.05
X180.4Y-67.27
X180.5Y-66.0
X181.16Y-75.77
X181.275Y-64.95
X182.15Y-67.0
X182.375Y-64.975
X182.46Y-68.12
X182.5Y-73.55
X183.0Y-67.5
X183.325Y-58.725
X183.5Y-61.0
X183.5Y-69.8
X183.5Y-71.5
X183.5Y-73.5
X183.9Y-66.1
X183.96Y-69.3
X184.0Y-72.0
X184.0Y-73.0
X184.0Y-74.5
X184.025Y-60.5
X184.35Y-56.2
X184.45Y-71.515
X184.9Y-61.1
X184.98Y-67.41
X185.23Y-74.03
X185.29Y-56.78
X185.625Y-65.225
X185.85Y-60.975
X186.225Y-69.65
X186.73Y-74.03
X187.225Y-69.65
X188.36Y-65.77
X188.734Y-69.648
X189.025Y-67.3
X189.7Y-64.225
X189.9Y-62.025
X190.0Y-71.5
X190.006Y-63.021
X190.5Y-54.5
X191.325Y-63.3
X191.5Y-54.5
X191.575Y-56.4
X192.125Y-63.29
X192.5Y-54.5
X192.5Y-68.0
X192.575Y-56.375
X193.11Y-66.41
X193.14Y-65.08
X194.0Y-59.0
X194.0Y-61.0
X194.0Y-62.5
X194.0Y-64.5
T2
X169.137Y-57.371G85X167.938Y-57.371
G05
X169.137Y-66.011G85X167.938Y-66.011
G05
X172.938Y-57.371G85X172.138Y-57.371
G05
X172.938Y-66.011G85X172.138Y-66.011
G05
M30
