G04 #@! TF.GenerationSoftware,KiCad,Pcbnew,8.0.6*
G04 #@! TF.CreationDate,2025-05-06T14:47:19+02:00*
G04 #@! TF.ProjectId,nRF5340,6e524635-3334-4302-9e6b-696361645f70,rev?*
G04 #@! TF.SameCoordinates,Original*
G04 #@! TF.FileFunction,Legend,Top*
G04 #@! TF.FilePolarity,Positive*
%FSLAX46Y46*%
G04 Gerber Fmt 4.6, Leading zero omitted, Abs format (unit mm)*
G04 Created by KiCad (PCBNEW 8.0.6) date 2025-05-06 14:47:19*
%MOMM*%
%LPD*%
G01*
G04 APERTURE LIST*
G04 Aperture macros list*
%AMRoundRect*
0 Rectangle with rounded corners*
0 $1 Rounding radius*
0 $2 $3 $4 $5 $6 $7 $8 $9 X,Y pos of 4 corners*
0 Add a 4 corners polygon primitive as box body*
4,1,4,$2,$3,$4,$5,$6,$7,$8,$9,$2,$3,0*
0 Add four circle primitives for the rounded corners*
1,1,$1+$1,$2,$3*
1,1,$1+$1,$4,$5*
1,1,$1+$1,$6,$7*
1,1,$1+$1,$8,$9*
0 Add four rect primitives between the rounded corners*
20,1,$1+$1,$2,$3,$4,$5,0*
20,1,$1+$1,$4,$5,$6,$7,0*
20,1,$1+$1,$6,$7,$8,$9,0*
20,1,$1+$1,$8,$9,$2,$3,0*%
G04 Aperture macros list end*
%ADD10C,0.120000*%
%ADD11C,0.125000*%
%ADD12C,0.300000*%
%ADD13C,0.200000*%
%ADD14C,0.152400*%
%ADD15C,0.000000*%
%ADD16C,0.127000*%
%ADD17RoundRect,0.225000X0.225000X0.250000X-0.225000X0.250000X-0.225000X-0.250000X0.225000X-0.250000X0*%
%ADD18RoundRect,0.200000X-0.200000X-0.275000X0.200000X-0.275000X0.200000X0.275000X-0.200000X0.275000X0*%
%ADD19RoundRect,0.225000X-0.250000X0.225000X-0.250000X-0.225000X0.250000X-0.225000X0.250000X0.225000X0*%
%ADD20RoundRect,0.225000X-0.225000X-0.250000X0.225000X-0.250000X0.225000X0.250000X-0.225000X0.250000X0*%
%ADD21R,0.254000X0.762000*%
%ADD22R,0.762000X0.254000*%
%ADD23R,3.606800X3.606800*%
%ADD24RoundRect,0.218750X0.218750X0.256250X-0.218750X0.256250X-0.218750X-0.256250X0.218750X-0.256250X0*%
%ADD25R,0.990600X0.711200*%
%ADD26RoundRect,0.102000X0.300000X-0.300000X0.300000X0.300000X-0.300000X0.300000X-0.300000X-0.300000X0*%
%ADD27RoundRect,0.200000X0.200000X0.275000X-0.200000X0.275000X-0.200000X-0.275000X0.200000X-0.275000X0*%
%ADD28RoundRect,0.200000X0.275000X-0.200000X0.275000X0.200000X-0.275000X0.200000X-0.275000X-0.200000X0*%
%ADD29RoundRect,0.218750X-0.218750X-0.256250X0.218750X-0.256250X0.218750X0.256250X-0.218750X0.256250X0*%
%ADD30RoundRect,0.102000X-0.575000X0.300000X-0.575000X-0.300000X0.575000X-0.300000X0.575000X0.300000X0*%
%ADD31RoundRect,0.102000X-0.575000X0.150000X-0.575000X-0.150000X0.575000X-0.150000X0.575000X0.150000X0*%
%ADD32O,2.004000X1.204000*%
%ADD33O,2.404000X1.204000*%
%ADD34R,0.304800X0.711200*%
%ADD35R,1.092200X0.508000*%
%ADD36R,0.254000X0.279400*%
%ADD37R,0.279400X0.254000*%
%ADD38RoundRect,0.150000X-0.512500X-0.150000X0.512500X-0.150000X0.512500X0.150000X-0.512500X0.150000X0*%
%ADD39C,0.990600*%
G04 APERTURE END LIST*
D10*
X193532003Y-60000000D02*
G75*
G02*
X193167997Y-60000000I-182003J0D01*
G01*
X193167997Y-60000000D02*
G75*
G02*
X193532003Y-60000000I182003J0D01*
G01*
D11*
G36*
X171974738Y-72574152D02*
G01*
X171984202Y-72583616D01*
X171996878Y-72608967D01*
X171996878Y-72722317D01*
X171984202Y-72747668D01*
X171974738Y-72757133D01*
X171949386Y-72769809D01*
X171883783Y-72769809D01*
X171883783Y-72561476D01*
X171949386Y-72561476D01*
X171974738Y-72574152D01*
G37*
G36*
X173287522Y-72410746D02*
G01*
X173317537Y-72440761D01*
X173333741Y-72473169D01*
X173354021Y-72554288D01*
X173354021Y-72610329D01*
X173333741Y-72691448D01*
X173317538Y-72723855D01*
X173287520Y-72753873D01*
X173239712Y-72769809D01*
X173193307Y-72769809D01*
X173193307Y-72394809D01*
X173239711Y-72394809D01*
X173287522Y-72410746D01*
G37*
G36*
X173541521Y-73119218D02*
G01*
X171696283Y-73119218D01*
X171696283Y-72498976D01*
X171758783Y-72498976D01*
X171758783Y-72998976D01*
X171763541Y-73022894D01*
X171797365Y-73056718D01*
X171845201Y-73056718D01*
X171879025Y-73022894D01*
X171883783Y-72998976D01*
X171883783Y-72894809D01*
X171964140Y-72894809D01*
X171967209Y-72894198D01*
X171968570Y-72894652D01*
X171978236Y-72892004D01*
X171988058Y-72890051D01*
X171989071Y-72889037D01*
X171992090Y-72888211D01*
X172039709Y-72864402D01*
X172047624Y-72858258D01*
X172055953Y-72852694D01*
X172079763Y-72828884D01*
X172085326Y-72820557D01*
X172091471Y-72812640D01*
X172115280Y-72765022D01*
X172116106Y-72762002D01*
X172117120Y-72760989D01*
X172119074Y-72751161D01*
X172121720Y-72741501D01*
X172121267Y-72740142D01*
X172121878Y-72737071D01*
X172121878Y-72594214D01*
X172121267Y-72591142D01*
X172121720Y-72589784D01*
X172119074Y-72580123D01*
X172117120Y-72570296D01*
X172116106Y-72569282D01*
X172115280Y-72566263D01*
X172091471Y-72518645D01*
X172085326Y-72510727D01*
X172079763Y-72502401D01*
X172055953Y-72478591D01*
X172047624Y-72473026D01*
X172039709Y-72466883D01*
X171992090Y-72443074D01*
X171989071Y-72442247D01*
X171988058Y-72441234D01*
X171978236Y-72439280D01*
X171968570Y-72436633D01*
X171967209Y-72437086D01*
X171964140Y-72436476D01*
X171868902Y-72436476D01*
X171865830Y-72437086D01*
X171864472Y-72436634D01*
X171854811Y-72439279D01*
X171844984Y-72441234D01*
X171797365Y-72441234D01*
X171763541Y-72475058D01*
X171758783Y-72498976D01*
X171696283Y-72498976D01*
X171696283Y-72332309D01*
X172211164Y-72332309D01*
X172211164Y-72832309D01*
X172215922Y-72856227D01*
X172249746Y-72890051D01*
X172273664Y-72894809D01*
X172511759Y-72894809D01*
X172535677Y-72890051D01*
X172569501Y-72856227D01*
X172569501Y-72808391D01*
X172535677Y-72774567D01*
X172511759Y-72769809D01*
X172336164Y-72769809D01*
X172336164Y-72332309D01*
X172615926Y-72332309D01*
X172615926Y-72832309D01*
X172620684Y-72856227D01*
X172654508Y-72890051D01*
X172678426Y-72894809D01*
X172916521Y-72894809D01*
X172940439Y-72890051D01*
X172974263Y-72856227D01*
X172974263Y-72808391D01*
X172940439Y-72774567D01*
X172916521Y-72769809D01*
X172740926Y-72769809D01*
X172740926Y-72632904D01*
X172845093Y-72632904D01*
X172869011Y-72628146D01*
X172902835Y-72594322D01*
X172902835Y-72546486D01*
X172869011Y-72512662D01*
X172845093Y-72507904D01*
X172740926Y-72507904D01*
X172740926Y-72394809D01*
X172916521Y-72394809D01*
X172940439Y-72390051D01*
X172974263Y-72356227D01*
X172974263Y-72332309D01*
X173068307Y-72332309D01*
X173068307Y-72832309D01*
X173073065Y-72856227D01*
X173106889Y-72890051D01*
X173130807Y-72894809D01*
X173249855Y-72894809D01*
X173259680Y-72892854D01*
X173269619Y-72891602D01*
X173341047Y-72867793D01*
X173343767Y-72866242D01*
X173345201Y-72866242D01*
X173353534Y-72860673D01*
X173362233Y-72855715D01*
X173362873Y-72854434D01*
X173365478Y-72852694D01*
X173413097Y-72805074D01*
X173418666Y-72796737D01*
X173424803Y-72788831D01*
X173448614Y-72741212D01*
X173450422Y-72734607D01*
X173453346Y-72728419D01*
X173477155Y-72633181D01*
X173477527Y-72625532D01*
X173479021Y-72618023D01*
X173479021Y-72546595D01*
X173477527Y-72539085D01*
X173477155Y-72531437D01*
X173453346Y-72436199D01*
X173450422Y-72430010D01*
X173448614Y-72423406D01*
X173424803Y-72375787D01*
X173418662Y-72367875D01*
X173413096Y-72359544D01*
X173365477Y-72311925D01*
X173362875Y-72310186D01*
X173362234Y-72308904D01*
X173353522Y-72303937D01*
X173345200Y-72298377D01*
X173343769Y-72298377D01*
X173341048Y-72296826D01*
X173269620Y-72273016D01*
X173259678Y-72271763D01*
X173249855Y-72269809D01*
X173130807Y-72269809D01*
X173106889Y-72274567D01*
X173073065Y-72308391D01*
X173068307Y-72332309D01*
X172974263Y-72332309D01*
X172974263Y-72308391D01*
X172940439Y-72274567D01*
X172916521Y-72269809D01*
X172678426Y-72269809D01*
X172654508Y-72274567D01*
X172620684Y-72308391D01*
X172615926Y-72332309D01*
X172336164Y-72332309D01*
X172331406Y-72308391D01*
X172297582Y-72274567D01*
X172249746Y-72274567D01*
X172215922Y-72308391D01*
X172211164Y-72332309D01*
X171696283Y-72332309D01*
X171696283Y-72207309D01*
X173541521Y-72207309D01*
X173541521Y-73119218D01*
G37*
X193203664Y-58582309D02*
X193536997Y-59082309D01*
X193536997Y-58582309D02*
X193203664Y-59082309D01*
X193340166Y-60004668D02*
X193340166Y-59242764D01*
X193530642Y-59433240D02*
X193340166Y-59242764D01*
X193340166Y-59242764D02*
X193149690Y-59433240D01*
G36*
X190307522Y-70650746D02*
G01*
X190337537Y-70680761D01*
X190353741Y-70713169D01*
X190374021Y-70794288D01*
X190374021Y-70850329D01*
X190353741Y-70931448D01*
X190337538Y-70963855D01*
X190307520Y-70993873D01*
X190259712Y-71009809D01*
X190213307Y-71009809D01*
X190213307Y-70634809D01*
X190259711Y-70634809D01*
X190307522Y-70650746D01*
G37*
G36*
X190561521Y-71197309D02*
G01*
X188716283Y-71197309D01*
X188716283Y-70738976D01*
X188778783Y-70738976D01*
X188778783Y-71000880D01*
X188779393Y-71003951D01*
X188778941Y-71005310D01*
X188781586Y-71014970D01*
X188783541Y-71024798D01*
X188784554Y-71025811D01*
X188785381Y-71028831D01*
X188809191Y-71076451D01*
X188816820Y-71086280D01*
X188817877Y-71089450D01*
X188821406Y-71092189D01*
X188824144Y-71095716D01*
X188827311Y-71096771D01*
X188837143Y-71104402D01*
X188884761Y-71128211D01*
X188887780Y-71129037D01*
X188888794Y-71130051D01*
X188898621Y-71132005D01*
X188908282Y-71134651D01*
X188909640Y-71134198D01*
X188912712Y-71134809D01*
X188984140Y-71134809D01*
X188987209Y-71134198D01*
X188988570Y-71134652D01*
X188998236Y-71132004D01*
X189008058Y-71130051D01*
X189009071Y-71129037D01*
X189012090Y-71128211D01*
X189023904Y-71122304D01*
X189031651Y-71130051D01*
X189079487Y-71130051D01*
X189113311Y-71096227D01*
X189118069Y-71072309D01*
X189118069Y-70738976D01*
X189113311Y-70715058D01*
X189079487Y-70681234D01*
X189031651Y-70681234D01*
X188997827Y-70715058D01*
X188993069Y-70738976D01*
X188993069Y-70997967D01*
X188969386Y-71009809D01*
X188927466Y-71009809D01*
X188911678Y-71001915D01*
X188903783Y-70986125D01*
X188903783Y-70738976D01*
X188899025Y-70715058D01*
X188865201Y-70681234D01*
X188817365Y-70681234D01*
X188783541Y-70715058D01*
X188778783Y-70738976D01*
X188716283Y-70738976D01*
X188716283Y-70572309D01*
X189231164Y-70572309D01*
X189231164Y-71072309D01*
X189235922Y-71096227D01*
X189269746Y-71130051D01*
X189293664Y-71134809D01*
X189531759Y-71134809D01*
X189555677Y-71130051D01*
X189589501Y-71096227D01*
X189589501Y-71048391D01*
X189555677Y-71014567D01*
X189531759Y-71009809D01*
X189356164Y-71009809D01*
X189356164Y-70572309D01*
X189635926Y-70572309D01*
X189635926Y-71072309D01*
X189640684Y-71096227D01*
X189674508Y-71130051D01*
X189698426Y-71134809D01*
X189936521Y-71134809D01*
X189960439Y-71130051D01*
X189994263Y-71096227D01*
X189994263Y-71048391D01*
X189960439Y-71014567D01*
X189936521Y-71009809D01*
X189760926Y-71009809D01*
X189760926Y-70872904D01*
X189865093Y-70872904D01*
X189889011Y-70868146D01*
X189922835Y-70834322D01*
X189922835Y-70786486D01*
X189889011Y-70752662D01*
X189865093Y-70747904D01*
X189760926Y-70747904D01*
X189760926Y-70634809D01*
X189936521Y-70634809D01*
X189960439Y-70630051D01*
X189994263Y-70596227D01*
X189994263Y-70572309D01*
X190088307Y-70572309D01*
X190088307Y-71072309D01*
X190093065Y-71096227D01*
X190126889Y-71130051D01*
X190150807Y-71134809D01*
X190269855Y-71134809D01*
X190279680Y-71132854D01*
X190289619Y-71131602D01*
X190361047Y-71107793D01*
X190363767Y-71106242D01*
X190365201Y-71106242D01*
X190373534Y-71100673D01*
X190382233Y-71095715D01*
X190382873Y-71094434D01*
X190385478Y-71092694D01*
X190433097Y-71045074D01*
X190438666Y-71036737D01*
X190444803Y-71028831D01*
X190468614Y-70981212D01*
X190470422Y-70974607D01*
X190473346Y-70968419D01*
X190497155Y-70873181D01*
X190497527Y-70865532D01*
X190499021Y-70858023D01*
X190499021Y-70786595D01*
X190497527Y-70779085D01*
X190497155Y-70771437D01*
X190473346Y-70676199D01*
X190470422Y-70670010D01*
X190468614Y-70663406D01*
X190444803Y-70615787D01*
X190438662Y-70607875D01*
X190433096Y-70599544D01*
X190385477Y-70551925D01*
X190382875Y-70550186D01*
X190382234Y-70548904D01*
X190373522Y-70543937D01*
X190365200Y-70538377D01*
X190363769Y-70538377D01*
X190361048Y-70536826D01*
X190289620Y-70513016D01*
X190279678Y-70511763D01*
X190269855Y-70509809D01*
X190150807Y-70509809D01*
X190126889Y-70514567D01*
X190093065Y-70548391D01*
X190088307Y-70572309D01*
X189994263Y-70572309D01*
X189994263Y-70548391D01*
X189960439Y-70514567D01*
X189936521Y-70509809D01*
X189698426Y-70509809D01*
X189674508Y-70514567D01*
X189640684Y-70548391D01*
X189635926Y-70572309D01*
X189356164Y-70572309D01*
X189351406Y-70548391D01*
X189317582Y-70514567D01*
X189269746Y-70514567D01*
X189235922Y-70548391D01*
X189231164Y-70572309D01*
X188716283Y-70572309D01*
X188716283Y-70447309D01*
X190561521Y-70447309D01*
X190561521Y-71197309D01*
G37*
D12*
G36*
X175654830Y-72483051D02*
G01*
X175691835Y-72520056D01*
X175736542Y-72609469D01*
X175736542Y-72995489D01*
X175250828Y-72995489D01*
X175250828Y-72609470D01*
X175295535Y-72520055D01*
X175332539Y-72483051D01*
X175421952Y-72438346D01*
X175565418Y-72438346D01*
X175654830Y-72483051D01*
G37*
G36*
X176917495Y-73462156D02*
G01*
X174784161Y-73462156D01*
X174784161Y-72574060D01*
X174950828Y-72574060D01*
X174950828Y-73145489D01*
X174953710Y-73174753D01*
X174976108Y-73228825D01*
X175017492Y-73270209D01*
X175071564Y-73292607D01*
X175100828Y-73295489D01*
X176600828Y-73295489D01*
X176630092Y-73292607D01*
X176684164Y-73270209D01*
X176725548Y-73228825D01*
X176747946Y-73174753D01*
X176747946Y-73116225D01*
X176725548Y-73062153D01*
X176684164Y-73020769D01*
X176630092Y-72998371D01*
X176600828Y-72995489D01*
X176036542Y-72995489D01*
X176036542Y-72574060D01*
X176033660Y-72544796D01*
X176031597Y-72539817D01*
X176031216Y-72534442D01*
X176020706Y-72506979D01*
X175949278Y-72364121D01*
X175941351Y-72351529D01*
X175939835Y-72347868D01*
X175936451Y-72343745D01*
X175933613Y-72339236D01*
X175930621Y-72336641D01*
X175921180Y-72325137D01*
X175849751Y-72253708D01*
X175838249Y-72244268D01*
X175835653Y-72241275D01*
X175831139Y-72238434D01*
X175827020Y-72235053D01*
X175823360Y-72233537D01*
X175810767Y-72225610D01*
X175667910Y-72154182D01*
X175640446Y-72143672D01*
X175635070Y-72143290D01*
X175630092Y-72141228D01*
X175600828Y-72138346D01*
X175386542Y-72138346D01*
X175357278Y-72141228D01*
X175352299Y-72143290D01*
X175346924Y-72143672D01*
X175319461Y-72154182D01*
X175176603Y-72225610D01*
X175164008Y-72233538D01*
X175160349Y-72235054D01*
X175156228Y-72238435D01*
X175151718Y-72241275D01*
X175149123Y-72244266D01*
X175137618Y-72253709D01*
X175066190Y-72325138D01*
X175056752Y-72336637D01*
X175053758Y-72339235D01*
X175050915Y-72343751D01*
X175047536Y-72347869D01*
X175046021Y-72351525D01*
X175038093Y-72364121D01*
X174966664Y-72506978D01*
X174956155Y-72534441D01*
X174955773Y-72539815D01*
X174953710Y-72544796D01*
X174950828Y-72574060D01*
X174784161Y-72574060D01*
X174784161Y-70668264D01*
X174952567Y-70668264D01*
X174953710Y-70671407D01*
X174953710Y-70674753D01*
X174963671Y-70698801D01*
X174972568Y-70723267D01*
X174974827Y-70725734D01*
X174976108Y-70728825D01*
X174994505Y-70747222D01*
X175012095Y-70766430D01*
X175016063Y-70768780D01*
X175017492Y-70770209D01*
X175020760Y-70771562D01*
X175037395Y-70781416D01*
X175817550Y-71145489D01*
X175037395Y-71509562D01*
X175020760Y-71519415D01*
X175017492Y-71520769D01*
X175016063Y-71522197D01*
X175012095Y-71524548D01*
X174994505Y-71543755D01*
X174976108Y-71562153D01*
X174974827Y-71565243D01*
X174972568Y-71567711D01*
X174963671Y-71592176D01*
X174953710Y-71616225D01*
X174953710Y-71619570D01*
X174952567Y-71622714D01*
X174953710Y-71648718D01*
X174953710Y-71674753D01*
X174954990Y-71677843D01*
X174955137Y-71681184D01*
X174966147Y-71704779D01*
X174976108Y-71728825D01*
X174978471Y-71731188D01*
X174979887Y-71734222D01*
X174999094Y-71751811D01*
X175017492Y-71770209D01*
X175020582Y-71771489D01*
X175023050Y-71773749D01*
X175047515Y-71782645D01*
X175071564Y-71792607D01*
X175076152Y-71793058D01*
X175078053Y-71793750D01*
X175081591Y-71793594D01*
X175100828Y-71795489D01*
X176600828Y-71795489D01*
X176630092Y-71792607D01*
X176684164Y-71770209D01*
X176725548Y-71728825D01*
X176747946Y-71674753D01*
X176747946Y-71616225D01*
X176725548Y-71562153D01*
X176684164Y-71520769D01*
X176630092Y-71498371D01*
X176600828Y-71495489D01*
X175776962Y-71495489D01*
X176235690Y-71281416D01*
X176246403Y-71275069D01*
X176250035Y-71273749D01*
X176252603Y-71271397D01*
X176260990Y-71266429D01*
X176276380Y-71249623D01*
X176293198Y-71234222D01*
X176296018Y-71228178D01*
X176300517Y-71223266D01*
X176308303Y-71201854D01*
X176317949Y-71181185D01*
X176318241Y-71174523D01*
X176320518Y-71168264D01*
X176319517Y-71145489D01*
X176320518Y-71122714D01*
X176318241Y-71116454D01*
X176317949Y-71109793D01*
X176308303Y-71089123D01*
X176300517Y-71067712D01*
X176296018Y-71062799D01*
X176293198Y-71056756D01*
X176276380Y-71041354D01*
X176260990Y-71024549D01*
X176252603Y-71019580D01*
X176250035Y-71017229D01*
X176246403Y-71015908D01*
X176235690Y-71009562D01*
X175776962Y-70795489D01*
X176600828Y-70795489D01*
X176630092Y-70792607D01*
X176684164Y-70770209D01*
X176725548Y-70728825D01*
X176747946Y-70674753D01*
X176747946Y-70616225D01*
X176725548Y-70562153D01*
X176684164Y-70520769D01*
X176630092Y-70498371D01*
X176600828Y-70495489D01*
X175100828Y-70495489D01*
X175081591Y-70497383D01*
X175078053Y-70497228D01*
X175076152Y-70497919D01*
X175071564Y-70498371D01*
X175047515Y-70508332D01*
X175023050Y-70517229D01*
X175020582Y-70519488D01*
X175017492Y-70520769D01*
X174999094Y-70539166D01*
X174979887Y-70556756D01*
X174978471Y-70559789D01*
X174976108Y-70562153D01*
X174966147Y-70586198D01*
X174955137Y-70609794D01*
X174954990Y-70613134D01*
X174953710Y-70616225D01*
X174953710Y-70642259D01*
X174952567Y-70668264D01*
X174784161Y-70668264D01*
X174784161Y-69901939D01*
X174953710Y-69901939D01*
X174953710Y-69960467D01*
X174976108Y-70014539D01*
X175017492Y-70055923D01*
X175071564Y-70078321D01*
X175100828Y-70081203D01*
X176600828Y-70081203D01*
X176630092Y-70078321D01*
X176684164Y-70055923D01*
X176725548Y-70014539D01*
X176747946Y-69960467D01*
X176747946Y-69901939D01*
X176725548Y-69847867D01*
X176684164Y-69806483D01*
X176630092Y-69784085D01*
X176600828Y-69781203D01*
X175100828Y-69781203D01*
X175071564Y-69784085D01*
X175017492Y-69806483D01*
X174976108Y-69847867D01*
X174953710Y-69901939D01*
X174784161Y-69901939D01*
X174784161Y-68645488D01*
X174950828Y-68645488D01*
X174950828Y-68788345D01*
X174952286Y-68803156D01*
X174952006Y-68807106D01*
X174953187Y-68812300D01*
X174953710Y-68817609D01*
X174955227Y-68821271D01*
X174958526Y-68835779D01*
X175029954Y-69050065D01*
X175041943Y-69076916D01*
X175045473Y-69080986D01*
X175047536Y-69085966D01*
X175066191Y-69108697D01*
X175209048Y-69251554D01*
X175220550Y-69260994D01*
X175223146Y-69263987D01*
X175227655Y-69266825D01*
X175231778Y-69270209D01*
X175235440Y-69271725D01*
X175248032Y-69279652D01*
X175390888Y-69351081D01*
X175393030Y-69351900D01*
X175393900Y-69352545D01*
X175406171Y-69356929D01*
X175418352Y-69361590D01*
X175419432Y-69361666D01*
X175421591Y-69362438D01*
X175707305Y-69433866D01*
X175712376Y-69434615D01*
X175714421Y-69435463D01*
X175725443Y-69436548D01*
X175736394Y-69438168D01*
X175738581Y-69437842D01*
X175743685Y-69438345D01*
X175957971Y-69438345D01*
X175963074Y-69437842D01*
X175965262Y-69438168D01*
X175976212Y-69436548D01*
X175987235Y-69435463D01*
X175989279Y-69434615D01*
X175994351Y-69433866D01*
X176280065Y-69362438D01*
X176282223Y-69361666D01*
X176283304Y-69361590D01*
X176295478Y-69356931D01*
X176307756Y-69352545D01*
X176308626Y-69351900D01*
X176310767Y-69351081D01*
X176453624Y-69279652D01*
X176466217Y-69271724D01*
X176469877Y-69270209D01*
X176473996Y-69266827D01*
X176478510Y-69263987D01*
X176481106Y-69260993D01*
X176492608Y-69251554D01*
X176635466Y-69108697D01*
X176654121Y-69085967D01*
X176656183Y-69080987D01*
X176659715Y-69076916D01*
X176671703Y-69050065D01*
X176743131Y-68835779D01*
X176746430Y-68821266D01*
X176747946Y-68817609D01*
X176748468Y-68812306D01*
X176749651Y-68807105D01*
X176749369Y-68803150D01*
X176750828Y-68788345D01*
X176750828Y-68645488D01*
X176749369Y-68630682D01*
X176749651Y-68626728D01*
X176748468Y-68621526D01*
X176747946Y-68616224D01*
X176746430Y-68612566D01*
X176743131Y-68598054D01*
X176671703Y-68383768D01*
X176659715Y-68356917D01*
X176656181Y-68352842D01*
X176654120Y-68347866D01*
X176635465Y-68325135D01*
X176564036Y-68253707D01*
X176541305Y-68235053D01*
X176487233Y-68212656D01*
X176428707Y-68212656D01*
X176374635Y-68235054D01*
X176333250Y-68276440D01*
X176310853Y-68330512D01*
X176310853Y-68389038D01*
X176333251Y-68443110D01*
X176351906Y-68465841D01*
X176398294Y-68512228D01*
X176450828Y-68669830D01*
X176450828Y-68764002D01*
X176398294Y-68921604D01*
X176297688Y-69022209D01*
X176191328Y-69075390D01*
X175939507Y-69138345D01*
X175762149Y-69138345D01*
X175510327Y-69075389D01*
X175403968Y-69022210D01*
X175303361Y-68921603D01*
X175250828Y-68764004D01*
X175250828Y-68669828D01*
X175303361Y-68512229D01*
X175349751Y-68465840D01*
X175368406Y-68443110D01*
X175390802Y-68389037D01*
X175390802Y-68330511D01*
X175368406Y-68276439D01*
X175327020Y-68235053D01*
X175272948Y-68212657D01*
X175214422Y-68212657D01*
X175160349Y-68235053D01*
X175137619Y-68253708D01*
X175066191Y-68325136D01*
X175047536Y-68347867D01*
X175045473Y-68352846D01*
X175041943Y-68356917D01*
X175029954Y-68383768D01*
X174958526Y-68598054D01*
X174955227Y-68612561D01*
X174953710Y-68616224D01*
X174953187Y-68621532D01*
X174952006Y-68626727D01*
X174952286Y-68630676D01*
X174950828Y-68645488D01*
X174784161Y-68645488D01*
X174784161Y-68045989D01*
X176917495Y-68045989D01*
X176917495Y-73462156D01*
G37*
D11*
X194496521Y-60069214D02*
X194496521Y-60307309D01*
X194329855Y-59807309D02*
X194496521Y-60069214D01*
X194496521Y-60069214D02*
X194663188Y-59807309D01*
G36*
X175802357Y-54827485D02*
G01*
X175811822Y-54836950D01*
X175824497Y-54862300D01*
X175824497Y-54904222D01*
X175811822Y-54929572D01*
X175802357Y-54939037D01*
X175777005Y-54951714D01*
X175663783Y-54951714D01*
X175663783Y-54814809D01*
X175777005Y-54814809D01*
X175802357Y-54827485D01*
G37*
G36*
X177816763Y-55377309D02*
G01*
X175476283Y-55377309D01*
X175476283Y-54752309D01*
X175538783Y-54752309D01*
X175538783Y-55252309D01*
X175543541Y-55276227D01*
X175577365Y-55310051D01*
X175625201Y-55310051D01*
X175659025Y-55276227D01*
X175663783Y-55252309D01*
X175663783Y-55076714D01*
X175687790Y-55076714D01*
X175835795Y-55288151D01*
X175853409Y-55305016D01*
X175900516Y-55313329D01*
X175939704Y-55285897D01*
X175948017Y-55238791D01*
X175938199Y-55216468D01*
X175831593Y-55064173D01*
X175867329Y-55046305D01*
X175875237Y-55040166D01*
X175883571Y-55034599D01*
X175907381Y-55010790D01*
X175912945Y-55002462D01*
X175919090Y-54994545D01*
X175942899Y-54946927D01*
X175943725Y-54943907D01*
X175944739Y-54942894D01*
X175946693Y-54933066D01*
X175949339Y-54923406D01*
X175948886Y-54922047D01*
X175949497Y-54918976D01*
X175949497Y-54847547D01*
X175948886Y-54844475D01*
X175949339Y-54843117D01*
X175946693Y-54833456D01*
X175944739Y-54823629D01*
X175943725Y-54822615D01*
X175942899Y-54819596D01*
X175919090Y-54771978D01*
X175912945Y-54764060D01*
X175907381Y-54755733D01*
X175903957Y-54752309D01*
X176038783Y-54752309D01*
X176038783Y-55252309D01*
X176043541Y-55276227D01*
X176077365Y-55310051D01*
X176101283Y-55314809D01*
X176339378Y-55314809D01*
X176363296Y-55310051D01*
X176397120Y-55276227D01*
X176397120Y-55228391D01*
X176363296Y-55194567D01*
X176339378Y-55189809D01*
X176163783Y-55189809D01*
X176163783Y-55052904D01*
X176267950Y-55052904D01*
X176291868Y-55048146D01*
X176325692Y-55014322D01*
X176325692Y-54966486D01*
X176291868Y-54932662D01*
X176267950Y-54927904D01*
X176163783Y-54927904D01*
X176163783Y-54847547D01*
X176467355Y-54847547D01*
X176467355Y-54895166D01*
X176467965Y-54898235D01*
X176467512Y-54899596D01*
X176470159Y-54909262D01*
X176472113Y-54919084D01*
X176473126Y-54920097D01*
X176473953Y-54923116D01*
X176497762Y-54970735D01*
X176503905Y-54978650D01*
X176509470Y-54986979D01*
X176533280Y-55010789D01*
X176541606Y-55016352D01*
X176549524Y-55022497D01*
X176597142Y-55046306D01*
X176603743Y-55048113D01*
X176609934Y-55051038D01*
X176698517Y-55073184D01*
X176730928Y-55089389D01*
X176740393Y-55098855D01*
X176753069Y-55124205D01*
X176753069Y-55142317D01*
X176740393Y-55167667D01*
X176730928Y-55177133D01*
X176705577Y-55189809D01*
X176611426Y-55189809D01*
X176549619Y-55169207D01*
X176525424Y-55166158D01*
X176482639Y-55187550D01*
X176467513Y-55232931D01*
X176488905Y-55275716D01*
X176510091Y-55287793D01*
X176581519Y-55311602D01*
X176591462Y-55312855D01*
X176601283Y-55314809D01*
X176720331Y-55314809D01*
X176723400Y-55314198D01*
X176724761Y-55314652D01*
X176734427Y-55312004D01*
X176744249Y-55310051D01*
X176745262Y-55309037D01*
X176748281Y-55308211D01*
X176795900Y-55284402D01*
X176803814Y-55278259D01*
X176812145Y-55272693D01*
X176835954Y-55248883D01*
X176841521Y-55240549D01*
X176847660Y-55232641D01*
X176871471Y-55185022D01*
X176872297Y-55182002D01*
X176873311Y-55180989D01*
X176875265Y-55171163D01*
X176877911Y-55161502D01*
X176877457Y-55160142D01*
X176878069Y-55157071D01*
X176878069Y-55109452D01*
X176877457Y-55106380D01*
X176877911Y-55105021D01*
X176875265Y-55095359D01*
X176873311Y-55085534D01*
X176872297Y-55084520D01*
X176871471Y-55081501D01*
X176847660Y-55033882D01*
X176841521Y-55025973D01*
X176835954Y-55017640D01*
X176812145Y-54993830D01*
X176803814Y-54988263D01*
X176795900Y-54982121D01*
X176748281Y-54958312D01*
X176741679Y-54956504D01*
X176735490Y-54953580D01*
X176646905Y-54931433D01*
X176614495Y-54915228D01*
X176605031Y-54905764D01*
X176592355Y-54880412D01*
X176592355Y-54862301D01*
X176605030Y-54836949D01*
X176614496Y-54827484D01*
X176639846Y-54814809D01*
X176733997Y-54814809D01*
X176795805Y-54835412D01*
X176820000Y-54838461D01*
X176862784Y-54817069D01*
X176877912Y-54771688D01*
X176868222Y-54752309D01*
X176967354Y-54752309D01*
X176967354Y-55252309D01*
X176972112Y-55276227D01*
X177005936Y-55310051D01*
X177029854Y-55314809D01*
X177267949Y-55314809D01*
X177291867Y-55310051D01*
X177325691Y-55276227D01*
X177325691Y-55228391D01*
X177291867Y-55194567D01*
X177267949Y-55189809D01*
X177092354Y-55189809D01*
X177092354Y-55052904D01*
X177196521Y-55052904D01*
X177220439Y-55048146D01*
X177254263Y-55014322D01*
X177254263Y-54966486D01*
X177220439Y-54932662D01*
X177196521Y-54927904D01*
X177092354Y-54927904D01*
X177092354Y-54814809D01*
X177267949Y-54814809D01*
X177291867Y-54810051D01*
X177325691Y-54776227D01*
X177325691Y-54728391D01*
X177353065Y-54728391D01*
X177353065Y-54776227D01*
X177386889Y-54810051D01*
X177410807Y-54814809D01*
X177491164Y-54814809D01*
X177491164Y-55252309D01*
X177495922Y-55276227D01*
X177529746Y-55310051D01*
X177577582Y-55310051D01*
X177611406Y-55276227D01*
X177616164Y-55252309D01*
X177616164Y-54814809D01*
X177696521Y-54814809D01*
X177720439Y-54810051D01*
X177754263Y-54776227D01*
X177754263Y-54728391D01*
X177720439Y-54694567D01*
X177696521Y-54689809D01*
X177410807Y-54689809D01*
X177386889Y-54694567D01*
X177353065Y-54728391D01*
X177325691Y-54728391D01*
X177291867Y-54694567D01*
X177267949Y-54689809D01*
X177029854Y-54689809D01*
X177005936Y-54694567D01*
X176972112Y-54728391D01*
X176967354Y-54752309D01*
X176868222Y-54752309D01*
X176856520Y-54728904D01*
X176835334Y-54716826D01*
X176763904Y-54693016D01*
X176753965Y-54691763D01*
X176744140Y-54689809D01*
X176625093Y-54689809D01*
X176622021Y-54690420D01*
X176620662Y-54689967D01*
X176611000Y-54692612D01*
X176601175Y-54694567D01*
X176600161Y-54695580D01*
X176597142Y-54696407D01*
X176549523Y-54720218D01*
X176541614Y-54726356D01*
X176533281Y-54731924D01*
X176509471Y-54755733D01*
X176503904Y-54764063D01*
X176497762Y-54771978D01*
X176473953Y-54819597D01*
X176473126Y-54822615D01*
X176472113Y-54823629D01*
X176470159Y-54833450D01*
X176467512Y-54843117D01*
X176467965Y-54844477D01*
X176467355Y-54847547D01*
X176163783Y-54847547D01*
X176163783Y-54814809D01*
X176339378Y-54814809D01*
X176363296Y-54810051D01*
X176397120Y-54776227D01*
X176397120Y-54728391D01*
X176363296Y-54694567D01*
X176339378Y-54689809D01*
X176101283Y-54689809D01*
X176077365Y-54694567D01*
X176043541Y-54728391D01*
X176038783Y-54752309D01*
X175903957Y-54752309D01*
X175883571Y-54731924D01*
X175875237Y-54726356D01*
X175867329Y-54720218D01*
X175819710Y-54696408D01*
X175816691Y-54695581D01*
X175815677Y-54694567D01*
X175805846Y-54692611D01*
X175796190Y-54689967D01*
X175794830Y-54690420D01*
X175791759Y-54689809D01*
X175601283Y-54689809D01*
X175577365Y-54694567D01*
X175543541Y-54728391D01*
X175538783Y-54752309D01*
X175476283Y-54752309D01*
X175476283Y-54627309D01*
X177816763Y-54627309D01*
X177816763Y-55377309D01*
G37*
X193370332Y-60015166D02*
X194132237Y-60015166D01*
X193941760Y-60205642D02*
X194132237Y-60015166D01*
X194132237Y-60015166D02*
X193941760Y-59824690D01*
D13*
X173650326Y-55643019D02*
X173602707Y-55595400D01*
X173602707Y-55595400D02*
X173650326Y-55547780D01*
X173650326Y-55547780D02*
X173697945Y-55595400D01*
X173697945Y-55595400D02*
X173650326Y-55643019D01*
X173650326Y-55643019D02*
X173650326Y-55547780D01*
X192222972Y-60308973D02*
X192175353Y-60356592D01*
X192175353Y-60356592D02*
X192127733Y-60308973D01*
X192127733Y-60308973D02*
X192175353Y-60261354D01*
X192175353Y-60261354D02*
X192222972Y-60308973D01*
X192222972Y-60308973D02*
X192127733Y-60308973D01*
X190298879Y-58490327D02*
X190346499Y-58442708D01*
X190346499Y-58442708D02*
X190394118Y-58490327D01*
X190394118Y-58490327D02*
X190346499Y-58537946D01*
X190346499Y-58537946D02*
X190298879Y-58490327D01*
X190298879Y-58490327D02*
X190394118Y-58490327D01*
D10*
X172165581Y-69390000D02*
X171884419Y-69390001D01*
X172165581Y-70409999D02*
X171884419Y-70410000D01*
X171362742Y-51227500D02*
X171837258Y-51227500D01*
X171362742Y-52272500D02*
X171837258Y-52272500D01*
X186220000Y-72169419D02*
X186220001Y-72450581D01*
X187239999Y-72169419D02*
X187240000Y-72450581D01*
X174409419Y-51240001D02*
X174690581Y-51240000D01*
X174409419Y-52260000D02*
X174690581Y-52259999D01*
D14*
X177511099Y-67916800D02*
X177511100Y-68335960D01*
X177511099Y-73174600D02*
X177930259Y-73174599D01*
X177511100Y-72755438D02*
X177511099Y-73174600D01*
X177930261Y-67916801D02*
X177511099Y-67916800D01*
X182349737Y-73174599D02*
X182768899Y-73174600D01*
X182768898Y-68335962D02*
X182768899Y-67916800D01*
X182768899Y-67916800D02*
X182349739Y-67916801D01*
X182768899Y-73174600D02*
X182768898Y-72755440D01*
D15*
G36*
X177079299Y-71486200D02*
G01*
X176825299Y-71486201D01*
X176825299Y-71105201D01*
X177079299Y-71105201D01*
X177079299Y-71486200D01*
G37*
G36*
X180580499Y-67485000D02*
G01*
X180199498Y-67485000D01*
X180199498Y-67231000D01*
X180580499Y-67231000D01*
X180580499Y-67485000D01*
G37*
G36*
X183454699Y-71986200D02*
G01*
X183200699Y-71986200D01*
X183200699Y-71605200D01*
X183454700Y-71605199D01*
X183454699Y-71986200D01*
G37*
D10*
X182092779Y-74430001D02*
X181767221Y-74430001D01*
X182092779Y-75449999D02*
X181767221Y-75449999D01*
D14*
X169975900Y-56353800D02*
X174624099Y-56353803D01*
X169975901Y-54138338D02*
X169975902Y-54911658D01*
X174624099Y-54911662D02*
X174624098Y-54138342D01*
X174624100Y-52696200D02*
X169975901Y-52696197D01*
D10*
X184720000Y-72149419D02*
X184720001Y-72430581D01*
X185739999Y-72149419D02*
X185740000Y-72430581D01*
X191287742Y-65877500D02*
X191762258Y-65877500D01*
X191287742Y-66922500D02*
X191762258Y-66922500D01*
X191287742Y-64552500D02*
X191762258Y-64552500D01*
X191287742Y-65597500D02*
X191762258Y-65597500D01*
D16*
X179375004Y-50674999D02*
X189775002Y-50674998D01*
X179375004Y-64975000D02*
X179375004Y-50674999D01*
X189775002Y-50674998D02*
X189775004Y-64974998D01*
X189775004Y-64974998D02*
X179375004Y-64975000D01*
D13*
X189165012Y-65525000D02*
G75*
G02*
X188964996Y-65525000I-100008J0D01*
G01*
X188964996Y-65525000D02*
G75*
G02*
X189165012Y-65525000I100008J0D01*
G01*
D10*
X171234997Y-72139999D02*
X173519999Y-72139998D01*
X173519998Y-70669998D02*
X171235000Y-70669997D01*
X173519999Y-72139998D02*
X173519998Y-70669998D01*
X179060581Y-74420000D02*
X178779419Y-74420001D01*
X179060581Y-75439999D02*
X178779419Y-75440000D01*
X190487258Y-67702500D02*
X190012742Y-67702500D01*
X190487258Y-68747500D02*
X190012742Y-68747500D01*
X182159419Y-65590001D02*
X182440581Y-65590000D01*
X182159419Y-66610000D02*
X182440581Y-66609999D01*
X184452500Y-69177260D02*
X184452500Y-68702744D01*
X185497500Y-69177260D02*
X185497500Y-68702744D01*
X188765001Y-68915000D02*
X188765002Y-70385000D01*
X188765002Y-70385000D02*
X191050000Y-70385001D01*
X191050003Y-68914999D02*
X188765001Y-68915000D01*
D16*
X166437500Y-57220750D02*
X167037501Y-57220752D01*
X166437501Y-66160747D02*
X167037500Y-66160752D01*
X171337499Y-66160751D02*
X170037499Y-66160748D01*
X171337502Y-57220748D02*
X170037500Y-57220748D01*
D13*
X174337501Y-58490748D02*
G75*
G02*
X174137497Y-58490748I-100002J0D01*
G01*
X174137497Y-58490748D02*
G75*
G02*
X174337501Y-58490748I100002J0D01*
G01*
D14*
X190797851Y-60972200D02*
X190797851Y-62826400D01*
X192652051Y-62826400D02*
X192652051Y-60972200D01*
D10*
X172165579Y-68014999D02*
X171884417Y-68015000D01*
X172165579Y-69034998D02*
X171884417Y-69034999D01*
D15*
G36*
X191277399Y-56494300D02*
G01*
X190896400Y-56494301D01*
X190896400Y-56240300D01*
X191277399Y-56240300D01*
X191277399Y-56494300D01*
G37*
D10*
X176840000Y-59890000D02*
X176040000Y-59890000D01*
X176840000Y-59890000D02*
X177640000Y-59890000D01*
X176840000Y-63010000D02*
X176040000Y-63010000D01*
X176840000Y-63010000D02*
X177640000Y-63010000D01*
X175539999Y-59940004D02*
X175300000Y-59610000D01*
X175780001Y-59610000D01*
X175539999Y-59940004D01*
G36*
X175539999Y-59940004D02*
G01*
X175300000Y-59610000D01*
X175780001Y-59610000D01*
X175539999Y-59940004D01*
G37*
%LPC*%
D17*
X172800001Y-69900000D03*
X171249999Y-69900000D03*
D18*
X170775000Y-51750000D03*
X172425000Y-51750000D03*
D19*
X186730000Y-71534999D03*
X186730000Y-73085001D03*
D20*
X173774999Y-51750000D03*
X175325001Y-51750000D03*
D21*
X178390000Y-72971400D03*
X178890000Y-72971404D03*
X179389998Y-72971399D03*
X179889999Y-72971401D03*
X180390002Y-72971399D03*
X180890000Y-72971400D03*
X181389998Y-72971400D03*
X181889998Y-72971400D03*
D22*
X182565699Y-72295699D03*
X182565703Y-71795699D03*
X182565698Y-71295701D03*
X182565700Y-70795700D03*
X182565698Y-70295697D03*
X182565699Y-69795699D03*
X182565699Y-69295701D03*
X182565699Y-68795701D03*
D21*
X181889998Y-68120000D03*
X181389998Y-68119996D03*
X180890000Y-68120001D03*
X180389999Y-68119999D03*
X179889996Y-68120001D03*
X179389998Y-68120000D03*
X178890000Y-68120000D03*
X178390000Y-68120000D03*
D22*
X177714299Y-68795701D03*
X177714295Y-69295701D03*
X177714300Y-69795699D03*
X177714298Y-70295700D03*
X177714300Y-70795703D03*
X177714299Y-71295701D03*
X177714299Y-71795699D03*
X177714299Y-72295699D03*
D23*
X180139999Y-70545700D03*
D24*
X182717502Y-74939999D03*
X181142498Y-74940001D03*
D25*
X174550001Y-55599999D03*
X170049998Y-55599999D03*
X174550002Y-53450001D03*
X170049999Y-53450001D03*
D19*
X185230000Y-71514999D03*
X185230000Y-73065001D03*
D18*
X190700000Y-66400000D03*
X192350000Y-66400000D03*
X190700000Y-65075000D03*
X192350000Y-65075000D03*
D26*
X188975006Y-64224999D03*
X187875005Y-64225000D03*
X186775003Y-64224997D03*
X185675004Y-64225000D03*
X184575005Y-64225003D03*
X183475004Y-64225000D03*
X182375002Y-64225001D03*
X181275004Y-64225001D03*
X180175004Y-64224998D03*
X188975004Y-63125000D03*
X187875004Y-63125004D03*
X186775004Y-63125000D03*
X185675004Y-63125002D03*
X184575004Y-63125000D03*
X183475006Y-63125002D03*
X182375004Y-63125000D03*
X181275003Y-63124999D03*
X180175004Y-63125000D03*
X188975003Y-62025001D03*
X187875004Y-62025001D03*
X185675004Y-62025000D03*
X184575000Y-62025000D03*
X183475004Y-62025000D03*
X181275003Y-62025000D03*
X180175000Y-62025000D03*
X188975004Y-60925000D03*
X187875004Y-60925000D03*
X186775004Y-60925000D03*
X182375004Y-60925000D03*
X181275009Y-60924998D03*
X180175004Y-60925000D03*
X188975006Y-59824998D03*
X187875004Y-59825000D03*
X186775004Y-59825001D03*
X185125004Y-59825000D03*
X184025004Y-59825000D03*
X182375004Y-59825000D03*
X181275004Y-59825000D03*
X180175002Y-59825000D03*
X188975004Y-58725000D03*
X187875004Y-58725004D03*
X186775004Y-58725000D03*
X185125002Y-58725001D03*
X184025006Y-58724999D03*
X182375004Y-58725000D03*
X181275004Y-58724996D03*
X180175004Y-58725000D03*
X188975006Y-57625000D03*
X187875004Y-57625000D03*
X186775004Y-57625000D03*
X185125004Y-57625000D03*
X184025004Y-57625000D03*
X182375004Y-57624999D03*
X181275004Y-57625000D03*
X180175002Y-57625002D03*
X188975004Y-56525000D03*
X187874999Y-56525002D03*
X186775004Y-56525000D03*
X182375004Y-56525000D03*
X181275004Y-56525000D03*
X180175004Y-56525000D03*
X188975008Y-55425000D03*
X187875005Y-55425000D03*
X186775004Y-55425000D03*
X185125004Y-55425000D03*
X184025004Y-55425000D03*
X182375006Y-55425005D03*
X181275004Y-55424999D03*
X180175005Y-55424999D03*
X188975004Y-54325000D03*
X187875005Y-54325001D03*
X186775004Y-54325000D03*
X184575004Y-54325000D03*
X182375004Y-54325000D03*
X181275004Y-54324996D03*
X180175004Y-54325000D03*
X188975004Y-52825000D03*
X180175002Y-52824999D03*
X188975004Y-51325000D03*
X187875004Y-51325000D03*
X181275004Y-51325000D03*
X180175004Y-51325000D03*
D24*
X172822499Y-71405000D03*
X171247495Y-71404998D03*
D17*
X179695001Y-74930000D03*
X178144999Y-74930000D03*
D27*
X191075000Y-68225000D03*
X189425000Y-68225000D03*
D20*
X181524999Y-66100000D03*
X183075001Y-66100000D03*
D28*
X184975000Y-69765002D03*
X184975000Y-68115002D03*
D29*
X189462501Y-69649998D03*
X191037505Y-69650000D03*
D30*
X173112500Y-58490747D03*
X173112500Y-59290750D03*
D31*
X173112499Y-60440751D03*
X173112502Y-61440747D03*
X173112500Y-61940747D03*
X173112502Y-62940751D03*
D30*
X173112500Y-64090750D03*
X173112503Y-64890753D03*
D31*
X173112500Y-63440750D03*
X173112498Y-62440752D03*
X173112499Y-60940750D03*
X173112500Y-59940750D03*
D32*
X172537501Y-57370748D03*
D33*
X168537500Y-57370747D03*
D32*
X172537502Y-66010752D03*
D33*
X168537500Y-66010753D03*
D34*
X192125000Y-61149999D03*
X191324900Y-61149997D03*
X191324902Y-62648601D03*
X192125002Y-62648603D03*
D35*
X191724951Y-61899300D03*
D17*
X172799999Y-68524999D03*
X171249997Y-68524999D03*
D36*
X191086899Y-58412000D03*
X191586901Y-58412000D03*
X192086900Y-58412001D03*
X192586900Y-58412000D03*
D37*
X192598900Y-57899999D03*
X192598901Y-57400000D03*
D36*
X192586901Y-56888000D03*
X192086899Y-56888000D03*
X191586900Y-56887999D03*
X191086900Y-56888000D03*
D37*
X191074900Y-57400001D03*
X191074899Y-57900000D03*
D38*
X175702500Y-60500000D03*
X175702500Y-61450000D03*
X175702500Y-62400000D03*
X177977500Y-62400000D03*
X177977500Y-61450000D03*
X177977500Y-60500000D03*
D39*
X177165001Y-58270004D03*
X176149000Y-53190001D03*
X178181002Y-53190001D03*
%LPD*%
M02*
