M48
; DRILL file {KiCad 8.0.6} date 2025-07-21T23:48:50+0200
; FORMAT={-:-/ absolute / metric / decimal}
; #@! TF.CreationDate,2025-07-21T23:48:50+02:00
; #@! TF.GenerationSoftware,Kicad,Pcbnew,8.0.6
; #@! TF.FileFunction,Plated,1,4,PTH
FMAT,2
METRIC
; #@! TA.AperFunction,Plated,PTH,ViaDrill
T1C0.300
; #@! TA.AperFunction,Plated,PTH,ComponentDrill
T2C0.600
%
G90
G05
T1
X136.925Y-122.125
X136.975Y-126.25
X138.425Y-117.725
X138.6Y-120.725
X138.6Y-123.775
X138.6Y-126.95
X139.25Y-129.975
X139.75Y-126.2
X140.075Y-122.25
X140.975Y-114.425
X141.525Y-116.825
X141.7Y-125.575
X141.825Y-122.6
X142.55Y-112.45
X143.225Y-135.4
X144.35Y-136.325
X144.7Y-121.15
X144.825Y-112.475
X144.925Y-116.775
X145.025Y-135.375
X145.175Y-133.825
X145.2Y-130.35
X145.438Y-119.637
X145.75Y-126.875
X146.012Y-123.137
X146.375Y-113.525
X146.5Y-116.0
X146.75Y-129.9
X146.95Y-112.55
X147.25Y-126.85
X147.25Y-131.175
X147.375Y-121.35
X148.025Y-113.125
X148.275Y-120.3
X148.35Y-132.7
X148.575Y-118.875
X148.625Y-117.85
X148.65Y-131.825
X148.725Y-126.8
X148.85Y-133.824
X149.55Y-126.85
X149.6Y-129.2
X149.625Y-135.3
X149.925Y-127.775
X150.812Y-132.662
X150.975Y-136.9
X151.2Y-123.85
X151.45Y-133.575
X151.45Y-134.675
X151.65Y-130.475
X151.75Y-124.325
X151.847Y-123.708
X152.1Y-129.325
X152.275Y-137.4
X152.475Y-136.1
X152.6Y-119.85
X153.4Y-122.35
X153.75Y-128.675
X153.824Y-132.324
X153.925Y-136.925
X153.95Y-126.825
X154.5Y-122.4
X154.575Y-135.225
X155.0Y-134.275
X155.7Y-129.075
X156.025Y-130.3
X157.15Y-129.75
X157.175Y-127.85
X158.325Y-126.625
X158.45Y-132.65
X159.4Y-125.125
X159.85Y-133.85
X160.0Y-122.725
X160.225Y-114.625
X160.275Y-115.825
X160.65Y-119.55
X160.975Y-125.625
X161.4Y-122.2
X161.625Y-131.325
X161.725Y-130.3
X161.775Y-125.675
X162.15Y-119.775
X162.8Y-128.725
X162.925Y-127.25
X163.525Y-120.725
X163.55Y-123.55
X163.575Y-126.35
T2
X139.212Y-119.496G85X138.012Y-119.496
G05
X139.212Y-128.136G85X138.012Y-128.136
G05
X143.012Y-119.496G85X142.212Y-119.496
G05
X143.012Y-128.136G85X142.212Y-128.136
G05
M30
