G04 #@! TF.GenerationSoftware,KiCad,Pcbnew,8.0.6*
G04 #@! TF.CreationDate,2025-07-21T23:48:44+02:00*
G04 #@! TF.ProjectId,nRF5340,6e524635-3334-4302-9e6b-696361645f70,rev?*
G04 #@! TF.SameCoordinates,Original*
G04 #@! TF.FileFunction,Paste,Top*
G04 #@! TF.FilePolarity,Positive*
%FSLAX46Y46*%
G04 Gerber Fmt 4.6, Leading zero omitted, Abs format (unit mm)*
G04 Created by KiCad (PCBNEW 8.0.6) date 2025-07-21 23:48:44*
%MOMM*%
%LPD*%
G01*
G04 APERTURE LIST*
G04 Aperture macros list*
%AMRoundRect*
0 Rectangle with rounded corners*
0 $1 Rounding radius*
0 $2 $3 $4 $5 $6 $7 $8 $9 X,Y pos of 4 corners*
0 Add a 4 corners polygon primitive as box body*
4,1,4,$2,$3,$4,$5,$6,$7,$8,$9,$2,$3,0*
0 Add four circle primitives for the rounded corners*
1,1,$1+$1,$2,$3*
1,1,$1+$1,$4,$5*
1,1,$1+$1,$6,$7*
1,1,$1+$1,$8,$9*
0 Add four rect primitives between the rounded corners*
20,1,$1+$1,$2,$3,$4,$5,0*
20,1,$1+$1,$4,$5,$6,$7,0*
20,1,$1+$1,$6,$7,$8,$9,0*
20,1,$1+$1,$8,$9,$2,$3,0*%
%AMRotRect*
0 Rectangle, with rotation*
0 The origin of the aperture is its center*
0 $1 length*
0 $2 width*
0 $3 Rotation angle, in degrees counterclockwise*
0 Add horizontal line*
21,1,$1,$2,0,0,$3*%
G04 Aperture macros list end*
%ADD10C,0.000000*%
%ADD11RoundRect,0.200000X-0.200000X-0.275000X0.200000X-0.275000X0.200000X0.275000X-0.200000X0.275000X0*%
%ADD12R,0.254000X0.279400*%
%ADD13R,0.279400X0.254000*%
%ADD14RoundRect,0.225000X0.250000X-0.225000X0.250000X0.225000X-0.250000X0.225000X-0.250000X-0.225000X0*%
%ADD15RoundRect,0.225000X-0.225000X-0.250000X0.225000X-0.250000X0.225000X0.250000X-0.225000X0.250000X0*%
%ADD16RoundRect,0.218750X0.218750X0.256250X-0.218750X0.256250X-0.218750X-0.256250X0.218750X-0.256250X0*%
%ADD17R,0.990600X0.711200*%
%ADD18RoundRect,0.200000X0.200000X0.275000X-0.200000X0.275000X-0.200000X-0.275000X0.200000X-0.275000X0*%
%ADD19R,0.600000X0.600000*%
%ADD20RoundRect,0.150000X-0.512500X-0.150000X0.512500X-0.150000X0.512500X0.150000X-0.512500X0.150000X0*%
%ADD21RoundRect,0.225000X-0.250000X0.225000X-0.250000X-0.225000X0.250000X-0.225000X0.250000X0.225000X0*%
%ADD22RotRect,0.990600X0.711200X225.000000*%
%ADD23R,0.254000X0.762000*%
%ADD24R,0.762000X0.254000*%
%ADD25R,2.606800X2.606800*%
%ADD26R,1.150000X0.600000*%
%ADD27R,1.150000X0.300000*%
%ADD28R,0.304800X0.711200*%
%ADD29R,1.092200X0.508000*%
%ADD30RoundRect,0.218750X-0.218750X-0.256250X0.218750X-0.256250X0.218750X0.256250X-0.218750X0.256250X0*%
%ADD31RoundRect,0.225000X0.225000X0.250000X-0.225000X0.250000X-0.225000X-0.250000X0.225000X-0.250000X0*%
G04 APERTURE END LIST*
D10*
G36*
X149790000Y-134874301D02*
G01*
X148596600Y-134877701D01*
X148590000Y-133684301D01*
X149800000Y-133674299D01*
X149790000Y-134874301D01*
G37*
G36*
X149800002Y-133474301D02*
G01*
X148600000Y-133474301D01*
X148596600Y-132270901D01*
X149800000Y-132270901D01*
X149800002Y-133474301D01*
G37*
G36*
X151203400Y-132270901D02*
G01*
X151200000Y-133474300D01*
X150000000Y-133474303D01*
X150000000Y-132264301D01*
X151203400Y-132270901D01*
G37*
G36*
X151200000Y-133684301D02*
G01*
X151203400Y-134877701D01*
X150000001Y-134884301D01*
X149999998Y-133674301D01*
X151200000Y-133684301D01*
G37*
D11*
X160425000Y-128725000D03*
X162075000Y-128725000D03*
D12*
X160649999Y-121762000D03*
X161150001Y-121762000D03*
X161650000Y-121762001D03*
X162150000Y-121762000D03*
D13*
X162162000Y-121249999D03*
X162162001Y-120750000D03*
D12*
X162150001Y-120238000D03*
X161649999Y-120238000D03*
X161150000Y-120237999D03*
X160650000Y-120238000D03*
D13*
X160638000Y-120750001D03*
X160637999Y-121250000D03*
D14*
X146000000Y-135375001D03*
X146000000Y-133824999D03*
D15*
X152224999Y-127825000D03*
X153775001Y-127825000D03*
D16*
X143162502Y-131000001D03*
X141587498Y-130999999D03*
D17*
X143775001Y-117724999D03*
X139274998Y-117724999D03*
X143775002Y-115575001D03*
X139274999Y-115575001D03*
D18*
X145550000Y-113525000D03*
X143900000Y-113525000D03*
D14*
X148725000Y-129150000D03*
X148725000Y-127600000D03*
D19*
X158349999Y-126049999D03*
X157250001Y-126050000D03*
X156150000Y-126049999D03*
X155050000Y-126050000D03*
X153949999Y-126050001D03*
X152850000Y-126050000D03*
X151749999Y-126050001D03*
X150650000Y-126050001D03*
X149549999Y-126050000D03*
X158350000Y-124950000D03*
X157250000Y-124950001D03*
X156150000Y-124950000D03*
X155050000Y-124950001D03*
X153950000Y-124950000D03*
X152849999Y-124950001D03*
X151750000Y-124950000D03*
X150650000Y-124949999D03*
X149550000Y-124950000D03*
X158349999Y-123850000D03*
X157250002Y-123850000D03*
X155050000Y-123850000D03*
X153949999Y-123850001D03*
X152850000Y-123850000D03*
X150650000Y-123850002D03*
X149549999Y-123850000D03*
X158350000Y-122750000D03*
X157250000Y-122750000D03*
X156150000Y-122750000D03*
X151750000Y-122750000D03*
X150650001Y-122750000D03*
X149550000Y-122750000D03*
X158350001Y-121650001D03*
X157250000Y-121650000D03*
X156150000Y-121650001D03*
X154500000Y-121650000D03*
X153400000Y-121650000D03*
X151750000Y-121650000D03*
X150650000Y-121650000D03*
X149549999Y-121650000D03*
X158350000Y-120550000D03*
X157250001Y-120550001D03*
X156150000Y-120550000D03*
X154499999Y-120550001D03*
X153400001Y-120549999D03*
X151750000Y-120550000D03*
X150649999Y-120549999D03*
X149550000Y-120550000D03*
X158350001Y-119450000D03*
X157250000Y-119450000D03*
X156150000Y-119450000D03*
X154500000Y-119450000D03*
X153400000Y-119450000D03*
X151750000Y-119449999D03*
X150650000Y-119450000D03*
X149549999Y-119449999D03*
X158350000Y-118350000D03*
X157249999Y-118350000D03*
X156150000Y-118350000D03*
X151750000Y-118350000D03*
X150650000Y-118350000D03*
X149550000Y-118350000D03*
X158350001Y-117250000D03*
X157250000Y-117249998D03*
X156150000Y-117250000D03*
X154500000Y-117250000D03*
X153400000Y-117250000D03*
X151750000Y-117250001D03*
X150649998Y-117250000D03*
X149550001Y-117250000D03*
X158350000Y-116150000D03*
X157250000Y-116150001D03*
X156150000Y-116150000D03*
X153950000Y-116150000D03*
X151750000Y-116150000D03*
X150650000Y-116149999D03*
X149550000Y-116150000D03*
X158350000Y-114650000D03*
X149549999Y-114650000D03*
X158350000Y-113150000D03*
X157250000Y-113150000D03*
X150650000Y-113150000D03*
X149550000Y-113150000D03*
D14*
X147250000Y-129150000D03*
X147250000Y-127600000D03*
D20*
X145137500Y-122525000D03*
X145137500Y-123475000D03*
X145137500Y-124425000D03*
X147412500Y-124425000D03*
X147412500Y-123475000D03*
X147412500Y-122525000D03*
D18*
X161875000Y-118350000D03*
X160225000Y-118350000D03*
D21*
X153925000Y-134575000D03*
X153925000Y-136125000D03*
D16*
X150137502Y-137625001D03*
X148562498Y-137624999D03*
D22*
X160974540Y-131969148D03*
X157792557Y-135151131D03*
X159454261Y-130448869D03*
X156272278Y-133630852D03*
D16*
X143137503Y-134288201D03*
X141562499Y-134288199D03*
D14*
X150750000Y-129325000D03*
X150750000Y-127775000D03*
D23*
X148150001Y-136000001D03*
X148650000Y-136000002D03*
X149149999Y-136000000D03*
X149650000Y-136000002D03*
X150150001Y-136000001D03*
X150650001Y-136000001D03*
X151150000Y-136000000D03*
X151649999Y-136000001D03*
D24*
X152325700Y-135324300D03*
X152325701Y-134824301D03*
X152325699Y-134324302D03*
X152325701Y-133824301D03*
X152325700Y-133324300D03*
X152325700Y-132824300D03*
X152325699Y-132324301D03*
X152325700Y-131824302D03*
D23*
X151649999Y-131148601D03*
X151150000Y-131148600D03*
X150650001Y-131148602D03*
X150150000Y-131148600D03*
X149649999Y-131148601D03*
X149149999Y-131148601D03*
X148650000Y-131148602D03*
X148150001Y-131148601D03*
D24*
X147474300Y-131824302D03*
X147474299Y-132324301D03*
X147474301Y-132824300D03*
X147474299Y-133324301D03*
X147474300Y-133824302D03*
X147474300Y-134324302D03*
X147474301Y-134824301D03*
X147474300Y-135324300D03*
D25*
X149900000Y-133574301D03*
D14*
X145750000Y-129150000D03*
X145750000Y-127600000D03*
D16*
X143137502Y-132625001D03*
X141562498Y-132624999D03*
D26*
X143187498Y-120615746D03*
X143187498Y-121415750D03*
D27*
X143187497Y-122565751D03*
X143187502Y-123565747D03*
X143187501Y-124065745D03*
X143187500Y-125065751D03*
D26*
X143187498Y-126215750D03*
X143187501Y-127015753D03*
D27*
X143187498Y-125565750D03*
X143187496Y-124565752D03*
X143187497Y-123065750D03*
X143187498Y-122065750D03*
D28*
X161775000Y-123499999D03*
X160974900Y-123499997D03*
X160974902Y-124998601D03*
X161775002Y-124998603D03*
D29*
X161374951Y-124249300D03*
D30*
X160262499Y-116825000D03*
X161837501Y-116825000D03*
D11*
X153725000Y-130900000D03*
X155375000Y-130900000D03*
X160425000Y-127275000D03*
X162075000Y-127275000D03*
D31*
X142525000Y-113525000D03*
X140975000Y-113525000D03*
M02*
