G04 #@! TF.GenerationSoftware,KiCad,Pcbnew,8.0.6*
G04 #@! TF.CreationDate,2025-07-21T23:48:44+02:00*
G04 #@! TF.ProjectId,nRF5340,6e524635-3334-4302-9e6b-696361645f70,rev?*
G04 #@! TF.SameCoordinates,Original*
G04 #@! TF.FileFunction,Copper,L3,Inr*
G04 #@! TF.FilePolarity,Positive*
%FSLAX46Y46*%
G04 Gerber Fmt 4.6, Leading zero omitted, Abs format (unit mm)*
G04 Created by KiCad (PCBNEW 8.0.6) date 2025-07-21 23:48:44*
%MOMM*%
%LPD*%
G01*
G04 APERTURE LIST*
G04 #@! TA.AperFunction,ComponentPad*
%ADD10O,1.800000X1.000000*%
G04 #@! TD*
G04 #@! TA.AperFunction,ComponentPad*
%ADD11O,2.200000X1.000000*%
G04 #@! TD*
G04 #@! TA.AperFunction,ViaPad*
%ADD12C,0.450000*%
G04 #@! TD*
G04 #@! TA.AperFunction,ViaPad*
%ADD13C,0.400000*%
G04 #@! TD*
G04 APERTURE END LIST*
D10*
X142612499Y-119495748D03*
D11*
X138612498Y-119495747D03*
D10*
X142612499Y-128135750D03*
D11*
X138612498Y-128135753D03*
D12*
X144925000Y-116775000D03*
X149550000Y-126850000D03*
D13*
X144350000Y-136325000D03*
D12*
X144700000Y-121150000D03*
D13*
X141525000Y-116825000D03*
D12*
X151450000Y-133575000D03*
X161775000Y-125675000D03*
X138600000Y-126950000D03*
X160000000Y-122725000D03*
X160225000Y-114625000D03*
D13*
X136975000Y-126250000D03*
D12*
X149925000Y-127775000D03*
X159850000Y-133850000D03*
D13*
X140075000Y-122250000D03*
X152275000Y-137400000D03*
D12*
X161625000Y-131325000D03*
D13*
X163525000Y-120725000D03*
X138600000Y-123775000D03*
D12*
X150975000Y-136900000D03*
X146500000Y-116000000D03*
X156025000Y-130300000D03*
X151847477Y-123707646D03*
X145175000Y-133825000D03*
X151450000Y-134675000D03*
D13*
X144825000Y-112475000D03*
D12*
X140975000Y-114425000D03*
X162150000Y-119775000D03*
X146012500Y-123137500D03*
D13*
X148275000Y-120300000D03*
D12*
X153925000Y-136925000D03*
D13*
X146950000Y-112550000D03*
D12*
X148850000Y-133824302D03*
X160275000Y-115825000D03*
X155700000Y-129075000D03*
X150812150Y-132662150D03*
X148350000Y-132700000D03*
X147250000Y-126850000D03*
D13*
X136925000Y-122125000D03*
X139750000Y-126200000D03*
D12*
X158325000Y-126625000D03*
X148725000Y-126800000D03*
X151650000Y-130475000D03*
D13*
X163575000Y-126350000D03*
D12*
X153400000Y-122350000D03*
X148025000Y-113125000D03*
D13*
X163550000Y-123550000D03*
D12*
X138600000Y-120725000D03*
D13*
X161725000Y-130300000D03*
X158450000Y-132650000D03*
D12*
X138425000Y-117725000D03*
D13*
X142550000Y-112450000D03*
D12*
X153750000Y-128675000D03*
X145750000Y-126875000D03*
X154500000Y-122400000D03*
D13*
X151750000Y-124325000D03*
D12*
X160975000Y-125625000D03*
X145025000Y-135375000D03*
X139250000Y-129975000D03*
X145437500Y-119637500D03*
X147375000Y-121350000D03*
X160650000Y-119550000D03*
X154575000Y-135225000D03*
X162925000Y-127250000D03*
X161400000Y-122200000D03*
X146375000Y-113525000D03*
X162800000Y-128725000D03*
X152100000Y-129325000D03*
D13*
X149600000Y-129200000D03*
X143225000Y-135400000D03*
X149625000Y-135300000D03*
X145200000Y-130350000D03*
X146750000Y-129900000D03*
X157150000Y-129750000D03*
X157175000Y-127850000D03*
X153824301Y-132324301D03*
X155000000Y-134275000D03*
X141825000Y-122600000D03*
X148650000Y-131825000D03*
X147250000Y-131175000D03*
X141700000Y-125575000D03*
X152475000Y-136100000D03*
X159400000Y-125125000D03*
D12*
X148625000Y-117850000D03*
X152600000Y-119850000D03*
X148575000Y-118875000D03*
X153950000Y-126825000D03*
X151200000Y-123850002D03*
G04 #@! TA.AperFunction,Conductor*
G36*
X148434643Y-111843970D02*
G01*
X148470684Y-111893414D01*
X148475576Y-111923575D01*
X148480345Y-112739013D01*
X148461779Y-112797313D01*
X148412490Y-112833566D01*
X148351305Y-112833924D01*
X148311345Y-112809597D01*
X148278220Y-112776472D01*
X148278217Y-112776470D01*
X148158129Y-112715282D01*
X148158127Y-112715281D01*
X148025000Y-112694196D01*
X147891872Y-112715281D01*
X147891870Y-112715282D01*
X147771782Y-112776470D01*
X147676470Y-112871782D01*
X147615282Y-112991870D01*
X147615281Y-112991872D01*
X147594196Y-113124999D01*
X147594196Y-113125000D01*
X147615281Y-113258127D01*
X147615282Y-113258129D01*
X147676470Y-113378217D01*
X147676472Y-113378220D01*
X147771780Y-113473528D01*
X147891874Y-113534719D01*
X148025000Y-113555804D01*
X148158126Y-113534719D01*
X148278220Y-113473528D01*
X148315826Y-113435921D01*
X148370340Y-113408145D01*
X148430772Y-113417716D01*
X148474037Y-113460980D01*
X148484826Y-113505347D01*
X148493064Y-114914042D01*
X148474498Y-114972342D01*
X148425209Y-115008595D01*
X148364024Y-115008953D01*
X148314315Y-114973279D01*
X148302602Y-114952506D01*
X148291925Y-114926730D01*
X148291925Y-114926729D01*
X148259510Y-114878217D01*
X148210305Y-114804577D01*
X148106424Y-114700696D01*
X147984273Y-114619077D01*
X147984272Y-114619076D01*
X147984270Y-114619075D01*
X147848546Y-114562857D01*
X147704461Y-114534197D01*
X147704459Y-114534197D01*
X147557549Y-114534197D01*
X147557546Y-114534197D01*
X147413462Y-114562857D01*
X147413460Y-114562857D01*
X147277737Y-114619075D01*
X147277736Y-114619075D01*
X147155584Y-114700696D01*
X147155580Y-114700699D01*
X147051706Y-114804573D01*
X147051703Y-114804577D01*
X146970082Y-114926729D01*
X146970082Y-114926730D01*
X146913864Y-115062453D01*
X146913864Y-115062455D01*
X146885204Y-115206539D01*
X146885204Y-115353454D01*
X146913864Y-115497538D01*
X146913864Y-115497540D01*
X146945839Y-115574735D01*
X146950639Y-115635732D01*
X146918670Y-115687901D01*
X146862142Y-115711315D01*
X146802647Y-115697031D01*
X146784375Y-115682627D01*
X146753220Y-115651472D01*
X146753217Y-115651470D01*
X146633129Y-115590282D01*
X146633127Y-115590281D01*
X146500000Y-115569196D01*
X146499998Y-115569196D01*
X146435739Y-115579373D01*
X146375307Y-115569801D01*
X146332043Y-115526536D01*
X146322472Y-115466104D01*
X146323155Y-115462278D01*
X146332503Y-115415282D01*
X146344802Y-115353451D01*
X146344802Y-115206541D01*
X146316142Y-115062454D01*
X146279308Y-114973528D01*
X146259923Y-114926729D01*
X146259923Y-114926728D01*
X146239587Y-114896294D01*
X146178303Y-114804576D01*
X146074422Y-114700695D01*
X145952271Y-114619076D01*
X145952270Y-114619075D01*
X145952268Y-114619074D01*
X145816544Y-114562856D01*
X145672459Y-114534196D01*
X145672457Y-114534196D01*
X145525547Y-114534196D01*
X145525544Y-114534196D01*
X145381460Y-114562856D01*
X145381458Y-114562856D01*
X145245735Y-114619074D01*
X145245734Y-114619074D01*
X145123582Y-114700695D01*
X145123578Y-114700698D01*
X145019704Y-114804572D01*
X145019701Y-114804576D01*
X144938080Y-114926728D01*
X144938080Y-114926729D01*
X144881862Y-115062452D01*
X144881862Y-115062454D01*
X144853202Y-115206538D01*
X144853202Y-115353453D01*
X144861306Y-115394196D01*
X144877671Y-115476470D01*
X144881862Y-115497537D01*
X144881862Y-115497539D01*
X144938080Y-115633262D01*
X144938080Y-115633263D01*
X144971063Y-115682624D01*
X145019701Y-115755416D01*
X145123582Y-115859297D01*
X145245733Y-115940916D01*
X145245734Y-115940916D01*
X145245735Y-115940917D01*
X145249219Y-115942360D01*
X145381460Y-115997136D01*
X145525547Y-116025796D01*
X145525549Y-116025796D01*
X145672455Y-116025796D01*
X145672457Y-116025796D01*
X145816544Y-115997136D01*
X145937194Y-115947160D01*
X145998190Y-115942360D01*
X146050359Y-115974330D01*
X146072860Y-116023137D01*
X146090281Y-116133128D01*
X146090282Y-116133129D01*
X146142045Y-116234719D01*
X146151472Y-116253220D01*
X146246780Y-116348528D01*
X146366874Y-116409719D01*
X146500000Y-116430804D01*
X146633126Y-116409719D01*
X146753220Y-116348528D01*
X146848528Y-116253220D01*
X146909719Y-116133126D01*
X146930804Y-116000000D01*
X146909719Y-115866874D01*
X146909717Y-115866871D01*
X146909687Y-115866678D01*
X146919258Y-115806245D01*
X146962522Y-115762981D01*
X147022954Y-115753409D01*
X147077471Y-115781186D01*
X147077472Y-115781186D01*
X147155584Y-115859298D01*
X147277735Y-115940917D01*
X147277736Y-115940917D01*
X147277737Y-115940918D01*
X147292809Y-115947161D01*
X147413462Y-115997137D01*
X147557549Y-116025797D01*
X147557551Y-116025797D01*
X147704457Y-116025797D01*
X147704459Y-116025797D01*
X147848546Y-115997137D01*
X147984273Y-115940917D01*
X148106424Y-115859298D01*
X148210305Y-115755417D01*
X148291924Y-115633266D01*
X148306816Y-115597314D01*
X148346552Y-115550788D01*
X148406047Y-115536504D01*
X148462575Y-115559918D01*
X148494544Y-115612087D01*
X148497278Y-115634620D01*
X148499999Y-116099999D01*
X148500000Y-116100000D01*
X159425000Y-116125000D01*
X159425000Y-115824999D01*
X159844196Y-115824999D01*
X159844196Y-115825000D01*
X159865281Y-115958127D01*
X159865282Y-115958129D01*
X159899761Y-116025797D01*
X159926472Y-116078220D01*
X160021780Y-116173528D01*
X160141874Y-116234719D01*
X160275000Y-116255804D01*
X160408126Y-116234719D01*
X160528220Y-116173528D01*
X160623528Y-116078220D01*
X160684719Y-115958126D01*
X160705804Y-115825000D01*
X160684719Y-115691874D01*
X160623528Y-115571780D01*
X160528220Y-115476472D01*
X160528217Y-115476470D01*
X160408129Y-115415282D01*
X160408127Y-115415281D01*
X160275000Y-115394196D01*
X160141872Y-115415281D01*
X160141870Y-115415282D01*
X160021782Y-115476470D01*
X159926470Y-115571782D01*
X159865282Y-115691870D01*
X159865281Y-115691872D01*
X159844196Y-115824999D01*
X159425000Y-115824999D01*
X159425000Y-115125000D01*
X159425001Y-115124648D01*
X159426779Y-114624999D01*
X159794196Y-114624999D01*
X159794196Y-114625000D01*
X159815281Y-114758127D01*
X159815282Y-114758129D01*
X159854307Y-114834719D01*
X159876472Y-114878220D01*
X159971780Y-114973528D01*
X160091874Y-115034719D01*
X160225000Y-115055804D01*
X160358126Y-115034719D01*
X160478220Y-114973528D01*
X160573528Y-114878220D01*
X160634719Y-114758126D01*
X160655804Y-114625000D01*
X160654865Y-114619074D01*
X160651835Y-114599945D01*
X160634719Y-114491874D01*
X160573528Y-114371780D01*
X160478220Y-114276472D01*
X160478217Y-114276470D01*
X160358129Y-114215282D01*
X160358127Y-114215281D01*
X160225000Y-114194196D01*
X160091872Y-114215281D01*
X160091870Y-114215282D01*
X159971782Y-114276470D01*
X159876470Y-114371782D01*
X159815282Y-114491870D01*
X159815281Y-114491872D01*
X159794196Y-114624999D01*
X159426779Y-114624999D01*
X159433230Y-112812070D01*
X159452344Y-112753949D01*
X159501972Y-112718161D01*
X159563157Y-112718379D01*
X159596524Y-112737144D01*
X159858540Y-112960927D01*
X159862392Y-112964395D01*
X160411169Y-113485165D01*
X160414834Y-113488830D01*
X160935604Y-114037607D01*
X160939072Y-114041459D01*
X161430399Y-114616729D01*
X161433661Y-114620757D01*
X161894218Y-115220966D01*
X161897247Y-115225134D01*
X162137521Y-115574735D01*
X162325777Y-115848650D01*
X162328599Y-115852997D01*
X162479963Y-116100000D01*
X162687920Y-116439355D01*
X162723875Y-116498027D01*
X162726467Y-116502515D01*
X163087461Y-117167386D01*
X163089814Y-117172004D01*
X163246962Y-117501470D01*
X163413202Y-117849999D01*
X163415515Y-117854847D01*
X163417623Y-117859583D01*
X163707139Y-118558540D01*
X163708996Y-118563378D01*
X163961528Y-119276505D01*
X163963130Y-119281434D01*
X164177999Y-120006819D01*
X164179341Y-120011826D01*
X164355956Y-120747480D01*
X164357033Y-120752550D01*
X164494898Y-121496403D01*
X164495709Y-121501522D01*
X164594457Y-122251588D01*
X164594999Y-122256743D01*
X164654356Y-123010958D01*
X164654627Y-123016133D01*
X164674432Y-123772408D01*
X164674432Y-123777592D01*
X164654627Y-124533866D01*
X164654356Y-124539041D01*
X164594999Y-125293256D01*
X164594457Y-125298411D01*
X164495709Y-126048477D01*
X164494898Y-126053596D01*
X164357033Y-126797449D01*
X164355956Y-126802519D01*
X164179341Y-127538173D01*
X164177999Y-127543180D01*
X163963130Y-128268565D01*
X163961528Y-128273494D01*
X163708996Y-128986621D01*
X163707139Y-128991459D01*
X163417623Y-129690416D01*
X163415515Y-129695152D01*
X163089814Y-130377995D01*
X163087461Y-130382613D01*
X162726467Y-131047484D01*
X162723875Y-131051972D01*
X162328599Y-131697002D01*
X162325777Y-131701349D01*
X161897256Y-132324853D01*
X161894209Y-132329046D01*
X161433661Y-132929242D01*
X161430399Y-132933270D01*
X160939072Y-133508540D01*
X160935604Y-133512392D01*
X160433275Y-134041737D01*
X160379504Y-134070932D01*
X160318842Y-134062946D01*
X160274460Y-134020829D01*
X160263310Y-133960668D01*
X160263682Y-133958103D01*
X160263789Y-133957431D01*
X160280804Y-133850000D01*
X160259719Y-133716874D01*
X160198528Y-133596780D01*
X160103220Y-133501472D01*
X160103217Y-133501470D01*
X159983129Y-133440282D01*
X159983127Y-133440281D01*
X159850000Y-133419196D01*
X159716872Y-133440281D01*
X159716870Y-133440282D01*
X159596782Y-133501470D01*
X159501470Y-133596782D01*
X159440282Y-133716870D01*
X159440281Y-133716872D01*
X159419196Y-133849999D01*
X159419196Y-133850000D01*
X159440281Y-133983127D01*
X159440282Y-133983129D01*
X159501470Y-134103217D01*
X159501472Y-134103220D01*
X159596780Y-134198528D01*
X159716874Y-134259719D01*
X159850000Y-134280804D01*
X159935510Y-134267260D01*
X159995940Y-134276831D01*
X160039205Y-134320095D01*
X160048777Y-134380527D01*
X160021000Y-134435044D01*
X160019143Y-134436853D01*
X159862392Y-134585604D01*
X159858540Y-134589072D01*
X159283270Y-135080399D01*
X159279242Y-135083661D01*
X158679046Y-135544209D01*
X158674853Y-135547256D01*
X158051349Y-135975777D01*
X158047002Y-135978599D01*
X157401972Y-136373875D01*
X157397484Y-136376467D01*
X156732613Y-136737461D01*
X156727995Y-136739814D01*
X156045152Y-137065515D01*
X156040416Y-137067623D01*
X155341459Y-137357139D01*
X155336621Y-137358996D01*
X154623494Y-137611528D01*
X154618565Y-137613130D01*
X153893180Y-137827999D01*
X153888173Y-137829341D01*
X153152519Y-138005956D01*
X153147449Y-138007033D01*
X152403596Y-138144898D01*
X152398477Y-138145709D01*
X151648411Y-138244457D01*
X151643256Y-138244999D01*
X150889041Y-138304356D01*
X150883866Y-138304627D01*
X150127592Y-138324432D01*
X150122408Y-138324432D01*
X149366133Y-138304627D01*
X149360958Y-138304356D01*
X148606743Y-138244999D01*
X148601588Y-138244457D01*
X147851522Y-138145709D01*
X147846403Y-138144898D01*
X147102550Y-138007033D01*
X147097480Y-138005956D01*
X146361826Y-137829341D01*
X146356819Y-137827999D01*
X145631434Y-137613130D01*
X145626505Y-137611528D01*
X145029167Y-137399999D01*
X151869508Y-137399999D01*
X151869508Y-137400000D01*
X151889354Y-137525303D01*
X151889355Y-137525307D01*
X151933730Y-137612397D01*
X151946950Y-137638342D01*
X152036658Y-137728050D01*
X152149696Y-137785646D01*
X152275000Y-137805492D01*
X152400304Y-137785646D01*
X152513342Y-137728050D01*
X152603050Y-137638342D01*
X152660646Y-137525304D01*
X152680492Y-137400000D01*
X152660646Y-137274696D01*
X152603050Y-137161658D01*
X152513342Y-137071950D01*
X152486211Y-137058126D01*
X152400307Y-137014355D01*
X152400304Y-137014354D01*
X152275000Y-136994508D01*
X152149696Y-137014354D01*
X152149692Y-137014355D01*
X152036659Y-137071949D01*
X151946949Y-137161659D01*
X151889355Y-137274692D01*
X151889354Y-137274696D01*
X151869508Y-137399999D01*
X145029167Y-137399999D01*
X144913378Y-137358996D01*
X144908540Y-137357139D01*
X144209583Y-137067623D01*
X144204847Y-137065515D01*
X144202012Y-137064163D01*
X144055978Y-136994508D01*
X143857837Y-136899999D01*
X150544196Y-136899999D01*
X150544196Y-136900000D01*
X150565281Y-137033127D01*
X150565282Y-137033129D01*
X150626470Y-137153217D01*
X150626472Y-137153220D01*
X150721780Y-137248528D01*
X150841874Y-137309719D01*
X150975000Y-137330804D01*
X151108126Y-137309719D01*
X151228220Y-137248528D01*
X151323528Y-137153220D01*
X151384719Y-137033126D01*
X151401845Y-136924999D01*
X153494196Y-136924999D01*
X153494196Y-136925000D01*
X153515281Y-137058127D01*
X153515282Y-137058129D01*
X153576470Y-137178217D01*
X153576472Y-137178220D01*
X153671780Y-137273528D01*
X153791874Y-137334719D01*
X153925000Y-137355804D01*
X154058126Y-137334719D01*
X154178220Y-137273528D01*
X154273528Y-137178220D01*
X154334719Y-137058126D01*
X154355804Y-136925000D01*
X154334719Y-136791874D01*
X154273528Y-136671780D01*
X154178220Y-136576472D01*
X154178217Y-136576470D01*
X154058129Y-136515282D01*
X154058127Y-136515281D01*
X153925000Y-136494196D01*
X153791872Y-136515281D01*
X153791870Y-136515282D01*
X153671782Y-136576470D01*
X153576470Y-136671782D01*
X153515282Y-136791870D01*
X153515281Y-136791872D01*
X153494196Y-136924999D01*
X151401845Y-136924999D01*
X151405804Y-136900000D01*
X151384719Y-136766874D01*
X151323528Y-136646780D01*
X151228220Y-136551472D01*
X151228217Y-136551470D01*
X151108129Y-136490282D01*
X151108127Y-136490281D01*
X150975000Y-136469196D01*
X150841872Y-136490281D01*
X150841870Y-136490282D01*
X150721782Y-136551470D01*
X150626470Y-136646782D01*
X150565282Y-136766870D01*
X150565281Y-136766872D01*
X150544196Y-136899999D01*
X143857837Y-136899999D01*
X143522004Y-136739814D01*
X143517386Y-136737461D01*
X142988505Y-136450303D01*
X142852508Y-136376463D01*
X142848027Y-136373875D01*
X142790039Y-136338340D01*
X142768270Y-136325000D01*
X143944508Y-136325000D01*
X143952659Y-136376467D01*
X143964354Y-136450303D01*
X143964355Y-136450307D01*
X143997462Y-136515282D01*
X144021950Y-136563342D01*
X144111658Y-136653050D01*
X144224696Y-136710646D01*
X144350000Y-136730492D01*
X144475304Y-136710646D01*
X144588342Y-136653050D01*
X144678050Y-136563342D01*
X144735646Y-136450304D01*
X144755492Y-136325000D01*
X144735646Y-136199696D01*
X144684848Y-136100000D01*
X152069508Y-136100000D01*
X152085297Y-136199692D01*
X152089354Y-136225303D01*
X152089355Y-136225307D01*
X152110189Y-136266195D01*
X152146950Y-136338342D01*
X152236658Y-136428050D01*
X152349696Y-136485646D01*
X152475000Y-136505492D01*
X152600304Y-136485646D01*
X152713342Y-136428050D01*
X152803050Y-136338342D01*
X152860646Y-136225304D01*
X152880492Y-136100000D01*
X152860646Y-135974696D01*
X152803050Y-135861658D01*
X152713342Y-135771950D01*
X152709406Y-135769944D01*
X152600307Y-135714355D01*
X152600304Y-135714354D01*
X152475000Y-135694508D01*
X152349696Y-135714354D01*
X152349692Y-135714355D01*
X152236659Y-135771949D01*
X152146949Y-135861659D01*
X152089355Y-135974692D01*
X152089354Y-135974696D01*
X152085830Y-135996949D01*
X152069508Y-136100000D01*
X144684848Y-136100000D01*
X144678050Y-136086658D01*
X144588342Y-135996950D01*
X144584406Y-135994944D01*
X144475307Y-135939355D01*
X144475304Y-135939354D01*
X144350000Y-135919508D01*
X144224696Y-135939354D01*
X144224692Y-135939355D01*
X144111659Y-135996949D01*
X144021949Y-136086659D01*
X143964355Y-136199692D01*
X143964354Y-136199696D01*
X143944508Y-136325000D01*
X142768270Y-136325000D01*
X142202997Y-135978599D01*
X142198650Y-135975777D01*
X141902079Y-135771950D01*
X141575134Y-135547247D01*
X141570966Y-135544218D01*
X141383016Y-135399999D01*
X142819508Y-135399999D01*
X142819508Y-135400000D01*
X142839354Y-135525303D01*
X142839355Y-135525307D01*
X142850539Y-135547256D01*
X142896950Y-135638342D01*
X142986658Y-135728050D01*
X143099696Y-135785646D01*
X143225000Y-135805492D01*
X143350304Y-135785646D01*
X143463342Y-135728050D01*
X143553050Y-135638342D01*
X143610646Y-135525304D01*
X143630492Y-135400000D01*
X143614654Y-135299999D01*
X149219508Y-135299999D01*
X149219508Y-135300000D01*
X149239354Y-135425303D01*
X149239355Y-135425307D01*
X149290306Y-135525303D01*
X149296950Y-135538342D01*
X149386658Y-135628050D01*
X149499696Y-135685646D01*
X149625000Y-135705492D01*
X149750304Y-135685646D01*
X149863342Y-135628050D01*
X149953050Y-135538342D01*
X150010646Y-135425304D01*
X150030492Y-135300000D01*
X150010646Y-135174696D01*
X149953050Y-135061658D01*
X149863342Y-134971950D01*
X149859406Y-134969944D01*
X149750307Y-134914355D01*
X149750304Y-134914354D01*
X149625000Y-134894508D01*
X149499696Y-134914354D01*
X149499692Y-134914355D01*
X149386659Y-134971949D01*
X149296949Y-135061659D01*
X149239355Y-135174692D01*
X149239354Y-135174696D01*
X149219508Y-135299999D01*
X143614654Y-135299999D01*
X143610646Y-135274696D01*
X143553050Y-135161658D01*
X143463342Y-135071950D01*
X143443143Y-135061658D01*
X143350307Y-135014355D01*
X143350304Y-135014354D01*
X143225000Y-134994508D01*
X143099696Y-135014354D01*
X143099692Y-135014355D01*
X142986659Y-135071949D01*
X142896949Y-135161659D01*
X142839355Y-135274692D01*
X142839354Y-135274696D01*
X142819508Y-135399999D01*
X141383016Y-135399999D01*
X140972136Y-135084719D01*
X140970757Y-135083661D01*
X140966729Y-135080399D01*
X140492067Y-134674999D01*
X151019196Y-134674999D01*
X151019196Y-134675000D01*
X151040281Y-134808127D01*
X151040282Y-134808129D01*
X151094407Y-134914355D01*
X151101472Y-134928220D01*
X151196780Y-135023528D01*
X151196782Y-135023529D01*
X151314797Y-135083661D01*
X151316874Y-135084719D01*
X151450000Y-135105804D01*
X151583126Y-135084719D01*
X151703220Y-135023528D01*
X151798528Y-134928220D01*
X151859719Y-134808126D01*
X151880804Y-134675000D01*
X151859719Y-134541874D01*
X151798528Y-134421780D01*
X151703220Y-134326472D01*
X151703217Y-134326470D01*
X151602200Y-134274999D01*
X154594508Y-134274999D01*
X154594508Y-134275000D01*
X154614354Y-134400303D01*
X154614355Y-134400307D01*
X154669944Y-134509406D01*
X154671950Y-134513342D01*
X154761658Y-134603050D01*
X154874696Y-134660646D01*
X155000000Y-134680492D01*
X155125304Y-134660646D01*
X155238342Y-134603050D01*
X155328050Y-134513342D01*
X155385646Y-134400304D01*
X155405492Y-134275000D01*
X155385646Y-134149696D01*
X155328050Y-134036658D01*
X155238342Y-133946950D01*
X155192374Y-133923528D01*
X155125307Y-133889355D01*
X155125304Y-133889354D01*
X155000000Y-133869508D01*
X154874696Y-133889354D01*
X154874692Y-133889355D01*
X154761659Y-133946949D01*
X154671949Y-134036659D01*
X154614355Y-134149692D01*
X154614354Y-134149696D01*
X154594508Y-134274999D01*
X151602200Y-134274999D01*
X151583129Y-134265282D01*
X151583127Y-134265281D01*
X151450000Y-134244196D01*
X151316872Y-134265281D01*
X151316870Y-134265282D01*
X151196782Y-134326470D01*
X151101470Y-134421782D01*
X151040282Y-134541870D01*
X151040281Y-134541872D01*
X151019196Y-134674999D01*
X140492067Y-134674999D01*
X140391459Y-134589072D01*
X140387607Y-134585604D01*
X139838830Y-134064834D01*
X139835165Y-134061169D01*
X139611048Y-133824999D01*
X144744196Y-133824999D01*
X144744196Y-133825000D01*
X144765281Y-133958127D01*
X144765282Y-133958129D01*
X144826116Y-134077522D01*
X144826472Y-134078220D01*
X144921780Y-134173528D01*
X145041874Y-134234719D01*
X145175000Y-134255804D01*
X145308126Y-134234719D01*
X145428220Y-134173528D01*
X145523528Y-134078220D01*
X145584719Y-133958126D01*
X145605804Y-133825000D01*
X145605693Y-133824302D01*
X145605693Y-133824301D01*
X148419196Y-133824301D01*
X148419196Y-133824302D01*
X148440281Y-133957429D01*
X148440282Y-133957431D01*
X148494045Y-134062946D01*
X148501472Y-134077522D01*
X148596780Y-134172830D01*
X148716874Y-134234021D01*
X148850000Y-134255106D01*
X148983126Y-134234021D01*
X149103220Y-134172830D01*
X149198528Y-134077522D01*
X149259719Y-133957428D01*
X149280804Y-133824302D01*
X149259719Y-133691176D01*
X149200524Y-133574999D01*
X151019196Y-133574999D01*
X151019196Y-133575000D01*
X151040281Y-133708127D01*
X151040282Y-133708129D01*
X151099831Y-133825000D01*
X151101472Y-133828220D01*
X151196780Y-133923528D01*
X151196782Y-133923529D01*
X151313749Y-133983127D01*
X151316874Y-133984719D01*
X151450000Y-134005804D01*
X151583126Y-133984719D01*
X151703220Y-133923528D01*
X151798528Y-133828220D01*
X151859719Y-133708126D01*
X151880804Y-133575000D01*
X151880183Y-133571082D01*
X151869158Y-133501470D01*
X151859719Y-133441874D01*
X151798528Y-133321780D01*
X151703220Y-133226472D01*
X151703217Y-133226470D01*
X151583129Y-133165282D01*
X151583127Y-133165281D01*
X151450000Y-133144196D01*
X151316872Y-133165281D01*
X151316870Y-133165282D01*
X151196782Y-133226470D01*
X151101470Y-133321782D01*
X151040282Y-133441870D01*
X151040281Y-133441872D01*
X151019196Y-133574999D01*
X149200524Y-133574999D01*
X149198528Y-133571082D01*
X149103220Y-133475774D01*
X149103217Y-133475772D01*
X148983129Y-133414584D01*
X148983127Y-133414583D01*
X148850000Y-133393498D01*
X148716872Y-133414583D01*
X148716870Y-133414584D01*
X148596782Y-133475772D01*
X148501470Y-133571084D01*
X148440282Y-133691172D01*
X148440281Y-133691174D01*
X148419196Y-133824301D01*
X145605693Y-133824301D01*
X145601835Y-133799945D01*
X145584719Y-133691874D01*
X145523528Y-133571780D01*
X145428220Y-133476472D01*
X145428217Y-133476470D01*
X145308129Y-133415282D01*
X145308127Y-133415281D01*
X145175000Y-133394196D01*
X145041872Y-133415281D01*
X145041870Y-133415282D01*
X144921782Y-133476470D01*
X144826470Y-133571782D01*
X144765282Y-133691870D01*
X144765281Y-133691872D01*
X144744196Y-133824999D01*
X139611048Y-133824999D01*
X139314395Y-133512392D01*
X139310927Y-133508540D01*
X138819600Y-132933270D01*
X138816338Y-132929242D01*
X138742586Y-132833127D01*
X138640433Y-132699999D01*
X147919196Y-132699999D01*
X147919196Y-132700000D01*
X147940281Y-132833127D01*
X147940282Y-132833129D01*
X148001470Y-132953217D01*
X148001472Y-132953220D01*
X148096780Y-133048528D01*
X148216874Y-133109719D01*
X148350000Y-133130804D01*
X148483126Y-133109719D01*
X148603220Y-133048528D01*
X148698528Y-132953220D01*
X148759719Y-132833126D01*
X148780804Y-132700000D01*
X148774809Y-132662149D01*
X150381346Y-132662149D01*
X150381346Y-132662150D01*
X150402431Y-132795277D01*
X150402432Y-132795279D01*
X150463620Y-132915367D01*
X150463622Y-132915370D01*
X150558930Y-133010678D01*
X150679024Y-133071869D01*
X150812150Y-133092954D01*
X150945276Y-133071869D01*
X151065370Y-133010678D01*
X151160678Y-132915370D01*
X151221869Y-132795276D01*
X151242954Y-132662150D01*
X151241029Y-132649999D01*
X151238985Y-132637095D01*
X151221869Y-132529024D01*
X151160678Y-132408930D01*
X151076048Y-132324300D01*
X153418809Y-132324300D01*
X153418809Y-132324301D01*
X153438655Y-132449604D01*
X153438656Y-132449608D01*
X153476914Y-132524692D01*
X153496251Y-132562643D01*
X153585959Y-132652351D01*
X153698997Y-132709947D01*
X153824301Y-132729793D01*
X153949605Y-132709947D01*
X154062643Y-132652351D01*
X154064995Y-132649999D01*
X158044508Y-132649999D01*
X158044508Y-132650000D01*
X158064354Y-132775303D01*
X158064355Y-132775307D01*
X158093816Y-132833126D01*
X158121950Y-132888342D01*
X158211658Y-132978050D01*
X158324696Y-133035646D01*
X158450000Y-133055492D01*
X158575304Y-133035646D01*
X158688342Y-132978050D01*
X158778050Y-132888342D01*
X158835646Y-132775304D01*
X158855492Y-132650000D01*
X158835646Y-132524696D01*
X158778050Y-132411658D01*
X158688342Y-132321950D01*
X158684406Y-132319944D01*
X158575307Y-132264355D01*
X158575304Y-132264354D01*
X158450000Y-132244508D01*
X158324696Y-132264354D01*
X158324692Y-132264355D01*
X158211659Y-132321949D01*
X158121949Y-132411659D01*
X158064355Y-132524692D01*
X158064354Y-132524696D01*
X158044508Y-132649999D01*
X154064995Y-132649999D01*
X154152351Y-132562643D01*
X154209947Y-132449605D01*
X154229793Y-132324301D01*
X154229420Y-132321949D01*
X154222122Y-132275870D01*
X154209947Y-132198997D01*
X154152351Y-132085959D01*
X154062643Y-131996251D01*
X154058707Y-131994245D01*
X153949608Y-131938656D01*
X153949605Y-131938655D01*
X153824301Y-131918809D01*
X153698997Y-131938655D01*
X153698993Y-131938656D01*
X153585960Y-131996250D01*
X153496250Y-132085960D01*
X153438656Y-132198993D01*
X153438655Y-132198997D01*
X153418809Y-132324300D01*
X151076048Y-132324300D01*
X151065370Y-132313622D01*
X151065367Y-132313620D01*
X150945279Y-132252432D01*
X150945277Y-132252431D01*
X150812150Y-132231346D01*
X150679022Y-132252431D01*
X150679020Y-132252432D01*
X150558932Y-132313620D01*
X150463620Y-132408932D01*
X150402432Y-132529020D01*
X150402431Y-132529022D01*
X150381346Y-132662149D01*
X148774809Y-132662149D01*
X148759719Y-132566874D01*
X148698528Y-132446780D01*
X148642564Y-132390816D01*
X148614789Y-132336302D01*
X148624360Y-132275870D01*
X148667625Y-132232605D01*
X148697079Y-132223035D01*
X148775304Y-132210646D01*
X148888342Y-132153050D01*
X148978050Y-132063342D01*
X149035646Y-131950304D01*
X149055492Y-131825000D01*
X149035646Y-131699696D01*
X148978050Y-131586658D01*
X148888342Y-131496950D01*
X148884406Y-131494944D01*
X148775307Y-131439355D01*
X148775304Y-131439354D01*
X148650000Y-131419508D01*
X148524696Y-131439354D01*
X148524692Y-131439355D01*
X148411659Y-131496949D01*
X148321949Y-131586659D01*
X148264355Y-131699692D01*
X148264354Y-131699696D01*
X148244508Y-131824999D01*
X148244508Y-131825000D01*
X148264354Y-131950303D01*
X148264355Y-131950307D01*
X148287765Y-131996251D01*
X148321950Y-132063342D01*
X148366104Y-132107496D01*
X148393880Y-132162011D01*
X148384309Y-132222443D01*
X148341044Y-132265708D01*
X148311587Y-132275279D01*
X148216872Y-132290281D01*
X148216870Y-132290282D01*
X148096782Y-132351470D01*
X148001470Y-132446782D01*
X147940282Y-132566870D01*
X147940281Y-132566872D01*
X147919196Y-132699999D01*
X138640433Y-132699999D01*
X138355776Y-132329027D01*
X138352757Y-132324872D01*
X137924220Y-131701346D01*
X137921400Y-131697002D01*
X137853781Y-131586658D01*
X137601516Y-131174999D01*
X146844508Y-131174999D01*
X146844508Y-131175000D01*
X146864354Y-131300303D01*
X146864355Y-131300307D01*
X146876937Y-131325000D01*
X146921950Y-131413342D01*
X147011658Y-131503050D01*
X147124696Y-131560646D01*
X147250000Y-131580492D01*
X147375304Y-131560646D01*
X147488342Y-131503050D01*
X147578050Y-131413342D01*
X147623063Y-131324999D01*
X161194196Y-131324999D01*
X161194196Y-131325000D01*
X161215281Y-131458127D01*
X161215282Y-131458129D01*
X161276470Y-131578217D01*
X161276472Y-131578220D01*
X161371780Y-131673528D01*
X161491874Y-131734719D01*
X161625000Y-131755804D01*
X161758126Y-131734719D01*
X161878220Y-131673528D01*
X161973528Y-131578220D01*
X162034719Y-131458126D01*
X162055804Y-131325000D01*
X162034719Y-131191874D01*
X161973528Y-131071780D01*
X161878220Y-130976472D01*
X161878217Y-130976470D01*
X161758129Y-130915282D01*
X161758127Y-130915281D01*
X161625000Y-130894196D01*
X161491872Y-130915281D01*
X161491870Y-130915282D01*
X161371782Y-130976470D01*
X161276470Y-131071782D01*
X161215282Y-131191870D01*
X161215281Y-131191872D01*
X161194196Y-131324999D01*
X147623063Y-131324999D01*
X147635646Y-131300304D01*
X147655492Y-131175000D01*
X147635646Y-131049696D01*
X147578050Y-130936658D01*
X147488342Y-130846950D01*
X147442374Y-130823528D01*
X147375307Y-130789355D01*
X147375304Y-130789354D01*
X147250000Y-130769508D01*
X147124696Y-130789354D01*
X147124692Y-130789355D01*
X147011659Y-130846949D01*
X146921949Y-130936659D01*
X146864355Y-131049692D01*
X146864354Y-131049696D01*
X146844508Y-131174999D01*
X137601516Y-131174999D01*
X137526113Y-131051953D01*
X137523543Y-131047503D01*
X137228734Y-130504533D01*
X137162538Y-130382613D01*
X137160185Y-130377995D01*
X137146832Y-130349999D01*
X144794508Y-130349999D01*
X144794508Y-130350000D01*
X144814354Y-130475303D01*
X144814355Y-130475307D01*
X144854053Y-130553217D01*
X144871950Y-130588342D01*
X144961658Y-130678050D01*
X145074696Y-130735646D01*
X145200000Y-130755492D01*
X145325304Y-130735646D01*
X145438342Y-130678050D01*
X145528050Y-130588342D01*
X145585646Y-130475304D01*
X145585694Y-130474999D01*
X151219196Y-130474999D01*
X151219196Y-130475000D01*
X151240281Y-130608127D01*
X151240282Y-130608129D01*
X151292045Y-130709719D01*
X151301472Y-130728220D01*
X151396780Y-130823528D01*
X151516874Y-130884719D01*
X151650000Y-130905804D01*
X151783126Y-130884719D01*
X151903220Y-130823528D01*
X151998528Y-130728220D01*
X152059719Y-130608126D01*
X152080804Y-130475000D01*
X152059719Y-130341874D01*
X152038383Y-130299999D01*
X155594196Y-130299999D01*
X155594196Y-130300000D01*
X155615281Y-130433127D01*
X155615282Y-130433129D01*
X155668890Y-130538340D01*
X155676472Y-130553220D01*
X155771780Y-130648528D01*
X155891874Y-130709719D01*
X156025000Y-130730804D01*
X156158126Y-130709719D01*
X156278220Y-130648528D01*
X156373528Y-130553220D01*
X156434719Y-130433126D01*
X156455804Y-130300000D01*
X161319508Y-130300000D01*
X161332592Y-130382613D01*
X161339354Y-130425303D01*
X161339355Y-130425307D01*
X161343340Y-130433127D01*
X161396950Y-130538342D01*
X161486658Y-130628050D01*
X161599696Y-130685646D01*
X161725000Y-130705492D01*
X161850304Y-130685646D01*
X161963342Y-130628050D01*
X162053050Y-130538342D01*
X162110646Y-130425304D01*
X162130492Y-130300000D01*
X162110646Y-130174696D01*
X162053050Y-130061658D01*
X161963342Y-129971950D01*
X161923148Y-129951470D01*
X161850307Y-129914355D01*
X161850304Y-129914354D01*
X161725000Y-129894508D01*
X161599696Y-129914354D01*
X161599692Y-129914355D01*
X161486659Y-129971949D01*
X161396949Y-130061659D01*
X161339355Y-130174692D01*
X161339354Y-130174696D01*
X161321782Y-130285645D01*
X161319508Y-130300000D01*
X156455804Y-130300000D01*
X156434719Y-130166874D01*
X156373528Y-130046780D01*
X156278220Y-129951472D01*
X156278217Y-129951470D01*
X156158129Y-129890282D01*
X156158127Y-129890281D01*
X156025000Y-129869196D01*
X155891872Y-129890281D01*
X155891870Y-129890282D01*
X155771782Y-129951470D01*
X155676470Y-130046782D01*
X155615282Y-130166870D01*
X155615281Y-130166872D01*
X155594196Y-130299999D01*
X152038383Y-130299999D01*
X151998528Y-130221780D01*
X151903220Y-130126472D01*
X151903217Y-130126470D01*
X151783129Y-130065282D01*
X151783127Y-130065281D01*
X151650000Y-130044196D01*
X151516872Y-130065281D01*
X151516870Y-130065282D01*
X151396782Y-130126470D01*
X151301470Y-130221782D01*
X151240282Y-130341870D01*
X151240281Y-130341872D01*
X151219196Y-130474999D01*
X145585694Y-130474999D01*
X145605492Y-130350000D01*
X145585646Y-130224696D01*
X145528050Y-130111658D01*
X145438342Y-130021950D01*
X145372383Y-129988342D01*
X145325307Y-129964355D01*
X145325304Y-129964354D01*
X145200000Y-129944508D01*
X145074696Y-129964354D01*
X145074692Y-129964355D01*
X144961659Y-130021949D01*
X144871949Y-130111659D01*
X144814355Y-130224692D01*
X144814354Y-130224696D01*
X144794508Y-130349999D01*
X137146832Y-130349999D01*
X137044590Y-130135646D01*
X136932192Y-129900000D01*
X146344508Y-129900000D01*
X146355903Y-129971949D01*
X146364354Y-130025303D01*
X146364355Y-130025307D01*
X146408354Y-130111658D01*
X146421950Y-130138342D01*
X146511658Y-130228050D01*
X146624696Y-130285646D01*
X146750000Y-130305492D01*
X146875304Y-130285646D01*
X146988342Y-130228050D01*
X147078050Y-130138342D01*
X147135646Y-130025304D01*
X147155492Y-129900000D01*
X147135646Y-129774696D01*
X147078050Y-129661658D01*
X146988342Y-129571950D01*
X146984406Y-129569944D01*
X146875307Y-129514355D01*
X146875304Y-129514354D01*
X146750000Y-129494508D01*
X146624696Y-129514354D01*
X146624692Y-129514355D01*
X146511659Y-129571949D01*
X146421949Y-129661659D01*
X146364355Y-129774692D01*
X146364354Y-129774696D01*
X146348420Y-129875303D01*
X146344508Y-129900000D01*
X136932192Y-129900000D01*
X136834474Y-129695130D01*
X136832376Y-129690416D01*
X136825381Y-129673529D01*
X136629240Y-129200000D01*
X149194508Y-129200000D01*
X149195795Y-129208129D01*
X149214354Y-129325303D01*
X149214355Y-129325307D01*
X149263597Y-129421949D01*
X149271950Y-129438342D01*
X149361658Y-129528050D01*
X149474696Y-129585646D01*
X149600000Y-129605492D01*
X149725304Y-129585646D01*
X149838342Y-129528050D01*
X149928050Y-129438342D01*
X149985646Y-129325304D01*
X149985694Y-129324999D01*
X151669196Y-129324999D01*
X151669196Y-129325000D01*
X151690281Y-129458127D01*
X151690282Y-129458129D01*
X151748277Y-129571950D01*
X151751472Y-129578220D01*
X151846780Y-129673528D01*
X151966874Y-129734719D01*
X152100000Y-129755804D01*
X152136651Y-129749999D01*
X156744508Y-129749999D01*
X156744508Y-129750000D01*
X156764354Y-129875303D01*
X156764355Y-129875307D01*
X156799615Y-129944508D01*
X156821950Y-129988342D01*
X156911658Y-130078050D01*
X157024696Y-130135646D01*
X157150000Y-130155492D01*
X157275304Y-130135646D01*
X157388342Y-130078050D01*
X157478050Y-129988342D01*
X157535646Y-129875304D01*
X157555492Y-129750000D01*
X157535646Y-129624696D01*
X157478050Y-129511658D01*
X157388342Y-129421950D01*
X157384406Y-129419944D01*
X157275307Y-129364355D01*
X157275304Y-129364354D01*
X157150000Y-129344508D01*
X157024696Y-129364354D01*
X157024692Y-129364355D01*
X156911659Y-129421949D01*
X156821949Y-129511659D01*
X156764355Y-129624692D01*
X156764354Y-129624696D01*
X156744508Y-129749999D01*
X152136651Y-129749999D01*
X152233126Y-129734719D01*
X152353220Y-129673528D01*
X152448528Y-129578220D01*
X152509719Y-129458126D01*
X152530804Y-129325000D01*
X152509719Y-129191874D01*
X152448528Y-129071780D01*
X152353220Y-128976472D01*
X152353217Y-128976470D01*
X152233129Y-128915282D01*
X152233127Y-128915281D01*
X152100000Y-128894196D01*
X151966872Y-128915281D01*
X151966870Y-128915282D01*
X151846782Y-128976470D01*
X151751470Y-129071782D01*
X151690282Y-129191870D01*
X151690281Y-129191872D01*
X151669196Y-129324999D01*
X149985694Y-129324999D01*
X150005492Y-129200000D01*
X149985646Y-129074696D01*
X149928050Y-128961658D01*
X149838342Y-128871950D01*
X149834406Y-128869944D01*
X149725307Y-128814355D01*
X149725304Y-128814354D01*
X149600000Y-128794508D01*
X149474696Y-128814354D01*
X149474692Y-128814355D01*
X149361659Y-128871949D01*
X149271949Y-128961659D01*
X149214355Y-129074692D01*
X149214354Y-129074696D01*
X149194508Y-129200000D01*
X136629240Y-129200000D01*
X136581489Y-129084718D01*
X136542860Y-128991459D01*
X136541003Y-128986621D01*
X136537408Y-128976470D01*
X136288471Y-128273494D01*
X136286869Y-128268565D01*
X136243907Y-128123528D01*
X136227091Y-128066757D01*
X137311998Y-128066757D01*
X137311998Y-128066758D01*
X137311998Y-128066760D01*
X137311998Y-128204746D01*
X137338917Y-128340078D01*
X137338918Y-128340080D01*
X137338918Y-128340082D01*
X137391720Y-128467559D01*
X137391726Y-128467570D01*
X137468383Y-128582294D01*
X137565956Y-128679867D01*
X137680680Y-128756524D01*
X137680691Y-128756530D01*
X137727781Y-128776035D01*
X137808170Y-128809333D01*
X137943505Y-128836253D01*
X137943506Y-128836253D01*
X139281490Y-128836253D01*
X139281491Y-128836253D01*
X139416826Y-128809333D01*
X139544309Y-128756528D01*
X139659040Y-128679867D01*
X139756612Y-128582295D01*
X139833273Y-128467564D01*
X139886078Y-128340081D01*
X139912998Y-128204746D01*
X139912998Y-128066760D01*
X139912997Y-128066754D01*
X141511999Y-128066754D01*
X141511999Y-128204745D01*
X141538919Y-128340077D01*
X141538919Y-128340079D01*
X141591721Y-128467556D01*
X141591727Y-128467567D01*
X141668384Y-128582291D01*
X141765957Y-128679864D01*
X141880681Y-128756521D01*
X141880692Y-128756527D01*
X141927782Y-128776032D01*
X142008171Y-128809330D01*
X142143506Y-128836250D01*
X142143507Y-128836250D01*
X143081491Y-128836250D01*
X143081492Y-128836250D01*
X143216827Y-128809330D01*
X143344310Y-128756525D01*
X143459041Y-128679864D01*
X143463906Y-128674999D01*
X153319196Y-128674999D01*
X153319196Y-128675000D01*
X153340281Y-128808127D01*
X153340282Y-128808129D01*
X153401470Y-128928217D01*
X153401472Y-128928220D01*
X153496780Y-129023528D01*
X153616874Y-129084719D01*
X153750000Y-129105804D01*
X153883126Y-129084719D01*
X153902203Y-129074999D01*
X155269196Y-129074999D01*
X155269196Y-129075000D01*
X155290281Y-129208127D01*
X155290282Y-129208129D01*
X155351470Y-129328217D01*
X155351472Y-129328220D01*
X155446780Y-129423528D01*
X155566874Y-129484719D01*
X155700000Y-129505804D01*
X155833126Y-129484719D01*
X155953220Y-129423528D01*
X156048528Y-129328220D01*
X156109719Y-129208126D01*
X156130804Y-129075000D01*
X156109719Y-128941874D01*
X156048528Y-128821780D01*
X155953220Y-128726472D01*
X155953217Y-128726470D01*
X155833129Y-128665282D01*
X155833127Y-128665281D01*
X155700000Y-128644196D01*
X155566872Y-128665281D01*
X155566870Y-128665282D01*
X155446782Y-128726470D01*
X155351470Y-128821782D01*
X155290282Y-128941870D01*
X155290281Y-128941872D01*
X155269196Y-129074999D01*
X153902203Y-129074999D01*
X154003220Y-129023528D01*
X154098528Y-128928220D01*
X154159719Y-128808126D01*
X154180804Y-128675000D01*
X154159719Y-128541874D01*
X154098528Y-128421780D01*
X154003220Y-128326472D01*
X154003217Y-128326470D01*
X153883129Y-128265282D01*
X153883127Y-128265281D01*
X153750000Y-128244196D01*
X153616872Y-128265281D01*
X153616870Y-128265282D01*
X153496782Y-128326470D01*
X153401470Y-128421782D01*
X153340282Y-128541870D01*
X153340281Y-128541872D01*
X153319196Y-128674999D01*
X143463906Y-128674999D01*
X143556613Y-128582292D01*
X143633274Y-128467561D01*
X143686079Y-128340078D01*
X143712999Y-128204743D01*
X143712999Y-128066757D01*
X143686079Y-127931422D01*
X143633274Y-127803939D01*
X143633273Y-127803937D01*
X143633270Y-127803932D01*
X143556613Y-127689208D01*
X143459040Y-127591635D01*
X143344316Y-127514978D01*
X143344305Y-127514972D01*
X143216827Y-127462170D01*
X143081494Y-127435250D01*
X143081492Y-127435250D01*
X142143506Y-127435250D01*
X142143503Y-127435250D01*
X142008171Y-127462170D01*
X142008169Y-127462170D01*
X141880692Y-127514972D01*
X141880681Y-127514978D01*
X141765957Y-127591635D01*
X141668384Y-127689208D01*
X141591727Y-127803932D01*
X141591721Y-127803943D01*
X141538919Y-127931420D01*
X141538919Y-127931422D01*
X141511999Y-128066754D01*
X139912997Y-128066754D01*
X139886078Y-127931425D01*
X139852351Y-127850000D01*
X139833275Y-127803946D01*
X139833269Y-127803935D01*
X139756612Y-127689211D01*
X139659039Y-127591638D01*
X139544315Y-127514981D01*
X139544304Y-127514975D01*
X139416826Y-127462173D01*
X139281493Y-127435253D01*
X139281491Y-127435253D01*
X138955502Y-127435253D01*
X138897311Y-127416346D01*
X138861347Y-127366846D01*
X138861347Y-127305660D01*
X138885496Y-127266251D01*
X138948528Y-127203220D01*
X139009719Y-127083126D01*
X139030804Y-126950000D01*
X139018925Y-126874999D01*
X145319196Y-126874999D01*
X145319196Y-126875000D01*
X145340281Y-127008127D01*
X145340282Y-127008129D01*
X145388734Y-127103221D01*
X145401472Y-127128220D01*
X145496780Y-127223528D01*
X145616874Y-127284719D01*
X145750000Y-127305804D01*
X145883126Y-127284719D01*
X146003220Y-127223528D01*
X146098528Y-127128220D01*
X146159719Y-127008126D01*
X146180804Y-126875000D01*
X146176844Y-126849999D01*
X146819196Y-126849999D01*
X146819196Y-126850000D01*
X146840281Y-126983127D01*
X146840282Y-126983129D01*
X146901470Y-127103217D01*
X146901472Y-127103220D01*
X146996780Y-127198528D01*
X147116874Y-127259719D01*
X147250000Y-127280804D01*
X147383126Y-127259719D01*
X147503220Y-127198528D01*
X147598528Y-127103220D01*
X147659719Y-126983126D01*
X147680804Y-126850000D01*
X147672885Y-126799999D01*
X148294196Y-126799999D01*
X148294196Y-126800000D01*
X148315281Y-126933127D01*
X148315282Y-126933129D01*
X148367045Y-127034719D01*
X148376472Y-127053220D01*
X148471780Y-127148528D01*
X148591874Y-127209719D01*
X148725000Y-127230804D01*
X148858126Y-127209719D01*
X148978220Y-127148528D01*
X149045058Y-127081689D01*
X149099572Y-127053913D01*
X149160004Y-127063484D01*
X149194896Y-127098368D01*
X149196894Y-127096918D01*
X149201470Y-127103217D01*
X149201472Y-127103220D01*
X149296780Y-127198528D01*
X149416874Y-127259719D01*
X149550000Y-127280804D01*
X149566841Y-127278136D01*
X149627269Y-127287706D01*
X149670535Y-127330969D01*
X149680109Y-127391401D01*
X149652333Y-127445918D01*
X149576473Y-127521778D01*
X149576470Y-127521782D01*
X149515282Y-127641870D01*
X149515281Y-127641872D01*
X149494196Y-127774999D01*
X149494196Y-127775000D01*
X149515281Y-127908127D01*
X149515282Y-127908129D01*
X149549511Y-127975307D01*
X149576472Y-128028220D01*
X149671780Y-128123528D01*
X149791874Y-128184719D01*
X149925000Y-128205804D01*
X150058126Y-128184719D01*
X150178220Y-128123528D01*
X150273528Y-128028220D01*
X150334719Y-127908126D01*
X150343925Y-127849999D01*
X156769508Y-127849999D01*
X156769508Y-127850000D01*
X156789354Y-127975303D01*
X156789355Y-127975307D01*
X156816316Y-128028220D01*
X156846950Y-128088342D01*
X156936658Y-128178050D01*
X157049696Y-128235646D01*
X157175000Y-128255492D01*
X157300304Y-128235646D01*
X157413342Y-128178050D01*
X157503050Y-128088342D01*
X157560646Y-127975304D01*
X157580492Y-127850000D01*
X157560646Y-127724696D01*
X157503050Y-127611658D01*
X157413342Y-127521950D01*
X157399647Y-127514972D01*
X157300307Y-127464355D01*
X157300304Y-127464354D01*
X157175000Y-127444508D01*
X157049696Y-127464354D01*
X157049692Y-127464355D01*
X156936659Y-127521949D01*
X156846949Y-127611659D01*
X156789355Y-127724692D01*
X156789354Y-127724696D01*
X156769508Y-127849999D01*
X150343925Y-127849999D01*
X150355804Y-127775000D01*
X150334719Y-127641874D01*
X150273528Y-127521780D01*
X150178220Y-127426472D01*
X150178217Y-127426470D01*
X150058129Y-127365282D01*
X150058127Y-127365281D01*
X149925000Y-127344196D01*
X149924998Y-127344196D01*
X149908158Y-127346863D01*
X149847726Y-127337291D01*
X149804462Y-127294026D01*
X149794891Y-127233594D01*
X149822667Y-127179080D01*
X149898528Y-127103220D01*
X149959719Y-126983126D01*
X149980804Y-126850000D01*
X149976844Y-126824999D01*
X153519196Y-126824999D01*
X153519196Y-126825000D01*
X153540281Y-126958127D01*
X153540282Y-126958129D01*
X153601470Y-127078217D01*
X153601472Y-127078220D01*
X153696780Y-127173528D01*
X153816874Y-127234719D01*
X153950000Y-127255804D01*
X154083126Y-127234719D01*
X154203220Y-127173528D01*
X154298528Y-127078220D01*
X154359719Y-126958126D01*
X154380804Y-126825000D01*
X154359719Y-126691874D01*
X154325644Y-126624999D01*
X157894196Y-126624999D01*
X157894196Y-126625000D01*
X157915281Y-126758127D01*
X157915282Y-126758129D01*
X157974831Y-126875000D01*
X157976472Y-126878220D01*
X158071780Y-126973528D01*
X158191874Y-127034719D01*
X158325000Y-127055804D01*
X158458126Y-127034719D01*
X158578220Y-126973528D01*
X158673528Y-126878220D01*
X158734719Y-126758126D01*
X158755804Y-126625000D01*
X158734719Y-126491874D01*
X158673528Y-126371780D01*
X158651748Y-126350000D01*
X163169508Y-126350000D01*
X163185579Y-126451472D01*
X163189354Y-126475303D01*
X163189355Y-126475307D01*
X163222462Y-126540282D01*
X163246950Y-126588342D01*
X163336658Y-126678050D01*
X163449696Y-126735646D01*
X163575000Y-126755492D01*
X163700304Y-126735646D01*
X163813342Y-126678050D01*
X163903050Y-126588342D01*
X163960646Y-126475304D01*
X163980492Y-126350000D01*
X163960646Y-126224696D01*
X163903050Y-126111658D01*
X163813342Y-126021950D01*
X163793143Y-126011658D01*
X163700307Y-125964355D01*
X163700304Y-125964354D01*
X163575000Y-125944508D01*
X163449696Y-125964354D01*
X163449692Y-125964355D01*
X163336659Y-126021949D01*
X163246949Y-126111659D01*
X163189355Y-126224692D01*
X163189354Y-126224696D01*
X163173420Y-126325303D01*
X163169508Y-126350000D01*
X158651748Y-126350000D01*
X158578220Y-126276472D01*
X158578217Y-126276470D01*
X158458129Y-126215282D01*
X158458127Y-126215281D01*
X158325000Y-126194196D01*
X158191872Y-126215281D01*
X158191870Y-126215282D01*
X158071782Y-126276470D01*
X157976470Y-126371782D01*
X157915282Y-126491870D01*
X157915281Y-126491872D01*
X157894196Y-126624999D01*
X154325644Y-126624999D01*
X154298528Y-126571780D01*
X154203220Y-126476472D01*
X154203217Y-126476470D01*
X154083129Y-126415282D01*
X154083127Y-126415281D01*
X153950000Y-126394196D01*
X153816872Y-126415281D01*
X153816870Y-126415282D01*
X153696782Y-126476470D01*
X153601470Y-126571782D01*
X153540282Y-126691870D01*
X153540281Y-126691872D01*
X153519196Y-126824999D01*
X149976844Y-126824999D01*
X149959719Y-126716874D01*
X149898528Y-126596780D01*
X149803220Y-126501472D01*
X149803217Y-126501470D01*
X149683129Y-126440282D01*
X149683127Y-126440281D01*
X149550000Y-126419196D01*
X149416872Y-126440281D01*
X149416870Y-126440282D01*
X149296782Y-126501470D01*
X149296778Y-126501473D01*
X149229942Y-126568309D01*
X149175425Y-126596086D01*
X149114993Y-126586514D01*
X149080105Y-126551629D01*
X149078106Y-126553082D01*
X149073529Y-126546782D01*
X149073528Y-126546780D01*
X148978220Y-126451472D01*
X148978217Y-126451470D01*
X148858129Y-126390282D01*
X148858127Y-126390281D01*
X148725000Y-126369196D01*
X148591872Y-126390281D01*
X148591870Y-126390282D01*
X148471782Y-126451470D01*
X148376470Y-126546782D01*
X148315282Y-126666870D01*
X148315281Y-126666872D01*
X148294196Y-126799999D01*
X147672885Y-126799999D01*
X147659719Y-126716874D01*
X147598528Y-126596780D01*
X147503220Y-126501472D01*
X147503217Y-126501470D01*
X147383129Y-126440282D01*
X147383127Y-126440281D01*
X147250000Y-126419196D01*
X147116872Y-126440281D01*
X147116870Y-126440282D01*
X146996782Y-126501470D01*
X146901470Y-126596782D01*
X146840282Y-126716870D01*
X146840281Y-126716872D01*
X146819196Y-126849999D01*
X146176844Y-126849999D01*
X146159719Y-126741874D01*
X146098528Y-126621780D01*
X146003220Y-126526472D01*
X146003217Y-126526470D01*
X145883129Y-126465282D01*
X145883127Y-126465281D01*
X145750000Y-126444196D01*
X145616872Y-126465281D01*
X145616870Y-126465282D01*
X145496782Y-126526470D01*
X145401470Y-126621782D01*
X145340282Y-126741870D01*
X145340281Y-126741872D01*
X145319196Y-126874999D01*
X139018925Y-126874999D01*
X139009719Y-126816874D01*
X138948528Y-126696780D01*
X138853220Y-126601472D01*
X138853217Y-126601470D01*
X138733129Y-126540282D01*
X138733127Y-126540281D01*
X138600000Y-126519196D01*
X138466872Y-126540281D01*
X138466870Y-126540282D01*
X138346782Y-126601470D01*
X138251470Y-126696782D01*
X138190282Y-126816870D01*
X138190281Y-126816872D01*
X138169196Y-126949999D01*
X138169196Y-126950000D01*
X138190281Y-127083127D01*
X138190282Y-127083129D01*
X138251470Y-127203217D01*
X138251472Y-127203220D01*
X138314503Y-127266251D01*
X138342279Y-127320766D01*
X138332708Y-127381198D01*
X138289443Y-127424463D01*
X138244498Y-127435253D01*
X137943502Y-127435253D01*
X137808170Y-127462173D01*
X137808168Y-127462173D01*
X137680691Y-127514975D01*
X137680680Y-127514981D01*
X137565956Y-127591638D01*
X137468383Y-127689211D01*
X137391726Y-127803935D01*
X137391720Y-127803946D01*
X137338918Y-127931423D01*
X137338918Y-127931425D01*
X137311998Y-128066757D01*
X136227091Y-128066757D01*
X136071998Y-127543174D01*
X136070658Y-127538173D01*
X136066722Y-127521780D01*
X135894042Y-126802514D01*
X135892966Y-126797449D01*
X135791502Y-126249999D01*
X136569508Y-126249999D01*
X136569508Y-126250000D01*
X136589354Y-126375303D01*
X136589355Y-126375307D01*
X136622462Y-126440282D01*
X136646950Y-126488342D01*
X136736658Y-126578050D01*
X136849696Y-126635646D01*
X136975000Y-126655492D01*
X137100304Y-126635646D01*
X137213342Y-126578050D01*
X137303050Y-126488342D01*
X137360646Y-126375304D01*
X137380492Y-126250000D01*
X137372573Y-126199999D01*
X139344508Y-126199999D01*
X139344508Y-126200000D01*
X139364354Y-126325303D01*
X139364355Y-126325307D01*
X139397462Y-126390282D01*
X139421950Y-126438342D01*
X139511658Y-126528050D01*
X139624696Y-126585646D01*
X139750000Y-126605492D01*
X139875304Y-126585646D01*
X139988342Y-126528050D01*
X140078050Y-126438342D01*
X140135646Y-126325304D01*
X140155492Y-126200000D01*
X140135646Y-126074696D01*
X140078050Y-125961658D01*
X139988342Y-125871950D01*
X139973434Y-125864354D01*
X139875307Y-125814355D01*
X139875304Y-125814354D01*
X139750000Y-125794508D01*
X139624696Y-125814354D01*
X139624692Y-125814355D01*
X139511659Y-125871949D01*
X139421949Y-125961659D01*
X139364355Y-126074692D01*
X139364354Y-126074696D01*
X139344508Y-126199999D01*
X137372573Y-126199999D01*
X137360646Y-126124696D01*
X137303050Y-126011658D01*
X137213342Y-125921950D01*
X137176249Y-125903050D01*
X137100307Y-125864355D01*
X137100304Y-125864354D01*
X136975000Y-125844508D01*
X136849696Y-125864354D01*
X136849692Y-125864355D01*
X136736659Y-125921949D01*
X136646949Y-126011659D01*
X136589355Y-126124692D01*
X136589354Y-126124696D01*
X136569508Y-126249999D01*
X135791502Y-126249999D01*
X135755099Y-126053589D01*
X135754290Y-126048477D01*
X135751006Y-126023529D01*
X135691956Y-125574999D01*
X141294508Y-125574999D01*
X141294508Y-125575000D01*
X141314354Y-125700303D01*
X141314355Y-125700307D01*
X141369292Y-125808126D01*
X141371950Y-125813342D01*
X141461658Y-125903050D01*
X141574696Y-125960646D01*
X141700000Y-125980492D01*
X141825304Y-125960646D01*
X141938342Y-125903050D01*
X142028050Y-125813342D01*
X142085646Y-125700304D01*
X142089654Y-125674999D01*
X161344196Y-125674999D01*
X161344196Y-125675000D01*
X161365281Y-125808127D01*
X161365282Y-125808129D01*
X161423277Y-125921950D01*
X161426472Y-125928220D01*
X161521780Y-126023528D01*
X161641874Y-126084719D01*
X161775000Y-126105804D01*
X161908126Y-126084719D01*
X162028220Y-126023528D01*
X162123528Y-125928220D01*
X162184719Y-125808126D01*
X162205804Y-125675000D01*
X162184719Y-125541874D01*
X162123528Y-125421780D01*
X162028220Y-125326472D01*
X162028217Y-125326470D01*
X161908129Y-125265282D01*
X161908127Y-125265281D01*
X161775000Y-125244196D01*
X161641872Y-125265281D01*
X161641870Y-125265282D01*
X161521782Y-125326470D01*
X161426470Y-125421782D01*
X161365282Y-125541870D01*
X161365281Y-125541872D01*
X161344196Y-125674999D01*
X142089654Y-125674999D01*
X142105492Y-125575000D01*
X142085646Y-125449696D01*
X142028050Y-125336658D01*
X141938342Y-125246950D01*
X141932937Y-125244196D01*
X141825307Y-125189355D01*
X141825304Y-125189354D01*
X141700000Y-125169508D01*
X141574696Y-125189354D01*
X141574692Y-125189355D01*
X141461659Y-125246949D01*
X141371949Y-125336659D01*
X141314355Y-125449692D01*
X141314354Y-125449696D01*
X141294508Y-125574999D01*
X135691956Y-125574999D01*
X135655538Y-125298378D01*
X135655003Y-125293288D01*
X135641758Y-125124999D01*
X158994508Y-125124999D01*
X158994508Y-125125000D01*
X159014354Y-125250303D01*
X159014355Y-125250307D01*
X159036239Y-125293256D01*
X159071950Y-125363342D01*
X159161658Y-125453050D01*
X159274696Y-125510646D01*
X159400000Y-125530492D01*
X159525304Y-125510646D01*
X159638342Y-125453050D01*
X159728050Y-125363342D01*
X159785646Y-125250304D01*
X159805492Y-125125000D01*
X159785646Y-124999696D01*
X159728050Y-124886658D01*
X159638342Y-124796950D01*
X159634406Y-124794944D01*
X159525307Y-124739355D01*
X159525304Y-124739354D01*
X159400000Y-124719508D01*
X159274696Y-124739354D01*
X159274692Y-124739355D01*
X159161659Y-124796949D01*
X159071949Y-124886659D01*
X159014355Y-124999692D01*
X159014354Y-124999696D01*
X158994508Y-125124999D01*
X135641758Y-125124999D01*
X135595643Y-124539041D01*
X135595372Y-124533866D01*
X135588193Y-124259719D01*
X135575567Y-123777558D01*
X135575567Y-123774999D01*
X138194508Y-123774999D01*
X138194508Y-123775000D01*
X138214354Y-123900303D01*
X138214355Y-123900307D01*
X138242474Y-123955492D01*
X138271950Y-124013342D01*
X138361658Y-124103050D01*
X138474696Y-124160646D01*
X138600000Y-124180492D01*
X138725304Y-124160646D01*
X138838342Y-124103050D01*
X138928050Y-124013342D01*
X138985646Y-123900304D01*
X138993613Y-123850001D01*
X150769196Y-123850001D01*
X150769196Y-123850002D01*
X150790281Y-123983129D01*
X150790282Y-123983131D01*
X150851384Y-124103050D01*
X150851472Y-124103222D01*
X150946780Y-124198530D01*
X151066874Y-124259721D01*
X151200000Y-124280806D01*
X151333126Y-124259721D01*
X151453220Y-124198530D01*
X151544271Y-124107478D01*
X151598785Y-124079702D01*
X151659217Y-124089272D01*
X151714351Y-124117365D01*
X151847477Y-124138450D01*
X151980603Y-124117365D01*
X152100697Y-124056174D01*
X152196005Y-123960866D01*
X152257196Y-123840772D01*
X152278281Y-123707646D01*
X152257196Y-123574520D01*
X152244702Y-123550000D01*
X163144508Y-123550000D01*
X163160297Y-123649692D01*
X163164354Y-123675303D01*
X163164355Y-123675307D01*
X163180833Y-123707646D01*
X163221950Y-123788342D01*
X163311658Y-123878050D01*
X163424696Y-123935646D01*
X163550000Y-123955492D01*
X163675304Y-123935646D01*
X163788342Y-123878050D01*
X163878050Y-123788342D01*
X163935646Y-123675304D01*
X163955492Y-123550000D01*
X163955051Y-123547218D01*
X163945360Y-123486028D01*
X163935646Y-123424696D01*
X163878050Y-123311658D01*
X163788342Y-123221950D01*
X163784406Y-123219944D01*
X163675307Y-123164355D01*
X163675304Y-123164354D01*
X163550000Y-123144508D01*
X163424696Y-123164354D01*
X163424692Y-123164355D01*
X163311659Y-123221949D01*
X163221949Y-123311659D01*
X163164355Y-123424692D01*
X163164354Y-123424696D01*
X163144949Y-123547218D01*
X163144508Y-123550000D01*
X152244702Y-123550000D01*
X152196005Y-123454426D01*
X152100697Y-123359118D01*
X152100694Y-123359116D01*
X151980606Y-123297928D01*
X151980604Y-123297927D01*
X151847477Y-123276842D01*
X151714349Y-123297927D01*
X151714347Y-123297928D01*
X151594259Y-123359116D01*
X151594255Y-123359119D01*
X151503206Y-123450168D01*
X151448690Y-123477945D01*
X151388258Y-123468374D01*
X151352526Y-123450168D01*
X151333126Y-123440283D01*
X151200000Y-123419198D01*
X151066872Y-123440283D01*
X151066870Y-123440284D01*
X150946782Y-123501472D01*
X150851470Y-123596784D01*
X150790282Y-123716872D01*
X150790281Y-123716874D01*
X150769196Y-123850001D01*
X138993613Y-123850001D01*
X139005492Y-123775000D01*
X139005081Y-123772408D01*
X138996286Y-123716876D01*
X138985646Y-123649696D01*
X138928050Y-123536658D01*
X138838342Y-123446950D01*
X138825257Y-123440283D01*
X138725307Y-123389355D01*
X138725304Y-123389354D01*
X138600000Y-123369508D01*
X138474696Y-123389354D01*
X138474692Y-123389355D01*
X138361659Y-123446949D01*
X138271949Y-123536659D01*
X138214355Y-123649692D01*
X138214354Y-123649696D01*
X138194508Y-123774999D01*
X135575567Y-123774999D01*
X135575567Y-123772441D01*
X135592194Y-123137499D01*
X145581696Y-123137499D01*
X145581696Y-123137500D01*
X145602781Y-123270627D01*
X145602782Y-123270629D01*
X145663276Y-123389354D01*
X145663972Y-123390720D01*
X145759280Y-123486028D01*
X145879374Y-123547219D01*
X146012500Y-123568304D01*
X146145626Y-123547219D01*
X146265720Y-123486028D01*
X146361028Y-123390720D01*
X146422219Y-123270626D01*
X146443304Y-123137500D01*
X146442863Y-123134718D01*
X146423670Y-123013538D01*
X146422219Y-123004374D01*
X146361028Y-122884280D01*
X146265720Y-122788972D01*
X146265717Y-122788970D01*
X146145629Y-122727782D01*
X146145627Y-122727781D01*
X146012500Y-122706696D01*
X145879372Y-122727781D01*
X145879370Y-122727782D01*
X145759282Y-122788970D01*
X145663970Y-122884282D01*
X145602782Y-123004370D01*
X145602781Y-123004372D01*
X145581696Y-123137499D01*
X135592194Y-123137499D01*
X135595372Y-123016131D01*
X135595643Y-123010958D01*
X135596161Y-123004372D01*
X135655003Y-122256707D01*
X135655538Y-122251625D01*
X135672208Y-122124999D01*
X136519508Y-122124999D01*
X136519508Y-122125000D01*
X136539354Y-122250303D01*
X136539355Y-122250307D01*
X136572462Y-122315282D01*
X136596950Y-122363342D01*
X136686658Y-122453050D01*
X136799696Y-122510646D01*
X136925000Y-122530492D01*
X137050304Y-122510646D01*
X137163342Y-122453050D01*
X137253050Y-122363342D01*
X137310646Y-122250304D01*
X137310694Y-122250000D01*
X139669508Y-122250000D01*
X139687459Y-122363342D01*
X139689354Y-122375303D01*
X139689355Y-122375307D01*
X139701937Y-122400000D01*
X139746950Y-122488342D01*
X139836658Y-122578050D01*
X139949696Y-122635646D01*
X140075000Y-122655492D01*
X140200304Y-122635646D01*
X140270265Y-122599999D01*
X141419508Y-122599999D01*
X141419508Y-122600000D01*
X141439354Y-122725303D01*
X141439355Y-122725307D01*
X141482365Y-122809717D01*
X141496950Y-122838342D01*
X141586658Y-122928050D01*
X141699696Y-122985646D01*
X141825000Y-123005492D01*
X141950304Y-122985646D01*
X142063342Y-122928050D01*
X142153050Y-122838342D01*
X142210646Y-122725304D01*
X142230492Y-122600000D01*
X142210646Y-122474696D01*
X142153050Y-122361658D01*
X142141391Y-122349999D01*
X152969196Y-122349999D01*
X152969196Y-122350000D01*
X152990281Y-122483127D01*
X152990282Y-122483129D01*
X153049831Y-122600000D01*
X153051472Y-122603220D01*
X153146780Y-122698528D01*
X153266874Y-122759719D01*
X153400000Y-122780804D01*
X153533126Y-122759719D01*
X153653220Y-122698528D01*
X153748528Y-122603220D01*
X153809719Y-122483126D01*
X153822885Y-122399999D01*
X154069196Y-122399999D01*
X154069196Y-122400000D01*
X154090281Y-122533127D01*
X154090282Y-122533129D01*
X154151470Y-122653217D01*
X154151472Y-122653220D01*
X154246780Y-122748528D01*
X154366874Y-122809719D01*
X154500000Y-122830804D01*
X154633126Y-122809719D01*
X154753220Y-122748528D01*
X154776749Y-122724999D01*
X159569196Y-122724999D01*
X159569196Y-122725000D01*
X159590281Y-122858127D01*
X159590282Y-122858129D01*
X159603607Y-122884280D01*
X159651472Y-122978220D01*
X159746780Y-123073528D01*
X159866874Y-123134719D01*
X160000000Y-123155804D01*
X160133126Y-123134719D01*
X160253220Y-123073528D01*
X160348528Y-122978220D01*
X160409719Y-122858126D01*
X160430804Y-122725000D01*
X160409719Y-122591874D01*
X160348528Y-122471780D01*
X160253220Y-122376472D01*
X160253217Y-122376470D01*
X160133129Y-122315282D01*
X160133127Y-122315281D01*
X160000000Y-122294196D01*
X159866872Y-122315281D01*
X159866870Y-122315282D01*
X159746782Y-122376470D01*
X159651470Y-122471782D01*
X159590282Y-122591870D01*
X159590281Y-122591872D01*
X159569196Y-122724999D01*
X154776749Y-122724999D01*
X154848528Y-122653220D01*
X154909719Y-122533126D01*
X154930804Y-122400000D01*
X154909719Y-122266874D01*
X154848528Y-122146780D01*
X154753220Y-122051472D01*
X154753217Y-122051470D01*
X154633129Y-121990282D01*
X154633127Y-121990281D01*
X154500000Y-121969196D01*
X154366872Y-121990281D01*
X154366870Y-121990282D01*
X154246782Y-122051470D01*
X154151470Y-122146782D01*
X154090282Y-122266870D01*
X154090281Y-122266872D01*
X154069196Y-122399999D01*
X153822885Y-122399999D01*
X153830804Y-122350000D01*
X153809719Y-122216874D01*
X153748528Y-122096780D01*
X153653220Y-122001472D01*
X153653217Y-122001470D01*
X153533129Y-121940282D01*
X153533127Y-121940281D01*
X153400000Y-121919196D01*
X153266872Y-121940281D01*
X153266870Y-121940282D01*
X153146782Y-122001470D01*
X153051470Y-122096782D01*
X152990282Y-122216870D01*
X152990281Y-122216872D01*
X152969196Y-122349999D01*
X142141391Y-122349999D01*
X142063342Y-122271950D01*
X142033497Y-122256743D01*
X141950307Y-122214355D01*
X141950304Y-122214354D01*
X141825000Y-122194508D01*
X141699696Y-122214354D01*
X141699692Y-122214355D01*
X141586659Y-122271949D01*
X141496949Y-122361659D01*
X141439355Y-122474692D01*
X141439354Y-122474696D01*
X141419508Y-122599999D01*
X140270265Y-122599999D01*
X140313342Y-122578050D01*
X140403050Y-122488342D01*
X140460646Y-122375304D01*
X140480492Y-122250000D01*
X140460646Y-122124696D01*
X140403050Y-122011658D01*
X140313342Y-121921950D01*
X140244078Y-121886658D01*
X140200307Y-121864355D01*
X140200304Y-121864354D01*
X140075000Y-121844508D01*
X139949696Y-121864354D01*
X139949692Y-121864355D01*
X139836659Y-121921949D01*
X139746949Y-122011659D01*
X139689355Y-122124692D01*
X139689354Y-122124696D01*
X139674755Y-122216874D01*
X139669508Y-122250000D01*
X137310694Y-122250000D01*
X137330492Y-122125000D01*
X137310646Y-121999696D01*
X137253050Y-121886658D01*
X137163342Y-121796950D01*
X137159406Y-121794944D01*
X137050307Y-121739355D01*
X137050304Y-121739354D01*
X136925000Y-121719508D01*
X136799696Y-121739354D01*
X136799692Y-121739355D01*
X136686659Y-121796949D01*
X136596949Y-121886659D01*
X136539355Y-121999692D01*
X136539354Y-121999696D01*
X136519508Y-122124999D01*
X135672208Y-122124999D01*
X135754291Y-121501510D01*
X135755101Y-121496403D01*
X135772372Y-121403220D01*
X135892968Y-120752537D01*
X135894043Y-120747480D01*
X135895771Y-120740282D01*
X136070662Y-120011810D01*
X136072000Y-120006819D01*
X136072026Y-120006734D01*
X136243824Y-119426751D01*
X137311998Y-119426751D01*
X137311998Y-119564742D01*
X137329944Y-119654963D01*
X137338720Y-119699082D01*
X137338918Y-119700074D01*
X137338918Y-119700076D01*
X137391720Y-119827553D01*
X137391726Y-119827564D01*
X137468383Y-119942288D01*
X137565956Y-120039861D01*
X137680680Y-120116518D01*
X137680691Y-120116524D01*
X137697601Y-120123528D01*
X137808170Y-120169327D01*
X137943505Y-120196247D01*
X137943506Y-120196247D01*
X138290148Y-120196247D01*
X138348339Y-120215154D01*
X138384303Y-120264654D01*
X138384303Y-120325840D01*
X138351843Y-120370516D01*
X138352290Y-120370963D01*
X138349470Y-120373782D01*
X138348339Y-120375340D01*
X138348338Y-120375340D01*
X138346783Y-120376469D01*
X138251470Y-120471782D01*
X138190282Y-120591870D01*
X138190281Y-120591872D01*
X138169196Y-120724999D01*
X138169196Y-120725000D01*
X138190281Y-120858127D01*
X138190282Y-120858129D01*
X138243890Y-120963340D01*
X138251472Y-120978220D01*
X138346780Y-121073528D01*
X138466874Y-121134719D01*
X138600000Y-121155804D01*
X138636651Y-121149999D01*
X144269196Y-121149999D01*
X144269196Y-121150000D01*
X144290281Y-121283127D01*
X144290282Y-121283129D01*
X144351470Y-121403217D01*
X144351472Y-121403220D01*
X144446780Y-121498528D01*
X144566874Y-121559719D01*
X144700000Y-121580804D01*
X144833126Y-121559719D01*
X144953220Y-121498528D01*
X145048528Y-121403220D01*
X145109719Y-121283126D01*
X145130804Y-121150000D01*
X145109719Y-121016874D01*
X145048528Y-120896780D01*
X144953220Y-120801472D01*
X144953217Y-120801470D01*
X144833129Y-120740282D01*
X144833127Y-120740281D01*
X144700000Y-120719196D01*
X144566872Y-120740281D01*
X144566870Y-120740282D01*
X144446782Y-120801470D01*
X144351470Y-120896782D01*
X144290282Y-121016870D01*
X144290281Y-121016872D01*
X144269196Y-121149999D01*
X138636651Y-121149999D01*
X138733126Y-121134719D01*
X138853220Y-121073528D01*
X138948528Y-120978220D01*
X139009719Y-120858126D01*
X139030804Y-120725000D01*
X139009719Y-120591874D01*
X139002417Y-120577544D01*
X138948529Y-120471782D01*
X138948528Y-120471780D01*
X138853220Y-120376472D01*
X138853217Y-120376470D01*
X138853216Y-120376469D01*
X138851662Y-120375340D01*
X138850532Y-120373785D01*
X138847710Y-120370963D01*
X138848157Y-120370515D01*
X138815698Y-120325840D01*
X138815697Y-120286544D01*
X145869201Y-120286544D01*
X145869201Y-120433459D01*
X145897861Y-120577543D01*
X145897861Y-120577545D01*
X145954079Y-120713268D01*
X145954079Y-120713269D01*
X145972129Y-120740282D01*
X146035700Y-120835422D01*
X146139581Y-120939303D01*
X146261732Y-121020922D01*
X146397459Y-121077142D01*
X146541546Y-121105802D01*
X146541548Y-121105802D01*
X146688454Y-121105802D01*
X146688456Y-121105802D01*
X146832543Y-121077142D01*
X146968270Y-121020922D01*
X147090421Y-120939303D01*
X147194302Y-120835422D01*
X147268084Y-120725000D01*
X163119508Y-120725000D01*
X163136997Y-120835425D01*
X163139354Y-120850303D01*
X163139355Y-120850307D01*
X163143340Y-120858127D01*
X163196950Y-120963342D01*
X163286658Y-121053050D01*
X163399696Y-121110646D01*
X163525000Y-121130492D01*
X163650304Y-121110646D01*
X163763342Y-121053050D01*
X163853050Y-120963342D01*
X163910646Y-120850304D01*
X163930492Y-120725000D01*
X163910646Y-120599696D01*
X163853050Y-120486658D01*
X163763342Y-120396950D01*
X163723146Y-120376469D01*
X163650307Y-120339355D01*
X163650304Y-120339354D01*
X163525000Y-120319508D01*
X163399696Y-120339354D01*
X163399692Y-120339355D01*
X163286659Y-120396949D01*
X163196949Y-120486659D01*
X163139355Y-120599692D01*
X163139354Y-120599696D01*
X163119508Y-120725000D01*
X147268084Y-120725000D01*
X147275921Y-120713271D01*
X147332141Y-120577544D01*
X147360801Y-120433457D01*
X147360801Y-120299999D01*
X147869508Y-120299999D01*
X147869508Y-120300000D01*
X147889354Y-120425303D01*
X147889355Y-120425307D01*
X147920616Y-120486659D01*
X147946950Y-120538342D01*
X148036658Y-120628050D01*
X148149696Y-120685646D01*
X148275000Y-120705492D01*
X148400304Y-120685646D01*
X148513342Y-120628050D01*
X148603050Y-120538342D01*
X148660646Y-120425304D01*
X148680492Y-120300000D01*
X148660646Y-120174696D01*
X148603050Y-120061658D01*
X148513342Y-119971950D01*
X148509406Y-119969944D01*
X148400307Y-119914355D01*
X148400304Y-119914354D01*
X148275000Y-119894508D01*
X148149696Y-119914354D01*
X148149692Y-119914355D01*
X148036659Y-119971949D01*
X147946949Y-120061659D01*
X147889355Y-120174692D01*
X147889354Y-120174696D01*
X147869508Y-120299999D01*
X147360801Y-120299999D01*
X147360801Y-120286547D01*
X147332141Y-120142460D01*
X147298672Y-120061658D01*
X147275922Y-120006735D01*
X147275922Y-120006734D01*
X147232861Y-119942290D01*
X147194302Y-119884582D01*
X147159719Y-119849999D01*
X152169196Y-119849999D01*
X152169196Y-119850000D01*
X152190281Y-119983127D01*
X152190282Y-119983129D01*
X152251470Y-120103217D01*
X152251472Y-120103220D01*
X152346780Y-120198528D01*
X152466874Y-120259719D01*
X152600000Y-120280804D01*
X152733126Y-120259719D01*
X152853220Y-120198528D01*
X152948528Y-120103220D01*
X153009719Y-119983126D01*
X153030804Y-119850000D01*
X153018925Y-119774999D01*
X161719196Y-119774999D01*
X161719196Y-119775000D01*
X161740281Y-119908127D01*
X161740282Y-119908129D01*
X161801470Y-120028217D01*
X161801472Y-120028220D01*
X161896780Y-120123528D01*
X161896782Y-120123529D01*
X161986665Y-120169327D01*
X162016874Y-120184719D01*
X162150000Y-120205804D01*
X162283126Y-120184719D01*
X162403220Y-120123528D01*
X162498528Y-120028220D01*
X162559719Y-119908126D01*
X162580804Y-119775000D01*
X162559719Y-119641874D01*
X162498528Y-119521780D01*
X162403220Y-119426472D01*
X162403217Y-119426470D01*
X162283129Y-119365282D01*
X162283127Y-119365281D01*
X162150000Y-119344196D01*
X162016872Y-119365281D01*
X162016870Y-119365282D01*
X161896782Y-119426470D01*
X161801470Y-119521782D01*
X161740282Y-119641870D01*
X161740281Y-119641872D01*
X161719196Y-119774999D01*
X153018925Y-119774999D01*
X153009719Y-119716874D01*
X153001160Y-119700077D01*
X152948529Y-119596782D01*
X152948528Y-119596780D01*
X152853220Y-119501472D01*
X152853217Y-119501470D01*
X152733129Y-119440282D01*
X152733127Y-119440281D01*
X152600000Y-119419196D01*
X152466872Y-119440281D01*
X152466870Y-119440282D01*
X152346782Y-119501470D01*
X152251470Y-119596782D01*
X152190282Y-119716870D01*
X152190281Y-119716872D01*
X152169196Y-119849999D01*
X147159719Y-119849999D01*
X147090421Y-119780701D01*
X146968270Y-119699082D01*
X146968269Y-119699081D01*
X146968267Y-119699080D01*
X146832543Y-119642862D01*
X146688458Y-119614202D01*
X146688456Y-119614202D01*
X146541546Y-119614202D01*
X146541543Y-119614202D01*
X146397459Y-119642862D01*
X146397457Y-119642862D01*
X146261734Y-119699080D01*
X146261733Y-119699080D01*
X146139581Y-119780701D01*
X146139577Y-119780704D01*
X146035703Y-119884578D01*
X146035700Y-119884582D01*
X145954079Y-120006734D01*
X145954079Y-120006735D01*
X145897861Y-120142458D01*
X145897861Y-120142460D01*
X145869201Y-120286544D01*
X138815697Y-120286544D01*
X138815697Y-120264655D01*
X138851661Y-120215155D01*
X138909851Y-120196247D01*
X139281490Y-120196247D01*
X139281491Y-120196247D01*
X139416826Y-120169327D01*
X139544309Y-120116522D01*
X139659040Y-120039861D01*
X139756612Y-119942289D01*
X139833273Y-119827558D01*
X139886078Y-119700075D01*
X139912998Y-119564740D01*
X139912998Y-119426754D01*
X139912998Y-119426752D01*
X141511999Y-119426752D01*
X141511999Y-119564743D01*
X141538919Y-119700075D01*
X141538919Y-119700077D01*
X141591721Y-119827554D01*
X141591727Y-119827565D01*
X141668384Y-119942289D01*
X141765957Y-120039862D01*
X141880681Y-120116519D01*
X141880692Y-120116525D01*
X141897602Y-120123529D01*
X142008171Y-120169328D01*
X142143506Y-120196248D01*
X142143507Y-120196248D01*
X143081491Y-120196248D01*
X143081492Y-120196248D01*
X143216827Y-120169328D01*
X143344310Y-120116523D01*
X143459041Y-120039862D01*
X143556613Y-119942290D01*
X143633274Y-119827559D01*
X143686079Y-119700076D01*
X143712999Y-119564741D01*
X143712999Y-119426755D01*
X143686079Y-119291420D01*
X143657957Y-119223528D01*
X143633276Y-119163941D01*
X143633270Y-119163930D01*
X143556613Y-119049206D01*
X143459040Y-118951633D01*
X143344350Y-118874999D01*
X148144196Y-118874999D01*
X148144196Y-118875000D01*
X148165281Y-119008127D01*
X148165282Y-119008129D01*
X148186212Y-119049206D01*
X148226472Y-119128220D01*
X148321780Y-119223528D01*
X148441874Y-119284719D01*
X148575000Y-119305804D01*
X148708126Y-119284719D01*
X148828220Y-119223528D01*
X148923528Y-119128220D01*
X148984719Y-119008126D01*
X149005804Y-118875000D01*
X148984719Y-118741874D01*
X148923528Y-118621780D01*
X148828220Y-118526472D01*
X148828217Y-118526470D01*
X148708129Y-118465282D01*
X148708128Y-118465281D01*
X148701553Y-118464240D01*
X148647037Y-118436460D01*
X148619261Y-118381943D01*
X148628835Y-118321511D01*
X148672101Y-118278248D01*
X148701553Y-118268679D01*
X148758126Y-118259719D01*
X148878220Y-118198528D01*
X148973528Y-118103220D01*
X149034719Y-117983126D01*
X149055804Y-117850000D01*
X149034719Y-117716874D01*
X148973528Y-117596780D01*
X148878220Y-117501472D01*
X148878217Y-117501470D01*
X148758129Y-117440282D01*
X148758127Y-117440281D01*
X148625000Y-117419196D01*
X148491872Y-117440281D01*
X148491870Y-117440282D01*
X148371782Y-117501470D01*
X148276470Y-117596782D01*
X148215282Y-117716870D01*
X148215281Y-117716872D01*
X148194196Y-117849999D01*
X148194196Y-117850000D01*
X148215281Y-117983127D01*
X148215282Y-117983129D01*
X148276470Y-118103217D01*
X148276472Y-118103220D01*
X148371780Y-118198528D01*
X148371782Y-118198529D01*
X148491870Y-118259717D01*
X148491871Y-118259717D01*
X148491874Y-118259719D01*
X148498444Y-118260759D01*
X148552958Y-118288535D01*
X148580737Y-118343051D01*
X148571167Y-118403483D01*
X148527903Y-118446749D01*
X148498444Y-118456321D01*
X148441872Y-118465281D01*
X148441870Y-118465282D01*
X148321782Y-118526470D01*
X148226470Y-118621782D01*
X148165282Y-118741870D01*
X148165281Y-118741872D01*
X148144196Y-118874999D01*
X143344350Y-118874999D01*
X143344316Y-118874976D01*
X143344305Y-118874970D01*
X143216827Y-118822168D01*
X143081494Y-118795248D01*
X143081492Y-118795248D01*
X142143506Y-118795248D01*
X142143503Y-118795248D01*
X142008171Y-118822168D01*
X142008169Y-118822168D01*
X141880692Y-118874970D01*
X141880681Y-118874976D01*
X141765957Y-118951633D01*
X141668384Y-119049206D01*
X141591727Y-119163930D01*
X141591721Y-119163941D01*
X141538919Y-119291418D01*
X141538919Y-119291420D01*
X141511999Y-119426752D01*
X139912998Y-119426752D01*
X139886078Y-119291419D01*
X139833273Y-119163936D01*
X139833272Y-119163934D01*
X139833269Y-119163929D01*
X139756612Y-119049205D01*
X139659039Y-118951632D01*
X139544315Y-118874975D01*
X139544304Y-118874969D01*
X139416826Y-118822167D01*
X139281493Y-118795247D01*
X139281491Y-118795247D01*
X137943505Y-118795247D01*
X137943502Y-118795247D01*
X137808170Y-118822167D01*
X137808168Y-118822167D01*
X137680691Y-118874969D01*
X137680680Y-118874975D01*
X137565956Y-118951632D01*
X137468383Y-119049205D01*
X137391726Y-119163929D01*
X137391720Y-119163940D01*
X137338918Y-119291417D01*
X137338918Y-119291419D01*
X137311998Y-119426751D01*
X136243824Y-119426751D01*
X136286872Y-119281424D01*
X136288471Y-119276505D01*
X136307231Y-119223529D01*
X136541012Y-118563354D01*
X136542860Y-118558540D01*
X136581489Y-118465281D01*
X136832386Y-117859559D01*
X136834467Y-117854883D01*
X136896419Y-117724999D01*
X137994196Y-117724999D01*
X137994196Y-117725000D01*
X138015281Y-117858127D01*
X138015282Y-117858129D01*
X138016023Y-117859583D01*
X138076472Y-117978220D01*
X138171780Y-118073528D01*
X138291874Y-118134719D01*
X138425000Y-118155804D01*
X138558126Y-118134719D01*
X138678220Y-118073528D01*
X138773528Y-117978220D01*
X138834719Y-117858126D01*
X138855804Y-117725000D01*
X138834719Y-117591874D01*
X138773528Y-117471780D01*
X138678220Y-117376472D01*
X138678217Y-117376470D01*
X138558129Y-117315282D01*
X138558127Y-117315281D01*
X138425000Y-117294196D01*
X138291872Y-117315281D01*
X138291870Y-117315282D01*
X138171782Y-117376470D01*
X138076470Y-117471782D01*
X138015282Y-117591870D01*
X138015281Y-117591872D01*
X137994196Y-117724999D01*
X136896419Y-117724999D01*
X137160190Y-117171993D01*
X137162538Y-117167386D01*
X137170322Y-117153050D01*
X137348439Y-116824999D01*
X141119508Y-116824999D01*
X141119508Y-116825000D01*
X141139354Y-116950303D01*
X141139355Y-116950307D01*
X141179053Y-117028217D01*
X141196950Y-117063342D01*
X141286658Y-117153050D01*
X141399696Y-117210646D01*
X141525000Y-117230492D01*
X141650304Y-117210646D01*
X141763342Y-117153050D01*
X141853050Y-117063342D01*
X141910646Y-116950304D01*
X141930492Y-116825000D01*
X141922573Y-116774999D01*
X144494196Y-116774999D01*
X144494196Y-116775000D01*
X144515281Y-116908127D01*
X144515282Y-116908129D01*
X144536773Y-116950307D01*
X144576472Y-117028220D01*
X144671780Y-117123528D01*
X144791874Y-117184719D01*
X144925000Y-117205804D01*
X145058126Y-117184719D01*
X145178220Y-117123528D01*
X145273528Y-117028220D01*
X145334719Y-116908126D01*
X145355804Y-116775000D01*
X145334719Y-116641874D01*
X145273528Y-116521780D01*
X145178220Y-116426472D01*
X145178217Y-116426470D01*
X145058129Y-116365282D01*
X145058127Y-116365281D01*
X144925000Y-116344196D01*
X144791872Y-116365281D01*
X144791870Y-116365282D01*
X144671782Y-116426470D01*
X144576470Y-116521782D01*
X144515282Y-116641870D01*
X144515281Y-116641872D01*
X144494196Y-116774999D01*
X141922573Y-116774999D01*
X141910646Y-116699696D01*
X141853050Y-116586658D01*
X141763342Y-116496950D01*
X141759406Y-116494944D01*
X141650307Y-116439355D01*
X141650304Y-116439354D01*
X141525000Y-116419508D01*
X141399696Y-116439354D01*
X141399692Y-116439355D01*
X141286659Y-116496949D01*
X141196949Y-116586659D01*
X141139355Y-116699692D01*
X141139354Y-116699696D01*
X141119508Y-116824999D01*
X137348439Y-116824999D01*
X137523552Y-116502480D01*
X137526103Y-116498062D01*
X137921413Y-115852976D01*
X137924208Y-115848670D01*
X138352770Y-115225108D01*
X138355762Y-115220990D01*
X138816355Y-114620735D01*
X138819582Y-114616750D01*
X138983352Y-114424999D01*
X140544196Y-114424999D01*
X140544196Y-114425000D01*
X140565281Y-114558127D01*
X140565282Y-114558129D01*
X140599355Y-114625000D01*
X140626472Y-114678220D01*
X140721780Y-114773528D01*
X140841874Y-114834719D01*
X140975000Y-114855804D01*
X141108126Y-114834719D01*
X141228220Y-114773528D01*
X141323528Y-114678220D01*
X141384719Y-114558126D01*
X141405804Y-114425000D01*
X141384719Y-114291874D01*
X141323528Y-114171780D01*
X141228220Y-114076472D01*
X141228217Y-114076470D01*
X141108129Y-114015282D01*
X141108127Y-114015281D01*
X140975000Y-113994196D01*
X140841872Y-114015281D01*
X140841870Y-114015282D01*
X140721782Y-114076470D01*
X140626470Y-114171782D01*
X140565282Y-114291870D01*
X140565281Y-114291872D01*
X140544196Y-114424999D01*
X138983352Y-114424999D01*
X139310930Y-114041454D01*
X139314395Y-114037607D01*
X139355591Y-113994196D01*
X139835183Y-113488811D01*
X139838811Y-113485183D01*
X140387611Y-112964391D01*
X140391459Y-112960927D01*
X140397823Y-112955492D01*
X140966750Y-112469582D01*
X140970735Y-112466355D01*
X140992051Y-112449999D01*
X142144508Y-112449999D01*
X142144508Y-112450000D01*
X142164354Y-112575303D01*
X142164355Y-112575307D01*
X142215306Y-112675303D01*
X142221950Y-112688342D01*
X142311658Y-112778050D01*
X142424696Y-112835646D01*
X142550000Y-112855492D01*
X142675304Y-112835646D01*
X142788342Y-112778050D01*
X142878050Y-112688342D01*
X142935646Y-112575304D01*
X142951532Y-112475000D01*
X144419508Y-112475000D01*
X144435394Y-112575304D01*
X144439354Y-112600303D01*
X144439355Y-112600307D01*
X144477570Y-112675307D01*
X144496950Y-112713342D01*
X144586658Y-112803050D01*
X144699696Y-112860646D01*
X144825000Y-112880492D01*
X144950304Y-112860646D01*
X145063342Y-112803050D01*
X145153050Y-112713342D01*
X145210646Y-112600304D01*
X145218613Y-112549999D01*
X146544508Y-112549999D01*
X146544508Y-112550000D01*
X146564354Y-112675303D01*
X146564355Y-112675307D01*
X146604426Y-112753949D01*
X146621950Y-112788342D01*
X146711658Y-112878050D01*
X146824696Y-112935646D01*
X146950000Y-112955492D01*
X147075304Y-112935646D01*
X147188342Y-112878050D01*
X147278050Y-112788342D01*
X147335646Y-112675304D01*
X147355492Y-112550000D01*
X147335646Y-112424696D01*
X147278050Y-112311658D01*
X147188342Y-112221950D01*
X147184406Y-112219944D01*
X147075307Y-112164355D01*
X147075304Y-112164354D01*
X146950000Y-112144508D01*
X146824696Y-112164354D01*
X146824692Y-112164355D01*
X146711659Y-112221949D01*
X146621949Y-112311659D01*
X146564355Y-112424692D01*
X146564354Y-112424696D01*
X146544508Y-112549999D01*
X145218613Y-112549999D01*
X145230492Y-112475000D01*
X145210646Y-112349696D01*
X145153050Y-112236658D01*
X145063342Y-112146950D01*
X145014275Y-112121949D01*
X144950307Y-112089355D01*
X144950304Y-112089354D01*
X144825000Y-112069508D01*
X144699696Y-112089354D01*
X144699692Y-112089355D01*
X144586659Y-112146949D01*
X144496949Y-112236659D01*
X144439355Y-112349692D01*
X144439354Y-112349696D01*
X144423468Y-112450000D01*
X144419508Y-112475000D01*
X142951532Y-112475000D01*
X142955492Y-112450000D01*
X142935646Y-112324696D01*
X142878050Y-112211658D01*
X142788342Y-112121950D01*
X142784406Y-112119944D01*
X142675307Y-112064355D01*
X142675304Y-112064354D01*
X142550000Y-112044508D01*
X142424696Y-112064354D01*
X142424692Y-112064355D01*
X142311659Y-112121949D01*
X142221949Y-112211659D01*
X142164355Y-112324692D01*
X142164354Y-112324696D01*
X142144508Y-112449999D01*
X140992051Y-112449999D01*
X141570979Y-112005771D01*
X141575127Y-112002757D01*
X141793300Y-111852810D01*
X141849212Y-111835400D01*
X148376425Y-111825154D01*
X148434643Y-111843970D01*
G37*
G04 #@! TD.AperFunction*
M02*
