G04 #@! TF.GenerationSoftware,KiCad,Pcbnew,8.0.6*
G04 #@! TF.CreationDate,2025-07-21T23:48:44+02:00*
G04 #@! TF.ProjectId,nRF5340,6e524635-3334-4302-9e6b-696361645f70,rev?*
G04 #@! TF.SameCoordinates,Original*
G04 #@! TF.FileFunction,Legend,Top*
G04 #@! TF.FilePolarity,Positive*
%FSLAX46Y46*%
G04 Gerber Fmt 4.6, Leading zero omitted, Abs format (unit mm)*
G04 Created by KiCad (PCBNEW 8.0.6) date 2025-07-21 23:48:44*
%MOMM*%
%LPD*%
G01*
G04 APERTURE LIST*
G04 Aperture macros list*
%AMRoundRect*
0 Rectangle with rounded corners*
0 $1 Rounding radius*
0 $2 $3 $4 $5 $6 $7 $8 $9 X,Y pos of 4 corners*
0 Add a 4 corners polygon primitive as box body*
4,1,4,$2,$3,$4,$5,$6,$7,$8,$9,$2,$3,0*
0 Add four circle primitives for the rounded corners*
1,1,$1+$1,$2,$3*
1,1,$1+$1,$4,$5*
1,1,$1+$1,$6,$7*
1,1,$1+$1,$8,$9*
0 Add four rect primitives between the rounded corners*
20,1,$1+$1,$2,$3,$4,$5,0*
20,1,$1+$1,$4,$5,$6,$7,0*
20,1,$1+$1,$6,$7,$8,$9,0*
20,1,$1+$1,$8,$9,$2,$3,0*%
%AMRotRect*
0 Rectangle, with rotation*
0 The origin of the aperture is its center*
0 $1 length*
0 $2 width*
0 $3 Rotation angle, in degrees counterclockwise*
0 Add horizontal line*
21,1,$1,$2,0,0,$3*%
G04 Aperture macros list end*
%ADD10C,0.150000*%
%ADD11C,0.120000*%
%ADD12C,0.125000*%
%ADD13C,0.000000*%
%ADD14C,0.152400*%
%ADD15C,0.127000*%
%ADD16RoundRect,0.200000X-0.200000X-0.275000X0.200000X-0.275000X0.200000X0.275000X-0.200000X0.275000X0*%
%ADD17R,0.254000X0.279400*%
%ADD18R,0.279400X0.254000*%
%ADD19RoundRect,0.225000X0.250000X-0.225000X0.250000X0.225000X-0.250000X0.225000X-0.250000X-0.225000X0*%
%ADD20RoundRect,0.225000X-0.225000X-0.250000X0.225000X-0.250000X0.225000X0.250000X-0.225000X0.250000X0*%
%ADD21RoundRect,0.218750X0.218750X0.256250X-0.218750X0.256250X-0.218750X-0.256250X0.218750X-0.256250X0*%
%ADD22R,0.990600X0.711200*%
%ADD23RoundRect,0.200000X0.200000X0.275000X-0.200000X0.275000X-0.200000X-0.275000X0.200000X-0.275000X0*%
%ADD24RoundRect,0.102000X0.300000X-0.300000X0.300000X0.300000X-0.300000X0.300000X-0.300000X-0.300000X0*%
%ADD25RoundRect,0.150000X-0.512500X-0.150000X0.512500X-0.150000X0.512500X0.150000X-0.512500X0.150000X0*%
%ADD26RoundRect,0.225000X-0.250000X0.225000X-0.250000X-0.225000X0.250000X-0.225000X0.250000X0.225000X0*%
%ADD27C,1.000000*%
%ADD28RotRect,0.990600X0.711200X225.000000*%
%ADD29R,0.254000X0.762000*%
%ADD30R,0.762000X0.254000*%
%ADD31R,2.606800X2.606800*%
%ADD32RoundRect,0.102000X-0.575000X0.300000X-0.575000X-0.300000X0.575000X-0.300000X0.575000X0.300000X0*%
%ADD33RoundRect,0.102000X-0.575000X0.150000X-0.575000X-0.150000X0.575000X-0.150000X0.575000X0.150000X0*%
%ADD34O,2.004000X1.204000*%
%ADD35O,2.404000X1.204000*%
%ADD36R,0.304800X0.711200*%
%ADD37R,1.092200X0.508000*%
%ADD38RoundRect,0.218750X-0.218750X-0.256250X0.218750X-0.256250X0.218750X0.256250X-0.218750X0.256250X0*%
%ADD39RoundRect,0.225000X0.225000X0.250000X-0.225000X0.250000X-0.225000X-0.250000X0.225000X-0.250000X0*%
%ADD40C,0.990600*%
G04 APERTURE END LIST*
D10*
X159725000Y-127300000D02*
X159725000Y-127850000D01*
X144975000Y-128675000D02*
X144975000Y-129825000D01*
X140350000Y-130950000D02*
X140350000Y-130425000D01*
X139950000Y-131250000D02*
X140350000Y-130950000D01*
X159425000Y-127300000D02*
X159725000Y-127300000D01*
X151350000Y-129475000D02*
X151475000Y-129475000D01*
X138900000Y-129175000D02*
X138675000Y-129425000D01*
X159775000Y-129225000D02*
X159775000Y-128700000D01*
D11*
X163307003Y-122025000D02*
G75*
G02*
X162942997Y-122025000I-182003J0D01*
G01*
X162942997Y-122025000D02*
G75*
G02*
X163307003Y-122025000I182003J0D01*
G01*
D10*
X139300000Y-129175000D02*
X138925000Y-129175000D01*
X159775000Y-128175000D02*
X159775000Y-129225000D01*
X144500000Y-129350000D02*
X144900000Y-129350000D01*
X151350000Y-129925000D02*
X151350000Y-129025000D01*
X159775000Y-128700000D02*
X159375000Y-128700000D01*
X159725000Y-127300000D02*
X159725000Y-126700000D01*
X144975000Y-129200000D02*
X144975000Y-128675000D01*
X146650000Y-129775000D02*
X147725000Y-129775000D01*
X151350000Y-129025000D02*
X151350000Y-129475000D01*
D12*
X148134690Y-136623716D02*
X148158500Y-136599906D01*
X148158500Y-136599906D02*
X148182309Y-136623716D01*
X148182309Y-136623716D02*
X148158500Y-136647525D01*
X148158500Y-136647525D02*
X148134690Y-136623716D01*
X148134690Y-136623716D02*
X148182309Y-136623716D01*
G36*
X141196520Y-130482309D02*
G01*
X139280013Y-130482309D01*
X139280013Y-129852878D01*
X139342513Y-129852878D01*
X139345562Y-129877073D01*
X139512228Y-130377073D01*
X139524306Y-130398259D01*
X139528482Y-130400347D01*
X139530571Y-130404524D01*
X139549366Y-130410789D01*
X139567090Y-130419651D01*
X139571521Y-130418174D01*
X139575952Y-130419651D01*
X139593676Y-130410789D01*
X139612471Y-130404524D01*
X139614559Y-130400347D01*
X139618736Y-130398259D01*
X139630814Y-130377073D01*
X139772323Y-129952547D01*
X139818545Y-129952547D01*
X139818545Y-130000166D01*
X139819155Y-130003235D01*
X139818702Y-130004596D01*
X139821349Y-130014262D01*
X139823303Y-130024084D01*
X139824316Y-130025097D01*
X139825143Y-130028116D01*
X139848952Y-130075735D01*
X139855095Y-130083650D01*
X139860660Y-130091979D01*
X139884470Y-130115789D01*
X139892796Y-130121352D01*
X139900714Y-130127497D01*
X139948332Y-130151306D01*
X139954933Y-130153113D01*
X139961124Y-130156038D01*
X140049707Y-130178184D01*
X140082118Y-130194389D01*
X140091583Y-130203855D01*
X140104259Y-130229205D01*
X140104259Y-130247317D01*
X140091583Y-130272667D01*
X140082118Y-130282133D01*
X140056767Y-130294809D01*
X139962616Y-130294809D01*
X139900809Y-130274207D01*
X139876614Y-130271158D01*
X139833829Y-130292550D01*
X139818703Y-130337931D01*
X139840095Y-130380716D01*
X139861281Y-130392793D01*
X139932709Y-130416602D01*
X139942652Y-130417855D01*
X139952473Y-130419809D01*
X140071521Y-130419809D01*
X140074590Y-130419198D01*
X140075951Y-130419652D01*
X140085617Y-130417004D01*
X140095439Y-130415051D01*
X140096452Y-130414037D01*
X140099471Y-130413211D01*
X140147090Y-130389402D01*
X140155004Y-130383259D01*
X140163335Y-130377693D01*
X140187144Y-130353883D01*
X140192711Y-130345549D01*
X140198850Y-130337641D01*
X140222661Y-130290022D01*
X140223487Y-130287002D01*
X140224501Y-130285989D01*
X140226455Y-130276163D01*
X140229101Y-130266502D01*
X140228647Y-130265142D01*
X140229259Y-130262071D01*
X140229259Y-130214452D01*
X140228647Y-130211380D01*
X140229101Y-130210021D01*
X140226455Y-130200359D01*
X140224501Y-130190534D01*
X140223487Y-130189520D01*
X140222661Y-130186501D01*
X140198850Y-130138882D01*
X140192711Y-130130973D01*
X140187144Y-130122640D01*
X140163335Y-130098830D01*
X140155004Y-130093263D01*
X140147090Y-130087121D01*
X140099471Y-130063312D01*
X140092869Y-130061504D01*
X140086680Y-130058580D01*
X139998095Y-130036433D01*
X139965685Y-130020228D01*
X139956221Y-130010764D01*
X139943545Y-129985412D01*
X139943545Y-129967301D01*
X139956220Y-129941949D01*
X139965686Y-129932484D01*
X139991036Y-129919809D01*
X140085187Y-129919809D01*
X140146995Y-129940412D01*
X140171190Y-129943461D01*
X140213974Y-129922069D01*
X140229102Y-129876688D01*
X140224823Y-129868130D01*
X140248060Y-129868130D01*
X140256887Y-129890864D01*
X140413782Y-130137414D01*
X140413782Y-130357309D01*
X140418540Y-130381227D01*
X140452364Y-130415051D01*
X140500200Y-130415051D01*
X140534024Y-130381227D01*
X140538782Y-130357309D01*
X140538782Y-130137414D01*
X140656425Y-129952547D01*
X140723306Y-129952547D01*
X140723306Y-130000166D01*
X140723916Y-130003235D01*
X140723463Y-130004596D01*
X140726110Y-130014262D01*
X140728064Y-130024084D01*
X140729077Y-130025097D01*
X140729904Y-130028116D01*
X140753713Y-130075735D01*
X140759856Y-130083650D01*
X140765421Y-130091979D01*
X140789231Y-130115789D01*
X140797557Y-130121352D01*
X140805475Y-130127497D01*
X140853093Y-130151306D01*
X140859694Y-130153113D01*
X140865885Y-130156038D01*
X140954468Y-130178184D01*
X140986879Y-130194389D01*
X140996344Y-130203855D01*
X141009020Y-130229205D01*
X141009020Y-130247317D01*
X140996344Y-130272667D01*
X140986879Y-130282133D01*
X140961528Y-130294809D01*
X140867377Y-130294809D01*
X140805570Y-130274207D01*
X140781375Y-130271158D01*
X140738590Y-130292550D01*
X140723464Y-130337931D01*
X140744856Y-130380716D01*
X140766042Y-130392793D01*
X140837470Y-130416602D01*
X140847413Y-130417855D01*
X140857234Y-130419809D01*
X140976282Y-130419809D01*
X140979351Y-130419198D01*
X140980712Y-130419652D01*
X140990378Y-130417004D01*
X141000200Y-130415051D01*
X141001213Y-130414037D01*
X141004232Y-130413211D01*
X141051851Y-130389402D01*
X141059765Y-130383259D01*
X141068096Y-130377693D01*
X141091905Y-130353883D01*
X141097472Y-130345549D01*
X141103611Y-130337641D01*
X141127422Y-130290022D01*
X141128248Y-130287002D01*
X141129262Y-130285989D01*
X141131216Y-130276163D01*
X141133862Y-130266502D01*
X141133408Y-130265142D01*
X141134020Y-130262071D01*
X141134020Y-130214452D01*
X141133408Y-130211380D01*
X141133862Y-130210021D01*
X141131216Y-130200359D01*
X141129262Y-130190534D01*
X141128248Y-130189520D01*
X141127422Y-130186501D01*
X141103611Y-130138882D01*
X141097472Y-130130973D01*
X141091905Y-130122640D01*
X141068096Y-130098830D01*
X141059765Y-130093263D01*
X141051851Y-130087121D01*
X141004232Y-130063312D01*
X140997630Y-130061504D01*
X140991441Y-130058580D01*
X140902856Y-130036433D01*
X140870446Y-130020228D01*
X140860982Y-130010764D01*
X140848306Y-129985412D01*
X140848306Y-129967301D01*
X140860981Y-129941949D01*
X140870447Y-129932484D01*
X140895797Y-129919809D01*
X140989948Y-129919809D01*
X141051756Y-129940412D01*
X141075951Y-129943461D01*
X141118735Y-129922069D01*
X141133863Y-129876688D01*
X141112471Y-129833904D01*
X141091285Y-129821826D01*
X141019855Y-129798016D01*
X141009916Y-129796763D01*
X141000091Y-129794809D01*
X140881044Y-129794809D01*
X140877972Y-129795420D01*
X140876613Y-129794967D01*
X140866951Y-129797612D01*
X140857126Y-129799567D01*
X140856112Y-129800580D01*
X140853093Y-129801407D01*
X140805474Y-129825218D01*
X140797565Y-129831356D01*
X140789232Y-129836924D01*
X140765422Y-129860733D01*
X140759855Y-129869063D01*
X140753713Y-129876978D01*
X140729904Y-129924597D01*
X140729077Y-129927615D01*
X140728064Y-129928629D01*
X140726110Y-129938450D01*
X140723463Y-129948117D01*
X140723916Y-129949477D01*
X140723306Y-129952547D01*
X140656425Y-129952547D01*
X140695678Y-129890863D01*
X140704505Y-129868130D01*
X140694128Y-129821435D01*
X140653771Y-129795753D01*
X140607076Y-129806130D01*
X140590220Y-129823754D01*
X140476282Y-130002798D01*
X140362345Y-129823754D01*
X140345490Y-129806130D01*
X140298795Y-129795753D01*
X140258437Y-129821435D01*
X140248060Y-129868130D01*
X140224823Y-129868130D01*
X140207710Y-129833904D01*
X140186524Y-129821826D01*
X140115094Y-129798016D01*
X140105155Y-129796763D01*
X140095330Y-129794809D01*
X139976283Y-129794809D01*
X139973211Y-129795420D01*
X139971852Y-129794967D01*
X139962190Y-129797612D01*
X139952365Y-129799567D01*
X139951351Y-129800580D01*
X139948332Y-129801407D01*
X139900713Y-129825218D01*
X139892804Y-129831356D01*
X139884471Y-129836924D01*
X139860661Y-129860733D01*
X139855094Y-129869063D01*
X139848952Y-129876978D01*
X139825143Y-129924597D01*
X139824316Y-129927615D01*
X139823303Y-129928629D01*
X139821349Y-129938450D01*
X139818702Y-129948117D01*
X139819155Y-129949477D01*
X139818545Y-129952547D01*
X139772323Y-129952547D01*
X139797481Y-129877074D01*
X139800530Y-129852878D01*
X139779138Y-129810094D01*
X139733757Y-129794967D01*
X139690973Y-129816359D01*
X139678895Y-129837545D01*
X139571521Y-130159665D01*
X139464148Y-129837545D01*
X139452070Y-129816359D01*
X139409286Y-129794967D01*
X139363905Y-129810094D01*
X139342513Y-129852878D01*
X139280013Y-129852878D01*
X139280013Y-129732309D01*
X141196520Y-129732309D01*
X141196520Y-130482309D01*
G37*
G36*
X161117522Y-115410746D02*
G01*
X161147537Y-115440761D01*
X161163741Y-115473169D01*
X161184021Y-115554288D01*
X161184021Y-115610329D01*
X161163741Y-115691448D01*
X161147538Y-115723855D01*
X161117520Y-115753873D01*
X161069712Y-115769809D01*
X161023307Y-115769809D01*
X161023307Y-115394809D01*
X161069711Y-115394809D01*
X161117522Y-115410746D01*
G37*
G36*
X161371521Y-115957309D02*
G01*
X159526283Y-115957309D01*
X159526283Y-115498976D01*
X159588783Y-115498976D01*
X159588783Y-115760880D01*
X159589393Y-115763951D01*
X159588941Y-115765310D01*
X159591586Y-115774970D01*
X159593541Y-115784798D01*
X159594554Y-115785811D01*
X159595381Y-115788831D01*
X159619191Y-115836451D01*
X159626820Y-115846280D01*
X159627877Y-115849450D01*
X159631406Y-115852189D01*
X159634144Y-115855716D01*
X159637311Y-115856771D01*
X159647143Y-115864402D01*
X159694761Y-115888211D01*
X159697780Y-115889037D01*
X159698794Y-115890051D01*
X159708621Y-115892005D01*
X159718282Y-115894651D01*
X159719640Y-115894198D01*
X159722712Y-115894809D01*
X159794140Y-115894809D01*
X159797209Y-115894198D01*
X159798570Y-115894652D01*
X159808236Y-115892004D01*
X159818058Y-115890051D01*
X159819071Y-115889037D01*
X159822090Y-115888211D01*
X159833904Y-115882304D01*
X159841651Y-115890051D01*
X159889487Y-115890051D01*
X159923311Y-115856227D01*
X159928069Y-115832309D01*
X159928069Y-115498976D01*
X159923311Y-115475058D01*
X159889487Y-115441234D01*
X159841651Y-115441234D01*
X159807827Y-115475058D01*
X159803069Y-115498976D01*
X159803069Y-115757967D01*
X159779386Y-115769809D01*
X159737466Y-115769809D01*
X159721678Y-115761915D01*
X159713783Y-115746125D01*
X159713783Y-115498976D01*
X159709025Y-115475058D01*
X159675201Y-115441234D01*
X159627365Y-115441234D01*
X159593541Y-115475058D01*
X159588783Y-115498976D01*
X159526283Y-115498976D01*
X159526283Y-115332309D01*
X160041164Y-115332309D01*
X160041164Y-115832309D01*
X160045922Y-115856227D01*
X160079746Y-115890051D01*
X160103664Y-115894809D01*
X160341759Y-115894809D01*
X160365677Y-115890051D01*
X160399501Y-115856227D01*
X160399501Y-115808391D01*
X160365677Y-115774567D01*
X160341759Y-115769809D01*
X160166164Y-115769809D01*
X160166164Y-115332309D01*
X160445926Y-115332309D01*
X160445926Y-115832309D01*
X160450684Y-115856227D01*
X160484508Y-115890051D01*
X160508426Y-115894809D01*
X160746521Y-115894809D01*
X160770439Y-115890051D01*
X160804263Y-115856227D01*
X160804263Y-115808391D01*
X160770439Y-115774567D01*
X160746521Y-115769809D01*
X160570926Y-115769809D01*
X160570926Y-115632904D01*
X160675093Y-115632904D01*
X160699011Y-115628146D01*
X160732835Y-115594322D01*
X160732835Y-115546486D01*
X160699011Y-115512662D01*
X160675093Y-115507904D01*
X160570926Y-115507904D01*
X160570926Y-115394809D01*
X160746521Y-115394809D01*
X160770439Y-115390051D01*
X160804263Y-115356227D01*
X160804263Y-115332309D01*
X160898307Y-115332309D01*
X160898307Y-115832309D01*
X160903065Y-115856227D01*
X160936889Y-115890051D01*
X160960807Y-115894809D01*
X161079855Y-115894809D01*
X161089680Y-115892854D01*
X161099619Y-115891602D01*
X161171047Y-115867793D01*
X161173767Y-115866242D01*
X161175201Y-115866242D01*
X161183534Y-115860673D01*
X161192233Y-115855715D01*
X161192873Y-115854434D01*
X161195478Y-115852694D01*
X161243097Y-115805074D01*
X161248666Y-115796737D01*
X161254803Y-115788831D01*
X161278614Y-115741212D01*
X161280422Y-115734607D01*
X161283346Y-115728419D01*
X161307155Y-115633181D01*
X161307527Y-115625532D01*
X161309021Y-115618023D01*
X161309021Y-115546595D01*
X161307527Y-115539085D01*
X161307155Y-115531437D01*
X161283346Y-115436199D01*
X161280422Y-115430010D01*
X161278614Y-115423406D01*
X161254803Y-115375787D01*
X161248662Y-115367875D01*
X161243096Y-115359544D01*
X161195477Y-115311925D01*
X161192875Y-115310186D01*
X161192234Y-115308904D01*
X161183522Y-115303937D01*
X161175200Y-115298377D01*
X161173769Y-115298377D01*
X161171048Y-115296826D01*
X161099620Y-115273016D01*
X161089678Y-115271763D01*
X161079855Y-115269809D01*
X160960807Y-115269809D01*
X160936889Y-115274567D01*
X160903065Y-115308391D01*
X160898307Y-115332309D01*
X160804263Y-115332309D01*
X160804263Y-115308391D01*
X160770439Y-115274567D01*
X160746521Y-115269809D01*
X160508426Y-115269809D01*
X160484508Y-115274567D01*
X160450684Y-115308391D01*
X160445926Y-115332309D01*
X160166164Y-115332309D01*
X160161406Y-115308391D01*
X160127582Y-115274567D01*
X160079746Y-115274567D01*
X160045922Y-115308391D01*
X160041164Y-115332309D01*
X159526283Y-115332309D01*
X159526283Y-115207309D01*
X161371521Y-115207309D01*
X161371521Y-115957309D01*
G37*
G36*
X141577357Y-129132485D02*
G01*
X141586822Y-129141950D01*
X141599497Y-129167300D01*
X141599497Y-129209222D01*
X141586822Y-129234572D01*
X141577357Y-129244037D01*
X141552005Y-129256714D01*
X141438783Y-129256714D01*
X141438783Y-129119809D01*
X141552005Y-129119809D01*
X141577357Y-129132485D01*
G37*
G36*
X144496525Y-129729928D02*
G01*
X141251283Y-129729928D01*
X141251283Y-129057309D01*
X141313783Y-129057309D01*
X141313783Y-129557309D01*
X141318541Y-129581227D01*
X141352365Y-129615051D01*
X141400201Y-129615051D01*
X141434025Y-129581227D01*
X141438783Y-129557309D01*
X141438783Y-129381714D01*
X141566759Y-129381714D01*
X141569830Y-129381102D01*
X141571190Y-129381556D01*
X141580846Y-129378911D01*
X141590677Y-129376956D01*
X141591691Y-129375941D01*
X141594710Y-129375115D01*
X141642329Y-129351305D01*
X141650237Y-129345166D01*
X141658571Y-129339599D01*
X141682381Y-129315790D01*
X141687945Y-129307462D01*
X141694090Y-129299545D01*
X141717899Y-129251927D01*
X141718725Y-129248907D01*
X141719739Y-129247894D01*
X141721693Y-129238066D01*
X141724339Y-129228406D01*
X141723886Y-129227047D01*
X141724497Y-129223976D01*
X141724497Y-129152547D01*
X141723886Y-129149475D01*
X141724339Y-129148117D01*
X141721693Y-129138456D01*
X141719739Y-129128629D01*
X141718725Y-129127615D01*
X141717899Y-129124596D01*
X141694090Y-129076978D01*
X141687945Y-129069060D01*
X141682381Y-129060733D01*
X141678957Y-129057309D01*
X141813783Y-129057309D01*
X141813783Y-129557309D01*
X141818541Y-129581227D01*
X141852365Y-129615051D01*
X141900201Y-129615051D01*
X141934025Y-129581227D01*
X141938783Y-129557309D01*
X141938783Y-129339030D01*
X141986314Y-129440882D01*
X141995842Y-129453868D01*
X141996858Y-129456662D01*
X141998430Y-129457395D01*
X142000740Y-129460544D01*
X142020835Y-129467851D01*
X142040206Y-129476891D01*
X142042950Y-129475893D01*
X142045694Y-129476891D01*
X142065064Y-129467851D01*
X142085160Y-129460544D01*
X142087469Y-129457395D01*
X142089042Y-129456662D01*
X142090057Y-129453868D01*
X142099586Y-129440882D01*
X142147116Y-129339032D01*
X142147116Y-129557309D01*
X142151874Y-129581227D01*
X142185698Y-129615051D01*
X142233534Y-129615051D01*
X142267358Y-129581227D01*
X142272116Y-129557309D01*
X142272116Y-129057309D01*
X142385212Y-129057309D01*
X142385212Y-129557309D01*
X142389970Y-129581227D01*
X142423794Y-129615051D01*
X142471630Y-129615051D01*
X142505454Y-129581227D01*
X142510212Y-129557309D01*
X142510212Y-129271595D01*
X142599498Y-129271595D01*
X142599498Y-129343023D01*
X142600991Y-129350532D01*
X142601364Y-129358181D01*
X142625173Y-129453419D01*
X142628098Y-129459611D01*
X142629906Y-129466212D01*
X142653716Y-129513831D01*
X142659849Y-129521733D01*
X142665422Y-129530074D01*
X142713041Y-129577694D01*
X142715644Y-129579433D01*
X142716286Y-129580716D01*
X142724990Y-129585677D01*
X142733318Y-129591242D01*
X142734751Y-129591242D01*
X142737472Y-129592793D01*
X142808900Y-129616602D01*
X142818843Y-129617855D01*
X142828664Y-129619809D01*
X142876283Y-129619809D01*
X142886109Y-129617854D01*
X142896047Y-129616602D01*
X142967476Y-129592793D01*
X142970196Y-129591242D01*
X142971630Y-129591242D01*
X142979953Y-129585680D01*
X142988146Y-129581010D01*
X143009018Y-129581010D01*
X143009018Y-129628846D01*
X143042842Y-129662670D01*
X143066760Y-129667428D01*
X143447712Y-129667428D01*
X143471630Y-129662670D01*
X143505454Y-129628846D01*
X143505454Y-129581010D01*
X143471630Y-129547186D01*
X143447712Y-129542428D01*
X143066760Y-129542428D01*
X143042842Y-129547186D01*
X143009018Y-129581010D01*
X142988146Y-129581010D01*
X142988662Y-129580716D01*
X142989303Y-129579432D01*
X142991907Y-129577693D01*
X143015716Y-129553883D01*
X143029264Y-129533606D01*
X143029263Y-129485771D01*
X142995437Y-129451947D01*
X142947603Y-129451948D01*
X142927326Y-129465497D01*
X142913950Y-129478872D01*
X142866140Y-129494809D01*
X142838807Y-129494809D01*
X142790998Y-129478873D01*
X142760982Y-129448856D01*
X142744777Y-129416448D01*
X142724498Y-129335329D01*
X142724498Y-129279288D01*
X142744777Y-129198169D01*
X142760983Y-129165759D01*
X142790996Y-129135746D01*
X142838808Y-129119809D01*
X142866140Y-129119809D01*
X142913951Y-129135746D01*
X142927327Y-129149122D01*
X142947604Y-129162670D01*
X142995438Y-129162670D01*
X143029263Y-129128845D01*
X143029263Y-129081011D01*
X143015715Y-129060734D01*
X143007859Y-129052878D01*
X143432989Y-129052878D01*
X143436038Y-129077073D01*
X143602704Y-129577073D01*
X143614782Y-129598259D01*
X143618958Y-129600347D01*
X143621047Y-129604524D01*
X143639842Y-129610789D01*
X143657566Y-129619651D01*
X143661997Y-129618174D01*
X143666428Y-129619651D01*
X143684152Y-129610789D01*
X143702947Y-129604524D01*
X143705035Y-129600347D01*
X143709212Y-129598259D01*
X143721290Y-129577073D01*
X143799343Y-129342915D01*
X143937588Y-129342915D01*
X143937588Y-129390751D01*
X143971412Y-129424575D01*
X143995330Y-129429333D01*
X144123306Y-129429333D01*
X144123306Y-129557309D01*
X144128064Y-129581227D01*
X144161888Y-129615051D01*
X144209724Y-129615051D01*
X144243548Y-129581227D01*
X144248306Y-129557309D01*
X144248306Y-129429333D01*
X144376283Y-129429333D01*
X144400201Y-129424575D01*
X144434025Y-129390751D01*
X144434025Y-129342915D01*
X144400201Y-129309091D01*
X144376283Y-129304333D01*
X144248306Y-129304333D01*
X144248306Y-129176357D01*
X144243548Y-129152439D01*
X144209724Y-129118615D01*
X144161888Y-129118615D01*
X144128064Y-129152439D01*
X144123306Y-129176357D01*
X144123306Y-129304333D01*
X143995330Y-129304333D01*
X143971412Y-129309091D01*
X143937588Y-129342915D01*
X143799343Y-129342915D01*
X143887957Y-129077074D01*
X143891006Y-129052878D01*
X143869614Y-129010094D01*
X143824233Y-128994967D01*
X143781449Y-129016359D01*
X143769371Y-129037545D01*
X143661997Y-129359665D01*
X143554624Y-129037545D01*
X143542546Y-129016359D01*
X143499762Y-128994967D01*
X143454381Y-129010094D01*
X143432989Y-129052878D01*
X143007859Y-129052878D01*
X142991906Y-129036925D01*
X142989304Y-129035186D01*
X142988663Y-129033904D01*
X142979951Y-129028937D01*
X142971629Y-129023377D01*
X142970198Y-129023377D01*
X142967477Y-129021826D01*
X142896047Y-128998016D01*
X142886108Y-128996763D01*
X142876283Y-128994809D01*
X142828664Y-128994809D01*
X142818839Y-128996763D01*
X142808899Y-128998016D01*
X142737471Y-129021826D01*
X142734750Y-129023377D01*
X142733319Y-129023377D01*
X142724996Y-129028937D01*
X142716285Y-129033904D01*
X142715643Y-129035186D01*
X142713042Y-129036925D01*
X142665423Y-129084544D01*
X142659856Y-129092875D01*
X142653716Y-129100787D01*
X142629906Y-129148406D01*
X142628098Y-129155006D01*
X142625173Y-129161199D01*
X142601364Y-129256437D01*
X142600991Y-129264085D01*
X142599498Y-129271595D01*
X142510212Y-129271595D01*
X142510212Y-129057309D01*
X142505454Y-129033391D01*
X142471630Y-128999567D01*
X142423794Y-128999567D01*
X142389970Y-129033391D01*
X142385212Y-129057309D01*
X142272116Y-129057309D01*
X142267358Y-129033391D01*
X142259504Y-129025537D01*
X142255708Y-129015098D01*
X142243252Y-129009285D01*
X142233534Y-128999567D01*
X142222427Y-128999567D01*
X142212360Y-128994869D01*
X142199441Y-128999567D01*
X142185698Y-128999567D01*
X142177845Y-129007419D01*
X142167406Y-129011216D01*
X142152980Y-129030878D01*
X142042949Y-129266658D01*
X141932919Y-129030879D01*
X141918493Y-129011217D01*
X141908055Y-129007421D01*
X141900201Y-128999567D01*
X141886456Y-128999567D01*
X141873539Y-128994870D01*
X141863474Y-128999567D01*
X141852365Y-128999567D01*
X141842644Y-129009287D01*
X141830191Y-129015099D01*
X141826395Y-129025536D01*
X141818541Y-129033391D01*
X141813783Y-129057309D01*
X141678957Y-129057309D01*
X141658571Y-129036924D01*
X141650237Y-129031356D01*
X141642329Y-129025218D01*
X141594710Y-129001408D01*
X141591691Y-129000581D01*
X141590677Y-128999567D01*
X141580846Y-128997611D01*
X141571190Y-128994967D01*
X141569830Y-128995420D01*
X141566759Y-128994809D01*
X141376283Y-128994809D01*
X141352365Y-128999567D01*
X141318541Y-129033391D01*
X141313783Y-129057309D01*
X141251283Y-129057309D01*
X141251283Y-128932309D01*
X144496525Y-128932309D01*
X144496525Y-129729928D01*
G37*
G36*
X144707309Y-131748716D02*
G01*
X143957309Y-131748716D01*
X143957309Y-131314084D01*
X144024567Y-131314084D01*
X144024567Y-131361920D01*
X144058391Y-131395744D01*
X144082309Y-131400502D01*
X144257904Y-131400502D01*
X144257904Y-131561216D01*
X144082309Y-131561216D01*
X144058391Y-131565974D01*
X144024567Y-131599798D01*
X144024567Y-131647634D01*
X144058391Y-131681458D01*
X144082309Y-131686216D01*
X144582309Y-131686216D01*
X144606227Y-131681458D01*
X144640051Y-131647634D01*
X144640051Y-131599798D01*
X144606227Y-131565974D01*
X144582309Y-131561216D01*
X144382904Y-131561216D01*
X144382904Y-131400502D01*
X144582309Y-131400502D01*
X144606227Y-131395744D01*
X144640051Y-131361920D01*
X144640051Y-131314084D01*
X144606227Y-131280260D01*
X144582309Y-131275502D01*
X144082309Y-131275502D01*
X144058391Y-131280260D01*
X144024567Y-131314084D01*
X143957309Y-131314084D01*
X143957309Y-130909430D01*
X144019809Y-130909430D01*
X144019809Y-131028477D01*
X144020420Y-131031548D01*
X144019967Y-131032908D01*
X144022611Y-131042564D01*
X144024567Y-131052395D01*
X144025581Y-131053409D01*
X144026408Y-131056428D01*
X144050218Y-131104047D01*
X144056356Y-131111955D01*
X144061924Y-131120289D01*
X144085733Y-131144099D01*
X144094060Y-131149663D01*
X144101978Y-131155808D01*
X144149596Y-131179617D01*
X144152615Y-131180443D01*
X144153629Y-131181457D01*
X144163456Y-131183411D01*
X144173117Y-131186057D01*
X144174475Y-131185604D01*
X144177547Y-131186215D01*
X144225166Y-131186215D01*
X144228235Y-131185604D01*
X144229596Y-131186058D01*
X144239262Y-131183410D01*
X144249084Y-131181457D01*
X144250097Y-131180443D01*
X144253116Y-131179617D01*
X144300735Y-131155808D01*
X144308650Y-131149664D01*
X144316979Y-131144100D01*
X144340789Y-131120290D01*
X144346352Y-131111963D01*
X144352497Y-131104046D01*
X144376306Y-131056428D01*
X144378113Y-131049826D01*
X144381038Y-131043636D01*
X144403184Y-130955052D01*
X144419389Y-130922641D01*
X144428855Y-130913176D01*
X144454205Y-130900501D01*
X144472317Y-130900501D01*
X144497669Y-130913177D01*
X144507134Y-130922642D01*
X144519809Y-130947992D01*
X144519809Y-131042144D01*
X144499207Y-131103951D01*
X144496158Y-131128146D01*
X144517550Y-131170931D01*
X144562931Y-131186057D01*
X144605716Y-131164665D01*
X144617793Y-131143479D01*
X144641602Y-131072051D01*
X144642855Y-131062107D01*
X144644809Y-131052287D01*
X144644809Y-130933239D01*
X144644198Y-130930167D01*
X144644651Y-130928809D01*
X144642005Y-130919148D01*
X144640051Y-130909321D01*
X144639037Y-130908307D01*
X144638211Y-130905288D01*
X144614402Y-130857670D01*
X144608257Y-130849752D01*
X144602693Y-130841425D01*
X144578883Y-130817616D01*
X144570549Y-130812048D01*
X144562641Y-130805910D01*
X144515022Y-130782100D01*
X144512003Y-130781273D01*
X144510989Y-130780259D01*
X144501158Y-130778303D01*
X144491502Y-130775659D01*
X144490142Y-130776112D01*
X144487071Y-130775501D01*
X144439452Y-130775501D01*
X144436380Y-130776112D01*
X144435021Y-130775659D01*
X144425359Y-130778304D01*
X144415534Y-130780259D01*
X144414520Y-130781272D01*
X144411501Y-130782099D01*
X144363882Y-130805910D01*
X144355973Y-130812048D01*
X144347640Y-130817616D01*
X144323830Y-130841425D01*
X144318263Y-130849755D01*
X144312121Y-130857670D01*
X144288312Y-130905289D01*
X144286504Y-130911890D01*
X144283580Y-130918080D01*
X144261433Y-131006664D01*
X144245228Y-131039074D01*
X144235764Y-131048539D01*
X144210412Y-131061215D01*
X144192301Y-131061215D01*
X144166950Y-131048540D01*
X144157485Y-131039075D01*
X144144809Y-131013723D01*
X144144809Y-130919573D01*
X144165412Y-130857765D01*
X144168461Y-130833570D01*
X144147069Y-130790786D01*
X144101688Y-130775658D01*
X144058904Y-130797050D01*
X144046826Y-130818236D01*
X144023016Y-130889666D01*
X144021763Y-130899604D01*
X144019809Y-130909430D01*
X143957309Y-130909430D01*
X143957309Y-130409430D01*
X144019809Y-130409430D01*
X144019809Y-130695144D01*
X144024567Y-130719062D01*
X144058391Y-130752886D01*
X144106227Y-130752886D01*
X144140051Y-130719062D01*
X144144809Y-130695144D01*
X144144809Y-130614787D01*
X144582309Y-130614787D01*
X144606227Y-130610029D01*
X144640051Y-130576205D01*
X144640051Y-130528369D01*
X144606227Y-130494545D01*
X144582309Y-130489787D01*
X144144809Y-130489787D01*
X144144809Y-130409430D01*
X144140051Y-130385512D01*
X144106227Y-130351688D01*
X144058391Y-130351688D01*
X144024567Y-130385512D01*
X144019809Y-130409430D01*
X143957309Y-130409430D01*
X143957309Y-130289188D01*
X144707309Y-130289188D01*
X144707309Y-131748716D01*
G37*
G36*
X156599166Y-131089968D02*
G01*
X156649010Y-131139812D01*
X156664708Y-131186905D01*
X156664708Y-131213760D01*
X156649010Y-131260852D01*
X156515075Y-131394787D01*
X156344191Y-131223903D01*
X156478125Y-131089968D01*
X156525219Y-131074271D01*
X156552073Y-131074271D01*
X156599166Y-131089968D01*
G37*
G36*
X158020870Y-129725392D02*
G01*
X158126238Y-129788613D01*
X158186067Y-129848442D01*
X158249288Y-129953810D01*
X158267483Y-130008393D01*
X158267483Y-130077778D01*
X158231476Y-130149790D01*
X158164991Y-130216275D01*
X157758405Y-129809689D01*
X157824890Y-129743204D01*
X157896903Y-129707198D01*
X157966287Y-129707198D01*
X158020870Y-129725392D01*
G37*
G36*
X158646217Y-130021822D02*
G01*
X155737259Y-132930780D01*
X155043901Y-132237422D01*
X155067471Y-132213852D01*
X155250494Y-132213852D01*
X155250494Y-132260993D01*
X155252449Y-132270824D01*
X155253702Y-132280758D01*
X155277272Y-132351468D01*
X155278822Y-132354186D01*
X155278822Y-132355620D01*
X155284389Y-132363952D01*
X155289350Y-132372654D01*
X155290631Y-132373294D01*
X155292370Y-132375897D01*
X155339511Y-132423038D01*
X155342113Y-132424776D01*
X155342755Y-132426060D01*
X155351461Y-132431023D01*
X155359787Y-132436586D01*
X155361220Y-132436586D01*
X155363941Y-132438137D01*
X155434652Y-132461707D01*
X155444590Y-132462959D01*
X155454416Y-132464914D01*
X155501556Y-132464914D01*
X155511381Y-132462959D01*
X155521320Y-132461707D01*
X155592031Y-132438137D01*
X155597979Y-132434745D01*
X155604423Y-132432437D01*
X155716388Y-132365257D01*
X155770972Y-132347063D01*
X155797826Y-132347063D01*
X155844918Y-132362760D01*
X155871192Y-132389034D01*
X155886890Y-132436127D01*
X155886890Y-132462982D01*
X155871192Y-132510074D01*
X155770947Y-132610319D01*
X155685737Y-132652925D01*
X155666472Y-132667877D01*
X155651346Y-132713257D01*
X155672738Y-132756043D01*
X155718118Y-132771169D01*
X155741639Y-132764729D01*
X155835919Y-132717589D01*
X155843836Y-132711444D01*
X155852163Y-132705881D01*
X155970014Y-132588029D01*
X155971753Y-132585425D01*
X155973035Y-132584785D01*
X155977997Y-132576080D01*
X155983562Y-132567752D01*
X155983562Y-132566319D01*
X155985113Y-132563599D01*
X156008683Y-132492889D01*
X156009935Y-132482950D01*
X156011890Y-132473125D01*
X156011890Y-132425984D01*
X156009935Y-132416158D01*
X156008683Y-132406220D01*
X155985113Y-132335510D01*
X155983562Y-132332791D01*
X155983563Y-132331358D01*
X155977994Y-132323022D01*
X155973035Y-132314324D01*
X155971754Y-132313683D01*
X155970015Y-132311080D01*
X155922875Y-132263939D01*
X155920270Y-132262198D01*
X155919630Y-132260918D01*
X155910931Y-132255959D01*
X155902598Y-132250391D01*
X155901164Y-132250390D01*
X155898444Y-132248840D01*
X155827733Y-132225270D01*
X155817794Y-132224017D01*
X155807969Y-132222063D01*
X155760829Y-132222063D01*
X155751003Y-132224017D01*
X155741065Y-132225270D01*
X155670354Y-132248840D01*
X155664404Y-132252231D01*
X155657962Y-132254540D01*
X155545996Y-132321719D01*
X155491413Y-132339914D01*
X155464559Y-132339914D01*
X155417467Y-132324217D01*
X155391190Y-132297940D01*
X155375494Y-132250851D01*
X155375494Y-132223993D01*
X155391191Y-132176903D01*
X155491439Y-132076656D01*
X155576648Y-132034051D01*
X155595913Y-132019099D01*
X155611040Y-131973719D01*
X155589647Y-131930934D01*
X155544267Y-131915807D01*
X155520746Y-131922248D01*
X155426465Y-131969389D01*
X155418553Y-131975529D01*
X155410221Y-131981097D01*
X155292371Y-132098948D01*
X155290632Y-132101549D01*
X155289350Y-132102191D01*
X155284383Y-132110902D01*
X155278823Y-132119225D01*
X155278823Y-132120656D01*
X155277272Y-132123377D01*
X155253702Y-132194087D01*
X155252449Y-132204020D01*
X155250494Y-132213852D01*
X155067471Y-132213852D01*
X155562792Y-131718531D01*
X155679517Y-131718531D01*
X155679517Y-131766365D01*
X155693065Y-131786642D01*
X156188039Y-132281616D01*
X156208316Y-132295164D01*
X156256150Y-132295164D01*
X156289975Y-132261339D01*
X156289975Y-132213505D01*
X156276427Y-132193228D01*
X156061349Y-131978150D01*
X156255803Y-131783695D01*
X156470882Y-131998774D01*
X156491159Y-132012322D01*
X156538993Y-132012322D01*
X156572818Y-131978497D01*
X156572818Y-131930663D01*
X156559270Y-131910386D01*
X156064295Y-131415411D01*
X156044018Y-131401863D01*
X155996184Y-131401863D01*
X155962359Y-131435688D01*
X155962359Y-131483522D01*
X155975907Y-131503799D01*
X156167415Y-131695307D01*
X155972961Y-131889762D01*
X155781453Y-131698254D01*
X155761176Y-131684706D01*
X155713342Y-131684706D01*
X155679517Y-131718531D01*
X155562792Y-131718531D01*
X156081337Y-131199986D01*
X156198061Y-131199986D01*
X156198061Y-131247820D01*
X156211609Y-131268097D01*
X156706584Y-131763072D01*
X156726861Y-131776620D01*
X156774695Y-131776620D01*
X156808520Y-131742795D01*
X156808520Y-131694961D01*
X156794972Y-131674684D01*
X156603463Y-131483175D01*
X156747832Y-131338807D01*
X156749571Y-131336203D01*
X156750853Y-131335563D01*
X156755815Y-131326858D01*
X156761380Y-131318530D01*
X156761380Y-131317097D01*
X156762931Y-131314377D01*
X156786501Y-131243667D01*
X156787753Y-131233728D01*
X156789708Y-131223903D01*
X156789708Y-131176762D01*
X156787753Y-131166936D01*
X156786501Y-131156998D01*
X156762931Y-131086288D01*
X156761380Y-131083567D01*
X156761380Y-131082134D01*
X156755813Y-131073802D01*
X156750853Y-131065102D01*
X156749571Y-131064461D01*
X156747832Y-131061858D01*
X156677121Y-130991147D01*
X156674517Y-130989407D01*
X156673877Y-130988126D01*
X156665172Y-130983163D01*
X156656844Y-130977599D01*
X156655412Y-130977599D01*
X156652691Y-130976048D01*
X156581980Y-130952478D01*
X156572041Y-130951225D01*
X156562216Y-130949271D01*
X156515076Y-130949271D01*
X156505250Y-130951225D01*
X156495312Y-130952478D01*
X156424601Y-130976048D01*
X156421880Y-130977599D01*
X156420448Y-130977599D01*
X156412125Y-130983159D01*
X156403415Y-130988125D01*
X156402773Y-130989408D01*
X156400171Y-130991147D01*
X156211609Y-131179709D01*
X156198061Y-131199986D01*
X156081337Y-131199986D01*
X156576312Y-130705011D01*
X156693036Y-130705011D01*
X156693036Y-130752845D01*
X156706584Y-130773122D01*
X157201559Y-131268097D01*
X157221836Y-131281645D01*
X157269670Y-131281645D01*
X157303495Y-131247820D01*
X157303495Y-131199986D01*
X157289947Y-131179709D01*
X157074868Y-130964630D01*
X157269323Y-130770175D01*
X157484402Y-130985254D01*
X157504679Y-130998802D01*
X157552513Y-130998802D01*
X157586338Y-130964977D01*
X157586338Y-130917143D01*
X157572790Y-130896866D01*
X157077815Y-130401891D01*
X157057538Y-130388343D01*
X157009704Y-130388343D01*
X156975879Y-130422168D01*
X156975879Y-130470002D01*
X156989427Y-130490279D01*
X157180935Y-130681787D01*
X156986480Y-130876242D01*
X156794972Y-130684734D01*
X156774695Y-130671186D01*
X156726861Y-130671186D01*
X156693036Y-130705011D01*
X156576312Y-130705011D01*
X157094857Y-130186466D01*
X157211581Y-130186466D01*
X157211581Y-130234300D01*
X157225129Y-130254577D01*
X157720104Y-130749552D01*
X157740381Y-130763100D01*
X157788215Y-130763100D01*
X157808492Y-130749552D01*
X158044194Y-130513850D01*
X158057742Y-130493573D01*
X158057742Y-130445739D01*
X158023917Y-130411914D01*
X157976083Y-130411914D01*
X157955806Y-130425462D01*
X157764298Y-130616970D01*
X157313517Y-130166189D01*
X157293240Y-130152641D01*
X157245406Y-130152641D01*
X157211581Y-130186466D01*
X157094857Y-130186466D01*
X157495551Y-129785772D01*
X157612275Y-129785772D01*
X157612275Y-129833606D01*
X157625823Y-129853883D01*
X158120798Y-130348858D01*
X158141075Y-130362406D01*
X158188909Y-130362406D01*
X158209186Y-130348858D01*
X158327037Y-130231008D01*
X158332601Y-130222679D01*
X158338745Y-130214764D01*
X158385885Y-130120483D01*
X158386711Y-130117463D01*
X158387725Y-130116450D01*
X158389679Y-130106622D01*
X158392325Y-130096962D01*
X158391872Y-130095603D01*
X158392483Y-130092532D01*
X158392483Y-129998251D01*
X158390528Y-129988425D01*
X158389276Y-129978487D01*
X158365706Y-129907776D01*
X158362314Y-129901826D01*
X158360006Y-129895384D01*
X158289295Y-129777533D01*
X158284148Y-129771860D01*
X158279896Y-129765495D01*
X158209186Y-129694785D01*
X158202819Y-129690531D01*
X158197148Y-129685386D01*
X158079297Y-129614675D01*
X158072853Y-129612366D01*
X158066905Y-129608975D01*
X157996194Y-129585405D01*
X157986255Y-129584152D01*
X157976430Y-129582198D01*
X157882149Y-129582198D01*
X157879077Y-129582808D01*
X157877719Y-129582356D01*
X157868058Y-129585001D01*
X157858231Y-129586956D01*
X157857217Y-129587969D01*
X157854198Y-129588796D01*
X157759917Y-129635936D01*
X157752001Y-129642079D01*
X157743673Y-129647644D01*
X157625823Y-129765495D01*
X157612275Y-129785772D01*
X157495551Y-129785772D01*
X157952859Y-129328464D01*
X158646217Y-130021822D01*
G37*
X163145332Y-122040166D02*
X163907237Y-122040166D01*
X163716760Y-122230642D02*
X163907237Y-122040166D01*
X163907237Y-122040166D02*
X163716760Y-121849690D01*
G36*
X151830618Y-129448842D02*
G01*
X151836822Y-129455045D01*
X151849497Y-129480395D01*
X151849497Y-129522317D01*
X151836821Y-129547668D01*
X151827357Y-129557133D01*
X151802005Y-129569809D01*
X151688783Y-129569809D01*
X151688783Y-129432904D01*
X151782806Y-129432904D01*
X151830618Y-129448842D01*
G37*
G36*
X151803547Y-129207485D02*
G01*
X151813013Y-129216951D01*
X151825688Y-129242300D01*
X151825688Y-129260412D01*
X151813012Y-129285762D01*
X151803547Y-129295228D01*
X151778196Y-129307904D01*
X151688783Y-129307904D01*
X151688783Y-129194809D01*
X151778196Y-129194809D01*
X151803547Y-129207485D01*
G37*
G36*
X152627478Y-129757309D02*
G01*
X151501283Y-129757309D01*
X151501283Y-129132309D01*
X151563783Y-129132309D01*
X151563783Y-129632309D01*
X151568541Y-129656227D01*
X151602365Y-129690051D01*
X151626283Y-129694809D01*
X151816759Y-129694809D01*
X151819828Y-129694198D01*
X151821189Y-129694652D01*
X151830855Y-129692004D01*
X151840677Y-129690051D01*
X151841690Y-129689037D01*
X151844709Y-129688211D01*
X151892328Y-129664402D01*
X151900243Y-129658258D01*
X151908572Y-129652694D01*
X151932382Y-129628884D01*
X151937945Y-129620557D01*
X151944090Y-129612640D01*
X151967899Y-129565022D01*
X151968725Y-129562002D01*
X151969739Y-129560989D01*
X151971693Y-129551161D01*
X151974339Y-129541501D01*
X151973886Y-129540142D01*
X151974497Y-129537071D01*
X151974497Y-129465642D01*
X151973886Y-129462570D01*
X151974339Y-129461212D01*
X151971693Y-129451551D01*
X151969739Y-129441724D01*
X151968725Y-129440710D01*
X151967899Y-129437691D01*
X151958011Y-129417915D01*
X152068541Y-129417915D01*
X152068541Y-129465751D01*
X152102365Y-129499575D01*
X152126283Y-129504333D01*
X152254259Y-129504333D01*
X152254259Y-129632309D01*
X152259017Y-129656227D01*
X152292841Y-129690051D01*
X152340677Y-129690051D01*
X152374501Y-129656227D01*
X152379259Y-129632309D01*
X152379259Y-129504333D01*
X152507236Y-129504333D01*
X152531154Y-129499575D01*
X152564978Y-129465751D01*
X152564978Y-129417915D01*
X152531154Y-129384091D01*
X152507236Y-129379333D01*
X152379259Y-129379333D01*
X152379259Y-129251357D01*
X152374501Y-129227439D01*
X152340677Y-129193615D01*
X152292841Y-129193615D01*
X152259017Y-129227439D01*
X152254259Y-129251357D01*
X152254259Y-129379333D01*
X152126283Y-129379333D01*
X152102365Y-129384091D01*
X152068541Y-129417915D01*
X151958011Y-129417915D01*
X151944090Y-129390073D01*
X151937945Y-129382155D01*
X151932381Y-129373828D01*
X151915476Y-129356924D01*
X151920279Y-129350736D01*
X151944090Y-129303117D01*
X151944916Y-129300097D01*
X151945930Y-129299084D01*
X151947884Y-129289258D01*
X151950530Y-129279597D01*
X151950076Y-129278237D01*
X151950688Y-129275166D01*
X151950688Y-129227547D01*
X151950076Y-129224475D01*
X151950530Y-129223116D01*
X151947884Y-129213454D01*
X151945930Y-129203629D01*
X151944916Y-129202615D01*
X151944090Y-129199596D01*
X151920279Y-129151977D01*
X151914138Y-129144065D01*
X151908572Y-129135734D01*
X151884763Y-129111925D01*
X151876431Y-129106358D01*
X151868520Y-129100218D01*
X151820901Y-129076408D01*
X151817882Y-129075581D01*
X151816868Y-129074567D01*
X151807037Y-129072611D01*
X151797381Y-129069967D01*
X151796021Y-129070420D01*
X151792950Y-129069809D01*
X151626283Y-129069809D01*
X151602365Y-129074567D01*
X151568541Y-129108391D01*
X151563783Y-129132309D01*
X151501283Y-129132309D01*
X151501283Y-129007309D01*
X152627478Y-129007309D01*
X152627478Y-129757309D01*
G37*
G36*
X144259573Y-134260796D02*
G01*
X144269038Y-134270262D01*
X144281714Y-134295612D01*
X144281714Y-134408835D01*
X144144809Y-134408835D01*
X144144809Y-134295612D01*
X144157485Y-134270260D01*
X144166950Y-134260795D01*
X144192301Y-134248121D01*
X144234222Y-134248121D01*
X144259573Y-134260796D01*
G37*
G36*
X144259573Y-133760796D02*
G01*
X144269038Y-133770262D01*
X144281714Y-133795612D01*
X144281714Y-133908835D01*
X144144809Y-133908835D01*
X144144809Y-133795612D01*
X144157485Y-133770260D01*
X144166950Y-133760795D01*
X144192301Y-133748121D01*
X144234222Y-133748121D01*
X144259573Y-133760796D01*
G37*
G36*
X144707309Y-135048716D02*
G01*
X143957309Y-135048716D01*
X143957309Y-134685621D01*
X144019809Y-134685621D01*
X144019809Y-134923716D01*
X144024567Y-134947634D01*
X144058391Y-134981458D01*
X144082309Y-134986216D01*
X144582309Y-134986216D01*
X144606227Y-134981458D01*
X144640051Y-134947634D01*
X144644809Y-134923716D01*
X144644809Y-134685621D01*
X144640051Y-134661703D01*
X144606227Y-134627879D01*
X144558391Y-134627879D01*
X144524567Y-134661703D01*
X144519809Y-134685621D01*
X144519809Y-134861216D01*
X144382904Y-134861216D01*
X144382904Y-134757049D01*
X144378146Y-134733131D01*
X144344322Y-134699307D01*
X144296486Y-134699307D01*
X144262662Y-134733131D01*
X144257904Y-134757049D01*
X144257904Y-134861216D01*
X144144809Y-134861216D01*
X144144809Y-134685621D01*
X144140051Y-134661703D01*
X144106227Y-134627879D01*
X144058391Y-134627879D01*
X144024567Y-134661703D01*
X144019809Y-134685621D01*
X143957309Y-134685621D01*
X143957309Y-134280859D01*
X144019809Y-134280859D01*
X144019809Y-134471335D01*
X144024567Y-134495253D01*
X144058391Y-134529077D01*
X144082309Y-134533835D01*
X144582309Y-134533835D01*
X144606227Y-134529077D01*
X144640051Y-134495253D01*
X144640051Y-134447417D01*
X144606227Y-134413593D01*
X144582309Y-134408835D01*
X144406714Y-134408835D01*
X144406714Y-134384827D01*
X144618151Y-134236823D01*
X144635016Y-134219209D01*
X144643329Y-134172102D01*
X144615897Y-134132914D01*
X144568791Y-134124601D01*
X144546468Y-134134419D01*
X144394173Y-134241024D01*
X144376305Y-134205289D01*
X144370166Y-134197380D01*
X144364599Y-134189047D01*
X144340790Y-134165237D01*
X144332459Y-134159670D01*
X144324545Y-134153528D01*
X144276926Y-134129719D01*
X144273907Y-134128892D01*
X144272894Y-134127879D01*
X144263072Y-134125925D01*
X144253406Y-134123278D01*
X144252045Y-134123731D01*
X144248976Y-134123121D01*
X144177547Y-134123121D01*
X144174475Y-134123731D01*
X144173117Y-134123279D01*
X144163456Y-134125924D01*
X144153629Y-134127879D01*
X144152615Y-134128892D01*
X144149596Y-134129719D01*
X144101978Y-134153528D01*
X144094060Y-134159672D01*
X144085733Y-134165237D01*
X144061924Y-134189047D01*
X144056356Y-134197380D01*
X144050218Y-134205289D01*
X144026408Y-134252908D01*
X144025581Y-134255926D01*
X144024567Y-134256941D01*
X144022611Y-134266771D01*
X144019967Y-134276428D01*
X144020420Y-134277787D01*
X144019809Y-134280859D01*
X143957309Y-134280859D01*
X143957309Y-133780859D01*
X144019809Y-133780859D01*
X144019809Y-133971335D01*
X144024567Y-133995253D01*
X144058391Y-134029077D01*
X144082309Y-134033835D01*
X144582309Y-134033835D01*
X144606227Y-134029077D01*
X144640051Y-133995253D01*
X144640051Y-133947417D01*
X144606227Y-133913593D01*
X144582309Y-133908835D01*
X144406714Y-133908835D01*
X144406714Y-133884827D01*
X144618151Y-133736823D01*
X144635016Y-133719209D01*
X144643329Y-133672102D01*
X144615897Y-133632914D01*
X144568791Y-133624601D01*
X144546468Y-133634419D01*
X144394173Y-133741024D01*
X144376305Y-133705289D01*
X144370166Y-133697380D01*
X144364599Y-133689047D01*
X144340790Y-133665237D01*
X144332459Y-133659670D01*
X144324545Y-133653528D01*
X144276926Y-133629719D01*
X144273907Y-133628892D01*
X144272894Y-133627879D01*
X144263072Y-133625925D01*
X144253406Y-133623278D01*
X144252045Y-133623731D01*
X144248976Y-133623121D01*
X144177547Y-133623121D01*
X144174475Y-133623731D01*
X144173117Y-133623279D01*
X144163456Y-133625924D01*
X144153629Y-133627879D01*
X144152615Y-133628892D01*
X144149596Y-133629719D01*
X144101978Y-133653528D01*
X144094060Y-133659672D01*
X144085733Y-133665237D01*
X144061924Y-133689047D01*
X144056356Y-133697380D01*
X144050218Y-133705289D01*
X144026408Y-133752908D01*
X144025581Y-133755926D01*
X144024567Y-133756941D01*
X144022611Y-133766771D01*
X144019967Y-133776428D01*
X144020420Y-133777787D01*
X144019809Y-133780859D01*
X143957309Y-133780859D01*
X143957309Y-133560621D01*
X144707309Y-133560621D01*
X144707309Y-135048716D01*
G37*
G36*
X158709188Y-128585746D02*
G01*
X158739203Y-128615761D01*
X158755407Y-128648169D01*
X158775687Y-128729288D01*
X158775687Y-128785329D01*
X158755407Y-128866448D01*
X158739204Y-128898855D01*
X158709186Y-128928873D01*
X158661378Y-128944809D01*
X158614973Y-128944809D01*
X158614973Y-128569809D01*
X158661377Y-128569809D01*
X158709188Y-128585746D01*
G37*
G36*
X159180045Y-128801952D02*
G01*
X159115378Y-128801952D01*
X159147711Y-128704952D01*
X159180045Y-128801952D01*
G37*
G36*
X159439220Y-129132309D02*
G01*
X157927474Y-129132309D01*
X157927474Y-128602547D01*
X157989974Y-128602547D01*
X157989974Y-128650166D01*
X157990584Y-128653235D01*
X157990131Y-128654596D01*
X157992778Y-128664262D01*
X157994732Y-128674084D01*
X157995745Y-128675097D01*
X157996572Y-128678116D01*
X158020381Y-128725735D01*
X158026524Y-128733650D01*
X158032089Y-128741979D01*
X158055899Y-128765789D01*
X158064225Y-128771352D01*
X158072143Y-128777497D01*
X158119761Y-128801306D01*
X158126362Y-128803113D01*
X158132553Y-128806038D01*
X158221136Y-128828184D01*
X158253547Y-128844389D01*
X158263012Y-128853855D01*
X158275688Y-128879205D01*
X158275688Y-128897317D01*
X158263012Y-128922667D01*
X158253547Y-128932133D01*
X158228196Y-128944809D01*
X158134045Y-128944809D01*
X158072238Y-128924207D01*
X158048043Y-128921158D01*
X158005258Y-128942550D01*
X157990132Y-128987931D01*
X158011524Y-129030716D01*
X158032710Y-129042793D01*
X158104138Y-129066602D01*
X158114081Y-129067855D01*
X158123902Y-129069809D01*
X158242950Y-129069809D01*
X158246019Y-129069198D01*
X158247380Y-129069652D01*
X158257046Y-129067004D01*
X158266868Y-129065051D01*
X158267881Y-129064037D01*
X158270900Y-129063211D01*
X158318519Y-129039402D01*
X158326433Y-129033259D01*
X158334764Y-129027693D01*
X158358573Y-129003883D01*
X158364140Y-128995549D01*
X158370279Y-128987641D01*
X158394090Y-128940022D01*
X158394916Y-128937002D01*
X158395930Y-128935989D01*
X158397884Y-128926163D01*
X158400530Y-128916502D01*
X158400076Y-128915142D01*
X158400688Y-128912071D01*
X158400688Y-128864452D01*
X158400076Y-128861380D01*
X158400530Y-128860021D01*
X158397884Y-128850359D01*
X158395930Y-128840534D01*
X158394916Y-128839520D01*
X158394090Y-128836501D01*
X158370279Y-128788882D01*
X158364140Y-128780973D01*
X158358573Y-128772640D01*
X158334764Y-128748830D01*
X158326433Y-128743263D01*
X158318519Y-128737121D01*
X158270900Y-128713312D01*
X158264298Y-128711504D01*
X158258109Y-128708580D01*
X158169524Y-128686433D01*
X158137114Y-128670228D01*
X158127650Y-128660764D01*
X158114974Y-128635412D01*
X158114974Y-128617301D01*
X158127649Y-128591949D01*
X158137115Y-128582484D01*
X158162465Y-128569809D01*
X158256616Y-128569809D01*
X158318424Y-128590412D01*
X158342619Y-128593461D01*
X158385403Y-128572069D01*
X158400531Y-128526688D01*
X158390841Y-128507309D01*
X158489973Y-128507309D01*
X158489973Y-129007309D01*
X158494731Y-129031227D01*
X158528555Y-129065051D01*
X158552473Y-129069809D01*
X158671521Y-129069809D01*
X158681346Y-129067854D01*
X158691285Y-129066602D01*
X158762713Y-129042793D01*
X158765433Y-129041242D01*
X158766867Y-129041242D01*
X158775200Y-129035673D01*
X158783899Y-129030715D01*
X158784539Y-129029434D01*
X158787144Y-129027694D01*
X158803098Y-129011740D01*
X158918703Y-129011740D01*
X158940095Y-129054524D01*
X158985476Y-129069651D01*
X159028260Y-129048259D01*
X159040338Y-129027073D01*
X159073712Y-128926952D01*
X159221711Y-128926952D01*
X159255085Y-129027073D01*
X159267163Y-129048259D01*
X159309947Y-129069651D01*
X159355328Y-129054524D01*
X159376720Y-129011740D01*
X159373671Y-128987544D01*
X159207004Y-128487545D01*
X159194926Y-128466359D01*
X159190749Y-128464270D01*
X159188661Y-128460094D01*
X159169866Y-128453829D01*
X159152142Y-128444967D01*
X159147711Y-128446444D01*
X159143280Y-128444967D01*
X159125556Y-128453829D01*
X159106761Y-128460094D01*
X159104672Y-128464270D01*
X159100496Y-128466359D01*
X159088418Y-128487545D01*
X158921752Y-128987545D01*
X158918703Y-129011740D01*
X158803098Y-129011740D01*
X158834763Y-128980074D01*
X158840332Y-128971737D01*
X158846469Y-128963831D01*
X158870280Y-128916212D01*
X158872088Y-128909607D01*
X158875012Y-128903419D01*
X158898821Y-128808181D01*
X158899193Y-128800532D01*
X158900687Y-128793023D01*
X158900687Y-128721595D01*
X158899193Y-128714085D01*
X158898821Y-128706437D01*
X158875012Y-128611199D01*
X158872088Y-128605010D01*
X158870280Y-128598406D01*
X158846469Y-128550787D01*
X158840328Y-128542875D01*
X158834762Y-128534544D01*
X158787143Y-128486925D01*
X158784541Y-128485186D01*
X158783900Y-128483904D01*
X158775188Y-128478937D01*
X158766866Y-128473377D01*
X158765435Y-128473377D01*
X158762714Y-128471826D01*
X158691286Y-128448016D01*
X158681344Y-128446763D01*
X158671521Y-128444809D01*
X158552473Y-128444809D01*
X158528555Y-128449567D01*
X158494731Y-128483391D01*
X158489973Y-128507309D01*
X158390841Y-128507309D01*
X158379139Y-128483904D01*
X158357953Y-128471826D01*
X158286523Y-128448016D01*
X158276584Y-128446763D01*
X158266759Y-128444809D01*
X158147712Y-128444809D01*
X158144640Y-128445420D01*
X158143281Y-128444967D01*
X158133619Y-128447612D01*
X158123794Y-128449567D01*
X158122780Y-128450580D01*
X158119761Y-128451407D01*
X158072142Y-128475218D01*
X158064233Y-128481356D01*
X158055900Y-128486924D01*
X158032090Y-128510733D01*
X158026523Y-128519063D01*
X158020381Y-128526978D01*
X157996572Y-128574597D01*
X157995745Y-128577615D01*
X157994732Y-128578629D01*
X157992778Y-128588450D01*
X157990131Y-128598117D01*
X157990584Y-128599477D01*
X157989974Y-128602547D01*
X157927474Y-128602547D01*
X157927474Y-128382309D01*
X159439220Y-128382309D01*
X159439220Y-129132309D01*
G37*
G36*
X145703544Y-116342531D02*
G01*
X145722535Y-116361522D01*
X145744735Y-116405921D01*
X145744735Y-116476411D01*
X145722534Y-116520812D01*
X145703546Y-116539800D01*
X145659147Y-116562000D01*
X145469735Y-116562000D01*
X145469735Y-116320333D01*
X145659147Y-116320333D01*
X145703544Y-116342531D01*
G37*
G36*
X148476088Y-117098111D02*
G01*
X144633624Y-117098111D01*
X144633624Y-116491166D01*
X144711402Y-116491166D01*
X144711402Y-116957833D01*
X144716160Y-116981751D01*
X144749984Y-117015575D01*
X144797820Y-117015575D01*
X144831644Y-116981751D01*
X144836402Y-116957833D01*
X144836402Y-116583722D01*
X144844259Y-116575864D01*
X144888656Y-116553666D01*
X144959147Y-116553666D01*
X144993983Y-116571083D01*
X145011402Y-116605921D01*
X145011402Y-116957833D01*
X145016160Y-116981751D01*
X145049984Y-117015575D01*
X145097820Y-117015575D01*
X145131644Y-116981751D01*
X145136402Y-116957833D01*
X145136402Y-116591166D01*
X145135791Y-116588096D01*
X145136245Y-116586736D01*
X145133597Y-116577067D01*
X145131644Y-116567248D01*
X145130630Y-116566234D01*
X145129804Y-116563215D01*
X145096471Y-116496549D01*
X145088840Y-116486717D01*
X145087785Y-116483551D01*
X145084258Y-116480813D01*
X145081519Y-116477284D01*
X145078349Y-116476227D01*
X145068520Y-116468598D01*
X145001853Y-116435264D01*
X144998833Y-116434437D01*
X144997820Y-116433424D01*
X144987992Y-116431469D01*
X144978332Y-116428824D01*
X144976973Y-116429276D01*
X144973902Y-116428666D01*
X144873902Y-116428666D01*
X144870830Y-116429277D01*
X144869471Y-116428824D01*
X144859813Y-116431468D01*
X144849984Y-116433424D01*
X144848969Y-116434438D01*
X144845950Y-116435265D01*
X144815090Y-116450694D01*
X144797820Y-116433424D01*
X144749984Y-116433424D01*
X144716160Y-116467248D01*
X144711402Y-116491166D01*
X144633624Y-116491166D01*
X144633624Y-116257833D01*
X145344735Y-116257833D01*
X145344735Y-116957833D01*
X145349493Y-116981751D01*
X145383317Y-117015575D01*
X145431153Y-117015575D01*
X145464977Y-116981751D01*
X145469735Y-116957833D01*
X145469735Y-116687000D01*
X145541361Y-116687000D01*
X145756033Y-116993675D01*
X145773647Y-117010540D01*
X145820754Y-117018853D01*
X145859942Y-116991421D01*
X145868255Y-116944315D01*
X145858437Y-116921992D01*
X145691493Y-116683500D01*
X145697820Y-116682242D01*
X145698833Y-116681228D01*
X145701853Y-116680402D01*
X145768520Y-116647068D01*
X145776437Y-116640922D01*
X145784763Y-116635360D01*
X145818096Y-116602027D01*
X145823656Y-116593705D01*
X145829804Y-116585784D01*
X145863137Y-116519116D01*
X145863963Y-116516097D01*
X145864977Y-116515084D01*
X145866931Y-116505260D01*
X145869578Y-116495595D01*
X145869124Y-116494234D01*
X145869735Y-116491166D01*
X145869735Y-116391166D01*
X145869124Y-116388096D01*
X145869578Y-116386736D01*
X145866930Y-116377067D01*
X145864977Y-116367248D01*
X145863963Y-116366234D01*
X145863137Y-116363215D01*
X145829804Y-116296549D01*
X145823658Y-116288630D01*
X145818097Y-116280307D01*
X145795624Y-116257833D01*
X146044735Y-116257833D01*
X146044735Y-116957833D01*
X146049493Y-116981751D01*
X146083317Y-117015575D01*
X146107235Y-117020333D01*
X146440569Y-117020333D01*
X146464487Y-117015575D01*
X146498311Y-116981751D01*
X146498311Y-116933915D01*
X146464487Y-116900091D01*
X146440569Y-116895333D01*
X146169735Y-116895333D01*
X146169735Y-116653666D01*
X146340569Y-116653666D01*
X146364487Y-116648908D01*
X146398311Y-116615084D01*
X146398311Y-116567248D01*
X146364487Y-116533424D01*
X146340569Y-116528666D01*
X146169735Y-116528666D01*
X146169735Y-116391166D01*
X146644735Y-116391166D01*
X146644735Y-116457833D01*
X146645345Y-116460904D01*
X146644893Y-116462263D01*
X146647538Y-116471923D01*
X146649493Y-116481751D01*
X146650506Y-116482764D01*
X146651333Y-116485784D01*
X146684666Y-116552451D01*
X146690809Y-116560366D01*
X146696374Y-116568695D01*
X146729709Y-116602028D01*
X146738032Y-116607589D01*
X146745951Y-116613735D01*
X146812617Y-116647068D01*
X146819220Y-116648876D01*
X146825409Y-116651800D01*
X146952085Y-116683469D01*
X147003545Y-116709199D01*
X147022535Y-116728187D01*
X147044735Y-116772587D01*
X147044735Y-116809745D01*
X147022535Y-116854145D01*
X147003547Y-116873133D01*
X146959147Y-116895333D01*
X146817378Y-116895333D01*
X146726999Y-116865207D01*
X146702804Y-116862158D01*
X146660020Y-116883550D01*
X146644893Y-116928931D01*
X146666285Y-116971715D01*
X146687471Y-116983793D01*
X146787471Y-117017126D01*
X146797409Y-117018378D01*
X146807235Y-117020333D01*
X146973902Y-117020333D01*
X146976973Y-117019722D01*
X146978332Y-117020175D01*
X146987992Y-117017529D01*
X146997820Y-117015575D01*
X146998833Y-117014561D01*
X147001853Y-117013735D01*
X147068519Y-116980402D01*
X147076436Y-116974256D01*
X147084762Y-116968694D01*
X147118096Y-116935360D01*
X147123656Y-116927038D01*
X147129804Y-116919117D01*
X147163137Y-116852451D01*
X147163963Y-116849431D01*
X147164977Y-116848418D01*
X147166930Y-116838598D01*
X147169578Y-116828930D01*
X147169124Y-116827569D01*
X147169735Y-116824500D01*
X147169735Y-116757833D01*
X147169124Y-116754764D01*
X147169578Y-116753404D01*
X147166931Y-116743738D01*
X147164977Y-116733915D01*
X147163963Y-116732901D01*
X147163137Y-116729883D01*
X147129804Y-116663215D01*
X147123660Y-116655299D01*
X147118096Y-116646971D01*
X147084762Y-116613638D01*
X147076429Y-116608071D01*
X147068519Y-116601931D01*
X147001853Y-116568598D01*
X146995251Y-116566790D01*
X146989061Y-116563866D01*
X146862383Y-116532196D01*
X146810924Y-116506466D01*
X146791933Y-116487475D01*
X146769735Y-116443078D01*
X146769735Y-116405921D01*
X146791935Y-116361521D01*
X146810923Y-116342533D01*
X146855323Y-116320333D01*
X146997092Y-116320333D01*
X147087471Y-116350459D01*
X147111666Y-116353508D01*
X147154450Y-116332116D01*
X147169577Y-116286735D01*
X147155126Y-116257833D01*
X147344735Y-116257833D01*
X147344735Y-116957833D01*
X147349493Y-116981751D01*
X147383317Y-117015575D01*
X147407235Y-117020333D01*
X147740569Y-117020333D01*
X147764487Y-117015575D01*
X147798311Y-116981751D01*
X147798311Y-116933915D01*
X147764487Y-116900091D01*
X147740569Y-116895333D01*
X147469735Y-116895333D01*
X147469735Y-116653666D01*
X147640569Y-116653666D01*
X147664487Y-116648908D01*
X147698311Y-116615084D01*
X147698311Y-116567248D01*
X147664487Y-116533424D01*
X147640569Y-116528666D01*
X147469735Y-116528666D01*
X147469735Y-116320333D01*
X147740569Y-116320333D01*
X147764487Y-116315575D01*
X147798311Y-116281751D01*
X147798311Y-116233915D01*
X147882826Y-116233915D01*
X147882826Y-116281751D01*
X147916650Y-116315575D01*
X147940568Y-116320333D01*
X148078068Y-116320333D01*
X148078068Y-116957833D01*
X148082826Y-116981751D01*
X148116650Y-117015575D01*
X148164486Y-117015575D01*
X148198310Y-116981751D01*
X148203068Y-116957833D01*
X148203068Y-116320333D01*
X148340568Y-116320333D01*
X148364486Y-116315575D01*
X148398310Y-116281751D01*
X148398310Y-116233915D01*
X148364486Y-116200091D01*
X148340568Y-116195333D01*
X147940568Y-116195333D01*
X147916650Y-116200091D01*
X147882826Y-116233915D01*
X147798311Y-116233915D01*
X147764487Y-116200091D01*
X147740569Y-116195333D01*
X147407235Y-116195333D01*
X147383317Y-116200091D01*
X147349493Y-116233915D01*
X147344735Y-116257833D01*
X147155126Y-116257833D01*
X147148185Y-116243950D01*
X147126999Y-116231873D01*
X147026999Y-116198540D01*
X147017060Y-116197287D01*
X147007235Y-116195333D01*
X146840568Y-116195333D01*
X146837498Y-116195943D01*
X146836138Y-116195490D01*
X146826469Y-116198137D01*
X146816650Y-116200091D01*
X146815636Y-116201104D01*
X146812617Y-116201931D01*
X146745951Y-116235264D01*
X146738029Y-116241411D01*
X146729708Y-116246972D01*
X146696374Y-116280306D01*
X146690811Y-116288631D01*
X146684666Y-116296549D01*
X146651333Y-116363215D01*
X146650506Y-116366234D01*
X146649493Y-116367248D01*
X146647538Y-116377075D01*
X146644893Y-116386736D01*
X146645345Y-116388094D01*
X146644735Y-116391166D01*
X146169735Y-116391166D01*
X146169735Y-116320333D01*
X146440569Y-116320333D01*
X146464487Y-116315575D01*
X146498311Y-116281751D01*
X146498311Y-116233915D01*
X146464487Y-116200091D01*
X146440569Y-116195333D01*
X146107235Y-116195333D01*
X146083317Y-116200091D01*
X146049493Y-116233915D01*
X146044735Y-116257833D01*
X145795624Y-116257833D01*
X145784764Y-116246972D01*
X145776435Y-116241407D01*
X145768520Y-116235264D01*
X145701853Y-116201931D01*
X145698833Y-116201104D01*
X145697820Y-116200091D01*
X145687992Y-116198136D01*
X145678332Y-116195491D01*
X145676973Y-116195943D01*
X145673902Y-116195333D01*
X145407235Y-116195333D01*
X145383317Y-116200091D01*
X145349493Y-116233915D01*
X145344735Y-116257833D01*
X144633624Y-116257833D01*
X144633624Y-116117555D01*
X148476088Y-116117555D01*
X148476088Y-117098111D01*
G37*
X162978664Y-120607309D02*
X163311997Y-121107309D01*
X163311997Y-120607309D02*
X162978664Y-121107309D01*
X163115166Y-122029668D02*
X163115166Y-121267764D01*
X163305642Y-121458240D02*
X163115166Y-121267764D01*
X163115166Y-121267764D02*
X162924690Y-121458240D01*
G36*
X159435810Y-127707309D02*
G01*
X157952474Y-127707309D01*
X157952474Y-127177547D01*
X158014974Y-127177547D01*
X158014974Y-127225166D01*
X158015584Y-127228235D01*
X158015131Y-127229596D01*
X158017778Y-127239262D01*
X158019732Y-127249084D01*
X158020745Y-127250097D01*
X158021572Y-127253116D01*
X158045381Y-127300735D01*
X158051524Y-127308650D01*
X158057089Y-127316979D01*
X158080899Y-127340789D01*
X158089225Y-127346352D01*
X158097143Y-127352497D01*
X158144761Y-127376306D01*
X158151362Y-127378113D01*
X158157553Y-127381038D01*
X158246136Y-127403184D01*
X158278547Y-127419389D01*
X158288012Y-127428855D01*
X158300688Y-127454205D01*
X158300688Y-127472317D01*
X158288012Y-127497667D01*
X158278547Y-127507133D01*
X158253196Y-127519809D01*
X158159045Y-127519809D01*
X158097238Y-127499207D01*
X158073043Y-127496158D01*
X158030258Y-127517550D01*
X158015132Y-127562931D01*
X158036524Y-127605716D01*
X158057710Y-127617793D01*
X158129138Y-127641602D01*
X158139081Y-127642855D01*
X158148902Y-127644809D01*
X158267950Y-127644809D01*
X158271019Y-127644198D01*
X158272380Y-127644652D01*
X158282046Y-127642004D01*
X158291868Y-127640051D01*
X158292881Y-127639037D01*
X158295900Y-127638211D01*
X158343519Y-127614402D01*
X158351433Y-127608259D01*
X158359764Y-127602693D01*
X158383573Y-127578883D01*
X158389140Y-127570549D01*
X158395279Y-127562641D01*
X158419090Y-127515022D01*
X158419916Y-127512002D01*
X158420930Y-127510989D01*
X158422884Y-127501163D01*
X158425530Y-127491502D01*
X158425076Y-127490142D01*
X158425688Y-127487071D01*
X158425688Y-127439452D01*
X158425076Y-127436380D01*
X158425530Y-127435021D01*
X158422884Y-127425359D01*
X158420930Y-127415534D01*
X158419916Y-127414520D01*
X158419090Y-127411501D01*
X158395279Y-127363882D01*
X158389140Y-127355973D01*
X158383573Y-127347640D01*
X158359764Y-127323830D01*
X158351433Y-127318263D01*
X158343519Y-127312121D01*
X158312466Y-127296595D01*
X158491164Y-127296595D01*
X158491164Y-127368023D01*
X158492657Y-127375532D01*
X158493030Y-127383181D01*
X158516839Y-127478419D01*
X158519764Y-127484611D01*
X158521572Y-127491212D01*
X158545382Y-127538831D01*
X158551515Y-127546733D01*
X158557088Y-127555074D01*
X158604707Y-127602694D01*
X158607310Y-127604433D01*
X158607952Y-127605716D01*
X158616656Y-127610677D01*
X158624984Y-127616242D01*
X158626417Y-127616242D01*
X158629138Y-127617793D01*
X158700566Y-127641602D01*
X158710509Y-127642855D01*
X158720330Y-127644809D01*
X158767949Y-127644809D01*
X158777775Y-127642854D01*
X158787713Y-127641602D01*
X158859142Y-127617793D01*
X158861862Y-127616242D01*
X158863296Y-127616242D01*
X158871619Y-127610680D01*
X158880328Y-127605716D01*
X158880969Y-127604432D01*
X158883573Y-127602693D01*
X158907382Y-127578883D01*
X158920930Y-127558606D01*
X158920929Y-127510771D01*
X158887103Y-127476947D01*
X158839269Y-127476948D01*
X158818992Y-127490497D01*
X158805616Y-127503872D01*
X158757806Y-127519809D01*
X158730473Y-127519809D01*
X158682664Y-127503873D01*
X158652648Y-127473856D01*
X158636443Y-127441448D01*
X158616164Y-127360329D01*
X158616164Y-127304288D01*
X158636443Y-127223169D01*
X158652649Y-127190759D01*
X158682662Y-127160746D01*
X158730474Y-127144809D01*
X158757806Y-127144809D01*
X158805617Y-127160746D01*
X158818993Y-127174122D01*
X158839270Y-127187670D01*
X158887104Y-127187670D01*
X158920929Y-127153845D01*
X158920929Y-127106011D01*
X158907381Y-127085734D01*
X158903956Y-127082309D01*
X159014973Y-127082309D01*
X159014973Y-127582309D01*
X159019731Y-127606227D01*
X159053555Y-127640051D01*
X159077473Y-127644809D01*
X159315568Y-127644809D01*
X159339486Y-127640051D01*
X159373310Y-127606227D01*
X159373310Y-127558391D01*
X159339486Y-127524567D01*
X159315568Y-127519809D01*
X159139973Y-127519809D01*
X159139973Y-127082309D01*
X159135215Y-127058391D01*
X159101391Y-127024567D01*
X159053555Y-127024567D01*
X159019731Y-127058391D01*
X159014973Y-127082309D01*
X158903956Y-127082309D01*
X158883572Y-127061925D01*
X158880970Y-127060186D01*
X158880329Y-127058904D01*
X158871617Y-127053937D01*
X158863295Y-127048377D01*
X158861864Y-127048377D01*
X158859143Y-127046826D01*
X158787713Y-127023016D01*
X158777774Y-127021763D01*
X158767949Y-127019809D01*
X158720330Y-127019809D01*
X158710505Y-127021763D01*
X158700565Y-127023016D01*
X158629137Y-127046826D01*
X158626416Y-127048377D01*
X158624985Y-127048377D01*
X158616662Y-127053937D01*
X158607951Y-127058904D01*
X158607309Y-127060186D01*
X158604708Y-127061925D01*
X158557089Y-127109544D01*
X158551522Y-127117875D01*
X158545382Y-127125787D01*
X158521572Y-127173406D01*
X158519764Y-127180006D01*
X158516839Y-127186199D01*
X158493030Y-127281437D01*
X158492657Y-127289085D01*
X158491164Y-127296595D01*
X158312466Y-127296595D01*
X158295900Y-127288312D01*
X158289298Y-127286504D01*
X158283109Y-127283580D01*
X158194524Y-127261433D01*
X158162114Y-127245228D01*
X158152650Y-127235764D01*
X158139974Y-127210412D01*
X158139974Y-127192301D01*
X158152649Y-127166949D01*
X158162115Y-127157484D01*
X158187465Y-127144809D01*
X158281616Y-127144809D01*
X158343424Y-127165412D01*
X158367619Y-127168461D01*
X158410403Y-127147069D01*
X158425531Y-127101688D01*
X158404139Y-127058904D01*
X158382953Y-127046826D01*
X158311523Y-127023016D01*
X158301584Y-127021763D01*
X158291759Y-127019809D01*
X158172712Y-127019809D01*
X158169640Y-127020420D01*
X158168281Y-127019967D01*
X158158619Y-127022612D01*
X158148794Y-127024567D01*
X158147780Y-127025580D01*
X158144761Y-127026407D01*
X158097142Y-127050218D01*
X158089233Y-127056356D01*
X158080900Y-127061924D01*
X158057090Y-127085733D01*
X158051523Y-127094063D01*
X158045381Y-127101978D01*
X158021572Y-127149597D01*
X158020745Y-127152615D01*
X158019732Y-127153629D01*
X158017778Y-127163450D01*
X158015131Y-127173117D01*
X158015584Y-127174477D01*
X158014974Y-127177547D01*
X157952474Y-127177547D01*
X157952474Y-126957309D01*
X159435810Y-126957309D01*
X159435810Y-127707309D01*
G37*
G36*
X140086569Y-129135746D02*
G01*
X140116584Y-129165761D01*
X140132788Y-129198169D01*
X140153068Y-129279288D01*
X140153068Y-129335329D01*
X140132788Y-129416448D01*
X140116585Y-129448855D01*
X140086567Y-129478873D01*
X140038759Y-129494809D01*
X139992354Y-129494809D01*
X139992354Y-129119809D01*
X140038758Y-129119809D01*
X140086569Y-129135746D01*
G37*
G36*
X140586569Y-129135746D02*
G01*
X140616584Y-129165761D01*
X140632788Y-129198169D01*
X140653068Y-129279288D01*
X140653068Y-129335329D01*
X140632788Y-129416448D01*
X140616585Y-129448855D01*
X140586567Y-129478873D01*
X140538759Y-129494809D01*
X140492354Y-129494809D01*
X140492354Y-129119809D01*
X140538758Y-129119809D01*
X140586569Y-129135746D01*
G37*
G36*
X140840568Y-129682309D02*
G01*
X139305013Y-129682309D01*
X139305013Y-129052878D01*
X139367513Y-129052878D01*
X139370562Y-129077073D01*
X139537228Y-129577073D01*
X139549306Y-129598259D01*
X139553482Y-129600347D01*
X139555571Y-129604524D01*
X139574366Y-129610789D01*
X139592090Y-129619651D01*
X139596521Y-129618174D01*
X139600952Y-129619651D01*
X139618676Y-129610789D01*
X139637471Y-129604524D01*
X139639559Y-129600347D01*
X139643736Y-129598259D01*
X139655814Y-129577073D01*
X139822481Y-129077074D01*
X139824972Y-129057309D01*
X139867354Y-129057309D01*
X139867354Y-129557309D01*
X139872112Y-129581227D01*
X139905936Y-129615051D01*
X139929854Y-129619809D01*
X140048902Y-129619809D01*
X140058727Y-129617854D01*
X140068666Y-129616602D01*
X140140094Y-129592793D01*
X140142814Y-129591242D01*
X140144248Y-129591242D01*
X140152581Y-129585673D01*
X140161280Y-129580715D01*
X140161920Y-129579434D01*
X140164525Y-129577694D01*
X140212144Y-129530074D01*
X140217713Y-129521737D01*
X140223850Y-129513831D01*
X140247661Y-129466212D01*
X140249469Y-129459607D01*
X140252393Y-129453419D01*
X140276202Y-129358181D01*
X140276574Y-129350532D01*
X140278068Y-129343023D01*
X140278068Y-129271595D01*
X140276574Y-129264085D01*
X140276202Y-129256437D01*
X140252393Y-129161199D01*
X140249469Y-129155010D01*
X140247661Y-129148406D01*
X140223850Y-129100787D01*
X140217709Y-129092875D01*
X140212143Y-129084544D01*
X140184908Y-129057309D01*
X140367354Y-129057309D01*
X140367354Y-129557309D01*
X140372112Y-129581227D01*
X140405936Y-129615051D01*
X140429854Y-129619809D01*
X140548902Y-129619809D01*
X140558727Y-129617854D01*
X140568666Y-129616602D01*
X140640094Y-129592793D01*
X140642814Y-129591242D01*
X140644248Y-129591242D01*
X140652581Y-129585673D01*
X140661280Y-129580715D01*
X140661920Y-129579434D01*
X140664525Y-129577694D01*
X140712144Y-129530074D01*
X140717713Y-129521737D01*
X140723850Y-129513831D01*
X140747661Y-129466212D01*
X140749469Y-129459607D01*
X140752393Y-129453419D01*
X140776202Y-129358181D01*
X140776574Y-129350532D01*
X140778068Y-129343023D01*
X140778068Y-129271595D01*
X140776574Y-129264085D01*
X140776202Y-129256437D01*
X140752393Y-129161199D01*
X140749469Y-129155010D01*
X140747661Y-129148406D01*
X140723850Y-129100787D01*
X140717709Y-129092875D01*
X140712143Y-129084544D01*
X140664524Y-129036925D01*
X140661922Y-129035186D01*
X140661281Y-129033904D01*
X140652569Y-129028937D01*
X140644247Y-129023377D01*
X140642816Y-129023377D01*
X140640095Y-129021826D01*
X140568667Y-128998016D01*
X140558725Y-128996763D01*
X140548902Y-128994809D01*
X140429854Y-128994809D01*
X140405936Y-128999567D01*
X140372112Y-129033391D01*
X140367354Y-129057309D01*
X140184908Y-129057309D01*
X140164524Y-129036925D01*
X140161922Y-129035186D01*
X140161281Y-129033904D01*
X140152569Y-129028937D01*
X140144247Y-129023377D01*
X140142816Y-129023377D01*
X140140095Y-129021826D01*
X140068667Y-128998016D01*
X140058725Y-128996763D01*
X140048902Y-128994809D01*
X139929854Y-128994809D01*
X139905936Y-128999567D01*
X139872112Y-129033391D01*
X139867354Y-129057309D01*
X139824972Y-129057309D01*
X139825530Y-129052878D01*
X139804138Y-129010094D01*
X139758757Y-128994967D01*
X139715973Y-129016359D01*
X139703895Y-129037545D01*
X139596521Y-129359665D01*
X139489148Y-129037545D01*
X139477070Y-129016359D01*
X139434286Y-128994967D01*
X139388905Y-129010094D01*
X139367513Y-129052878D01*
X139305013Y-129052878D01*
X139305013Y-128932309D01*
X140840568Y-128932309D01*
X140840568Y-129682309D01*
G37*
G36*
X154901166Y-129557485D02*
G01*
X154910631Y-129566950D01*
X154926835Y-129599359D01*
X154947116Y-129680480D01*
X154947116Y-129784137D01*
X154926835Y-129865258D01*
X154910630Y-129897668D01*
X154901166Y-129907133D01*
X154875814Y-129919809D01*
X154857703Y-129919809D01*
X154832352Y-129907134D01*
X154822887Y-129897669D01*
X154806681Y-129865258D01*
X154786402Y-129784139D01*
X154786402Y-129680478D01*
X154806681Y-129599359D01*
X154822887Y-129566949D01*
X154832353Y-129557483D01*
X154857702Y-129544809D01*
X154875814Y-129544809D01*
X154901166Y-129557485D01*
G37*
G36*
X156206044Y-130107309D02*
G01*
X153051319Y-130107309D01*
X153051319Y-129651097D01*
X153113819Y-129651097D01*
X153133613Y-129694643D01*
X153154338Y-129707497D01*
X153379234Y-129791833D01*
X153154338Y-129876169D01*
X153133613Y-129889023D01*
X153113819Y-129932569D01*
X153130616Y-129977360D01*
X153174162Y-129997154D01*
X153198228Y-129993211D01*
X153291082Y-129958391D01*
X153689970Y-129958391D01*
X153689970Y-130006227D01*
X153723794Y-130040051D01*
X153747712Y-130044809D01*
X154057236Y-130044809D01*
X154081154Y-130040051D01*
X154114978Y-130006227D01*
X154114978Y-129958391D01*
X154081154Y-129924567D01*
X154057236Y-129919809D01*
X153898600Y-129919809D01*
X154077620Y-129740789D01*
X154079359Y-129738185D01*
X154080641Y-129737545D01*
X154085600Y-129728846D01*
X154091169Y-129720512D01*
X154091169Y-129719077D01*
X154092719Y-129716359D01*
X154093444Y-129714185D01*
X154185522Y-129714185D01*
X154187877Y-129738458D01*
X154189970Y-129741016D01*
X154189970Y-129744321D01*
X154204839Y-129759190D01*
X154218167Y-129775480D01*
X154221458Y-129775809D01*
X154223795Y-129778146D01*
X154244832Y-129778146D01*
X154265766Y-129780239D01*
X154268324Y-129778146D01*
X154271629Y-129778146D01*
X154291906Y-129764598D01*
X154308544Y-129747959D01*
X154333893Y-129735285D01*
X154423434Y-129735285D01*
X154448785Y-129747961D01*
X154458251Y-129757427D01*
X154470926Y-129782776D01*
X154470926Y-129872317D01*
X154458250Y-129897667D01*
X154448785Y-129907133D01*
X154423434Y-129919809D01*
X154333894Y-129919809D01*
X154308543Y-129907134D01*
X154291907Y-129890497D01*
X154271630Y-129876948D01*
X154223796Y-129876947D01*
X154189970Y-129910772D01*
X154189969Y-129958606D01*
X154203517Y-129978883D01*
X154227326Y-130002693D01*
X154235653Y-130008257D01*
X154243571Y-130014402D01*
X154291189Y-130038211D01*
X154294208Y-130039037D01*
X154295222Y-130040051D01*
X154305049Y-130042005D01*
X154314710Y-130044651D01*
X154316068Y-130044198D01*
X154319140Y-130044809D01*
X154438188Y-130044809D01*
X154441257Y-130044198D01*
X154442618Y-130044652D01*
X154452284Y-130042004D01*
X154462106Y-130040051D01*
X154463119Y-130039037D01*
X154466138Y-130038211D01*
X154513757Y-130014402D01*
X154521671Y-130008259D01*
X154530002Y-130002693D01*
X154553811Y-129978883D01*
X154559378Y-129970549D01*
X154565517Y-129962641D01*
X154589328Y-129915022D01*
X154590154Y-129912002D01*
X154591168Y-129910989D01*
X154593122Y-129901163D01*
X154595768Y-129891502D01*
X154595314Y-129890142D01*
X154595926Y-129887071D01*
X154595926Y-129768023D01*
X154595314Y-129764951D01*
X154595768Y-129763592D01*
X154593122Y-129753930D01*
X154591168Y-129744105D01*
X154590154Y-129743091D01*
X154589328Y-129740072D01*
X154565517Y-129692453D01*
X154559376Y-129684541D01*
X154553810Y-129676210D01*
X154550385Y-129672785D01*
X154661402Y-129672785D01*
X154661402Y-129791833D01*
X154662895Y-129799342D01*
X154663268Y-129806991D01*
X154687077Y-129902229D01*
X154690002Y-129908421D01*
X154691810Y-129915022D01*
X154715620Y-129962641D01*
X154721758Y-129970549D01*
X154727326Y-129978883D01*
X154751135Y-130002693D01*
X154759462Y-130008257D01*
X154767380Y-130014402D01*
X154814998Y-130038211D01*
X154818017Y-130039037D01*
X154819031Y-130040051D01*
X154828858Y-130042005D01*
X154838519Y-130044651D01*
X154839877Y-130044198D01*
X154842949Y-130044809D01*
X154890568Y-130044809D01*
X154893637Y-130044198D01*
X154894998Y-130044652D01*
X154904664Y-130042004D01*
X154914486Y-130040051D01*
X154915499Y-130039037D01*
X154918518Y-130038211D01*
X154966137Y-130014402D01*
X154974052Y-130008258D01*
X154982381Y-130002694D01*
X155006191Y-129978884D01*
X155011754Y-129970557D01*
X155017899Y-129962640D01*
X155041708Y-129915022D01*
X155043515Y-129908420D01*
X155046440Y-129902230D01*
X155070250Y-129806992D01*
X155070622Y-129799342D01*
X155072116Y-129791833D01*
X155072116Y-129672785D01*
X155070622Y-129665275D01*
X155070250Y-129657626D01*
X155046440Y-129562388D01*
X155043515Y-129556197D01*
X155041708Y-129549596D01*
X155017899Y-129501978D01*
X155011754Y-129494060D01*
X155006190Y-129485733D01*
X155002766Y-129482309D01*
X155161401Y-129482309D01*
X155161401Y-129982309D01*
X155166159Y-130006227D01*
X155199983Y-130040051D01*
X155247819Y-130040051D01*
X155281643Y-130006227D01*
X155286401Y-129982309D01*
X155286401Y-129793911D01*
X155288567Y-129791744D01*
X155459615Y-130019809D01*
X155477772Y-130036088D01*
X155525126Y-130042853D01*
X155563394Y-130014152D01*
X155570159Y-129966798D01*
X155559615Y-129944809D01*
X155377852Y-129702459D01*
X155455145Y-129625166D01*
X155637592Y-129625166D01*
X155637592Y-129744214D01*
X155639546Y-129754039D01*
X155640799Y-129763978D01*
X155664608Y-129835406D01*
X155666159Y-129838126D01*
X155666159Y-129839559D01*
X155671723Y-129847887D01*
X155676686Y-129856592D01*
X155677967Y-129857232D01*
X155679707Y-129859836D01*
X155727326Y-129907455D01*
X155735657Y-129913021D01*
X155743569Y-129919162D01*
X155744863Y-129919809D01*
X155700092Y-129919809D01*
X155676174Y-129924567D01*
X155642350Y-129958391D01*
X155642350Y-130006227D01*
X155676174Y-130040051D01*
X155700092Y-130044809D01*
X155819139Y-130044809D01*
X155843057Y-130040051D01*
X155876881Y-130006227D01*
X155876881Y-130006226D01*
X155881639Y-129982309D01*
X155881639Y-129887071D01*
X155876881Y-129863153D01*
X155869607Y-129855879D01*
X155866355Y-129846122D01*
X155847090Y-129831170D01*
X155808543Y-129811896D01*
X155778528Y-129781881D01*
X155762592Y-129734071D01*
X155762592Y-129635308D01*
X155778528Y-129587498D01*
X155805280Y-129560746D01*
X155853093Y-129544809D01*
X155928043Y-129544809D01*
X155975854Y-129560746D01*
X156002606Y-129587498D01*
X156018544Y-129635310D01*
X156018544Y-129734069D01*
X156002606Y-129781881D01*
X155972593Y-129811894D01*
X155934045Y-129831170D01*
X155914780Y-129846122D01*
X155911527Y-129855879D01*
X155904254Y-129863153D01*
X155899496Y-129887071D01*
X155899496Y-129982309D01*
X155904254Y-130006226D01*
X155904254Y-130006227D01*
X155938078Y-130040051D01*
X155961996Y-130044809D01*
X156081044Y-130044809D01*
X156104962Y-130040051D01*
X156138786Y-130006227D01*
X156138786Y-129958391D01*
X156104962Y-129924567D01*
X156081044Y-129919809D01*
X156036272Y-129919809D01*
X156037566Y-129919162D01*
X156045477Y-129913021D01*
X156053809Y-129907455D01*
X156101428Y-129859836D01*
X156103166Y-129857234D01*
X156104449Y-129856593D01*
X156109415Y-129847881D01*
X156114976Y-129839559D01*
X156114976Y-129838127D01*
X156116527Y-129835407D01*
X156140337Y-129763979D01*
X156141589Y-129754038D01*
X156143544Y-129744214D01*
X156143544Y-129625166D01*
X156141589Y-129615341D01*
X156140337Y-129605401D01*
X156116527Y-129533973D01*
X156114976Y-129531252D01*
X156114976Y-129529821D01*
X156109415Y-129521498D01*
X156104449Y-129512787D01*
X156103166Y-129512145D01*
X156101428Y-129509544D01*
X156053809Y-129461925D01*
X156051207Y-129460186D01*
X156050566Y-129458904D01*
X156041854Y-129453937D01*
X156033532Y-129448377D01*
X156032101Y-129448377D01*
X156029380Y-129446826D01*
X155957952Y-129423016D01*
X155948010Y-129421763D01*
X155938187Y-129419809D01*
X155842949Y-129419809D01*
X155833123Y-129421763D01*
X155823185Y-129423016D01*
X155751756Y-129446826D01*
X155749035Y-129448377D01*
X155747603Y-129448377D01*
X155739274Y-129453941D01*
X155730570Y-129458904D01*
X155729929Y-129460185D01*
X155727326Y-129461925D01*
X155679707Y-129509544D01*
X155677967Y-129512147D01*
X155676686Y-129512788D01*
X155671723Y-129521492D01*
X155666159Y-129529821D01*
X155666159Y-129531253D01*
X155664608Y-129533974D01*
X155640799Y-129605402D01*
X155639546Y-129615340D01*
X155637592Y-129625166D01*
X155455145Y-129625166D01*
X155553809Y-129526503D01*
X155567358Y-129506226D01*
X155567358Y-129458392D01*
X155533532Y-129424566D01*
X155485698Y-129424566D01*
X155465421Y-129438115D01*
X155286401Y-129617135D01*
X155286401Y-129482309D01*
X155281643Y-129458391D01*
X155247819Y-129424567D01*
X155199983Y-129424567D01*
X155166159Y-129458391D01*
X155161401Y-129482309D01*
X155002766Y-129482309D01*
X154982380Y-129461924D01*
X154974046Y-129456356D01*
X154966138Y-129450218D01*
X154918519Y-129426408D01*
X154915500Y-129425581D01*
X154914486Y-129424567D01*
X154904655Y-129422611D01*
X154894999Y-129419967D01*
X154893639Y-129420420D01*
X154890568Y-129419809D01*
X154842949Y-129419809D01*
X154839877Y-129420420D01*
X154838518Y-129419967D01*
X154828856Y-129422612D01*
X154819031Y-129424567D01*
X154818017Y-129425580D01*
X154814998Y-129426407D01*
X154767379Y-129450218D01*
X154759467Y-129456358D01*
X154751136Y-129461925D01*
X154727327Y-129485734D01*
X154721760Y-129494065D01*
X154715620Y-129501977D01*
X154691810Y-129549596D01*
X154690002Y-129556196D01*
X154687077Y-129562389D01*
X154663268Y-129657627D01*
X154662895Y-129665275D01*
X154661402Y-129672785D01*
X154550385Y-129672785D01*
X154530001Y-129652401D01*
X154521669Y-129646834D01*
X154513758Y-129640694D01*
X154466139Y-129616884D01*
X154463120Y-129616057D01*
X154462106Y-129615043D01*
X154452275Y-129613087D01*
X154442619Y-129610443D01*
X154441259Y-129610896D01*
X154438188Y-129610285D01*
X154321536Y-129610285D01*
X154328083Y-129544809D01*
X154509616Y-129544809D01*
X154533534Y-129540051D01*
X154567358Y-129506227D01*
X154567358Y-129458391D01*
X154533534Y-129424567D01*
X154509616Y-129419809D01*
X154271521Y-129419809D01*
X154256566Y-129422783D01*
X154253467Y-129422474D01*
X154251970Y-129423698D01*
X154247603Y-129424567D01*
X154232725Y-129439444D01*
X154216445Y-129452765D01*
X154215146Y-129457023D01*
X154213779Y-129458391D01*
X154213779Y-129461506D01*
X154209331Y-129476091D01*
X154185522Y-129714185D01*
X154093444Y-129714185D01*
X154116529Y-129644930D01*
X154117781Y-129634991D01*
X154119736Y-129625166D01*
X154119736Y-129577547D01*
X154119124Y-129574475D01*
X154119578Y-129573116D01*
X154116932Y-129563454D01*
X154114978Y-129553629D01*
X154113964Y-129552615D01*
X154113138Y-129549596D01*
X154089327Y-129501977D01*
X154083186Y-129494065D01*
X154077620Y-129485734D01*
X154053811Y-129461925D01*
X154045479Y-129456358D01*
X154037568Y-129450218D01*
X153989949Y-129426408D01*
X153986930Y-129425581D01*
X153985916Y-129424567D01*
X153976085Y-129422611D01*
X153966429Y-129419967D01*
X153965069Y-129420420D01*
X153961998Y-129419809D01*
X153842950Y-129419809D01*
X153839878Y-129420420D01*
X153838519Y-129419967D01*
X153828857Y-129422612D01*
X153819032Y-129424567D01*
X153818018Y-129425580D01*
X153814999Y-129426407D01*
X153767380Y-129450218D01*
X153759468Y-129456358D01*
X153751137Y-129461925D01*
X153727328Y-129485734D01*
X153713780Y-129506011D01*
X153713780Y-129553845D01*
X153747605Y-129587670D01*
X153795439Y-129587670D01*
X153815716Y-129574122D01*
X153832354Y-129557483D01*
X153857703Y-129544809D01*
X153947244Y-129544809D01*
X153972595Y-129557485D01*
X153982061Y-129566951D01*
X153994736Y-129592300D01*
X153994736Y-129615022D01*
X153978798Y-129662834D01*
X153703518Y-129938115D01*
X153689972Y-129958388D01*
X153689970Y-129958391D01*
X153291082Y-129958391D01*
X153579181Y-129850354D01*
X153599906Y-129837500D01*
X153600842Y-129835440D01*
X153602904Y-129834503D01*
X153610612Y-129813945D01*
X153619700Y-129793954D01*
X153618904Y-129791833D01*
X153619700Y-129789712D01*
X153610612Y-129769720D01*
X153602904Y-129749163D01*
X153600842Y-129748225D01*
X153599906Y-129746166D01*
X153579181Y-129733312D01*
X153198228Y-129590455D01*
X153174162Y-129586512D01*
X153130616Y-129606306D01*
X153113819Y-129651097D01*
X153051319Y-129651097D01*
X153051319Y-129357309D01*
X156206044Y-129357309D01*
X156206044Y-130107309D01*
G37*
G36*
X144707309Y-133422525D02*
G01*
X143957309Y-133422525D01*
X143957309Y-133083240D01*
X144019809Y-133083240D01*
X144019809Y-133130859D01*
X144021763Y-133140682D01*
X144023016Y-133150624D01*
X144046826Y-133222052D01*
X144048377Y-133224772D01*
X144048377Y-133226204D01*
X144053937Y-133234526D01*
X144058904Y-133243238D01*
X144060186Y-133243879D01*
X144061925Y-133246481D01*
X144109544Y-133294100D01*
X144117875Y-133299666D01*
X144125787Y-133305807D01*
X144173406Y-133329618D01*
X144180010Y-133331426D01*
X144186199Y-133334350D01*
X144281437Y-133358159D01*
X144289085Y-133358531D01*
X144296595Y-133360025D01*
X144368023Y-133360025D01*
X144375532Y-133358531D01*
X144383181Y-133358159D01*
X144478419Y-133334350D01*
X144484611Y-133331424D01*
X144491212Y-133329617D01*
X144538831Y-133305807D01*
X144546733Y-133299673D01*
X144555074Y-133294101D01*
X144602694Y-133246482D01*
X144604433Y-133243878D01*
X144605716Y-133243237D01*
X144610677Y-133234532D01*
X144616242Y-133226205D01*
X144616242Y-133224771D01*
X144617793Y-133222051D01*
X144641602Y-133150623D01*
X144642855Y-133140679D01*
X144644809Y-133130859D01*
X144644809Y-133083240D01*
X144642855Y-133073418D01*
X144641602Y-133063477D01*
X144617793Y-132992047D01*
X144616242Y-132989326D01*
X144616242Y-132987893D01*
X144610680Y-132979569D01*
X144605716Y-132970861D01*
X144604432Y-132970219D01*
X144602693Y-132967616D01*
X144578883Y-132943807D01*
X144558606Y-132930259D01*
X144510772Y-132930260D01*
X144476947Y-132964086D01*
X144476948Y-133011920D01*
X144490497Y-133032197D01*
X144503872Y-133045571D01*
X144519809Y-133093382D01*
X144519809Y-133120716D01*
X144503873Y-133168524D01*
X144473856Y-133198540D01*
X144441448Y-133214745D01*
X144360329Y-133235025D01*
X144304289Y-133235025D01*
X144223169Y-133214745D01*
X144190761Y-133198541D01*
X144160746Y-133168526D01*
X144144809Y-133120714D01*
X144144809Y-133093383D01*
X144160746Y-133045571D01*
X144174122Y-133032196D01*
X144187670Y-133011919D01*
X144187670Y-132964085D01*
X144153845Y-132930260D01*
X144106011Y-132930260D01*
X144085734Y-132943808D01*
X144061925Y-132967617D01*
X144060186Y-132970218D01*
X144058904Y-132970860D01*
X144053937Y-132979571D01*
X144048377Y-132987894D01*
X144048377Y-132989325D01*
X144046826Y-132992046D01*
X144023016Y-133063476D01*
X144021763Y-133073414D01*
X144019809Y-133083240D01*
X143957309Y-133083240D01*
X143957309Y-132464084D01*
X144024567Y-132464084D01*
X144024567Y-132511920D01*
X144058391Y-132545744D01*
X144082309Y-132550502D01*
X144257904Y-132550502D01*
X144257904Y-132711216D01*
X144082309Y-132711216D01*
X144058391Y-132715974D01*
X144024567Y-132749798D01*
X144024567Y-132797634D01*
X144058391Y-132831458D01*
X144082309Y-132836216D01*
X144582309Y-132836216D01*
X144606227Y-132831458D01*
X144640051Y-132797634D01*
X144640051Y-132749798D01*
X144606227Y-132715974D01*
X144582309Y-132711216D01*
X144382904Y-132711216D01*
X144382904Y-132550502D01*
X144582309Y-132550502D01*
X144606227Y-132545744D01*
X144640051Y-132511920D01*
X144640051Y-132464084D01*
X144606227Y-132430260D01*
X144582309Y-132425502D01*
X144082309Y-132425502D01*
X144058391Y-132430260D01*
X144024567Y-132464084D01*
X143957309Y-132464084D01*
X143957309Y-132035620D01*
X144019809Y-132035620D01*
X144019809Y-132107049D01*
X144021763Y-132116872D01*
X144023016Y-132126814D01*
X144046826Y-132198242D01*
X144048377Y-132200962D01*
X144048377Y-132202394D01*
X144053937Y-132210716D01*
X144058904Y-132219428D01*
X144060186Y-132220069D01*
X144061925Y-132222671D01*
X144109544Y-132270290D01*
X144117875Y-132275856D01*
X144125787Y-132281997D01*
X144173406Y-132305808D01*
X144180010Y-132307616D01*
X144186199Y-132310540D01*
X144281437Y-132334349D01*
X144289085Y-132334721D01*
X144296595Y-132336215D01*
X144368023Y-132336215D01*
X144375532Y-132334721D01*
X144383181Y-132334349D01*
X144478419Y-132310540D01*
X144484611Y-132307614D01*
X144491212Y-132305807D01*
X144538831Y-132281997D01*
X144546733Y-132275863D01*
X144555074Y-132270291D01*
X144602694Y-132222672D01*
X144604433Y-132220068D01*
X144605716Y-132219427D01*
X144610677Y-132210722D01*
X144616242Y-132202395D01*
X144616242Y-132200961D01*
X144617793Y-132198241D01*
X144641602Y-132126813D01*
X144642855Y-132116869D01*
X144644809Y-132107049D01*
X144644809Y-132059430D01*
X144642855Y-132049608D01*
X144641602Y-132039667D01*
X144617793Y-131968237D01*
X144616242Y-131965516D01*
X144616242Y-131964083D01*
X144610680Y-131955759D01*
X144605716Y-131947051D01*
X144604432Y-131946409D01*
X144602693Y-131943806D01*
X144578883Y-131919997D01*
X144558609Y-131906451D01*
X144558608Y-131906450D01*
X144558607Y-131906449D01*
X144558606Y-131906449D01*
X144558602Y-131906449D01*
X144534690Y-131901692D01*
X144368023Y-131901692D01*
X144344105Y-131906450D01*
X144310281Y-131940274D01*
X144305523Y-131964192D01*
X144305523Y-132059430D01*
X144310281Y-132083348D01*
X144344105Y-132117172D01*
X144391941Y-132117172D01*
X144425765Y-132083348D01*
X144430523Y-132059430D01*
X144430523Y-132026692D01*
X144505516Y-132026692D01*
X144519809Y-132069572D01*
X144519809Y-132096906D01*
X144503873Y-132144714D01*
X144473856Y-132174730D01*
X144441448Y-132190935D01*
X144360329Y-132211215D01*
X144304289Y-132211215D01*
X144223169Y-132190935D01*
X144190761Y-132174731D01*
X144160746Y-132144716D01*
X144144809Y-132096904D01*
X144144809Y-132050373D01*
X144162021Y-132015952D01*
X144168461Y-131992432D01*
X144153335Y-131947052D01*
X144110550Y-131925658D01*
X144065170Y-131940785D01*
X144050218Y-131960050D01*
X144026408Y-132007669D01*
X144025581Y-132010687D01*
X144024567Y-132011702D01*
X144022611Y-132021532D01*
X144019967Y-132031189D01*
X144020420Y-132032548D01*
X144019809Y-132035620D01*
X143957309Y-132035620D01*
X143957309Y-131839192D01*
X144707309Y-131839192D01*
X144707309Y-133422525D01*
G37*
G36*
X147255618Y-130298842D02*
G01*
X147261822Y-130305045D01*
X147274497Y-130330395D01*
X147274497Y-130372317D01*
X147261821Y-130397668D01*
X147252357Y-130407133D01*
X147227005Y-130419809D01*
X147113783Y-130419809D01*
X147113783Y-130282904D01*
X147207806Y-130282904D01*
X147255618Y-130298842D01*
G37*
G36*
X147228547Y-130057485D02*
G01*
X147238013Y-130066951D01*
X147250688Y-130092300D01*
X147250688Y-130110412D01*
X147238012Y-130135762D01*
X147228547Y-130145228D01*
X147203196Y-130157904D01*
X147113783Y-130157904D01*
X147113783Y-130044809D01*
X147203196Y-130044809D01*
X147228547Y-130057485D01*
G37*
G36*
X148481049Y-130607309D02*
G01*
X145926283Y-130607309D01*
X145926283Y-129982309D01*
X145988783Y-129982309D01*
X145988783Y-130387071D01*
X145989394Y-130390142D01*
X145988941Y-130391502D01*
X145991585Y-130401158D01*
X145993541Y-130410989D01*
X145994555Y-130412003D01*
X145995382Y-130415022D01*
X146019192Y-130462641D01*
X146025330Y-130470549D01*
X146030898Y-130478883D01*
X146054707Y-130502693D01*
X146063034Y-130508257D01*
X146070952Y-130514402D01*
X146118570Y-130538211D01*
X146121589Y-130539037D01*
X146122603Y-130540051D01*
X146132430Y-130542005D01*
X146142091Y-130544651D01*
X146143449Y-130544198D01*
X146146521Y-130544809D01*
X146241759Y-130544809D01*
X146244828Y-130544198D01*
X146246189Y-130544652D01*
X146255855Y-130542004D01*
X146265677Y-130540051D01*
X146266690Y-130539037D01*
X146269709Y-130538211D01*
X146317328Y-130514402D01*
X146325243Y-130508258D01*
X146333572Y-130502694D01*
X146357382Y-130478884D01*
X146362945Y-130470557D01*
X146369090Y-130462640D01*
X146392899Y-130415022D01*
X146393725Y-130412002D01*
X146394739Y-130410989D01*
X146396693Y-130401161D01*
X146399339Y-130391501D01*
X146398886Y-130390142D01*
X146399497Y-130387071D01*
X146399497Y-130077547D01*
X146488784Y-130077547D01*
X146488784Y-130125166D01*
X146489394Y-130128235D01*
X146488941Y-130129596D01*
X146491588Y-130139262D01*
X146493542Y-130149084D01*
X146494555Y-130150097D01*
X146495382Y-130153116D01*
X146519191Y-130200735D01*
X146525334Y-130208650D01*
X146530899Y-130216979D01*
X146554709Y-130240789D01*
X146563035Y-130246352D01*
X146570953Y-130252497D01*
X146618571Y-130276306D01*
X146625172Y-130278113D01*
X146631363Y-130281038D01*
X146719946Y-130303184D01*
X146752357Y-130319389D01*
X146761822Y-130328855D01*
X146774498Y-130354205D01*
X146774498Y-130372317D01*
X146761822Y-130397667D01*
X146752357Y-130407133D01*
X146727006Y-130419809D01*
X146632855Y-130419809D01*
X146571048Y-130399207D01*
X146546853Y-130396158D01*
X146504068Y-130417550D01*
X146488942Y-130462931D01*
X146510334Y-130505716D01*
X146531520Y-130517793D01*
X146602948Y-130541602D01*
X146612891Y-130542855D01*
X146622712Y-130544809D01*
X146741760Y-130544809D01*
X146744829Y-130544198D01*
X146746190Y-130544652D01*
X146755856Y-130542004D01*
X146765678Y-130540051D01*
X146766691Y-130539037D01*
X146769710Y-130538211D01*
X146817329Y-130514402D01*
X146825243Y-130508259D01*
X146833574Y-130502693D01*
X146857383Y-130478883D01*
X146862950Y-130470549D01*
X146869089Y-130462641D01*
X146892900Y-130415022D01*
X146893726Y-130412002D01*
X146894740Y-130410989D01*
X146896694Y-130401163D01*
X146899340Y-130391502D01*
X146898886Y-130390142D01*
X146899498Y-130387071D01*
X146899498Y-130339452D01*
X146898886Y-130336380D01*
X146899340Y-130335021D01*
X146896694Y-130325359D01*
X146894740Y-130315534D01*
X146893726Y-130314520D01*
X146892900Y-130311501D01*
X146869089Y-130263882D01*
X146862950Y-130255973D01*
X146857383Y-130247640D01*
X146833574Y-130223830D01*
X146825243Y-130218263D01*
X146817329Y-130212121D01*
X146769710Y-130188312D01*
X146763108Y-130186504D01*
X146756919Y-130183580D01*
X146668334Y-130161433D01*
X146635924Y-130145228D01*
X146626460Y-130135764D01*
X146613784Y-130110412D01*
X146613784Y-130092301D01*
X146626459Y-130066949D01*
X146635925Y-130057484D01*
X146661275Y-130044809D01*
X146755426Y-130044809D01*
X146817234Y-130065412D01*
X146841429Y-130068461D01*
X146884213Y-130047069D01*
X146899341Y-130001688D01*
X146889651Y-129982309D01*
X146988783Y-129982309D01*
X146988783Y-130482309D01*
X146993541Y-130506227D01*
X147027365Y-130540051D01*
X147051283Y-130544809D01*
X147241759Y-130544809D01*
X147244828Y-130544198D01*
X147246189Y-130544652D01*
X147255855Y-130542004D01*
X147265677Y-130540051D01*
X147266690Y-130539037D01*
X147269709Y-130538211D01*
X147317328Y-130514402D01*
X147325243Y-130508258D01*
X147333572Y-130502694D01*
X147357382Y-130478884D01*
X147362945Y-130470557D01*
X147369090Y-130462640D01*
X147392899Y-130415022D01*
X147393725Y-130412002D01*
X147394739Y-130410989D01*
X147396693Y-130401161D01*
X147399339Y-130391501D01*
X147398886Y-130390142D01*
X147399497Y-130387071D01*
X147399497Y-130315642D01*
X147398886Y-130312570D01*
X147399339Y-130311212D01*
X147396693Y-130301551D01*
X147394739Y-130291724D01*
X147393725Y-130290710D01*
X147392899Y-130287691D01*
X147369090Y-130240073D01*
X147362945Y-130232155D01*
X147357381Y-130223828D01*
X147340476Y-130206924D01*
X147345279Y-130200736D01*
X147369090Y-130153117D01*
X147369916Y-130150097D01*
X147370930Y-130149084D01*
X147372884Y-130139258D01*
X147375530Y-130129597D01*
X147375076Y-130128237D01*
X147375688Y-130125166D01*
X147375688Y-130077547D01*
X147375076Y-130074475D01*
X147375530Y-130073116D01*
X147372884Y-130063454D01*
X147370930Y-130053629D01*
X147369916Y-130052615D01*
X147369090Y-130049596D01*
X147345279Y-130001977D01*
X147339138Y-129994065D01*
X147333572Y-129985734D01*
X147325716Y-129977878D01*
X147417513Y-129977878D01*
X147420562Y-130002073D01*
X147587228Y-130502073D01*
X147599306Y-130523259D01*
X147603482Y-130525347D01*
X147605571Y-130529524D01*
X147624366Y-130535789D01*
X147642090Y-130544651D01*
X147646521Y-130543174D01*
X147650952Y-130544651D01*
X147668676Y-130535789D01*
X147687471Y-130529524D01*
X147689559Y-130525347D01*
X147693736Y-130523259D01*
X147705814Y-130502073D01*
X147783867Y-130267915D01*
X147922112Y-130267915D01*
X147922112Y-130315751D01*
X147955936Y-130349575D01*
X147979854Y-130354333D01*
X148107830Y-130354333D01*
X148107830Y-130482309D01*
X148112588Y-130506227D01*
X148146412Y-130540051D01*
X148194248Y-130540051D01*
X148228072Y-130506227D01*
X148232830Y-130482309D01*
X148232830Y-130354333D01*
X148360807Y-130354333D01*
X148384725Y-130349575D01*
X148418549Y-130315751D01*
X148418549Y-130267915D01*
X148384725Y-130234091D01*
X148360807Y-130229333D01*
X148232830Y-130229333D01*
X148232830Y-130101357D01*
X148228072Y-130077439D01*
X148194248Y-130043615D01*
X148146412Y-130043615D01*
X148112588Y-130077439D01*
X148107830Y-130101357D01*
X148107830Y-130229333D01*
X147979854Y-130229333D01*
X147955936Y-130234091D01*
X147922112Y-130267915D01*
X147783867Y-130267915D01*
X147872481Y-130002074D01*
X147875530Y-129977878D01*
X147854138Y-129935094D01*
X147808757Y-129919967D01*
X147765973Y-129941359D01*
X147753895Y-129962545D01*
X147646521Y-130284665D01*
X147539148Y-129962545D01*
X147527070Y-129941359D01*
X147484286Y-129919967D01*
X147438905Y-129935094D01*
X147417513Y-129977878D01*
X147325716Y-129977878D01*
X147309763Y-129961925D01*
X147301431Y-129956358D01*
X147293520Y-129950218D01*
X147245901Y-129926408D01*
X147242882Y-129925581D01*
X147241868Y-129924567D01*
X147232037Y-129922611D01*
X147222381Y-129919967D01*
X147221021Y-129920420D01*
X147217950Y-129919809D01*
X147051283Y-129919809D01*
X147027365Y-129924567D01*
X146993541Y-129958391D01*
X146988783Y-129982309D01*
X146889651Y-129982309D01*
X146877949Y-129958904D01*
X146856763Y-129946826D01*
X146785333Y-129923016D01*
X146775394Y-129921763D01*
X146765569Y-129919809D01*
X146646522Y-129919809D01*
X146643450Y-129920420D01*
X146642091Y-129919967D01*
X146632429Y-129922612D01*
X146622604Y-129924567D01*
X146621590Y-129925580D01*
X146618571Y-129926407D01*
X146570952Y-129950218D01*
X146563043Y-129956356D01*
X146554710Y-129961924D01*
X146530900Y-129985733D01*
X146525333Y-129994063D01*
X146519191Y-130001978D01*
X146495382Y-130049597D01*
X146494555Y-130052615D01*
X146493542Y-130053629D01*
X146491588Y-130063450D01*
X146488941Y-130073117D01*
X146489394Y-130074477D01*
X146488784Y-130077547D01*
X146399497Y-130077547D01*
X146399497Y-129982309D01*
X146394739Y-129958391D01*
X146360915Y-129924567D01*
X146313079Y-129924567D01*
X146279255Y-129958391D01*
X146274497Y-129982309D01*
X146274497Y-130372317D01*
X146261821Y-130397668D01*
X146252357Y-130407133D01*
X146227005Y-130419809D01*
X146161275Y-130419809D01*
X146135924Y-130407134D01*
X146126459Y-130397669D01*
X146113783Y-130372317D01*
X146113783Y-129982309D01*
X146109025Y-129958391D01*
X146075201Y-129924567D01*
X146027365Y-129924567D01*
X145993541Y-129958391D01*
X145988783Y-129982309D01*
X145926283Y-129982309D01*
X145926283Y-129857309D01*
X148481049Y-129857309D01*
X148481049Y-130607309D01*
G37*
X164271521Y-122094214D02*
X164271521Y-122332309D01*
X164104855Y-121832309D02*
X164271521Y-122094214D01*
X164271521Y-122094214D02*
X164438188Y-121832309D01*
D11*
X161012742Y-128202500D02*
X161487258Y-128202500D01*
X161012742Y-129247500D02*
X161487258Y-129247500D01*
X160880001Y-122489999D02*
X160400000Y-122490000D01*
X160640000Y-122160000D01*
X160880001Y-122489999D01*
G36*
X160880001Y-122489999D02*
G01*
X160400000Y-122490000D01*
X160640000Y-122160000D01*
X160880001Y-122489999D01*
G37*
X145490001Y-134740581D02*
X145490000Y-134459419D01*
X146510000Y-134740581D02*
X146509999Y-134459419D01*
D13*
G36*
X163841118Y-123587782D02*
G01*
X163850277Y-123599396D01*
X163855186Y-123610401D01*
X163855448Y-123612672D01*
X163852117Y-123622752D01*
X163843844Y-123634642D01*
X163841118Y-123637561D01*
X163826787Y-123651892D01*
X163701395Y-123651892D01*
X163576004Y-123651892D01*
X163576004Y-123612672D01*
X163576004Y-123573451D01*
X163701395Y-123573451D01*
X163826787Y-123573451D01*
X163841118Y-123587782D01*
G37*
G36*
X163692243Y-123774535D02*
G01*
X163715123Y-123774884D01*
X163731355Y-123775666D01*
X163742520Y-123777044D01*
X163750195Y-123779182D01*
X163755960Y-123782244D01*
X163759188Y-123784616D01*
X163769774Y-123798474D01*
X163772333Y-123815259D01*
X163766821Y-123832208D01*
X163760072Y-123840862D01*
X163755448Y-123845188D01*
X163750509Y-123848329D01*
X163743712Y-123850474D01*
X163733510Y-123851814D01*
X163718359Y-123852538D01*
X163696714Y-123852835D01*
X163667031Y-123852895D01*
X163662021Y-123852895D01*
X163576004Y-123852895D01*
X163576004Y-123813675D01*
X163576004Y-123774455D01*
X163661137Y-123774455D01*
X163692243Y-123774535D01*
G37*
G36*
X163707357Y-124175492D02*
G01*
X163725787Y-124176019D01*
X163738752Y-124177176D01*
X163747698Y-124179114D01*
X163754072Y-124181986D01*
X163759318Y-124185943D01*
X163761074Y-124187536D01*
X163770077Y-124201758D01*
X163771875Y-124218550D01*
X163766408Y-124234173D01*
X163761901Y-124239514D01*
X163756073Y-124244111D01*
X163748919Y-124247476D01*
X163738994Y-124249757D01*
X163724850Y-124251101D01*
X163705040Y-124251655D01*
X163678118Y-124251568D01*
X163648316Y-124251095D01*
X163576004Y-124249738D01*
X163576004Y-124213100D01*
X163576004Y-124176462D01*
X163648316Y-124175723D01*
X163682015Y-124175444D01*
X163707357Y-124175492D01*
G37*
G36*
X163742243Y-123975496D02*
G01*
X163772407Y-123975665D01*
X163795159Y-123976049D01*
X163811695Y-123976734D01*
X163823211Y-123977803D01*
X163830904Y-123979340D01*
X163835969Y-123981432D01*
X163839603Y-123984161D01*
X163840616Y-123985139D01*
X163851138Y-124001384D01*
X163853154Y-124018647D01*
X163847139Y-124034525D01*
X163833571Y-124046614D01*
X163827909Y-124049215D01*
X163819679Y-124050524D01*
X163803160Y-124051692D01*
X163779869Y-124052665D01*
X163751320Y-124053389D01*
X163719031Y-124053812D01*
X163695797Y-124053899D01*
X163576004Y-124053899D01*
X163576004Y-124014679D01*
X163576004Y-123975459D01*
X163703470Y-123975459D01*
X163742243Y-123975496D01*
G37*
G36*
X163703342Y-124373557D02*
G01*
X163741979Y-124374026D01*
X163772019Y-124374512D01*
X163794673Y-124375125D01*
X163811148Y-124375972D01*
X163822654Y-124377161D01*
X163830398Y-124378800D01*
X163835590Y-124380999D01*
X163839439Y-124383864D01*
X163841593Y-124385936D01*
X163850804Y-124401109D01*
X163852398Y-124418297D01*
X163846442Y-124434159D01*
X163840495Y-124440682D01*
X163836359Y-124443733D01*
X163831367Y-124446095D01*
X163824293Y-124447856D01*
X163813912Y-124449109D01*
X163798997Y-124449941D01*
X163778323Y-124450444D01*
X163750663Y-124450708D01*
X163714793Y-124450822D01*
X163702244Y-124450841D01*
X163576004Y-124451004D01*
X163576004Y-124411552D01*
X163576004Y-124372099D01*
X163703342Y-124373557D01*
G37*
G36*
X163335781Y-124204652D02*
G01*
X163335782Y-124634849D01*
X163369669Y-124651114D01*
X163408260Y-124674867D01*
X163440504Y-124705482D01*
X163465653Y-124741772D01*
X163482961Y-124782553D01*
X163491683Y-124826638D01*
X163492608Y-124846446D01*
X163487998Y-124892376D01*
X163474459Y-124935191D01*
X163452642Y-124973866D01*
X163423198Y-125007375D01*
X163386777Y-125034694D01*
X163366076Y-125045749D01*
X163349742Y-125052958D01*
X163335557Y-125057628D01*
X163320323Y-125060396D01*
X163300843Y-125061901D01*
X163281852Y-125062577D01*
X163255645Y-125062885D01*
X163236175Y-125061904D01*
X163220424Y-125059307D01*
X163205371Y-125054765D01*
X163203412Y-125054052D01*
X163161261Y-125033471D01*
X163124750Y-125005222D01*
X163094830Y-124970153D01*
X163079063Y-124943499D01*
X163063319Y-124901860D01*
X163056678Y-124859142D01*
X163058712Y-124816569D01*
X163068994Y-124775366D01*
X163087095Y-124736757D01*
X163112588Y-124701966D01*
X163145045Y-124672219D01*
X163181629Y-124649896D01*
X163218224Y-124632051D01*
X163218119Y-124209381D01*
X163218104Y-124145775D01*
X163218090Y-124084932D01*
X163218079Y-124027574D01*
X163218069Y-123974421D01*
X163218062Y-123926194D01*
X163218057Y-123883613D01*
X163218054Y-123847399D01*
X163218054Y-123818273D01*
X163218056Y-123796955D01*
X163218061Y-123784166D01*
X163218066Y-123780583D01*
X163220845Y-123777812D01*
X163229866Y-123775946D01*
X163246241Y-123774869D01*
X163271080Y-123774465D01*
X163276950Y-123774455D01*
X163335780Y-123774455D01*
X163335781Y-124204652D01*
G37*
G36*
X163331531Y-123282533D02*
G01*
X163371124Y-123297828D01*
X163407521Y-123320743D01*
X163439626Y-123350894D01*
X163466345Y-123387898D01*
X163480790Y-123416570D01*
X163482252Y-123420288D01*
X163483559Y-123424583D01*
X163484723Y-123430010D01*
X163485755Y-123437126D01*
X163486667Y-123446488D01*
X163487470Y-123458650D01*
X163488175Y-123474169D01*
X163488796Y-123493601D01*
X163489342Y-123517502D01*
X163489825Y-123546429D01*
X163490258Y-123580936D01*
X163490650Y-123621581D01*
X163491016Y-123668919D01*
X163491364Y-123723506D01*
X163491708Y-123785898D01*
X163492059Y-123856652D01*
X163492427Y-123936323D01*
X163492661Y-123988309D01*
X163495112Y-124537987D01*
X163522634Y-124560405D01*
X163552658Y-124589467D01*
X163581223Y-124625683D01*
X163606675Y-124666404D01*
X163627362Y-124708981D01*
X163641631Y-124750764D01*
X163641783Y-124751354D01*
X163651799Y-124809240D01*
X163652592Y-124867056D01*
X163644661Y-124923816D01*
X163628504Y-124978531D01*
X163604618Y-125030216D01*
X163573501Y-125077883D01*
X163535651Y-125120545D01*
X163491567Y-125157215D01*
X163441745Y-125186907D01*
X163416330Y-125198234D01*
X163364224Y-125214570D01*
X163309248Y-125223575D01*
X163254153Y-125224998D01*
X163201693Y-125218588D01*
X163199063Y-125218031D01*
X163164825Y-125209628D01*
X163136259Y-125200051D01*
X163109241Y-125187719D01*
X163085566Y-125174572D01*
X163035575Y-125139592D01*
X162992123Y-125097580D01*
X162955761Y-125049270D01*
X162927041Y-124995397D01*
X162906515Y-124936694D01*
X162906425Y-124936354D01*
X162900691Y-124905419D01*
X162897774Y-124868705D01*
X162897701Y-124839001D01*
X162974731Y-124839001D01*
X162977856Y-124890542D01*
X162989658Y-124940688D01*
X163009838Y-124988262D01*
X163038100Y-125032090D01*
X163074146Y-125070994D01*
X163082211Y-125078037D01*
X163109310Y-125097408D01*
X163142292Y-125115680D01*
X163177271Y-125130890D01*
X163203412Y-125139355D01*
X163230405Y-125144152D01*
X163262873Y-125146351D01*
X163296831Y-125145930D01*
X163328293Y-125142871D01*
X163343134Y-125140046D01*
X163393736Y-125123244D01*
X163439531Y-125098472D01*
X163479827Y-125066658D01*
X163513938Y-125028731D01*
X163541174Y-124985619D01*
X163560845Y-124938250D01*
X163572264Y-124887552D01*
X163574740Y-124834453D01*
X163574433Y-124828429D01*
X163566455Y-124774774D01*
X163549456Y-124724703D01*
X163523732Y-124678738D01*
X163489576Y-124637399D01*
X163447283Y-124601210D01*
X163445521Y-124599945D01*
X163414381Y-124577724D01*
X163413075Y-124013080D01*
X163411769Y-123448437D01*
X163398322Y-123425561D01*
X163375258Y-123395149D01*
X163346885Y-123372663D01*
X163314085Y-123358583D01*
X163277739Y-123353383D01*
X163265335Y-123353684D01*
X163229312Y-123360635D01*
X163197062Y-123376124D01*
X163169935Y-123399262D01*
X163149280Y-123429157D01*
X163148420Y-123430858D01*
X163137228Y-123453339D01*
X163134776Y-124016799D01*
X163132325Y-124580259D01*
X163106254Y-124598335D01*
X163064913Y-124631851D01*
X163031789Y-124669783D01*
X163005777Y-124713512D01*
X162995703Y-124736437D01*
X162980580Y-124787240D01*
X162974731Y-124839001D01*
X162897701Y-124839001D01*
X162897679Y-124829829D01*
X162900417Y-124792406D01*
X162905993Y-124760052D01*
X162906039Y-124759863D01*
X162912391Y-124738724D01*
X162921770Y-124713153D01*
X162932580Y-124687365D01*
X162937627Y-124676520D01*
X162948219Y-124655668D01*
X162958428Y-124638547D01*
X162970114Y-124622658D01*
X162985137Y-124605504D01*
X163005358Y-124584586D01*
X163008258Y-124581668D01*
X163056336Y-124533390D01*
X163056394Y-123998267D01*
X163056402Y-123912501D01*
X163056423Y-123835967D01*
X163056479Y-123768092D01*
X163056594Y-123708302D01*
X163056789Y-123656024D01*
X163057089Y-123610685D01*
X163057515Y-123571712D01*
X163058092Y-123538531D01*
X163058842Y-123510570D01*
X163059788Y-123487255D01*
X163060952Y-123468013D01*
X163062358Y-123452270D01*
X163064029Y-123439454D01*
X163065988Y-123428991D01*
X163068257Y-123420309D01*
X163070860Y-123412833D01*
X163073819Y-123405990D01*
X163077158Y-123399208D01*
X163080642Y-123392417D01*
X163094157Y-123371354D01*
X163113189Y-123348476D01*
X163134785Y-123326907D01*
X163155993Y-123309770D01*
X163163073Y-123305223D01*
X163204511Y-123286203D01*
X163247130Y-123276337D01*
X163289834Y-123275242D01*
X163331531Y-123282533D01*
G37*
D11*
X152859419Y-127315001D02*
X153140581Y-127315000D01*
X152859419Y-128335000D02*
X153140581Y-128334999D01*
X141575000Y-131735000D02*
X143860002Y-131734999D01*
X143860001Y-130264999D02*
X141575001Y-130265001D01*
X143860002Y-131734999D02*
X143860001Y-130264999D01*
D14*
X139200900Y-116263339D02*
X139200900Y-117036657D01*
X139200900Y-118478800D02*
X143849099Y-118478802D01*
X143849100Y-114821200D02*
X139200901Y-114821198D01*
X143849100Y-117036661D02*
X143849100Y-116263343D01*
D11*
X144962258Y-113002500D02*
X144487742Y-113002500D01*
X144962258Y-114047500D02*
X144487742Y-114047500D01*
X148215000Y-128515580D02*
X148215000Y-128234420D01*
X149235000Y-128515580D02*
X149235000Y-128234420D01*
D15*
X148750000Y-112499999D02*
X159149999Y-112500000D01*
X148750000Y-126800000D02*
X148750000Y-112499999D01*
X159149999Y-112500000D02*
X159150000Y-126799998D01*
X159150000Y-126799998D02*
X148750000Y-126800000D01*
D11*
X146740000Y-128515580D02*
X146740000Y-128234420D01*
X147760000Y-128515580D02*
X147760000Y-128234420D01*
X146275000Y-121915000D02*
X145475000Y-121915000D01*
X146275000Y-121915000D02*
X147075000Y-121915000D01*
X146275000Y-125035000D02*
X145475000Y-125035000D01*
X146275000Y-125035000D02*
X147075000Y-125035000D01*
X144975000Y-121965000D02*
X144735000Y-121635000D01*
X145215000Y-121635000D01*
X144975000Y-121965000D01*
G36*
X144975000Y-121965000D02*
G01*
X144735000Y-121635000D01*
X145215000Y-121635000D01*
X144975000Y-121965000D01*
G37*
X161287258Y-117827500D02*
X160812742Y-117827500D01*
X161287258Y-118872500D02*
X160812742Y-118872500D01*
X153415000Y-135209420D02*
X153415000Y-135490580D01*
X154435000Y-135209420D02*
X154435000Y-135490580D01*
X149512777Y-138135000D02*
X149187221Y-138134999D01*
X149512779Y-137115001D02*
X149187223Y-137115000D01*
X138925000Y-129975000D02*
G75*
G02*
X137525000Y-129975000I-700000J0D01*
G01*
X137525000Y-129975000D02*
G75*
G02*
X138925000Y-129975000I700000J0D01*
G01*
D14*
X156706614Y-134169979D02*
X157253434Y-134716797D01*
X158273182Y-135736545D02*
X161559952Y-132449771D01*
X158973636Y-129863455D02*
X155686866Y-133150229D01*
X160540204Y-131430021D02*
X159993384Y-130883203D01*
D11*
X141550001Y-135023200D02*
X143835003Y-135023199D01*
X143835002Y-133553199D02*
X141550002Y-133553201D01*
X143835003Y-135023199D02*
X143835002Y-133553199D01*
X150240000Y-128690580D02*
X150240000Y-128409420D01*
X151260000Y-128690580D02*
X151260000Y-128409420D01*
D14*
X147271100Y-130945401D02*
X147271100Y-131364561D01*
X147271100Y-136203201D02*
X147690260Y-136203201D01*
X147271101Y-135784039D02*
X147271100Y-136203201D01*
X147690262Y-130945402D02*
X147271100Y-130945401D01*
X152109738Y-136203200D02*
X152528900Y-136203201D01*
X152528899Y-131364563D02*
X152528900Y-130945401D01*
X152528900Y-130945401D02*
X152109740Y-130945401D01*
X152528900Y-136203201D02*
X152528900Y-135784041D01*
D11*
X145240000Y-128515580D02*
X145240000Y-128234420D01*
X146260000Y-128515580D02*
X146260000Y-128234420D01*
X140050000Y-131675000D02*
G75*
G02*
X138650000Y-131675000I-700000J0D01*
G01*
X138650000Y-131675000D02*
G75*
G02*
X140050000Y-131675000I700000J0D01*
G01*
X141550000Y-133360000D02*
X143835002Y-133359999D01*
X143835001Y-131889999D02*
X141550001Y-131890001D01*
X143835002Y-133359999D02*
X143835001Y-131889999D01*
D15*
X136512498Y-119345750D02*
X137112499Y-119345750D01*
X136512500Y-128285747D02*
X137112498Y-128285752D01*
X141412497Y-128285751D02*
X140112497Y-128285750D01*
X141412500Y-119345748D02*
X140112498Y-119345748D01*
D14*
X160447851Y-123322200D02*
X160447851Y-125176400D01*
X162302051Y-125176400D02*
X162302051Y-123322200D01*
D11*
X161794950Y-122919297D02*
X161554951Y-122589300D01*
X162034949Y-122589300D01*
X161794950Y-122919297D01*
G36*
X161794950Y-122919297D02*
G01*
X161554951Y-122589300D01*
X162034949Y-122589300D01*
X161794950Y-122919297D01*
G37*
X159564998Y-116090001D02*
X159564998Y-117559999D01*
X159564998Y-117559999D02*
X161849998Y-117560001D01*
X161850000Y-116090000D02*
X159564998Y-116090001D01*
X154312742Y-130377500D02*
X154787258Y-130377500D01*
X154312742Y-131422500D02*
X154787258Y-131422500D01*
X161012742Y-126752500D02*
X161487258Y-126752500D01*
X161012742Y-127797500D02*
X161487258Y-127797500D01*
X141890580Y-113015000D02*
X141609420Y-113015000D01*
X141890580Y-114035000D02*
X141609420Y-114035000D01*
%LPC*%
D16*
X160425000Y-128725000D03*
X162075000Y-128725000D03*
D17*
X160649999Y-121762000D03*
X161150001Y-121762000D03*
X161650000Y-121762001D03*
X162150000Y-121762000D03*
D18*
X162162000Y-121249999D03*
X162162001Y-120750000D03*
D17*
X162150001Y-120238000D03*
X161649999Y-120238000D03*
X161150000Y-120237999D03*
X160650000Y-120238000D03*
D18*
X160638000Y-120750001D03*
X160637999Y-121250000D03*
D19*
X146000000Y-135375001D03*
X146000000Y-133824999D03*
D20*
X152224999Y-127825000D03*
X153775001Y-127825000D03*
D21*
X143162502Y-131000001D03*
X141587498Y-130999999D03*
D22*
X143775001Y-117724999D03*
X139274998Y-117724999D03*
X143775002Y-115575001D03*
X139274999Y-115575001D03*
D23*
X145550000Y-113525000D03*
X143900000Y-113525000D03*
D19*
X148725000Y-129150000D03*
X148725000Y-127600000D03*
D24*
X158349999Y-126049999D03*
X157250001Y-126050000D03*
X156150000Y-126049999D03*
X155050000Y-126050000D03*
X153949999Y-126050001D03*
X152850000Y-126050000D03*
X151749999Y-126050001D03*
X150650000Y-126050001D03*
X149549999Y-126050000D03*
X158350000Y-124950000D03*
X157250000Y-124950001D03*
X156150000Y-124950000D03*
X155050000Y-124950001D03*
X153950000Y-124950000D03*
X152849999Y-124950001D03*
X151750000Y-124950000D03*
X150650000Y-124949999D03*
X149550000Y-124950000D03*
X158349999Y-123850000D03*
X157250002Y-123850000D03*
X155050000Y-123850000D03*
X153949999Y-123850001D03*
X152850000Y-123850000D03*
X150650000Y-123850002D03*
X149549999Y-123850000D03*
X158350000Y-122750000D03*
X157250000Y-122750000D03*
X156150000Y-122750000D03*
X151750000Y-122750000D03*
X150650001Y-122750000D03*
X149550000Y-122750000D03*
X158350001Y-121650001D03*
X157250000Y-121650000D03*
X156150000Y-121650001D03*
X154500000Y-121650000D03*
X153400000Y-121650000D03*
X151750000Y-121650000D03*
X150650000Y-121650000D03*
X149549999Y-121650000D03*
X158350000Y-120550000D03*
X157250001Y-120550001D03*
X156150000Y-120550000D03*
X154499999Y-120550001D03*
X153400001Y-120549999D03*
X151750000Y-120550000D03*
X150649999Y-120549999D03*
X149550000Y-120550000D03*
X158350001Y-119450000D03*
X157250000Y-119450000D03*
X156150000Y-119450000D03*
X154500000Y-119450000D03*
X153400000Y-119450000D03*
X151750000Y-119449999D03*
X150650000Y-119450000D03*
X149549999Y-119449999D03*
X158350000Y-118350000D03*
X157249999Y-118350000D03*
X156150000Y-118350000D03*
X151750000Y-118350000D03*
X150650000Y-118350000D03*
X149550000Y-118350000D03*
X158350001Y-117250000D03*
X157250000Y-117249998D03*
X156150000Y-117250000D03*
X154500000Y-117250000D03*
X153400000Y-117250000D03*
X151750000Y-117250001D03*
X150649998Y-117250000D03*
X149550001Y-117250000D03*
X158350000Y-116150000D03*
X157250000Y-116150001D03*
X156150000Y-116150000D03*
X153950000Y-116150000D03*
X151750000Y-116150000D03*
X150650000Y-116149999D03*
X149550000Y-116150000D03*
X158350000Y-114650000D03*
X149549999Y-114650000D03*
X158350000Y-113150000D03*
X157250000Y-113150000D03*
X150650000Y-113150000D03*
X149550000Y-113150000D03*
D19*
X147250000Y-129150000D03*
X147250000Y-127600000D03*
D25*
X145137500Y-122525000D03*
X145137500Y-123475000D03*
X145137500Y-124425000D03*
X147412500Y-124425000D03*
X147412500Y-123475000D03*
X147412500Y-122525000D03*
D23*
X161875000Y-118350000D03*
X160225000Y-118350000D03*
D26*
X153925000Y-134575000D03*
X153925000Y-136125000D03*
D21*
X150137502Y-137625001D03*
X148562498Y-137624999D03*
D27*
X138225000Y-129975000D03*
D28*
X160974540Y-131969148D03*
X157792557Y-135151131D03*
X159454261Y-130448869D03*
X156272278Y-133630852D03*
D21*
X143137503Y-134288201D03*
X141562499Y-134288199D03*
D19*
X150750000Y-129325000D03*
X150750000Y-127775000D03*
D29*
X148150001Y-136000001D03*
X148650000Y-136000002D03*
X149149999Y-136000000D03*
X149650000Y-136000002D03*
X150150001Y-136000001D03*
X150650001Y-136000001D03*
X151150000Y-136000000D03*
X151649999Y-136000001D03*
D30*
X152325700Y-135324300D03*
X152325701Y-134824301D03*
X152325699Y-134324302D03*
X152325701Y-133824301D03*
X152325700Y-133324300D03*
X152325700Y-132824300D03*
X152325699Y-132324301D03*
X152325700Y-131824302D03*
D29*
X151649999Y-131148601D03*
X151150000Y-131148600D03*
X150650001Y-131148602D03*
X150150000Y-131148600D03*
X149649999Y-131148601D03*
X149149999Y-131148601D03*
X148650000Y-131148602D03*
X148150001Y-131148601D03*
D30*
X147474300Y-131824302D03*
X147474299Y-132324301D03*
X147474301Y-132824300D03*
X147474299Y-133324301D03*
X147474300Y-133824302D03*
X147474300Y-134324302D03*
X147474301Y-134824301D03*
X147474300Y-135324300D03*
D31*
X149900000Y-133574301D03*
D19*
X145750000Y-129150000D03*
X145750000Y-127600000D03*
D27*
X139350000Y-131675000D03*
D21*
X143137502Y-132625001D03*
X141562498Y-132624999D03*
D32*
X143187498Y-120615746D03*
X143187498Y-121415750D03*
D33*
X143187497Y-122565751D03*
X143187502Y-123565747D03*
X143187501Y-124065745D03*
X143187500Y-125065751D03*
D32*
X143187498Y-126215750D03*
X143187501Y-127015753D03*
D33*
X143187498Y-125565750D03*
X143187496Y-124565752D03*
X143187497Y-123065750D03*
X143187498Y-122065750D03*
D34*
X142612499Y-119495748D03*
D35*
X138612498Y-119495747D03*
D34*
X142612499Y-128135750D03*
D35*
X138612498Y-128135753D03*
D36*
X161775000Y-123499999D03*
X160974900Y-123499997D03*
X160974902Y-124998601D03*
X161775002Y-124998603D03*
D37*
X161374951Y-124249300D03*
D38*
X160262499Y-116825000D03*
X161837501Y-116825000D03*
D16*
X153725000Y-130900000D03*
X155375000Y-130900000D03*
X160425000Y-127275000D03*
X162075000Y-127275000D03*
D39*
X142525000Y-113525000D03*
X140975000Y-113525000D03*
D40*
X146615001Y-120360002D03*
X147631004Y-115279997D03*
X145599002Y-115279996D03*
%LPD*%
M02*
